<svg xmlns="http://www.w3.org/2000/svg" xmlns:xlink="http://www.w3.org/1999/xlink" width="16" height="16" viewBox="0 0 16 16"><g><g><use xlink:href="#path0"/><use xlink:href="#path1"/></g></g><defs><path fill-rule="evenodd" d="M13.8 12.1a.9.9 0 0 1-.9.9H.9a.9.9 0 0 1 0-1.8h1V6.89a5 5 0 0 1 4-4.84V1a1 1 0 0 1 2 0v1.05a5 5 0 0 1 4 4.84v4.31h1a.9.9 0 0 1 .9.9zM6.34 3.81A3.16 3.16 0 0 0 3.7 6.89v4.31h6.4V6.89a3.16 3.16 0 0 0-2.64-3.08.91.91 0 0 1-1.12 0z"/><path d="M3 2a1 1 0 0 0 0-2H1a1 1 0 1 0 0 2h2z"/></defs></svg>