<svg xmlns="http://www.w3.org/2000/svg" xmlns:xlink="http://www.w3.org/1999/xlink" width="24" height="24" viewBox="0 0 24 24"><g><g><use xlink:href="#path0"/></g></g><defs><path fill-rule="evenodd" d="M9.707 3.707A.997.997 0 0 1 9 4a5 5 0 0 0-5 5v8h10v-5a1 1 0 0 1 2 0v5h1a1 1 0 0 1 0 2H1a1 1 0 0 1 0-2h1V9a7.001 7.001 0 0 1 6-6.93V1a1 1 0 0 1 2 0v2a.997.997 0 0 1-.293.707zM7 22a1 1 0 0 1 0-2h4a1 1 0 0 1 0 2H7zm8.42-18l-2.7 3.375A1 1 0 0 0 13.5 9H18a1 1 0 0 0 0-2h-2.42l2.7-3.375A1 1 0 0 0 17.5 2H13a1 1 0 0 0 0 2h2.42z"/></defs></svg>