<svg xmlns="http://www.w3.org/2000/svg" xmlns:xlink="http://www.w3.org/1999/xlink" width="24" height="24" viewBox="0 0 24 24"><g><g><use xlink:href="#path0"/></g></g><defs><path fill-rule="evenodd" d="M9.707 3.707A.997.997 0 0 1 9 4a5 5 0 0 0-5 5v8h10v-5a1 1 0 0 1 2 0v5h1a1 1 0 0 1 0 2H1a1 1 0 0 1 0-2h1V9a7.001 7.001 0 0 1 6-6.93V1a1 1 0 0 1 2 0v2a.997.997 0 0 1-.293.707zM15 4.586l2.293-2.293a1 1 0 0 1 1.414 1.414L16.414 6l2.293 2.293a1 1 0 0 1-1.414 1.414L15 7.414l-2.293 2.293a1 1 0 0 1-1.414-1.414L13.586 6l-2.293-2.293a1 1 0 0 1 1.414-1.414L15 4.586zM6 21a1 1 0 0 0 1 1h4a1 1 0 0 0 0-2H7a1 1 0 0 0-1 1z"/></defs></svg>