<svg xmlns="http://www.w3.org/2000/svg" xmlns:xlink="http://www.w3.org/1999/xlink" width="24" height="24" viewBox="0 0 24 24"><g><g><use xlink:href="#path0"/></g></g><defs><path fill-rule="evenodd" d="M7.578 4.954a.539.539 0 0 0 .168-.396.539.539 0 0 0-.168-.397.549.549 0 0 0-.4-.166.525.525 0 0 0-.393.166.551.551 0 0 0-.16.397c0 .154.053.286.16.396.107.11.238.166.393.166a.549.549 0 0 0 .4-.166zm6.137 0a.55.55 0 0 0 .16-.396.55.55 0 0 0-.16-.397.525.525 0 0 0-.393-.166.549.549 0 0 0-.4.166.539.539 0 0 0-.168.397c0 .154.056.286.168.396.111.11.245.166.4.166a.525.525 0 0 0 .393-.166zM2.548 8.207c.291.288.437.634.437 1.038v6.202c0 .414-.143.765-.43 1.053a1.43 1.43 0 0 1-1.055.433c-.418 0-.772-.145-1.063-.433A1.426 1.426 0 0 1 0 15.447V9.245c0-.404.146-.75.437-1.038A1.454 1.454 0 0 1 1.5 7.774c.407 0 .757.144 1.048.433zm14.385 9.447c0 .442-.155.817-.466 1.125-.31.308-.684.461-1.121.461h-1.092v3.274c0 .414-.146.765-.437 1.053a1.453 1.453 0 0 1-1.063.433c-.417 0-.771-.144-1.063-.433a1.426 1.426 0 0 1-.436-1.053V19.24h-2.01v3.274c0 .414-.145.765-.436 1.053A1.453 1.453 0 0 1 7.746 24c-.408 0-.757-.144-1.049-.433a1.426 1.426 0 0 1-.436-1.053l-.015-3.274H5.17c-.447 0-.825-.153-1.136-.461a1.524 1.524 0 0 1-.466-1.125V8.048h13.366v9.606zM13.555 2.207a6.382 6.382 0 0 1 2.49 2.214c.621.947.932 1.983.932 3.108H3.509c0-1.125.31-2.161.932-3.108a6.358 6.358 0 0 1 2.504-2.214L5.911.317c-.068-.125-.043-.22.073-.288.126-.058.223-.029.291.086L7.324 2.02a7.215 7.215 0 0 1 2.926-.606c1.029 0 2.004.202 2.927.606L14.225.115c.068-.115.165-.144.291-.086.117.067.14.163.073.288l-1.034 1.89zm6.945 13.24c0 .414-.146.765-.437 1.053a1.454 1.454 0 0 1-1.063.433c-.407 0-.757-.145-1.048-.433a1.427 1.427 0 0 1-.437-1.053V9.245c0-.413.146-.762.437-1.045.291-.284.64-.426 1.048-.426.418 0 .772.142 1.063.426.291.283.437.632.437 1.045v6.202z"/></defs></svg>