<svg xmlns="http://www.w3.org/2000/svg" xmlns:xlink="http://www.w3.org/1999/xlink" width="16" height="16" viewBox="0 0 16 16"><g><g><use xlink:href="#path0"/></g></g><defs><path fill-rule="evenodd" d="M5.052 3.303a.36.36 0 0 0 .112-.265.36.36 0 0 0-.112-.264.366.366 0 0 0-.267-.11.35.35 0 0 0-.262.11.367.367 0 0 0-.106.264c0 .103.035.191.106.265a.35.35 0 0 0 .262.11.366.366 0 0 0 .267-.11zm4.092 0a.367.367 0 0 0 .106-.265.367.367 0 0 0-.106-.264.35.35 0 0 0-.263-.11.366.366 0 0 0-.266.11.36.36 0 0 0-.112.264c0 .103.037.191.112.265.074.074.163.11.266.11a.35.35 0 0 0 .263-.11zM1.699 5.47a.94.94 0 0 1 .29.693v4.134c0 .276-.095.51-.286.702a.953.953 0 0 1-.703.289A.969.969 0 0 1 .29 11 .95.95 0 0 1 0 10.298V6.164c0-.27.097-.5.291-.693A.97.97 0 0 1 1 5.183c.272 0 .504.096.699.288zm9.59 6.298c0 .295-.104.545-.31.75a1.024 1.024 0 0 1-.748.308h-.728v2.183a.95.95 0 0 1-.291.701.97.97 0 0 1-.71.289.97.97 0 0 1-.708-.289.95.95 0 0 1-.29-.701v-2.183h-1.34v2.183a.95.95 0 0 1-.292.701.97.97 0 0 1-.708.289.958.958 0 0 1-.699-.289.95.95 0 0 1-.291-.701l-.01-2.183h-.718c-.298 0-.55-.103-.757-.308a1.016 1.016 0 0 1-.31-.75V5.365h8.91v6.404zM9.037 1.471a4.255 4.255 0 0 1 1.66 1.476c.414.632.62 1.322.62 2.072H2.34c0-.75.207-1.44.622-2.072a4.238 4.238 0 0 1 1.67-1.476L3.94.211C3.896.129 3.91.065 3.989.02c.085-.038.15-.019.195.058l.698 1.27A4.81 4.81 0 0 1 6.833.941a4.81 4.81 0 0 1 1.951.404l.7-1.27c.045-.076.11-.095.193-.057.078.045.094.11.049.193l-.69 1.26zm4.63 8.827a.95.95 0 0 1-.292.702.969.969 0 0 1-.708.289.957.957 0 0 1-.699-.289.95.95 0 0 1-.291-.702V6.164c0-.276.097-.508.291-.698a.966.966 0 0 1 .699-.283c.278 0 .514.094.708.283.194.19.292.422.292.698v4.134z"/></defs></svg>