<svg xmlns="http://www.w3.org/2000/svg" xmlns:xlink="http://www.w3.org/1999/xlink" width="16" height="16" viewBox="0 0 16 16"><g><g><use xlink:href="#path0"/></g></g><defs><path fill-rule="evenodd" d="M13.333 11.683c-.248.8-.641 1.602-1.177 2.403-.823 1.257-1.643 1.885-2.46 1.885-.313 0-.76-.102-1.34-.308-.549-.205-1.03-.307-1.445-.307-.39 0-.843.105-1.36.317-.516.218-.937.327-1.263.327-.97 0-1.93-.83-2.881-2.49C.469 11.836 0 10.224 0 8.673c0-1.461.36-2.66 1.082-3.596.714-.923 1.62-1.385 2.718-1.385.46 0 1.024.096 1.694.289.664.192 1.104.288 1.321.288.287 0 .743-.109 1.369-.327.65-.218 1.203-.327 1.656-.327.759 0 1.439.209 2.038.625.332.231.664.552.996.962-.504.43-.868.808-1.091 1.135a3.435 3.435 0 0 0-.622 1.99c0 .795.22 1.51.66 2.144.44.635.944 1.039 1.512 1.212zM9.734.403c0 .392-.092.828-.277 1.309-.192.48-.488.923-.89 1.326-.345.347-.69.577-1.034.693-.236.07-.568.125-.996.163.02-.955.268-1.779.747-2.47C7.756.736 8.554.262 9.677 0c.006.02.014.054.024.106.01.051.017.086.024.106 0 .025.001.057.005.096.003.038.004.07.004.096z"/></defs></svg>