<svg xmlns="http://www.w3.org/2000/svg" xmlns:xlink="http://www.w3.org/1999/xlink" width="24" height="24" viewBox="0 0 24 24"><g><g><use xlink:href="#path0"/></g></g><defs><path fill-rule="evenodd" d="M20 17.524c-.373 1.202-.962 2.404-1.766 3.606-1.235 1.884-2.465 2.827-3.69 2.827-.469 0-1.139-.154-2.01-.462-.823-.308-1.546-.461-2.168-.461-.584 0-1.263.158-2.039.476-.775.327-1.407.49-1.895.49-1.455 0-2.895-1.245-4.321-3.736C.704 17.754 0 15.337 0 13.01c0-2.193.54-3.99 1.622-5.395C2.694 6.231 4.054 5.538 5.7 5.538c.69 0 1.536.145 2.541.433.996.289 1.656.433 1.982.433.43 0 1.115-.164 2.053-.49.976-.327 1.804-.49 2.483-.49 1.14 0 2.159.312 3.059.937.497.346.995.827 1.493 1.442-.756.644-1.302 1.211-1.637 1.702a5.152 5.152 0 0 0-.933 2.985c0 1.193.33 2.265.99 3.217.661.952 1.417 1.557 2.269 1.817zM14.602.606c0 .586-.14 1.24-.417 1.961-.287.721-.732 1.385-1.335 1.99-.517.52-1.034.866-1.55 1.04-.355.105-.853.187-1.494.244.029-1.432.402-2.668 1.12-3.706.708-1.03 1.905-1.74 3.59-2.135.009.029.02.082.035.159.015.077.027.13.036.158 0 .039.003.087.007.145.005.057.008.105.008.144z"/></defs></svg>