<svg xmlns="http://www.w3.org/2000/svg" xmlns:xlink="http://www.w3.org/1999/xlink" width="16" height="16" viewBox="0 0 16 16"><g><g><use xlink:href="#path0"/></g></g><defs><path fill-rule="evenodd" d="M12.08 0H1.92A1.93 1.93 0 0 0 0 1.94V4a.9.9 0 0 0 .26.63l.74.78v6.69A1.91 1.91 0 0 0 2.92 14h8.16A1.91 1.91 0 0 0 13 12.1V5.41l.74-.76A.9.9 0 0 0 14 4V1.94A1.93 1.93 0 0 0 12.08 0zM1.8 1.94a.13.13 0 0 1 .12-.14h10.16a.13.13 0 0 1 .12.14v1.71L10.69 5.2H8v-.7a1 1 0 0 0-2 0v.7H3.31L1.8 3.65V1.94zm1.04 10.235a.11.11 0 0 0 .08.025h8.16a.11.11 0 0 0 .12-.1V7H8v.5a1 1 0 0 1-2 0V7H2.8v5.1a.11.11 0 0 0 .04.075z"/></defs></svg>