<svg xmlns="http://www.w3.org/2000/svg" xmlns:xlink="http://www.w3.org/1999/xlink" width="24" height="24" viewBox="0 0 24 24"><g><g><use xlink:href="#path0"/></g></g><defs><path fill-rule="evenodd" d="M19.9 4a1 1 0 0 0-.011-2h-1.01V1a1 1 0 0 0-1.012-1 .968.968 0 0 0-.967 1v1h-1V1a1.055 1.055 0 0 0-1.067-1 .941.941 0 0 0-.933 1v1h-.989a1 1 0 1 0 0 2h.989v1h-.989a1 1 0 1 0 0 2h.989v1a1 1 0 0 0 2 0V7h1v1a1 1 0 0 0 2 0V7h.989a1 1 0 0 0 0-2H18.9V4h1zM17 11v5.142A4 4 0 0 1 20 20v1H0v-1a4 4 0 0 1 3-3.858V8H2a1 1 0 0 1-.447-1.896l7-3.481a1 1 0 0 1 .891 1.791L6.255 6H10a1 1 0 0 1 0 2H5v8h2v-6a1 1 0 0 1 2 0v6h2v-6a1 1 0 0 1 2 0v6h2v-5a1 1 0 0 1 2 0zm.731 8A2 2 0 0 0 16 18H4a2 2 0 0 0-1.732 1H17.73zM15.9 5h1V4h-1v1z"/></defs></svg>