<svg xmlns="http://www.w3.org/2000/svg" xmlns:xlink="http://www.w3.org/1999/xlink" width="16" height="16" viewBox="0 0 16 16"><g><g><use xlink:href="#path0"/><use xlink:href="#path1"/></g></g><defs><path fill-rule="evenodd" d="M11.898 11.512h1.1a.9.9 0 0 1 0 1.8h-12a.9.9 0 1 1 0-1.8h1.1a.856.856 0 0 1 0-.2v-5h-1.2a.9.9 0 0 1-.62-1.55l4.83-4.55a.9.9 0 0 1 1.24 1.3l-3.2 3h3.85a.9.9 0 0 1 .9.9v5.9a.857.857 0 0 1 0 .2h2.2a.858.858 0 0 1 0-.2v-4a.9.9 0 1 1 1.8 0v4a.858.858 0 0 1 0 .2zm-8-.2a.856.856 0 0 1 0 .2h2.2a.856.856 0 0 1 0-.2v-5h-2.2v5z"/><path fill-rule="evenodd" d="M5.4 3.8h.4a.8.8 0 1 1 0 1.6h-.4v.4a.8.8 0 1 1-1.6 0v-.4h-1v.4a.8.8 0 0 1-1.6 0v-.4H.8a.8.8 0 1 1 0-1.6h.4v-1H.8a.8.8 0 0 1 0-1.6h.4V.8a.8.8 0 1 1 1.6 0v.4h1V.8a.8.8 0 1 1 1.6 0v.4h.4a.8.8 0 0 1 0 1.6h-.4v1zm-2.6-1v1h1v-1h-1z"/></defs></svg>