<svg xmlns="http://www.w3.org/2000/svg" xmlns:xlink="http://www.w3.org/1999/xlink" width="24" height="24" viewBox="0 0 24 24"><g><g><use xlink:href="#path0"/></g></g><defs><path fill-rule="evenodd" d="M17 3h2a1 1 0 0 1 0 2h-2v2a1 1 0 0 1-2 0V5h-2a1 1 0 0 1 0-2h2V1a1 1 0 0 1 2 0v2zm0 13.142V11a1 1 0 0 0-2 0v5h-2v-6a1 1 0 0 0-2 0v6H9v-6a1 1 0 0 0-2 0v6H5V8h5a1 1 0 0 0 0-2H6.256l3.189-1.586a1 1 0 1 0-.891-1.791l-7 3.481A1 1 0 0 0 2 8h1v8.142A4 4 0 0 0 0 20v1h20v-1a4 4 0 0 0-3-3.858zM2.269 19A2 2 0 0 1 4 18h12a2 2 0 0 1 1.731 1H2.27z"/></defs></svg>