<svg xmlns="http://www.w3.org/2000/svg" xmlns:xlink="http://www.w3.org/1999/xlink" width="16" height="16" viewBox="0 0 16 16"><g><g><use xlink:href="#path0"/><use xlink:href="#path1"/></g></g><defs><path fill-rule="evenodd" d="M11.852 11.224h1.14a.9.9 0 0 1 0 1.8h-12a.9.9 0 0 1 0-1.8h1.1a.856.856 0 0 1 0-.2v-5h-1.2a.9.9 0 0 1-.57-1.59l5.1-4.2a.9.9 0 1 1 1.14 1.39l-3.16 2.6h3.59a.9.9 0 0 1 .86.9v5.9a.856.856 0 0 1 0 .2h2.2a.857.857 0 0 1 0-.2v-4a.9.9 0 1 1 1.8 0v4a.846.846 0 0 1 0 .2zm-7.96-5.2v5a.859.859 0 0 1-.04.2h2.24a.856.856 0 0 1 0-.2v-5h-2.2z"/><path d="M5 2H4V1a1 1 0 0 0-2 0v1H1a1 1 0 0 0 0 2h1v1a1 1 0 0 0 2 0V4h1a1 1 0 0 0 0-2z"/></defs></svg>