<svg xmlns="http://www.w3.org/2000/svg" xmlns:xlink="http://www.w3.org/1999/xlink" width="24" height="24" viewBox="0 0 24 24"><g><g><use xlink:href="#path0"/></g></g><defs><path fill-rule="evenodd" d="M0 10C0 4.477 4.477 0 10 0a10 10 0 0 1 10 10c0 5.523-4.477 10-10 10S0 15.523 0 10zm2 0a8 8 0 0 0 8 8 8.009 8.009 0 0 0 8-8 8 8 0 1 0-16 0zm8-6a3 3 0 0 0-3 3 1 1 0 0 0 2 0 1 1 0 0 1 2 0c0 .39-.257.7-.712 1.224A4.068 4.068 0 0 0 9 11a1 1 0 0 0 2 0c0-.524.287-.879.795-1.461A3.784 3.784 0 0 0 13 7a3 3 0 0 0-3-3zm1.25 10.5a1.25 1.25 0 1 1-2.5 0 1.25 1.25 0 0 1 2.5 0z"/></defs></svg>