<svg xmlns="http://www.w3.org/2000/svg" xmlns:xlink="http://www.w3.org/1999/xlink" width="16" height="16" viewBox="0 0 16 16"><g><g><use xlink:href="#path0"/><use xlink:href="#path1"/></g></g><defs><path d="M5.587.265a.9.9 0 0 0-1.27 0l-1.37 1.37-1.36-1.37a.905.905 0 1 0-1.28 1.28l1.37 1.36-1.37 1.36a.9.9 0 1 0 1.27 1.27l1.37-1.36 1.36 1.36a.9.9 0 0 0 1.27-1.27l-1.36-1.36 1.36-1.36a.9.9 0 0 0 .01-1.28z"/><path fill-rule="evenodd" d="M0 7a7 7 0 1 1 14 0A7 7 0 0 1 0 7zm1.8 0A5.2 5.2 0 0 0 7 12.2 5.21 5.21 0 0 0 12.2 7 5.2 5.2 0 0 0 1.8 7z"/></defs></svg>