<svg xmlns="http://www.w3.org/2000/svg" xmlns:xlink="http://www.w3.org/1999/xlink" width="16" height="16" viewBox="0 0 16 16"><g><g><use xlink:href="#path0"/><use xlink:href="#path1"/><use xlink:href="#path2"/></g></g><defs><path d="M.9 3.8a.9.9 0 0 0 .9-.9v-2A.9.9 0 1 0 0 .9v2a.9.9 0 0 0 .9.9z"/><path d="M1 2a1 1 0 1 0 0-2 1 1 0 0 0 0 2z"/><path fill-rule="evenodd" d="M15.616 15.287a1 1 0 0 1-.849.477H1.007a1 1 0 0 1-.9-1.45L6.987.554a1 1 0 0 1 1.79 0l6.88 13.76a1 1 0 0 1-.04.973zm-2.14-1.323l-5.589-11.2-5.59 11.2h11.18z"/></defs></svg>