<svg xmlns="http://www.w3.org/2000/svg" xmlns:xlink="http://www.w3.org/1999/xlink" width="24" height="24" viewBox="0 0 24 24"><g><g><use xlink:href="#path0"/></g></g><defs><path fill-rule="evenodd" d="M10 0C4.477 0 0 4.477 0 10s4.477 10 10 10 10-4.477 10-10A10 10 0 0 0 10 0zm0 18a8 8 0 1 1 0-16 8 8 0 0 1 0 16zm2.3-11.71a1 1 0 0 1 1.41 0 1 1 0 0 1-.01 1.42L11.41 10l2.29 2.29a1 1 0 0 1-1.41 1.41L10 11.41 7.7 13.7a1 1 0 1 1-1.41-1.41L8.59 10l-2.3-2.29a1.004 1.004 0 1 1 1.42-1.42L10 8.59l2.3-2.3z"/></defs></svg>