<svg xmlns="http://www.w3.org/2000/svg" xmlns:xlink="http://www.w3.org/1999/xlink" width="16" height="16" viewBox="0 0 16 16"><g><g><use xlink:href="#path0"/><use xlink:href="#path1"/><use xlink:href="#path2"/></g></g><defs><path fill-rule="evenodd" d="M14 7A7 7 0 1 1 0 7a7 7 0 0 1 14 0zm-1.8 0A5.2 5.2 0 0 0 7 1.8 5.21 5.21 0 0 0 1.8 7a5.2 5.2 0 1 0 10.4 0z"/><path d="M1 2a1 1 0 1 0 0-2 1 1 0 0 0 0 2z"/><path d="M.8 3.1a.8.8 0 0 0 .8-.8.7.7 0 1 1 1.4 0 2 2 0 0 1-.57.9 7.65 7.65 0 0 0-.83 1.13.8.8 0 1 0 1.39.79c.196-.32.42-.62.67-.9A3 3 0 0 0 4.6 2.3a2.3 2.3 0 0 0-4.6 0 .8.8 0 0 0 .8.8z"/></defs></svg>