<svg xmlns="http://www.w3.org/2000/svg" xmlns:xlink="http://www.w3.org/1999/xlink" width="16" height="16" viewBox="0 0 16 16"><g><g><use xlink:href="#path0"/><use xlink:href="#path1"/></g></g><defs><path fill-rule="evenodd" d="M9.1 14H4.9A4.91 4.91 0 0 1 0 9.1V2.5A2.57 2.57 0 0 1 2.5 0 2.57 2.57 0 0 1 5 2.5a.9.9 0 1 1-1.8 0 .78.78 0 0 0-.7-.7.78.78 0 0 0-.7.7V7H14v2.1A4.91 4.91 0 0 1 9.1 14zm0-1.8a3.1 3.1 0 0 0 3.1-3.1v-.3H1.8v.3a3.1 3.1 0 0 0 3.1 3.1h4.2z"/><path d="M1.38.075a1 1 0 0 0-.76 0 1.15 1.15 0 0 0-.33.21 1.15 1.15 0 0 0-.21.33.95.95 0 0 0 0 .76c.05.121.121.233.21.33.097.088.208.16.33.21a.94.94 0 0 0 .76 0 1.16 1.16 0 0 0 .33-.21 1.16 1.16 0 0 0 .21-.33.94.94 0 0 0 0-.76 1.16 1.16 0 0 0-.21-.33 1.16 1.16 0 0 0-.33-.21z"/></defs></svg>