<svg xmlns="http://www.w3.org/2000/svg" xmlns:xlink="http://www.w3.org/1999/xlink" width="16" height="16" viewBox="0 0 16 16"><g><g><use xlink:href="#path0"/><use xlink:href="#path1"/></g></g><defs><path fill-rule="evenodd" d="M10.9 3h-2v-.1a3 3 0 0 0-3-2.9 3 3 0 0 0-3 2.9V3h-2a.9.9 0 0 0 0 1.8.856.856 0 0 0 0 .2l.44 7.26A1.93 1.93 0 0 0 3.27 14h5.27a1.94 1.94 0 0 0 1.92-1.8L10.9 5a.839.839 0 0 0 0-.16.92.92 0 1 0 0-1.84zm-6.2-.1a1.15 1.15 0 0 1 1.2-1.1 1.15 1.15 0 0 1 1.2 1.1V3H4.7v-.1zm4.4 1.95v-.01h.01c0-.01.02.01.02.01H9.1zm0 0H2.7l.45 7.24a.12.12 0 0 0 .12.11h5.26a.13.13 0 0 0 .12-.12l.45-7.23z"/><path d="M.9 0a.9.9 0 0 0-.9.9v3a.9.9 0 1 0 1.8 0v-3A.9.9 0 0 0 .9 0z"/></defs></svg>