<svg xmlns="http://www.w3.org/2000/svg" xmlns:xlink="http://www.w3.org/1999/xlink" width="24" height="24" viewBox="0 0 24 24"><g><g><use xlink:href="#path0"/></g></g><defs><path fill-rule="evenodd" d="M15 4h-3.039A4.138 4.138 0 0 0 8 0a4.138 4.138 0 0 0-3.969 4H1a1 1 0 0 0 0 2h.07L2 19.071A1 1 0 0 0 3 20h10a1 1 0 0 0 1-.929L14.93 6H15a1 1 0 0 0 0-2zM8 2a2.125 2.125 0 0 1 1.967 2H6.029A2.125 2.125 0 0 1 8 2zM3.932 18h8.14l.854-12H3.075l.857 12zM10 17a1 1 0 0 0 1-1V9a1 1 0 0 0-2 0v7a1 1 0 0 0 1 1zm-3-1a1 1 0 0 1-2 0V9a1 1 0 0 1 2 0v7z"/></defs></svg>