<svg xmlns="http://www.w3.org/2000/svg" xmlns:xlink="http://www.w3.org/1999/xlink" width="24" height="24" viewBox="0 0 24 24"><g><g><use xlink:href="#path0"/></g></g><defs><path fill-rule="evenodd" d="M6.883 17a4.994 4.994 0 0 1-4.743-3.419L.513 8.7A9.99 9.99 0 0 1 0 5.539V2a2 2 0 0 1 2-2h5a2 2 0 0 1 2 2v6a2.08 2.08 0 0 0 2 2 2.03 2.03 0 0 0 2-2V2a2 2 0 0 1 2-2h5a2 2 0 0 1 2 2v3.539c.002.925-.125 1.845-.376 2.735a1 1 0 0 1-1.924-.547A7.997 7.997 0 0 0 19.968 6H15v2a4 4 0 0 1-4 4 4.054 4.054 0 0 1-4-4V6H2.037c.033.703.158 1.399.374 2.069l1.626 4.879A3 3 0 0 0 6.883 15h1.289a3 3 0 0 1 5.657 0H17a1 1 0 0 1 0 2h-4a1 1 0 0 1-1-1 1 1 0 0 0-2 0 1 1 0 0 1-1 1H6.883zM22 11h-5a1 1 0 0 0 0 2h5a1 1 0 0 0 0-2zM9 18a1 1 0 0 1 0 2H5a1 1 0 0 1 0-2h4zm8 0a1 1 0 0 1 0 2h-4a1 1 0 0 1 0-2h4zm3-16v2h-5V2h5zM7 4V2H2v2h5z"/></defs></svg>