<svg xmlns="http://www.w3.org/2000/svg" xmlns:xlink="http://www.w3.org/1999/xlink" width="16" height="16" viewBox="0 0 16 16"><g><g><use xlink:href="#path0"/><use xlink:href="#path0"/><use xlink:href="#path1"/><use xlink:href="#path2"/></g></g><defs><path d="M4 1a1 1 0 0 0-1-1H1a1 1 0 1 0 0 2h2a1 1 0 0 0 1-1z"/><path d="M5 0H1a1 1 0 1 0 0 2h4a1 1 0 0 0 0-2z"/><path fill-rule="evenodd" d="M1.56 9.16A2.88 2.88 0 0 0 4.26 11H6a.9.9 0 0 0 0-1.8H4.26a1.09 1.09 0 0 1-1-.7L2.15 5.73A5.123 5.123 0 0 1 1.94 5H4.2a2.81 2.81 0 1 0 5.6 0h2.26a5.127 5.127 0 0 1-.21.73.902.902 0 1 0 1.68.66A6.866 6.866 0 0 0 14 3.87V1.4A1.4 1.4 0 0 0 12.6 0H9.4A1.4 1.4 0 0 0 8 1.4V5a1 1 0 0 1-1 1.21A1 1 0 0 1 6 5V1.4A1.4 1.4 0 0 0 4.6 0H1.4A1.4 1.4 0 0 0 0 1.4v2.47c0 .863.163 1.718.48 2.52l1.08 2.77zM12.2 1.8v1.4H9.8V1.8h2.4zm-8 1.4V1.8H1.8v1.4h2.4z"/></defs></svg>