<svg xmlns="http://www.w3.org/2000/svg" xmlns:xlink="http://www.w3.org/1999/xlink" width="16" height="16" viewBox="0 0 16 16"><g><g><use xlink:href="#path0"/><use xlink:href="#path1"/><use xlink:href="#path2"/></g></g><defs><path d="M1 0a1 1 0 1 0 0 2h2a1 1 0 0 0 0-2H1z"/><path fill-rule="evenodd" d="M1.56 9.16A2.88 2.88 0 0 0 4.26 11H5a.9.9 0 0 0 0-1.8h-.74a1.09 1.09 0 0 1-1-.7L2.15 5.73A5.123 5.123 0 0 1 1.94 5H4.2a2.81 2.81 0 1 0 5.6 0h2.31a.89.89 0 0 0 .71.88.9.9 0 0 0 1.05-.71c.084-.428.128-.863.13-1.3V1.4A1.4 1.4 0 0 0 12.6 0H9.4A1.4 1.4 0 0 0 8 1.4V5a1 1 0 0 1-1 1.21A1 1 0 0 1 6 5V1.4A1.4 1.4 0 0 0 4.6 0H1.4A1.4 1.4 0 0 0 0 1.4v2.47c0 .863.163 1.718.48 2.52l1.08 2.77zM12.2 1.8v1.4H9.8V1.8h2.4zm-8 1.4V1.8H1.8v1.4h2.4z"/><path d="M6.23.296l-3.29 3.3-1.29-1.3a1 1 0 0 0-1.41 1.41l2.7 2.71 4.71-4.71A1 1 0 0 0 6.23.296z"/></defs></svg>