<svg xmlns="http://www.w3.org/2000/svg" xmlns:xlink="http://www.w3.org/1999/xlink" width="16" height="16" viewBox="0 0 16 16"><g><g><use xlink:href="#path0"/><use xlink:href="#path1"/><use xlink:href="#path2"/></g></g><defs><path d="M3 1a1 1 0 0 0-1-1H1a1 1 0 1 0 0 2h1a1 1 0 0 0 1-1z"/><path d="M2 2a1 1 0 0 0 0-2H1a1 1 0 1 0 0 2h1z"/><path fill-rule="evenodd" d="M4.26 11a2.88 2.88 0 0 1-2.7-1.84L.48 6.39A6.86 6.86 0 0 1 0 3.87V1.4A1.4 1.4 0 0 1 1.4 0h3.2A1.4 1.4 0 0 1 6 1.4V4a1 1 0 0 0 1 1.21A1 1 0 0 0 8 4V1.4A1.4 1.4 0 0 1 9.4 0h3.2A1.4 1.4 0 0 1 14 1.4v2.47c0 .863-.163 1.718-.48 2.52l-1.09 2.77A2.88 2.88 0 0 1 9.73 11H4.26zm7.94-7.8V1.8H9.8v1.4h2.4zM7 7a2.75 2.75 0 0 0 2.66-2h2.41a5.028 5.028 0 0 1-.21.73l-1.1 2.77a1.11 1.11 0 0 1-1 .7H8a1 1 0 0 0-2 0H4.26a1.11 1.11 0 0 1-1-.7L2.15 5.73A4.99 4.99 0 0 1 1.94 5h2.41A2.73 2.73 0 0 0 7 7zM4.2 3.2V1.8H1.8v1.4h2.4z"/></defs></svg>