<svg xmlns="http://www.w3.org/2000/svg" xmlns:xlink="http://www.w3.org/1999/xlink" width="24" height="24" viewBox="0 0 24 24"><g><g><use xlink:href="#path0"/></g></g><defs><path fill-rule="evenodd" d="M2.14 13.581A4.994 4.994 0 0 0 6.883 17H9a1 1 0 0 0 1-1 1 1 0 0 1 2 0 1 1 0 0 0 1 1h2.117a4.994 4.994 0 0 0 4.743-3.419L21.487 8.7c.34-1.02.513-2.087.513-3.161V2a2 2 0 0 0-2-2h-5a2 2 0 0 0-2 2v5a2.03 2.03 0 0 1-2 2 2.08 2.08 0 0 1-2-2V2a2 2 0 0 0-2-2H2a2 2 0 0 0-2 2v3.539a9.99 9.99 0 0 0 .514 3.16l1.626 4.882zM9 18a1 1 0 0 1 0 2H5a1 1 0 0 1 0-2h4zm8 0a1 1 0 0 1 0 2h-4a1 1 0 0 1 0-2h4zm3-14V2h-5v2h5zm-9 7a4 4 0 0 0 4-4V6h4.963a7.975 7.975 0 0 1-.373 2.069l-1.626 4.879A3 3 0 0 1 15.117 15h-1.288a3 3 0 0 0-5.658 0H6.883a3 3 0 0 1-2.847-2.052L2.411 8.069A7.943 7.943 0 0 1 2.037 6H7v1a4.054 4.054 0 0 0 4 4zM7 4V2H2v2h5z"/></defs></svg>