<svg xmlns="http://www.w3.org/2000/svg" xmlns:xlink="http://www.w3.org/1999/xlink" width="24" height="24" viewBox="0 0 24 24"><g><g><use xlink:href="#path0"/></g></g><defs><path fill-rule="evenodd" d="M0 2v3.539c0 1.074.172 2.142.512 3.16l1.626 4.88A4.994 4.994 0 0 0 6.883 17h3.029a1 1 0 0 0 0-2H6.883a3 3 0 0 1-2.846-2.052L2.412 8.069A7.96 7.96 0 0 1 2.037 6H7v2a4.054 4.054 0 0 0 4 4 4 4 0 0 0 4-4V6h4.963a8.105 8.105 0 0 1-.384 2.106l-.179.614a1 1 0 1 0 1.92.559l.167-.577c.34-1.02.513-2.088.513-3.163V2a2 2 0 0 0-2-2h-5a2 2 0 0 0-2 2v6a2.03 2.03 0 0 1-2 2 2.08 2.08 0 0 1-2-2V2a2 2 0 0 0-2-2H2a2 2 0 0 0-2 2zm20 0v2h-5V2h5zM7 4V2H2v2h5zm3 15a1 1 0 0 0-1-1H5a1 1 0 0 0 0 2h4a1 1 0 0 0 1-1zm8.868-2.956h3.044a1 1 0 0 1 0 2h-3.044V21a1 1 0 0 1-2 0v-2.956h-2.956a1 1 0 1 1 0-2h2.956V13a1 1 0 0 1 2 0v3.044z"/></defs></svg>