<svg xmlns="http://www.w3.org/2000/svg" xmlns:xlink="http://www.w3.org/1999/xlink" width="24" height="24" viewBox="0 0 24 24"><g><g><use xlink:href="#path0"/></g></g><defs><path fill-rule="evenodd" d="M2.14 13.581A4.994 4.994 0 0 0 6.883 17h2.234a1 1 0 0 0 0-2H6.883a3 3 0 0 1-2.847-2.052L2.411 8.069A7.943 7.943 0 0 1 2.037 6H7v2a4.054 4.054 0 0 0 4 4 4 4 0 0 0 4-4V6h4.963a7.966 7.966 0 0 1-.372 2.066l-.207.614a1 1 0 0 0 1.895.639l.209-.617c.34-1.02.512-2.088.512-3.163V2a2 2 0 0 0-2-2h-5a2 2 0 0 0-2 2v6a2.03 2.03 0 0 1-2 2 2.08 2.08 0 0 1-2-2V2a2 2 0 0 0-2-2H2a2 2 0 0 0-2 2v3.539a9.99 9.99 0 0 0 .514 3.16l1.626 4.882zM20 2v2h-5V2h5zM7 4V2H2v2h5zM5 18a1 1 0 0 0 0 2h4a1 1 0 0 0 0-2H5zm11-.414l5.293-5.293a1 1 0 0 1 1.414 1.414L16 20.414l-3.707-3.707a1 1 0 0 1 1.414-1.414L16 17.586z"/></defs></svg>