<svg xmlns="http://www.w3.org/2000/svg" xmlns:xlink="http://www.w3.org/1999/xlink" width="24" height="24" viewBox="0 0 24 24"><g><g><use xlink:href="#path0"/><use xlink:href="#path1"/></g></g><defs><path fill-rule="evenodd" d="M16 10a1 1 0 0 1 2 0v10.241l-7-4.084-7 4.084V8H0V3a3.118 3.118 0 0 1 3-3h6a1 1 0 0 1 0 2H5.794c.13.317.2.657.206 1v13.759l5-2.916 5 2.916V10zM2 3v3h2V3a1.137 1.137 0 0 0-1-1 1.132 1.132 0 0 0-1 1z"/><path d="M7 3H5V1a1 1 0 0 0-2 0v2H1a1 1 0 0 0 0 2h2v2a1 1 0 0 0 2 0V5h2a1 1 0 0 0 0-2z"/></defs></svg>