<svg xmlns="http://www.w3.org/2000/svg" xmlns:xlink="http://www.w3.org/1999/xlink" width="16" height="16" viewBox="0 0 16 16"><g><g><use xlink:href="#path0"/><use xlink:href="#path1"/></g></g><defs><path d="M5 0H1a1 1 0 1 0 0 2h4a1 1 0 0 0 0-2z"/><path fill-rule="evenodd" d="M3 6.002H0v-3.6a2.4 2.4 0 0 1 2.4-2.4h7.69a2.79 2.79 0 0 1 2.66 1.64.9.9 0 0 1-.82 1.26.9.9 0 0 1-.82-.54 1 1 0 0 0-1-.56H4.8a.855.855 0 0 1 0 .1v8.76L8 9.102l3.2 1.56v-2.66a.9.9 0 0 1 1.8 0v5.54l-5-2.44-5 2.44v-7.54zm-1.2-3.6v1.8H3v-1.8a.6.6 0 1 0-1.2 0z"/></defs></svg>