<svg xmlns="http://www.w3.org/2000/svg" xmlns:xlink="http://www.w3.org/1999/xlink" width="16" height="16" viewBox="0 0 16 16"><g><g><use xlink:href="#path0"/><use xlink:href="#path1"/></g></g><defs><path d="M5 2H4V1a1 1 0 0 0-2 0v1H1a1 1 0 0 0 0 2h1v1a1 1 0 0 0 2 0V4h1a1 1 0 0 0 0-2z"/><path fill-rule="evenodd" d="M13 13.54L8 11.1l-5 2.44V6H0V2.4A2.4 2.4 0 0 1 2.4 0H7a.9.9 0 0 1 0 1.8H4.8a.855.855 0 0 1 0 .1v8.76L8 9.1l3.2 1.56V7A.9.9 0 0 1 13 7v6.54zM1.8 2.4v1.8H3V2.4a.6.6 0 1 0-1.2 0z"/></defs></svg>