<svg xmlns="http://www.w3.org/2000/svg" xmlns:xlink="http://www.w3.org/1999/xlink" width="24" height="24" viewBox="0 0 24 24"><g><g><use xlink:href="#path0"/></g></g><defs><path fill-rule="evenodd" d="M15.888 3.325a1 1 0 0 0 1.891-.654A3.943 3.943 0 0 0 14 .001H3a3.118 3.118 0 0 0-3 3v5h4v12.24l7-4.084 7 4.084v-9.24a1 1 0 0 0-2 0v5.758l-5-2.916-5 2.916V3a2.734 2.734 0 0 0-.206-1H14a1.965 1.965 0 0 1 1.888 1.325zM4 3v3H2V3a1.132 1.132 0 0 1 1-1c.525.06.94.475 1 1zm10 3h6a1 1 0 0 1 0 2h-6a1 1 0 0 1 0-2z"/></defs></svg>