<svg xmlns="http://www.w3.org/2000/svg" xmlns:xlink="http://www.w3.org/1999/xlink" width="16" height="16" viewBox="0 0 16 16"><g><g><use xlink:href="#path0"/><use xlink:href="#path1"/></g></g><defs><path d="M5.587.262a.9.9 0 0 0-1.27 0l-1.37 1.37-1.36-1.36a.9.9 0 0 0-1.27 1.27l1.36 1.36-1.37 1.36a.9.9 0 1 0 1.27 1.27l1.37-1.36 1.36 1.36a.9.9 0 0 0 1.27-1.27l-1.36-1.36 1.36-1.36a.9.9 0 0 0 .01-1.28z"/><path fill-rule="evenodd" d="M1 5H.9a.9.9 0 0 1-.9-.9V2a1.94 1.94 0 0 1 1.92-2h10.16A1.94 1.94 0 0 1 14 2v2.1a.9.9 0 0 1-.9.9H13v.5a.9.9 0 0 1-1.8 0V5H2.802v5.1a.1.1 0 0 0 .1.1h2a.9.9 0 1 1 0 1.8h-2A1.9 1.9 0 0 1 1 10.1V5zm.813-3.129A.15.15 0 0 0 1.801 2v1.2h10.4V2a.15.15 0 0 0-.12-.2H1.92a.15.15 0 0 0-.108.071z"/></defs></svg>