<svg xmlns="http://www.w3.org/2000/svg" xmlns:xlink="http://www.w3.org/1999/xlink" width="16" height="16" viewBox="0 0 16 16"><g><g><use xlink:href="#path0"/><use xlink:href="#path1"/></g></g><defs><path fill-rule="evenodd" d="M12.08 0H1.92A2 2 0 0 0 0 2v2.1a.9.9 0 0 0 .9.9H1v5.07A1.93 1.93 0 0 0 2.92 12h8.16A1.93 1.93 0 0 0 13 10.07V5h.1a.9.9 0 0 0 .9-.9V2a2 2 0 0 0-1.92-2zM1.8 2a.15.15 0 0 1 .12-.2h10.16a.15.15 0 0 1 .12.2v1.2H1.8V2zm9.368 8.191a.12.12 0 0 0 .032-.091V5H2.8v5.1a.12.12 0 0 0 .12.13h8.16a.12.12 0 0 0 .088-.039z"/><path d="M1 2h2a1 1 0 0 0 0-2H1a1 1 0 1 0 0 2z"/></defs></svg>