<svg xmlns="http://www.w3.org/2000/svg" xmlns:xlink="http://www.w3.org/1999/xlink" width="24" height="24" viewBox="0 0 24 24"><g><g><use xlink:href="#path0"/></g></g><defs><path fill-rule="evenodd" d="M3 6v10h6a1 1 0 0 1 0 2H3a2 2 0 0 1-2-2V6a1 1 0 0 1-1-1V2a2 2 0 0 1 2-2h16a2 2 0 0 1 2 2v3a1 1 0 0 1-1 1v4a1 1 0 0 1-2 0V6H3zm13 9.586l2.293-2.293a1 1 0 1 1 1.414 1.414L17.414 17l2.293 2.293a1 1 0 0 1-1.414 1.414L16 18.414l-2.293 2.293a1 1 0 1 1-1.414-1.414L14.586 17l-2.293-2.293a1 1 0 0 1 1.414-1.414L16 15.586zM2 2h16v2H2V2zm11 6a1 1 0 0 1 0 2H7a1 1 0 0 1 0-2h6z"/></defs></svg>