<svg xmlns="http://www.w3.org/2000/svg" xmlns:xlink="http://www.w3.org/1999/xlink" width="24" height="24" viewBox="0 0 24 24"><g><g><use xlink:href="#path0"/></g></g><defs><path fill-rule="evenodd" d="M3 18a2 2 0 0 1-2-2V6a1 1 0 0 1-1-1V2a2 2 0 0 1 2-2h16a2 2 0 0 1 2 2v3a1 1 0 0 1-1 1v5a1 1 0 0 1-2 0V6H3v10h5a1 1 0 0 1 0 2H3zm12.5.086l4.793-4.793a1 1 0 0 1 1.414 1.414L15.5 20.914l-3.707-3.707a1 1 0 0 1 1.414-1.414l2.293 2.293zM2 2h16v2H2V2zm4 7a1 1 0 0 1 1-1h6a1 1 0 0 1 0 2H7a1 1 0 0 1-1-1z"/></defs></svg>