<svg xmlns="http://www.w3.org/2000/svg" xmlns:xlink="http://www.w3.org/1999/xlink" width="16" height="15" viewBox="0 0 16 15"><g><g><use xlink:href="#path0"/><use xlink:href="#path1"/></g></g><defs><path fill-rule="evenodd" d="M14 12.088a1.9 1.9 0 0 1-1.9 1.9H1.9a1.9 1.9 0 0 1-1.9-1.9v-7.2c0-1.049.85-1.9 1.9-1.9h1.23a4 4 0 0 1 7.74 0h1.23c1.05 0 1.9.851 1.9 1.9v7.2zm-12.2 0a.1.1 0 0 0 .1.1h10.2a.1.1 0 0 0 .1-.1v-4.1H1.8v4.1zM7 1.739a2.2 2.2 0 0 1 2 1.25H5a2.2 2.2 0 0 1 2-1.25zm5.1 3H1.9v.05a.1.1 0 0 0-.1.1v1.3h10.4v-1.35a.1.1 0 0 0-.1-.1z"/><path d="M3 0H1a1 1 0 1 0 0 2h2a1 1 0 0 0 0-2z"/></defs></svg>