<svg xmlns="http://www.w3.org/2000/svg" xmlns:xlink="http://www.w3.org/1999/xlink" width="16" height="16" viewBox="0 0 16 16"><g><g><use xlink:href="#path0"/><use xlink:href="#path1"/><use xlink:href="#path1"/><use xlink:href="#path1"/><use xlink:href="#path2"/><use xlink:href="#path1"/><use xlink:href="#path1"/><use xlink:href="#path1"/></g></g><defs><path fill-rule="evenodd" d="M14 0v11.6a2.4 2.4 0 0 1-2.4 2.4H2.4A2.4 2.4 0 0 1 0 11.6V0h14zM1.8 1.8v9.8a.6.6 0 0 0 .6.6h9.2a.6.6 0 0 0 .6-.6V1.8H1.8z"/><path d="M1 2a1 1 0 1 0 0-2 1 1 0 0 0 0 2z"/><path d="M0 0h8v2H0V0z"/></defs></svg>