<svg xmlns="http://www.w3.org/2000/svg" xmlns:xlink="http://www.w3.org/1999/xlink" width="24" height="24" viewBox="0 0 24 24"><g><g><use xlink:href="#path0"/></g></g><defs><path fill-rule="evenodd" d="M3 21a3 3 0 0 1-3-3V0h17v18a3 3 0 0 1-3 3H3zM15 2H2v16a1 1 0 0 0 1 1h11a1 1 0 0 0 1-1V2zM4.5 10a1.5 1.5 0 1 0 0-3 1.5 1.5 0 0 0 0 3zM10 8.5a1.5 1.5 0 1 1-3 0 1.5 1.5 0 0 1 3 0zm2.5 1.5a1.5 1.5 0 1 0 0-3 1.5 1.5 0 0 0 0 3zM6 12.5a1.5 1.5 0 1 1-3 0 1.5 1.5 0 0 1 3 0zM8.5 14a1.5 1.5 0 1 0 0-3 1.5 1.5 0 0 0 0 3zm5.5-1.5a1.5 1.5 0 1 1-3 0 1.5 1.5 0 0 1 3 0zM4.5 18a1.5 1.5 0 1 0 0-3 1.5 1.5 0 0 0 0 3zm5.5-1.5a1.5 1.5 0 1 1-3 0 1.5 1.5 0 0 1 3 0zm2.5 1.5a1.5 1.5 0 1 0 0-3 1.5 1.5 0 0 0 0 3zM14 3H3v3h11V3z"/></defs></svg>