<svg xmlns="http://www.w3.org/2000/svg" xmlns:xlink="http://www.w3.org/1999/xlink" width="24" height="24" viewBox="0 0 24 24"><g><g><use xlink:href="#path0"/></g></g><defs><path fill-rule="evenodd" d="M3 20h15a3 3 0 0 0 3-3V5a3 3 0 0 0-3-3h-1V1a1 1 0 0 0-2 0v1H6V1a1 1 0 0 0-2 0v1H3a3 3 0 0 0-3 3v12a3 3 0 0 0 3 3zm15-2H3a1 1 0 0 1-1-1V9h17v8a1 1 0 0 1-1 1zM4 4H3a1 1 0 0 0-1 1v2h17V5a1 1 0 0 0-1-1h-1v1a1 1 0 0 1-2 0V4H6v1a1 1 0 0 1-2 0V4zm-1 6h3v3H3v-3zm7 0H7v3h3v-3zm1 0h3v3h-3v-3zm-5 4H3v3h3v-3zm1 0h3v3H7v-3zm7 0h-3v3h3v-3zm1-4h3v3h-3v-3zm3 4h-3v3h3v-3z"/></defs></svg>