<svg xmlns="http://www.w3.org/2000/svg" xmlns:xlink="http://www.w3.org/1999/xlink" width="16" height="16" viewBox="0 0 16 16"><g><g><use xlink:href="#path0"/><use xlink:href="#path1"/><use xlink:href="#path1"/><use xlink:href="#path1"/></g></g><defs><path fill-rule="evenodd" d="M2.9 13.9h8.2A2.9 2.9 0 0 0 14 11V4.8a2.9 2.9 0 0 0-2.9-2.9h-.3v-1A.9.9 0 0 0 9 .9v1H5v-1a.9.9 0 1 0-1.8 0v1h-.3A2.9 2.9 0 0 0 0 4.8V11a2.9 2.9 0 0 0 2.9 2.9zm8.2-1.8H2.9A1.1 1.1 0 0 1 1.8 11V7.9h10.4V11a1.1 1.1 0 0 1-1.1 1.1zM3.2 3.7h-.3a1.1 1.1 0 0 0-1.1 1.1v1.3h10.4V4.8a1.1 1.1 0 0 0-1.1-1.1h-.3v.2a.9.9 0 1 1-1.8 0v-.2H5v.2a.9.9 0 1 1-1.8 0v-.2z"/><path d="M0 0h2v2H0V0z"/></defs></svg>