<svg xmlns="http://www.w3.org/2000/svg" xmlns:xlink="http://www.w3.org/1999/xlink" width="24" height="24" viewBox="0 0 24 24"><g><g><use xlink:href="#path0"/></g></g><defs><path fill-rule="evenodd" d="M14 1a2 2 0 0 0-2 2h-1V2a2 2 0 0 0-2-2H6a2 2 0 0 0-2 2v1H3a3 3 0 0 0-3 3v7a3 3 0 0 0 3 3h7a1 1 0 0 0 0-2H3a1 1 0 0 1-1-1V6a1 1 0 0 1 1-1h12a1 1 0 0 1 1 1v2a1 1 0 0 0 2 0V6a3 3 0 0 0-2.018-2.821 1.24 1.24 0 0 1 .008-.067v-.003c.005-.036.01-.072.01-.109a2 2 0 0 0-2-2zm6 13h-2v-2a1 1 0 0 0-2 0v2h-2a1 1 0 0 0 0 2h2v2a1 1 0 0 0 2 0v-2h2a1 1 0 0 0 0-2zM9 2H6v1h3V2zM4 9.5a3.5 3.5 0 1 0 7 0 3.5 3.5 0 0 0-7 0zm3.5 1.7a1.7 1.7 0 1 0 0-3.4 1.7 1.7 0 0 0 0 3.4z"/></defs></svg>