<svg xmlns="http://www.w3.org/2000/svg" xmlns:xlink="http://www.w3.org/1999/xlink" width="16" height="16" viewBox="0 0 16 16"><g><g><use xlink:href="#path0"/><use xlink:href="#path1"/><use xlink:href="#path2"/></g></g><defs><path d="M3.9 0h-3a.9.9 0 0 0 0 1.8h3a.9.9 0 1 0 0-1.8z"/><path fill-rule="evenodd" d="M1.9 11.2H13a.9.9 0 1 1 0 1.8H1.9A1.9 1.9 0 0 1 0 11.1V4.9C0 3.85.85 3 1.9 3h1.2V1.9C3.1.85 3.95 0 5 0h2.2c1.05 0 1.9.85 1.9 1.9V3h.9a1.504 1.504 0 0 1 3 .22 1.89 1.89 0 0 1 1 1.68V6a.9.9 0 1 1-1.8 0V4.9a.1.1 0 0 0-.1-.1H1.9a.1.1 0 0 0-.1.1v6.2a.1.1 0 0 0 .1.1zM5 1.8a.1.1 0 0 0-.1.1V3h2.4V1.9a.1.1 0 0 0-.1-.1H5z"/><path fill-rule="evenodd" d="M2.6 5.2a2.6 2.6 0 1 1 0-5.2 2.6 2.6 0 0 1 0 5.2zm0-1.6a1 1 0 1 0 0-2 1 1 0 0 0 0 2z"/></defs></svg>