<svg xmlns="http://www.w3.org/2000/svg" xmlns:xlink="http://www.w3.org/1999/xlink" width="24" height="24" viewBox="0 0 24 24"><g><g><use xlink:href="#path0"/></g></g><defs><path fill-rule="evenodd" d="M16 16a1 1 0 0 0 0-2H3a1 1 0 0 1-1-1V6a1 1 0 0 1 1-1h12a1 1 0 0 1 1 1v1a1 1 0 0 0 2 0V6a3 3 0 0 0-2.018-2.821 1.24 1.24 0 0 1 .008-.067v-.003c.005-.036.01-.072.01-.109a2 2 0 1 0-4 0h-1V2a2 2 0 0 0-2-2H6a2 2 0 0 0-2 2v1H3a3 3 0 0 0-3 3v7a3 3 0 0 0 3 3h13zM6 2h3v1H6V2zm8 8h6a1 1 0 0 1 0 2h-6a1 1 0 0 1 0-2zM4 9.5a3.5 3.5 0 1 0 7 0 3.5 3.5 0 0 0-7 0zm3.5 1.7a1.7 1.7 0 1 0 0-3.4 1.7 1.7 0 0 0 0 3.4z"/></defs></svg>