<svg xmlns="http://www.w3.org/2000/svg" xmlns:xlink="http://www.w3.org/1999/xlink" width="16" height="16" viewBox="0 0 16 16"><g><g><use xlink:href="#path0"/><use xlink:href="#path1"/><use xlink:href="#path2"/></g></g><defs><path d="M5.642.312a.9.9 0 0 0-1.27 0l-1.41 1.37-1.37-1.41a.902.902 0 1 0-1.29 1.26l1.38 1.41-1.41 1.37a.902.902 0 0 0 1.26 1.29l1.37-1.39 1.37 1.41a.902.902 0 1 0 1.29-1.26l-1.34-1.42 1.41-1.37a.9.9 0 0 0 .01-1.26z"/><path fill-rule="evenodd" d="M6 13H1.9A1.9 1.9 0 0 1 0 11.1V4.9C0 3.85.85 3 1.9 3h1.2V1.9C3.1.85 3.95 0 5 0h2.2c1.05 0 1.9.85 1.9 1.9V3h.9a1.504 1.504 0 0 1 3 .22 1.89 1.89 0 0 1 1 1.68V7a.9.9 0 1 1-1.8 0V4.9a.1.1 0 0 0-.1-.1H1.9a.1.1 0 0 0-.1.1v6.2a.1.1 0 0 0 .1.1H6A.9.9 0 1 1 6 13zM4.93 1.83a.1.1 0 0 0-.03.07V3h2.4V1.9a.1.1 0 0 0-.1-.1H5a.1.1 0 0 0-.07.03z"/><path fill-rule="evenodd" d="M.198 1.605a2.6 2.6 0 1 1 4.804 1.99 2.6 2.6 0 0 1-4.804-1.99zM1.6 2.6a1 1 0 1 0 2 0 1 1 0 0 0-2 0z"/></defs></svg>