<svg xmlns="http://www.w3.org/2000/svg" xmlns:xlink="http://www.w3.org/1999/xlink" width="24" height="24" viewBox="0 0 24 24"><g><g><use xlink:href="#path0"/></g></g><defs><path fill-rule="evenodd" d="M6 0h3a2 2 0 0 1 2 2v1h1a2 2 0 1 1 4 0c0 .037-.005.073-.01.109v.003a1.24 1.24 0 0 0-.008.067A3 3 0 0 1 18 6v7a3 3 0 0 1-3 3H3a3 3 0 0 1-3-3V6a3 3 0 0 1 3-3h1V2a2 2 0 0 1 2-2zm1.5 13a3.5 3.5 0 1 0 0-7 3.5 3.5 0 0 0 0 7zm0-5.2a1.7 1.7 0 1 1 0 3.4 1.7 1.7 0 0 1 0-3.4zM6 2h3v1H6V2zm10 4a1 1 0 0 0-1-1H3a1 1 0 0 0-1 1v7a1 1 0 0 0 1 1h12a1 1 0 0 0 1-1V6z"/></defs></svg>