<svg xmlns="http://www.w3.org/2000/svg" xmlns:xlink="http://www.w3.org/1999/xlink" width="16" height="16" viewBox="0 0 16 16"><g><g><use xlink:href="#path0"/><use xlink:href="#path1"/><use xlink:href="#path2"/></g></g><defs><path d="M6.213.27l-3.36 3.37-1.36-1.37a.9.9 0 0 0-1.27 1.27l2.64 2.64 4.64-4.64A.905.905 0 1 0 6.213.27z"/><path fill-rule="evenodd" d="M5 13H1.9A1.9 1.9 0 0 1 0 11.1V4.9C0 3.85.85 3 1.9 3h1.2V1.9C3.1.85 3.95 0 5 0h2.2c1.05 0 1.9.85 1.9 1.9V3h.9a1.504 1.504 0 0 1 3 .22 1.89 1.89 0 0 1 1 1.68V7a.9.9 0 1 1-1.8 0V4.9a.1.1 0 0 0-.1-.1H1.9a.1.1 0 0 0-.1.1v6.2a.1.1 0 0 0 .1.1H5A.9.9 0 1 1 5 13zM4.93 1.83a.1.1 0 0 0-.03.07V3h2.4V1.9a.1.1 0 0 0-.1-.1H5a.1.1 0 0 0-.07.03z"/><path fill-rule="evenodd" d="M2.6 5.2a2.6 2.6 0 1 1 0-5.2 2.6 2.6 0 0 1 0 5.2zm0-1.6a1 1 0 1 0 0-2 1 1 0 0 0 0 2z"/></defs></svg>