<svg xmlns="http://www.w3.org/2000/svg" xmlns:xlink="http://www.w3.org/1999/xlink" width="24" height="24" viewBox="0 0 24 24"><g><g><use xlink:href="#path0"/></g></g><defs><path fill-rule="evenodd" d="M0 13a3 3 0 0 0 3 3h4a1 1 0 0 0 0-2H3a1 1 0 0 1-1-1V6a1 1 0 0 1 1-1h12a1 1 0 0 1 1 1v3.5a1 1 0 0 0 2 0V6a3 3 0 0 0-2.018-2.821 1.24 1.24 0 0 1 .008-.067v-.003c.005-.036.01-.072.01-.109a2 2 0 1 0-4 0h-1V2a2 2 0 0 0-2-2H6a2 2 0 0 0-2 2v1H3a3 3 0 0 0-3 3v7zm14 6.272l5.637-5.636a.9.9 0 0 0-1.273-1.273L14 16.728l-2.363-2.364a.9.9 0 0 0-1.273 1.273L14 19.272zM9 2H6v1h3V2zm2 7.5a3.5 3.5 0 1 0-7 0 3.5 3.5 0 0 0 7 0zm-5.2 0a1.7 1.7 0 1 0 3.4 0 1.7 1.7 0 0 0-3.4 0z"/></defs></svg>