<svg xmlns="http://www.w3.org/2000/svg" xmlns:xlink="http://www.w3.org/1999/xlink" width="16" height="16" viewBox="0 0 16 16"><g><g><use xlink:href="#path0"/><use xlink:href="#path1"/></g></g><defs><path fill-rule="evenodd" d="M1.9 13h10.2a1.9 1.9 0 0 0 1.9-1.9V4.9a1.89 1.89 0 0 0-1-1.68A1.504 1.504 0 1 0 10 3h-.9V1.9A1.9 1.9 0 0 0 7.2 0H5a1.9 1.9 0 0 0-1.9 1.9V3H1.9A1.9 1.9 0 0 0 0 4.9v6.2C0 12.15.85 13 1.9 13zm3-11.1a.1.1 0 0 1 .1-.1h2.2a.1.1 0 0 1 .1.1V3H4.9V1.9zm-3 2.9a.1.1 0 0 0-.1.1v6.2a.1.1 0 0 0 .1.1h10.2a.1.1 0 0 0 .1-.1V4.9a.1.1 0 0 0-.1-.1H1.9z"/><path fill-rule="evenodd" d="M5.2 2.6a2.6 2.6 0 1 1-5.2 0 2.6 2.6 0 0 1 5.2 0zm-1.6 0a1 1 0 1 0-2 0 1 1 0 0 0 2 0z"/></defs></svg>