<svg xmlns="http://www.w3.org/2000/svg" xmlns:xlink="http://www.w3.org/1999/xlink" width="16" height="16" viewBox="0 0 16 16"><g><g><use xlink:href="#path0"/><use xlink:href="#path1"/><use xlink:href="#path1"/></g></g><defs><path fill-rule="evenodd" d="M3.466 1.898h11.41a.9.9 0 0 1 .87 1.14l-1 3.49a5.08 5.08 0 0 1-4.58 3.37h-4.8l.07.32a1.08 1.08 0 0 0 1.05.88h6.39a.9.9 0 0 1 0 1.8h-6.39a2.87 2.87 0 0 1-2.81-2.3l-1.68-7.5a1.63 1.63 0 0 0-1.25-1.34.91.91 0 0 1-.74-1 .89.89 0 0 1 1-.75 3.38 3.38 0 0 1 2.46 1.89zm6.7 6.2a3.28 3.28 0 0 0 2.88-2.15l.63-2.25h-9.71l1 4.4h5.2z"/><path d="M1.9 1.8a.9.9 0 1 0 0-1.8h-1a.9.9 0 0 0 0 1.8h1z"/></defs></svg>