<svg xmlns="http://www.w3.org/2000/svg" xmlns:xlink="http://www.w3.org/1999/xlink" width="24" height="24" viewBox="0 0 24 24"><g><g><use xlink:href="#path0"/></g></g><defs><path fill-rule="evenodd" d="M21.596 3.085a1 1 0 0 1 .768-.013 1 1 0 0 1 .568 1.295l-2 5.123a1.003 1.003 0 0 1-.058.122 8.543 8.543 0 0 1-7.463 4.392H6.744a1.3 1.3 0 0 0 1.256 1h11a1 1 0 0 1 0 2H8a3.32 3.32 0 0 1-3.273-2.838L3.507 4.124A2.323 2.323 0 0 0 1 2.004a1 1 0 0 1 0-2A4.34 4.34 0 0 1 5.487 3.84l.992 8.163h6.932c2.35-.001 4.52-1.263 5.683-3.306l1.97-5.058a1 1 0 0 1 .532-.555zM8 20.004a2 2 0 1 1-4 0 2 2 0 0 1 4 0zm10 2a2 2 0 1 0 0-4 2 2 0 0 0 0 4zM14.293 2.297a1 1 0 0 1 1.414 1.414l-1.793 1.793 1.793 1.793a1 1 0 0 1-1.414 1.414L12.5 6.918 10.707 8.71a1 1 0 1 1-1.414-1.414l1.793-1.793L9.293 3.71a1 1 0 0 1 1.414-1.414L12.5 4.09l1.793-1.793z"/></defs></svg>