<svg xmlns="http://www.w3.org/2000/svg" xmlns:xlink="http://www.w3.org/1999/xlink" width="24" height="24" viewBox="0 0 24 24"><g><g><use xlink:href="#path0"/></g></g><defs><path fill-rule="evenodd" d="M23 3.004H8.781a4.286 4.286 0 0 0-4.281-3 1 1 0 0 0 0 2A2.324 2.324 0 0 1 7 4.09v9.935c0 .048.003.095.01.142A3.023 3.023 0 0 0 10 17.004h9a1 1 0 0 0 0-2h-9c-.647 0-.893-.518-.985-1h5.4c3.1 0 5.957-1.682 7.463-4.392a.927.927 0 0 0 .058-.122l2-5.123A1 1 0 0 0 23 3.004zm-2.906 5.694a6.54 6.54 0 0 1-5.683 3.306H9v-7h12.536l-1.442 3.694zM9 20.004a2 2 0 1 1-4 0 2 2 0 0 1 4 0zm8 2a2 2 0 1 0 0-4 2 2 0 0 0 0 4zm-11-16a1 1 0 0 1-1 1H1a1 1 0 0 1 0-2h4a1 1 0 0 1 1 1zm0 3a1 1 0 0 0-1-1H2.5a1 1 0 0 0 0 2H5a1 1 0 0 0 1-1zm0 3a1 1 0 0 1-1 1H4a1 1 0 0 1 0-2h1a1 1 0 0 1 1 1z"/></defs></svg>