<svg xmlns="http://www.w3.org/2000/svg" xmlns:xlink="http://www.w3.org/1999/xlink" width="16" height="16" viewBox="0 0 16 16"><g><g><use xlink:href="#path0"/></g></g><defs><path fill-rule="evenodd" d="M12.516 1.537l-4.14 4.14-2.14-2.13a.905.905 0 0 1 1.28-1.28l.86.87 2.86-2.87a.901.901 0 1 1 1.28 1.27zm1.5 1.12a.9.9 0 0 1 1.73.49l-1 3.49a5.08 5.08 0 0 1-4.58 3.37h-4.8l.12.33a1.07 1.07 0 0 0 1 .87h6.39a.9.9 0 0 1 0 1.8h-6.39a2.87 2.87 0 0 1-2.81-2.3s-1.26-5.73-1.68-7.6a1.63 1.63 0 0 0-1.25-1.34.91.91 0 0 1-.74-1 .89.89 0 0 1 1-.75 3.41 3.41 0 0 1 2.74 2.69c.13.675.394 1.836.671 3.052.19.836.386 1.698.55 2.448h5.199a3.29 3.29 0 0 0 2.85-2.15l1-3.4zm-8.24 12.45a.9.9 0 0 1-.9.9h-1a.9.9 0 1 1 0-1.8h1a.9.9 0 0 1 .9.9zm6.1.9h1a.9.9 0 1 0 0-1.8h-1a.9.9 0 0 0 0 1.8z"/></defs></svg>