<svg xmlns="http://www.w3.org/2000/svg" xmlns:xlink="http://www.w3.org/1999/xlink" width="16" height="16" viewBox="0 0 16 16"><g><g><use xlink:href="#path0"/><use xlink:href="#path1"/><use xlink:href="#path1"/><use xlink:href="#path2"/></g></g><defs><path d="M15.126 1.9a.9.9 0 0 0-1.11.62l-1 3.4a3.28 3.28 0 0 1-2.85 2.18h-5.2l-1.21-5.4A3.41 3.41 0 0 0 1.006.01a.88.88 0 0 0-1 .75.91.91 0 0 0 .74 1 1.63 1.63 0 0 1 1.25 1.34l1.68 7.5a2.87 2.87 0 0 0 2.81 2.3h6.39a.9.9 0 1 0 0-1.8h-6.39a1.07 1.07 0 0 1-1-.88l-.12-.32h4.8a5.08 5.08 0 0 0 4.58-3.37l1-3.49a.9.9 0 0 0-.62-1.14z"/><path d="M1.9 1.8a.9.9 0 1 0 0-1.8h-1a.9.9 0 0 0 0 1.8h1z"/><path d="M4.376.236a.8.8 0 0 0-1.13 0l-.94.94-.93-.94a.806.806 0 1 0-1.14 1.14l.94.93-.93.93a.803.803 0 0 0 1.13 1.14l.93-.94.93.94a.8.8 0 1 0 1.13-1.13l-.93-.94.93-.93a.8.8 0 0 0 .01-1.14z"/></defs></svg>