<svg xmlns="http://www.w3.org/2000/svg" xmlns:xlink="http://www.w3.org/1999/xlink" width="24" height="24" viewBox="0 0 24 24"><g><g><use xlink:href="#path0"/></g></g><defs><path fill-rule="evenodd" d="M15 3a3 3 0 1 0-6 0 1 1 0 0 0 2 0 1 1 0 0 1 2 0c0 .39-.257.7-.712 1.225A4.068 4.068 0 0 0 11 7a1 1 0 0 0 2 0c0-.524.287-.879.795-1.461A3.785 3.785 0 0 0 15 3zm7.364 1.068a1 1 0 0 0-1.3.568l-1.97 5.058A6.541 6.541 0 0 1 13.411 13H6.479l-.992-8.163A4.34 4.34 0 0 0 1 1a1 1 0 0 0 0 2 2.323 2.323 0 0 1 2.507 2.12l1.22 10.042A3.32 3.32 0 0 0 8 18h11a1 1 0 0 0 0-2H8a1.3 1.3 0 0 1-1.256-1h6.667a8.543 8.543 0 0 0 7.463-4.392c.022-.04.041-.08.058-.122l2-5.123a1 1 0 0 0-.568-1.295zM6 23a2 2 0 1 0 0-4 2 2 0 0 0 0 4zm14-2a2 2 0 1 1-4 0 2 2 0 0 1 4 0zm-6.75-11a1.25 1.25 0 1 1-2.5 0 1.25 1.25 0 0 1 2.5 0z"/></defs></svg>