<svg xmlns="http://www.w3.org/2000/svg" xmlns:xlink="http://www.w3.org/1999/xlink" width="16" height="16" viewBox="0 0 16 16"><g><g><use xlink:href="#path0"/><use xlink:href="#path1"/><use xlink:href="#path2"/><use xlink:href="#path3"/><use xlink:href="#path4"/></g></g><defs><path fill-rule="evenodd" d="M3.6 1.9h8.3a.9.9 0 0 1 .84 1.13l-1 3.69v.1A4.88 4.88 0 0 1 7.19 9.9H3.8v.42a1.16 1.16 0 0 0 1.1.78h4a.9.9 0 1 1 0 1.8h-4A3 3 0 0 1 2 10.6a.888.888 0 0 1 0-.18V2.9A1.17 1.17 0 0 0 .9 1.8.9.9 0 0 1 .9 0a2.94 2.94 0 0 1 2.7 1.9zm3.59 6.2a3.08 3.08 0 0 0 2.86-1.9l.68-2.5H3.8v4.4h3.39z"/><path d="M.9 1.8h1a.9.9 0 1 0 0-1.8h-1a.9.9 0 0 0 0 1.8z"/><path d="M1.9 1.8a.9.9 0 1 0 0-1.8h-1a.9.9 0 0 0 0 1.8h1z"/><path d="M.9 1.8h2a.9.9 0 1 0 0-1.8h-2a.9.9 0 0 0 0 1.8z"/><path d="M1.9 0h-1a.9.9 0 0 0 0 1.8h1a.9.9 0 1 0 0-1.8z"/></defs></svg>