<svg xmlns="http://www.w3.org/2000/svg" xmlns:xlink="http://www.w3.org/1999/xlink" width="24" height="24" viewBox="0 0 24 24"><g><g><use xlink:href="#path0"/></g></g><defs><path fill-rule="evenodd" d="M5 2.003h17a1 1 0 0 1 .932 1.363l-2 5.123a.95.95 0 0 1-.058.122 8.54 8.54 0 0 1-7.463 4.392H6.746a1.3 1.3 0 0 0 1.254 1h11a1 1 0 0 1 0 2H8a3.324 3.324 0 0 1-3.273-2.837L3.51 4.137A2.326 2.326 0 0 0 1 2.003a1 1 0 0 1 0-2A4.3 4.3 0 0 1 4.821 2.04.946.946 0 0 1 5 2.003zm8.411 9a6.54 6.54 0 0 0 5.683-3.306l1.442-3.694H5.508l.945 7h6.958zM6 21.003a2 2 0 1 0 0-4 2 2 0 0 0 0 4zm14-2a2 2 0 1 1-4 0 2 2 0 0 1 4 0z"/></defs></svg>