<svg xmlns="http://www.w3.org/2000/svg" xmlns:xlink="http://www.w3.org/1999/xlink" width="24" height="24" viewBox="0 0 24 24"><g><g><use xlink:href="#path0"/></g></g><defs><path fill-rule="evenodd" d="M21.068 3.64a1 1 0 0 1 1.864.727l-2 5.123a.95.95 0 0 1-.058.122 8.54 8.54 0 0 1-7.463 4.392H6.744a1.3 1.3 0 0 0 1.256 1h11a1 1 0 0 1 0 2H8a3.324 3.324 0 0 1-3.273-2.837L3.507 4.124A2.322 2.322 0 0 0 1 2.004a1 1 0 0 1 0-2A4.339 4.339 0 0 1 5.486 3.84l.993 8.163h6.932a6.54 6.54 0 0 0 5.683-3.306l1.974-5.058zM8 20.004a2 2 0 1 1-4 0 2 2 0 0 1 4 0zm10 2a2 2 0 1 0 0-4 2 2 0 0 0 0 4zm.707-19.293L12 9.418 8.293 5.71a1 1 0 0 1 1.414-1.414L12 6.59l5.293-5.293a1 1 0 0 1 1.414 1.414z"/></defs></svg>