<svg xmlns="http://www.w3.org/2000/svg" xmlns:xlink="http://www.w3.org/1999/xlink" width="24" height="24" viewBox="0 0 24 24"><g><g><use xlink:href="#path0"/></g></g><defs><path fill-rule="evenodd" d="M10 0C4.477 0 0 4.477 0 10s4.477 10 10 10 10-4.477 10-10A10 10 0 0 0 10 0zm.9 17.946V17a.9.9 0 1 0-1.8 0v.946A8.01 8.01 0 0 1 2.054 10.9H3a.9.9 0 1 0 0-1.8h-.946A8.011 8.011 0 0 1 9.1 2.054V3a.9.9 0 1 0 1.8 0v-.946A8.01 8.01 0 0 1 17.946 9.1H17a.9.9 0 1 0 0 1.8h.946a8.01 8.01 0 0 1-7.046 7.046zM11 9h3a1 1 0 0 1 0 2h-4a1 1 0 0 1-1-1V6a1 1 0 0 1 2 0v3z"/></defs></svg>