<svg xmlns="http://www.w3.org/2000/svg" xmlns:xlink="http://www.w3.org/1999/xlink" width="16" height="16" viewBox="0 0 16 16"><g><g><use xlink:href="#path0"/><use xlink:href="#path1"/></g></g><defs><path fill-rule="evenodd" d="M0 7a7 7 0 1 1 14 0A7 7 0 0 1 0 7zm7.9 4.5v.61a5.19 5.19 0 0 0 4.21-4.21h-.61a.9.9 0 1 1 0-1.8h.61A5.19 5.19 0 0 0 7.9 1.89v.61a.9.9 0 1 1-1.8 0v-.61A5.19 5.19 0 0 0 1.89 6.1h.61a.9.9 0 1 1 0 1.8h-.61a5.19 5.19 0 0 0 4.21 4.21v-.61a.9.9 0 0 1 1.8 0z"/><path d="M2.9 2H1.8V.9A.9.9 0 1 0 0 .9v2a.9.9 0 0 0 .9.9h2a.9.9 0 1 0 0-1.8z"/></defs></svg>