<svg xmlns="http://www.w3.org/2000/svg" xmlns:xlink="http://www.w3.org/1999/xlink" width="24" height="24" viewBox="0 0 24 24"><g><g><use xlink:href="#path0"/></g></g><defs><path fill-rule="evenodd" d="M13.574.076a7.493 7.493 0 0 1 6.285 5.937A4.5 4.5 0 0 1 19.514 15h-14a5.5 5.5 0 1 1 .364-10.987A7.493 7.493 0 0 1 13.574.076zM5.514 13h14.004a2.5 2.5 0 1 0 0-5c-.012 0-.024.002-.036.004a.208.208 0 0 1-.035.004l-.733.71a1 1 0 0 1-1.396-1.432l.605-.586A5.464 5.464 0 0 0 7.609 5.052l.26.43a1 1 0 1 1-1.71 1.035l-.29-.477A3.464 3.464 0 0 0 5.515 6a3.5 3.5 0 0 0 0 7z"/></defs></svg>