<svg xmlns="http://www.w3.org/2000/svg" xmlns:xlink="http://www.w3.org/1999/xlink" width="24" height="24" viewBox="0 0 24 24"><g><g><use xlink:href="#path0"/></g></g><defs><path fill-rule="evenodd" d="M9.514 17.875a1 1 0 0 1-1.484-1.1l4-16a1 1 0 1 1 1.94.484l-4 16a1 1 0 0 1-.456.616zm-4.221-3.15a1 1 0 0 0 1.414-1.415L2.414 9.017l4.293-4.293A1 1 0 0 0 5.293 3.31l-5 5a1 1 0 0 0 0 1.414l5 5zm10 0a1 1 0 0 0 1.414 0l5-5a1 1 0 0 0 0-1.415l-5-5a1 1 0 0 0-1.414 1.414l4.293 4.293-4.293 4.293a1 1 0 0 0 0 1.414z"/></defs></svg>