<svg xmlns="http://www.w3.org/2000/svg" xmlns:xlink="http://www.w3.org/1999/xlink" width="16" height="16" viewBox="0 0 16 16"><g><g><use xlink:href="#path0"/><use xlink:href="#path1"/><use xlink:href="#path2"/></g></g><defs><path d="M3.902 7.805a.9.9 0 0 0 .64-1.54l-2.37-2.36 2.37-2.36a.905.905 0 0 0-1.28-1.28l-3 3a.9.9 0 0 0 0 1.27l3 3a.9.9 0 0 0 .64.27z"/><path d="M.262 7.493a.9.9 0 0 0 1.27 0l3-3a.9.9 0 0 0 0-1.27l-3-3a.9.9 0 0 0-1.27 1.27l2.37 2.36-2.36 2.36a.9.9 0 0 0-.01 1.28z"/><path d="M.716 11.844l.18.02a.9.9 0 0 0 .88-.72l2-10a.9.9 0 1 0-1.76-.35l-2 10a.9.9 0 0 0 .7 1.05z"/></defs></svg>