<svg xmlns="http://www.w3.org/2000/svg" xmlns:xlink="http://www.w3.org/1999/xlink" width="16" height="16" viewBox="0 0 16 16"><g><g><use xlink:href="#path0"/><use xlink:href="#path1"/></g></g><defs><path fill-rule="evenodd" d="M8.1 12H1.9A1.9 1.9 0 0 1 0 10.1V1.9C0 .85.85 0 1.9 0h6.2C9.15 0 10 .85 10 1.9v8.2A1.9 1.9 0 0 1 8.1 12zM1.9 1.8a.1.1 0 0 0-.1.1v8.2a.1.1 0 0 0 .1.1h6.2a.1.1 0 0 0 .1-.1V1.9a.1.1 0 0 0-.1-.1H1.9z"/><path d="M.9 11a.9.9 0 0 0 .9-.9V1.9a.1.1 0 0 1 .1-.1h6.2a.9.9 0 1 0 0-1.8H1.9A1.9 1.9 0 0 0 0 1.9v8.2a.9.9 0 0 0 .9.9z"/></defs></svg>