<svg xmlns="http://www.w3.org/2000/svg" xmlns:xlink="http://www.w3.org/1999/xlink" width="16" height="16" viewBox="0 0 16 16"><g><g><use xlink:href="#path0"/><use xlink:href="#path1"/></g></g><defs><path d="M.9 3.8H2v1.1a.9.9 0 1 0 1.8 0V3.8h1.1a.9.9 0 1 0 0-1.8H3.8V.9A.9.9 0 1 0 2 .9V2H.9a.9.9 0 1 0 0 1.8z"/><path fill-rule="evenodd" d="M12.1 10H1.9A1.9 1.9 0 0 1 0 8.1V1.9C0 .85.85 0 1.9 0h5a.9.9 0 1 1 0 1.8h-5a.1.1 0 0 0-.1.1V3H14v5.1a1.9 1.9 0 0 1-1.9 1.9zm.1-1.9V5H1.8v3.1a.1.1 0 0 0 .1.1h10.2a.1.1 0 0 0 .1-.1z"/></defs></svg>