<svg xmlns="http://www.w3.org/2000/svg" xmlns:xlink="http://www.w3.org/1999/xlink" width="24" height="24" viewBox="0 0 24 24"><g><g><use xlink:href="#path0"/></g></g><defs><path fill-rule="evenodd" d="M3.01 0h8a3 3 0 0 1 3 3v16a3 3 0 0 1-3 3h-8a3 3 0 0 1-3-3v-3.952a.094.094 0 0 0-.005-.023A.082.082 0 0 1 0 15c0-.008.002-.016.005-.023v-.001a.075.075 0 0 0 .005-.024V3a3 3 0 0 1 3-3zm8 2h-8a1 1 0 0 0-.99 1v11h9.99V3a1 1 0 0 0-1-1zm1 17a1 1 0 0 1-1 1h-8a1 1 0 0 1-1-1v-3h10v3zm-4-1a1 1 0 1 1-2 0 1 1 0 0 1 2 0z"/></defs></svg>