<svg xmlns="http://www.w3.org/2000/svg" xmlns:xlink="http://www.w3.org/1999/xlink" width="16" height="16" viewBox="0 0 16 16"><g><g><use xlink:href="#path0"/></g></g><defs><path fill-rule="evenodd" d="M1 5.957a3.44 3.44 0 0 1-1-2.42 3.45 3.45 0 0 1 6-2.32 3.45 3.45 0 1 1 5 4.74v8.13H3.9a3 3 0 0 1-2.9-3v-5.13zm11.2 3.13a.9.9 0 1 1 1.8 0v2a.9.9 0 0 1-1.8 0v-2zm-8.3 3.2a1.18 1.18 0 0 1-1.1-1.2v-4.17c.214.044.432.067.65.07a.88.88 0 0 0 .39-.1h4.32a.88.88 0 0 0 .39.1 3.44 3.44 0 0 0 .65-.07v5.37H3.9zm1.2-8.75a1.65 1.65 0 0 0-1.65-1.65 1.65 1.65 0 0 0-.54 3.2h6.18a1.65 1.65 0 1 0-2.19-1.55.9.9 0 1 1-1.8 0z"/></defs></svg>