<svg xmlns="http://www.w3.org/2000/svg" xmlns:xlink="http://www.w3.org/1999/xlink" width="24" height="24" viewBox="0 0 24 24"><g><g><use xlink:href="#path0"/></g></g><defs><path fill-rule="evenodd" d="M3.19 0h15.62A3.2 3.2 0 0 1 22 3.19v8.62A3.2 3.2 0 0 1 18.81 15H14v1h3a2 2 0 0 1 2 2v2a1 1 0 0 1-1 1H4a1 1 0 0 1-1-1v-2a2 2 0 0 1 2-2h3v-1H3.19A3.2 3.2 0 0 1 0 11.8V3.19A3.2 3.2 0 0 1 3.19 0zM5 19h12v-1H5v1zm7-3h-2v-1h2v1zm6.81-3A1.2 1.2 0 0 0 20 11.81V3.19A1.2 1.2 0 0 0 18.81 2H3.19A1.2 1.2 0 0 0 2 3.19v8.62A1.2 1.2 0 0 0 3.19 13h15.62z"/></defs></svg>