<svg xmlns="http://www.w3.org/2000/svg" xmlns:xlink="http://www.w3.org/1999/xlink" width="16" height="16" viewBox="0 0 16 16"><g><g><use xlink:href="#path0"/><use xlink:href="#path1"/></g></g><defs><path fill-rule="evenodd" d="M1.9 0A1.9 1.9 0 0 0 0 1.9v10.2C0 13.15.85 14 1.9 14h6.2a1.9 1.9 0 0 0 1.9-1.9V1.9A1.9 1.9 0 0 0 8.1 0H1.9zm6.2 12.2H1.9a.1.1 0 0 1-.1-.1V8.8h6.4v3.3a.1.1 0 0 1-.1.1zM8.2 7V1.9a.1.1 0 0 0-.1-.1H1.9a.1.1 0 0 0-.1.1V7h6.4z"/><path d="M1 2a1 1 0 1 0 0-2 1 1 0 0 0 0 2z"/></defs></svg>