<svg xmlns="http://www.w3.org/2000/svg" xmlns:xlink="http://www.w3.org/1999/xlink" width="24" height="24" viewBox="0 0 24 24"><g><g><use xlink:href="#path0"/></g></g><defs><path fill-rule="evenodd" d="M1.026 8A4.95 4.95 0 0 1 0 5a5 5 0 0 1 9-3 4.99 4.99 0 1 1 7 6.974V11h4v6h-4v2H6a5.006 5.006 0 0 1-5-5V8h.026zM16 15h2v-2h-2v2zm-2-5v7H6a3 3 0 0 1-3-3v-4h11zM9 6a1 1 0 0 1-1-1 3 3 0 1 0-3 3h8a3 3 0 1 0-3-3 1 1 0 0 1-1 1zM5 6a1 1 0 1 0 0-2 1 1 0 0 0 0 2zm9-1a1 1 0 1 1-2 0 1 1 0 0 1 2 0z"/></defs></svg>