<svg xmlns="http://www.w3.org/2000/svg" xmlns:xlink="http://www.w3.org/1999/xlink" width="16" height="16" viewBox="0 0 16 16"><g><g><use xlink:href="#path0"/></g></g><defs><path fill-rule="evenodd" d="M12.58 6.24A2.93 2.93 0 0 0 10.05 4c.128-.318.196-.657.2-1a3 3 0 0 0-6 0c.004.343.072.682.2 1a2.93 2.93 0 0 0-2.53 2.24L0 14h14.5l-1.92-7.76zM7.25 1.8A1.2 1.2 0 0 1 8.45 3a1 1 0 0 1-1 1H7a1 1 0 0 1-1-1 1.2 1.2 0 0 1 1.25-1.2zM3.67 6.67L2.3 12.2h9.94l-1.37-5.53a1.13 1.13 0 0 0-1.1-.87h-5c-.524 0-.98.36-1.1.87z"/></defs></svg>