<svg xmlns="http://www.w3.org/2000/svg" xmlns:xlink="http://www.w3.org/1999/xlink" width="16" height="16" viewBox="0 0 16 16"><g><g><use xlink:href="#path0"/><use xlink:href="#path1"/></g></g><defs><path fill-rule="evenodd" d="M5.69 0H1.9A1.9 1.9 0 0 0 0 1.9v8.2A1.9 1.9 0 0 0 1.9 12h6.2a1.9 1.9 0 0 0 1.9-1.9V4.31A1.88 1.88 0 0 0 9.44 3L7 .56A1.88 1.88 0 0 0 5.69 0zm.11 1.92L8.08 4.2H5.8V1.92zM1.9 10.2h6.2a.1.1 0 0 0 .1-.1V6H4V1.8H1.9a.1.1 0 0 0-.1.1v8.2a.1.1 0 0 0 .1.1z"/><path d="M8.1 11a.9.9 0 1 0 0-1.8H1.9a.1.1 0 0 1-.1-.1V.9A.9.9 0 1 0 0 .9v8.2C0 10.15.85 11 1.9 11h6.2z"/></defs></svg>