<svg xmlns="http://www.w3.org/2000/svg" xmlns:xlink="http://www.w3.org/1999/xlink" width="16" height="16" viewBox="0 0 16 16"><g><g><use xlink:href="#path0"/><use xlink:href="#path1"/><use xlink:href="#path1"/></g></g><defs><path fill-rule="evenodd" d="M9 1h.86A2.13 2.13 0 0 1 12 3.12v8.76A2.13 2.13 0 0 1 9.85 14H2.14A2.13 2.13 0 0 1 0 11.89V3.12A2.13 2.13 0 0 1 2.14 1H3V0h6v1zm1.096 11.11a.33.33 0 0 0 .104-.23V3.12a.33.33 0 0 0-.34-.32H9V5H3V2.8h-.86a.33.33 0 0 0-.34.32v8.76a.33.33 0 0 0 .34.32h7.72a.33.33 0 0 0 .236-.09z"/><path d="M5 0H1a1 1 0 1 0 0 2h4a1 1 0 0 0 0-2z"/></defs></svg>