<svg xmlns="http://www.w3.org/2000/svg" xmlns:xlink="http://www.w3.org/1999/xlink" width="16" height="16" viewBox="0 0 16 16"><g><g><use xlink:href="#path0"/></g></g><defs><path fill-rule="evenodd" d="M11.77 3H8V1.9A1.9 1.9 0 0 0 6.1 0H1.9A1.9 1.9 0 0 0 0 1.9V10a2.13 2.13 0 0 0 2.23 2h9.55A2.13 2.13 0 0 0 14 10V5a2.13 2.13 0 0 0-2.23-2zM1.9 1.8h4.2a.1.1 0 0 1 .1.1V3h-4a2.43 2.43 0 0 0-.4 0V1.9a.1.1 0 0 1 .1-.1zm9.87 8.42a.41.41 0 0 0 .43-.22V5a.41.41 0 0 0-.42-.2H2.23a.41.41 0 0 0-.43.2v5a.41.41 0 0 0 .43.22h9.54z"/></defs></svg>