<svg xmlns="http://www.w3.org/2000/svg" xmlns:xlink="http://www.w3.org/1999/xlink" width="24" height="24" viewBox="0 0 24 24"><g><g><use xlink:href="#path0"/></g></g><defs><path fill-rule="evenodd" d="M18.818 6.6a2.002 2.002 0 0 0-.409-.6L12.995.586a1.998 1.998 0 0 0-.4-.3A1 1 0 0 0 11.9 0a.944.944 0 0 0-.1.021A2.012 2.012 0 0 0 11.581 0H5a2 2 0 0 0-2 2v15a2 2 0 0 0 2 2h12a2 2 0 0 0 2-2V7.414a2.002 2.002 0 0 0-.173-.8l-.009-.014zM12.995 20H2V6a1 1 0 0 0-2 0v14a2 2 0 0 0 2 2h11a1 1 0 0 0 0-2h-.005zM12.9 6h2.681L12.9 3.319V6zM5 17V2h5.9v6h6.095v9H5zm.9-7a1 1 0 0 1 1-1h8a1 1 0 1 1 0 2h-8a1 1 0 0 1-1-1zm1-2h2a1 1 0 0 0 0-2h-2a1 1 0 0 0 0 2zm-1 5a1 1 0 0 1 1-1h8a1 1 0 1 1 0 2h-8a1 1 0 0 1-1-1z"/></defs></svg>