<svg xmlns="http://www.w3.org/2000/svg" xmlns:xlink="http://www.w3.org/1999/xlink" width="24" height="24" viewBox="0 0 24 24"><g><g><use xlink:href="#path0"/></g></g><defs><path fill-rule="evenodd" d="M12.995.586L18.409 6c.176.174.317.38.418.606v.008c.112.252.171.524.173.8V17a2 2 0 0 1-2 2H5a2 2 0 0 1-2-2V2a2 2 0 0 1 2-2h6.581c.073.003.146.01.219.021A.944.944 0 0 1 11.9 0a1 1 0 0 1 .695.286c.145.083.28.184.4.3zM5 2v15h11.995V8H10.9V2H5zm10.581 4H12.9V3.319L15.581 6zm-1.586 15a1 1 0 0 1-1 1H2a2 2 0 0 1-2-2V6a1 1 0 0 1 2 0v14h10.995a1 1 0 0 1 1 1z"/></defs></svg>