<svg xmlns="http://www.w3.org/2000/svg" xmlns:xlink="http://www.w3.org/1999/xlink" width="24" height="24" viewBox="0 0 24 24"><g><g><use xlink:href="#path0"/></g></g><defs><path fill-rule="evenodd" d="M15.41 6c.174.177.313.386.411.615l.005.004c.113.252.172.524.174.8V17a2 2 0 0 1-2 2H2a2 2 0 0 1-2-2V2a2 2 0 0 1 2-2h6.581c.073.003.146.01.22.021A.941.941 0 0 1 8.9 0c.26.002.51.107.695.291a2 2 0 0 1 .4.3L15.409 6zM9.9 6h2.681L9.9 3.324V6zM2 17V2h5.9v6H14v9H2zm.9-7a1 1 0 0 1 1-1h8a1 1 0 1 1 0 2h-8a1 1 0 0 1-1-1zm1-2h2a1 1 0 0 0 0-2h-2a1 1 0 0 0 0 2zm-1 5a1 1 0 0 1 1-1h8a1 1 0 1 1 0 2h-8a1 1 0 0 1-1-1z"/></defs></svg>