<svg xmlns="http://www.w3.org/2000/svg" xmlns:xlink="http://www.w3.org/1999/xlink" width="16" height="16" viewBox="0 0 16 16"><g><g><use xlink:href="#path0"/><use xlink:href="#path1"/></g></g><defs><path d="M2.853 0a.9.9 0 0 0-.9.9v2.83l-.46-.46a.9.9 0 0 0-1.27 1.27l2.63 2.63 2.64-2.64a.9.9 0 0 0-1.27-1.27l-.46.46V.9a.9.9 0 0 0-.91-.9z"/><path d="M12.063 3.07a3.89 3.89 0 0 0-1.56.33A5.41 5.41 0 0 0 5.463 0a5.51 5.51 0 0 0-4.15 9.08.9.9 0 0 0 1.37-1.17 3.71 3.71 0 0 1 2.78-6.11A3.64 3.64 0 0 1 9.073 5a.9.9 0 0 0 1.51.52 2.12 2.12 0 0 1 1.47-.6 2.17 2.17 0 0 1 0 4.33.9.9 0 1 0 0 1.8 4 4 0 0 0 .01-7.98z"/></defs></svg>