<svg xmlns="http://www.w3.org/2000/svg" xmlns:xlink="http://www.w3.org/1999/xlink" width="16" height="16" viewBox="0 0 16 16"><g><g><use xlink:href="#path0"/><use xlink:href="#path1"/></g></g><defs><path d="M.26.26a.92.92 0 0 0 0 1.28.94.94 0 0 0 .3.19.79.79 0 0 0 .34.07A.9.9 0 1 0 .26.26z"/><path d="M13.8 10a.9.9 0 0 0-.9-.9h-2V4.8A1.9 1.9 0 0 0 9 2.9H4.7v-2a.9.9 0 1 0-1.8 0v2h-2a.9.9 0 1 0 0 1.8H9a.1.1 0 0 1 .1.1v4.3H4.8a.1.1 0 0 1-.1-.1V7a.9.9 0 0 0-1.8 0v2a1.9 1.9 0 0 0 1.9 1.9h8.1a.9.9 0 0 0 .9-.9z"/></defs></svg>