<svg xmlns="http://www.w3.org/2000/svg" xmlns:xlink="http://www.w3.org/1999/xlink" width="16" height="16" viewBox="0 0 16 16"><g><g><use xlink:href="#path0"/></g></g><defs><path fill-rule="evenodd" d="M12.487.71a2.31 2.31 0 0 1 .7 1.62 2.3 2.3 0 0 1-.7 1.63l-8 8a.906.906 0 0 1-.14.09.886.886 0 0 1-.16.09l-3 1A.9.9 0 0 1 .047 12l1-3a.874.874 0 0 1 .09-.16.887.887 0 0 1 .09-.14l8-8a2.31 2.31 0 0 1 1.63-.7 2.31 2.31 0 0 1 1.63.71zm-1.63 1.09a.51.51 0 0 0-.36.19l-7.37 7.34.73.73 7.36-7.36a.51.51 0 0 0 .17-.37.59.59 0 0 0-.53-.53z"/></defs></svg>