<svg xmlns="http://www.w3.org/2000/svg" xmlns:xlink="http://www.w3.org/1999/xlink" width="24" height="24" viewBox="0 0 24 24"><g><g><use xlink:href="#path0"/></g></g><defs><path fill-rule="evenodd" d="M0 10c0 5.523 4.477 10 10 10s10-4.477 10-10S15.523 0 10 0 0 4.477 0 10zm10-8a8 8 0 1 1-8 8 8.009 8.009 0 0 1 8-8zM9 8.5a1.5 1.5 0 1 1-3 0 1.5 1.5 0 0 1 3 0zm3.5 1.5a1.5 1.5 0 1 0 0-3 1.5 1.5 0 0 0 0 3zm-6.4 3.005a.9.9 0 0 1 1.533-.646 3.713 3.713 0 0 0 4.734 0 .9.9 0 0 1 1.266 1.281A5.177 5.177 0 0 1 10 15.023a5.177 5.177 0 0 1-3.633-1.383.9.9 0 0 1-.268-.635z"/></defs></svg>