<svg xmlns="http://www.w3.org/2000/svg" xmlns:xlink="http://www.w3.org/1999/xlink" width="16" height="16" viewBox="0 0 16 16"><g><g><use xlink:href="#path0"/></g></g><defs><path fill-rule="evenodd" d="M7 14A7 7 0 1 0 7 0a7 7 0 0 0 0 14zM7 1.8A5.2 5.2 0 1 1 1.8 7 5.21 5.21 0 0 1 7 1.8zM6 6a1 1 0 1 1-2 0 1 1 0 0 1 2 0zm3 1a1 1 0 1 0 0-2 1 1 0 0 0 0 2zM4.674 9.897a.9.9 0 0 1 .116-.957A2.9 2.9 0 0 1 7 8.11a2.9 2.9 0 0 1 2.19.83.9.9 0 0 1-1.4 1.13 2 2 0 0 0-1.61 0 .88.88 0 0 1-.69.34.9.9 0 0 1-.816-.513z"/></defs></svg>