<svg xmlns="http://www.w3.org/2000/svg" xmlns:xlink="http://www.w3.org/1999/xlink" width="16" height="16" viewBox="0 0 16 16"><g><g><use xlink:href="#path0"/></g></g><defs><path fill-rule="evenodd" d="M7 14A7 7 0 1 0 7 0a7 7 0 0 0 0 14zM7 1.8A5.2 5.2 0 1 1 1.8 7 5.21 5.21 0 0 1 7 1.8zM6 6a1 1 0 1 1-2 0 1 1 0 0 1 2 0zm3 1a1 1 0 1 0 0-2 1 1 0 0 0 0 2zM4.36 9.64a.9.9 0 0 1 0-1.27.9.9 0 0 1 1.27-.01 2.17 2.17 0 0 0 2.73 0 .901.901 0 1 1 1.27 1.28 3.72 3.72 0 0 1-2.63 1 3.76 3.76 0 0 1-2.64-1z"/></defs></svg>