<svg xmlns="http://www.w3.org/2000/svg" xmlns:xlink="http://www.w3.org/1999/xlink" width="24" height="24" viewBox="0 0 24 24"><g><g><use xlink:href="#path0"/></g></g><defs><path fill-rule="evenodd" d="M10 20c5.523 0 10-4.477 10-10S15.523 0 10 0 0 4.477 0 10a10 10 0 0 0 10 10zM9 8.5a1.5 1.5 0 1 1-3 0 1.5 1.5 0 0 1 3 0zm3.5 1.5a1.5 1.5 0 1 0 0-3 1.5 1.5 0 0 0 0 3zm-2.516 3.8a2.866 2.866 0 0 1 1.866.589.9.9 0 1 0 1.3-1.246A4.5 4.5 0 0 0 9.987 12a4.751 4.751 0 0 0-3.136 1.143.9.9 0 0 0 1.3 1.246 2.738 2.738 0 0 1 1.833-.589zM18 10a8 8 0 0 0-8-8 8.009 8.009 0 0 0-8 8 8 8 0 1 0 16 0z"/></defs></svg>