<svg xmlns="http://www.w3.org/2000/svg" xmlns:xlink="http://www.w3.org/1999/xlink" width="16" height="16" viewBox="0 0 16 16"><g><g><use xlink:href="#path0"/><use xlink:href="#path1"/><use xlink:href="#path2"/><use xlink:href="#path3"/><use xlink:href="#path4"/></g></g><defs><path fill-rule="evenodd" d="M.089 5.28a.9.9 0 0 1 0-.78l.013-.024C.31 4.087 2.502 0 6.899 0c4.76 0 6.74 4.35 6.82 4.53a.9.9 0 0 1 0 .73c-.08.19-2.18 4.54-6.82 4.54-4.64 0-6.73-4.33-6.81-4.52zm3.34-1.78v-.33a7.997 7.997 0 0 0-1.53 1.73 6 6 0 0 0 5 3.1 5.86 5.86 0 0 0 5-3.1 7.003 7.003 0 0 0-1.5-1.82c.008.14.008.28 0 .42a.9.9 0 1 1-1.8 0 1.7 1.7 0 1 0-1.22 1.68.9.9 0 1 1 .52 1.72 3.5 3.5 0 0 1-4.47-3.4z"/><path d="M.556.07a.9.9 0 0 0-.49 1.17l.4 1a.902.902 0 0 0 1.67-.68l-.4-1A.9.9 0 0 0 .556.07z"/><path d="M1.593 2.606a.9.9 0 0 0 .67-1.5l-.67-.78a.9.9 0 1 0-1.33 1.21l.7.78a.9.9 0 0 0 .63.29z"/><path d="M.458.628l-.4 1a.9.9 0 0 0 .84 1.22.9.9 0 0 0 .83-.56l.4-1a.9.9 0 1 0-1.67-.66z"/><path d="M2.178.23A.9.9 0 0 0 .908.3l-.7.78a.9.9 0 0 0 1.34 1.2l.7-.78a.9.9 0 0 0-.07-1.27z"/></defs></svg>