<svg xmlns="http://www.w3.org/2000/svg" xmlns:xlink="http://www.w3.org/1999/xlink" width="24" height="24" viewBox="0 0 24 24"><g><g><use xlink:href="#path0"/></g></g><defs><path fill-rule="evenodd" d="M7.788 3.632A1 1 0 0 1 6.03 3.26l-.5-2A1 1 0 1 1 7.47.774l.5 2a1 1 0 0 1-.182.858zm6.181-.372a1 1 0 0 1-1.94-.485l.5-2a1 1 0 1 1 1.94.485l-.5 2zm5.571-.085a1 1 0 0 0-1.38.3l-1 1.56a1 1 0 1 0 1.682 1.082l1-1.56a1 1 0 0 0-.302-1.382zM1.117 11.487a1 1 0 0 1 0-.94c.121-.23 3.013-5.53 8.883-5.53 5.941 0 8.77 5.313 8.888 5.54a1 1 0 0 1 0 .92c-.117.227-2.94 5.54-8.888 5.54-5.87 0-8.762-5.3-8.883-5.53zM5.5 9.517c.004-.354.05-.706.136-1.05a10.25 10.25 0 0 0-2.464 2.55c.767 1.157 3.04 4 6.828 4a8.443 8.443 0 0 0 6.834-4 9.798 9.798 0 0 0-2.484-2.593c.26.962.18 1.984-.226 2.893a1 1 0 1 1-1.832-.8 2.5 2.5 0 1 0-2.292 1.5 1 1 0 1 1 0 2 4.5 4.5 0 0 1-4.5-4.5zm-5.1-6.3a1 1 0 0 0-.2 1.4l1 1.341a1 1 0 0 0 1.6-1.2l-1-1.34a1 1 0 0 0-1.4-.2z"/></defs></svg>