<svg xmlns="http://www.w3.org/2000/svg" xmlns:xlink="http://www.w3.org/1999/xlink" width="39" height="24" viewBox="0 0 39 24"><g><g><use xlink:href="#path0"/><use xlink:href="#path1"/></g></g><defs><path fill-rule="evenodd" d="M14.78 4.32l-2.43-.353a.59.59 0 0 1-.443-.323l-1.087-2.2a2.59 2.59 0 0 0-4.644 0l-1.087 2.2a.586.586 0 0 1-.444.323l-2.426.354A2.589 2.589 0 0 0 .782 8.737L2.54 10.45a.59.59 0 0 1 .17.522l-.411 2.419a2.585 2.585 0 0 0 3.753 2.729l2.173-1.141a.587.587 0 0 1 .549 0l2.171 1.142a2.59 2.59 0 0 0 3.754-2.73l-.415-2.42a.59.59 0 0 1 .17-.52l1.758-1.714A2.59 2.59 0 0 0 14.78 4.32zm-6.281-.282l1.39 2.818 3.11.452-2.25 2.193.53 3.097-2.78-1.462-2.781 1.462.53-3.097-2.25-2.193 3.11-.452 1.39-2.818zm4.561 4.977L14.82 7.3a.59.59 0 0 0-.327-1l-2.428-.354a2.59 2.59 0 0 1-1.95-1.417l-1.085-2.2a.591.591 0 0 0-1.06 0l-1.085 2.2a2.586 2.586 0 0 1-1.95 1.417L2.507 6.3a.59.59 0 0 0-.328 1L3.937 9.02c.61.595.888 1.452.744 2.293l-.415 2.417a.59.59 0 0 0 .855.622l2.17-1.143a2.6 2.6 0 0 1 2.408 0l2.177 1.137a.59.59 0 0 0 .856-.621l-.415-2.418a2.588 2.588 0 0 1 .743-2.292z"/><path fill-rule="evenodd" d="M4.5 0l1.391 2.818L9 3.269 6.75 5.463l.531 3.097L4.5 7.097 1.719 8.56l.531-3.097L0 3.269l3.109-.451L4.5 0zm1.391 11.818L4.5 9l-1.391 2.818L0 12.269l2.25 2.194-.531 3.097L4.5 16.097l2.781 1.463-.531-3.097L9 12.269l-3.109-.451zm10 0L14.5 9l-1.391 2.818-3.109.451 2.25 2.194-.531 3.097 2.781-1.463 2.781 1.463-.531-3.097L19 12.269l-3.109-.451zm0-9L14.5 0l-1.391 2.818L10 3.269l2.25 2.194-.531 3.097L14.5 7.097l2.781 1.463-.531-3.097L19 3.269l-3.109-.451z"/></defs></svg>