<svg xmlns="http://www.w3.org/2000/svg" xmlns:xlink="http://www.w3.org/1999/xlink" width="20" height="24" viewBox="0 0 20 24"><g><g><use xlink:href="#path0"/></g></g><defs><path fill-rule="evenodd" d="M4.5 0l1.391 2.818L9 3.269 6.75 5.463l.531 3.097L4.5 7.097 1.719 8.56l.531-3.097L0 3.269l3.109-.451L4.5 0zm1.391 11.818L4.5 9l-1.391 2.818L0 12.269l2.25 2.194-.531 3.097L4.5 16.097l2.781 1.463-.531-3.097L9 12.269l-3.109-.451zm10 0L14.5 9l-1.391 2.818-3.109.451 2.25 2.194-.531 3.097 2.781-1.463 2.781 1.463-.531-3.097L19 12.269l-3.109-.451zm0-9L14.5 0l-1.391 2.818L10 3.269l2.25 2.194-.531 3.097L14.5 7.097l2.781 1.463-.531-3.097L19 3.269l-3.109-.451z"/></defs></svg>