<svg xmlns="http://www.w3.org/2000/svg" xmlns:xlink="http://www.w3.org/1999/xlink" width="38" height="24" viewBox="0 0 38 24"><g><g><use xlink:href="#path0"/><use xlink:href="#path1"/></g></g><defs><path fill-rule="evenodd" d="M10.891 2.818L9.5 0 8.109 2.818 5 3.269l2.25 2.194-.531 3.097L9.5 7.097l2.781 1.463-.531-3.097L14 3.269l-3.109-.451zM4.5 9l1.391 2.818L9 12.269l-2.25 2.194.531 3.097L4.5 16.097 1.719 17.56l.531-3.097L0 12.269l3.109-.451L4.5 9zm10 0l1.391 2.818 3.109.451-2.25 2.194.531 3.097-2.781-1.463-2.781 1.463.531-3.097L10 12.269l3.109-.451L14.5 9z"/><path fill-rule="evenodd" d="M14.779 4.32l-2.43-.355a.59.59 0 0 1-.443-.323l-1.086-2.2a2.59 2.59 0 0 0-4.645 0l-1.086 2.2a.589.589 0 0 1-.444.323l-2.428.354A2.589 2.589 0 0 0 .782 8.735l1.757 1.714a.59.59 0 0 1 .17.522l-.411 2.42a2.586 2.586 0 0 0 3.753 2.728l2.172-1.142a.592.592 0 0 1 .549 0l2.172 1.142a2.59 2.59 0 0 0 3.754-2.729l-.415-2.418a.589.589 0 0 1 .169-.522l1.757-1.714a2.588 2.588 0 0 0-1.43-4.417zm-6.281-.284l1.39 2.818 3.11.452-2.25 2.193.53 3.097-2.78-1.462-2.781 1.462.53-3.097-2.25-2.193 3.11-.452 1.39-2.818zm4.563 4.977L14.818 7.3a.59.59 0 0 0-.327-1l-2.43-.354a2.587 2.587 0 0 1-1.95-1.417l-1.084-2.2a.591.591 0 0 0-1.06 0l-1.084 2.2a2.587 2.587 0 0 1-1.95 1.417L2.505 6.3a.59.59 0 0 0-.327 1l1.758 1.72c.61.594.889 1.451.745 2.291l-.416 2.418a.59.59 0 0 0 .856.622l2.168-1.143a2.6 2.6 0 0 1 2.409 0l2.179 1.138a.59.59 0 0 0 .855-.622l-.415-2.418a2.589 2.589 0 0 1 .744-2.292z"/></defs></svg>