<svg xmlns="http://www.w3.org/2000/svg" xmlns:xlink="http://www.w3.org/1999/xlink" width="20" height="24" viewBox="0 0 20 24"><g><g><use xlink:href="#path0"/></g></g><defs><path fill-rule="evenodd" d="M10.891 2.818L9.5 0 8.109 2.818 5 3.269l2.25 2.194-.531 3.097L9.5 7.097l2.781 1.463-.531-3.097L14 3.269l-3.109-.451zM4.5 9l1.391 2.818L9 12.269l-2.25 2.194.531 3.097L4.5 16.097 1.719 17.56l.531-3.097L0 12.269l3.109-.451L4.5 9zm10 0l1.391 2.818 3.109.451-2.25 2.194.531 3.097-2.781-1.463-2.781 1.463.531-3.097L10 12.269l3.109-.451L14.5 9z"/></defs></svg>