<svg xmlns="http://www.w3.org/2000/svg" xmlns:xlink="http://www.w3.org/1999/xlink" width="18" height="24" viewBox="0 0 18 24"><g><g><use xlink:href="#path0"/></g></g><defs><path fill-rule="evenodd" d="M14.698 13.39l-.415-2.418a.589.589 0 0 1 .169-.522l1.757-1.714a2.588 2.588 0 0 0-1.43-4.417l-2.43-.354a.59.59 0 0 1-.443-.323l-1.086-2.2a2.59 2.59 0 0 0-4.645 0l-1.086 2.2a.589.589 0 0 1-.444.323l-2.428.354A2.589 2.589 0 0 0 .782 8.735l1.757 1.714a.59.59 0 0 1 .17.522l-.411 2.42a2.586 2.586 0 0 0 3.753 2.728l2.172-1.142a.592.592 0 0 1 .549 0l2.172 1.142a2.59 2.59 0 0 0 3.754-2.729zm-6.2-9.354l1.39 2.818 3.11.452-2.25 2.193.53 3.097-2.78-1.462-2.781 1.462.53-3.097-2.25-2.193 3.11-.452 1.39-2.818zm4.229 9.692l-.415-2.418h.004a2.589 2.589 0 0 1 .745-2.297L14.818 7.3a.59.59 0 0 0-.327-1l-2.43-.354a2.587 2.587 0 0 1-1.95-1.417l-1.084-2.2a.591.591 0 0 0-1.06 0l-1.084 2.2a2.587 2.587 0 0 1-1.95 1.417L2.505 6.3a.59.59 0 0 0-.327 1l1.756 1.72a2.59 2.59 0 0 1 .745 2.291l-.416 2.418a.575.575 0 0 0 .235.577.581.581 0 0 0 .623.045l2.168-1.143a2.6 2.6 0 0 1 2.409 0l2.174 1.143c.198.107.44.09.62-.045a.574.574 0 0 0 .235-.577z"/></defs></svg>