<svg xmlns="http://www.w3.org/2000/svg" xmlns:xlink="http://www.w3.org/1999/xlink" width="36" height="24" viewBox="0 0 36 24"><g><g><use xlink:href="#path0"/></g></g><defs><path fill-rule="evenodd" d="M26.281 4.827a1.25 1.25 0 0 0 2.268-1.053L27.132.724a1.25 1.25 0 1 0-2.268 1.053l1.417 3.05zM17.132.725a1.25 1.25 0 1 0-2.268 1.053l1.417 3.05a1.25 1.25 0 0 0 2.268-1.053L17.132.725zm-6.034.008l2.143 4.341c.178.361.523.611.921.669l4.791.7a1.223 1.223 0 0 1 .678 2.086l-3.467 3.379c-.288.281-.42.686-.352 1.083l.818 4.772a1.223 1.223 0 0 1-1.778 1.288l-4.285-2.253a1.223 1.223 0 0 0-1.138 0l-4.285 2.253a1.223 1.223 0 0 1-1.775-1.289l.818-4.772a1.223 1.223 0 0 0-.352-1.083L.37 8.527a1.223 1.223 0 0 1 .678-2.087l4.791-.7c.399-.058.743-.308.921-.669L8.9.733a1.223 1.223 0 0 1 2.2 0zm14.04 6.94a1.251 1.251 0 0 1 0 1.748l-3.466 3.383.826 4.747a1.25 1.25 0 0 1-2.467.418l-.818-4.77a2.47 2.47 0 0 1 .712-2.189l3.466-3.38a1.251 1.251 0 0 1 1.747.044zm-3.63-2.95a1 1 0 0 0 1.814-.843L21.905.83a1 1 0 1 0-1.814.842l1.417 3.05zm8.63 2.95a1.251 1.251 0 0 1 0 1.748l-3.466 3.383.826 4.747a1.25 1.25 0 0 1-2.467.418l-.818-4.77a2.47 2.47 0 0 1 .712-2.189l3.466-3.38a1.251 1.251 0 0 1 1.747.044zm-.213 3.337l3.466-3.38.002.003a1.251 1.251 0 0 1 1.746 1.791l-3.467 3.38.826 4.747a1.251 1.251 0 0 1-2.467.418l-.818-4.77a2.47 2.47 0 0 1 .712-2.189z"/></defs></svg>