<svg xmlns="http://www.w3.org/2000/svg" xmlns:xlink="http://www.w3.org/1999/xlink" width="45" height="24" viewBox="0 0 45 24"><g><g><use xlink:href="#path0"/><use xlink:href="#path1"/></g></g><defs><path fill-rule="evenodd" d="M16.216 8.736A2.59 2.59 0 0 0 14.78 4.32l-2.431-.353a.59.59 0 0 1-.444-.323l-1.086-2.2a2.59 2.59 0 0 0-4.645 0l-1.087 2.2a.586.586 0 0 1-.444.323l-2.424.353A2.589 2.589 0 0 0 .782 8.736L2.54 10.45a.59.59 0 0 1 .17.522l-.415 2.418a2.585 2.585 0 0 0 3.754 2.73l2.173-1.141a.587.587 0 0 1 .549 0l2.178 1.14a2.59 2.59 0 0 0 3.758-2.728l-.415-2.42a.59.59 0 0 1 .17-.52l1.754-1.715zm-7.717-4.7l1.39 2.819 3.11.452-2.25 2.193.53 3.097-2.78-1.462-2.781 1.462.53-3.097-2.25-2.193 3.11-.452 1.39-2.818zm3.819 7.274a2.588 2.588 0 0 1 .744-2.292L14.819 7.3a.59.59 0 0 0-.327-1l-2.428-.354a2.59 2.59 0 0 1-1.95-1.417l-1.085-2.2a.591.591 0 0 0-1.06 0l-1.085 2.2a2.586 2.586 0 0 1-1.95 1.417L2.507 6.3a.59.59 0 0 0-.328 1l1.758 1.719c.61.595.888 1.453.744 2.293l-.415 2.417a.59.59 0 0 0 .855.622l2.174-1.143a2.6 2.6 0 0 1 2.408 0l2.174 1.14a.59.59 0 0 0 .855-.62l-.414-2.418z"/><path fill-rule="evenodd" d="M13.891 2.818L12.5 0l-1.391 2.818L8 3.269l2.25 2.194-.531 3.097L12.5 7.097l2.781 1.463-.531-3.097L17 3.269l-3.109-.451zm-8 5.489L4.5 5.489 3.109 8.307 0 8.759l2.25 2.193-.531 3.097L4.5 12.587l2.781 1.462-.531-3.097L9 8.759l-3.109-.452zM7.5 14.511l1.391 2.817L12 17.78l-2.25 2.193.531 3.097L7.5 21.608 4.719 23.07l.531-3.097L3 17.78l3.109-.452L7.5 14.511zm10 0l1.391 2.817L22 17.78l-2.25 2.193.531 3.097-2.781-1.462-2.781 1.462.531-3.097L13 17.78l3.109-.452 1.391-2.817zm3-9.022l1.391 2.818L25 8.759l-2.25 2.193.531 3.097-2.781-1.462-2.781 1.462.531-3.097L16 8.759l3.109-.452L20.5 5.489z"/></defs></svg>