<svg xmlns="http://www.w3.org/2000/svg" xmlns:xlink="http://www.w3.org/1999/xlink" width="22" height="16" viewBox="0 0 22 16"><g><g><g><use xlink:href="#path0"/><use xlink:href="#path1"/><use xlink:href="#path2"/><use xlink:href="#path3"/><use xlink:href="#path4"/></g></g></g><defs><path d="M7.522.33l1.71 3.46a.59.59 0 0 0 .44.32l3.81.55a.59.59 0 0 1 .33 1l-2.76 2.7a.59.59 0 0 0-.17.52l.65 3.8a.59.59 0 0 1-.86.62l-3.41-1.79a.59.59 0 0 0-.55 0l-3.41 1.79a.59.59 0 0 1-.86-.62l.65-3.8a.59.59 0 0 0-.17-.52L.172 5.67a.59.59 0 0 1 .33-1l3.81-.55a.59.59 0 0 0 .44-.32L6.462.33a.59.59 0 0 1 1.06 0z"/><path d="M2.082 4.092a1 1 0 0 1-.89-.54l-1.08-2.09a1.002 1.002 0 0 1 1.78-.92l1.11 2.09a1 1 0 0 1-.92 1.46z"/><path d="M1.63 8.63a1 1 0 0 1-1-.82L.02 4.4A1.6 1.6 0 0 1 .49 3L3.03.31a1 1 0 1 1 1.45 1.38L2.05 4.25l.57 3.2a1 1 0 0 1-.81 1.16l-.18.02z"/><path d="M2.082 4.092a1 1 0 0 1-.89-.54l-1.08-2.09a1.002 1.002 0 0 1 1.78-.92l1.11 2.09a1 1 0 0 1-.92 1.46z"/><path d="M1.63 8.63a1 1 0 0 1-1-.82L.02 4.4A1.6 1.6 0 0 1 .49 3L3.03.31a1 1 0 1 1 1.45 1.38L2.05 4.25l.57 3.2a1 1 0 0 1-.81 1.16l-.18.02z"/></defs></svg>