<svg xmlns="http://www.w3.org/2000/svg" xmlns:xlink="http://www.w3.org/1999/xlink" width="26" height="24" viewBox="0 0 26 24"><g><g><use xlink:href="#path0"/></g></g><defs><path fill-rule="evenodd" d="M17.132.724a1.25 1.25 0 1 0-2.268 1.053l1.417 3.05a1.25 1.25 0 0 0 2.268-1.053L17.132.724zm-6.034.008l2.143 4.341c.178.361.523.611.921.67l4.791.7a1.223 1.223 0 0 1 .678 2.085l-3.467 3.38c-.288.28-.42.685-.352 1.082l.818 4.772a1.223 1.223 0 0 1-1.778 1.288l-4.285-2.253a1.223 1.223 0 0 0-1.138 0L5.144 19.05a1.223 1.223 0 0 1-1.775-1.289l.818-4.772a1.223 1.223 0 0 0-.352-1.083L.37 8.526a1.223 1.223 0 0 1 .678-2.087l4.791-.7c.399-.058.743-.308.921-.669L8.9.732a1.223 1.223 0 0 1 2.2 0zm8.827 10.277l3.466-3.38.002.003a1.251 1.251 0 0 1 1.746 1.791l-3.467 3.38.826 4.747a1.251 1.251 0 0 1-2.467.418l-.818-4.77a2.47 2.47 0 0 1 .712-2.189z"/></defs></svg>