<svg xmlns="http://www.w3.org/2000/svg" xmlns:xlink="http://www.w3.org/1999/xlink" width="27" height="16" viewBox="0 0 27 16"><g><g><g><use xlink:href="#path0"/><use xlink:href="#path1"/><use xlink:href="#path2"/><use xlink:href="#path2"/></g></g></g><defs><path fill-rule="evenodd" d="M9.138 13.076c.267.143.566.219.87.22a1.88 1.88 0 0 0 1.89-2.2l-.44-2.51 1.73-1.73a1.88 1.88 0 0 0-1-3.2l-2.51-.4-1.1-2.22a1.88 1.88 0 0 0-3.36 0l-1.19 2.29-2.46.36a1.88 1.88 0 0 0-1 3.2l1.8 1.77-.39 2.38a1.88 1.88 0 0 0 2.72 2l2.2-1.15 2.24 1.19zm-5.54-5.78l-1.78-1.73-.62.64.7-.77 2.42-.38a1.87 1.87 0 0 0 1.41-1l1.11-2.23-.81-.4.94.4 1.1 2.25a1.87 1.87 0 0 0 1.41 1l2.5.36v.13l-1.78 1.73a1.87 1.87 0 0 0-.54 1.66l.43 2.45-.11.08-2.2-1.15a1.87 1.87 0 0 0-1.75 0l-2.2 1.15.42.8-.53-.88.42-2.45a1.87 1.87 0 0 0-.54-1.66z"/><path d="M3 0l.93 1.87 2.07.3-1.5 1.47.35 2.06L3 4.73l-1.85.97.35-2.06L0 2.17l2.07-.3L3 0z"/><path d="M3 0l.93 1.88 2.07.3-1.5 1.46.35 2.07L3 4.73l-1.85.98.35-2.07L0 2.18l2.07-.3L3 0z"/></defs></svg>