<svg xmlns="http://www.w3.org/2000/svg" xmlns:xlink="http://www.w3.org/1999/xlink" width="21" height="24" viewBox="0 0 21 24"><g><g><use xlink:href="#path0"/></g></g><defs><path d="M11.098.688l2.143 4.341c.178.361.523.612.921.67l4.791.7a1.223 1.223 0 0 1 .678 2.085l-3.467 3.38c-.288.28-.42.685-.352 1.082l.818 4.772a1.223 1.223 0 0 1-1.778 1.288l-4.285-2.253a1.223 1.223 0 0 0-1.138 0l-4.285 2.253a1.223 1.223 0 0 1-1.775-1.288l.818-4.773a1.223 1.223 0 0 0-.352-1.082L.37 8.48a1.223 1.223 0 0 1 .678-2.086l4.791-.7c.399-.057.743-.308.921-.669L8.9.688a1.223 1.223 0 0 1 2.2 0z"/></defs></svg>