<svg xmlns="http://www.w3.org/2000/svg" xmlns:xlink="http://www.w3.org/1999/xlink" width="24" height="24" viewBox="0 0 24 24"><g><g><use xlink:href="#path0"/><use xlink:href="#path1"/><use xlink:href="#path2"/><use xlink:href="#path3"/><use xlink:href="#path4"/><use xlink:href="#path5"/><use xlink:href="#path6"/></g></g><defs><path d="M10.05 0C4.99 0 .8 3.68 0 8.51c2.77-1.16 5.67-2 8.39-2.44 1.84-.3 3.51.29 4.61 1.45.48.5.85 1.1 1.08 1.78.08.23.14.47.19.71.4 2.14-.42 3.98-2.48 5.26-2.38 1.48-3.84 3.02-4.87 4.61.99.32 2.04.49 3.13.49 5.62 0 10.18-4.56 10.18-10.18C20.23 4.56 15.67 0 10.05 0z"/><path d="M9.981.013a.567.567 0 0 0-.044.01l-.635.16a47.88 47.88 0 0 0-2.78.782c-.393.12-.805.261-1.231.404-.424.15-.863.304-1.304.476-.444.165-.887.352-1.332.536-.442.191-.884.383-1.313.587C.91 3.165.495 3.38.09 3.58L0 3.627a4.835 4.835 0 0 1 1.078 1.785l.04-.024c.37-.213.75-.439 1.147-.65.393-.217.8-.425 1.208-.63.411-.2.821-.405 1.234-.587.41-.19.819-.362 1.216-.53.4-.162.785-.32 1.156-.459a46.736 46.736 0 0 1 2.639-.921l.608-.192.014-.005a.729.729 0 0 0 .495-.868.736.736 0 0 0-.854-.533z"/><path d="M10.383.013l-.044.01-.635.16a47.88 47.88 0 0 0-2.78.782c-.393.12-.805.261-1.231.404-.424.15-.863.304-1.304.476-.444.165-.887.352-1.332.536-.442.191-.884.383-1.313.587-.432.197-.847.411-1.252.612L0 3.831a4.835 4.835 0 0 1 1.078 1.785c.013-.008.429-.22.443-.229.37-.213.75-.439 1.147-.65.393-.217.8-.425 1.208-.63.411-.2.821-.405 1.234-.587.41-.19.819-.362 1.216-.53.4-.162.785-.32 1.156-.459a46.736 46.736 0 0 1 2.639-.921l.608-.192.014-.005a.729.729 0 0 0 .495-.868.738.738 0 0 0-.855-.532z"/><path d="M11.93 9.277c2.06-1.28 2.88-3.12 2.48-5.26a5.71 5.71 0 0 0-.19-.71c-.23-.68-.6-1.28-1.08-1.78-1.1-1.16-2.77-1.75-4.61-1.45-2.72.44-5.62 1.28-8.39 2.44-.09.55-.14 1.11-.14 1.68 0 4.53 2.96 8.37 7.06 9.69 1.03-1.59 2.49-3.13 4.87-4.61z"/><path d="M5.456 2.245A2.75 2.75 0 1 1 .048 3.259a2.75 2.75 0 0 1 5.408-1.014z"/><path d="M2.805 1.153A1.4 1.4 0 0 0 2.6.641a.718.718 0 0 1-1.35.444.721.721 0 0 1 .318-.968.705.705 0 0 1 .22-.066 1.415 1.415 0 1 0 1.018 1.102z"/><path d="M5.032.004c-.087.008-.158.06-.168.145-.01.09.046.173.144.18 1.716.124 2.997 2.022 1.79 3.537-.006-.022-.012-.045-.02-.068a3.207 3.207 0 0 0-.62-1.13 3.312 3.312 0 0 0-.57-.523 3.883 3.883 0 0 0-1.501-.635 4.515 4.515 0 0 0-.811-.087 4.838 4.838 0 0 0-2.107.443 4.014 4.014 0 0 0-1.038.69l-.068.06a.19.19 0 0 0 .107.33c.05.005.1-.01.139-.041l.07-.057c.015-.01.032-.025.052-.04A3.567 3.567 0 0 1 .9 2.49c.144-.08.295-.152.448-.216.197-.078.38-.137.56-.18.184-.047.395-.083.645-.11.192-.013.444-.026.697-.005.284.024.507.06.705.114a3.27 3.27 0 0 1 1.224.592c.19.16.326.298.427.435a2.348 2.348 0 0 1 .428.889c.034.129.05.247.064.349.01.06.012.117.014.162 0 .026.002.049.004.067l.007.11v.019a.384.384 0 0 0 .015.073l.005.012a.433.433 0 0 0 .095.158.41.41 0 0 0 .577.007C9.255 2.61 7.04-.113 5.032.004z"/></defs></svg>