<svg xmlns="http://www.w3.org/2000/svg" xmlns:xlink="http://www.w3.org/1999/xlink" width="30" height="24" viewBox="0 0 30 24"><g><g><use xlink:href="#path0"/><use xlink:href="#path1"/></g></g><defs><path d="M4.5 0l1.391 2.818L9 3.269 6.75 5.463l.531 3.097L4.5 7.097 1.719 8.56l.531-3.097L0 3.269l3.109-.451L4.5 0z"/><path fill-rule="evenodd" d="M13.672 15.923c.8-.577 1.2-1.56 1.03-2.533l-.415-2.418a.59.59 0 0 1 .169-.522l1.757-1.714a2.588 2.588 0 0 0-1.434-4.417l-2.43-.354a.59.59 0 0 1-.443-.323l-1.086-2.2a2.59 2.59 0 0 0-4.645 0l-1.086 2.2a.589.589 0 0 1-.444.323l-2.428.354A2.589 2.589 0 0 0 .782 8.735l1.757 1.714a.59.59 0 0 1 .17.522l-.411 2.42a2.586 2.586 0 0 0 3.753 2.728l2.172-1.142a.592.592 0 0 1 .549 0l2.172 1.142a2.58 2.58 0 0 0 2.728-.196zM8.498 4.036l1.39 2.818 3.11.452-2.25 2.193.53 3.097-2.78-1.462-2.781 1.462.53-3.097-2.25-2.193 3.11-.452 1.39-2.818zM5.12 14.35l2.177-1.143a2.6 2.6 0 0 1 2.4 0l2.179 1.138c.198.107.44.09.62-.045a.574.574 0 0 0 .235-.577l-.415-2.418a2.589 2.589 0 0 1 .744-2.292L14.818 7.3a.59.59 0 0 0-.327-1l-2.43-.354a2.587 2.587 0 0 1-1.95-1.417l-1.084-2.2a.591.591 0 0 0-1.06 0l-1.084 2.2a2.587 2.587 0 0 1-1.95 1.417L2.505 6.3a.59.59 0 0 0-.327 1l1.758 1.72c.61.594.889 1.451.745 2.291l-.416 2.418a.59.59 0 0 0 .856.622z"/></defs></svg>