<svg xmlns="http://www.w3.org/2000/svg" xmlns:xlink="http://www.w3.org/1999/xlink" width="26" height="24" viewBox="0 0 26 24"><g><g><use xlink:href="#path0"/></g></g><defs><path fill-rule="evenodd" d="M13.891 2.818L12.5 0l-1.391 2.818L8 3.269l2.25 2.194-.531 3.097L12.5 7.097l2.781 1.463-.531-3.097L17 3.269l-3.109-.451zm-8 5.489L4.5 5.489 3.109 8.307 0 8.759l2.25 2.193-.531 3.097L4.5 12.587l2.781 1.462-.531-3.097L9 8.759l-3.109-.452zM7.5 14.511l1.391 2.817L12 17.78l-2.25 2.193.531 3.097L7.5 21.608 4.719 23.07l.531-3.097L3 17.78l3.109-.452L7.5 14.511zm10 0l1.391 2.817L22 17.78l-2.25 2.193.531 3.097-2.781-1.462-2.781 1.462.531-3.097L13 17.78l3.109-.452 1.391-2.817zm3-9.022l1.391 2.818L25 8.759l-2.25 2.193.531 3.097-2.781-1.462-2.781 1.462.531-3.097L16 8.759l3.109-.452L20.5 5.489z"/></defs></svg>