<svg xmlns="http://www.w3.org/2000/svg" xmlns:xlink="http://www.w3.org/1999/xlink" width="24" height="24" viewBox="0 0 24 24"><g><g><use xlink:href="#path0"/></g></g><defs><path fill-rule="evenodd" d="M20 18a1 1 0 0 1 0 2H0V1a1 1 0 0 1 2 0v17h18zM18.648 1.104A2 2 0 0 1 20 3a1.994 1.994 0 0 1-1.876 1.988L15.668 9.9a2 2 0 1 1-3.656 1.224L9.1 9.668A1.988 1.988 0 0 1 8 10h-.032L5.71 13.76A1 1 0 0 1 4 12.73l2.256-3.768a2 2 0 1 1 3.731-1.086L12.9 9.331c.292-.19.628-.3.976-.319L16.332 4.1a2 2 0 0 1 2.316-2.996z"/></defs></svg>