<svg xmlns="http://www.w3.org/2000/svg" xmlns:xlink="http://www.w3.org/1999/xlink" width="16" height="16" viewBox="0 0 16 16"><g><g><use xlink:href="#path0"/></g></g><defs><path fill-rule="evenodd" d="M10.23 0a3.91 3.91 0 0 1 2.78 1.15 4 4 0 0 1 1 2.93c0 5.11-5.94 8.11-7 8.11-1.06 0-7-3.03-7-8.11a4.002 4.002 0 0 1 1-2.93A3.91 3.91 0 0 1 3.83 0a4 4 0 0 1 3.18 1.69A4 4 0 0 1 10.23 0zM1.81 4.08c0 3.61 4.28 5.89 5.2 6.25.92-.36 5.2-2.64 5.2-6.25a2.24 2.24 0 0 0-.52-1.63 2.1 2.1 0 0 0-1.5-.61c-1.12 0-1.91 1.1-2.38 2a.899.899 0 0 1-.79.48.9.9 0 0 1-.8-.49c-.46-.93-1.25-2-2.38-2a2.1 2.1 0 0 0-1.5.61 2.24 2.24 0 0 0-.53 1.64z"/></defs></svg>