<svg xmlns="http://www.w3.org/2000/svg" xmlns:xlink="http://www.w3.org/1999/xlink" width="24" height="24" viewBox="0 0 24 24"><g><g><use xlink:href="#path0"/></g></g><defs><path fill-rule="evenodd" d="M21.973 6.153c0 7.947-9.509 12.792-10.982 12.792C9.518 18.945.01 14.1.01 6.153A6.059 6.059 0 0 1 1.577 1.74 5.924 5.924 0 0 1 5.791 0a6.356 6.356 0 0 1 5.207 3.08A6.358 6.358 0 0 1 16.191 0a5.926 5.926 0 0 1 4.214 1.741 6.06 6.06 0 0 1 1.568 4.412zM5.791 2a3.916 3.916 0 0 0-2.786 1.141 4.1 4.1 0 0 0-.997 3.012c0 6.562 7.756 10.371 8.982 10.771 1.226-.396 8.982-4.209 8.982-10.771a4.099 4.099 0 0 0-1-3.012A3.913 3.913 0 0 0 16.186 2c-2.062 0-3.48 1.887-4.309 3.47a1 1 0 0 1-.886.537 1 1 0 0 1-.883-.539C9.291 3.886 7.87 2 5.791 2z"/></defs></svg>