<svg xmlns="http://www.w3.org/2000/svg" xmlns:xlink="http://www.w3.org/1999/xlink" width="24" height="24" viewBox="0 0 24 24"><g><g><use xlink:href="#path0"/></g></g><defs><path fill-rule="evenodd" d="M10.991 18.944C9.517 18.944.01 14.1.01 6.152A6.056 6.056 0 0 1 1.58 1.74 5.925 5.925 0 0 1 5.79 0 6.358 6.358 0 0 1 11 3.08 6.36 6.36 0 0 1 16.191 0a5.92 5.92 0 0 1 4.213 1.74 6.058 6.058 0 0 1 1.573 4.409c0 .689-.07 1.376-.209 2.05a1 1 0 0 1-1.959-.4 8.177 8.177 0 0 0 .168-1.646 4.1 4.1 0 0 0-1-3.012A3.911 3.911 0 0 0 16.191 2c-2.06 0-3.48 1.888-4.314 3.471a1 1 0 0 1-.886.536 1 1 0 0 1-.884-.539C9.285 3.886 7.87 2 5.791 2A3.914 3.914 0 0 0 3.01 3.139a4.1 4.1 0 0 0-1 3.012c0 6.559 7.75 10.371 8.98 10.771.113-.037.31-.109.594-.237a1 1 0 0 1 .816 1.826 3.4 3.4 0 0 1-1.408.433zm8-7.044a2.812 2.812 0 0 0-3 3V21h6v-6.1a2.812 2.812 0 0 0-3-3zm0 1.8c.818 0 1.2.284 1.2 1.2V16h-2.4v-1.1c0-.9.382-1.2 1.2-1.2z"/></defs></svg>