<svg xmlns="http://www.w3.org/2000/svg" xmlns:xlink="http://www.w3.org/1999/xlink" width="24" height="24" viewBox="0 0 24 24"><g><g><use xlink:href="#path0"/></g></g><defs><path fill-rule="evenodd" d="M12.4 18.51a3.385 3.385 0 0 1-1.409.435C9.518 18.945.01 14.1.01 6.153A6.059 6.059 0 0 1 1.577 1.74 5.924 5.924 0 0 1 5.791 0a6.356 6.356 0 0 1 5.207 3.08A6.358 6.358 0 0 1 16.191 0a5.926 5.926 0 0 1 4.207 1.741 6.06 6.06 0 0 1 1.568 4.412 10.23 10.23 0 0 1-.5 3.163 1 1 0 1 1-1.9-.617 8.236 8.236 0 0 0 .406-2.546 4.099 4.099 0 0 0-1-3.012A3.913 3.913 0 0 0 16.186 2c-2.062 0-3.48 1.887-4.309 3.47a1 1 0 0 1-.886.537 1 1 0 0 1-.883-.539C9.291 3.886 7.87 2 5.791 2A3.916 3.916 0 0 0 3.01 3.14a4.1 4.1 0 0 0-1 3.012c0 6.558 7.748 10.371 8.98 10.771.112-.037.307-.109.592-.237a1 1 0 0 1 .82 1.824zm8.591-5.503a1 1 0 0 1 0 2h-3v3a1 1 0 0 1-2 0v-3h-3a1 1 0 1 1 0-2h3v-3a1 1 0 0 1 2 0v3h3z"/></defs></svg>