<svg xmlns="http://www.w3.org/2000/svg" xmlns:xlink="http://www.w3.org/1999/xlink" width="16" height="16" viewBox="0 0 16 16"><g><g><use xlink:href="#path0"/><use xlink:href="#path1"/></g></g><defs><path d="M4.73.296l-2.29 2.29-.79-.79a1 1 0 0 0-1.41 1.41l2.2 2.21 3.71-3.71A1 1 0 0 0 4.73.296z"/><path d="M6.105 11.89a.9.9 0 0 0 .72-1.65c-.05 0-5-2.23-5-6.2a2.24 2.24 0 0 1 .51-1.64 2.1 2.1 0 0 1 1.5-.61c1.13 0 1.92 1.07 2.38 2a.9.9 0 0 0 .8.49h-.01a.9.9 0 0 0 .8-.48c.47-.9 1.26-2 2.38-2a2.1 2.1 0 0 1 1.5.61c.23.242.386.544.45.87a.9.9 0 0 0 1.75-.4 3.55 3.55 0 0 0-.88-1.75A3.91 3.91 0 0 0 10.185 0a4 4 0 0 0-3.18 1.67A4 4 0 0 0 3.825 0a3.91 3.91 0 0 0-2.82 1.14 4 4 0 0 0-1 2.86c0 4.14 3.84 6.9 6.1 7.89z"/></defs></svg>