<svg xmlns="http://www.w3.org/2000/svg" xmlns:xlink="http://www.w3.org/1999/xlink" width="16" height="16" viewBox="0 0 16 16"><g><g><use xlink:href="#path0"/><use xlink:href="#path1"/></g></g><defs><path d="M5.8 2.9a.9.9 0 0 0-.9-.9H3.8V.9A.9.9 0 1 0 2 .9V2H.9a.9.9 0 1 0 0 1.8H2v1.1a.9.9 0 1 0 1.8 0V3.8h1.1a.9.9 0 0 0 .9-.9z"/><path d="M6.11 11.9a.9.9 0 0 0 .72-1.65c-.05 0-5-2.23-5-6.2a2.24 2.24 0 0 1 .53-1.64 2.1 2.1 0 0 1 1.5-.61c1.13 0 1.92 1.07 2.38 2a.9.9 0 0 0 .8.49h-.03a.9.9 0 0 0 .8-.48c.47-.9 1.26-2 2.38-2a2.1 2.1 0 0 1 1.5.61c.39.461.577 1.06.52 1.66a4.791 4.791 0 0 1-.32 1.71.9.9 0 1 0 1.68.64c.288-.75.438-1.546.44-2.35a4 4 0 0 0-1-2.9A3.91 3.91 0 0 0 10.23.03a4 4 0 0 0-3.22 1.66A4 4 0 0 0 3.83 0a3.91 3.91 0 0 0-2.82 1.15 4 4 0 0 0-1 2.93c0 4.08 3.84 6.84 6.1 7.82z"/></defs></svg>