<svg xmlns="http://www.w3.org/2000/svg" xmlns:xlink="http://www.w3.org/1999/xlink" width="16" height="16" viewBox="0 0 16 16"><g><g><use xlink:href="#path0"/><use xlink:href="#path1"/></g></g><defs><path d="M4.9 0h-4a.9.9 0 0 0 0 1.8h4a.9.9 0 1 0 0-1.8z"/><path d="M13.01 1.15A3.91 3.91 0 0 0 10.23 0a4 4 0 0 0-3.22 1.69A4 4 0 0 0 3.83 0a3.91 3.91 0 0 0-2.82 1.15 4 4 0 0 0-1 2.93c0 5.08 5.94 8.11 7 8.11a3.13 3.13 0 0 0 1.41-.5.903.903 0 1 0-.82-1.61c-.193.1-.39.19-.59.27-.92-.38-5.2-2.66-5.2-6.27a2.24 2.24 0 0 1 .53-1.64 2.1 2.1 0 0 1 1.5-.61c1.13 0 1.92 1.07 2.38 2a.9.9 0 0 0 .8.49h-.01a.9.9 0 0 0 .8-.48c.47-.9 1.26-2 2.38-2a2.1 2.1 0 0 1 1.5.61c.382.453.569 1.04.52 1.63 0 .296-.027.59-.08.88a.9.9 0 1 0 1.77.34 6.5 6.5 0 0 0 .11-1.22 4 4 0 0 0-1-2.93z"/></defs></svg>