<svg xmlns="http://www.w3.org/2000/svg" xmlns:xlink="http://www.w3.org/1999/xlink" width="24" height="24" viewBox="0 0 24 24"><g><g><use xlink:href="#path0"/><use xlink:href="#path0"/></g></g><defs><path fill-rule="evenodd" d="M13.078 18.184a5.754 5.754 0 0 1-2.087.76C9.517 18.944.01 14.1.01 6.152A6.056 6.056 0 0 1 1.58 1.74 5.925 5.925 0 0 1 5.79 0 6.358 6.358 0 0 1 11 3.08 6.36 6.36 0 0 1 16.191 0a5.92 5.92 0 0 1 4.213 1.74 6.057 6.057 0 0 1 1.565 4.417c0 .927-.128 1.85-.378 2.743a1 1 0 1 1-1.914-.541c.2-.718.3-1.46.3-2.206a4.1 4.1 0 0 0-1-3.012A3.911 3.911 0 0 0 16.191 2c-2.06 0-3.48 1.888-4.314 3.471a1 1 0 0 1-.886.536 1 1 0 0 1-.884-.539C9.285 3.886 7.87 2 5.791 2A3.914 3.914 0 0 0 3.01 3.14a4.1 4.1 0 0 0-1 3.012c0 6.56 7.752 10.371 8.981 10.771.405-.145.8-.32 1.18-.52a1 1 0 0 1 .908 1.781zM12.991 12h8a1 1 0 0 1 0 2h-8a1 1 0 1 1 0-2z"/></defs></svg>