<svg xmlns="http://www.w3.org/2000/svg" xmlns:xlink="http://www.w3.org/1999/xlink" width="16" height="16" viewBox="0 0 16 16"><g><g><use xlink:href="#path0"/><use xlink:href="#path1"/></g></g><defs><path fill-rule="evenodd" d="M0 2.5a2.5 2.5 0 0 1 5 0V7H0V2.5zm1.6 0V3h1.8v-.5a.9.9 0 0 0-1.8 0z"/><path d="M.01 4.08c0 5.08 5.94 8.11 7 8.11a.9.9 0 0 0 .11-1.79c-.62-.22-5.31-2.54-5.31-6.32a2.24 2.24 0 0 1 .53-1.64 2.1 2.1 0 0 1 1.5-.61c1.13 0 1.92 1.07 2.38 2a.9.9 0 0 0 .8.49h-.01a.9.9 0 0 0 .8-.48c.47-.9 1.26-2 2.38-2a2.1 2.1 0 0 1 1.5.61c.382.453.569 1.04.52 1.63a.9.9 0 1 0 1.8 0 4 4 0 0 0-1-2.9A3.91 3.91 0 0 0 10.23.03a4 4 0 0 0-3.22 1.66A4 4 0 0 0 3.83 0a3.91 3.91 0 0 0-2.82 1.15 4 4 0 0 0-1 2.93z"/></defs></svg>