<svg xmlns="http://www.w3.org/2000/svg" xmlns:xlink="http://www.w3.org/1999/xlink" width="24" height="24" viewBox="0 0 24 24"><g><g><use xlink:href="#path0"/></g></g><defs><path fill-rule="evenodd" d="M11.879 18.477a1 1 0 0 1-.888.463C9.518 18.94.01 14.095.01 6.148A6.056 6.056 0 0 1 1.573 1.74 5.928 5.928 0 0 1 5.793 0a6.359 6.359 0 0 1 5.206 3.08A6.355 6.355 0 0 1 16.191 0a5.919 5.919 0 0 1 4.214 1.74 6.056 6.056 0 0 1 1.567 4.414c0 .32-.016.636-.044.948a.982.982 0 0 1-1.09.9 1 1 0 0 1-.9-1.089c.024-.25.035-.503.035-.761a4.1 4.1 0 0 0-1-3.012 3.91 3.91 0 0 0-2.783-1.144c-2.062 0-3.48 1.887-4.308 3.47a1 1 0 0 1-1.774-.002C9.291 3.882 7.87 1.996 5.791 1.996a3.917 3.917 0 0 0-2.78 1.132 4.1 4.1 0 0 0-1 3.012c0 6.742 8.18 10.583 9.065 10.8a1.001 1.001 0 0 1 .803 1.537zm4.094-2.747l4.863-4.864.001.001a.9.9 0 1 1 1.273 1.273l-6.137 6.135-3.637-3.635a.901.901 0 0 1 1.274-1.274l2.363 2.364z"/></defs></svg>