<svg xmlns="http://www.w3.org/2000/svg" xmlns:xlink="http://www.w3.org/1999/xlink" width="16" height="16" viewBox="0 0 16 16"><g><g><use xlink:href="#path0"/></g></g><defs><path fill-rule="evenodd" d="M14 13.1a.9.9 0 0 1-.9.9H.9a.9.9 0 0 1-.9-.9V.9A.9.9 0 0 1 .9 0h12.2a.9.9 0 0 1 .9.9v12.2zm-1.8-8.03L11 6.22V7h1.2V5.07zm-.05-2.55L11 3.68V1.8h1.2v.73l-.05-.01zm-2.9-.72H1.8v10.4h3.3a.857.857 0 0 1 0-.2V8.8H5A.9.9 0 0 1 5 7h2a.9.9 0 1 1 0 1.8h-.14V12a.857.857 0 0 1 0 .2h5.34V8.82h-2.05a.9.9 0 0 1-.9-.9V1.8z"/></defs></svg>