<svg xmlns="http://www.w3.org/2000/svg" xmlns:xlink="http://www.w3.org/1999/xlink" width="16" height="16" viewBox="0 0 16 16"><g><g><use xlink:href="#path0"/></g></g><defs><path fill-rule="evenodd" d="M1 13.127h12.09a.94.94 0 0 0 .63-.26.9.9 0 0 0 .28-.66v-5.43a1.491 1.491 0 0 0-.43-1L8.4.567a2 2 0 0 0-2.79 0l-5.2 5.19a1.42 1.42 0 0 0-.41 1v5.37a1 1 0 0 0 1 1zm4.87-1.8v-3.2A1.07 1.07 0 0 1 7 7.017a1.11 1.11 0 0 1 1.13 1.11v3.2H5.87zm1-9.49L1.8 6.917v4.37h2.27v-3.16A2.87 2.87 0 0 1 7 5.217a2.9 2.9 0 0 1 2.94 2.91v3.2h2.26v-4.41l-5.08-5.08a.18.18 0 0 0-.25 0z"/></defs></svg>