<svg xmlns="http://www.w3.org/2000/svg" xmlns:xlink="http://www.w3.org/1999/xlink" width="16" height="16" viewBox="0 0 16 16"><g><g><use xlink:href="#path0"/></g></g><defs><path d="M9 11.327a.9.9 0 0 0 0 1.8h4.09a.93.93 0 0 0 .63-.26.9.9 0 0 0 .28-.65v-5.44a1.47 1.47 0 0 0-.43-1L8.4.567a2 2 0 0 0-2.79 0L.42 5.747a1.41 1.41 0 0 0-.42 1v5.38a1 1 0 0 0 1 1h3a3.9 3.9 0 0 0 3.9-3.9v-1l.44.47a.9.9 0 0 0 1.31-1.23l-2-2.12a.9.9 0 0 0-.65-.22.9.9 0 0 0-.64.26l-2 2a.9.9 0 0 0 1.27 1.27l.47-.53v1.1a2.1 2.1 0 0 1-2.1 2.1H1.8v-4.41l5.07-5.08a.18.18 0 0 1 .25 0l5.08 5.08v4.41H9z"/></defs></svg>