<svg xmlns="http://www.w3.org/2000/svg" xmlns:xlink="http://www.w3.org/1999/xlink" width="16" height="16" viewBox="0 0 16 16"><g><g><use xlink:href="#path0"/></g></g><defs><path fill-rule="evenodd" d="M7.632.25a.93.93 0 0 0-1.27 0l-6.1 6.1a.9.9 0 0 0 0 1.27l5.1 5.1a.93.93 0 0 0 1.27 0l1.36-1.36 2.36 2.36a.9.9 0 0 0 1.27 0l4.1-4.1a.9.9 0 0 0 0-1.27L7.632.25zm2.46 10.67l-1.2-1.2V4.06l1.2 1.2v5.66zm-6-2V5.07l-1.93 1.92 1.93 1.93zm1.9 1.9l-.1-.1V3.26l1.1-1.1.1.1v7.46l-1.1 1.1zm5.9-3.76v3.86l1.93-1.93-1.93-1.93z"/></defs></svg>