<svg xmlns="http://www.w3.org/2000/svg" xmlns:xlink="http://www.w3.org/1999/xlink" width="24" height="24" viewBox="0 0 24 24"><g><g><use xlink:href="#path0"/></g></g><defs><path fill-rule="evenodd" d="M17.98 19.784a2.02 2.02 0 0 0 2.02-2.02V10.02c0-.804-.32-1.575-.888-2.144l-7-7a2.992 2.992 0 0 0-4.231 0L.879 7.884A3 3 0 0 0 0 10.007v7.757a2.02 2.02 0 0 0 2.02 2.02h15.96zm-9.98-2v-6a2 2 0 1 1 4 0v6H8zM2.293 9.3a1 1 0 0 0-.293.708v7.757l4 .02v-6a4 4 0 0 1 8 0v6h3.98l.02-7.76a1.025 1.025 0 0 0-.3-.73l-7-7a.992.992 0 0 0-1.4 0L2.293 9.298z"/></defs></svg>