<svg xmlns="http://www.w3.org/2000/svg" xmlns:xlink="http://www.w3.org/1999/xlink" width="24" height="24" viewBox="0 0 24 24"><g><g><use xlink:href="#path0"/></g></g><defs><path fill-rule="evenodd" d="M14.707 3.293l4 4 4.998 4.998a1 1 0 0 1 0 1.414l-5 5-2 2a1 1 0 0 1-1.414 0l-2-2-3.292-3.292-2.292 2.294a1 1 0 0 1-1.414 0l-1-1-5-5a1 1 0 0 1 0-1.414l5-5 4-4 1-1a1 1 0 0 1 1.414 0l3 3zM2.413 10.999l2.586 2.586V8.413l-2.586 2.586zm6.586 2.586l-2 2V6.413l2-2v9.172zm2 0l2 2V4.413l-2-2v11.172zm6 4l-1 1-1-1V6.413l2 2v9.172zm4.586-4.586l-2.586-2.586v5.172l2.586-2.586z"/></defs></svg>