<svg xmlns="http://www.w3.org/2000/svg" xmlns:xlink="http://www.w3.org/1999/xlink" width="24" height="24" viewBox="0 0 24 24"><g><g><use xlink:href="#path0"/></g></g><defs><path d="M13 17.756a1 1 0 1 0 0 2h4.98a2.022 2.022 0 0 0 2.02-2.02V9.992a3.051 3.051 0 0 0-.888-2.145l-7-7a3.064 3.064 0 0 0-4.23 0L.879 7.856A2.98 2.98 0 0 0 0 9.98v7.757a2.023 2.023 0 0 0 2.021 2.02H5a6.007 6.007 0 0 0 6-6v-2.727l1.364 1.364a.9.9 0 0 0 1.272-1.273l-3-3a.9.9 0 0 0-1.272 0l-3 3a.9.9 0 0 0 1.272 1.273L9 11.029v2.727a4 4 0 0 1-4 4l-3-.021V9.979a1 1 0 0 1 .293-.708L9.3 2.265a1.007 1.007 0 0 1 1.4 0l7 7c.192.194.3.456.3.729l-.02 7.762H13z"/></defs></svg>