<svg xmlns="http://www.w3.org/2000/svg" xmlns:xlink="http://www.w3.org/1999/xlink" width="16" height="16" viewBox="0 0 16 16"><g><g><use xlink:href="#path0"/></g></g><defs><path fill-rule="evenodd" d="M12.1 0c1.05 0 1.9.85 1.9 1.9v10.2a1.9 1.9 0 0 1-1.9 1.9H1.9A1.9 1.9 0 0 1 0 12.1V1.9C0 .85.85 0 1.9 0h10.2zM1.9 1.8a.1.1 0 0 0-.1.1v1.6a1.7 1.7 0 1 0 1.7-1.7H1.9zm-.1 10.3V6.54A3.46 3.46 0 0 0 3.5 7 3.5 3.5 0 0 0 7 3.5a3.46 3.46 0 0 0-.46-1.7h5.56a.1.1 0 0 1 .1.1v6L9.5 5.2l-7 7h-.6a.1.1 0 0 1-.1-.1zm3.3.1h7a.1.1 0 0 0 .1-.1v-1.63l-2.7-2.7-4.4 4.43z"/></defs></svg>