<svg xmlns="http://www.w3.org/2000/svg" xmlns:xlink="http://www.w3.org/1999/xlink" width="24" height="24" viewBox="0 0 24 24"><g><g><use xlink:href="#path0"/></g></g><defs><path fill-rule="evenodd" d="M0 2a2 2 0 0 1 2-2h16a2 2 0 0 1 2 2v16a2 2 0 0 1-2 2H2a2 2 0 0 1-2-2V2zm4.5 0H2v2.5A2.5 2.5 0 1 0 4.5 2zM2 15.414l2.707-2.707a1 1 0 0 0-1.414-1.414L2 12.586V8.238A4.5 4.5 0 0 0 8.238 2h8.348L2 16.586v-1.172zm16-12L3.414 18H18v-3.586l-3.5-3.5-4.793 4.794a1 1 0 1 1-1.414-1.414L14.5 8.087l3.5 3.5V3.414z"/></defs></svg>