<svg xmlns="http://www.w3.org/2000/svg" xmlns:xlink="http://www.w3.org/1999/xlink" width="16" height="16" viewBox="0 0 16 16"><g><g><use xlink:href="#path0"/></g></g><defs><path fill-rule="evenodd" d="M14 12.1a1.9 1.9 0 0 1-1.9 1.9H1.9A1.9 1.9 0 0 1 0 12.1V1.9C0 .85.85 0 1.9 0h10.2c1.05 0 1.9.85 1.9 1.9v10.2zM10.93 1.8H6.54A3.46 3.46 0 0 1 7 3.5 3.5 3.5 0 0 1 3.5 7a3.46 3.46 0 0 1-1.7-.46v4.39l9.13-9.13zm1.17 10.4h-9l9.1-9.13v5.86l-2.06-2.07-1.28 1.28 3.34 3.34v.62a.1.1 0 0 1-.1.1zM1.9 1.8a.1.1 0 0 0-.1.1v1.6a1.7 1.7 0 1 0 1.7-1.7H1.9z"/></defs></svg>