<svg xmlns="http://www.w3.org/2000/svg" xmlns:xlink="http://www.w3.org/1999/xlink" width="16" height="16" viewBox="0 0 16 16"><g><g><use xlink:href="#path0"/><use xlink:href="#path1"/></g></g><defs><path d="M1 2a1 1 0 1 0 0-2 1 1 0 0 0 0 2z"/><path fill-rule="evenodd" d="M6.48 9.85A5.931 5.931 0 0 1 5 10a5 5 0 1 1 5-5c.012.498-.038.995-.15 1.48L14 10.63V14h-3.37L6.48 9.85zM8.2 5A3.2 3.2 0 1 0 5 8.2 3.27 3.27 0 0 0 6.34 8l.57-.27 4.46 4.47h.84v-.82L7.74 6.91 8 6.34c.16-.428.228-.884.2-1.34z"/></defs></svg>