<svg xmlns="http://www.w3.org/2000/svg" xmlns:xlink="http://www.w3.org/1999/xlink" width="24" height="24" viewBox="0 0 24 24"><g><g><use xlink:href="#path0"/></g></g><defs><path fill-rule="evenodd" d="M15 7.5A7.5 7.5 0 1 0 7.5 15c.892 0 1.776-.16 2.611-.474L16.586 21H21v-4.414l-6.474-6.475c.314-.835.475-1.72.474-2.611zM7 9a2 2 0 1 0 0-4 2 2 0 0 0 0 4zm12 10v-1.586l-6.871-6.873.312-.641A5.444 5.444 0 0 0 13 7.5 5.5 5.5 0 1 0 7.5 13c.833 0 1.655-.191 2.402-.559l.641-.313L17.413 19H19z"/></defs></svg>