<svg xmlns="http://www.w3.org/2000/svg" xmlns:xlink="http://www.w3.org/1999/xlink" width="24" height="24" viewBox="0 0 24 24"><g><g><use xlink:href="#path0"/></g></g><defs><path fill-rule="evenodd" d="M4.003 18.002v2a2.706 2.706 0 0 0 3 3h2a2.756 2.756 0 0 0 3-3v-2c0-1.539 1.124-3 2.211-4.405l.211-.274a9.666 9.666 0 0 0 1.578-5.321 7.825 7.825 0 0 0-8-8 7.825 7.825 0 0 0-8 8 8.915 8.915 0 0 0 1.676 5.445c.695.868 2.324 2.904 2.324 4.555zm6 2c0 .757-.243 1-1 1h-2c-.774 0-1-.131-1-1v-2h4v2zm2.283-16.283a5.868 5.868 0 0 0-4.283-1.717 5.868 5.868 0 0 0-6 6 6.942 6.942 0 0 0 1.236 4.195 14.683 14.683 0 0 1 2.358 3.805h1.376L5.034 8.244a1 1 0 1 1 1.94-.485l1.03 4.121 1.03-4.12a1 1 0 1 1 1.94.485l-1.94 7.757h1.354a14.262 14.262 0 0 1 2.243-3.629l.208-.271a7.776 7.776 0 0 0 1.164-4.1 5.869 5.869 0 0 0-1.717-4.283z"/></defs></svg>