<svg xmlns="http://www.w3.org/2000/svg" xmlns:xlink="http://www.w3.org/1999/xlink" width="16" height="16" viewBox="0 0 16 16"><g><g><use xlink:href="#path0"/></g></g><defs><path fill-rule="evenodd" d="M1.974 10.952v1.17a1.921 1.921 0 0 0 2 1.92h2a1.92 1.92 0 0 0 2-1.92v-1.25a4.29 4.29 0 0 1 .92-2.74 4.92 4.92 0 0 0-.75-7 5 5 0 0 0-4.31-1 4.94 4.94 0 0 0-2.67 8 4.36 4.36 0 0 1 .81 2.82zm4 1.29h-2a.12.12 0 0 1-.12-.12v-1.08h2.3v1.08a.12.12 0 0 1-.18.12zm-1.78-10.31a3.17 3.17 0 0 0-2.34 2.31l.02-.04a3.09 3.09 0 0 0 .67 2.84 5.592 5.592 0 0 1 1 2h.59l-.92-2.74a.802.802 0 0 1 1.52-.51l.24.72.24-.73a.802.802 0 0 1 1.52.51l-.92 2.75h.59c.218-.73.578-1.41 1.06-2a3.07 3.07 0 0 0 .71-2 3.14 3.14 0 0 0-1.2-2.5 3.21 3.21 0 0 0-2-.7c-.262 0-.524.03-.78.09z"/></defs></svg>