<svg xmlns="http://www.w3.org/2000/svg" xmlns:xlink="http://www.w3.org/1999/xlink" width="24" height="24" viewBox="0 0 24 24"><g><g><use xlink:href="#path0"/></g></g><defs><path fill-rule="evenodd" d="M9.693 5.744l4.05-4.05a5.95 5.95 0 0 1 8.414 8.414l-3.05 3.05a1 1 0 0 1-1.414-1.414l3.05-3.05a3.95 3.95 0 0 0-5.586-5.586l-4.05 4.05a3.953 3.953 0 0 0 1.123 6.374 1 1 0 0 1-.845 1.812 5.952 5.952 0 0 1-1.692-9.6zm.464 16.364a5.93 5.93 0 0 1-4.207 1.74 5.947 5.947 0 0 1-4.207-10.153l3-3a1 1 0 0 1 1.414 1.414l-3 3a3.95 3.95 0 0 0 5.586 5.586l4-4a3.952 3.952 0 0 0-.946-6.286 1 1 0 0 1 .937-1.768 5.955 5.955 0 0 1 1.423 9.467l-4 4z"/></defs></svg>