<svg xmlns="http://www.w3.org/2000/svg" xmlns:xlink="http://www.w3.org/1999/xlink" width="16" height="16" viewBox="0 0 16 16"><g><g><use xlink:href="#path0"/><use xlink:href="#path1"/></g></g><defs><path d="M9.566 1.296a4.44 4.44 0 0 0-6.27 0l-2 2a4.44 4.44 0 0 0 0 6.27.9.9 0 1 0 1.24-1.24 2.64 2.64 0 0 1 0-3.73l2-2a2.7 2.7 0 0 1 3.73 0 2.63 2.63 0 0 1 .29 3.38.9.9 0 1 0 1.47 1 4.42 4.42 0 0 0-.46-5.68z"/><path d="M2.004 2.613a.9.9 0 0 0-1.25.23 4.44 4.44 0 0 0 6.79 5.65l2-2a4.44 4.44 0 0 0 0-6.27.9.9 0 0 0-1.27 1.27 2.64 2.64 0 0 1 0 3.73l-2 2a2.7 2.7 0 0 1-3.73 0 2.63 2.63 0 0 1-.31-3.35.9.9 0 0 0-.23-1.26z"/></defs></svg>