<svg xmlns="http://www.w3.org/2000/svg" xmlns:xlink="http://www.w3.org/1999/xlink" width="16" height="16" viewBox="0 0 16 16"><g><g><use xlink:href="#path0"/><use xlink:href="#path1"/></g></g><defs><path fill-rule="evenodd" d="M6 0a3 3 0 0 0-3 3v1H1.9A1.9 1.9 0 0 0 0 5.92v6.16A1.9 1.9 0 0 0 1.9 14h8.2a1.9 1.9 0 0 0 1.9-1.9V5.92A1.9 1.9 0 0 0 10.1 4H9V3a3 3 0 0 0-3-3zM4.8 3a1.2 1.2 0 0 1 2.4 0v1H4.8V3zm5.4 9.1V5.92a.1.1 0 0 0-.1-.1H1.9a.1.1 0 0 0-.1.1v6.18a.1.1 0 0 0 .1.1h8.2a.1.1 0 0 0 .1-.1z"/><path d="M.5 2.618v.39a1 1 0 1 0 2 0v-.39a1.5 1.5 0 1 0-2 0z"/></defs></svg>