<svg xmlns="http://www.w3.org/2000/svg" xmlns:xlink="http://www.w3.org/1999/xlink" width="24" height="24" viewBox="0 0 24 24"><g><g><use xlink:href="#path0"/></g></g><defs><path fill-rule="evenodd" d="M15 6a3 3 0 0 1 3 3v8a3 3 0 0 1-3 3H3a3 3 0 0 1-3-3V9a3 3 0 0 1 3-3h1V5a5 5 0 1 1 10 0v1h1zM9 2a3 3 0 0 0-3 3v1h6V5a3 3 0 0 0-3-3zm7 15a1 1 0 0 1-1 1H3a1 1 0 0 1-1-1V9a1 1 0 0 1 1-1h12a1 1 0 0 1 1 1v8zm-8.933-5.523A1.994 1.994 0 0 1 9 10a1.994 1.994 0 0 1 1 3.723V16a1 1 0 0 1-2 0v-2.277a1.994 1.994 0 0 1-.933-2.246z"/></defs></svg>