<svg xmlns="http://www.w3.org/2000/svg" xmlns:xlink="http://www.w3.org/1999/xlink" width="16" height="16" viewBox="0 0 16 16"><g><g><use xlink:href="#path0"/><use xlink:href="#path1"/></g></g><defs><path fill-rule="evenodd" d="M6.852 2.148A1.19 1.19 0 0 0 6 1.8 1.19 1.19 0 0 0 4.8 3v2h5.3A1.9 1.9 0 0 1 12 6.92v6.18a1.9 1.9 0 0 1-1.9 1.9H1.9A1.9 1.9 0 0 1 0 13.08V6.92A1.9 1.9 0 0 1 1.9 5H3V3a3 3 0 0 1 6 0 .9.9 0 1 1-1.8 0 1.19 1.19 0 0 0-.348-.852zM10.2 13.08V6.92a.1.1 0 0 0-.1-.1H1.9a.1.1 0 0 0-.1.1v6.16a.1.1 0 0 0 .1.1h8.2a.1.1 0 0 0 .1-.1z"/><path d="M.5 2.618v.39a1 1 0 1 0 2 0v-.39a1.5 1.5 0 1 0-2 0z"/></defs></svg>