<svg xmlns="http://www.w3.org/2000/svg" xmlns:xlink="http://www.w3.org/1999/xlink" width="24" height="24" viewBox="0 0 24 24"><g><g><use xlink:href="#path0"/></g></g><defs><path fill-rule="evenodd" d="M13.5 13v2a1 1 0 0 1-1 1H3a1 1 0 0 1-1-1V3a1 1 0 0 1 1-1h9.5a1 1 0 0 1 1 1v2a1 1 0 0 0 2 0V3a3 3 0 0 0-3-3H3a3 3 0 0 0-3 3v12a3 3 0 0 0 3 3h9.5a3 3 0 0 0 3-3v-2a1 1 0 0 0-2 0zm3.232-1.64a1 1 0 1 0 1.536 1.28L21.302 9l-3.034-3.64a1 1 0 1 0-1.536 1.28L17.865 8H11a1 1 0 0 0 0 2h6.865l-1.133 1.36z"/></defs></svg>