<svg xmlns="http://www.w3.org/2000/svg" xmlns:xlink="http://www.w3.org/1999/xlink" width="24" height="24" viewBox="0 0 24 24"><g><g><use xlink:href="#path0"/></g></g><defs><path fill-rule="evenodd" d="M13.29 7.45L18 3.33v3.183a1 1 0 0 0 2 0V1.998C20 .9 19.108 0 18.007 0H1.993A1.998 1.998 0 0 0 0 2.002v9.995C0 13.098.898 14 2.003 14h9.864a1 1 0 1 0 0-2C5.29 11.997 2 11.996 2 11.998v-8.67l4.71 4.123c1.83 1.6 4.751 1.6 6.58 0zM3.518 2l4.509 3.946c1.075.94 2.87.94 3.944 0L16.482 2H3.518zM18 11.586l2.293-2.293a1 1 0 0 1 1.414 1.414L19.414 13l2.293 2.293a1 1 0 1 1-1.414 1.414L18 14.414l-2.293 2.293a1 1 0 0 1-1.414-1.414L16.586 13l-2.293-2.293a1 1 0 1 1 1.414-1.414L18 11.586z"/></defs></svg>