<svg xmlns="http://www.w3.org/2000/svg" xmlns:xlink="http://www.w3.org/1999/xlink" width="24" height="24" viewBox="0 0 24 24"><g><g><use xlink:href="#path0"/></g></g><defs><path fill-rule="evenodd" d="M13.07 1.057a4.985 4.985 0 0 0-6.14 0L.58 5.997A1.478 1.478 0 0 0 0 7.177v10.76a2.006 2.006 0 0 0 2 2h16a2.006 2.006 0 0 0 2-2V7.19a1.5 1.5 0 0 0-.578-1.183l-6.352-4.95zM12 5.937H3.91l4.25-3.3a3 3 0 0 1 3.68 0l5.54 4.31-5.54 4.36a3 3 0 0 1-3.68 0l-4.28-3.37H12a1 1 0 1 0 0-2zm-10 12h16v-8.94l-4.92 3.88a5.009 5.009 0 0 1-6.15.01L2 8.997v8.94z"/></defs></svg>