<svg xmlns="http://www.w3.org/2000/svg" xmlns:xlink="http://www.w3.org/1999/xlink" width="16" height="16" viewBox="0 0 16 16"><g><g><use xlink:href="#path0"/></g></g><defs><path fill-rule="evenodd" d="M13.49 4.326a.83.83 0 0 0-.08-.09L8.86.666a2.89 2.89 0 0 0-3.69 0L.59 4.236a.799.799 0 0 0-.06.08A1.39 1.39 0 0 0 0 5.396v7.2a1.4 1.4 0 0 0 1.4 1.4h11.2a1.4 1.4 0 0 0 1.4-1.4v-7.2a1.4 1.4 0 0 0-.51-1.07zM6.3 2.046a1.1 1.1 0 0 1 1.43 0l4 3.1a.881.881 0 0 0-.24.12L7.7 8.236a1.11 1.11 0 0 1-1.43 0l-3.71-2.95a.88.88 0 0 0-.24-.12l3.98-3.12zm-4.5 4.95v5.2h10.4v-5.2l-3.37 2.64a2.86 2.86 0 0 1-1.83.66 2.91 2.91 0 0 1-1.86-.67L1.8 6.996z"/></defs></svg>