<svg xmlns="http://www.w3.org/2000/svg" xmlns:xlink="http://www.w3.org/1999/xlink" width="16" height="16" viewBox="0 0 16 16"><g><g><use xlink:href="#path0"/><use xlink:href="#path1"/></g></g><defs><path fill-rule="evenodd" d="M7.81 12.83v.08a.91.91 0 0 1-1.82 0v-.1a6 6 0 0 1-5-5H.91a.91.91 0 0 1 0-1.82h.1a6 6 0 0 1 5-5V.91a.91.91 0 0 1 1.82 0v.12a6 6 0 0 1 5 5h.08a.9.9 0 1 1 0 1.8h-.1a6 6 0 0 1-5 5zm-3.9-5.02h-1.1a4.21 4.21 0 0 0 3.2 3.2v-1.1a.9.9 0 0 1 1.8 0v1.1a4.21 4.21 0 0 0 3.2-3.2h-1.1a.9.9 0 1 1 0-1.8h1.1a4.21 4.21 0 0 0-3.2-3.2v1.1a.9.9 0 1 1-1.8 0v-1.1a4.21 4.21 0 0 0-3.2 3.2h1.1a.9.9 0 0 1 0 1.8z"/><path d="M1 2a1 1 0 1 0 0-2 1 1 0 0 0 0 2z"/></defs></svg>