<svg xmlns="http://www.w3.org/2000/svg" xmlns:xlink="http://www.w3.org/1999/xlink" width="16" height="16" viewBox="0 0 16 16"><g><g><use xlink:href="#path0"/><use xlink:href="#path1"/><use xlink:href="#path2"/></g></g><defs><path fill-rule="evenodd" d="M2.49 6.36l-.67-.63C1.51 5.44 0 4 0 2.5a2.5 2.5 0 0 1 5 0C5 4 3.48 5.46 3.17 5.73l-.68.63zm.76-3.88a.75.75 0 0 0-.75-.75v.02a.75.75 0 0 0-.75.73.75.75 0 1 0 1.5 0z"/><path fill-rule="evenodd" d="M0 3.5a3.5 3.5 0 1 1 7 0c0 2.25-2.54 4.64-2.83 4.87L3.49 9l-.67-.6C2.53 8.13 0 5.69 0 3.5zm2 0a1.5 1.5 0 1 0 3 0 1.5 1.5 0 0 0-3 0z"/><path d="M5.48 3.81A2.23 2.23 0 0 0 3.9 0h-3a.9.9 0 0 0 0 1.8h3a.43.43 0 0 1 .31.74L2.76 4a2.23 2.23 0 0 0 1.58 3.8h6.56a.9.9 0 1 0 0-1.8H4.34a.43.43 0 0 1-.31-.74l1.45-1.45z"/></defs></svg>