<svg xmlns="http://www.w3.org/2000/svg" xmlns:xlink="http://www.w3.org/1999/xlink" width="24" height="24" viewBox="0 0 24 24"><g><g><use xlink:href="#path0"/></g></g><defs><path fill-rule="evenodd" d="M8 22v-8H2a2 2 0 0 1-2-2V5a2 2 0 0 1 2-2h6v-.5a2.5 2.5 0 1 1 5 0V3h3.232a3 3 0 0 1 2.007.77l3.6 3.244a2 2 0 0 1 0 2.973l-3.6 3.243a3 3 0 0 1-2.007.77H13v8H8zm2-8v6h1v-6h-1zm0-11.5a.5.5 0 0 1 1 0V3h-1v-.5zM16.232 5H2v7h14.231a1 1 0 0 0 .669-.257L20.5 8.5l-3.599-3.244A1 1 0 0 0 16.232 5z"/></defs></svg>