<svg xmlns="http://www.w3.org/2000/svg" xmlns:xlink="http://www.w3.org/1999/xlink" width="16" height="16" viewBox="0 0 16 16"><g><g><use xlink:href="#path0"/></g></g><defs><path fill-rule="evenodd" d="M13.28 7.185a.902.902 0 1 0-.75 1.64 2.15 2.15 0 0 1 1.47 1.38c0 .63-1.16 1.46-3.1 1.91v-3.93a3 3 0 0 0-1.53-2.57 3 3 0 1 0-2.94 0 3 3 0 0 0-1.53 2.57v3.93c-1.94-.45-3.1-1.27-3.1-1.91a2.15 2.15 0 0 1 1.48-1.38.902.902 0 0 0-.75-1.64C.9 7.935 0 9.015 0 10.205c0 2.3 3.4 4 7.9 4s7.9-1.74 7.9-4c0-1.19-.9-2.27-2.52-3.02zM7.9 1.815a1.2 1.2 0 1 1 0 2.4 1.2 1.2 0 0 1 0-2.4zm-1.2 6.37v4.21c.38.03.78.05 1.2.05.215 0 .425-.013.63-.026.195-.012.385-.024.57-.024v-4.21a1.2 1.2 0 1 0-2.4 0z"/></defs></svg>