<svg xmlns="http://www.w3.org/2000/svg" xmlns:xlink="http://www.w3.org/1999/xlink" width="24" height="24" viewBox="0 0 24 24"><g><g><use xlink:href="#path0"/></g></g><defs><path fill-rule="evenodd" d="M15.135 5.148a1 1 0 0 1-1.283.807l-2.012-.62c.197.534.3 1.097.306 1.665a4.991 4.991 0 0 1-2.817 4.474c.454.293.843.676 1.145 1.125 1.132 1.692 2.418 3.616 3.325 4.98a3 3 0 0 1-1.38 4.452A14.32 14.32 0 0 1 7.136 23a14.251 14.251 0 0 1-5.252-.955 3.006 3.006 0 0 1-1.38-4.455l3.32-4.98c.302-.449.692-.833 1.146-1.127a4.963 4.963 0 0 1-1.254-8.1.973.973 0 0 1 .08-.066c.128-.118.261-.228.4-.332l-2.05-.631V5a1 1 0 0 1-2 0V1A1 1 0 0 1 1.44.044l13 4a1 1 0 0 1 .696 1.104zm-4.802 10.841l-.55-.824a3.408 3.408 0 0 1-5.268.008l-2.349 3.523a1.006 1.006 0 0 0 .461 1.49 12.948 12.948 0 0 0 9.045-.008 1.005 1.005 0 0 0 .461-1.488c-.51-.77-1.143-1.717-1.8-2.7zm-4.57-2.597a1.962 1.962 0 0 1 1.383-.567c.515-.002 1.011.199 1.379.56a1.446 1.446 0 0 1-2.767.008l.005-.001zM4.146 7a3 3 0 1 0 6.001 0 .96.96 0 0 0-.013-.137c-.004-.029-.008-.058-.01-.087L4.795 5.159a2.97 2.97 0 0 0-.649 1.84z"/></defs></svg>