<svg xmlns="http://www.w3.org/2000/svg" xmlns:xlink="http://www.w3.org/1999/xlink" width="24" height="24" viewBox="0 0 24 24"><g><g><use xlink:href="#path0"/></g></g><defs><path fill-rule="evenodd" d="M19.941 10H21a1 1 0 0 1 0 2h-1.059A9.012 9.012 0 0 1 12 19.941V21a1 1 0 0 1-2 0v-1.059A9.012 9.012 0 0 1 2.059 12H1a1 1 0 0 1 0-2h1.059A9.012 9.012 0 0 1 10 2.059V1a1 1 0 0 1 2 0v1.059A9.012 9.012 0 0 1 19.941 10zM12 17v.92A7.005 7.005 0 0 0 17.92 12H17a1 1 0 1 1 0-2h.92A7.005 7.005 0 0 0 12 4.08V5a1 1 0 0 1-2 0v-.92A7.005 7.005 0 0 0 4.08 10H5a1 1 0 0 1 0 2h-.92A7.005 7.005 0 0 0 10 17.92V17a1 1 0 1 1 2 0zM11 7a4 4 0 1 0 0 8 4 4 0 0 0 0-8zm-2 4a2 2 0 1 0 4 0 2 2 0 0 0-4 0z"/></defs></svg>