<svg xmlns="http://www.w3.org/2000/svg" xmlns:xlink="http://www.w3.org/1999/xlink" width="16" height="16" viewBox="0 0 16 16"><g><g><use xlink:href="#path0"/></g></g><defs><path fill-rule="evenodd" d="M9.816 3.525a.9.9 0 0 1 .024.69.9.9 0 0 1-1.15.57l-.74-.27a3 3 0 0 1-2.5 3.49c.455.1.857.363 1.13.74l2.6 3.88a1.91 1.91 0 0 1 .25 1.59 1.83 1.83 0 0 1-1 1.17 8.33 8.33 0 0 1-3.43.71 8.3 8.3 0 0 1-3.42-.7 1.83 1.83 0 0 1-1-1.17 1.92 1.92 0 0 1 .25-1.59l2.59-3.84c.266-.398.674-.68 1.14-.79a3 3 0 0 1-1.44-5.32l-1.32-.49v1.81a.9.9 0 0 1-1.8 0v-3.1a.9.9 0 0 1 1.21-.85l8.1 3a.9.9 0 0 1 .506.47zm-3.736 7.68l-1-1.46h-.16l-.97 1.46h2.13zm-3.75 2.54a.12.12 0 0 1 0-.13l.45-.61a.87.87 0 0 0 .22 0h4c.076.01.154.01.23 0l.45.67v.12a7 7 0 0 1-5.35-.04v-.01zm1.561-8.28a1.2 1.2 0 1 0 2.218-.92 1.2 1.2 0 0 0-2.218.92z"/></defs></svg>