<svg xmlns="http://www.w3.org/2000/svg" xmlns:xlink="http://www.w3.org/1999/xlink" width="16" height="16" viewBox="0 0 16 16"><g><g><use xlink:href="#path0"/></g></g><defs><path fill-rule="evenodd" d="M9.816 3.525a.9.9 0 0 1 .024.69.9.9 0 0 1-1.17.53l-.74-.27a2.9 2.9 0 0 1-1 2.81A3.93 3.93 0 0 1 9 10.725v2.88a2.38 2.38 0 0 1-2.38 2.4H3.38a2.38 2.38 0 0 1-2.38-2.4v-2.88a3.93 3.93 0 0 1 2.12-3.44 3 3 0 0 1 0-4.6l-1.32-.49v1.81a.9.9 0 0 1-1.8 0v-3.1a.9.9 0 0 1 1.21-.85l8.1 3a.9.9 0 0 1 .506.47zM5.459 6.114a1.2 1.2 0 1 0-.918-2.218 1.2 1.2 0 0 0 .918 2.218zM5 8.575a2.22 2.22 0 0 1 1.56.63H3.44A2.22 2.22 0 0 1 5 8.575zm-2.2 5.03c0 .32.26.58.58.58h3.24c.32 0 .58-.26.58-.58v-2.6H2.8v2.6z"/></defs></svg>