<svg xmlns="http://www.w3.org/2000/svg" xmlns:xlink="http://www.w3.org/1999/xlink" width="24" height="24" viewBox="0 0 24 24"><g><g><use xlink:href="#path0"/></g></g><defs><path fill-rule="evenodd" d="M14.99 5.149a1 1 0 0 1-1.284.807l-2.012-.619a4.889 4.889 0 0 1-2.15 5.944A5.918 5.918 0 0 1 13 16.635V20a3 3 0 0 1-3 3H4a3 3 0 0 1-3-3v-3.365a5.918 5.918 0 0 1 3.457-5.352 4.958 4.958 0 0 1-.889-7.9.97.97 0 0 1 .145-.12c.109-.096.219-.19.337-.278L2 2.355V5a1 1 0 0 1-2 0V1A1 1 0 0 1 1.294.044l13 4a1 1 0 0 1 .695 1.105zM11 16.635a3.834 3.834 0 0 0-.812-2.343 3.454 3.454 0 0 1-6.375 0A3.834 3.834 0 0 0 3 16.635V20a1 1 0 0 0 1 1h6a1 1 0 0 0 1-1v-3.365zm-5.453-3.644a3.945 3.945 0 0 1 2.905 0 1.453 1.453 0 0 1-2.905 0zM4 7.001a3 3 0 0 0 6.001 0 .967.967 0 0 0-.013-.137c-.004-.03-.008-.058-.01-.088L4.649 5.16A2.97 2.97 0 0 0 4 7z"/></defs></svg>