<svg xmlns="http://www.w3.org/2000/svg" xmlns:xlink="http://www.w3.org/1999/xlink" width="24" height="24" viewBox="0 0 24 24"><g><g><use xlink:href="#path0"/></g></g><defs><path fill-rule="evenodd" d="M19.531 12.593a1.002 1.002 0 0 0-1.062 1.7c.572.354 1.531 1.087 1.531 1.972 0 1.11-1.552 2.3-4 3.026v-6.966a4.933 4.933 0 0 0-3.406-4.656 4 4 0 1 0-3.187 0A4.933 4.933 0 0 0 6 12.325v6.966c-2.448-.724-4-1.916-4-3.026 0-.885.959-1.618 1.531-1.976a1.002 1.002 0 1 0-1.062-1.7C.429 13.872 0 15.296 0 16.265c0 3.253 4.729 5.707 11 5.707s11-2.453 11-5.707c0-.97-.429-2.393-2.469-3.672zM11 2.005a2 2 0 1 1 0 4 2 2 0 0 1 0-4zm-3 10.32v7.41c1.988.315 4.012.315 6 0v-7.41a3 3 0 1 0-6 0z"/></defs></svg>