<svg xmlns="http://www.w3.org/2000/svg" xmlns:xlink="http://www.w3.org/1999/xlink" width="16" height="16" viewBox="0 0 16 16"><g><g><use xlink:href="#path0"/></g></g><defs><path fill-rule="evenodd" d="M2.73 11.31a1.89 1.89 0 0 1-1.84-.1A1.89 1.89 0 0 1 0 9.62v-6a1.91 1.91 0 0 1 1.07-1.7L5 0l4 2L11.27.87A1.9 1.9 0 0 1 14 2.58v6a1.91 1.91 0 0 1-1.06 1.7L9 12.2l-4-2-2.27 1.11zm-.87-7.78a.1.1 0 0 0-.06.09V9.6l.54.9-.4-.81L4.1 8.64V4a.9.9 0 1 1 1.8 0v4.64l2.2 1.1V7.1a.9.9 0 1 1 1.8 0v2.66l2.24-1.07a.1.1 0 0 0 .06-.09v-6l-.54-.9.4.81L9.9 3.56V5.1a.9.9 0 0 1-1.8 0V3.56L5 2 1.86 3.53z"/></defs></svg>