<svg xmlns="http://www.w3.org/2000/svg" xmlns:xlink="http://www.w3.org/1999/xlink" width="24" height="24" viewBox="0 0 24 24"><g><g><use xlink:href="#path0"/></g></g><defs><path fill-rule="evenodd" d="M3.492 9.458l.732-.769C4.508 8.391 7 5.711 7 3.5a3.5 3.5 0 0 0-7 0c0 2.152 2.485 4.878 2.769 5.182l.723.776zM2 3.5a1.5 1.5 0 1 1 3 0 1.5 1.5 0 0 1-3 0zm9 6A5.507 5.507 0 0 1 16.5 4 5.507 5.507 0 0 1 22 9.5c0 3.669-4.287 8.276-4.775 8.789l-.732.769-.724-.776C15.28 17.759 11 13.066 11 9.5zm5.5 2.7a2.7 2.7 0 1 1 0-5.4 2.7 2.7 0 0 1 0 5.4zM4.232 20.146a3 3 0 0 1 .651-3.267l2.172-2.172A1 1 0 0 0 6.347 13H3a1 1 0 0 1 0-2h3.347a3 3 0 0 1 2.125 5.121L6.3 18.293A1 1 0 0 0 7 20h11a1 1 0 0 1 0 2H7a3 3 0 0 1-2.768-1.854z"/></defs></svg>