<svg xmlns="http://www.w3.org/2000/svg" xmlns:xlink="http://www.w3.org/1999/xlink" width="24" height="24" viewBox="0 0 24 24"><g><g><use xlink:href="#path0"/></g></g><defs><path fill-rule="evenodd" d="M3.945 17.126a2.976 2.976 0 0 1-2.7-.413A2.97 2.97 0 0 1 0 14.279V4.495a3 3 0 0 1 2.051-2.841L7 0l6 2L16.051.983A3 3 0 0 1 20 3.829v9.784a3 3 0 0 1-2.05 2.841L13 18.108l-6-2-3.055 1.018zM2.684 3.546A1 1 0 0 0 2 4.495v9.784a1 1 0 0 0 1.316.949L6 14.333V5.054a1 1 0 0 1 2 0v9.279l4 1.333v-5.612a1 1 0 0 1 2 0v5.613l3.316-1.105a1 1 0 0 0 .684-.949V3.829a1 1 0 0 0-1.316-.949L14 3.775v3.279a1 1 0 1 1-2 0V3.775L7 2.108 2.684 3.546z"/></defs></svg>