<svg xmlns="http://www.w3.org/2000/svg" xmlns:xlink="http://www.w3.org/1999/xlink" width="24" height="24" viewBox="0 0 24 24"><g><g><use xlink:href="#path0"/></g></g><defs><path fill-rule="evenodd" d="M19 0H3a3 3 0 0 0-3 3v4a1 1 0 0 0 2 0V3a1 1 0 0 1 1-1h16a1 1 0 0 1 1 1v4a1 1 0 0 0 2 0V3a3 3 0 0 0-3-3zM6 7a1 1 0 0 0 1 1h.294l.024.24a2.171 2.171 0 0 0 2.031 1.975c.029 0 .057.002.085.003l.084.003a2.165 2.165 0 0 0 2.123-1.667l.659-2.623a.18.18 0 0 1 .208-.151.173.173 0 0 1 .186.179L13 9.1a1.005 1.005 0 0 0 2-.2l-.09-.9H15a1 1 0 0 0 0-2h-.294l-.024-.24a2.2 2.2 0 0 0-4.323-.314l-.66 2.623v.002c-.015.057-.04.152-.208.149a.173.173 0 0 1-.185-.179L9 4.9a1.005 1.005 0 1 0-2 .2l.09.9H7a1 1 0 0 0-1 1zM3 4a1 1 0 0 1 2 0v11h12V4a1 1 0 0 1 2 0v11a2 2 0 0 1-2 2H5a2 2 0 0 1-2-2V4z"/></defs></svg>