<svg xmlns="http://www.w3.org/2000/svg" xmlns:xlink="http://www.w3.org/1999/xlink" width="16" height="16" viewBox="0 0 16 16"><g><g><use xlink:href="#path0"/><use xlink:href="#path1"/><use xlink:href="#path2"/><use xlink:href="#path3"/></g></g><defs><path d="M1.8 5.1V1.9a.1.1 0 0 1 .1-.1h12.2a.1.1 0 0 1 .1.1v3.2a.9.9 0 1 0 1.8 0V1.9A1.9 1.9 0 0 0 14.1 0H1.9A1.9 1.9 0 0 0 0 1.9v3.2a.9.9 0 1 0 1.8 0z"/><path d="M.9 0a.9.9 0 0 0-.9.9V9h10V.9a.9.9 0 1 0-1.8 0v6.3H1.8V.9A.9.9 0 0 0 .9 0z"/><path d="M3.1 0a.9.9 0 0 0-.9.9c0 .22-.4.22-.4 0A.9.9 0 1 0 0 .9a2 2 0 1 0 4 0 .9.9 0 0 0-.9-.9z"/><path d="M.9 0a.9.9 0 0 0 0 1.8h2a.9.9 0 1 0 0-1.8h-2z"/></defs></svg>