<svg xmlns="http://www.w3.org/2000/svg" xmlns:xlink="http://www.w3.org/1999/xlink" width="24" height="24" viewBox="0 0 24 24"><g><g><use xlink:href="#path0"/></g></g><defs><path fill-rule="evenodd" d="M17 20H3a3 3 0 0 1-3-3V8a2 2 0 0 1 2-2h2V2a2 2 0 0 1 2-2h12a2 2 0 0 1 2 2v15a3 3 0 0 1-3 3zM12 9V3H7v8h5V9zm2 2h2a1 1 0 0 0 0-2h-2a1 1 0 0 0 0 2zm3 2a1 1 0 0 1-1 1H8a1 1 0 0 1 0-2h8a1 1 0 0 1 1 1zm-1 4a1 1 0 0 0 0-2H8a1 1 0 0 0 0 2h8zm0-12h-2a1 1 0 0 1 0-2h2a1 1 0 0 1 0 2zm-2 3h2a1 1 0 0 0 0-2h-2a1 1 0 0 0 0 2zM6 2h12v15a1 1 0 0 1-1 1H5.816c.118-.32.18-.659.184-1V2zM4 8H2v9a1 1 0 0 0 2 0V8z"/></defs></svg>