<svg xmlns="http://www.w3.org/2000/svg" xmlns:xlink="http://www.w3.org/1999/xlink" width="16" height="16" viewBox="0 0 16 16"><g><g><use xlink:href="#path0"/><use xlink:href="#path0"/><use xlink:href="#path0"/><use xlink:href="#path1"/></g></g><defs><path d="M1 2h4a1 1 0 0 0 0-2H1a1 1 0 1 0 0 2z"/><path fill-rule="evenodd" d="M2.4 14h9.2a2.4 2.4 0 0 0 2.4-2V1.9A1.9 1.9 0 0 0 12.1 0H4.9A1.9 1.9 0 0 0 3 1.9V4H0v7.6A2.4 2.4 0 0 0 2.4 14zM4.8 1.9a.1.1 0 0 1 .1-.1h7.2a.1.1 0 0 1 .1.1v9.7a.6.6 0 0 1-.6.6H4.71V1.9h.09zM3 5.8H1.8v5.8a.6.6 0 1 0 1.2 0V5.8z"/></defs></svg>