<svg xmlns="http://www.w3.org/2000/svg" xmlns:xlink="http://www.w3.org/1999/xlink" width="24" height="24" viewBox="0 0 24 24"><g><g><use xlink:href="#path0"/></g></g><defs><path fill-rule="evenodd" d="M18.789 13.694a3.106 3.106 0 0 1 1.552 2.272c.13.85-.15 1.71-.755 2.32a8.176 8.176 0 0 1-5.628 2.016c-2.69 0-5.989-1.1-9.337-4.45A15.361 15.361 0 0 1 .2 7.784 7.85 7.85 0 0 1 2 .79 2.73 2.73 0 0 1 4.314.028a3.1 3.1 0 0 1 2.268 1.525l1.849 3.234a3 3 0 0 1-.534 3.66L6.656 9.631c-.225.225-.308.394-.308.465.004.266.658.877 1.14 1.326l.006.006c.235.218.48.448.725.693.229.229.443.459.649.678l.044.047.03.032c.446.478 1.042 1.114 1.302 1.114.09.007.24-.083.482-.325l1.179-1.237a3 3 0 0 1 3.632-.549l3.252 1.813zm-12.753.741c6.048 6.046 11.112 3.455 12.137 2.431l-.004.003a.72.72 0 0 0 .193-.626 1.107 1.107 0 0 0-.545-.8l-3.252-1.813a1 1 0 0 0-1.21.183l-1.2 1.254a2.8 2.8 0 0 1-1.947.927c-1.114-.02-1.912-.875-2.758-1.78l-.001-.002-.044-.047c-.19-.204-.39-.416-.601-.628a21.646 21.646 0 0 0-.675-.645c-.907-.846-1.762-1.645-1.782-2.759a2.64 2.64 0 0 1 .911-1.93l1.257-1.2a1 1 0 0 0 .179-1.225L4.848 2.545a1.1 1.1 0 0 0-.925-.543.7.7 0 0 0-.51.2A5.9 5.9 0 0 0 2.17 7.448a13.365 13.365 0 0 0 3.867 6.987z"/></defs></svg>