<svg xmlns="http://www.w3.org/2000/svg" xmlns:xlink="http://www.w3.org/1999/xlink" width="16" height="16" viewBox="0 0 16 16"><g><g><use xlink:href="#path0"/></g></g><defs><path fill-rule="evenodd" d="M12.8 13.303a3.38 3.38 0 0 1-2.4 1h-.03A10.39 10.39 0 0 1 0 3.893a3.41 3.41 0 0 1 1-2.39c.064-.056.145-.13.238-.214.271-.245.647-.586 1.012-.876a1.9 1.9 0 0 1 2.83.54l1.52 2.59a1.9 1.9 0 0 1-.34 2.32l-1 .92a.56.56 0 0 0-.13.16l.66.63.48.46.45.51c.204.239.432.457.68.65l.13-.12.92-1a1.9 1.9 0 0 1 2.3-.35l2.6 1.45a1.9 1.9 0 0 1 .57 2.83c-.39.5-.89 1.07-1.12 1.3zM2.27 2.763a1.58 1.58 0 0 0-.47 1.2 8.59 8.59 0 0 0 8.56 8.52c.43 0 .843-.168 1.15-.47.19-.13.64-.66 1-1.13v-.15l-2.6-1.45a.1.1 0 0 0-.12 0l-.93 1a2.05 2.05 0 0 1-1.45.68 2.93 2.93 0 0 1-2-1.23L5 9.303l-.44-.41a2.93 2.93 0 0 1-1.23-2 2 2 0 0 1 .67-1.4l1-.94a.1.1 0 0 0 0-.12l-1.48-2.54-.71-.78.56.65c-.46.41-.94.84-1.1 1z"/></defs></svg>