<svg xmlns="http://www.w3.org/2000/svg" xmlns:xlink="http://www.w3.org/1999/xlink" width="16" height="16" viewBox="0 0 16 16"><g><g><use xlink:href="#path0"/><use xlink:href="#path1"/></g></g><defs><path fill-rule="evenodd" d="M12.1 0H1.9A1.9 1.9 0 0 0 0 1.9v4.2A1.9 1.9 0 0 0 1.9 8H3v3h8V8h1.1A1.9 1.9 0 0 0 14 6.1V1.9A1.9 1.9 0 0 0 12.1 0zM4.8 9.2V4.8h4.4v4.4H4.8zm7.3-3a.1.1 0 0 0 .1-.1V1.9a.1.1 0 0 0-.1-.1H1.9a.1.1 0 0 0-.1.1v4.2a.1.1 0 0 0 .1.1H3V4.8A.9.9 0 0 1 3 3h8a.9.9 0 1 1 0 1.8v1.4h1.1z"/><path d="M.9 1.8h6a.9.9 0 1 0 0-1.8h-6a.9.9 0 0 0 0 1.8z"/></defs></svg>