<svg xmlns="http://www.w3.org/2000/svg" xmlns:xlink="http://www.w3.org/1999/xlink" width="16" height="16" viewBox="0 0 16 16"><g><g><use xlink:href="#path0"/><use xlink:href="#path1"/></g></g><defs><path fill-rule="evenodd" d="M8 0a8 8 0 1 0 0 16A8 8 0 0 0 8 0zM4.8 13.3a8.12 8.12 0 0 1 3.2-.6 8.12 8.12 0 0 1 3.2.6 6.14 6.14 0 0 1-6.4 0zM8 10.9a9.39 9.39 0 0 1 4.7 1.13 6.2 6.2 0 1 0-9.4 0A9.389 9.389 0 0 1 8 10.9z"/><path fill-rule="evenodd" d="M0 3.5a3.5 3.5 0 1 1 7 0 3.5 3.5 0 0 1-7 0zm1.8 0a1.7 1.7 0 1 0 3.4 0 1.7 1.7 0 0 0-3.4 0z"/></defs></svg>