<svg xmlns="http://www.w3.org/2000/svg" xmlns:xlink="http://www.w3.org/1999/xlink" width="24" height="24" viewBox="0 0 24 24"><g><g><use xlink:href="#path0"/></g></g><defs><path fill-rule="evenodd" d="M16.153 6a6 6 0 0 1-6 6 6.007 6.007 0 0 1-6-6 6 6 0 1 1 12 0zm-2 0a4 4 0 1 0-8 0 4 4 0 0 0 8 0zM2.013 20h16.34a1.99 1.99 0 0 0 1.824-1.169 1.965 1.965 0 0 0-.292-2.12c-1.446-1.693-4.3-3.71-9.667-3.71-5.308 0-8.21 2-9.711 3.678a1.961 1.961 0 0 0-.329 2.132A1.986 1.986 0 0 0 2.013 20zm16.35-2c-1.169-1.363-3.535-3-8.143-3h-.001c-4.566 0-6.991 1.637-8.22 3.011L18.353 18h.01z"/></defs></svg>