<svg xmlns="http://www.w3.org/2000/svg" xmlns:xlink="http://www.w3.org/1999/xlink" width="16" height="16" viewBox="0 0 16 16"><g><g><use xlink:href="#path0"/><use xlink:href="#path1"/></g></g><defs><path fill-rule="evenodd" d="M8 4a4 4 0 1 1-8 0 4 4 0 0 1 8 0zM6.2 4a2.2 2.2 0 1 0-4.4 0 2.2 2.2 0 0 0 4.4 0z"/><path fill-rule="evenodd" d="M12.953 5H1.423a1.4 1.4 0 0 1-1.23-.76 1.38 1.38 0 0 1 .02-1.44C.963 1.75 2.733 0 7.083 0s6.25 1.79 7 2.79A1.4 1.4 0 0 1 12.953 5zm-.91-1.8a7.32 7.32 0 0 0-4.9-1.4 7.11 7.11 0 0 0-4.81 1.4h9.71z"/></defs></svg>