<svg xmlns="http://www.w3.org/2000/svg" xmlns:xlink="http://www.w3.org/1999/xlink" width="16" height="16" viewBox="0 0 16 16"><g><g><use xlink:href="#path0"/></g></g><defs><path fill-rule="evenodd" d="M5.76 6.906a2.5 2.5 0 0 1-4.256 1.78C-.448 7.102-.577 2.824 1.574.314a.9.9 0 1 1 1.367 1.172c-.817.952-1.158 2.248-1.145 3.393A2.5 2.5 0 0 1 5.76 6.906zm4.5 2.5a2.495 2.495 0 0 1-1.756-.72c-1.952-1.584-2.081-5.862.07-8.372a.9.9 0 1 1 1.367 1.172c-.817.952-1.158 2.248-1.145 3.393a2.5 2.5 0 1 1 1.464 4.527z"/></defs></svg>