<svg xmlns="http://www.w3.org/2000/svg" xmlns:xlink="http://www.w3.org/1999/xlink" width="16" height="16" viewBox="0 0 16 16"><g><g><use xlink:href="#path0"/><use xlink:href="#path1"/></g></g><defs><path d="M0 7.805a5.85 5.85 0 0 0 .49 2.36.9.9 0 0 0 1.65-.72 4.1 4.1 0 0 1 3.76-5.74h1l-.56.56a.912.912 0 0 0 1.3 1.28l2.63-2.64L7.64.265a.905.905 0 1 0-1.28 1.28l.37.36H5.9a5.91 5.91 0 0 0-5.9 5.9z"/><path d="M10.27 2.89A5.86 5.86 0 0 0 9.78.54a.9.9 0 1 0-1.65.72 4.11 4.11 0 0 1-3.76 5.73h-1l.56-.56a.9.9 0 0 0-1.27-1.27L0 7.79l.73.73 1.9 1.9A.9.9 0 0 0 3.9 9.15l-.36-.36h.83a5.91 5.91 0 0 0 5.9-5.9z"/></defs></svg>