<svg xmlns="http://www.w3.org/2000/svg" xmlns:xlink="http://www.w3.org/1999/xlink" width="24" height="24" viewBox="0 0 24 24"><g><g><use xlink:href="#path0"/></g></g><defs><path fill-rule="evenodd" d="M9.586 5.988H8a6.007 6.007 0 0 0-6 6 5.946 5.946 0 0 0 .5 2.4 1 1 0 1 1-1.832.8A8 8 0 0 1 8 3.988h1.586L7.293 1.695A1 1 0 0 1 8.707.28l4.707 4.707-4.707 4.707A1 1 0 1 1 7.293 8.28l2.293-2.293zm5.752 2.808A8.009 8.009 0 0 1 8 19.988H6.414l2.292 2.292a1 1 0 0 1-1.414 1.414l-4-4-.706-.706.707-.707 4-4a1 1 0 0 1 1.414 1.414l-2.293 2.293H8a6.005 6.005 0 0 0 5.504-8.392 1 1 0 0 1 1.834-.8z"/></defs></svg>