<svg xmlns="http://www.w3.org/2000/svg" xmlns:xlink="http://www.w3.org/1999/xlink" width="16" height="16" viewBox="0 0 16 16"><g><g><use xlink:href="#path0"/><use xlink:href="#path1"/></g></g><defs><path fill-rule="evenodd" d="M12 4.94h2.1c1.05 0 1.9.85 1.9 1.9v7.1H0v-7.1c0-1.05.85-1.9 1.9-1.9H4V1.16L8 0l4 1.16v3.78zM1.8 6.84v5.3H4v-5.4H1.9a.1.1 0 0 0-.1.1zm7.1 5.3V8.57a.9.9 0 0 0-1.8 0v3.57H5.8V2.52L8 1.88l2.2.64v9.62H8.9zm3.1 0h2.2V6.83a.1.1 0 0 0-.1-.1H12v5.41z"/><path d="M1 2a1 1 0 1 0 0-2 1 1 0 0 0 0 2z"/></defs></svg>