<svg xmlns="http://www.w3.org/2000/svg" xmlns:xlink="http://www.w3.org/1999/xlink" width="24" height="24" viewBox="0 0 24 24"><g><g><use xlink:href="#path0"/><use xlink:href="#path1"/></g></g><defs><path fill-rule="evenodd" d="M19 7.97h-2V2.281L11 0 5 2.281V7.97H3a3 3 0 0 0-3 3v11h22v-11a3 3 0 0 0-3-3zm-17 12v-9a1 1 0 0 1 1-1h2v10H2zm8-5v5h2v-5a1 1 0 0 0-2 0zm4 5v-5a3 3 0 0 0-6 0v5H7V3.659l4-1.521 4 1.521V19.97h-1zm3 0h3v-9a1 1 0 0 0-1-1h-2v10z"/><path d="M1.95 3.9a1.95 1.95 0 1 0 0-3.9 1.95 1.95 0 0 0 0 3.9z"/></defs></svg>