<svg xmlns="http://www.w3.org/2000/svg" xmlns:xlink="http://www.w3.org/1999/xlink" width="24" height="24" viewBox="0 0 24 24"><g><g><use xlink:href="#path0"/></g></g><defs><path fill-rule="evenodd" d="M2.203 12.523l5.053-2.446-5.047-2.452a4.03 4.03 0 1 1 4.059-.243l3.289 1.584c4.392-2.122 8.44-4.093 9.57-4.643l.312-.151a1 1 0 1 1 .876 1.8c-.088.045-7.571 3.692-14.04 6.8a4 4 0 1 1-4.072-.25zm10.715-.894a1.003 1.003 0 0 1 1.343-.457l6.062 3.007a1 1 0 0 1-.888 1.793l-6.06-3a1.003 1.003 0 0 1-.457-1.343zM4.017 2.072a2 2 0 1 1-2.016 2 2.01 2.01 0 0 1 2.016-2zm-1.984 13.99a2 2 0 0 0 1.984 2.01 2.01 2.01 0 0 0 2.016-2 2 2 0 0 0-4-.01z"/></defs></svg>