<svg xmlns="http://www.w3.org/2000/svg" xmlns:xlink="http://www.w3.org/1999/xlink" width="16" height="16" viewBox="0 0 16 16"><g><g><use xlink:href="#path0"/><use xlink:href="#path1"/></g></g><defs><path fill-rule="evenodd" d="M13.781 2.575a.9.9 0 0 0-1.17-.5l-7.04 2.83-.39-.18a2.871 2.871 0 0 0 .66-1.82 2.9 2.9 0 1 0-3.51 2.83l.55.22-.17.07a2.91 2.91 0 1 0 2.4 1l.28-.12h.05a1 1 0 0 0 .73-.32l7.11-2.84a.9.9 0 0 0 .5-1.17zm-10.84-.77a1.1 1.1 0 0 1 1.1 1.1 1.09 1.09 0 0 1-.81 1l-.42-.13a1.001 1.001 0 0 0-.56 0 1.08 1.08 0 0 1-.41-.87 1.1 1.1 0 0 1 1.1-1.1zm0 8.2a1.1 1.1 0 0 0 1.1-1.1 1.09 1.09 0 0 0-.99-1.11l-.28.11a.9.9 0 0 1-.33.09h-.08a1.08 1.08 0 0 0-.52.91 1.1 1.1 0 0 0 1.1 1.1z"/><path d="M4.213 1.256l-3-1.2a.9.9 0 0 0-.67 1.67l3 1.2a.9.9 0 0 0 .67-1.67z"/></defs></svg>