<svg xmlns="http://www.w3.org/2000/svg" xmlns:xlink="http://www.w3.org/1999/xlink" width="24" height="24" viewBox="0 0 24 24"><g><g><use xlink:href="#path0"/></g></g><defs><path fill-rule="evenodd" d="M13.586 1.69a8.5 8.5 0 0 1 2.384 10.866l5.736 5.736a2.46 2.46 0 0 1 .128 3.554 2.381 2.381 0 0 1-1.675.688 2.622 2.622 0 0 1-1.867-.828l-5.736-5.736a8.5 8.5 0 1 1 1.03-14.28zm-3.294 3.602a1 1 0 0 1 1.414 1.414L9.913 8.499l1.793 1.793a1 1 0 0 1-1.414 1.414L8.499 9.913l-1.793 1.793a1 1 0 1 1-1.414-1.414l1.793-1.793-1.793-1.793a1 1 0 0 1 1.414-1.414l1.793 1.793 1.793-1.793zM1.999 8.499a6.5 6.5 0 1 1 6.5 6.5 6.507 6.507 0 0 1-6.5-6.5zm17.707 11.793c.273.272.532.321.714.14a.374.374 0 0 0 .113-.268.714.714 0 0 0-.24-.458l-5.5-5.5c-.187.205-.382.4-.587.586l5.5 5.5z"/></defs></svg>