<svg xmlns="http://www.w3.org/2000/svg" xmlns:xlink="http://www.w3.org/1999/xlink" width="24" height="24" viewBox="0 0 24 24"><g><g><use xlink:href="#path0"/></g></g><defs><path fill-rule="evenodd" d="M12.556 15.971a8.5 8.5 0 1 1 3.414-3.414l5.736 5.736a2.462 2.462 0 0 1 .128 3.554 2.381 2.381 0 0 1-1.675.688 2.622 2.622 0 0 1-1.867-.828l-5.736-5.736zm.423-9.86a1 1 0 0 1-.273.972L7 12.791 3.792 9.583A1 1 0 0 1 5.206 8.17L7 9.962l4.293-4.293a1 1 0 0 1 1.687.442zm7.313 13.596c.135.117.22.28.241.458 0 .1-.04.197-.113.267-.182.181-.441.132-.714-.14l-5.5-5.5c.205-.186.4-.381.586-.586l5.5 5.501zM15 8.5a6.5 6.5 0 0 0-6.5-6.5 6.507 6.507 0 0 0-6.5 6.5 6.5 6.5 0 1 0 13 0z"/></defs></svg>