<svg xmlns="http://www.w3.org/2000/svg" xmlns:xlink="http://www.w3.org/1999/xlink" width="16" height="16" viewBox="0 0 16 16"><g><g><use xlink:href="#path0"/><use xlink:href="#path1"/></g></g><defs><path fill-rule="evenodd" d="M9.56 10.83a6 6 0 1 1 1.27-1.27l3.81 3.81a.9.9 0 0 1-1.27 1.27l-3.81-3.81zM10.21 6a4.2 4.2 0 1 0-8.4 0 4.2 4.2 0 0 0 8.4 0z"/><path d="M.236 4.376a.8.8 0 0 0 1.13 0l.94-.94.93.94a.806.806 0 0 0 1.14-1.14l-.94-.93.93-.93a.803.803 0 0 0-1.13-1.14l-.93.94-.93-.94a.806.806 0 1 0-1.14 1.14l.94.93-.93.93a.8.8 0 0 0-.01 1.14z"/></defs></svg>