<svg xmlns="http://www.w3.org/2000/svg" xmlns:xlink="http://www.w3.org/1999/xlink" width="24" height="24" viewBox="0 0 24 24"><g><g><use xlink:href="#path0"/></g></g><defs><path fill-rule="evenodd" d="M8.499 17a8.46 8.46 0 0 0 4.057-1.029l5.736 5.736a2.623 2.623 0 0 0 1.867.828 2.38 2.38 0 0 0 1.675-.688 2.46 2.46 0 0 0-.128-3.554l-5.736-5.736A8.5 8.5 0 1 0 8.5 17zm11.793 2.707a.72.72 0 0 1 .242.458.38.38 0 0 1-.114.267c-.183.182-.443.132-.714-.14l-5.5-5.5c.205-.186.4-.381.586-.586l5.5 5.501zM15 8.5a6.5 6.5 0 0 0-6.5-6.5 6.507 6.507 0 0 0-6.5 6.5 6.5 6.5 0 1 0 13 0z"/></defs></svg>