<svg xmlns="http://www.w3.org/2000/svg" xmlns:xlink="http://www.w3.org/1999/xlink" width="24" height="24" viewBox="0 0 24 24"><g><g><use xlink:href="#path0"/></g></g><defs><path fill-rule="evenodd" d="M1.393 5.642a2 2 0 0 0-.077 3.785l7.8 2.838 2.837 7.8a1.974 1.974 0 0 0 1.882 1.32h.044a1.975 1.975 0 0 0 1.864-1.395l5.524-17.36a1.992 1.992 0 0 0-.492-2.02A2.106 2.106 0 0 0 18.7.084L1.393 5.642zm15.893-2.957l-7.643 7.643L2 7.548l15.286-4.863zm-6.228 9.056l2.779 7.644L18.7 4.097l-7.642 7.644z"/></defs></svg>