<svg xmlns="http://www.w3.org/2000/svg" xmlns:xlink="http://www.w3.org/1999/xlink" width="16" height="16" viewBox="0 0 16 16"><g><g><use xlink:href="#path0"/></g></g><defs><path fill-rule="evenodd" d="M13.534.789a.88.88 0 0 0-.05-.26v-.08a.8.8 0 0 0-.44-.44h-.08a.889.889 0 0 0-.25 0 .889.889 0 0 0-.25 0L.995 3.429a1.4 1.4 0 0 0 0 2.68l4.9 1.4 1.4 4.9a1.39 1.39 0 0 0 1.33 1h.02a1.39 1.39 0 0 0 1.34-1l3.5-11.39a.906.906 0 0 0 0-.26l.05.03zm-4.09 2l-3.06 3-3.58-1 6.64-2zm-1.8 4.26l1 3.58 2.07-6.64-3.07 3.06z"/></defs></svg>