<svg xmlns="http://www.w3.org/2000/svg" xmlns:xlink="http://www.w3.org/1999/xlink" width="24" height="24" viewBox="0 0 24 24"><g><g><use xlink:href="#path0"/></g></g><defs><path fill-rule="evenodd" d="M20.864 8.936l-2.32-.58a8.032 8.032 0 0 0-.338-.82l1.231-2.052a1.5 1.5 0 0 0-.228-1.831l-.862-.861a1.493 1.493 0 0 0-1.832-.226l-2.05 1.229a7.993 7.993 0 0 0-.82-.339l-.58-2.319A1.5 1.5 0 0 0 11.609 0h-1.218a1.5 1.5 0 0 0-1.456 1.137l-.58 2.319c-.28.098-.553.211-.82.339l-2.05-1.23a1.494 1.494 0 0 0-1.833.226l-.861.862a1.5 1.5 0 0 0-.226 1.832L3.8 7.535c-.128.267-.242.54-.339.82l-2.32.58A1.5 1.5 0 0 0 0 10.391v1.219a1.5 1.5 0 0 0 1.136 1.455l2.32.58c.097.28.21.553.339.82l-1.229 2.049a1.5 1.5 0 0 0 .225 1.833l.862.862a1.5 1.5 0 0 0 1.832.226l2.05-1.229c.267.128.54.24.82.339l.58 2.319A1.5 1.5 0 0 0 10.391 22h1.219a1.5 1.5 0 0 0 1.456-1.137l.58-2.319c.28-.098.553-.211.82-.339l2.049 1.229a1.5 1.5 0 0 0 1.833-.226l.862-.862a1.5 1.5 0 0 0 .226-1.832l-1.23-2.05c.128-.267.242-.54.339-.82l2.32-.58A1.5 1.5 0 0 0 22 11.609v-1.218a1.5 1.5 0 0 0-1.136-1.455zM7 11a4 4 0 1 1 8 0 4 4 0 0 1-8 0zm2 0a2 2 0 1 0 4 0 2 2 0 0 0-4 0zm8.785.773L20 11.219v-.438l-2.215-.558a1.484 1.484 0 0 1-1.062-1.01 5.995 5.995 0 0 0-.415-1 1.483 1.483 0 0 1 .037-1.465l1.172-1.956-.31-.31-1.959 1.174a1.477 1.477 0 0 1-1.465.036 5.96 5.96 0 0 0-1-.413 1.49 1.49 0 0 1-1.01-1.061L11.219 2h-.438l-.558 2.216a1.49 1.49 0 0 1-1.01 1.062c-.345.107-.68.246-1 .414a1.487 1.487 0 0 1-1.466-.038L4.791 4.481l-.31.31 1.174 1.96c.27.448.283 1.004.037 1.465-.168.32-.306.655-.414 1-.152.5-.555.885-1.063 1.012L2 10.782v.437l2.215.558c.507.126.91.51 1.062 1.01.108.345.247.68.415 1 .246.46.232 1.016-.036 1.464l-1.175 1.958.31.31 1.96-1.175a1.477 1.477 0 0 1 1.466-.036c.32.167.655.306 1 .413.5.152.883.555 1.01 1.061L10.781 20h.438l.558-2.216a1.49 1.49 0 0 1 1.01-1.063c.345-.107.68-.245 1-.414a1.479 1.479 0 0 1 1.465.037l1.957 1.174.31-.31-1.174-1.957a1.486 1.486 0 0 1-.037-1.465c.168-.32.306-.655.414-1a1.487 1.487 0 0 1 1.063-1.013z"/></defs></svg>