<svg xmlns="http://www.w3.org/2000/svg" xmlns:xlink="http://www.w3.org/1999/xlink" width="16" height="16" viewBox="0 0 16 16"><g><g><use xlink:href="#path0"/><use xlink:href="#path1"/></g></g><defs><path fill-rule="evenodd" d="M12.59 2.69l-1.21 2.16c.089.188.166.382.23.58L14 6.1v1.8l-2.38.68a4.84 4.84 0 0 1-.24.58l1.21 2.16-1.27 1.27-2.16-1.21a4.813 4.813 0 0 1-.58.24L7.91 14h-1.8l-.68-2.39a4.842 4.842 0 0 1-.59-.24l-2.15 1.21-1.27-1.27 1.2-2.15a4.844 4.844 0 0 1-.24-.59L0 7.9V6.1l2.38-.67c.067-.202.147-.399.24-.59l-1.2-2.15 1.27-1.28 2.15 1.21c.191-.093.388-.173.59-.24L6.11 0h1.8l.67 2.38c.198.067.392.148.58.24l2.16-1.21 1.27 1.28zM7 10.1a3.1 3.1 0 1 0 0-6.2 3.1 3.1 0 0 0 0 6.2z"/><path d="M1.5 3a1.5 1.5 0 1 0 0-3 1.5 1.5 0 0 0 0 3z"/></defs></svg>