<svg xmlns="http://www.w3.org/2000/svg" xmlns:xlink="http://www.w3.org/1999/xlink" width="24" height="24" viewBox="0 0 24 24"><g><g><use xlink:href="#path0"/></g></g><defs><path fill-rule="evenodd" d="M9 20c-.087 0-.174-.012-.259-.035C8.384 19.87 0 17.545 0 11V4a1 1 0 0 1 .652-.937l8-3c.226-.083.474-.083.7 0l8 3A1 1 0 0 1 18 4v7c0 6.781-8.407 8.886-8.766 8.972A1.003 1.003 0 0 1 9 20zM8 6.47L2 8.845v1.85l6-2.376V6.47zm0 11.125a14.14 14.14 0 0 1-3.289-1.823L8 14.47v3.125zm0-5.276v-1.848l-5.689 2.251c.202.546.486 1.057.842 1.516L8 12.32zM16 11c0 3.86-3.935 5.846-6 6.625V2.442l6 2.25V11zM8 4.32V2.442L2 4.694v2L8 4.32z"/></defs></svg>