<svg xmlns="http://www.w3.org/2000/svg" xmlns:xlink="http://www.w3.org/1999/xlink" width="16" height="16" viewBox="0 0 16 16"><g><g><use xlink:href="#path0"/></g></g><defs><path fill-rule="evenodd" d="M5.81 12.965h.37c2-.4 5.82-2.17 5.82-6v-4.06a.9.9 0 0 0-.57-.84l-5.1-2a.9.9 0 0 0-.67 0l-5.1 2a.9.9 0 0 0-.56.84v4.06c0 4.475 5.16 5.829 5.761 5.987l.05.013zm-4-6v-.39l3.29-1.29v1.07l-3.23 1.26a3.287 3.287 0 0 1-.07-.65h.01zm3.3 1.31l-2.41.95h-.01a6.48 6.48 0 0 0 2.42 1.59v-2.54zm5.09-1.31c0 2.27-2 3.39-3.3 3.88v-8.65l3.3 1.32v3.45zm-5.1-3.61v-1.16l-3.3 1.32v1.13l3.3-1.29z"/></defs></svg>