<svg xmlns="http://www.w3.org/2000/svg" xmlns:xlink="http://www.w3.org/1999/xlink" width="24" height="24" viewBox="0 0 24 24"><g><g><use xlink:href="#path0"/></g></g><defs><path fill-rule="evenodd" d="M1 19V9.618A3.966 3.966 0 0 1 0 7V1a1 1 0 0 1 1-1h18a1 1 0 0 1 1 1v6a3.966 3.966 0 0 1-1 2.618V19H1zm2-2h4V9.643a3.9 3.9 0 0 1-4 1.215V17zm7-8a2 2 0 0 1-2-2h4a2 2 0 0 1-2 2zm-1 1.862V17h8v-6.142a3.9 3.9 0 0 1-4-1.215 3.917 3.917 0 0 1-4 1.219zM16 9a2 2 0 0 1-2-2h4a2 2 0 0 1-2 2zm2-7H2v3h16V2zM6 7a2 2 0 1 1-4 0h4zm.5 6.5a1 1 0 1 1-2 0 1 1 0 0 1 2 0z"/></defs></svg>