<svg xmlns="http://www.w3.org/2000/svg" xmlns:xlink="http://www.w3.org/1999/xlink" width="16" height="16" viewBox="0 0 16 16"><g><g><use xlink:href="#path0"/><use xlink:href="#path1"/></g></g><defs><path fill-rule="evenodd" d="M8.1 13a2.9 2.9 0 0 0 2.9-2.9V3H8v-.5a2.5 2.5 0 0 0-5 0V3H0v7.1A2.9 2.9 0 0 0 2.9 13h5.2zM4.8 2.5a.7.7 0 0 1 1.4 0V3H4.8v-.5zM3 4.8H1.8v5.3a1.1 1.1 0 0 0 1.1 1.1h5.2a1.1 1.1 0 0 0 1.1-1.1V4.8H8v2.3a.9.9 0 1 1-1.8 0V4.8H4.8v2.3a.9.9 0 1 1-1.8 0V4.8z"/><path d="M2.9 10.9H9a.9.9 0 1 0 0-1.8H2.9A1.1 1.1 0 0 1 1.8 8V.9A.9.9 0 1 0 0 .9V8a2.9 2.9 0 0 0 2.9 2.9z"/></defs></svg>