<svg xmlns="http://www.w3.org/2000/svg" xmlns:xlink="http://www.w3.org/1999/xlink" width="24" height="24" viewBox="0 0 24 24"><g><g><use xlink:href="#path0"/></g></g><defs><path fill-rule="evenodd" d="M18 14.003a4 4 0 0 1-4 4H7a4 4 0 0 1-4-4v-9.9h3.041a4.475 4.475 0 0 1 8.919 0H18v9.9zm-5.04-9.9a2.5 2.5 0 0 0-2.46-2.1 2.5 2.5 0 0 0-2.46 2.1h4.92zm-7.96 2h1v2.9a1 1 0 0 0 2 0v-2.9h5v2.9a1 1 0 0 0 2 0v-2.9h1v7.9a2 2 0 0 1-2 2H7a2 2 0 0 1-2-2v-7.9zm8 13.9a1 1 0 0 1-1 1H4a4 4 0 0 1-4-4v-8.9a1 1 0 0 1 2 0v8.9a2 2 0 0 0 2 2h8a1 1 0 0 1 1 1z"/></defs></svg>