<svg xmlns="http://www.w3.org/2000/svg" xmlns:xlink="http://www.w3.org/1999/xlink" width="16" height="16" viewBox="0 0 16 16"><g><g><use xlink:href="#path0"/><use xlink:href="#path1"/></g></g><defs><path fill-rule="evenodd" d="M15 6.9A3.9 3.9 0 0 0 11.1 3H9V1.9A1.9 1.9 0 0 0 7.1 0H3.9A1.9 1.9 0 0 0 2 1.9v2.3a.792.792 0 0 0 0 .09A3.87 3.87 0 0 0 1 6.9V9H0v5h16V9h-1V6.9zM3.9 1.8h3.2a.1.1 0 0 1 .1.1V3H4.9a3.851 3.851 0 0 0-1.1.18V1.9a.1.1 0 0 1 .1-.1zm1 3a2.1 2.1 0 0 0-2.1 2.1V9h10.4V6.9a2.1 2.1 0 0 0-2.1-2.1H4.9zm-3.1 6h5.3v1.4H1.8v-1.4zm7.1 1.4h5.3v-1.4H8.9v1.4z"/><path d="M7 0H1a1 1 0 1 0 0 2h6a1 1 0 0 0 0-2z"/></defs></svg>