<svg xmlns="http://www.w3.org/2000/svg" xmlns:xlink="http://www.w3.org/1999/xlink" width="16" height="16" viewBox="0 0 16 16"><g><g><use xlink:href="#path0"/><use xlink:href="#path1"/></g></g><defs><path fill-rule="evenodd" d="M1 7.56V13h12V7.56a2.87 2.87 0 0 0 1-2.16V.9a.9.9 0 0 0-.9-.9H.9a.9.9 0 0 0-.9.9v4.5a2.87 2.87 0 0 0 1 2.16zm1.8.72h.13a2.94 2.94 0 0 0 2-.81c.348.326.77.563 1.23.69v3H2.8V8.28zM4.07 5H1.8v.4a1.135 1.135 0 1 0 2.27 0V5zm7 1.5a1.12 1.12 0 0 1-1.13-1.1V5h2.26v.4a1.12 1.12 0 0 1-1.13 1.1zm-4.075.035c.627 0 1.135-.508 1.135-1.135V5H5.86v.4c0 .627.508 1.135 1.135 1.135zM11.2 11.2H8V8.12c.373-.14.713-.354 1-.63a2.94 2.94 0 0 0 2 .81h.2v2.9zm1-8V1.8H1.8v1.4h10.4z"/><path d="M.5 1a.5.5 0 1 0 0-1 .5.5 0 0 0 0 1z"/></defs></svg>