<svg xmlns="http://www.w3.org/2000/svg" xmlns:xlink="http://www.w3.org/1999/xlink" width="16" height="16" viewBox="0 0 16 16"><g><g><use xlink:href="#path0"/></g></g><defs><path fill-rule="evenodd" d="M2.93 14h6.2A2.9 2.9 0 0 0 12 11.1V3H9v-.1A3 3 0 0 0 6 0a3 3 0 0 0-3 2.9V3H0v8.1A2.9 2.9 0 0 0 2.93 14zM4.8 2.9A1.15 1.15 0 0 1 6 1.8a1.15 1.15 0 0 1 1.2 1.1V3H4.8v-.1zM3 4.8H1.83v6.3a1.1 1.1 0 0 0 1.1 1.1h6.2a1.1 1.1 0 0 0 1.1-1.1V4.8H9v2.1a.9.9 0 1 1-1.8 0V4.8H4.8v2.1a.9.9 0 1 1-1.8 0V4.8z"/></defs></svg>