<svg xmlns="http://www.w3.org/2000/svg" xmlns:xlink="http://www.w3.org/1999/xlink" width="16" height="16" viewBox="0 0 16 16"><g><g><use xlink:href="#path0"/><use xlink:href="#path1"/></g></g><defs><path fill-rule="evenodd" d="M11 1.8H2.4a.7.7 0 0 0-.6.7.53.53 0 0 0 .6.5h8.7c1.05 0 1.9.85 1.9 1.9v5.2a1.9 1.9 0 0 1-1.9 1.9H2.4A2.4 2.4 0 0 1 0 9.6V2.5A2.48 2.48 0 0 1 2.4 0H11a.9.9 0 1 1 0 1.8zm.1 3H2.4a2.6 2.6 0 0 1-.6-.07V9.6a.6.6 0 0 0 .6.6h8.7a.1.1 0 0 0 .1-.1V4.9a.1.1 0 0 0-.1-.1z"/><path fill-rule="evenodd" d="M2.8 1.4a1.4 1.4 0 1 1-2.8 0 1.4 1.4 0 0 1 2.8 0zm-1 0a.4.4 0 1 0-.8 0 .4.4 0 0 0 .8 0z"/></defs></svg>