<svg xmlns="http://www.w3.org/2000/svg" xmlns:xlink="http://www.w3.org/1999/xlink" width="16" height="16" viewBox="0 0 16 16"><g><g><use xlink:href="#path0"/></g></g><defs><path fill-rule="evenodd" d="M12.347 0H.985A.974.974 0 0 0 0 .96v11.411c0 .531.442.962.985.962h11.362c.544 0 .986-.431.986-.962V.961c0-.53-.442-.961-.986-.961zM1.977 11.361h1.978V5H1.977v6.362zm.99-7.232a1.146 1.146 0 1 1-.001-2.293 1.146 1.146 0 0 1 0 2.293zm8.394 7.232H9.386V8.267c0-.738-.014-1.687-1.027-1.687-1.03 0-1.188.804-1.188 1.633v3.148H5.195V5h1.897v.869h.027c.264-.5.908-1.027 1.871-1.027 2.003 0 2.371 1.317 2.371 3.03v3.49z"/></defs></svg>