<svg xmlns="http://www.w3.org/2000/svg" xmlns:xlink="http://www.w3.org/1999/xlink" width="16" height="16" viewBox="0 0 16 16"><g><g><use xlink:href="#path0"/></g></g><defs><path fill-rule="evenodd" d="M14 1.402a5.812 5.812 0 0 1-1.623.44l-.014-.03a2.947 2.947 0 0 0 1.301-1.59c-.175.109-1.019.584-1.843.737A2.923 2.923 0 0 0 9.653 0C7.835 0 6.716 1.491 6.716 2.937c0 .112.053.578.063.605a7.786 7.786 0 0 1-6-3.03c-.998 1.818.047 3.394.764 3.956A3.054 3.054 0 0 1 .37 4.215 3.07 3.07 0 0 0 2.79 7.047c-.534.149-1.175.035-1.42-.029a3.071 3.071 0 0 0 2.757 2.087C2.157 10.553.035 10.405 0 10.404a8.177 8.177 0 0 0 4.269 1.178c5.719-.037 8.656-5.112 8.307-8.755A2.949 2.949 0 0 0 14 1.402z"/></defs></svg>