<svg xmlns="http://www.w3.org/2000/svg" xmlns:xlink="http://www.w3.org/1999/xlink" width="24" height="24" viewBox="0 0 24 24"><g><g><use xlink:href="#path0"/></g></g><defs><path fill-rule="evenodd" d="M11.36 4.57a1 1 0 1 0 1.28-1.536L9 0 5.36 3.034A1 1 0 1 0 6.64 4.57L8 3.437v6.865a1 1 0 0 0 2 0V3.437l1.36 1.133zM13 7.802h2a1 1 0 0 1 1 1v9.5a1 1 0 0 1-1 1H3a1 1 0 0 1-1-1v-9.5a1 1 0 0 1 1-1h2a1 1 0 0 0 0-2H3a3 3 0 0 0-3 3v9.5a3 3 0 0 0 3 3h12a3 3 0 0 0 3-3v-9.5a3 3 0 0 0-3-3h-2a1 1 0 0 0 0 2z"/></defs></svg>