<svg xmlns="http://www.w3.org/2000/svg" xmlns:xlink="http://www.w3.org/1999/xlink" width="24" height="24" viewBox="0 0 24 24"><g><g><use xlink:href="#path0"/></g></g><defs><path fill-rule="evenodd" d="M18.52 0H1.477C.663 0 0 .646 0 1.441v17.116c0 .796.663 1.442 1.477 1.442H18.52c.816 0 1.48-.646 1.48-1.442V1.441C20 .646 19.336 0 18.52 0zM2.966 17.042h2.966V7.498H2.966v9.544zM4.45 6.193a1.72 1.72 0 1 1-.001-3.439 1.72 1.72 0 0 1 .001 3.439zm12.592 10.849h-2.963V12.4c0-1.106-.021-2.53-1.541-2.53-1.544 0-1.782 1.206-1.782 2.45v4.722H7.793V7.498h2.845v1.304h.04c.396-.75 1.363-1.541 2.807-1.541 3.004 0 3.557 1.976 3.557 4.546v5.235z"/></defs></svg>