<svg xmlns="http://www.w3.org/2000/svg" xmlns:xlink="http://www.w3.org/1999/xlink" width="16" height="16" viewBox="0 0 16 16"><g><g><use xlink:href="#path0"/></g></g><defs><path fill-rule="evenodd" d="M9.051 3.849a.9.9 0 1 0 1.098-1.427L7 0 3.851 2.422A.9.9 0 1 0 4.95 3.85L6.1 2.963v4.872a.9.9 0 1 0 1.8 0V2.963l1.151.886zM10.4 6.636h.7a1.1 1.1 0 0 1 1.1 1.1v4.2a1.1 1.1 0 0 1-1.1 1.1H2.9a1.1 1.1 0 0 1-1.1-1.1v-4.2a1.1 1.1 0 0 1 1.1-1.1h.8a.9.9 0 1 0 0-1.8h-.8a2.9 2.9 0 0 0-2.9 2.9v4.2a2.9 2.9 0 0 0 2.9 2.9h8.2a2.9 2.9 0 0 0 2.9-2.9v-4.2a2.9 2.9 0 0 0-2.9-2.9h-.7a.9.9 0 0 0 0 1.8z"/></defs></svg>