<svg xmlns="http://www.w3.org/2000/svg" xmlns:xlink="http://www.w3.org/1999/xlink" width="24" height="24" viewBox="0 0 24 24"><g><g><use xlink:href="#path0"/></g></g><defs><path fill-rule="evenodd" d="M21 2.103a8.717 8.717 0 0 1-2.435.66c-.005-.016-.013-.031-.02-.046A4.42 4.42 0 0 0 20.496.334c-.263.162-1.528.875-2.764 1.105A4.385 4.385 0 0 0 14.479 0c-2.726 0-4.405 2.237-4.405 4.405 0 .169.08.868.094.908A11.679 11.679 0 0 1 1.169.768c-1.498 2.727.07 5.091 1.145 5.934a4.58 4.58 0 0 1-1.758-.38 4.606 4.606 0 0 0 3.629 4.248c-.801.224-1.762.053-2.131-.043a4.607 4.607 0 0 0 4.136 3.131C3.236 15.829.052 15.607 0 15.606a12.266 12.266 0 0 0 6.403 1.767c8.579-.055 12.985-7.668 12.461-13.133A4.424 4.424 0 0 0 21 2.103z"/></defs></svg>