<svg xmlns="http://www.w3.org/2000/svg" xmlns:xlink="http://www.w3.org/1999/xlink" width="24" height="24" viewBox="0 0 24 24"><g><g><use xlink:href="#path0"/></g></g><defs><path fill-rule="evenodd" d="M5.04 5.007a.084.084 0 0 0 .025.005A8.5 8.5 0 0 1 13 .002a1 1 0 0 1 1 1v18a1 1 0 0 1-1 1 8.5 8.5 0 0 1-7.934-5.01.106.106 0 0 0-.023.005h-.001c-.009.002-.017.005-.027.005H4c-2.206 0-4-2.243-4-5s1.794-5 4-5h1.014c.009 0 .017.002.026.005zM2 10.002c0 1.626.916 3 2 3h.368a12.92 12.92 0 0 1 0-6H4c-1.084 0-2 1.374-2 3zm10 7.933c-3.571-.49-5.985-3.614-5.985-7.933S8.429 2.559 12 2.069v15.866zm5-8.933h3a1 1 0 0 1 0 2h-3a1 1 0 0 1 0-2zm1.553-4.895l-2 1a1 1 0 0 0 .895 1.789l2-1a1 1 0 1 0-.895-1.789zm.998 11.73a1 1 0 0 1-.998.06l-2-1a1 1 0 0 1 .895-1.789l2 1a1 1 0 0 1 .103 1.73z"/></defs></svg>