<svg xmlns="http://www.w3.org/2000/svg" xmlns:xlink="http://www.w3.org/1999/xlink" width="24" height="24" viewBox="0 0 24 24"><g><g><use xlink:href="#path0"/></g></g><defs><path fill-rule="evenodd" d="M4 15.5h1.015c.005 0 .01-.002.014-.003a.054.054 0 0 1 .016-.003A7.239 7.239 0 0 0 12.062 20a1 1 0 0 0 1-1.031l-.062-2a1.03 1.03 0 0 0-1.03-.97A1 1 0 0 0 11 17.03l.028.9c-4.5-.664-5.014-5.683-5.014-7.927 0-2.244.513-7.264 5.014-7.927l-.028.9a1 1 0 1 0 2 .062l.062-2a1 1 0 0 0-1-1.031 7.24 7.24 0 0 0-7.018 4.499c-.005 0-.01-.002-.014-.003-.005-.001-.01-.003-.016-.003H4c-2.243 0-4 2.416-4 5.5s1.757 5.5 4 5.5zm0-9h.388a15.667 15.667 0 0 0-.373 3.5 15.667 15.667 0 0 0 .373 3.5H4c-.946 0-2-1.437-2-3.5 0-2.063 1.054-3.5 2-3.5zm12.293-.207a1 1 0 1 1 1.414 1.414L15.414 10l2.293 2.293a1 1 0 0 1-1.414 1.414L14 11.414l-2.293 2.293a1 1 0 1 1-1.414-1.414L12.586 10l-2.293-2.293a1 1 0 0 1 1.414-1.414L14 8.586l2.293-2.293z"/></defs></svg>