<svg xmlns="http://www.w3.org/2000/svg" xmlns:xlink="http://www.w3.org/1999/xlink" width="16" height="16" viewBox="0 0 16 16"><g><g><use xlink:href="#path0"/><use xlink:href="#path1"/><use xlink:href="#path2"/><use xlink:href="#path3"/></g></g><defs><path fill-rule="evenodd" d="M2.9 11.002h1a5.67 5.67 0 0 0 5.16 3 .9.9 0 0 0 .9-.9V.902a.9.9 0 0 0-.86-.9 5.67 5.67 0 0 0-5.16 3h-1c-1.67 0-2.94 1.76-2.94 4s1.27 4 2.9 4zm5.3 1.12c-2.49-.46-3.4-2.86-3.4-5.12 0-2.26.91-4.66 3.4-5.12v10.24zm-4.95-7.32H2.9c-.45 0-1.1.86-1.1 2.2 0 1.34.65 2.2 1.1 2.2h.35a9.374 9.374 0 0 1-.25-2.2c-.004-.74.08-1.48.25-2.2z"/><path d="M1.223.223l-1 1a.9.9 0 0 0 1.27 1.27l1-1a.9.9 0 0 0-1.27-1.27z"/><path d="M1.853 2.763a.9.9 0 0 0 .64-1.54l-1-1a.9.9 0 0 0-1.27 1.27l1 1a.9.9 0 0 0 .63.27z"/><path d="M2.9 0h-2a.9.9 0 0 0 0 1.8h2a.9.9 0 1 0 0-1.8z"/></defs></svg>