<svg xmlns="http://www.w3.org/2000/svg" xmlns:xlink="http://www.w3.org/1999/xlink" width="16" height="16" viewBox="0 0 16 16"><g><g><use xlink:href="#path0"/><use xlink:href="#path1"/></g></g><defs><path fill-rule="evenodd" d="M4 11.001H2.9c-1.63 0-2.9-1.76-2.9-4s1.27-4 2.9-4H4a5.46 5.46 0 0 1 5-3 .9.9 0 0 1 .9.89v1a.9.9 0 1 1-1.8 0c-2.34.48-3.2 2.86-3.2 5.11 0 2.25.86 4.63 3.2 5.1a.9.9 0 1 1 1.8 0v1a.9.9 0 0 1-.9.9 5.46 5.46 0 0 1-5-3zm-.66-6.2H2.9c-.45 0-1.1.86-1.1 2.2 0 1.34.65 2.2 1.1 2.2h.44a9.667 9.667 0 0 1-.24-2.2 9.665 9.665 0 0 1 .24-2.2z"/><path d="M5.545.265a.9.9 0 0 0-1.27 0l-1.37 1.37-1.36-1.37a.905.905 0 0 0-1.28 1.28l1.37 1.36-1.37 1.36a.9.9 0 0 0 1.27 1.27l1.37-1.36 1.36 1.36a.9.9 0 1 0 1.27-1.27l-1.36-1.36 1.36-1.36a.9.9 0 0 0 .01-1.28z"/></defs></svg>