<svg xmlns="http://www.w3.org/2000/svg" xmlns:xlink="http://www.w3.org/1999/xlink" width="24" height="24" viewBox="0 0 24 24"><g><g><use xlink:href="#path0"/></g></g><defs><path fill-rule="evenodd" d="M1.02 17.8a1 1 0 0 0 1.4 1.108l4.98-2.293c1.014.255 2.055.384 3.1.385C16.29 17 21 13.187 21 8.5 21 3.813 16.29 0 10.5 0S0 3.813 0 8.5a7.364 7.364 0 0 0 1.917 4.9l-.897 4.4zM6 8a1 1 0 0 1 0-2h9a1 1 0 0 1 0 2H6zm0 3a1 1 0 0 1 0-2h9a1 1 0 0 1 0 2H6zm13-2.5C19 4.916 15.187 2 10.5 2 5.813 2 2 4.916 2 8.5a5.521 5.521 0 0 0 1.713 3.891 1 1 0 0 1 .267.9l-.606 2.975 3.513-1.618c.216-.1.46-.119.69-.054A10.76 10.76 0 0 0 10.5 15c4.687 0 8.5-2.916 8.5-6.5z"/></defs></svg>