<svg xmlns="http://www.w3.org/2000/svg" xmlns:xlink="http://www.w3.org/1999/xlink" width="16" height="16" viewBox="0 0 16 16"><g><g><use xlink:href="#path0"/><use xlink:href="#path1"/></g></g><defs><path d="M7 0H1a1 1 0 1 0 0 2h6a1 1 0 0 0 0-2z"/><path fill-rule="evenodd" d="M0 6c0-3.33 3.14-6 7-6s7 2.69 7 6-3.14 6-7 6a8.167 8.167 0 0 1-1-.09l-3.58 1.88a.9.9 0 0 1-1.29-1l.75-2.7A5.57 5.57 0 0 1 0 6zm5.95 4.11c.347.059.698.089 1.05.09v-.02c2.87 0 5.2-1.84 5.2-4.18S9.87 1.8 7 1.8 1.8 3.68 1.8 6a3.84 3.84 0 0 0 1.65 3 .9.9 0 0 1 .32 1l-.39 1.2 2-1a.899.899 0 0 1 .57-.09z"/></defs></svg>