<svg xmlns="http://www.w3.org/2000/svg" xmlns:xlink="http://www.w3.org/1999/xlink" width="24" height="24" viewBox="0 0 24 24"><g><g><use xlink:href="#path0"/></g></g><defs><path fill-rule="evenodd" d="M10.5 0C4.71 0 0 3.813 0 8.5a7.363 7.363 0 0 0 1.918 4.9l-.9 4.405a1 1 0 0 0 1.4 1.108L7.4 16.615c1.014.255 2.055.384 3.1.385C16.29 17 21 13.187 21 8.5 21 3.813 16.29 0 10.5 0zm-4 10a1.5 1.5 0 1 0 0-3 1.5 1.5 0 0 0 0 3zm8 0a1.5 1.5 0 1 0 0-3 1.5 1.5 0 0 0 0 3zM12 8.5a1.5 1.5 0 1 1-3 0 1.5 1.5 0 0 1 3 0zm-4.424 6.094c.951.269 1.935.406 2.924.406 4.687 0 8.5-2.916 8.5-6.5S15.187 2 10.5 2C5.813 2 2 4.916 2 8.5a5.523 5.523 0 0 0 1.712 3.891 1 1 0 0 1 .267.9l-.605 2.975 3.513-1.618a1 1 0 0 1 .69-.054z"/></defs></svg>