<svg xmlns="http://www.w3.org/2000/svg" xmlns:xlink="http://www.w3.org/1999/xlink" width="24" height="24" viewBox="0 0 24 24"><g><g><use xlink:href="#path0"/></g></g><defs><path fill-rule="evenodd" d="M1.379 18.785a1 1 0 0 1-.359-.985l.897-4.4A7.364 7.364 0 0 1 0 8.5C0 3.813 4.71 0 10.5 0S21 3.813 21 8.5c0 4.687-4.71 8.5-10.5 8.5-1.045 0-2.086-.13-3.1-.385l-4.98 2.293a1 1 0 0 1-1.041-.123zM19 8.5C19 4.916 15.187 2 10.5 2 5.813 2 2 4.916 2 8.5a5.521 5.521 0 0 0 1.713 3.891 1 1 0 0 1 .267.9l-.606 2.975 3.513-1.618c.216-.1.46-.119.69-.054A10.76 10.76 0 0 0 10.5 15c4.687 0 8.5-2.916 8.5-6.5z"/></defs></svg>