<svg xmlns="http://www.w3.org/2000/svg" xmlns:xlink="http://www.w3.org/1999/xlink" width="16" height="16" viewBox="0 0 16 16"><g><g><use xlink:href="#path0"/><use xlink:href="#path0"/><use xlink:href="#path0"/><use xlink:href="#path1"/></g></g><defs><path d="M1 2a1 1 0 1 0 0-2 1 1 0 0 0 0 2z"/><path fill-rule="evenodd" d="M1.456 13.671a.9.9 0 0 1-.326-.911l.75-2.67A5.56 5.56 0 0 1 0 6c0-3.33 3.14-6 7-6s7 2.69 7 6-3.14 6-7 6a8.128 8.128 0 0 1-1-.09l-3.58 1.85a.9.9 0 0 1-.964-.089zM7 1.801C4.13 1.8 1.8 3.68 1.8 6a3.84 3.84 0 0 0 1.65 3 .9.9 0 0 1 .32 1l-.39 1.2 2-1a.888.888 0 0 1 .57-.09c.347.059.698.089 1.05.09 2.87 0 5.2-1.86 5.2-4.2S9.87 1.8 7 1.8z"/></defs></svg>