<svg xmlns="http://www.w3.org/2000/svg" xmlns:xlink="http://www.w3.org/1999/xlink" width="24" height="24" viewBox="0 0 24 24"><g><g><use xlink:href="#path0"/></g></g><defs><path fill-rule="evenodd" d="M3.544 18.352l1-5.838L.302 8.38a1 1 0 0 1 .555-1.706l5.861-.851L9.342.512a1.042 1.042 0 0 1 1.794 0l2.617 5.31 5.861.852a1 1 0 1 1-.287 1.979l-6.38-.927a1 1 0 0 1-.754-.547l-1.957-3.966L8.28 7.179a1 1 0 0 1-.753.547l-4.376.636 3.17 3.092a1 1 0 0 1 .287.885l-.763 4.445.961-.462.55-.264a1 1 0 1 1 .865 1.8l-.549.264-2.708 1.3a1 1 0 0 1-1.419-1.07zm13.648-6.398v3.044h3.044a1 1 0 0 1 0 2h-3.044v2.956a1 1 0 0 1-2 0v-2.956h-2.956a1 1 0 0 1 0-2h2.956v-3.044a1 1 0 1 1 2 0z"/></defs></svg>