<svg xmlns="http://www.w3.org/2000/svg" xmlns:xlink="http://www.w3.org/1999/xlink" width="16" height="16" viewBox="0 0 16 16"><g><g><use xlink:href="#path0"/><use xlink:href="#path1"/></g></g><defs><path d="M3.056 8.735l-.66 3.83a.9.9 0 0 0 1.29 1l1.85-.93a.901.901 0 1 0-.81-1.61l-.26.13.44-2.58a.9.9 0 0 0-.26-.8l-1.81-1.76 2.5-.36a.9.9 0 0 0 .68-.5l1.12-2.3 1.12 2.3a.9.9 0 0 0 .73.5l4.31.38a.9.9 0 1 0 .16-1.79l-3.8-.33-1.71-3.46a.94.94 0 0 0-1.61 0l-1.72 3.48-3.84.56a.9.9 0 0 0-.5 1.54l2.78 2.7z"/><path d="M4.8 3V.9A.9.9 0 1 0 3 .9V3H.9a.9.9 0 1 0 0 1.8H3v2.1a.9.9 0 1 0 1.8 0V4.8h2.1a.9.9 0 1 0 0-1.8H4.8z"/></defs></svg>