<svg xmlns="http://www.w3.org/2000/svg" xmlns:xlink="http://www.w3.org/1999/xlink" width="16" height="16" viewBox="0 0 16 16"><g><g><use xlink:href="#path0"/></g></g><defs><path fill-rule="evenodd" d="M2.396 12.565l.66-3.83-2.78-2.7a.9.9 0 0 1 .5-1.54l3.84-.56 1.72-3.48a.94.94 0 0 1 1.61 0l1.71 3.47 3.84.56a.9.9 0 0 1 .5 1.54l-2.78 2.71.66 3.83a.9.9 0 0 1-1.31.95l-3.43-1.81-3.43 1.81a.9.9 0 0 1-1.31-.95zm3.62-7.41a.9.9 0 0 1-.68.49l-2.5.37 1.81 1.76a.9.9 0 0 1 .26.8l-.43 2.5 2.24-1.22a.9.9 0 0 1 .84 0l2.24 1.21-.43-2.49a.9.9 0 0 1 .26-.8l1.81-1.77-2.5-.36a.9.9 0 0 1-.68-.49l-1.12-2.3-1.12 2.3z"/></defs></svg>