<svg xmlns="http://www.w3.org/2000/svg" xmlns:xlink="http://www.w3.org/1999/xlink" width="24" height="24" viewBox="0 0 24 24"><g><g><use xlink:href="#path0"/></g></g><defs><path fill-rule="evenodd" d="M19.615 6.673a1 1 0 0 1 .808.68 1 1 0 0 1-.252 1.029l-4.24 4.134 1 5.838a1 1 0 0 1-1.452 1.056l-5.243-2.756-5.24 2.752a1 1 0 0 1-1.452-1.054l1-5.838L.302 8.38a1 1 0 0 1 .555-1.706l5.861-.851L9.342.512a1.042 1.042 0 0 1 1.794 0l2.618 5.309 5.861.852zm-5.747 5.66a1 1 0 0 1 .288-.884l3.166-3.087-4.376-.636a1 1 0 0 1-.753-.547l-1.957-3.966V14.52a1 1 0 0 1 .465.115l3.915 2.058-.748-4.36z"/></defs></svg>