<svg xmlns="http://www.w3.org/2000/svg" xmlns:xlink="http://www.w3.org/1999/xlink" width="16" height="16" viewBox="0 0 16 16"><g><g><use xlink:href="#path0"/></g></g><defs><path fill-rule="evenodd" d="M13.496 4.495a.9.9 0 0 1 .73.61.9.9 0 0 1-.23.92l-2.78 2.71.66 3.83a.9.9 0 0 1-1.31.95l-3.43-1.81-3.43 1.81a.9.9 0 0 1-1.31-.95l.66-3.83-2.78-2.7a.9.9 0 0 1 .5-1.54l3.84-.56 1.72-3.48a.94.94 0 0 1 1.61 0l1.71 3.48 3.84.56zm-4.13 4.08a.9.9 0 0 1 .26-.8l1.81-1.77-2.5-.36a.9.9 0 0 1-.68-.49l-1.12-2.3v6.93a.899.899 0 0 1 .42.07l2.24 1.21-.43-2.49z"/></defs></svg>