<svg xmlns="http://www.w3.org/2000/svg" xmlns:xlink="http://www.w3.org/1999/xlink" width="16" height="16" viewBox="0 0 16 16"><g><g><use xlink:href="#path0"/><use xlink:href="#path1"/></g></g><defs><path d="M3.056 8.735l-.66 3.83a.9.9 0 0 0 1.31.95l3.43-1.81 3.43 1.81.84-1.59-3.85-2.07a.9.9 0 0 0-.84 0l-2.24 1.22.43-2.5a.9.9 0 0 0-.26-.8l-1.81-1.76 2.5-.36a.9.9 0 0 0 .68-.5l1.12-2.3 1.12 2.3a.9.9 0 0 0 .68.49l2.5.36-.13.13 1.26 1.29 1.44-1.4a.9.9 0 0 0-.5-1.54l-3.84-.56-1.72-3.47a.94.94 0 0 0-1.61 0l-1.72 3.48-3.84.56a.9.9 0 0 0-.5 1.54l2.78 2.7z"/><path d="M.9 0a.9.9 0 0 0 0 1.8h3a.9.9 0 1 0 0-1.8h-3z"/></defs></svg>