<svg xmlns="http://www.w3.org/2000/svg" xmlns:xlink="http://www.w3.org/1999/xlink" width="24" height="24" viewBox="0 0 24 24"><g><g><use xlink:href="#path0"/></g></g><defs><path fill-rule="evenodd" d="M3.544 18.352l1-5.838L.302 8.38a1 1 0 0 1 .555-1.706l5.861-.851L9.343.512a1.041 1.041 0 0 1 1.793 0l2.62 5.31 5.86.852a1 1 0 0 1 .536 1.723l-2.235 2.073a1 1 0 1 1-1.359-1.467l.7-.651-4.312-.626a1 1 0 0 1-.753-.547l-1.957-3.965L8.28 7.179a1 1 0 0 1-.753.547l-4.377.636 3.167 3.092a1 1 0 0 1 .287.88l-.747 4.359 3.914-2.054a1 1 0 0 1 .932 0l5.708 3a1 1 0 1 1-.932 1.77l-5.242-2.755-5.24 2.752a1 1 0 0 1-1.452-1.054zm12.692-5.398h5a1 1 0 0 1 0 2h-5a1 1 0 0 1 0-2z"/></defs></svg>