<svg xmlns="http://www.w3.org/2000/svg" xmlns:xlink="http://www.w3.org/1999/xlink" width="24" height="24" viewBox="0 0 24 24"><g><g><use xlink:href="#path0"/></g></g><defs><path fill-rule="evenodd" d="M20.585 6.758V1a1 1 0 0 0-1-1h-5.757A3.975 3.975 0 0 0 11 1.172L.88 11.293a3 3 0 0 0 0 4.242l4.17 4.172a3 3 0 0 0 4.243 0l10.121-10.12a4.025 4.025 0 0 0 1.172-2.829zm-2 0A2.012 2.012 0 0 1 18 8.172L7.88 18.293a1 1 0 0 1-1.416 0l-4.17-4.173a1 1 0 0 1 0-1.413l10.12-10.12A1.989 1.989 0 0 1 13.829 2h4.758v4.758zm3-3.758a1 1 0 0 1 2 0v5.172A4.025 4.025 0 0 1 22.413 11L11.675 21.738a1 1 0 1 1-1.414-1.414L21 9.586c.374-.376.585-.884.586-1.414V3zm-9.707 4.293l-1 1a.949.949 0 0 0-.117.177l-.287-.143A2 2 0 0 0 7.741 10.9l.85 1.982-1.559-.78a1 1 0 0 0-1.342.448.982.982 0 0 0 .024.9l-.972.972a1 1 0 1 0 1.414 1.414l1-1c.094-.094.168-.206.218-.329l.321.161c.75.381 1.66.247 2.267-.335a1.98 1.98 0 0 0 .465-2.241l-.849-1.982 1.558.779a1 1 0 0 0 1.342-.447.982.982 0 0 0-.025-.9l.837-.837a1 1 0 0 0-1.414-1.414l.002.002zM16.585 5.5a1.5 1.5 0 1 1-3 0 1.5 1.5 0 0 1 3 0z"/></defs></svg>