<svg xmlns="http://www.w3.org/2000/svg" xmlns:xlink="http://www.w3.org/1999/xlink" width="16" height="16" viewBox="0 0 16 16"><g><g><use xlink:href="#path0"/><use xlink:href="#path1"/><use xlink:href="#path2"/></g></g><defs><path fill-rule="evenodd" d="M6.828 14.34a1.89 1.89 0 0 1-1.34.56 1.89 1.89 0 0 1-1.34-.55l-3.59-3.59a1.9 1.9 0 0 1 0-2.69L7.778.85A2.88 2.88 0 0 1 9.828 0h4.17a.9.9 0 0 1 .9.9v4.17a2.88 2.88 0 0 1-.85 2.05l-7.22 7.22zm2.22-12.22l-7.22 7.22a.11.11 0 0 0 0 .14l3.59 3.59c.04.034.1.034.14 0l7.22-7.22a1.11 1.11 0 0 0 .32-.78V1.8h-3.27a1.11 1.11 0 0 0-.78.32z"/><path d="M1 2a1 1 0 1 0 0-2 1 1 0 0 0 0 2z"/><path d="M1.596 5.174l.13.13a1.1 1.1 0 0 0 1.88-.77v-1.77l.63.64a.806.806 0 0 0 1.14-1.14l-.43-.43.44-.46a.8.8 0 1 0-1.16-1.1l-.42.45a1.09 1.09 0 0 0-1.8.83v1.77l-.63-.63a.806.806 0 0 0-1.14 1.14l.22.22-.22.22a.8.8 0 0 0 1.13 1.13l.23-.23z"/></defs></svg>