<svg xmlns="http://www.w3.org/2000/svg" xmlns:xlink="http://www.w3.org/1999/xlink" width="16" height="16" viewBox="0 0 16 16"><g><g><use xlink:href="#path0"/><use xlink:href="#path1"/></g></g><defs><path fill-rule="evenodd" d="M6.798 14.24a1.89 1.89 0 0 1-1.31.56 1.89 1.89 0 0 1-1.34-.52l-3.59-3.59a1.9 1.9 0 0 1 0-2.69L7.678.85A2.88 2.88 0 0 1 9.728 0h4.17a.9.9 0 0 1 .9.9v4.17a2.88 2.88 0 0 1-.88 2.05l-7.12 7.12zm2.15-12.12l-7.15 7.12a.11.11 0 0 0 0 .15L5.418 13c.04.034.1.034.14 0l7.12-7.15a1.11 1.11 0 0 0 .32-.78V1.8h-3.27a1.11 1.11 0 0 0-.78.32z"/><path d="M1 2a1 1 0 1 0 0-2 1 1 0 0 0 0 2z"/></defs></svg>