<svg xmlns="http://www.w3.org/2000/svg" xmlns:xlink="http://www.w3.org/1999/xlink" width="16" height="16" viewBox="0 0 16 16"><g><g><use xlink:href="#path0"/><use xlink:href="#path1"/><use xlink:href="#path2"/><use xlink:href="#path3"/></g></g><defs><path fill-rule="evenodd" d="M12.199.9v3.26a2.91 2.91 0 0 1-.81 2.06l-5.51 5.41a1.9 1.9 0 0 1-2.68 0L.549 9.04a1.91 1.91 0 0 1 0-2.68l5.43-5.5A2.92 2.92 0 0 1 8.039 0h3.26a.9.9 0 0 1 .9.9zm-2.13 4.04a1.11 1.11 0 0 0 .33-.78V1.8h-2.36a1.09 1.09 0 0 0-.79.32l-5.42 5.5a.1.1 0 0 0 0 .14l2.6 2.6a.1.1 0 0 0 .14 0l5.5-5.42z"/><path d="M8.342 0a.9.9 0 0 0-.9.9v3.26a1.11 1.11 0 0 1-.33.78l-6.8 6.71a.9.9 0 1 0 1.26 1.28l6.8-6.72a2.92 2.92 0 0 0 .87-2.05V.9a.9.9 0 0 0-.9-.9z"/><path d="M1 2a1 1 0 1 0 0-2 1 1 0 0 0 0 2z"/><path d="M2.825 0h-1.8v2h-.25a.8.8 0 1 0 .05 1.6h.05l1.75-.11V1.6h.2a.8.8 0 1 0 0-1.6z"/></defs></svg>