<svg xmlns="http://www.w3.org/2000/svg" xmlns:xlink="http://www.w3.org/1999/xlink" width="24" height="24" viewBox="0 0 24 24"><g><g><use xlink:href="#path0"/></g></g><defs><path fill-rule="evenodd" d="M8.171 22.586a3 3 0 0 1-2.121-.879L.879 16.536a3 3 0 0 1 0-4.243L11.708 1.464A4.967 4.967 0 0 1 15.243 0h6.343a1 1 0 0 1 1 1v6.343a4.966 4.966 0 0 1-1.464 3.535l-10.83 10.83a3 3 0 0 1-2.12.878zm4.95-19.708L2.294 13.708a1 1 0 0 0 0 1.414l5.17 5.171a1 1 0 0 0 1.416 0L19.708 9.464c.56-.564.876-1.326.878-2.121V2h-5.343a3.022 3.022 0 0 0-2.121.878zM5.745 16.842a1 1 0 0 0 1.414 0l.928-.928.13.13a1.983 1.983 0 0 0 2.417.316c.79-.45 1.173-1.38.926-2.256l-1.017-3.734 2.337 2.337a1 1 0 0 0 1.414-1.414L13.5 10.5l.793-.793a1 1 0 0 0-1.414-1.414l-.793.793-.13-.13A2 2 0 0 0 8.612 10.9l1.019 3.734-2.338-2.34a1 1 0 0 0-1.414 1.413l.793.793-.928.928a1 1 0 0 0 0 1.414zM19.086 5.5a2 2 0 1 1-4 0 2 2 0 0 1 4 0z"/></defs></svg>