<svg xmlns="http://www.w3.org/2000/svg" xmlns:xlink="http://www.w3.org/1999/xlink" width="16" height="16" viewBox="0 0 16 16"><g><g><use xlink:href="#path0"/><use xlink:href="#path1"/><use xlink:href="#path2"/></g></g><defs><path d="M1 2a1 1 0 1 0 0-2 1 1 0 0 0 0 2z"/><path d="M5.713.265l-2.86 2.87-1.36-1.36a.9.9 0 0 0-1.27 1.27l2 2a.9.9 0 0 0 1.27 0l3.5-3.5a.905.905 0 0 0-1.28-1.28z"/><path d="M4.138 14.24a1.9 1.9 0 0 0 2.69 0A.9.9 0 0 0 5.558 13a.1.1 0 0 1-.14 0l-3.62-3.61a.11.11 0 0 1 0-.14l7.15-7.13a1.11 1.11 0 0 1 .78-.32h3.27v3.27a1.09 1.09 0 0 1-.32.78l-1.52 1.51a.9.9 0 0 0 1.27 1.27l1.51-1.51c.55-.54.86-1.28.86-2.05V.9a.9.9 0 0 0-.9-.9h-4.17a2.88 2.88 0 0 0-2.05.85L.558 8a1.9 1.9 0 0 0 0 2.69l3.58 3.55z"/></defs></svg>