<svg xmlns="http://www.w3.org/2000/svg" xmlns:xlink="http://www.w3.org/1999/xlink" width="24" height="24" viewBox="0 0 24 24"><g><g><use xlink:href="#path0"/></g></g><defs><path fill-rule="evenodd" d="M6.05 20.293a3 3 0 0 0 3.622.477 1 1 0 1 0-1-1.73 1 1 0 0 1-1.207-.161l-5.172-5.172a1 1 0 0 1 0-1.414l9.414-9.415A2.982 2.982 0 0 1 13.829 2h5.343v5.343a3.02 3.02 0 0 1-.88 2.121l-3.327 3.329a1 1 0 0 0 1.414 1.414l3.328-3.329a4.968 4.968 0 0 0 1.465-3.535V1a1 1 0 0 0-1-1h-6.343a4.969 4.969 0 0 0-3.536 1.464L.879 10.878a3 3 0 0 0 0 4.243l5.172 5.172zm14.415-7l-5.293 5.293-2.293-2.293a1 1 0 0 0-1.414 1.414l3 3a1 1 0 0 0 1.414 0l6-6a1 1 0 0 0-1.414-1.414zM17.672 5.5a2 2 0 1 1-4 0 2 2 0 0 1 4 0z"/></defs></svg>