<svg xmlns="http://www.w3.org/2000/svg" xmlns:xlink="http://www.w3.org/1999/xlink" width="24" height="24" viewBox="0 0 24 24"><g><g><use xlink:href="#path0"/></g></g><defs><path fill-rule="evenodd" d="M15.243 0h6.343a1 1 0 0 1 1 1v6.343c0 .715-.153 1.421-.45 2.071a1 1 0 1 1-1.82-.828c.178-.39.27-.814.27-1.243V2h-5.343a2.982 2.982 0 0 0-2.122.878L2.293 13.708a1 1 0 0 0 0 1.414l5.172 5.171a1.023 1.023 0 0 0 1.414 0 1 1 0 0 1 1.414 1.414 3 3 0 0 1-4.243 0L.879 16.536a3 3 0 0 1 0-4.243L11.707 1.464A4.968 4.968 0 0 1 15.243 0zm1.843 7.5a2 2 0 1 0 0-4 2 2 0 0 0 0 4zm-5.207 11.307a1 1 0 0 0 1.414 0l2.293-2.293 2.293 2.293a1 1 0 0 0 1.414-1.414L17 15.1l2.293-2.293a1 1 0 0 0-1.414-1.414l-2.293 2.293-2.293-2.293a1 1 0 0 0-1.414 1.414l2.293 2.293-2.293 2.293a1 1 0 0 0 0 1.414z"/></defs></svg>