<svg xmlns="http://www.w3.org/2000/svg" xmlns:xlink="http://www.w3.org/1999/xlink" width="16" height="16" viewBox="0 0 16 16"><g><g><use xlink:href="#path0"/><use xlink:href="#path1"/><use xlink:href="#path2"/></g></g><defs><path d="M4.778 14.9a.9.9 0 0 0 .64-1.54l-3.59-3.58a.11.11 0 0 1 0-.16l7.08-7.5a1.11 1.11 0 0 1 .8-.32h3.27v2.7a.9.9 0 1 0 1.8 0V.9a.9.9 0 0 0-.9-.9h-4.17a2.9 2.9 0 0 0-2.07.87L.558 8.36a1.9 1.9 0 0 0 0 2.69l3.59 3.59a.9.9 0 0 0 .63.26z"/><path d="M1 2a1 1 0 1 0 0-2 1 1 0 0 0 0 2z"/><path d="M.267 5.545a.9.9 0 0 0 1.27 0l1.37-1.37 1.36 1.36a.9.9 0 1 0 1.27-1.27l-1.36-1.36 1.36-1.36a.9.9 0 0 0-1.27-1.27l-1.36 1.36-1.36-1.37a.905.905 0 1 0-1.28 1.28l1.37 1.36-1.37 1.36a.9.9 0 0 0 0 1.28z"/></defs></svg>