<svg xmlns="http://www.w3.org/2000/svg" xmlns:xlink="http://www.w3.org/1999/xlink" width="24" height="24" viewBox="0 0 24 24"><g><g><use xlink:href="#path0"/></g></g><defs><path fill-rule="evenodd" d="M6.05 21.707a3 3 0 0 0 4.243 0l10.829-10.829a4.966 4.966 0 0 0 1.464-3.535V1a1 1 0 0 0-1-1h-6.343a4.967 4.967 0 0 0-3.535 1.464L.878 12.293a3 3 0 0 0 0 4.243l5.172 5.171zm-3.757-8L13.122 2.878A3.022 3.022 0 0 1 15.242 2h5.344v5.343a3.022 3.022 0 0 1-.878 2.121L8.878 20.293a1 1 0 0 1-1.414 0l-5.171-5.171a1 1 0 0 1 0-1.415zM19.086 5.5a2 2 0 1 1-4 0 2 2 0 0 1 4 0z"/></defs></svg>