<svg xmlns="http://www.w3.org/2000/svg" xmlns:xlink="http://www.w3.org/1999/xlink" width="24" height="24" viewBox="0 0 24 24"><g><g><use xlink:href="#path0"/></g></g><defs><path fill-rule="evenodd" d="M7 18a5.602 5.602 0 0 1 2.187.207l.732.366a4.022 4.022 0 0 0 1.789.427h4.954a5 5 0 0 0 4.92-4.105l.226-3.655A4 4 0 0 0 17.814 7H15V4a4 4 0 0 0-4-4h-.754L8.452 6.275A1 1 0 0 1 7.491 7H0v13h7v-2zm.491-9a3.013 3.013 0 0 0 2.885-2.176l1.341-4.69A2 2 0 0 1 13 4v5h4.814a2 2 0 0 1 2 2.12l-.214 3.471A3 3 0 0 1 16.662 17h-4.954a2.01 2.01 0 0 1-.895-.21l-.732-.367C9.5 16.133 8.942 16.024 7 16V9h.491zM2 18h3V9H2v9z"/></defs></svg>