<svg xmlns="http://www.w3.org/2000/svg" xmlns:xlink="http://www.w3.org/1999/xlink" width="16" height="16" viewBox="0 0 16 16"><g><g><use xlink:href="#path0"/></g></g><defs><path fill-rule="evenodd" d="M5 9h.48a.1.1 0 0 1 .09.06l2 4.94h.59a2.9 2.9 0 0 0 2.9-2.9V10H12a3.06 3.06 0 0 0 3-3.22l-.28-3.57v-.15A4.11 4.11 0 0 0 10.81 0H9.1a5 5 0 0 0-2.19.62L6.6.77c-.432.216-.907.33-1.39.33H5V1H0v9h5V9zm.21-6.1c.76-.002 1.51-.18 2.19-.52l.31-.16A3.35 3.35 0 0 1 9.1 1.8h1.71a2.3 2.3 0 0 1 2.12 1.62l.27 3.5a1.18 1.18 0 0 1-.34.88c-.22.246-.53.39-.86.4h-.94V8a.9.9 0 0 0-1.8 0v3.1a1.1 1.1 0 0 1-.55 1L7.24 8.39A1.89 1.89 0 0 0 5.48 7.2H5V2.9h.21zM3.2 2.8H1.8v5.4h1.3a.85.85 0 0 1 0-.1.88.88 0 0 1 .1-.39V2.8z"/></defs></svg>