<svg xmlns="http://www.w3.org/2000/svg" xmlns:xlink="http://www.w3.org/1999/xlink" width="24" height="24" viewBox="0 0 24 24"><g><g><use xlink:href="#path0"/></g></g><defs><path fill-rule="evenodd" d="M7 12h.491a1 1 0 0 1 .962.726L10.246 19H11a4 4 0 0 0 4-4v-3h2.814a4 4 0 0 0 3.993-4.24L21.6 4.225l-.014-.119A5 5 0 0 0 16.662 0h-4.954c-.62 0-1.233.145-1.788.422l-.734.367C8.955.9 8.578 1 6.292 1H0v13h7v-2zm3.08-9.422l.734-.367c.278-.138.584-.21.894-.211h4.954A3 3 0 0 1 19.6 4.41l.208 3.471a2 2 0 0 1-2 2.12H15V8.858a1 1 0 0 0-2 0V15a2 2 0 0 1-1.284 1.867l-1.34-4.691A3.013 3.013 0 0 0 7.491 10H7V3c1.943-.024 2.5-.133 3.08-.422zM2 12h3V3H2v9z"/></defs></svg>