<svg xmlns="http://www.w3.org/2000/svg" xmlns:xlink="http://www.w3.org/1999/xlink" width="16" height="16" viewBox="0 0 16 16"><g><g><use xlink:href="#path0"/></g></g><defs><path fill-rule="evenodd" d="M5 13h.06a3.12 3.12 0 0 1 1.39.33l.31.16a4.93 4.93 0 0 0 2.18.51h1.71a4 4 0 0 0 3.88-3l.29-3.83a3.061 3.061 0 0 0-3-3.22h-.92V2.9A2.9 2.9 0 0 0 8 0h-.61l-2 4.94a.1.1 0 0 1-.07.06H0v9h5v-1zm.32-6.2a1.89 1.89 0 0 0 1.77-1.19l1.46-3.66a1.1 1.1 0 0 1 .55 1V5.8h2.74A1.27 1.27 0 0 1 13 7.08l-.26 3.59a2.23 2.23 0 0 1-2.12 1.52H8.94a3.12 3.12 0 0 1-1.39-.33l-.31-.16a4.931 4.931 0 0 0-2.19-.52H5V6.8h.32zm-2.12 0H1.8v5.4h1.3a.851.851 0 0 1 0-.1.88.88 0 0 1 .1-.39V6.8z"/></defs></svg>