<svg xmlns="http://www.w3.org/2000/svg" xmlns:xlink="http://www.w3.org/1999/xlink" width="24" height="24" viewBox="0 0 24 24"><g><g><use xlink:href="#path0"/></g></g><defs><path fill-rule="evenodd" d="M3.006 22a2.98 2.98 0 0 1-2.687-1.676 3.017 3.017 0 0 1 .308-3.19L5.327 11 .63 4.866a3.017 3.017 0 0 1-.311-3.19A2.98 2.98 0 0 1 3.006 0h7.162a2.98 2.98 0 0 1 2.69 1.676 3.017 3.017 0 0 1-.311 3.19L7.847 11l4.697 6.135c.706.916.827 2.154.31 3.189A2.98 2.98 0 0 1 10.169 22H3.006zm0-20a.981.981 0 0 0-.894.562c-.18.352-.139.777.106 1.088L4.787 7h3.6l2.57-3.35c.244-.311.285-.736.105-1.088A.981.981 0 0 0 10.168 2H3.006zm3.58 10.645l4.1 5.355h-8.2l4.1-5.355zM7.597 16a1 1 0 0 1-1 1 1 1 0 1 1-.01-2h.01a1 1 0 0 1 1 1z"/></defs></svg>