<svg xmlns="http://www.w3.org/2000/svg" xmlns:xlink="http://www.w3.org/1999/xlink" width="16" height="16" viewBox="0 0 16 16"><g><g><use xlink:href="#path0"/></g></g><defs><path fill-rule="evenodd" d="M.232 12.62A2.38 2.38 0 0 0 2.402 14h3.78a2.4 2.4 0 0 0 1.84-3.94L5.462 7l2.56-3.06A2.4 2.4 0 0 0 6.182 0h-3.78a2.4 2.4 0 0 0-1.84 3.94L3.122 7l-2.56 3.06a2.38 2.38 0 0 0-.33 2.56zm1.63-10.47a.58.58 0 0 1 .54-.35h3.78a.6.6 0 0 1 .46 1L5.632 4h-2.68l-1-1.21a.58.58 0 0 1-.09-.64zM5.632 10l-1.34-1.6-1.34 1.6h2.68z"/></defs></svg>