<svg xmlns="http://www.w3.org/2000/svg" xmlns:xlink="http://www.w3.org/1999/xlink" width="16" height="16" viewBox="0 0 16 16"><g><g><use xlink:href="#path0"/><use xlink:href="#path1"/></g></g><defs><path d="M5.758.267a.9.9 0 0 0 0 1.27l1.37 1.37h-3.73a5 5 0 0 0-3.12 1.1.9.9 0 0 0 1.12 1.4 3.17 3.17 0 0 1 2-.7h3.93l-1.57 1.56a.9.9 0 1 0 1.27 1.27l3.64-3.63-3.63-3.64a.9.9 0 0 0-1.28 0z"/><path d="M4.27 7.805a.9.9 0 0 0 .64-1.54l-1.37-1.36h3.73a5 5 0 0 0 3.12-1.1.9.9 0 1 0-1.12-1.4 3.17 3.17 0 0 1-2 .7H3.34l1.57-1.56A.905.905 0 0 0 3.63.265L0 3.905l3.64 3.64a.9.9 0 0 0 .63.26z"/></defs></svg>