<svg xmlns="http://www.w3.org/2000/svg" xmlns:xlink="http://www.w3.org/1999/xlink" width="24" height="24" viewBox="0 0 24 24"><g><g><use xlink:href="#path0"/></g></g><defs><path fill-rule="evenodd" d="M16.72.293A1 1 0 0 1 18.12.28l4.707 4.707-4.708 4.707a1 1 0 1 1-1.414-1.414L19 5.988h-5.085a7.91 7.91 0 0 0-5.028 1.777A1 1 0 0 1 7.628 6.21a10.02 10.02 0 0 1 5.651-2.195.94.94 0 0 1 .135-.027H19l-2.293-2.293a1 1 0 0 1 .012-1.402zM6.337 18.37a1 1 0 0 1-1.631.325L0 13.988 4.707 9.28a1 1 0 0 1 1.414 1.414l-2.293 2.293h5.086a7.91 7.91 0 0 0 5.028-1.777 1 1 0 1 1 1.258 1.555 10.025 10.025 0 0 1-6.286 2.222H3.828l2.293 2.293a1 1 0 0 1 .217 1.09z"/></defs></svg>