<svg xmlns="http://www.w3.org/2000/svg" xmlns:xlink="http://www.w3.org/1999/xlink" width="24" height="24" viewBox="0 0 24 24"><g><g><use xlink:href="#path0"/></g></g><defs><path fill-rule="evenodd" d="M16.6 5h1.81a3.477 3.477 0 0 1 2.72 1.22 3.6 3.6 0 0 1 .736 2.955L20.84 15h-2.015a3.734 3.734 0 0 1-3.529 3 2.448 2.448 0 0 1-2.471-3h-4a3.734 3.734 0 0 1-3.529 3 2.448 2.448 0 0 1-2.471-3H.78l1.039-5.2a1 1 0 0 1 1.962.393L3.22 13h15.941l.53-3H17.7l.506-3h-1.958l-.562 3.174a1 1 0 1 1-1.969-.348l.5-2.826.562-3.18a1.593 1.593 0 0 0-.3-1.32 1.512 1.512 0 0 0-1.188-.5H11a1 1 0 0 1 0-2h2.292a3.477 3.477 0 0 1 2.718 1.22 3.6 3.6 0 0 1 .736 2.954L16.6 5zM9 1a1 1 0 0 1-1 1H1a1 1 0 0 1 0-2h7a1 1 0 0 1 1 1zM7 4a1 1 0 0 0-1-1H2a1 1 0 0 0 0 2h4a1 1 0 0 0 1-1zM2 7a1 1 0 0 1 1-1h1a1 1 0 0 1 0 2H3a1 1 0 0 1-1-1z"/></defs></svg>