<svg xmlns="http://www.w3.org/2000/svg" xmlns:xlink="http://www.w3.org/1999/xlink" width="24" height="24" viewBox="0 0 24 24"><g><g><use xlink:href="#path0"/></g></g><defs><path fill-rule="evenodd" d="M10.682.293a1 1 0 0 1 .013 1.402L3.988 8.402.28 4.695A1 1 0 0 1 1.695 3.28l2.293 2.293L9.28.28a1 1 0 0 1 1.401.012zm5.406 7.695h2a4 4 0 0 1 4 4v7h-2a3 3 0 1 1-6 0h-4a3 3 0 1 1-6 0h-2v-8a1 1 0 0 1 2 0v6h16v-3h-2v-4h-2v4a1 1 0 0 1-2 0v-7a1 1 0 0 0-1-1h-1.1a1 1 0 1 1 0-2h1.1a3 3 0 0 1 3 3v1z"/></defs></svg>