<svg xmlns="http://www.w3.org/2000/svg" xmlns:xlink="http://www.w3.org/1999/xlink" width="24" height="24" viewBox="0 0 24 24"><g><g><use xlink:href="#path0"/></g></g><defs><path fill-rule="evenodd" d="M9.891 12.454a1 1 0 0 0-.083-1.042L6.236 6.5 9.81 1.588A1 1 0 0 0 9 0H1a1 1 0 0 0-.809 1.588L3.764 6.5.191 11.412A1 1 0 0 0 1.001 13h8a1 1 0 0 0 .89-.546zM7.036 2L5 4.8 2.964 2h4.072zM16 8h2a4 4 0 0 1 4 4v7h-2a3 3 0 1 1-6 0h-4a3 3 0 1 1-6 0H2v-3a1 1 0 0 1 2 0v1h16v-3h-2v-4h-2v4a1 1 0 0 1-2 0V7a1 1 0 0 0-1-1h-1a1 1 0 0 1 0-2h1a3 3 0 0 1 3 3v1z"/></defs></svg>