<svg xmlns="http://www.w3.org/2000/svg" xmlns:xlink="http://www.w3.org/1999/xlink" width="16" height="16" viewBox="0 0 16 16"><g><g><use xlink:href="#path0"/><use xlink:href="#path1"/></g></g><defs><path fill-rule="evenodd" d="M0 3.984v-2.24a2 2 0 1 1 2.24 2.24H0zm2-1.6a.4.4 0 1 0-.4-.4v.4H2z"/><path fill-rule="evenodd" d="M10.073 4.973h2a2.9 2.9 0 0 1 2.9 2.9v5.1h-2a2 2 0 0 1-4 0h-2a2 2 0 0 1-4 0h-2v-6a.9.9 0 0 1 1.8 0v4.2h2.2v-6.2h-2.84a2.5 2.5 0 1 1 2.84-2.84v.84a1 1 0 0 1 2 0v8.2h6.2v-2.2h-1.2v-2.2h-1v2.2a.9.9 0 1 1-1.8 0v-3.1a.9.9 0 0 1 .9-.9zm-7.6-1.6h.9v-.9a.9.9 0 1 0-.9.9z"/></defs></svg>