<svg xmlns="http://www.w3.org/2000/svg" xmlns:xlink="http://www.w3.org/1999/xlink" width="16" height="16" viewBox="0 0 16 16"><g><g><use xlink:href="#path0"/><use xlink:href="#path1"/></g></g><defs><path d="M1.545 6.545l1.86-1.87 1.86 1.87a.905.905 0 0 0 1.28-1.28l-1.87-1.86 1.87-1.86a.905.905 0 0 0-1.28-1.28l-1.86 1.87-1.86-1.87a.905.905 0 0 0-1.28 1.28l1.87 1.86-1.87 1.86a.905.905 0 1 0 1.28 1.28z"/><path d="M11.1 3H10v-.1A3 3 0 0 0 7 0a.9.9 0 1 0 0 1.8 1.2 1.2 0 0 1 1.2 1.1V7A.9.9 0 1 0 10 7V4.8h1V7h1.2v2.2H1.8V7A.9.9 0 1 0 0 7v4h2a2 2 0 1 0 4 0h2a2 2 0 1 0 4 0h2V5.9A2.9 2.9 0 0 0 11.1 3z"/></defs></svg>