<svg xmlns="http://www.w3.org/2000/svg" xmlns:xlink="http://www.w3.org/1999/xlink" width="16" height="16" viewBox="0 0 16 16"><g><g><use xlink:href="#path0"/><use xlink:href="#path1"/></g></g><defs><path fill-rule="evenodd" d="M6.895 8.76a.8.8 0 0 1 0 .82.8.8 0 0 1-.7.42h-5.4a.8.8 0 0 1-.67-1.23L2.545 5 .125 1.23A.8.8 0 0 1 .795 0h5.4a.8.8 0 0 1 .67 1.23L4.445 5l2.45 3.76zm-2.17-7.18h-2.47l1.24 1.94 1.23-1.94z"/><path d="M11.1 2.887H10v-.1A3 3 0 0 0 7.9.027a.9.9 0 0 0-.55 1.71c.46.127.795.525.84 1v4.15a.9.9 0 1 0 1.8 0v-2.2h1v2.2h1.2v2.2H.9a.9.9 0 1 0 0 1.8h1a2 2 0 0 0 4 0H8a2 2 0 0 0 4 0h2v-5.1a2.9 2.9 0 0 0-2.9-2.9z"/></defs></svg>