<svg xmlns="http://www.w3.org/2000/svg" xmlns:xlink="http://www.w3.org/1999/xlink" width="16" height="16" viewBox="0 0 16 16"><g><g><use xlink:href="#path0"/><use xlink:href="#path1"/></g></g><defs><path d="M7.714 1.714a1.004 1.004 0 1 0-1.42-1.42l-3.29 3.3-1.29-1.3a1.004 1.004 0 0 0-1.42 1.42l2.71 2.7 4.71-4.7z"/><path d="M11.1 2.78H10v-.1a2.78 2.78 0 0 0-.35-1.33A3 3 0 0 0 8.28.07a.9.9 0 0 0-.76 1.63c.236.106.432.285.56.51a1 1 0 0 1 .12.47v4.1a.9.9 0 0 0 1.8 0v-2.2h1v2.2h1.2v2.2H1.8v-3.2a.9.9 0 1 0-1.8 0v5h2a2 2 0 1 0 4 0h2a2 2 0 1 0 4 0h2v-5.1a2.9 2.9 0 0 0-2.9-2.9z"/></defs></svg>