<svg xmlns="http://www.w3.org/2000/svg" xmlns:xlink="http://www.w3.org/1999/xlink" width="24" height="24" viewBox="0 0 24 24"><g><g><use xlink:href="#path0"/></g></g><defs><path fill-rule="evenodd" d="M7.707 7.683a1 1 0 0 1-1.402.012L4.012 5.402 1.72 7.695A1 1 0 1 1 .305 6.28l2.293-2.293L.305 1.695A1 1 0 0 1 1.72.28l2.293 2.293L6.305.28A1 1 0 0 1 7.72 1.695L5.426 3.988 7.72 6.28a1 1 0 0 1-.012 1.402zm8.305.305h2a4 4 0 0 1 4 4v7h-2a3 3 0 0 1-6 0h-4a3 3 0 0 1-6 0h-2v-8a1 1 0 0 1 2 0v6h16v-3h-2v-4h-2v4a1 1 0 0 1-2 0v-7a1 1 0 0 0-1-1h-2.1a1 1 0 1 1 0-2h2.1a3 3 0 0 1 3 3v1z"/></defs></svg>