<svg xmlns="http://www.w3.org/2000/svg" xmlns:xlink="http://www.w3.org/1999/xlink" width="16" height="16" viewBox="0 0 16 16"><g><g><use xlink:href="#path0"/><use xlink:href="#path1"/><use xlink:href="#path2"/></g></g><defs><path d="M12.39 3h-.93A2.53 2.53 0 0 0 10.9.95 2.7 2.7 0 0 0 8.82 0a.9.9 0 1 0 0 1.8c.27-.01.53.1.71.3a.75.75 0 0 1 .16.64l-.18 1L9 6.84a.9.9 0 0 0 .73 1h.12a.9.9 0 0 0 .89-.74l.41-2.3h1.1L11.9 7h1l-.39 2.2H2.17l.36-2a.903.903 0 1 0-1.77-.36L0 11h2a1.63 1.63 0 0 0 1.65 2A2.49 2.49 0 0 0 6 11h2a1.63 1.63 0 0 0 1.65 2A2.49 2.49 0 0 0 12 11h2l.87-4.94a2.64 2.64 0 0 0-.54-2.16 2.58 2.58 0 0 0-1.94-.9z"/><path d="M1 2h4.5a1 1 0 0 0 0-2H1a1 1 0 1 0 0 2z"/><path d="M1 2h2a1 1 0 0 0 0-2H1a1 1 0 1 0 0 2z"/></defs></svg>