<svg xmlns="http://www.w3.org/2000/svg" xmlns:xlink="http://www.w3.org/1999/xlink" width="16" height="16" viewBox="0 0 16 16"><g><g><use xlink:href="#path0"/><use xlink:href="#path1"/></g></g><defs><path d="M2.863 6.27a.9.9 0 0 0 .9-.9V3.44l.46.46a.9.9 0 0 0 1.27-1.27L2.863 0 .223 2.63a.9.9 0 0 0 1.27 1.27l.46-.46v1.93a.9.9 0 0 0 .91.9z"/><path d="M12.06 3.07a3.88 3.88 0 0 0-1.56.33A5.41 5.41 0 0 0 5.46 0a5.51 5.51 0 0 0-4.9 7.93.901.901 0 0 0 1.62-.79A3.71 3.71 0 0 1 5.46 1.8 3.64 3.64 0 0 1 9.07 5a.9.9 0 0 0 1.51.52 2.12 2.12 0 0 1 1.47-.6 2.17 2.17 0 0 1 0 4.33.9.9 0 1 0 0 1.8 4 4 0 0 0 .01-7.98z"/></defs></svg>