<svg xmlns="http://www.w3.org/2000/svg" xmlns:xlink="http://www.w3.org/1999/xlink" width="24" height="24" viewBox="0 0 24 24"><g><g><use xlink:href="#path0"/></g></g><defs><path fill-rule="evenodd" d="M13.56.076a7.493 7.493 0 0 1 6.285 5.937A4.5 4.5 0 0 1 19.5 15H19a1 1 0 1 1 0-2h.504a2.5 2.5 0 0 0 0-5c-.012 0-.024.002-.035.004a.202.202 0 0 1-.036.004l-.733.71a1 1 0 0 1-1.396-1.432l.605-.586A5.464 5.464 0 0 0 7.595 5.052l.26.43a1 1 0 1 1-1.71 1.035l-.289-.477A3.484 3.484 0 0 0 5.5 6a3.5 3.5 0 0 0-.394 6.983 1 1 0 0 1 .52 1.773.988.988 0 0 1-.736.21 5.5 5.5 0 0 1 .974-10.953A7.493 7.493 0 0 1 13.561.076zM13 18a1 1 0 1 1-2 0v-4.586l-1.293 1.293a1 1 0 0 1-1.414-1.414L12 9.586l3.707 3.707a1 1 0 0 1-1.414 1.414L13 13.414V18z"/></defs></svg>