<svg xmlns="http://www.w3.org/2000/svg" xmlns:xlink="http://www.w3.org/1999/xlink" width="16" height="16" viewBox="0 0 16 16"><g><g><use xlink:href="#path0"/><use xlink:href="#path1"/></g></g><defs><path fill-rule="evenodd" d="M13.486 7l-1.5-7h-2.73a.9.9 0 1 0 0 1.8h1.27l.34 1.57a5.28 5.28 0 0 0-4.61.63l-.27.1h-4.73a.9.9 0 1 0 0 1.8h5.27l.68-.45a3.47 3.47 0 0 1 2.95-.45l-4.78 2.88a3.13 3.13 0 1 0 .83 1.6l5.29-3.16.24 1.1a3 3 0 1 0 1.75-.42zm-10.23 4.2a1.2 1.2 0 1 1 0-2.4 1.2 1.2 0 0 1 0 2.4zm8.8-1.2a1.2 1.2 0 1 0 2.4 0 1.2 1.2 0 0 0-2.4 0z"/><path d="M.018 1.098l.2 1a.9.9 0 0 0 .88.72h.18a.9.9 0 0 0 .74-1.08l-.2-1a.918.918 0 1 0-1.8.36z"/></defs></svg>