<svg xmlns="http://www.w3.org/2000/svg" xmlns:xlink="http://www.w3.org/1999/xlink" width="24" height="24" viewBox="0 0 24 24"><g><g><use xlink:href="#path0"/></g></g><defs><path fill-rule="evenodd" d="M4.015 8a4 4 0 1 0 3.858 5h2.142a1 1 0 0 0 .367-.074.963.963 0 0 0 .122-.072.971.971 0 0 0 .161-.095l6.1-5.225.275 1.01a3.971 3.971 0 1 0 1.949-.542.174.174 0 0 1-.027.003L16.78 0h-2.764a1 1 0 0 0 0 2h1.236l.8 2.918A5 5 0 0 0 8.115 5h-7.1a1 1 0 0 0 0 2h3.182a4.475 4.475 0 0 1 4.735 4H7.873a4 4 0 0 0-3.858-3zm0 5h1.722a2 2 0 1 1 0-2H4.015a1 1 0 0 0 0 2zm15.263-.035a1 1 0 0 1-1.228-.702l-.454-1.668a1.994 1.994 0 1 0 1.931-.52l.453 1.662a1 1 0 0 1-.702 1.228zM9.515 6.5a3 3 0 0 1 5.2 0l.063.105-4.007 3.432a6.948 6.948 0 0 0-1.573-2.98l.317-.557zm11.318-.55a1.001 1.001 0 0 1-1.266-.634l-.5-1.5a1.002 1.002 0 0 1 1.9-.632l.5 1.5a1.001 1.001 0 0 1-.634 1.266z"/></defs></svg>