<svg xmlns="http://www.w3.org/2000/svg" xmlns:xlink="http://www.w3.org/1999/xlink" width="24" height="24" viewBox="0 0 24 24"><g><g><use xlink:href="#path0"/></g></g><defs><path fill-rule="evenodd" d="M19 4h-1.5l-.9-1.2A7.034 7.034 0 0 0 11 0H8.9a5.992 5.992 0 0 0-5.68 4.076A4.007 4.007 0 0 0 0 8v3h3.184a2.983 2.983 0 0 0 5.633 0h5.367a2.983 2.983 0 0 0 5.633 0H23V8a4 4 0 0 0-4-4zm2 5h-1.184a2.983 2.983 0 0 0-5.633 0H8.816a2.983 2.983 0 0 0-5.633 0H2V8a2 2 0 0 1 2-2h.781l.243-.97A4 4 0 0 1 8.9 2H11a5.024 5.024 0 0 1 4 2l1.5 2H19a2 2 0 0 1 2 2v1zM8 3h4a1 1 0 0 1 0 2H8a1 1 0 0 1 0-2z"/></defs></svg>