<svg xmlns="http://www.w3.org/2000/svg" xmlns:xlink="http://www.w3.org/1999/xlink" width="16" height="16" viewBox="0 0 16 16"><g><g><use xlink:href="#path0"/></g></g><defs><path fill-rule="evenodd" d="M9.399.167a1 1 0 0 1 1.331.206l1.86 2.77 3.31-.32v1a5.73 5.73 0 0 1-2 4.35l1.34.52a.9.9 0 0 1-.67 1.67l-2.14-.86a4.09 4.09 0 0 0-3 0l-1.29.51a5.88 5.88 0 0 1-4.38 0l-2-.78a.89.89 0 0 1-.86.69.9.9 0 0 1-.9-.9v-2.2a.9.9 0 1 1 1.8 0v.47l1.1.44v-1a2.89 2.89 0 0 1 2.62-2.89l4.82-.47-1.27-1.9A1 1 0 0 1 9.4.167zm2.67 7.376a.881.881 0 0 1 .31-.42l.01-.01a3.9 3.9 0 0 0 1.591-2.28l-8.29.81a1.1 1.1 0 0 0-1 1.09v1.71a4.07 4.07 0 0 0 2.72-.09l1.29-.51a5.86 5.86 0 0 1 3.37-.3z"/></defs></svg>