<svg xmlns="http://www.w3.org/2000/svg" xmlns:xlink="http://www.w3.org/1999/xlink" width="24" height="24" viewBox="0 0 24 24"><g><g><use xlink:href="#path0"/></g></g><defs><path fill-rule="evenodd" d="M23.37 11.071l-2.21-.88A7.975 7.975 0 0 0 24 4.001v-1.11l-5.18.53-2.55-3.06a1.001 1.001 0 1 0-1.54 1.28l1.69 2.03-9.92 1.01a4 4 0 0 0-3.13 2.32H2v-.52a1 1 0 1 0-2 0v4.93l1.93 1.05c1.284.66 2.791.73 4.13.19l1.83-.73a2.94 2.94 0 0 1 2.22 0l2.03.81c1.194.48 2.526.48 3.72 0l2.03-.81a2.94 2.94 0 0 1 2.22 0l2.52 1.01c.514.201 1.093-.049 1.3-.56a.995.995 0 0 0-.56-1.3zM3 10.776l-1-.555v-1.22h1v1.775zm15.75-1.045a1 1 0 0 1 .44-.59 5.783 5.783 0 0 0 2.71-4.02L6.73 6.671A1.989 1.989 0 0 0 5 8.651v2.23c.106-.02.21-.05.31-.09l1.83-.73a5.085 5.085 0 0 1 3.72 0l2.03.82a3.04 3.04 0 0 0 2.22 0l2.03-.82a5.309 5.309 0 0 1 1.61-.33z"/></defs></svg>