<svg xmlns="http://www.w3.org/2000/svg" xmlns:xlink="http://www.w3.org/1999/xlink" width="16" height="16" viewBox="0 0 16 16"><g><g><use xlink:href="#path0"/><use xlink:href="#path1"/></g></g><defs><path fill-rule="evenodd" d="M12.58 3h.52A3 3 0 0 1 16 6v3h-2.24a1.94 1.94 0 0 1-3.4 0H5.64a1.94 1.94 0 0 1-3.4 0H0V6a3 3 0 0 1 2.22-2.91l.14-.42A4 4 0 0 1 6.16 0h1.7A5.05 5.05 0 0 1 12 2.18l.58.82zm1.25 4.2h.37V6a1.2 1.2 0 0 0-1.1-1.2h-1.48l-1.08-1.62A3.28 3.28 0 0 0 7.86 1.8h-1.7a2.23 2.23 0 0 0-2.09 1.44L3.55 4.8H2.9A1.2 1.2 0 0 0 1.8 6v1.2h.37A2 2 0 0 1 3.94 6a2 2 0 0 1 1.77 1.2h4.58a1.91 1.91 0 0 1 3.54 0z"/><path d="M3.9 0h-3a.9.9 0 0 0 0 1.8h3a.9.9 0 1 0 0-1.8z"/></defs></svg>