<svg xmlns="http://www.w3.org/2000/svg" xmlns:xlink="http://www.w3.org/1999/xlink" width="16" height="16" viewBox="0 0 16 16"><g><g><use xlink:href="#path0"/><use xlink:href="#path1"/><use xlink:href="#path2"/><use xlink:href="#path3"/></g></g><defs><path d="M5.947 0h-4.9a.9.9 0 1 0 0 1.8h1.83L.307 4.36a.9.9 0 1 0 1.27 1.27l2.57-2.56V4.9a.9.9 0 1 0 1.8 0V0z"/><path d="M.9 5.8a.9.9 0 0 0 .9-.9V3.07l2.56 2.57a.905.905 0 0 0 1.28-1.28L3.07 1.8H4.9a.9.9 0 1 0 0-1.8H0v4.9a.9.9 0 0 0 .9.9z"/><path d="M5.8 5.002a.9.9 0 0 0-.9-.9H3.07l2.56-2.56A.902.902 0 0 0 4.36.262L1.8 2.832v-1.83a.9.9 0 1 0-1.8 0v4.9h4.9a.9.9 0 0 0 .9-.9z"/><path d="M.053 4.963a.9.9 0 0 0 .9.9h4.9v-4.9a.9.9 0 1 0-1.8 0v1.83L1.493.223a.9.9 0 0 0-1.27 1.27l2.56 2.56H.953a.9.9 0 0 0-.9.91z"/></defs></svg>