<svg xmlns="http://www.w3.org/2000/svg" xmlns:xlink="http://www.w3.org/1999/xlink" width="16" height="16" viewBox="0 0 16 16"><g><g><use xlink:href="#path0"/><use xlink:href="#path1"/><use xlink:href="#path2"/><use xlink:href="#path3"/></g></g><defs><path fill-rule="evenodd" d="M1.403 0h3.1a1.4 1.4 0 0 1 1.4 1.45V4.6a1.4 1.4 0 0 1-1.4 1.4h-3.1a1.4 1.4 0 0 1-1.4-1.5V1.4a1.4 1.4 0 0 1 1.4-1.4zm.4 4.1h2.3V1.85h-2.3V4.1z"/><path fill-rule="evenodd" d="M1.403 0h3.1a1.4 1.4 0 0 1 1.4 1.5v3.1a1.4 1.4 0 0 1-1.4 1.4h-3.1a1.4 1.4 0 0 1-1.4-1.5V1.4a1.4 1.4 0 0 1 1.4-1.4zm.4 4.1h2.3V1.8h-2.3v2.3z"/><path fill-rule="evenodd" d="M1.4 0h3.1a1.4 1.4 0 0 1 1.4 1.4v3.1a1.4 1.4 0 0 1-1.4 1.4H1.4A1.4 1.4 0 0 1 0 4.5V1.4A1.4 1.4 0 0 1 1.4 0zm.4 4.1h2.3V1.8H1.8v2.3z"/><path d="M6.294.296l-3.29 3.3-1.29-1.3a1.004 1.004 0 0 0-1.42 1.42l2.71 2.7 4.71-4.71a1 1 0 0 0-1.42-1.41z"/></defs></svg>