<svg xmlns="http://www.w3.org/2000/svg" xmlns:xlink="http://www.w3.org/1999/xlink" width="24" height="24" viewBox="0 0 24 24"><g><g><use xlink:href="#path0"/></g></g><defs><path fill-rule="evenodd" d="M17.329 1.495h-2.211a2.5 2.5 0 0 0-4.578 0H1a1 1 0 0 0 0 2h9.54a2.5 2.5 0 0 0 4.578 0h2.211a1 1 0 1 0 0-2zm0 6H6.118a2.5 2.5 0 0 0-4.578 0H1a1 1 0 0 0 0 2h.54a2.5 2.5 0 0 0 4.578 0h11.211a1 1 0 1 0 0-2zm-5.211 6h5.211a1 1 0 0 1 0 2h-5.211a2.5 2.5 0 0 1-4.578 0H1a1 1 0 0 1 0-2h6.54a2.5 2.5 0 0 1 4.578 0z"/></defs></svg>