<svg xmlns="http://www.w3.org/2000/svg" xmlns:xlink="http://www.w3.org/1999/xlink" width="16" height="16" viewBox="0 0 16 16"><g><g><use xlink:href="#path0"/><use xlink:href="#path1"/><use xlink:href="#path1"/></g></g><defs><path fill-rule="evenodd" d="M12.1 0c1.05 0 1.9.85 1.9 1.9v10.2a1.9 1.9 0 0 1-1.9 1.9H1.9A1.9 1.9 0 0 1 0 12.1V1.9C0 .85.85 0 1.9 0h10.2zm0 12.2a.1.1 0 0 0 .1-.1V1.9a.1.1 0 0 0-.1-.1H1.9a.1.1 0 0 0-.1.1v10.2a.1.1 0 0 0 .1.1h10.2z"/><path d="M7 0H1a1 1 0 1 0 0 2h6a1 1 0 0 0 0-2z"/></defs></svg>