<svg xmlns="http://www.w3.org/2000/svg" xmlns:xlink="http://www.w3.org/1999/xlink" width="24" height="24" viewBox="0 0 24 24"><g><g><use xlink:href="#path0"/></g></g><defs><path fill-rule="evenodd" d="M5.976 6.708l.696 1.908h1.884L5.316 0H3.228L0 8.616h1.824l.696-1.908h3.456zm13.802-.092h-8a1 1 0 0 1 0-2h8a1 1 0 0 1 0 2zm0 5h-8a1 1 0 0 1 0-2h8a1 1 0 0 1 0 2zm-8 5h8a1 1 0 0 0 0-2h-8a1 1 0 1 0 0 2zM4.248 1.98l-1.2 3.3h2.4l-1.2-3.3zm-.96 16.064h4.44v1.572H.864v-1.368l4.44-5.676H.912V11h6.756v1.368l-4.38 5.676z"/></defs></svg>