<svg xmlns="http://www.w3.org/2000/svg" xmlns:xlink="http://www.w3.org/1999/xlink" width="24" height="24" viewBox="0 0 24 24"><g><g><use xlink:href="#path0"/></g></g><defs><path fill-rule="evenodd" d="M3 20a3 3 0 0 1-3-3V3a3 3 0 0 1 3-3h14a3 3 0 0 1 3 3v14a3 3 0 0 1-3 3H3zM3 2a1 1 0 0 0-1 1v14a1 1 0 0 0 1 1h14a1 1 0 0 0 1-1V3a1 1 0 0 0-1-1H3zm5.5 9H15a1 1 0 0 0 0-2H8.5a1 1 0 0 0 0 2zM15 7H8.5a1 1 0 0 1 0-2H15a1 1 0 0 1 0 2zm-6.5 8H15a1 1 0 0 0 0-2H8.5a1 1 0 0 0 0 2zM6 6a1 1 0 1 1-2 0 1 1 0 0 1 2 0zm-1 5a1 1 0 1 0 0-2 1 1 0 0 0 0 2zm1 3a1 1 0 1 1-2 0 1 1 0 0 1 2 0z"/></defs></svg>