<svg xmlns="http://www.w3.org/2000/svg" xmlns:xlink="http://www.w3.org/1999/xlink" width="24" height="24" viewBox="0 0 24 24"><g><g><use xlink:href="#path0"/></g></g><defs><path fill-rule="evenodd" d="M1 8a1 1 0 0 1-1-1V0h7a1 1 0 0 1 0 2H3.414l4.293 4.293a1 1 0 0 1-1.414 1.414L2 3.414V7a1 1 0 0 1-1 1zm12-8h7v7a1 1 0 0 1-2 0V3.414l-4.293 4.293a1 1 0 1 1-1.414-1.414L16.586 2H13a1 1 0 0 1 0-2zM0 20h6a1 1 0 1 0 0-2H3.414l4.293-4.293a1 1 0 0 0-1.414-1.414L2 16.586V14a1 1 0 0 0-2 0v6zm19-8a1 1 0 0 1 1 1v7h-7a1 1 0 0 1 0-2h3.586l-4.293-4.293a1 1 0 0 1 1.414-1.414L18 16.586V13a1 1 0 0 1 1-1z"/></defs></svg>