<svg xmlns="http://www.w3.org/2000/svg" xmlns:xlink="http://www.w3.org/1999/xlink" width="16" height="16" viewBox="0 0 16 16"><g><g><use xlink:href="#path0"/><use xlink:href="#path1"/></g></g><defs><path d="M1.9 12h8.2a1.9 1.9 0 0 0 1.9-1.9V7.59a.9.9 0 1 0-1.8 0v2.51a.1.1 0 0 1-.1.1H1.9a.1.1 0 0 1-.1-.1V1.9a.1.1 0 0 1 .1-.1h2.43a.9.9 0 1 0 0-1.8H1.9A1.9 1.9 0 0 0 0 1.9v8.2C0 11.15.85 12 1.9 12z"/><path d="M5.36.26L1.8 3.83V1.91a.9.9 0 0 0-1.8 0v5h5a.9.9 0 1 0 0-1.8H3.07l3.56-3.56A.905.905 0 0 0 5.36.26z"/></defs></svg>