<svg xmlns="http://www.w3.org/2000/svg" xmlns:xlink="http://www.w3.org/1999/xlink" width="24" height="24" viewBox="0 0 24 24"><g><g><use xlink:href="#path0"/></g></g><defs><path fill-rule="evenodd" d="M2 0h5a2 2 0 0 1 2 2v5a2 2 0 0 1-2 2H2a2 2 0 0 1-2-2V2a2 2 0 0 1 2-2zm0 11h5a2 2 0 0 1 2 2v5a2 2 0 0 1-2 2H2a2 2 0 0 1-2-2v-5a2 2 0 0 1 2-2zm16 0h-5a2 2 0 0 0-2 2v5a2 2 0 0 0 2 2h5a2 2 0 0 0 2-2v-5a2 2 0 0 0-2-2zm-5 7v-5h5v5h-5zM2 18v-5h5v5H2zM2 7V2h5v5H2zm13-1.414L20.293.293a1 1 0 0 1 1.414 1.414L15 8.414l-3.707-3.707a1 1 0 0 1 1.414-1.414L15 5.586z"/></defs></svg>