<svg xmlns="http://www.w3.org/2000/svg" xmlns:xlink="http://www.w3.org/1999/xlink" width="16" height="16" viewBox="0 0 16 16"><g><g><use xlink:href="#path0"/><use xlink:href="#path1"/><use xlink:href="#path2"/><use xlink:href="#path3"/></g></g><defs><path fill-rule="evenodd" d="M11.1 0H1.9A1.9 1.9 0 0 0 0 1.9v9.2A1.9 1.9 0 0 0 1.9 13h9.2a1.9 1.9 0 0 0 1.9-1.9V1.9A1.9 1.9 0 0 0 11.1 0zM1.9 1.8h9.2a.1.1 0 0 1 .1.1v4.3H1.8V1.9a.1.1 0 0 1 .1-.1zm0 9.4h9.2a.1.1 0 0 0 .1-.1V8H1.8v3.1a.1.1 0 0 0 .1.1z"/><path d="M.9 11a.9.9 0 0 0 .9-.9V2.9a1.1 1.1 0 0 1 1.1-1.1h7.2a.9.9 0 1 0 0-1.8H2.9A2.9 2.9 0 0 0 0 2.9v7.2a.9.9 0 0 0 .9.9z"/><path d="M1 2a1 1 0 1 0 0-2 1 1 0 0 0 0 2z"/><path d="M1 2h2a1 1 0 0 0 0-2H1a1 1 0 1 0 0 2z"/></defs></svg>