<svg xmlns="http://www.w3.org/2000/svg" xmlns:xlink="http://www.w3.org/1999/xlink" width="24" height="24" viewBox="0 0 24 24"><g><g><use xlink:href="#path0"/></g></g><defs><path fill-rule="evenodd" d="M2 17a1 1 0 0 1-2 0V4a4 4 0 0 1 4-4h13a1 1 0 0 1 0 2H4a2 2 0 0 0-2 2v13zM6 3h14a3 3 0 0 1 3 3v14a3 3 0 0 1-3 3H6a3 3 0 0 1-3-3V6a3 3 0 0 1 3-3zm14 2H6a1 1 0 0 0-1 1v3h16V6a1 1 0 0 0-1-1zm0 16H6a1 1 0 0 1-1-1v-9h16v9a1 1 0 0 1-1 1zM7 8a1 1 0 1 0 0-2 1 1 0 0 0 0 2zm11.5 0H10a1 1 0 0 1 0-2h8.5a1 1 0 0 1 0 2z"/></defs></svg>