<svg xmlns="http://www.w3.org/2000/svg" xmlns:xlink="http://www.w3.org/1999/xlink" width="16" height="16" viewBox="0 0 16 16"><g><g><use xlink:href="#path0"/><use xlink:href="#path1"/><use xlink:href="#path2"/></g></g><defs><path fill-rule="evenodd" d="M1.9 14h10.2a1.9 1.9 0 0 0 1.9-1.9V1.9A1.9 1.9 0 0 0 12.1 0H1.9A1.9 1.9 0 0 0 0 1.9v10.2C0 13.15.85 14 1.9 14zm10.2-1.8H1.9a.1.1 0 0 1-.1-.1V8h10.4v4.1a.1.1 0 0 1-.1.1zm0-10.4H1.9a.1.1 0 0 0-.1.1v4.3h10.4V1.9a.1.1 0 0 0-.1-.1z"/><path d="M1 2a1 1 0 1 0 0-2 1 1 0 0 0 0 2z"/><path d="M1 2h3a1 1 0 0 0 0-2H1a1 1 0 1 0 0 2z"/></defs></svg>