<svg xmlns="http://www.w3.org/2000/svg" xmlns:xlink="http://www.w3.org/1999/xlink" width="24" height="24" viewBox="0 0 24 24"><g><g><use xlink:href="#path0"/></g></g><defs><path fill-rule="evenodd" d="M3.122 21.122a3.1 3.1 0 0 0 2.207-.915l8.38-8.381a6.014 6.014 0 0 0 2.165.128 6.08 6.08 0 0 0 4.982-4.217 5.8 5.8 0 0 0 .2-2.6 1.973 1.973 0 0 0-1.344-1.577 2 2 0 0 0-2.05.486L15.412 6.3a.346.346 0 0 1-.58 0l-.005-.006a.41.41 0 0 1 0-.58l2.25-2.25a2 2 0 0 0 .486-2.049A1.974 1.974 0 0 0 15.98.065a5.801 5.801 0 0 0-2.6.2A6.08 6.08 0 0 0 9.168 5.25a6.074 6.074 0 0 0 .127 2.163l-8.381 8.38a3.122 3.122 0 0 0 2.208 5.33zM11.1 5.492a4.111 4.111 0 0 1 2.87-3.314A3.874 3.874 0 0 1 15.109 2c.185 0 .37.015.553.044L13.412 4.3a2.422 2.422 0 0 0 .007 3.414c.954.91 2.454.91 3.408 0l2.253-2.267a3.816 3.816 0 0 1-.135 1.708 4.051 4.051 0 0 1-3.313 2.818 4 4 0 0 1-3.337-1.14 4.1 4.1 0 0 1-1.194-3.34zm-.934 3.877l-7.838 7.838a1.123 1.123 0 0 0 0 1.586 1.147 1.147 0 0 0 1.586 0l7.833-7.834a5.75 5.75 0 0 1-1.581-1.59z"/></defs></svg>