<svg xmlns="http://www.w3.org/2000/svg" xmlns:xlink="http://www.w3.org/1999/xlink" width="16" height="16" viewBox="0 0 16 16"><g><g><use xlink:href="#path0"/></g></g><defs><path fill-rule="evenodd" d="M2.313 15.736a2.31 2.31 0 0 0 1.64-.68l5.55-5.55a4.87 4.87 0 0 0 1.4.23 4.92 4.92 0 0 0 4.87-4.3 1.82 1.82 0 0 0-1-1.87 1.89 1.89 0 0 0-2.18.36l-.87.87a.516.516 0 0 1-.73-.73l.87-.87a1.89 1.89 0 0 0 .36-2.18 1.82 1.82 0 0 0-1.87-1h-.12a4.9 4.9 0 0 0-4.17 4.05 4.999 4.999 0 0 0 .15 2.18l-5.53 5.54a2.31 2.31 0 0 0 1.63 3.95zm5.53-11.4a3.12 3.12 0 0 1 2.62-2.57h.06l-.11-.93.14 1.05-.87.87a2.312 2.312 0 1 0 3.27 3.27l.95-.86.07.1a3.1 3.1 0 1 1-6.13-.93zm-.75 3.58l-5.14 5.14a.516.516 0 0 0 .73.73l5.15-5.15a4.884 4.884 0 0 1-.4-.33 5.008 5.008 0 0 1-.34-.39z"/></defs></svg>