<svg xmlns="http://www.w3.org/2000/svg" xmlns:xlink="http://www.w3.org/1999/xlink" width="24" height="24" viewBox="0 0 24 24"><g><g><use xlink:href="#path0"/></g></g><defs><path fill-rule="evenodd" d="M12.556 15.971a8.5 8.5 0 1 1 3.414-3.414l5.736 5.736a2.46 2.46 0 0 1 .128 3.554 2.38 2.38 0 0 1-1.675.688 2.624 2.624 0 0 1-1.867-.828l-5.736-5.736zm7.978 4.194a.72.72 0 0 0-.242-.458l-5.5-5.5c-.186.204-.381.4-.586.585l5.5 5.5c.271.272.531.322.714.14a.38.38 0 0 0 .114-.267zM8.5 2a6.5 6.5 0 1 1-6.5 6.5 6.507 6.507 0 0 1 6.5-6.5zm-1 7.5H4.963a1 1 0 0 1 0-2h2.536V4.965a1 1 0 0 1 2 0V7.5h2.536a1 1 0 1 1 0 2H9.499v2.536a1 1 0 0 1-2 0V9.5z"/></defs></svg>