<svg xmlns="http://www.w3.org/2000/svg" xmlns:xlink="http://www.w3.org/1999/xlink" width="24" height="24" viewBox="0 0 24 24"><g><g><use xlink:href="#path0"/></g></g><defs><path fill-rule="evenodd" d="M12.556 15.971a8.5 8.5 0 1 1 3.414-3.414l5.736 5.736a2.462 2.462 0 0 1 .128 3.554 2.381 2.381 0 0 1-1.675.688 2.622 2.622 0 0 1-1.867-.828l-5.736-5.736zm7.977 4.194a.714.714 0 0 0-.24-.458l-5.5-5.5c-.187.204-.382.4-.587.585l5.5 5.5c.273.272.532.321.714.14a.374.374 0 0 0 .113-.267zM8.5 2a6.5 6.5 0 1 1-6.5 6.5 6.507 6.507 0 0 1 6.5-6.5zm3.536 7.5h-7.07a1 1 0 0 1 0-2h7.07a1 1 0 0 1 0 2z"/></defs></svg>