<svg xmlns="http://www.w3.org/2000/svg" xmlns:xlink="http://www.w3.org/1999/xlink" width="16" height="16" viewBox="0 0 16 16"><g><g><use xlink:href="#path0"/><use xlink:href="#path1"/></g></g><defs><path fill-rule="evenodd" d="M9.912 1.45a6 6 0 0 1 .918 8.11l3.81 3.81a.9.9 0 0 1-1.27 1.27l-3.81-3.81a6 6 0 1 1 .352-9.38zM1.8 6.01a4.2 4.2 0 1 0 8.4 0 4.2 4.2 0 0 0-8.4 0z"/><path d="M5.14 2.12H3.92V.9a.9.9 0 1 0-1.8 0v1.22H.9a.9.9 0 1 0 0 1.8h1.22v1.22a.9.9 0 0 0 1.8 0V3.92h1.22a.9.9 0 1 0 0-1.8z"/></defs></svg>