<?xml version="1.0" encoding="UTF-8"?>
<svg width="24px" height="24px" viewBox="0 0 24 24" version="1.1" xmlns="http://www.w3.org/2000/svg" xmlns:xlink="http://www.w3.org/1999/xlink">
    <!-- Generator: sketchtool 49.1 (51147) - http://www.bohemiancoding.com/sketch -->
    <title>alert-snooze</title>
    <desc>Created with sketchtool.</desc>
    <defs></defs>
    <g id="Icons" stroke="none" stroke-width="1" fill="none" fill-rule="evenodd">
        <g id="alert-snooze" fill="#000000" fill-rule="nonzero">
            <path d="M12.7071068,3.70710678 C12.5261424,3.88807119 12.2761424,4 12,4 C9.23857625,4 7,6.23857625 7,9 L7,17 L17,17 L17,12 C17,11.4477153 17.4477153,11 18,11 C18.5522847,11 19,11.4477153 19,12 L19,17 L20,17 C20.5522847,17 21,17.4477153 21,18 C21,18.5522847 20.5522847,19 20,19 L4,19 C3.44771525,19 3,18.5522847 3,18 C3,17.4477153 3.44771525,17 4,17 L5,17 L5,9 C5,5.47352809 7.60770586,2.55611852 11,2.07088886 L11,1 C11,0.44771525 11.4477153,8.8817842e-16 12,8.8817842e-16 C12.5522847,8.8817842e-16 13,0.44771525 13,1 L13,3 C13,3.27614237 12.8880712,3.52614237 12.7071068,3.70710678 Z M10,22 C9.44771525,22 9,21.5522847 9,21 C9,20.4477153 9.44771525,20 10,20 L14,20 C14.5522847,20 15,20.4477153 15,21 C15,21.5522847 14.5522847,22 14,22 L10,22 Z M15.7191312,7.37530495 L18.4193752,4 L16,4 C15.4477153,4 15,3.55228475 15,3 C15,2.44771525 15.4477153,2 16,2 L20.5,2 C21.3385062,2 21.8046795,2.9699317 21.2808688,3.62469505 L18.5806248,7 L21,7 C21.5522847,7 22,7.44771525 22,8 C22,8.55228475 21.5522847,9 21,9 L16.5,9 C15.6614938,9 15.1953205,8.0300683 15.7191312,7.37530495 Z" id="Combined-Shape"></path>
        </g>
    </g>
</svg>