<?xml version="1.0" encoding="UTF-8"?>
<svg width="24px" height="24px" viewBox="0 0 24 24" version="1.1" xmlns="http://www.w3.org/2000/svg" xmlns:xlink="http://www.w3.org/1999/xlink">
    <!-- Generator: sketchtool 44.1 (41455) - http://www.bohemiancoding.com/sketch -->
    <title>apple</title>
    <desc>Created with sketchtool.</desc>
    <defs></defs>
    <g id="Symbols" stroke="none" stroke-width="1" fill="none" fill-rule="evenodd">
        <g id="apple" fill="#000000">
            <path d="M22,17.5240385 C21.626705,18.7259615 21.0380474,19.9278846 20.2340273,21.1298077 C18.9992821,23.0144231 17.7693228,23.9567308 16.5441493,23.9567308 C16.0751376,23.9567308 15.4051208,23.8028846 14.5340991,23.4951923 C13.7109356,23.1875 12.9882747,23.0336538 12.3661163,23.0336538 C11.7822446,23.0336538 11.1026561,23.1923077 10.327351,23.5096154 C9.55204594,23.8365385 8.92031587,24 8.4321608,24 C6.97726729,24 5.53673128,22.7548077 4.11055276,20.2644231 C2.70351759,17.7548077 2,15.3365385 2,13.0096154 C2,10.8173077 2.54079923,9.01923077 3.6223977,7.61538462 C4.6944245,6.23076923 6.05360134,5.53846154 7.69992821,5.53846154 C8.3890883,5.53846154 9.2361809,5.68269231 10.241206,5.97115385 C11.2366595,6.25961538 11.8971046,6.40384615 12.2225413,6.40384615 C12.6532663,6.40384615 13.3376406,6.24038462 14.275664,5.91346154 C15.2519742,5.58653846 16.0799234,5.42307692 16.7595118,5.42307692 C17.8985403,5.42307692 18.9179229,5.73557692 19.8176597,6.36057692 C20.3153865,6.70673077 20.8131132,7.1875 21.3108399,7.80288462 C20.5546782,8.44711538 20.0090931,9.01442308 19.6740847,9.50480769 C19.0519263,10.4086538 18.7408471,11.4038462 18.7408471,12.4903846 C18.7408471,13.6826923 19.0710696,14.7548077 19.7315147,15.7067308 C20.3919598,16.6586538 21.1481216,17.2644231 22,17.5240385 L22,17.5240385 Z M16.6015793,0.605769231 C16.6015793,1.19230769 16.4627901,1.84615385 16.1852118,2.56730769 C15.8980617,3.28846154 15.4529792,3.95192308 14.8499641,4.55769231 C14.333094,5.07692308 13.816224,5.42307692 13.2993539,5.59615385 C12.9452022,5.70192308 12.4474755,5.78365385 11.8061737,5.84134615 C11.8348887,4.40865385 12.2081838,3.17307692 12.9260589,2.13461538 C13.6343623,1.10576923 14.8308208,0.394230769 16.5154343,0 C16.525006,0.0288461538 16.5369706,0.0817307692 16.5513281,0.158653846 C16.5656856,0.235576923 16.5776502,0.288461538 16.5872218,0.317307692 C16.5872218,0.355769231 16.5896147,0.403846154 16.5944006,0.461538462 C16.5991864,0.519230769 16.6015793,0.567307692 16.6015793,0.605769231 L16.6015793,0.605769231 Z" id="Shape"></path>
        </g>
    </g>
</svg>