<?xml version="1.0" encoding="UTF-8"?>
<svg width="24px" height="24px" viewBox="0 0 24 24" version="1.1" xmlns="http://www.w3.org/2000/svg" xmlns:xlink="http://www.w3.org/1999/xlink">
    <!-- Generator: sketchtool 44.1 (41455) - http://www.bohemiancoding.com/sketch -->
    <title>bank-account-plus</title>
    <desc>Created with sketchtool.</desc>
    <defs></defs>
    <g id="Symbols" stroke="none" stroke-width="1" fill="none" fill-rule="evenodd">
        <g id="bank-account-plus" fill-rule="nonzero" fill="#000000">
            <path d="M19,17.142 L19,12 C19,11.4477153 18.5522847,11 18,11 C17.4477153,11 17,11.4477153 17,12 L17,17 L15,17 L15,11 C15,10.4477153 14.5522847,10 14,10 C13.4477153,10 13,10.4477153 13,11 L13,17 L11,17 L11,11 C11,10.4477153 10.5522847,10 10,10 C9.44771525,10 9,10.4477153 9,11 L9,17 L7,17 L7,9 L12,9 C12.5522847,9 13,8.55228475 13,8 C13,7.44771525 12.5522847,7 12,7 L8.256,7 L11.445,5.414 C11.939571,5.16795714 12.1410429,4.56757099 11.895,4.073 C11.6489571,3.57842901 11.048571,3.37695714 10.554,3.623 L3.554,7.104 C3.13753631,7.31039554 2.91818819,7.77653126 3.02461958,8.228984 C3.13105098,8.68143674 3.53519864,9.00090626 4,9 L5,9 L5,17.142 C3.23931486,17.5965933 2.00681482,19.1815884 2,21 L2,22 L22,22 L22,21 C21.9931852,19.1815884 20.7606851,17.5965933 19,17.142 L19,17.142 Z M4.269,20 C4.62607782,19.3815228 5.28584427,19.0003753 6,19 L18,19 C18.7141557,19.0003753 19.3739222,19.3815228 19.731,20 L4.269,20 Z M21,4 C21.5522847,4 22,4.44771525 22,5 C22,5.55228475 21.5522847,6 21,6 L19,6 L19,8 C19,8.55228475 18.5522847,9 18,9 C17.4477153,9 17,8.55228475 17,8 L17,6 L15,6 C14.4477153,6 14,5.55228475 14,5 C14,4.44771525 14.4477153,4 15,4 L17,4 L17,2 C17,1.44771525 17.4477153,1 18,1 C18.5522847,1 19,1.44771525 19,2 L19,4 L21,4 Z" id="Combined-Shape"></path>
        </g>
    </g>
</svg>