<?xml version="1.0" encoding="UTF-8"?>
<svg width="24px" height="24px" viewBox="0 0 24 24" version="1.1" xmlns="http://www.w3.org/2000/svg" xmlns:xlink="http://www.w3.org/1999/xlink">
    <!-- Generator: sketchtool 49.1 (51147) - http://www.bohemiancoding.com/sketch -->
    <title>bank-account-number</title>
    <desc>Created with sketchtool.</desc>
    <defs></defs>
    <g id="Icons" stroke="none" stroke-width="1" fill="none" fill-rule="evenodd">
        <g id="bank-account-number" fill="#000000" fill-rule="nonzero">
            <path d="M19.1,17.142 L19.1,12 C19.1,11.4477153 18.6522847,11 18.1,11 C17.5477153,11 17.1,11.4477153 17.1,12 L17.1,17 L15.1,17 L15.1,11 C15.1,10.4477153 14.6522847,10 14.1,10 C13.5477153,10 13.1,10.4477153 13.1,11 L13.1,17 L11.1,17 L11.1,11 C11.1,10.4477153 10.6522847,10 10.1,10 C9.54771525,10 9.1,10.4477153 9.1,11 L9.1,17 L7.1,17 L7.1,9 L12.1,9 C12.6522847,9 13.1,8.55228475 13.1,8 C13.1,7.44771525 12.6522847,7 12.1,7 L8.355,7 L11.544,5.414 C12.038571,5.16795714 12.2400429,4.56757099 11.994,4.073 C11.7479571,3.57842901 11.147571,3.37695714 10.653,3.623 L3.653,7.104 C3.23636591,7.3104771 3.01702833,7.77688952 3.12372916,8.22947287 C3.23042998,8.68205623 3.63501089,9.00137394 4.1,9 L5.1,9 L5.1,17.142 C3.33931486,17.5965933 2.10681482,19.1815884 2.1,21 L2.1,22 L22.1,22 L22.1,21 C22.0931852,19.1815884 20.8606851,17.5965933 19.1,17.142 L19.1,17.142 Z M4.368,20 C4.72525651,19.3812136 5.38548697,19.0000182 6.1,19 L18.1,19 C18.8141557,19.0003753 19.4739222,19.3815228 19.831,20 L4.368,20 Z M22,5 L21,5 L21,6 L21.989,6 C22.5412847,6 22.989,6.44771525 22.989,7 C22.989,7.55228475 22.5412847,8 21.989,8 L21,8 L21,9 C21,9.55228475 20.5522847,10 20,10 C19.4477153,10 19,9.55228475 19,9 L19,8 L18,8 L18,9 C18,9.55228475 17.5522847,10 17,10 C16.4477153,10 16,9.55228475 16,9 L16,8 L15.011,8 C14.4587153,8 14.011,7.55228475 14.011,7 C14.011,6.44771525 14.4587153,6 15.011,6 L16,6 L16,5 L15.011,5 C14.4587153,5 14.011,4.55228475 14.011,4 C14.011,3.44771525 14.4587153,3 15.011,3 L16,3 L16,2 C15.9837711,1.74176024 16.0745943,1.48823245 16.2511099,1.29904103 C16.4276255,1.10984961 16.6742563,1.00169034 16.933,1 C17.4994696,0.99278825 17.9705119,1.4342525 18,2 L18,3 L19,3 L19,2 C18.9913323,1.7379455 19.0893404,1.48358438 19.2716061,1.2950986 C19.4538718,1.10661282 19.7048022,1.00012756 19.967,1 C20.2341172,0.997061532 20.4913062,1.10111973 20.6812284,1.28897554 C20.8711507,1.47683135 20.9780162,1.73286659 20.978,2 L20.978,3 L21.989,3 C22.3462656,2.99803504 22.6774409,3.18681826 22.8577754,3.49523686 C23.0381099,3.80365546 23.0402065,4.1848533 22.8632754,4.49523686 C22.6863443,4.80562042 22.3572656,4.99803504 22,5 Z M19,6 L19,5 L18,5 L18,6 L19,6 Z" id="Combined-Shape"></path>
        </g>
    </g>
</svg>