<?xml version="1.0" encoding="UTF-8"?>
<svg width="24px" height="24px" viewBox="0 0 24 24" version="1.1" xmlns="http://www.w3.org/2000/svg" xmlns:xlink="http://www.w3.org/1999/xlink">
    <!-- Generator: sketchtool 44.1 (41455) - http://www.bohemiancoding.com/sketch -->
    <title>basic-cross-framed</title>
    <desc>Created with sketchtool.</desc>
    <defs></defs>
    <g id="Symbols" stroke="none" stroke-width="1" fill="none" fill-rule="evenodd">
        <g id="basic-cross-framed" fill-rule="nonzero" fill="#000000">
            <path d="M12,2 C6.4771525,2 2,6.4771525 2,12 C2,17.5228475 6.4771525,22 12,22 C17.5228475,22 22,17.5228475 22,12 C22,9.3478351 20.9464316,6.80429597 19.0710678,4.92893219 C17.195704,3.0535684 14.6521649,2 12,2 L12,2 Z M12,20 C7.581722,20 4,16.418278 4,12 C4,7.581722 7.581722,4 12,4 C16.418278,4 20,7.581722 20,12 C20,14.1217319 19.1571453,16.1565632 17.6568542,17.6568542 C16.1565632,19.1571453 14.1217319,20 12,20 Z M15.71,8.29 C15.3199625,7.90227641 14.6900375,7.90227641 14.3,8.29 L12,10.59 L9.71,8.29 C9.31787782,7.89787785 8.68212219,7.89787787 8.29000003,8.29000003 C7.89787787,8.68212219 7.89787785,9.31787782 8.29,9.71 L10.59,12 L8.29,14.29 C8.00462384,14.5343899 7.88031806,14.9181184 7.96818987,15.283419 C8.05606167,15.6487195 8.34128045,15.9339383 8.70658103,16.0218101 C9.0718816,16.1096819 9.45561012,15.9853762 9.7,15.7 L12,13.41 L14.29,15.7 C14.6867603,16.0397768 15.2781942,16.0169323 15.6475632,15.6475632 C16.0169323,15.2781942 16.0397768,14.6867603 15.7,14.29 L13.41,12 L15.7,9.71 C15.8906411,9.52356992 15.998931,9.26872275 16.0008087,9.00208316 C16.0026865,8.73544357 15.8979965,8.47909655 15.71,8.29 Z" id="Combined-Shape"></path>
        </g>
    </g>
</svg>