<?xml version="1.0" encoding="UTF-8"?>
<svg width="24px" height="24px" viewBox="0 0 24 24" version="1.1" xmlns="http://www.w3.org/2000/svg" xmlns:xlink="http://www.w3.org/1999/xlink">
    <!-- Generator: sketchtool 44.1 (41455) - http://www.bohemiancoding.com/sketch -->
    <title>bathroom</title>
    <desc>Created with sketchtool.</desc>
    <defs></defs>
    <g id="Symbols" stroke="none" stroke-width="1" fill="none" fill-rule="evenodd">
        <g id="bathroom" fill-rule="nonzero" fill="#000000">
            <path d="M7,21 L17,21 C19.7580047,20.991763 21.991763,18.7580047 22,16 L22,11 L4,11 L4,6 C4,5.44771525 4.44771525,5 5,5 C5.55228475,5 6,5.44771525 6,6 C6,6.55228475 6.44771525,7 7,7 C7.55228475,7 8,6.55228475 8,6 C8,4.34314575 6.65685425,3 5,3 C3.34314575,3 2,4.34314575 2,6 L2,16 C2.008237,18.7580047 4.24199533,20.991763 7,21 L7,21 Z M4,13 L20,13 L20,16 C19.9950578,17.6548028 18.6548028,18.9950578 17,19 L7,19 C5.3451972,18.9950578 4.0049422,17.6548028 4,16 L4,13 Z M7,10 C6.44771525,10 6,9.55228475 6,9 C6,8.44771525 6.44771525,8 7,8 C7.55228475,8 8,8.44771525 8,9 C8,9.55228475 7.55228475,10 7,10 Z" id="Combined-Shape"></path>
        </g>
    </g>
</svg>