<?xml version="1.0" encoding="UTF-8"?>
<svg width="24px" height="24px" viewBox="0 0 24 24" version="1.1" xmlns="http://www.w3.org/2000/svg" xmlns:xlink="http://www.w3.org/1999/xlink">
    <!-- Generator: sketchtool 49.1 (51147) - http://www.bohemiancoding.com/sketch -->
    <title>bin</title>
    <desc>Created with sketchtool.</desc>
    <defs></defs>
    <g id="Icons" stroke="none" stroke-width="1" fill="none" fill-rule="evenodd">
        <g id="bin" fill="#000000" fill-rule="nonzero">
            <path d="M19,5.99999935 L15.961,5.99999935 C15.8907146,3.8356235 14.1635837,2.09148752 12,2 C9.83328811,2.08741451 8.1015548,3.8326733 8.031,5.99999935 L5,5.99999935 C4.44771525,5.99999935 4,6.44771453 4,6.99999919 C4,7.55228385 4.44771525,7.99999903 5,7.99999903 L5.07,7.99999903 L6,21.0709969 C6.03732352,21.5953771 6.47429476,22.0013234 7,21.9999968 L17,21.9999968 C17.5257052,22.0013234 17.9626765,21.5953771 18,21.0709969 L18.93,7.99999903 L19,7.99999903 C19.5522847,7.99999903 20,7.55228385 20,6.99999919 C20,6.44771453 19.5522847,5.99999935 19,5.99999935 Z M12,4 C13.0650637,4.07771506 13.9070142,4.93379079 13.967,6 L10.029,6 C10.0892113,4.93237838 10.9333716,4.07579758 12,4 L12,4 Z M16.072,20 L7.932,20 L7.075,8 L16.926,8 L16.072,20 Z M14,19 C14.5522847,19 15,18.5522847 15,18 L15,11 C15,10.4477153 14.5522847,10 14,10 C13.4477153,10 13,10.4477153 13,11 L13,18 C13,18.5522847 13.4477153,19 14,19 Z M10,19 C10.5522847,19 11,18.5522847 11,18 L11,11 C11,10.4477153 10.5522847,10 10,10 C9.44771525,10 9,10.4477153 9,11 L9,18 C9,18.5522847 9.44771525,19 10,19 Z" id="Combined-Shape"></path>
        </g>
    </g>
</svg>