<?xml version="1.0" encoding="UTF-8"?>
<svg width="24px" height="24px" viewBox="0 0 24 24" version="1.1" xmlns="http://www.w3.org/2000/svg" xmlns:xlink="http://www.w3.org/1999/xlink">
    <!-- Generator: sketchtool 44.1 (41455) - http://www.bohemiancoding.com/sketch -->
    <title>bin</title>
    <desc>Created with sketchtool.</desc>
    <defs></defs>
    <g id="Symbols" stroke="none" stroke-width="1" fill="none" fill-rule="evenodd">
        <g id="bin" fill-rule="nonzero" fill="#000000">
            <path d="M19,6 L15.961,6 C15.8907146,3.8356238 14.1635837,2.09148754 12,2 C9.83328811,2.08741453 8.1015548,3.8326736 8.031,6 L5,6 C4.44771525,6 4,6.44771525 4,7 C4,7.55228475 4.44771525,8 5,8 L5.07,8 L6,21.071 C6.03732352,21.5953803 6.47429476,22.0013266 7,22 L17,22 C17.5257052,22.0013266 17.9626765,21.5953803 18,21.071 L18.93,8 L19,8 C19.5522847,8 20,7.55228475 20,7 C20,6.44771525 19.5522847,6 19,6 Z M12,4 C13.0650637,4.07771506 13.9070142,4.93379079 13.967,6 L10.029,6 C10.0892113,4.93237838 10.9333716,4.07579758 12,4 L12,4 Z M16.072,20 L7.932,20 L7.075,8 L16.926,8 L16.072,20 Z M14,19 C14.5522847,19 15,18.5522847 15,18 L15,11 C15,10.4477153 14.5522847,10 14,10 C13.4477153,10 13,10.4477153 13,11 L13,18 C13,18.5522847 13.4477153,19 14,19 Z M10,19 C10.5522847,19 11,18.5522847 11,18 L11,11 C11,10.4477153 10.5522847,10 10,10 C9.44771525,10 9,10.4477153 9,11 L9,18 C9,18.5522847 9.44771525,19 10,19 Z" id="Combined-Shape"></path>
        </g>
    </g>
</svg>