<?xml version="1.0" encoding="UTF-8"?>
<svg width="24px" height="24px" viewBox="0 0 24 24" version="1.1" xmlns="http://www.w3.org/2000/svg" xmlns:xlink="http://www.w3.org/1999/xlink">
    <!-- Generator: sketchtool 49.1 (51147) - http://www.bohemiancoding.com/sketch -->
    <title>binoculars-plus</title>
    <desc>Created with sketchtool.</desc>
    <defs></defs>
    <g id="Icons" stroke="none" stroke-width="1" fill="none" fill-rule="evenodd">
        <g id="binoculars-plus" fill="#000000" fill-rule="nonzero">
            <path d="M1.088,4 L1.088,7.539 C1.08758654,8.6133428 1.26047374,9.68071862 1.6,10.7 L3.226,15.579 C3.90443175,17.6232703 5.81709527,19.0022422 7.971,19 L11,19 C11.5522847,19 12,18.5522847 12,18 C12,17.4477153 11.5522847,17 11,17 L7.971,17 C6.67954584,16.9998805 5.53309951,16.173279 5.125,14.948 L3.5,10.069 C3.28405821,9.39895028 3.15795828,8.70321493 3.125,8 L8.088,8 L8.088,10 C8.1170744,12.1969833 9.8910167,13.9709256 12.088,14 C13.148866,14 14.1662816,13.5785726 14.9164271,12.8284271 C15.6665726,12.0782816 16.088,11.060866 16.088,10 L16.088,8 L21.051,8 C21.0166313,8.71588513 20.8875064,9.42405451 20.667,10.106 L20.488,10.72 C20.3812286,11.0651133 20.4688927,11.4409835 20.7173239,11.703253 C20.965755,11.9655225 21.3363263,12.0734128 21.6867153,11.9854873 C22.0371043,11.8975617 22.3128313,11.6274914 22.408,11.279 L22.575,10.702 C22.9149081,9.68209608 23.0881315,8.6140542 23.088,7.539 L23.088,4 C23.088,2.8954305 22.1925695,2 21.088,2 L16.088,2 C14.9834305,2 14.088,2.8954305 14.088,4 L14.088,10 C14.0724149,11.0980491 13.1860491,11.9844149 12.088,12 C11.0008949,11.9589338 10.1290662,11.0871051 10.088,10 L10.088,4 C10.088,2.8954305 9.1925695,2 8.088,2 L3.088,2 C2.55756702,2 2.04885919,2.21071368 1.67378644,2.58578644 C1.29871368,2.96085919 1.088,3.46956702 1.088,4 L1.088,4 Z M21.088,4 L21.088,6 L16.088,6 L16.088,4 L21.088,4 Z M8.088,4 L8.088,6 L3.088,6 L3.088,4 L8.088,4 Z M11.088,21 C11.088,21.5522847 10.6402847,22 10.088,22 L6.088,22 C5.53571525,22 5.088,21.5522847 5.088,21 C5.088,20.4477153 5.53571525,20 6.088,20 L10.088,20 C10.6402847,20 11.088,20.4477153 11.088,21 Z M23,18.044 C23.5522847,18.044 24,18.4917153 24,19.044 C24,19.5962847 23.5522847,20.044 23,20.044 L19.956,20.044 L19.956,23 C19.956,23.5522847 19.5082847,24 18.956,24 C18.4037153,24 17.956,23.5522847 17.956,23 L17.956,20.044 L15,20.044 C14.4477153,20.044 14,19.5962847 14,19.044 C14,18.4917153 14.4477153,18.044 15,18.044 L17.956,18.044 L17.956,15 C17.956,14.4477153 18.4037153,14 18.956,14 C19.5082847,14 19.956,14.4477153 19.956,15 L19.956,18.044 L23,18.044 Z" id="Combined-Shape"></path>
        </g>
    </g>
</svg>