<?xml version="1.0" encoding="UTF-8"?>
<svg width="24px" height="24px" viewBox="0 0 24 24" version="1.1" xmlns="http://www.w3.org/2000/svg" xmlns:xlink="http://www.w3.org/1999/xlink">
    <!-- Generator: sketchtool 49.1 (51147) - http://www.bohemiancoding.com/sketch -->
    <title>binoculars-tick</title>
    <desc>Created with sketchtool.</desc>
    <defs></defs>
    <g id="Icons" stroke="none" stroke-width="1" fill="none" fill-rule="evenodd">
        <g id="binoculars-tick" fill="#000000" fill-rule="nonzero">
            <path d="M3.14,15.581 C3.81889494,17.6237803 5.73036282,19.0016653 7.883,19 L10.117,19 C10.6692847,19 11.117,18.5522847 11.117,18 C11.117,17.4477153 10.6692847,17 10.117,17 L7.883,17 C6.59117777,17.0003111 5.4442158,16.1736283 5.036,14.948 L3.411,10.069 C3.19522564,9.3989472 3.06945798,8.70318974 3.037,8 L8,8 L8,10 C8.0290744,12.1969833 9.8030167,13.9709256 12,14 C14.209139,14 16,12.209139 16,10 L16,8 L20.963,8 C20.9306683,8.70206008 20.8055827,9.39675568 20.591,10.066 L20.384,10.68 C20.2157697,11.2008006 20.4974526,11.7600852 21.0160596,11.9349611 C21.5346665,12.109837 22.0975071,11.8353285 22.279,11.319 L22.488,10.702 C22.82728,9.68196938 23.0001579,8.61397598 23,7.539 L23,4 C23,2.8954305 22.1045695,2 21,2 L16,2 C14.8954305,2 14,2.8954305 14,4 L14,10 C13.9844149,11.0980491 13.0980491,11.9844149 12,12 C10.9128949,11.9589338 10.0410662,11.0871051 10,10 L10,4 C10,2.8954305 9.1045695,2 8,2 L3,2 C1.8954305,2 1,2.8954305 1,4 L1,7.539 C1.00023142,8.61345175 1.1737944,9.68083035 1.514,10.7 L3.14,15.581 Z M21,4 L21,6 L16,6 L16,4 L21,4 Z M8,4 L8,6 L3,6 L3,4 L8,4 Z M10,20 C10.5522847,20 11,20.4477153 11,21 C11,21.5522847 10.5522847,22 10,22 L6,22 C5.44771525,22 5,21.5522847 5,21 C5,20.4477153 5.44771525,20 6,20 L10,20 Z M22.293,14.293 C22.6853789,13.9140278 23.3090848,13.9194476 23.6948186,14.3051814 C24.0805524,14.6909152 24.0859722,15.3146211 23.707,15.707 L17,22.414 L13.293,18.707 C12.9140278,18.3146211 12.9194476,17.6909152 13.3051814,17.3051814 C13.6909152,16.9194476 14.3146211,16.9140278 14.707,17.293 L17,19.586 L22.293,14.293 Z" id="Combined-Shape"></path>
        </g>
    </g>
</svg>