<?xml version="1.0" encoding="UTF-8"?>
<svg width="24px" height="24px" viewBox="0 0 24 24" version="1.1" xmlns="http://www.w3.org/2000/svg" xmlns:xlink="http://www.w3.org/1999/xlink">
    <!-- Generator: sketchtool 44.1 (41455) - http://www.bohemiancoding.com/sketch -->
    <title>bookmark</title>
    <desc>Created with sketchtool.</desc>
    <defs></defs>
    <g id="Symbols" stroke="none" stroke-width="1" fill="none" fill-rule="evenodd">
        <g id="bookmark" fill-rule="nonzero" fill="#000000">
            <path d="M13,18.157 L20,22.241 L20,6 C20.011355,4.93569365 19.593575,3.91166719 18.8409539,3.15904612 C18.0883328,2.40642505 17.0643064,1.98864498 16,2 L5,2 C3.36892521,2.06064333 2.06064333,3.36892521 2,5 L2,10 L6,10 L6,22.241 L13,18.157 Z M16,4 C16.5321532,3.99432249 17.0441664,4.20321252 17.4204769,4.57952306 C17.7967875,4.95583359 18.0056775,5.46784682 18,6 L18,18.759 L13,15.843 L8,18.759 L8,5 C7.99685643,4.6570509 7.92900174,4.31777746 7.8,4 L16,4 Z M4,8 L4,5 C4.05849097,4.47384161 4.47384161,4.05849097 5,4 C5.52547412,4.05991203 5.94008797,4.47452588 6,5 L6,8 L4,8 Z" id="Shape"></path>
        </g>
    </g>
</svg>