<?xml version="1.0" encoding="UTF-8"?>
<svg width="24px" height="24px" viewBox="0 0 24 24" version="1.1" xmlns="http://www.w3.org/2000/svg" xmlns:xlink="http://www.w3.org/1999/xlink">
    <!-- Generator: sketchtool 49.1 (51147) - http://www.bohemiancoding.com/sketch -->
    <title>box</title>
    <desc>Created with sketchtool.</desc>
    <defs></defs>
    <g id="Icons" stroke="none" stroke-width="1" fill="none" fill-rule="evenodd">
        <g id="box" fill="#000000" fill-rule="nonzero">
            <path d="M20,3 L4,3 C2.8954305,3 2,3.8954305 2,5 L2,8 C2,8.55228475 2.44771525,9 3,9 L3,19 C3,20.1045695 3.8954305,21 5,21 L19,21 C20.1045695,21 21,20.1045695 21,19 L21,9 C21.5522847,9 22,8.55228475 22,8 L22,5 C22,3.8954305 21.1045695,3 20,3 Z M4,5 L20,5 L20,7 L4,7 L4,5 Z M19,19 L5,19 L5,9 L19,9 L19,19 Z M9,13 L15,13 C15.5522847,13 16,12.5522847 16,12 C16,11.4477153 15.5522847,11 15,11 L9,11 C8.44771525,11 8,11.4477153 8,12 C8,12.5522847 8.44771525,13 9,13 Z" id="Combined-Shape"></path>
        </g>
    </g>
</svg>