<?xml version="1.0" encoding="UTF-8"?>
<svg width="24px" height="24px" viewBox="0 0 24 24" version="1.1" xmlns="http://www.w3.org/2000/svg" xmlns:xlink="http://www.w3.org/1999/xlink">
    <!-- Generator: sketchtool 44.1 (41455) - http://www.bohemiancoding.com/sketch -->
    <title>briefcase</title>
    <desc>Created with sketchtool.</desc>
    <defs></defs>
    <g id="Symbols" stroke="none" stroke-width="1" fill="none" fill-rule="evenodd">
        <g id="briefcase" fill-rule="nonzero" fill="#000000">
            <path d="M4,22 L20,22 C21.6568542,22 23,20.6568542 23,19 L23,7 C23,5.34314575 21.6568542,4 20,4 L17,4 C17,2.34314575 15.6568542,1 14,1 L10,1 C8.34314575,1 7,2.34314575 7,4 L4,4 C2.34314575,4 1,5.34314575 1,7 L1,19 C1,20.6568542 2.34314575,22 4,22 Z M20,20 L4,20 C3.44771525,20 3,19.5522847 3,19 L3,10 L21,10 L21,19 C21,19.5522847 20.5522847,20 20,20 Z M10,3 L14,3 C14.5522847,3 15,3.44771525 15,4 L9,4 C9,3.44771525 9.44771525,3 10,3 Z M4,6 L20,6 C20.5522847,6 21,6.44771525 21,7 L21,8 L3,8 L3,7 C3,6.44771525 3.44771525,6 4,6 Z M14,11 C14.5522847,11 15,11.4477153 15,12 C15,12.5522847 14.5522847,13 14,13 L10,13 C9.44771525,13 9,12.5522847 9,12 C9,11.4477153 9.44771525,11 10,11 L14,11 Z" id="Combined-Shape"></path>
        </g>
    </g>
</svg>