<?xml version="1.0" encoding="UTF-8"?>
<svg width="24px" height="24px" viewBox="0 0 24 24" version="1.1" xmlns="http://www.w3.org/2000/svg" xmlns:xlink="http://www.w3.org/1999/xlink">
    <!-- Generator: sketchtool 49.1 (51147) - http://www.bohemiancoding.com/sketch -->
    <title>camera-plus</title>
    <desc>Created with sketchtool.</desc>
    <defs></defs>
    <g id="Icons" stroke="none" stroke-width="1" fill="none" fill-rule="evenodd">
        <g id="camera-plus" fill="#000000" fill-rule="nonzero">
            <path d="M22,18 C22.5522847,18 23,18.4477153 23,19 C23,19.5522847 22.5522847,20 22,20 L20,20 L20,22 C20,22.5522847 19.5522847,23 19,23 C18.4477153,23 18,22.5522847 18,22 L18,20 L16,20 C15.4477153,20 15,19.5522847 15,19 C15,18.4477153 15.4477153,18 16,18 L18,18 L18,16 C18,15.4477153 18.4477153,15 19,15 C19.5522847,15 20,15.4477153 20,16 L20,18 L22,18 Z M16,5 C17.1045695,5 18,5.8954305 18,7 C18,7.061 17.987,7.119 17.982,7.179 C19.1851748,7.59578629 19.9941692,8.72669468 20,10 L20,12 C20,12.5522847 19.5522847,13 19,13 C18.4477153,13 18,12.5522847 18,12 L18,10 C18,9.44771525 17.5522847,9 17,9 L5,9 C4.44771525,9 4,9.44771525 4,10 L4,17 C4,17.5522847 4.44771525,18 5,18 L12,18 C12.5522847,18 13,18.4477153 13,19 C13,19.5522847 12.5522847,20 12,20 L5,20 C3.34314575,20 2,18.6568542 2,17 L2,10 C2,8.34314575 3.34314575,7 5,7 L6,7 L6,6 C6,4.8954305 6.8954305,4 8,4 L11,4 C12.1045695,4 13,4.8954305 13,6 L13,7 L14,7 C14,5.8954305 14.8954305,5 16,5 Z M8,6 L8,7 L11,7 L11,6 L8,6 Z M6,13.5 C6,11.5670034 7.56700338,10 9.5,10 C11.4329966,10 13,11.5670034 13,13.5 C13,15.4329966 11.4329966,17 9.5,17 C7.56700338,17 6,15.4329966 6,13.5 Z M11.2,13.5 C11.2,12.5611159 10.4388841,11.8 9.5,11.8 C8.56111593,11.8 7.8,12.5611159 7.8,13.5 C7.8,14.4388841 8.56111593,15.2 9.5,15.2 C10.4388841,15.2 11.2,14.4388841 11.2,13.5 Z" id="Combined-Shape"></path>
        </g>
    </g>
</svg>