<?xml version="1.0" encoding="UTF-8"?>
<svg width="24px" height="24px" viewBox="0 0 24 24" version="1.1" xmlns="http://www.w3.org/2000/svg" xmlns:xlink="http://www.w3.org/1999/xlink">
    <!-- Generator: sketchtool 44.1 (41455) - http://www.bohemiancoding.com/sketch -->
    <title>camera-minus</title>
    <desc>Created with sketchtool.</desc>
    <defs></defs>
    <g id="Symbols" stroke="none" stroke-width="1" fill="none" fill-rule="evenodd">
        <g id="camera-minus" fill-rule="nonzero" fill="#000000">
            <path d="M18,20 C18.5522847,20 19,19.5522847 19,19 C19,18.4477153 18.5522847,18 18,18 L5,18 C4.44771525,18 4,17.5522847 4,17 L4,10 C4,9.44771525 4.44771525,9 5,9 L17,9 C17.5522847,9 18,9.44771525 18,10 L18,11 C18,11.5522847 18.4477153,12 19,12 C19.5522847,12 20,11.5522847 20,11 L20,10 C19.9941692,8.72669468 19.1851748,7.59578629 17.982,7.179 C17.987,7.119 18,7.061 18,7 C18,5.8954305 17.1045695,5 16,5 C14.8954305,5 14,5.8954305 14,7 L13,7 L13,6 C13,4.8954305 12.1045695,4 11,4 L8,4 C6.8954305,4 6,4.8954305 6,6 L6,7 L5,7 C3.34314575,7 2,8.34314575 2,10 L2,17 C2,18.6568542 3.34314575,20 5,20 L18,20 Z M8,6 L11,6 L11,7 L8,7 L8,6 Z M22,14 C22.5522847,14 23,14.4477153 23,15 C23,15.5522847 22.5522847,16 22,16 L16,16 C15.4477153,16 15,15.5522847 15,15 C15,14.4477153 15.4477153,14 16,14 L22,14 Z M6,13.5 C6,11.5670034 7.56700338,10 9.5,10 C11.4329966,10 13,11.5670034 13,13.5 C13,15.4329966 11.4329966,17 9.5,17 C7.56700338,17 6,15.4329966 6,13.5 Z M11.2,13.5 C11.2,12.5611159 10.4388841,11.8 9.5,11.8 C8.56111593,11.8 7.8,12.5611159 7.8,13.5 C7.8,14.4388841 8.56111593,15.2 9.5,15.2 C10.4388841,15.2 11.2,14.4388841 11.2,13.5 Z" id="Combined-Shape"></path>
        </g>
    </g>
</svg>