<?xml version="1.0" encoding="UTF-8"?>
<svg width="24px" height="24px" viewBox="0 0 24 24" version="1.1" xmlns="http://www.w3.org/2000/svg" xmlns:xlink="http://www.w3.org/1999/xlink">
    <!-- Generator: sketchtool 49.1 (51147) - http://www.bohemiancoding.com/sketch -->
    <title>camera</title>
    <desc>Created with sketchtool.</desc>
    <defs></defs>
    <g id="Icons" stroke="none" stroke-width="1" fill="none" fill-rule="evenodd">
        <g id="camera" fill="#000000" fill-rule="nonzero">
            <path d="M10.5,17 C12.4329966,17 14,15.4329966 14,13.5 C14,11.5670034 12.4329966,10 10.5,10 C8.56700338,10 7,11.5670034 7,13.5 C7,15.4329966 8.56700338,17 10.5,17 Z M12,4 C13.1045695,4 14,4.8954305 14,6 L14,7 L15,7 C15,5.8954305 15.8954305,5 17,5 C18.1045695,5 19,5.8954305 19,7 C19,7.061 18.987,7.119 18.982,7.179 C20.1851748,7.59578629 20.9941692,8.72669468 21,10 L21,17 C21,18.6568542 19.6568542,20 18,20 L6,20 C4.34314575,20 3,18.6568542 3,17 L3,10 C3,8.34314575 4.34314575,7 6,7 L7,7 L7,6 C7,4.8954305 7.8954305,4 9,4 L12,4 Z M9,6 L9,7 L12,7 L12,6 L9,6 Z M10.5,11.8 C11.4388841,11.8 12.2,12.5611159 12.2,13.5 C12.2,14.4388841 11.4388841,15.2 10.5,15.2 C9.56111593,15.2 8.8,14.4388841 8.8,13.5 C8.8,12.5611159 9.56111593,11.8 10.5,11.8 Z M18,9 L6,9 C5.44771525,9 5,9.44771525 5,10 L5,17 C5,17.5522847 5.44771525,18 6,18 L18,18 C18.5522847,18 19,17.5522847 19,17 L19,10 C19,9.44771525 18.5522847,9 18,9 Z" id="Combined-Shape"></path>
        </g>
    </g>
</svg>