<?xml version="1.0" encoding="UTF-8"?>
<svg width="24px" height="24px" viewBox="0 0 24 24" version="1.1" xmlns="http://www.w3.org/2000/svg" xmlns:xlink="http://www.w3.org/1999/xlink">
    <!-- Generator: sketchtool 44.1 (41455) - http://www.bohemiancoding.com/sketch -->
    <title>cart</title>
    <desc>Created with sketchtool.</desc>
    <defs></defs>
    <g id="Symbols" stroke="none" stroke-width="1" fill="none" fill-rule="evenodd">
        <g id="cart" fill-rule="nonzero" fill="#000000">
            <path d="M23,4 L6,4 C5.93931309,4.00620661 5.87936788,4.01826263 5.821,4.036 C5.00683091,2.71884976 3.54735112,1.94117354 2,2 C1.44771525,2 1,2.44771525 1,3 C1,3.55228475 1.44771525,4 2,4 C2.61588279,3.94944112 3.22656995,4.14603726 3.69728879,4.54640155 C4.16800764,4.94676585 4.4600626,5.51798625 4.509,6.134 L5.727,15.163 C5.96754899,16.7872584 7.35804283,17.992523 9,18 L20,18 C20.5522847,18 21,17.5522847 21,17 C21,16.4477153 20.5522847,16 20,16 L9,16 C8.40167748,15.994973 7.88405818,15.5821985 7.746,15 L14.411,15 C17.511436,14.9990732 20.3678873,13.3180422 21.874,10.608 C21.8962683,10.5687947 21.9156529,10.5280203 21.932,10.486 L23.932,5.363 C24.0518862,5.05526269 24.0120979,4.70817894 23.8256815,4.43555491 C23.6392651,4.16293088 23.330265,3.99993036 23,4 L23,4 Z M20.094,9.694 C18.9315239,11.7372977 16.761833,12.9994828 14.411,13 L7.453,13 L6.508,6 L21.536,6 L20.094,9.694 Z M7,23 C5.8954305,23 5,22.1045695 5,21 C5,19.8954305 5.8954305,19 7,19 C8.1045695,19 9,19.8954305 9,21 C9,22.1045695 8.1045695,23 7,23 Z M19,23 C17.8954305,23 17,22.1045695 17,21 C17,19.8954305 17.8954305,19 19,19 C20.1045695,19 21,19.8954305 21,21 C21,22.1045695 20.1045695,23 19,23 Z" id="Combined-Shape"></path>
        </g>
    </g>
</svg>