<?xml version="1.0" encoding="UTF-8"?>
<svg width="24px" height="24px" viewBox="0 0 24 24" version="1.1" xmlns="http://www.w3.org/2000/svg" xmlns:xlink="http://www.w3.org/1999/xlink">
    <!-- Generator: sketchtool 44.1 (41455) - http://www.bohemiancoding.com/sketch -->
    <title>cart-question</title>
    <desc>Created with sketchtool.</desc>
    <defs></defs>
    <g id="Symbols" stroke="none" stroke-width="1" fill="none" fill-rule="evenodd">
        <g id="cart-question" fill-rule="nonzero" fill="#000000">
            <path d="M23.364,4.068 C23.8784169,4.26879335 24.1327031,4.84854784 23.932,5.363 L21.932,10.486 C21.9154386,10.5279275 21.8960611,10.5686871 21.874,10.608 C20.3675707,13.3177333 17.5113196,14.9986464 14.411,15 L7.744,15 C7.88223637,15.5829185 8.40092874,15.9958901 9,16 L20,16 C20.5522847,16 21,16.4477153 21,17 C21,17.5522847 20.5522847,18 20,18 L9,18 C7.35723767,17.9937215 5.96591001,16.787309 5.727,15.162 L4.507,5.12 C4.3993783,3.84267854 3.27745222,2.89394168 2,3 C1.44771525,3 1,2.55228475 1,2 C1,1.44771525 1.44771525,1 2,1 C4.26939254,0.907495097 6.22610947,2.58075627 6.487,4.837 L7.479,13 L14.411,13 C16.7617766,12.9992739 18.9313701,11.7371454 20.094,9.694 L22.064,4.636 C22.1603804,4.38774208 22.3518042,4.18818271 22.595838,4.08155871 C22.8398718,3.97493471 23.1163554,3.97005454 23.364,4.068 Z M7,23 C5.8954305,23 5,22.1045695 5,21 C5,19.8954305 5.8954305,19 7,19 C8.1045695,19 9,19.8954305 9,21 C9,22.1045695 8.1045695,23 7,23 Z M19,23 C17.8954305,23 17,22.1045695 17,21 C17,19.8954305 17.8954305,19 19,19 C20.1045695,19 21,19.8954305 21,21 C21,22.1045695 20.1045695,23 19,23 Z M16,3 L16,3 C15.9390729,3.96961746 15.5076349,4.87868067 14.795,5.539 C14.287,6.121 14,6.476 14,7 C14,7.55228475 13.5522847,8 13,8 C12.4477153,8 12,7.55228475 12,7 C12.0519057,5.94264622 12.5139483,4.94717393 13.288,4.225 C13.743,3.7 14,3.39 14,3 C14,2.44771525 13.5522847,2 13,2 C12.4477153,2 12,2.44771525 12,3 C12,3.55228475 11.5522847,4 11,4 C10.4477153,4 10,3.55228475 10,3 C10,1.34314575 11.3431458,-1.01453063e-16 13,0 C14.6568542,1.01453063e-16 16,1.34314575 16,3 Z M13,11.25 C12.3096441,11.25 11.75,10.6903559 11.75,10 C11.75,9.30964406 12.3096441,8.75 13,8.75 C13.6903559,8.75 14.25,9.30964406 14.25,10 C14.25,10.6903559 13.6903559,11.25 13,11.25 Z" id="Combined-Shape"></path>
        </g>
    </g>
</svg>