<?xml version="1.0" encoding="UTF-8"?>
<svg width="24px" height="24px" viewBox="0 0 24 24" version="1.1" xmlns="http://www.w3.org/2000/svg" xmlns:xlink="http://www.w3.org/1999/xlink">
    <!-- Generator: sketchtool 49.1 (51147) - http://www.bohemiancoding.com/sketch -->
    <title>clock</title>
    <desc>Created with sketchtool.</desc>
    <defs></defs>
    <g id="Icons" stroke="none" stroke-width="1" fill="none" fill-rule="evenodd">
        <g id="clock" fill="#000000" fill-rule="nonzero">
            <path d="M12,2 C6.4771525,2 2,6.4771525 2,12 C2,17.5228475 6.4771525,22 12,22 C17.5228475,22 22,17.5228475 22,12 C22,9.3478351 20.9464316,6.80429597 19.0710678,4.92893219 C17.195704,3.0535684 14.6521649,2 12,2 L12,2 Z M12.9,19.946 L12.9,19 C12.9,18.5029437 12.4970563,18.1 12,18.1 C11.5029437,18.1 11.1,18.5029437 11.1,19 L11.1,19.946 C7.39865747,19.5214809 4.47851915,16.6013425 4.054,12.9 L5,12.9 C5.49705627,12.9 5.9,12.4970563 5.9,12 C5.9,11.5029437 5.49705627,11.1 5,11.1 L4.054,11.1 C4.47851915,7.39865747 7.39865747,4.47851915 11.1,4.054 L11.1,5 C11.1,5.49705627 11.5029437,5.9 12,5.9 C12.4970563,5.9 12.9,5.49705627 12.9,5 L12.9,4.054 C16.6013425,4.47851915 19.5214809,7.39865747 19.946,11.1 L19,11.1 C18.5029437,11.1 18.1,11.5029437 18.1,12 C18.1,12.4970563 18.5029437,12.9 19,12.9 L19.946,12.9 C19.5214809,16.6013425 16.6013425,19.5214809 12.9,19.946 Z M16,11 L13,11 L13,8 C13,7.44771525 12.5522847,7 12,7 C11.4477153,7 11,7.44771525 11,8 L11,12 C11,12.5522847 11.4477153,13 12,13 L16,13 C16.5522847,13 17,12.5522847 17,12 C17,11.4477153 16.5522847,11 16,11 Z" id="Combined-Shape"></path>
        </g>
    </g>
</svg>