<?xml version="1.0" encoding="UTF-8"?>
<svg width="24px" height="24px" viewBox="0 0 24 24" version="1.1" xmlns="http://www.w3.org/2000/svg" xmlns:xlink="http://www.w3.org/1999/xlink">
    <!-- Generator: sketchtool 49.1 (51147) - http://www.bohemiancoding.com/sketch -->
    <title>copy</title>
    <desc>Created with sketchtool.</desc>
    <defs></defs>
    <g id="Icons" stroke="none" stroke-width="1" fill="none" fill-rule="evenodd">
        <g id="copy" fill="#000000" fill-rule="nonzero">
            <path d="M8,4 C6.8954305,4 6,4.8954305 6,6 L6,21 C6,22.1045695 6.8954305,23 8,23 L20,23 C21.1045695,23 22,22.1045695 22,21 L22,6 C22,4.8954305 21.1045695,4 20,4 L8,4 Z M8,21 L8,6 L20,6 L20,21 L8,21 Z M3,17 L3,3 C3,1.8954305 3.8954305,1 5,1 L16,1 C16.5522847,1 17,1.44771525 17,2 C17,2.55228475 16.5522847,3 16,3 L5,3 L5,17 C5,17.5522847 4.55228475,18 4,18 C3.44771525,18 3,17.5522847 3,17 Z" id="Combined-Shape"></path>
        </g>
    </g>
</svg>