<?xml version="1.0" encoding="UTF-8"?>
<svg width="24px" height="24px" viewBox="0 0 24 24" version="1.1" xmlns="http://www.w3.org/2000/svg" xmlns:xlink="http://www.w3.org/1999/xlink">
    <!-- Generator: sketchtool 49.1 (51147) - http://www.bohemiancoding.com/sketch -->
    <title>credit-card</title>
    <desc>Created with sketchtool.</desc>
    <defs></defs>
    <g id="Icons" stroke="none" stroke-width="1" fill="none" fill-rule="evenodd">
        <g id="credit-card" fill="#000000" fill-rule="nonzero">
            <path d="M5.1,19.1 L19.1,19.1 C20.7568542,19.1 22.1,17.7568542 22.1,16.1 L22.1,8.1 C22.1,6.44314575 20.7568542,5.1 19.1,5.1 L5.1,5.1 C3.44314575,5.1 2.1,6.44314575 2.1,8.1 L2.1,16.1 C2.1,17.7568542 3.44314575,19.1 5.1,19.1 Z M19.1,17.1 L5.1,17.1 C4.54771525,17.1 4.1,16.6522847 4.1,16.1 L4.1,12 L20.1,12 L20.1,16.1 C20.1,16.6522847 19.6522847,17.1 19.1,17.1 Z M5.1,7.1 L19.1,7.1 C19.6522847,7.1 20.1,7.54771525 20.1,8.1 L20.1,9 L4.1,9 L4.1,8.1 C4.1,7.54771525 4.54771525,7.1 5.1,7.1 L5.1,7.1 Z" id="Shape"></path>
        </g>
    </g>
</svg>