<?xml version="1.0" encoding="UTF-8"?>
<svg width="24px" height="24px" viewBox="0 0 24 24" version="1.1" xmlns="http://www.w3.org/2000/svg" xmlns:xlink="http://www.w3.org/1999/xlink">
    <!-- Generator: sketchtool 44.1 (41455) - http://www.bohemiancoding.com/sketch -->
    <title>device-video-camera</title>
    <desc>Created with sketchtool.</desc>
    <defs></defs>
    <g id="Symbols" stroke="none" stroke-width="1" fill="none" fill-rule="evenodd">
        <g id="device-video-camera" fill-rule="nonzero" fill="#000000">
            <path d="M2,7 C2.00389913,8.08543191 2.36439197,9.13950453 3.026,10 L3,10 L3,16 C3.00330612,18.7600532 5.23994685,20.9966939 8,21 L18,21 L18,19 L22,19 L22,13 L18,13 L18,10.974 C19.5576493,9.79874243 20.2873588,7.82338941 19.8678172,5.91774342 C19.4482755,4.01209744 17.9564651,2.52582796 16.0492711,2.1133805 C14.1420771,1.70093303 12.1694531,2.4379881 11,4 C9.70870878,2.27827837 7.46057187,1.57601328 5.41886117,2.25658351 C3.37715047,2.93715374 2,4.84784796 2,7 L2,7 Z M20,15 L20,17 L18,17 L18,15 L20,15 Z M16,12 L16,19 L8,19 C6.34314575,19 5,17.6568542 5,16 L5,12 L16,12 Z M10,7 C10,7.55228475 10.4477153,8 11,8 C11.5522847,8 12,7.55228475 12,7 C12,5.34314575 13.3431458,4 15,4 C16.6568542,4 18,5.34314575 18,7 C18,8.65685425 16.6568542,10 15,10 L7,10 C5.34314575,10 4,8.65685425 4,7 C4,5.34314575 5.34314575,4 7,4 C8.65685425,4 10,5.34314575 10,7 L10,7 Z M7,8 C7.55228475,8 8,7.55228475 8,7 C8,6.44771525 7.55228475,6 7,6 C6.44771525,6 6,6.44771525 6,7 C6,7.55228475 6.44771525,8 7,8 Z M15,8 C15.5522847,8 16,7.55228475 16,7 C16,6.44771525 15.5522847,6 15,6 C14.4477153,6 14,6.44771525 14,7 C14,7.55228475 14.4477153,8 15,8 Z" id="Combined-Shape"></path>
        </g>
    </g>
</svg>