<?xml version="1.0" encoding="UTF-8"?>
<svg width="24px" height="24px" viewBox="0 0 24 24" version="1.1" xmlns="http://www.w3.org/2000/svg" xmlns:xlink="http://www.w3.org/1999/xlink">
    <!-- Generator: sketchtool 44.1 (41455) - http://www.bohemiancoding.com/sketch -->
    <title>dimension-height</title>
    <desc>Created with sketchtool.</desc>
    <defs></defs>
    <g id="Symbols" stroke="none" stroke-width="1" fill="none" fill-rule="evenodd">
        <g id="dimension-height" fill-rule="nonzero" fill="#000000">
            <path d="M16.707,16.293 C16.3165001,15.9026181 15.6834999,15.9026181 15.293,16.293 L13,18.586 L13,5.414 L15.293,7.707 C15.6853789,8.08597221 16.3090848,8.08055237 16.6948186,7.69481858 C17.0805524,7.30908478 17.0859722,6.68537889 16.707,6.293 L12.707,2.293 L12.707,2.293 L12,1.586 L11.294,2.292 L11.294,2.292 L7.294,6.292 C6.91474085,6.68410934 6.91971517,7.30782672 7.30518003,7.69383719 C7.69064489,8.07984765 8.31435462,8.08570416 8.707,7.707 L11,5.414 L11,18.586 L8.707,16.293 C8.31462111,15.9140278 7.69091522,15.9194476 7.30518142,16.3051814 C6.91944763,16.6909152 6.91402779,17.3146211 7.293,17.707 L11.293,21.707 L11.293,21.707 L11.999,22.413 L12.705,21.707 L12.705,21.707 L16.705,17.707 C17.0959348,17.3170525 17.0968302,16.6840518 16.707,16.293 Z" id="Shape"></path>
        </g>
    </g>
</svg>