<?xml version="1.0" encoding="UTF-8"?>
<svg width="24px" height="24px" viewBox="0 0 24 24" version="1.1" xmlns="http://www.w3.org/2000/svg" xmlns:xlink="http://www.w3.org/1999/xlink">
    <!-- Generator: sketchtool 44.1 (41455) - http://www.bohemiancoding.com/sketch -->
    <title>docs-page-1</title>
    <desc>Created with sketchtool.</desc>
    <defs></defs>
    <g id="Symbols" stroke="none" stroke-width="1" fill="none" fill-rule="evenodd">
        <g id="docs-page-1" fill-rule="nonzero" fill="#000000">
            <path d="M19.921,8.615 C19.8232767,8.38607045 19.6835334,8.17747301 19.509,8 L14.095,2.591 C13.9747408,2.47466142 13.8403576,2.37387401 13.695,2.291 C13.510498,2.10655346 13.260878,2.00203631 13,2 C12.9663084,2.00517003 12.9329252,2.01218052 12.9,2.021 C12.8274406,2.00998718 12.75433,2.00297657 12.681,2 L6.1,2 C4.9954305,2 4.1,2.8954305 4.1,4 L4.1,19 C4.1,20.1045695 4.9954305,21 6.1,21 L18.1,21 C19.2045695,21 20.1,20.1045695 20.1,19 L20.1,9.419 C20.0977847,9.14318802 20.0385437,8.87081557 19.926,8.619 L19.921,8.615 Z M16.681,8 L14,8 L14,5.324 L16.681,8 Z M6.1,19 L6.1,4 L12,4 L12,10 L18.1,10 L18.1,19 L6.1,19 Z M16,11 L8,11 C7.44771525,11 7,11.4477153 7,12 C7,12.5522847 7.44771525,13 8,13 L16,13 C16.5522847,13 17,12.5522847 17,12 C17,11.4477153 16.5522847,11 16,11 Z M8,10 L10,10 C10.5522847,10 11,9.55228475 11,9 C11,8.44771525 10.5522847,8 10,8 L8,8 C7.44771525,8 7,8.44771525 7,9 C7,9.55228475 7.44771525,10 8,10 Z M16,14 L8,14 C7.44771525,14 7,14.4477153 7,15 C7,15.5522847 7.44771525,16 8,16 L16,16 C16.5522847,16 17,15.5522847 17,15 C17,14.4477153 16.5522847,14 16,14 Z" id="Combined-Shape"></path>
        </g>
    </g>
</svg>