<?xml version="1.0" encoding="UTF-8"?>
<svg width="24px" height="24px" viewBox="0 0 24 24" version="1.1" xmlns="http://www.w3.org/2000/svg" xmlns:xlink="http://www.w3.org/1999/xlink">
    <!-- Generator: sketchtool 49.1 (51147) - http://www.bohemiancoding.com/sketch -->
    <title>docs-clipboard</title>
    <desc>Created with sketchtool.</desc>
    <defs></defs>
    <g id="Icons" stroke="none" stroke-width="1" fill="none" fill-rule="evenodd">
        <g id="docs-clipboard" fill="#000000" fill-rule="nonzero">
            <path d="M18.095,3 L16,3 L16,2 L8,2 L8,3 L6.1,3 C4.9954305,3 4.1,3.8954305 4.1,5 L4.1,20 C4.1,21.1045695 4.9954305,22 6.1,22 L18.1,22 C19.2045695,22 20.1,21.1045695 20.1,20 L20.1,5 C20.1000017,4.46869958 19.8886018,3.95923255 19.5124469,3.58401573 C19.136292,3.20879891 18.6262988,2.99867175 18.095,3 L18.095,3 Z M18.095,20 L6.1,20 L6.1,5 L8,5 L8,7 L16,7 L16,5 L18.095,5 L18.095,20 Z M16,9 L8,9 C7.44771525,9 7,9.44771525 7,10 C7,10.5522847 7.44771525,11 8,11 L16,11 C16.5522847,11 17,10.5522847 17,10 C17,9.44771525 16.5522847,9 16,9 Z M16,12 L8,12 C7.44771525,12 7,12.4477153 7,13 C7,13.5522847 7.44771525,14 8,14 L16,14 C16.5522847,14 17,13.5522847 17,13 C17,12.4477153 16.5522847,12 16,12 Z M16,15 L8,15 C7.44771525,15 7,15.4477153 7,16 C7,16.5522847 7.44771525,17 8,17 L16,17 C16.5522847,17 17,16.5522847 17,16 C17,15.4477153 16.5522847,15 16,15 Z" id="Combined-Shape"></path>
        </g>
    </g>
</svg>