<?xml version="1.0" encoding="UTF-8"?>
<svg width="24px" height="24px" viewBox="0 0 24 24" version="1.1" xmlns="http://www.w3.org/2000/svg" xmlns:xlink="http://www.w3.org/1999/xlink">
    <!-- Generator: sketchtool 49.1 (51147) - http://www.bohemiancoding.com/sketch -->
    <title>edit-crop</title>
    <desc>Created with sketchtool.</desc>
    <defs></defs>
    <g id="Icons" stroke="none" stroke-width="1" fill="none" fill-rule="evenodd">
        <g id="edit-crop" fill="#000000" fill-rule="nonzero">
            <path d="M18,22 C18,22.5522847 17.5522847,23 17,23 C16.4477153,23 16,22.5522847 16,22 L16,21 C16,20.4477153 16.4477153,20 17,20 C17.5522847,20 18,20.4477153 18,21 L18,22 Z M21,16 C21.5522847,16 22,16.4477153 22,17 C22,17.5522847 21.5522847,18 21,18 L9,18 C7.34314575,18 6,16.6568542 6,15 L6,11 C6,10.4477153 6.44771525,10 7,10 C7.55228475,10 8,10.4477153 8,11 L8,15 C8,15.5522847 8.44771525,16 9,16 L16,16 L16,9 C16,8.44771525 15.5522847,8 15,8 L3,8 C2.44771525,8 2,7.55228475 2,7 C2,6.44771525 2.44771525,6 3,6 L6,6 L6,3 C6,2.44771525 6.44771525,2 7,2 C7.55228475,2 8,2.44771525 8,3 L8,6 L15,6 C16.6568542,6 18,7.34314575 18,9 L18,16 L21,16 Z" id="Combined-Shape"></path>
        </g>
    </g>
</svg>