<?xml version="1.0" encoding="UTF-8"?>
<svg width="24px" height="24px" viewBox="0 0 24 24" version="1.1" xmlns="http://www.w3.org/2000/svg" xmlns:xlink="http://www.w3.org/1999/xlink">
    <!-- Generator: sketchtool 44.1 (41455) - http://www.bohemiancoding.com/sketch -->
    <title>edit-rotate</title>
    <desc>Created with sketchtool.</desc>
    <defs></defs>
    <g id="Symbols" stroke="none" stroke-width="1" fill="none" fill-rule="evenodd">
        <g id="edit-rotate" fill-rule="nonzero" fill="#000000">
            <path d="M22.293,11.293 L20,13.586 L20,12.5 C20,7.25329488 15.7467051,3 10.5,3 C5.25329488,3 1,7.25329488 1,12.5 C1,17.7467051 5.25329488,22 10.5,22 C11.0522847,22 11.5,21.5522847 11.5,21 C11.5,20.4477153 11.0522847,20 10.5,20 C6.35786438,20 3,16.6421356 3,12.5 C3,8.35786438 6.35786438,5 10.5,5 C14.6421356,5 18,8.35786438 18,12.5 L18,13.586 L15.707,11.293 C15.3146211,10.9140278 14.6909152,10.9194476 14.3051814,11.3051814 C13.9194476,11.6909152 13.9140278,12.3146211 14.293,12.707 L19,17.414 L23.707,12.707 C24.0859722,12.3146211 24.0805524,11.6909152 23.6948186,11.3051814 C23.3090848,10.9194476 22.6853789,10.9140278 22.293,11.293 Z" id="Shape"></path>
        </g>
    </g>
</svg>