<?xml version="1.0" encoding="UTF-8"?>
<svg width="24px" height="24px" viewBox="0 0 24 24" version="1.1" xmlns="http://www.w3.org/2000/svg" xmlns:xlink="http://www.w3.org/1999/xlink">
    <!-- Generator: sketchtool 49.1 (51147) - http://www.bohemiancoding.com/sketch -->
    <title>emo-happy</title>
    <desc>Created with sketchtool.</desc>
    <defs></defs>
    <g id="Icons" stroke="none" stroke-width="1" fill="none" fill-rule="evenodd">
        <g id="emo-happy" fill="#000000" fill-rule="nonzero">
            <path d="M12,2 C6.4771525,2 2,6.4771525 2,12 C2,17.5228475 6.4771525,22 12,22 C17.5228475,22 22,17.5228475 22,12 C22,9.3478351 20.9464316,6.80429597 19.0710678,4.92893219 C17.195704,3.0535684 14.6521649,2 12,2 L12,2 Z M12,20 C7.581722,20 4,16.418278 4,12 C4,7.581722 7.581722,4 12,4 C16.418278,4 20,7.581722 20,12 C19.9950401,16.4162219 16.4162219,19.9950401 12,20 Z M12,18 C14.7614237,18 17,15.7614237 17,13 L7,13 C7,15.7614237 9.23857625,18 12,18 Z M9.5,12 C10.3284271,12 11,11.3284271 11,10.5 C11,9.67157288 10.3284271,9 9.5,9 C8.67157288,9 8,9.67157288 8,10.5 C8,11.3284271 8.67157288,12 9.5,12 Z M14.5,12 C15.3284271,12 16,11.3284271 16,10.5 C16,9.67157288 15.3284271,9 14.5,9 C13.6715729,9 13,9.67157288 13,10.5 C13,11.3284271 13.6715729,12 14.5,12 Z" id="Combined-Shape"></path>
        </g>
    </g>
</svg>