<?xml version="1.0" encoding="UTF-8"?>
<svg width="24px" height="24px" viewBox="0 0 24 24" version="1.1" xmlns="http://www.w3.org/2000/svg" xmlns:xlink="http://www.w3.org/1999/xlink">
    <!-- Generator: sketchtool 44.1 (41455) - http://www.bohemiancoding.com/sketch -->
    <title>eye</title>
    <desc>Created with sketchtool.</desc>
    <defs></defs>
    <g id="Symbols" stroke="none" stroke-width="1" fill="none" fill-rule="evenodd">
        <g id="eye" fill-rule="nonzero" fill="#000000">
            <path d="M3.117,13.53 C2.96055522,13.8238054 2.96055522,14.1761946 3.117,14.47 C3.238,14.7 6.13,20 12,20 C17.947,20 20.771,14.687 20.888,14.46 C21.0377871,14.1712705 21.0377871,13.8277295 20.888,13.539 C20.77,13.313 17.941,8 12,8 C6.13,8 3.238,13.3 3.117,13.53 Z M7.636,11.45 C7.54911771,11.7933549 7.50346247,12.1458402 7.5,12.5 C7.5,14.9852814 9.51471863,17 12,17 C12.5522847,17 13,16.5522847 13,16 C13,15.4477153 12.5522847,15 12,15 C10.8945314,14.9996851 9.9205152,14.2733703 9.60482112,13.2139373 C9.28912704,12.1545044 9.70671596,11.0135135 10.6317036,10.4081551 C11.5566912,9.80279668 12.7694412,9.87681188 13.6139468,10.590164 C14.4584523,11.3035161 14.7341874,12.4868213 14.292,13.5 C14.1358962,13.8294859 14.1714848,14.2178184 14.3848767,14.5134419 C14.5982685,14.8090655 14.9556405,14.9651231 15.31752,14.9207098 C15.6793995,14.8762964 15.988428,14.6384517 16.124,14.3 C16.5295993,13.390304 16.6094107,12.3686463 16.35,11.407 C17.3306344,12.1109684 18.1727681,12.9900556 18.834,14 C17.361275,16.3851469 14.8007765,17.8838291 12,18 C8.212,18 5.939,15.157 5.172,14 C5.83896813,13.0133201 6.67277338,12.1504129 7.636,11.45 L7.636,11.45 Z M21.54,6.158 L21.54,6.158 C21.763372,6.3011663 21.9206948,6.52723112 21.9773357,6.78642881 C22.0339766,7.04562649 21.9852923,7.3167088 21.842,7.54 L20.842,9.1 C20.543214,9.56474762 19.9242476,9.69928605 19.4595,9.4005 C18.9947524,9.10171395 18.860214,8.48274762 19.159,8.018 L20.159,6.458 C20.4577515,5.99415297 21.0757294,5.85990724 21.54,6.158 Z M15,7 C14.6920346,7.00022291 14.4011439,6.85853422 14.2114634,6.61591507 C14.0217829,6.37329592 13.9544723,6.05681159 14.029,5.758 L14.529,3.758 C14.6106193,3.40598737 14.8757967,3.12538913 15.2226391,3.02402375 C15.5694816,2.92265837 15.94403,3.01629548 16.2023661,3.26895548 C16.4607021,3.52161548 16.562636,3.89399154 16.469,4.243 L15.969,6.243 C15.8576317,6.68756969 15.4583065,6.99952958 15,7 Z M2.4,6.2 L2.4,6.2 C2.8418278,5.86862915 3.46862915,5.9581722 3.8,6.4 L4.8,7.741 C5.01435935,8.02681247 5.05995643,8.40527344 4.91961524,8.73382032 C4.77927406,9.06236721 4.47431578,9.29108591 4.11961524,9.33382032 C3.7649147,9.37655473 3.41435935,9.22681247 3.2,8.941 L2.2,7.6 C1.86862915,7.1581722 1.9581722,6.53137085 2.4,6.2 Z M9,7 L9,7 C8.54102953,6.99987321 8.14107084,6.68732817 8.03,6.242 L7.53,4.242 C7.43636403,3.89299154 7.53829787,3.52061548 7.79663394,3.26795548 C8.05497001,3.01529548 8.42951845,2.92165837 8.77636086,3.02302375 C9.12320328,3.12438913 9.38838069,3.40498737 9.47,3.757 L9.97,5.757 C10.0448476,6.05578238 9.97782923,6.37238644 9.78833451,6.61521317 C9.59883979,6.85803991 9.30801473,6.9999919 9,7 Z" id="Combined-Shape"></path>
        </g>
    </g>
</svg>