<?xml version="1.0" encoding="UTF-8"?>
<svg width="39px" height="24px" viewBox="0 0 39 24" version="1.1" xmlns="http://www.w3.org/2000/svg" xmlns:xlink="http://www.w3.org/1999/xlink">
    <!-- Generator: sketchtool 49.1 (51147) - http://www.bohemiancoding.com/sketch -->
    <title>feedback-3000</title>
    <desc>Created with sketchtool.</desc>
    <defs></defs>
    <g id="Icons" stroke="none" stroke-width="1" fill="none" fill-rule="evenodd">
        <g id="feedback-3000" fill-rule="nonzero">
            <path d="M15.281,8.32 C16.2561627,8.46233282 17.0659549,9.14595002 17.369881,10.0834093 C17.6738071,11.0208686 17.4191554,12.0495806 16.713,12.737 L14.955,14.451 C14.816221,14.5862163 14.7526788,14.7809544 14.785,14.972 L15.2,17.391 C15.3659646,18.3614151 14.9671774,19.3419845 14.1710279,19.921118 C13.3748784,20.5002516 12.3191575,20.5777176 11.447,20.121 L9.275,18.979 C9.10327543,18.8881506 8.89772457,18.8881506 8.726,18.979 L6.553,20.12 C5.68121327,20.5799205 4.62374894,20.5040421 3.82655872,19.9243639 C3.0293685,19.3446858 2.6312124,18.3621075 2.8,17.391 L3.211,14.972 C3.24348958,14.780641 3.17994677,14.5855272 3.041,14.45 L1.283,12.736 C0.577243297,12.0478248 0.323510089,11.0185834 0.628533254,10.0812262 C0.933556418,9.14386898 1.74440673,8.46105114 2.72,8.32 L5.146,7.966 C5.33840384,7.93861898 5.50471661,7.81763019 5.59,7.643 L6.677,5.443 C7.11332846,4.55899222 8.01367431,3.99933928 8.9995,3.99933928 C9.98532569,3.99933928 10.8856715,4.55899222 11.322,5.443 L12.408,7.643 C12.4938336,7.81716769 12.6598668,7.93795309 12.852,7.966 L15.281,8.32 Z M9,8.037 L10.391,10.855 L13.5,11.307 L11.25,13.5 L11.781,16.597 L9,15.135 L6.219,16.597 L6.75,13.5 L4.5,11.307 L7.609,10.855 L9,8.037 Z M15.32,11.3 C15.476962,11.1429711 15.5324789,10.9111191 15.4636631,10.7000278 C15.3948473,10.4889365 15.2133517,10.3343506 14.994,10.3 L12.565,9.946 C11.7213502,9.82351692 10.9920662,9.2935706 10.615,8.529 L9.53,6.329 C9.43024823,6.127793 9.22507666,6.00050857 9.0005,6.00050857 C8.77592334,6.00050857 8.57075177,6.127793 8.471,6.329 L7.385,8.529 C7.00834365,9.29391594 6.27885169,9.82401342 5.435,9.946 L3.008,10.3 C2.78785903,10.3330481 2.60515741,10.4873832 2.53577876,10.6989034 C2.46640012,10.9104237 2.52219908,11.142987 2.68,11.3 L4.438,13.019 C5.04842323,13.614207 5.32667896,14.4717882 5.182,15.312 L4.767,17.729 C4.72931062,17.9500488 4.82018721,18.1733552 5.00151894,18.3052714 C5.18285066,18.4371876 5.42328839,18.4549075 5.622,18.351 L7.792,17.208 C8.54629271,16.8139027 9.44570729,16.8139027 10.2,17.208 L12.377,18.345 C12.5756097,18.4492956 12.8161831,18.4319362 12.9977617,18.3002069 C13.1793402,18.1684776 13.2705058,17.9451712 13.233,17.724 L12.818,15.306 C12.6734895,14.4661014 12.9517447,13.608896 13.562,13.014 L15.32,11.3 Z" id="Combined-Shape" fill="#E95219"></path>
            <path d="M24,13 L25.391,15.818 L28.5,16.269 L26.25,18.463 L26.781,21.56 L24,20.097 L21.219,21.56 L21.75,18.463 L19.5,16.269 L22.609,15.818 L24,13 Z M34,13 L35.391,15.818 L38.5,16.269 L36.25,18.463 L36.781,21.56 L34,20.097 L31.219,21.56 L31.75,18.463 L29.5,16.269 L32.609,15.818 L34,13 Z M24,4 L25.391,6.818 L28.5,7.269 L26.25,9.463 L26.781,12.56 L24,11.097 L21.219,12.56 L21.75,9.463 L19.5,7.269 L22.609,6.818 L24,4 Z M34,4 L35.391,6.818 L38.5,7.269 L36.25,9.463 L36.781,12.56 L34,11.097 L31.219,12.56 L31.75,9.463 L29.5,7.269 L32.609,6.818 L34,4 Z" id="Combined-Shape" fill="#279BE9"></path>
        </g>
    </g>
</svg>