<?xml version="1.0" encoding="UTF-8"?>
<svg width="30px" height="24px" viewBox="0 0 30 24" version="1.1" xmlns="http://www.w3.org/2000/svg" xmlns:xlink="http://www.w3.org/1999/xlink">
    <!-- Generator: sketchtool 44.1 (41455) - http://www.bohemiancoding.com/sketch -->
    <title>feedback-1000</title>
    <desc>Created with sketchtool.</desc>
    <defs></defs>
    <g id="Symbols" stroke="none" stroke-width="1" fill="none" fill-rule="evenodd">
        <g id="feedback-1000" fill-rule="nonzero">
            <polygon id="Shape" fill="#279BE9" points="25 7 26.391 9.818 29.5 10.269 27.25 12.463 27.781 15.56 25 14.097 22.219 15.56 22.75 12.463 20.5 10.269 23.609 9.818"></polygon>
            <path d="M14.174,18.924 C13.3770407,19.5058322 12.3179507,19.5819252 11.446,19.12 L9.274,17.978 C9.10206135,17.8880172 8.89693865,17.8880172 8.725,17.978 L6.553,19.12 C5.68116334,19.5790707 4.62420881,19.502811 3.82730336,18.9233399 C3.0303979,18.3438688 2.63203628,17.361893 2.8,16.391 L3.211,13.972 C3.24348958,13.780641 3.17994677,13.5855272 3.041,13.45 L1.284,11.736 C0.57832765,11.0480992 0.324385164,10.0192247 0.628946501,9.08198228 C0.933507838,8.14473986 1.74375217,7.46167785 2.719,7.32 L5.147,6.966 C5.33920055,6.93811847 5.50530299,6.81728268 5.591,6.643 L6.677,4.443 C7.11386425,3.55964635 8.01402344,3.00059686 8.9995,3.00059686 C9.98497656,3.00059686 10.8851357,3.55964635 11.322,4.443 L12.408,6.643 C12.4939696,6.81705312 12.6599339,6.93778843 12.852,6.966 L15.281,7.32 C16.2569661,7.46099193 17.0679983,8.14435627 17.3724944,9.08226386 C17.6769906,10.0201715 17.4220298,11.0496155 16.715,11.737 L14.958,13.451 C14.8191141,13.586535 14.7559012,13.7817841 14.789,13.973 L15.204,16.391 C15.3746071,17.3629681 14.9745018,18.3469163 14.174,18.924 Z M9,7.037 L10.391,9.855 L13.5,10.307 L11.25,12.5 L11.781,15.597 L9,14.135 L6.219,15.597 L6.75,12.5 L4.5,10.307 L7.609,9.855 L9,7.037 Z M7.8,16.208 L7.8,16.208 C8.55214728,15.8166834 9.44785272,15.8166834 10.2,16.208 L12.379,17.346 C12.5772972,17.4522939 12.8190989,17.434772 13,17.301 C13.1846025,17.1713559 13.276155,16.9456047 13.234,16.724 L12.819,14.306 C12.6746674,13.4661142 12.9528962,12.6089902 13.563,12.014 L15.32,10.3 C15.477762,10.1431247 15.5336673,9.91074231 15.4645185,9.69927795 C15.3953697,9.48781359 15.2129682,9.33335755 14.993,9.3 L12.564,8.946 C11.7202156,8.82384776 10.9907931,8.29380073 10.614,7.529 L9.529,5.329 C9.42924823,5.127793 9.22407666,5.00050857 8.9995,5.00050857 C8.77492334,5.00050857 8.56975177,5.127793 8.47,5.329 L7.385,7.529 C7.00820688,8.29380073 6.27878436,8.82384776 5.435,8.946 L3.007,9.3 C2.78747569,9.33404391 2.60568193,9.48850962 2.53663712,9.69965584 C2.4675923,9.91080205 2.52300161,10.1428332 2.68,10.3 L4.438,12.019 C5.04816451,12.6139825 5.32672322,13.4709711 5.183,14.311 L4.767,16.729 C4.72903616,16.9503355 4.8200147,17.1740315 5.00168576,17.3060402 C5.18335682,17.4380488 5.42421618,17.455478 5.623,17.351 L7.8,16.208 Z" id="Combined-Shape" fill="#E95219"></path>
        </g>
    </g>
</svg>