<?xml version="1.0" encoding="UTF-8"?>
<svg width="24px" height="24px" viewBox="0 0 24 24" version="1.1" xmlns="http://www.w3.org/2000/svg" xmlns:xlink="http://www.w3.org/1999/xlink">
    <!-- Generator: sketchtool 49.1 (51147) - http://www.bohemiancoding.com/sketch -->
    <title>graph-line</title>
    <desc>Created with sketchtool.</desc>
    <defs></defs>
    <g id="Icons" stroke="none" stroke-width="1" fill="none" fill-rule="evenodd">
        <g id="graph-line" fill="#000000" fill-rule="nonzero">
            <path d="M23,21 C23,21.5522847 22.5522847,22 22,22 L2,22 L2,3 C2,2.44771525 2.44771525,2 3,2 C3.55228475,2 4,2.44771525 4,3 L4,20 L22,20 C22.5522847,20 23,20.4477153 23,21 Z M22,5 C21.998675,6.05445775 21.1766107,6.92560058 20.124,6.988 L17.668,11.9 C18.1398281,12.6005634 18.1206902,13.5220119 17.620181,14.2023804 C17.1196718,14.882749 16.2457037,15.1753466 15.4364377,14.9334805 C14.6271716,14.6916144 14.0570894,13.9674321 14.012,13.124 L11.1,11.668 C10.7740044,11.8845258 10.3913522,12.0000172 10,12 L9.968,12 L7.71,15.76 C7.41009698,16.1951722 6.82334885,16.3218428 6.37062813,16.0491514 C5.91790741,15.7764599 5.75554372,15.1985699 6,14.73 L8.256,10.962 C7.84166851,10.2429215 7.91447068,9.34267157 8.43896455,8.69951479 C8.96345842,8.05635802 9.83065756,7.80393822 10.6183873,8.06513979 C11.4061171,8.32634136 11.9506924,9.0468883 11.987,9.876 L14.9,11.331 C15.1917651,11.1409912 15.5283366,11.0309847 15.876,11.012 L18.332,6.1 C17.8596223,5.38598983 17.8940914,4.45050233 18.4177339,3.77319166 C18.9413764,3.09588098 19.8380459,2.82697792 20.6479914,3.10435763 C21.4579369,3.38173733 22.0015086,4.14387562 22,5 Z" id="Combined-Shape"></path>
        </g>
    </g>
</svg>