<?xml version="1.0" encoding="UTF-8"?>
<svg width="24px" height="24px" viewBox="0 0 24 24" version="1.1" xmlns="http://www.w3.org/2000/svg" xmlns:xlink="http://www.w3.org/1999/xlink">
    <!-- Generator: sketchtool 44.1 (41455) - http://www.bohemiancoding.com/sketch -->
    <title>heart-tick</title>
    <desc>Created with sketchtool.</desc>
    <defs></defs>
    <g id="Symbols" stroke="none" stroke-width="1" fill="none" fill-rule="evenodd">
        <g id="heart-tick" fill-rule="nonzero" fill="#000000">
            <path d="M21.863,13.926 L21.864,13.927 C22.2155292,13.5754708 22.7854707,13.5754708 23.137,13.927 C23.4885292,14.2785293 23.4885292,14.8484708 23.137,15.2 L17,21.335 L13.363,17.7 C13.0111946,17.3481946 13.0111946,16.7778054 13.363,16.426 C13.7148054,16.0741946 14.2851946,16.0741946 14.637,16.426 L17,18.79 L21.863,13.926 Z M12.018,22 C10.545,22 1.036,17.155 1.036,9.208 C0.94599632,7.58851028 1.50940154,6.00060094 2.6,4.8 C3.71777527,3.68021021 5.23681436,3.0537281 6.819,3.06 C8.96314891,3.14240723 10.9211425,4.30058283 12.026,6.14 C13.1274455,4.30438727 15.0790409,3.14666121 17.218,3.06 C18.7986733,3.05394983 20.3160769,3.68049999 21.432,4.8 C22.5252088,6.0016112 23.089825,7.59204875 22.999,9.214 C22.999,9.534 22.983,9.85 22.955,10.162 C22.9344462,10.4277828 22.8067218,10.6737888 22.6011613,10.8435176 C22.3956009,11.0132464 22.1298703,11.0921115 21.865,11.062 C21.3160381,11.0092713 20.913391,10.5220683 20.965,9.973 C20.9883333,9.72366667 21,9.47 21,9.212 C21.0845184,8.11446736 20.7241538,7.0290492 20,6.2 C19.2620138,5.46279252 18.2601073,5.05094162 17.217,5.056 C15.155,5.056 13.736,6.943 12.909,8.526 C12.7364752,8.85627843 12.3946239,9.06323908 12.022,9.063 C11.64894,9.06285071 11.3069806,8.85505354 11.135,8.524 C10.318,6.942 8.897,5.056 6.818,5.056 C5.77743728,5.04895491 4.77683665,5.45624722 4.037,6.188 C3.31284623,7.0170492 2.95248164,8.10246736 3.037,9.2 C3.037,15.942 11.218,19.783 12.103,20 C12.4602656,20.0151838 12.7822922,20.2198131 12.9477754,20.5368061 C13.1132587,20.8537991 13.0970577,21.2349969 12.9052754,21.5368061 C12.7134931,21.8386153 12.3752656,22.0151838 12.018,22 Z" id="Combined-Shape"></path>
        </g>
    </g>
</svg>