<?xml version="1.0" encoding="UTF-8"?>
<svg width="24px" height="24px" viewBox="0 0 24 24" version="1.1" xmlns="http://www.w3.org/2000/svg" xmlns:xlink="http://www.w3.org/1999/xlink">
    <!-- Generator: sketchtool 49.1 (51147) - http://www.bohemiancoding.com/sketch -->
    <title>heart-lock</title>
    <desc>Created with sketchtool.</desc>
    <defs></defs>
    <g id="Icons" stroke="none" stroke-width="1" fill="none" fill-rule="evenodd">
        <g id="heart-lock" fill="#000000" fill-rule="nonzero">
            <path d="M20,14.9 C19.1883844,14.8436542 18.3921439,15.1415833 17.8168636,15.7168636 C17.2415833,16.2921439 16.9436542,17.0883844 17,17.9 L17,24 L23,24 L23,17.9 C23.0563458,17.0883844 22.7584167,16.2921439 22.1831364,15.7168636 C21.6078561,15.1415833 20.8116156,14.8436542 20,14.9 L20,14.9 Z M20,16.7 C20.818,16.7 21.2,16.984 21.2,17.9 L21.2,19 L18.8,19 L18.8,17.9 C18.8,17 19.182,16.7 20,16.7 Z M1.018,9.152 C0.928374775,7.53046226 1.49367259,5.9408549 2.587,4.74 C3.7031204,3.62140741 5.21982624,2.99499674 6.8,3 C8.94456214,3.08189444 10.9030833,4.24015964 12.008,6.08 C13.1099741,4.24491863 15.0612538,3.08737984 17.2,3 C18.7802832,2.99444015 20.2971948,3.6209358 21.413,4.74 C22.5070161,5.93947238 23.073726,7.5279172 22.986,9.149 C22.985885,9.83764524 22.9158593,10.5244999 22.777,11.199 C22.6556114,11.7281594 22.1341878,12.0638051 21.602259,11.9551928 C21.0703302,11.8465805 20.722227,11.3333897 20.818,10.799 C20.9295692,10.2574341 20.9858579,9.70593877 20.986,9.153 C21.0705184,8.05546736 20.7101538,6.9700492 19.986,6.141 C19.2467873,5.40415142 18.2437131,4.99334467 17.2,5 C15.139,5 13.719,6.888 12.886,8.471 C12.7133702,8.80057242 12.3720471,9.00706131 12,9.007 C11.6280189,9.00573409 11.2874821,8.79809908 11.116,8.468 C10.294,6.886 8.878,5 6.8,5 C5.75802295,4.99421573 4.75675013,5.40415453 4.018,6.139 C3.29384623,6.9680492 2.93348164,8.05346736 3.018,9.151 C3.018,15.71 10.767,19.522 11.998,19.922 C12.111,19.885 12.307,19.813 12.592,19.685 C13.096236,19.4596678 13.6876678,19.685764 13.913,20.19 C14.1383322,20.694236 13.912236,21.2856678 13.408,21.511 C12.9759485,21.7564918 12.4953364,21.9042937 12,21.944 C10.526,21.944 1.018,17.1 1.018,9.152 Z" id="Combined-Shape"></path>
        </g>
    </g>
</svg>