<?xml version="1.0" encoding="UTF-8"?>
<svg width="24px" height="24px" viewBox="0 0 24 24" version="1.1" xmlns="http://www.w3.org/2000/svg" xmlns:xlink="http://www.w3.org/1999/xlink">
    <!-- Generator: sketchtool 44.1 (41455) - http://www.bohemiancoding.com/sketch -->
    <title>heart</title>
    <desc>Created with sketchtool.</desc>
    <defs></defs>
    <g id="Symbols" stroke="none" stroke-width="1" fill="none" fill-rule="evenodd">
        <g id="heart" fill-rule="nonzero" fill="#000000">
            <path d="M12,21.938 C13.473,21.938 22.982,17.093 22.982,9.146 C23.0715558,7.52465241 22.5066702,5.93519112 21.414,4.734 C20.2977369,3.61488832 18.7806424,2.98810579 17.2,2.993 C15.0608403,3.07986924 13.1090345,4.2374972 12.007,6.073 C10.9025407,4.23318198 8.94430844,3.07486519 6.8,2.993 C5.21945809,2.98761846 3.70230172,3.61406651 2.586,4.733 C1.49287947,5.93432145 0.927945191,7.52427997 1.018,9.146 C1.018,17.093 10.527,21.938 12,21.938 Z M4.014,6.134 C4.75352618,5.39762349 5.75639465,4.98690098 6.8,4.993 C8.879,4.993 10.3,6.879 11.117,8.461 C11.2883154,8.79078179 11.6283788,8.99836293 12,9 L12,9 C12.3722646,8.99986661 12.7136415,8.79295987 12.886,8.463 C13.714,6.88 15.133,4.993 17.195,4.993 C18.23867,4.98656739 19.2416618,5.39734041 19.981,6.134 C20.7051538,6.9630492 21.0655184,8.04846736 20.981,9.146 C20.981,15.708 13.225,19.521 11.999,19.917 C10.773,19.517 3.017,15.708 3.017,9.146 C2.93166131,8.04888699 3.29092742,6.96352136 4.014,6.134 L4.014,6.134 Z" id="Shape"></path>
        </g>
    </g>
</svg>