<?xml version="1.0" encoding="UTF-8"?>
<svg width="24px" height="24px" viewBox="0 0 24 24" version="1.1" xmlns="http://www.w3.org/2000/svg" xmlns:xlink="http://www.w3.org/1999/xlink">
    <!-- Generator: sketchtool 49.1 (51147) - http://www.bohemiancoding.com/sketch -->
    <title>house</title>
    <desc>Created with sketchtool.</desc>
    <defs></defs>
    <g id="Icons" stroke="none" stroke-width="1" fill="none" fill-rule="evenodd">
        <g id="house" fill="#000000" fill-rule="nonzero">
            <path d="M4.02,22 L19.98,22 C21.0956152,22 22,21.0956152 22,19.98 L22,12.236 C22.0000277,11.431853 21.6806039,10.6606317 21.112,10.092 L14.112,3.092 C12.9435887,1.92376929 11.0494113,1.92376929 9.881,3.092 L2.879,10.1 C2.31586164,10.6629682 1.99963927,11.4267225 2,12.223 L2,19.98 C2,21.0956152 2.90438481,22 4.02,22 L4.02,22 Z M14,20 L10,20 L10,14 C10,12.8954305 10.8954305,12 12,12 C13.1045695,12 14,12.8954305 14,14 L14,20 Z M4,12.223 C3.99979125,11.9574587 4.10520544,11.7027377 4.293,11.515 L11.3,4.509 C11.6870661,4.12352915 12.3129339,4.12352915 12.7,4.509 L19.7,11.509 C19.8934289,11.7025364 20.001446,11.965378 20,12.239 L19.98,20 L16,20 L16,14 C16,11.790861 14.209139,10 12,10 C9.790861,10 8,11.790861 8,14 L8,20 L4,19.98 L4,12.223 Z" id="Shape"></path>
        </g>
    </g>
</svg>