<?xml version="1.0" encoding="UTF-8"?>
<svg width="24px" height="24px" viewBox="0 0 24 24" version="1.1" xmlns="http://www.w3.org/2000/svg" xmlns:xlink="http://www.w3.org/1999/xlink">
    <!-- Generator: sketchtool 44.1 (41455) - http://www.bohemiancoding.com/sketch -->
    <title>house-land-area</title>
    <desc>Created with sketchtool.</desc>
    <defs></defs>
    <g id="Symbols" stroke="none" stroke-width="1" fill="none" fill-rule="evenodd">
        <g id="house-land-area" fill-rule="nonzero" fill="#000000">
            <path d="M18.708,9.294 L18.708,9.294 L14.708,5.294 L14.708,5.294 L11.708,2.294 C11.3175001,1.90361806 10.6844999,1.90361806 10.294,2.294 L9.294,3.294 L9.294,3.294 L5.294,7.294 L5.294,7.294 L0.294,12.294 C-0.0963819383,12.6844999 -0.0963819383,13.3175001 0.294,13.708 L5.294,18.708 L5.294,18.708 L6.294,19.708 C6.68449985,20.0983819 7.31750015,20.0983819 7.708,19.708 L10,17.414 L13.292,20.706 L13.292,20.706 L15.292,22.706 C15.6824999,23.0963819 16.3155001,23.0963819 16.706,22.706 L18.706,20.706 L18.706,20.706 L23.706,15.706 C24.0963819,15.3155001 24.0963819,14.6824999 23.706,14.292 L18.708,9.294 Z M5,15.586 L2.414,13 L5,10.414 L5,15.586 Z M9,15.586 L7,17.586 L7,8.414 L9,6.414 L9,15.586 Z M13,17.586 L11,15.586 L11,4.414 L13,6.414 L13,17.586 Z M17,19.586 L16,20.586 L15,19.586 L15,8.414 L17,10.414 L17,19.586 Z M19,17.586 L19,12.414 L21.586,15 L19,17.586 Z" id="Shape"></path>
        </g>
    </g>
</svg>