<?xml version="1.0" encoding="UTF-8"?>
<svg width="24px" height="24px" viewBox="0 0 24 24" version="1.1" xmlns="http://www.w3.org/2000/svg" xmlns:xlink="http://www.w3.org/1999/xlink">
    <!-- Generator: sketchtool 44.1 (41455) - http://www.bohemiancoding.com/sketch -->
    <title>house-view-inside</title>
    <desc>Created with sketchtool.</desc>
    <defs></defs>
    <g id="Symbols" stroke="none" stroke-width="1" fill="none" fill-rule="evenodd">
        <g id="house-view-inside" fill-rule="nonzero" fill="#000000">
            <path d="M15,20 C14.4477153,20 14,20.4477153 14,21 C14,21.5522847 14.4477153,22 15,22 L19.98,22 C21.0951582,21.9988975 21.9988975,21.0951582 22,19.98 L22,12.236 C21.9982188,11.4319199 21.6790896,10.6610503 21.112,10.091 L14.112,3.091 C12.9281599,1.96160111 11.0658401,1.96160111 9.882,3.091 L2.879,10.1 C2.31398238,10.6617106 1.99742105,11.4262836 2,12.223 L2,19.98 C2.00165342,21.09532 2.90567936,21.9988986 4.021,22 L7,22 C10.3121094,21.9961426 12.9961426,19.3121094 13,16 L13,13.273 L14.364,14.637 C14.7176283,14.9755248 15.2769843,14.9693127 15.6230072,14.6230178 C15.9690301,14.2767228 15.9748026,13.7173622 15.636,13.364 L12.636,10.364 C12.2846189,10.0130559 11.7153811,10.0130559 11.364,10.364 L8.364,13.364 C8.02519744,13.7173622 8.03096994,14.2767228 8.37699284,14.6230178 C8.72301574,14.9693127 9.28237165,14.9755248 9.636,14.637 L11,13.273 L11,16 C11,18.209139 9.209139,20 7,20 L4,19.979 L4,12.223 C3.99979125,11.9574587 4.10520544,11.7027377 4.293,11.515 L11.3,4.509 C11.6903441,4.13154972 12.3096559,4.13154972 12.7,4.509 L19.7,11.509 C19.8921571,11.7029732 19.9999713,11.9649616 20,12.238 L19.98,20 L15,20 Z" id="Shape"></path>
        </g>
    </g>
</svg>