<?xml version="1.0" encoding="UTF-8"?>
<svg width="24px" height="24px" viewBox="0 0 24 24" version="1.1" xmlns="http://www.w3.org/2000/svg" xmlns:xlink="http://www.w3.org/1999/xlink">
    <!-- Generator: sketchtool 49.1 (51147) - http://www.bohemiancoding.com/sketch -->
    <title>image</title>
    <desc>Created with sketchtool.</desc>
    <defs></defs>
    <g id="Icons" stroke="none" stroke-width="1" fill="none" fill-rule="evenodd">
        <g id="image" fill="#000000" fill-rule="nonzero">
            <path d="M22,4 C22,2.8954305 21.1045695,2 20,2 L4,2 C2.8954305,2 2,2.8954305 2,4 L2,20 C2,21.1045695 2.8954305,22 4,22 L20,22 C21.1045695,22 22,21.1045695 22,20 L22,4 Z M20,13.587 L16.5,10.087 L10,16.587 L7,13.587 L4,16.587 L4,10.238 C5.78438275,11.4227086 8.15650653,11.1855513 9.67102893,9.67102893 C11.1855513,8.15650653 11.4227086,5.78438275 10.238,4 L20,4 L20,13.587 Z M4,4 L6.5,4 C7.88071187,4 9,5.11928813 9,6.5 C9,7.88071187 7.88071187,9 6.5,9 C5.11928813,9 4,7.88071187 4,6.5 L4,4 Z M4,20 L4,19.414 L7,16.414 L10,19.414 L16.5,12.914 L20,16.414 L20,20 L4,20 Z" id="Shape"></path>
        </g>
    </g>
</svg>