<?xml version="1.0" encoding="UTF-8"?>
<svg width="24px" height="24px" viewBox="0 0 24 24" version="1.1" xmlns="http://www.w3.org/2000/svg" xmlns:xlink="http://www.w3.org/1999/xlink">
    <!-- Generator: sketchtool 44.1 (41455) - http://www.bohemiancoding.com/sketch -->
    <title>key</title>
    <desc>Created with sketchtool.</desc>
    <defs></defs>
    <g id="Symbols" stroke="none" stroke-width="1" fill="none" fill-rule="evenodd">
        <g id="key" fill-rule="nonzero" fill="#000000">
            <path d="M17,9.5 C17.0008825,10.3918083 16.8402925,11.2764085 16.526,12.111 L23,18.586 L23,23 L18.586,23 L12.111,16.526 C11.2764085,16.8402925 10.3918083,17.0008825 9.5,17 C5.35786438,17 2,13.6421356 2,9.5 C2,5.35786438 5.35786438,2 9.5,2 C13.6421356,2 17,5.35786438 17,9.5 Z M9,11 C7.8954305,11 7,10.1045695 7,9 C7,7.8954305 7.8954305,7 9,7 C10.1045695,7 11,7.8954305 11,9 C11,10.1045695 10.1045695,11 9,11 Z M21,19.414 L14.129,12.541 L14.441,11.9 C14.8083924,11.1532663 14.9996281,10.3322188 15,9.5 C15,6.46243388 12.5375661,4 9.5,4 C6.46243388,4 4,6.46243388 4,9.5 C4,12.5375661 6.46243388,15 9.5,15 C10.3328943,14.999934 11.1546602,14.8086904 11.902,14.441 L12.543,14.128 L19.414,21 L21,21 L21,19.414 Z" id="Combined-Shape"></path>
        </g>
    </g>
</svg>