<?xml version="1.0" encoding="UTF-8"?>
<svg width="24px" height="24px" viewBox="0 0 24 24" version="1.1" xmlns="http://www.w3.org/2000/svg" xmlns:xlink="http://www.w3.org/1999/xlink">
    <!-- Generator: sketchtool 49.1 (51147) - http://www.bohemiancoding.com/sketch -->
    <title>link</title>
    <desc>Created with sketchtool.</desc>
    <defs></defs>
    <g id="Icons" stroke="none" stroke-width="1" fill="none" fill-rule="evenodd">
        <g id="link" fill="#000000" fill-rule="nonzero">
            <path d="M13.793,1.793 C16.1241895,-0.484510761 19.8537789,-0.462791759 22.1582853,1.84171465 C24.4627918,4.14622106 24.4845108,7.87581053 22.207,10.207 L19.157,13.257 C18.7646211,13.6359722 18.1409152,13.6305524 17.7551814,13.2448186 C17.3694476,12.8590848 17.3640278,12.2353789 17.743,11.843 L20.793,8.793 C22.3167135,7.24727954 22.3078032,4.76170963 20.7730468,3.2269532 C19.2382904,1.69219676 16.7527205,1.68328648 15.207,3.207 L11.157,7.257 C10.2465941,8.1687783 9.83769091,9.46704521 10.0612576,10.7359804 C10.2848243,12.0049156 11.1128025,13.0852632 12.28,13.631 C12.7654407,13.8727242 12.9697494,14.4573193 12.7405546,14.9487997 C12.5113598,15.4402802 11.9321968,15.6595146 11.435,15.443 C9.67636273,14.6217648 8.42861277,12.9946203 8.09171549,11.0831464 C7.75481822,9.1716725 8.37109547,7.21599315 9.743,5.843 L13.793,1.793 Z M6,23.947 C3.59396147,23.9480813 1.4243303,22.4992817 0.503300755,20.276507 C-0.417728791,18.0537324 0.0913352039,15.4949878 1.793,13.794 L4.793,10.794 C5.18537889,10.4150278 5.80908478,10.4204476 6.19481858,10.8061814 C6.58055237,11.1919152 6.58597221,11.8156211 6.207,12.208 L3.207,15.208 C1.68328648,16.7537205 1.69219676,19.2392904 3.2269532,20.7740468 C4.76170963,22.3088032 7.24727954,22.3177135 8.793,20.794 L12.793,16.794 C13.6788504,15.9069053 14.0913947,14.6521961 13.904828,13.4124942 C13.7182614,12.1727923 12.9547034,11.0950785 11.847,10.508 C11.5311772,10.3406211 11.3286405,10.0174671 11.3156835,9.6602671 C11.3027266,9.30306708 11.4813177,8.96608819 11.7841835,8.7762671 C12.0870493,8.58644601 12.4681772,8.57262107 12.784,8.74 C14.4514483,9.62497521 15.6005378,11.2481414 15.881135,13.1149114 C16.1617322,14.9816813 15.5405997,16.8709324 14.207,18.207 L10.207,22.207 C9.09203232,23.323645 7.57798635,23.949849 6,23.947 Z" id="Combined-Shape"></path>
        </g>
    </g>
</svg>