<?xml version="1.0" encoding="UTF-8"?>
<svg width="24px" height="24px" viewBox="0 0 24 24" version="1.1" xmlns="http://www.w3.org/2000/svg" xmlns:xlink="http://www.w3.org/1999/xlink">
    <!-- Generator: sketchtool 49.1 (51147) - http://www.bohemiancoding.com/sketch -->
    <title>link-external</title>
    <desc>Created with sketchtool.</desc>
    <defs></defs>
    <g id="Icons" stroke="none" stroke-width="1" fill="none" fill-rule="evenodd">
        <g id="link-external" fill="#000000" fill-rule="nonzero">
            <path d="M5,5.991 C4.73461016,5.99099987 4.48010458,6.09649397 4.29253943,6.28424668 C4.10497428,6.4719994 3.99973461,6.72661029 4,6.992 L4,18.992 C4,19.5442847 4.44771525,19.992 5,19.992 L17,19.992 C17.5522847,19.992 18,19.5442847 18,18.992 L18,15.666 C18,15.1137153 18.4477153,14.666 19,14.666 C19.5522847,14.666 20,15.1137153 20,15.666 L20,18.991 C20,20.6478542 18.6568542,21.991 17,21.991 L5,21.991 C3.34314575,21.991 2,20.6478542 2,18.991 L2,6.991 C2,5.33414575 3.34314575,3.991 5,3.991 L8.333,3.991 C8.88528475,3.991 9.333,4.43871525 9.333,4.991 C9.333,5.54328475 8.88528475,5.991 8.333,5.991 L5,5.991 Z M22,2 L22,10 C22,10.5522847 21.5522847,11 21,11 C20.4477153,11 20,10.5522847 20,10 L20,5.414 L14.707,10.707 C14.4559255,10.9669566 14.0841221,11.0712126 13.7344927,10.9796972 C13.3848632,10.8881817 13.1118183,10.6151368 13.0203028,10.2655073 C12.9287874,9.91587789 13.0330434,9.54407447 13.293,9.293 L18.586,4 L14,4 C13.4477153,4 13,3.55228475 13,3 C13,2.44771525 13.4477153,2 14,2 L22,2 Z" id="Combined-Shape"></path>
        </g>
    </g>
</svg>