<?xml version="1.0" encoding="UTF-8"?>
<svg width="24px" height="24px" viewBox="0 0 24 24" version="1.1" xmlns="http://www.w3.org/2000/svg" xmlns:xlink="http://www.w3.org/1999/xlink">
    <!-- Generator: sketchtool 49.1 (51147) - http://www.bohemiancoding.com/sketch -->
    <title>location</title>
    <desc>Created with sketchtool.</desc>
    <defs></defs>
    <g id="Icons" stroke="none" stroke-width="1" fill="none" fill-rule="evenodd">
        <g id="location" fill="#000000" fill-rule="nonzero">
            <path d="M9,10 C9,8.34314575 10.3431458,7 12,7 C13.6568542,7 15,8.34314575 15,10 C15,11.6568542 13.6568542,13 12,13 C10.3431458,13 9,11.6568542 9,10 Z M12.681,22.232 C12.979,21.955 20,15.374 20,10 C20,5.581722 16.418278,2 12,2 C7.581722,2 4,5.581722 4,10 C4,15.374 11.021,21.955 11.319,22.232 L12,22.864 L12.681,22.232 Z M18,10 C18,13.342 14.145,17.935 12,20.1 C9.855,17.935 6,13.342 6,10 C6,6.6862915 8.6862915,4 12,4 C15.3137085,4 18,6.6862915 18,10 L18,10 Z" id="Shape"></path>
        </g>
    </g>
</svg>