<?xml version="1.0" encoding="UTF-8"?>
<svg width="24px" height="24px" viewBox="0 0 24 24" version="1.1" xmlns="http://www.w3.org/2000/svg" xmlns:xlink="http://www.w3.org/1999/xlink">
    <!-- Generator: sketchtool 44.1 (41455) - http://www.bohemiancoding.com/sketch -->
    <title>lock-open</title>
    <desc>Created with sketchtool.</desc>
    <defs></defs>
    <g id="Symbols" stroke="none" stroke-width="1" fill="none" fill-rule="evenodd">
        <g id="lock-open" fill-rule="nonzero" fill="#000000">
            <path d="M12,3 C13.3678042,2.99976252 14.562593,3.92474703 14.905,5.249 C15.0430712,5.78388778 15.5886122,6.10557119 16.1235,5.9675 C16.6583878,5.82942881 16.9800712,5.28388778 16.842,4.749 C16.2137129,2.30942023 13.8686074,0.718259423 11.3695295,1.035913 C8.87045163,1.35356657 6.99798698,3.48081558 7,6 L7,8 L6,8 C4.34314575,8 3,9.34314575 3,11 L3,19 C3,20.6568542 4.34314575,22 6,22 L18,22 C19.6568542,22 21,20.6568542 21,19 L21,11 C21,9.34314575 19.6568542,8 18,8 L9,8 L9,6 C9,4.34314575 10.3431458,3 12,3 Z M18,10 C18.5522847,10 19,10.4477153 19,11 L19,19 C19,19.5522847 18.5522847,20 18,20 L6,20 C5.44771525,20 5,19.5522847 5,19 L5,11 C5,10.4477153 5.44771525,10 6,10 L18,10 Z M11,15.723 L11,18 C11,18.5522847 11.4477153,19 12,19 C12.5522847,19 13,18.5522847 13,18 L13,15.723 C13.783936,15.2703943 14.1661376,14.3476781 13.9318517,13.4733111 C13.6975657,12.5989441 12.9052114,11.9909492 12,11.9909492 C11.0947886,11.9909492 10.3024343,12.5989441 10.0681483,13.4733111 C9.83386241,14.3476781 10.216064,15.2703943 11,15.723 Z" id="Combined-Shape"></path>
        </g>
    </g>
</svg>