<?xml version="1.0" encoding="UTF-8"?>
<svg width="24px" height="24px" viewBox="0 0 24 24" version="1.1" xmlns="http://www.w3.org/2000/svg" xmlns:xlink="http://www.w3.org/1999/xlink">
    <!-- Generator: sketchtool 44.1 (41455) - http://www.bohemiancoding.com/sketch -->
    <title>mail-cross</title>
    <desc>Created with sketchtool.</desc>
    <defs></defs>
    <g id="Symbols" stroke="none" stroke-width="1" fill="none" fill-rule="evenodd">
        <g id="mail-cross" fill-rule="nonzero" fill="#000000">
            <path d="M20,16.5857864 L22.2928932,14.2928932 C22.6834175,13.9023689 23.3165825,13.9023689 23.7071068,14.2928932 C24.0976311,14.6834175 24.0976311,15.3165825 23.7071068,15.7071068 L21.4142136,18 L23.7071068,20.2928932 C24.0976311,20.6834175 24.0976311,21.3165825 23.7071068,21.7071068 C23.3165825,22.0976311 22.6834175,22.0976311 22.2928932,21.7071068 L20,19.4142136 L17.7071068,21.7071068 C17.3165825,22.0976311 16.6834175,22.0976311 16.2928932,21.7071068 C15.9023689,21.3165825 15.9023689,20.6834175 16.2928932,20.2928932 L18.5857864,18 L16.2928932,15.7071068 C15.9023689,15.3165825 15.9023689,14.6834175 16.2928932,14.2928932 C16.6834175,13.9023689 17.3165825,13.9023689 17.7071068,14.2928932 L20,16.5857864 L20,16.5857864 Z M5.51859226,7 L10.027925,10.9456662 C11.1027052,11.8860988 12.8979255,11.8855469 13.972075,10.9456662 L18.4814077,7 L5.51859226,7 Z M20,8.32876823 L15.2890842,12.4508196 C13.4610805,14.0503228 10.5399458,14.0512208 8.71091582,12.4508196 L3.99944821,8.32828541 C3.99972953,9.87217132 3.99991346,12.7619184 4,16.9975267 C4,16.9960601 7.28903522,16.9968845 13.8671057,17 C14.4193904,17 14.8671057,17.4477153 14.8671057,18 C14.8671057,18.5522847 14.4193904,19 13.8671057,19 L4.00287254,19 C2.89812156,19 2,18.0979439 2,16.9975267 L2,7.00247329 C2,5.89859975 2.89058031,5 3.99339768,5 L20.0066023,5 C21.107815,5 22,5.89903088 22,6.99814057 L22,11.5117734 C22,12.0640581 21.5522847,12.5117734 21,12.5117734 C20.4477153,12.5117734 20,12.0640581 20,11.5117734 L20,8.32876823 Z" id="Combined-Shape"></path>
        </g>
    </g>
</svg>