<?xml version="1.0" encoding="UTF-8"?>
<svg width="24px" height="24px" viewBox="0 0 24 24" version="1.1" xmlns="http://www.w3.org/2000/svg" xmlns:xlink="http://www.w3.org/1999/xlink">
    <!-- Generator: sketchtool 44.1 (41455) - http://www.bohemiancoding.com/sketch -->
    <title>map-planner</title>
    <desc>Created with sketchtool.</desc>
    <defs></defs>
    <g id="Symbols" stroke="none" stroke-width="1" fill="none" fill-rule="evenodd">
        <g id="map-planner" fill-rule="nonzero" fill="#000000">
            <path d="M4.492,10.458 L5.224,9.689 C5.508,9.391 8,6.711 8,4.5 C8,2.56700338 6.43299662,1 4.5,1 C2.56700338,1 1,2.56700338 1,4.5 C1,6.652 3.485,9.378 3.769,9.682 L4.492,10.458 Z M3,4.5 C3,3.67157288 3.67157288,3 4.5,3 C5.32842712,3 6,3.67157288 6,4.5 C6,5.32842712 5.32842712,6 4.5,6 C4.10217527,6 3.7206444,5.84196474 3.43933983,5.56066017 C3.15803526,5.2793556 3,4.89782473 3,4.5 Z M17.5,5 C20.5359672,5.0038566 22.9961434,7.46403277 23,10.5 C23,14.169 18.713,18.776 18.225,19.289 L17.493,20.058 L16.769,19.282 C16.28,18.759 12,14.066 12,10.5 C12.0038566,7.46403277 14.4640328,5.0038566 17.5,5 Z M17.5,13.2 C18.2160845,13.2 18.9028401,12.9155365 19.4091883,12.4091883 C19.9155365,11.9028401 20.2,11.2160845 20.2,10.5 C20.2,9.00883118 18.9911688,7.8 17.5,7.8 C16.0088312,7.8 14.8,9.00883118 14.8,10.5 C14.8,11.9911688 16.0088312,13.2 17.5,13.2 Z M5.883,17.879 L8.055,15.707 C8.3410368,15.4208771 8.42648732,14.9905921 8.27148684,14.6168833 C8.11648637,14.2431745 7.75157791,13.9996817 7.347,14 L4,14 C3.44771525,14 3,13.5522847 3,13 C3,12.4477153 3.44771525,12 4,12 L7.347,12 C8.56091579,11.9986399 9.65601185,12.72897 10.12127,13.8501873 C10.5865281,14.9714046 10.3302398,16.2625025 9.472,17.121 L7.3,19.293 C7.01497415,19.5780911 6.92900619,20.0064493 7.08196055,20.3794394 C7.23491491,20.7524296 7.59687684,20.9971024 8,21 L19,21 C19.5522847,21 20,21.4477153 20,22 C20,22.5522847 19.5522847,23 19,23 L8,23 C6.78754014,22.9981259 5.69540423,22.2666103 5.23219758,21.1461185 C4.76899092,20.0256266 5.02578841,18.7364676 5.883,17.879 Z" id="Combined-Shape"></path>
        </g>
    </g>
</svg>