<?xml version="1.0" encoding="UTF-8"?>
<svg width="24px" height="24px" viewBox="0 0 24 24" version="1.1" xmlns="http://www.w3.org/2000/svg" xmlns:xlink="http://www.w3.org/1999/xlink">
    <!-- Generator: sketchtool 44.1 (41455) - http://www.bohemiancoding.com/sketch -->
    <title>map-location</title>
    <desc>Created with sketchtool.</desc>
    <defs></defs>
    <g id="Symbols" stroke="none" stroke-width="1" fill="none" fill-rule="evenodd">
        <g id="map-location" fill-rule="nonzero" fill="#000000">
            <path d="M22,11 L20.941,11 C20.4684143,6.82567886 17.1743211,3.53158567 13,3.059 L13,2 C13,1.44771525 12.5522847,1 12,1 C11.4477153,1 11,1.44771525 11,2 L11,3.059 C6.82567886,3.53158567 3.53158567,6.82567886 3.059,11 L2,11 C1.44771525,11 1,11.4477153 1,12 C1,12.5522847 1.44771525,13 2,13 L3.059,13 C3.53158567,17.1743211 6.82567886,20.4684143 11,20.941 L11,22 C11,22.5522847 11.4477153,23 12,23 C12.5522847,23 13,22.5522847 13,22 L13,20.941 C17.1743211,20.4684143 20.4684143,17.1743211 20.941,13 L22,13 C22.5522847,13 23,12.5522847 23,12 C23,11.4477153 22.5522847,11 22,11 L22,11 Z M13,18.92 L13,18 C13,17.4477153 12.5522847,17 12,17 C11.4477153,17 11,17.4477153 11,18 L11,18.92 C7.93478412,18.4726706 5.52732939,16.0652159 5.08,13 L6,13 C6.55228475,13 7,12.5522847 7,12 C7,11.4477153 6.55228475,11 6,11 L5.08,11 C5.52732939,7.93478412 7.93478412,5.52732939 11,5.08 L11,6 C11,6.55228475 11.4477153,7 12,7 C12.5522847,7 13,6.55228475 13,6 L13,5.08 C16.0652159,5.52732939 18.4726706,7.93478412 18.92,11 L18,11 C17.4477153,11 17,11.4477153 17,12 C17,12.5522847 17.4477153,13 18,13 L18.92,13 C18.4726706,16.0652159 16.0652159,18.4726706 13,18.92 L13,18.92 Z M12,8 C9.790861,8 8,9.790861 8,12 C8,14.209139 9.790861,16 12,16 C14.209139,16 16,14.209139 16,12 C16,10.939134 15.5785726,9.92171839 14.8284271,9.17157288 C14.0782816,8.42142736 13.060866,8 12,8 Z M12,14 C10.8954305,14 10,13.1045695 10,12 C10,10.8954305 10.8954305,10 12,10 C13.1045695,10 14,10.8954305 14,12 C14,13.1045695 13.1045695,14 12,14 Z" id="Combined-Shape"></path>
        </g>
    </g>
</svg>