<?xml version="1.0" encoding="UTF-8"?>
<svg width="24px" height="24px" viewBox="0 0 24 24" version="1.1" xmlns="http://www.w3.org/2000/svg" xmlns:xlink="http://www.w3.org/1999/xlink">
    <!-- Generator: sketchtool 44.1 (41455) - http://www.bohemiancoding.com/sketch -->
    <title>map</title>
    <desc>Created with sketchtool.</desc>
    <defs></defs>
    <g id="Symbols" stroke="none" stroke-width="1" fill="none" fill-rule="evenodd">
        <g id="map" fill-rule="nonzero" fill="#000000">
            <path d="M3.245,19.659 C4.02494863,20.2259407 5.03123839,20.3798657 5.945,20.072 L9,19.054 L15,21.054 L19.949,19.4 C21.1721399,18.9921374 21.9978744,17.8483481 22,16.559 L22,6.775 C22.0000179,5.81060094 21.5364054,4.90499422 20.754018,4.34113644 C19.9716307,3.77727865 18.9658753,3.62392843 18.051,3.929 L15,4.946 L9,2.946 L4.051,4.6 C2.82786013,5.00786258 2.00212556,6.15165191 2,7.441 L2,17.225 C1.99454285,18.1905067 2.45891758,19.0983687 3.245,19.659 L3.245,19.659 Z M4,7.441 C3.99989631,7.01039259 4.27545725,6.62807193 4.684,6.492 L9,5.054 L14,6.721 L14,10 C14,10.5522847 14.4477153,11 15,11 C15.5522847,11 16,10.5522847 16,10 L16,6.721 L18.684,5.826 C18.9889726,5.72442382 19.3241819,5.77564354 19.5849053,5.9636576 C19.8456288,6.15167167 20.0000774,6.45355642 20,6.775 L20,16.559 C20.0001037,16.9896074 19.7245428,17.3719281 19.316,17.508 L16,18.613 L16,13 C16,12.4477153 15.5522847,12 15,12 C14.4477153,12 14,12.4477153 14,13 L14,18.612 L10,17.279 L10,8 C10,7.44771525 9.55228475,7 9,7 C8.44771525,7 8,7.44771525 8,8 L8,17.279 L5.316,18.174 C5.01102744,18.2755762 4.67581806,18.2243565 4.41509465,18.0363424 C4.15437125,17.8483283 3.99992259,17.5464436 4,17.225 L4,7.441 Z" id="Shape"></path>
        </g>
    </g>
</svg>