<?xml version="1.0" encoding="UTF-8"?>
<svg width="24px" height="24px" viewBox="0 0 24 24" version="1.1" xmlns="http://www.w3.org/2000/svg" xmlns:xlink="http://www.w3.org/1999/xlink">
    <!-- Generator: sketchtool 49.1 (51147) - http://www.bohemiancoding.com/sketch -->
    <title>money-transfer-out</title>
    <desc>Created with sketchtool.</desc>
    <defs></defs>
    <g id="Icons" stroke="none" stroke-width="1" fill="none" fill-rule="evenodd">
        <g id="money-transfer-out" fill="#000000" fill-rule="nonzero">
            <path d="M7,11 C7,10.4477153 7.44771525,10 8,10 L8.09,10 L8,9.1 C7.96427343,8.74273441 8.12185965,8.39354749 8.41339745,8.18397458 C8.70493525,7.97440167 9.0861331,7.93628189 9.41339746,8.08397458 C9.74066182,8.23166727 9.96427345,8.5427344 10,8.9 L10.306,12.041 C10.3041762,12.0900724 10.323293,12.1376077 10.3585839,12.171754 C10.3938749,12.2059004 10.4420144,12.2234401 10.491,12.22 C10.662,12.223 10.685,12.126 10.7,12.069 L11.359,9.446 C11.6187239,8.40903697 12.5862704,7.70885246 13.6524559,7.78629458 C14.7186414,7.86373669 15.5748508,8.69638923 15.682,9.76 L15.706,10 L16,10 C16.5522847,10 17,10.4477153 17,11 C17,11.5522847 16.5522847,12 16,12 L15.91,12 L16,12.9 C16.0357266,13.2572656 15.8781403,13.6064525 15.5866025,13.8160254 C15.2950647,14.0255983 14.9138669,14.0637181 14.5866025,13.9160254 C14.2593382,13.7683327 14.0357266,13.4572656 14,13.1 L13.694,9.959 C13.6958516,9.90974057 13.6766017,9.86203055 13.6410835,9.82784903 C13.6055652,9.79366751 13.5571522,9.77626102 13.508,9.78 C13.4602881,9.7716657 13.4112353,9.78302189 13.3720403,9.81147598 C13.3328452,9.83993008 13.3068539,9.88305303 13.3,9.931 L12.641,12.554 C12.4087334,13.5368008 11.5278461,14.228482 10.518,14.221 C10.461,14.221 10.406,14.215 10.349,14.215 C9.27656204,14.1499257 8.41302632,13.3101999 8.318,12.24 L8.294,12 L8,12 C7.44771525,12 7,11.5522847 7,11 Z M20,4 C21.6568542,4 23,5.34314575 23,7 L23,11 C23,11.5522847 22.5522847,12 22,12 C21.4477153,12 21,11.5522847 21,11 L21,7 C21,6.44771525 20.5522847,6 20,6 L4,6 C3.44771525,6 3,6.44771525 3,7 L3,11 C3,11.5522847 2.55228475,12 2,12 C1.44771525,12 1,11.5522847 1,11 L1,7 C1,5.34314575 2.34314575,4 4,4 L20,4 Z M5,7 C5.55228475,7 6,7.44771525 6,8 L6,19 L18,19 L18,8 C18,7.44771525 18.4477153,7 19,7 C19.5522847,7 20,7.44771525 20,8 L20,19 C20,20.1045695 19.1045695,21 18,21 L6,21 C4.8954305,21 4,20.1045695 4,19 L4,8 C4,7.44771525 4.44771525,7 5,7 Z" id="Combined-Shape"></path>
        </g>
    </g>
</svg>