<?xml version="1.0" encoding="UTF-8"?>
<svg width="24px" height="24px" viewBox="0 0 24 24" version="1.1" xmlns="http://www.w3.org/2000/svg" xmlns:xlink="http://www.w3.org/1999/xlink">
    <!-- Generator: sketchtool 49.1 (51147) - http://www.bohemiancoding.com/sketch -->
    <title>music-headphones</title>
    <desc>Created with sketchtool.</desc>
    <defs></defs>
    <g id="Icons" stroke="none" stroke-width="1" fill="none" fill-rule="evenodd">
        <g id="music-headphones" fill="#000000" fill-rule="nonzero">
            <path d="M7,19.9 L8,19.9 L8,9.9 L7,9.9 C6.62784771,9.9028045 6.25718899,9.94741773 5.895,10.033 C5.93776514,6.69149881 8.65872516,4.0051393 12.0005,4.0051393 C15.3422748,4.0051393 18.0632349,6.69149881 18.106,10.033 C17.7434853,9.94734333 17.3724869,9.90272961 17,9.9 L16,9.9 L16,19.9 L17,19.9 C19.1356715,19.9085967 21.0390546,18.5544777 21.7312359,16.5340689 C22.4234171,14.5136602 21.7502719,12.2768363 20.058,10.974 C20.391865,7.88734392 18.9331652,4.88119288 16.3019249,3.23331961 C13.6706847,1.58544635 10.3293153,1.58544635 7.69807506,3.23331961 C5.0668348,4.88119288 3.608135,7.88734392 3.942,10.974 C2.24972811,12.2768363 1.57658286,14.5136602 2.26876413,16.5340689 C2.96094539,18.5544777 4.86432855,19.9085967 7,19.9 L7,19.9 Z M18,17.729 L18,12.071 C19.1987459,12.4947224 20.0002061,13.6280708 20.0002061,14.8995 C20.0002061,16.1709292 19.1987459,17.3042776 18,17.728 L18,17.729 Z M6,17.729 C4.80125414,17.3052776 3.99979385,16.1719292 3.99979385,14.9005 C3.99979385,13.6290708 4.80125414,12.4957224 6,12.072 L6,17.729 Z" id="Shape"></path>
        </g>
    </g>
</svg>