<?xml version="1.0" encoding="UTF-8"?>
<svg width="24px" height="24px" viewBox="0 0 24 24" version="1.1" xmlns="http://www.w3.org/2000/svg" xmlns:xlink="http://www.w3.org/1999/xlink">
    <!-- Generator: sketchtool 49.1 (51147) - http://www.bohemiancoding.com/sketch -->
    <title>newspaper</title>
    <desc>Created with sketchtool.</desc>
    <defs></defs>
    <g id="Icons" stroke="none" stroke-width="1" fill="none" fill-rule="evenodd">
        <g id="newspaper" fill="#000000" fill-rule="nonzero">
            <path d="M5,22 C3.34314575,22 2,20.6568542 2,19 L2,10 C2,8.8954305 2.8954305,8 4,8 L6,8 L6,4 C6,2.8954305 6.8954305,2 8,2 L20,2 C21.1045695,2 22,2.8954305 22,4 L22,19 C22,20.6568542 20.6568542,22 19,22 L5,22 Z M14,11 L14,13 L9,13 L9,11 L9,9 L9,7 L9,5 L14,5 L14,7 L14,9 L14,11 Z M16,13 C15.4477153,13 15,12.5522847 15,12 C15,11.4477153 15.4477153,11 16,11 L18,11 C18.5522847,11 19,11.4477153 19,12 C19,12.5522847 18.5522847,13 18,13 L16,13 Z M10,16 C9.44771525,16 9,15.5522847 9,15 C9,14.4477153 9.44771525,14 10,14 L18,14 C18.5522847,14 19,14.4477153 19,15 C19,15.5522847 18.5522847,16 18,16 L10,16 Z M10,19 C9.44771525,19 9,18.5522847 9,18 C9,17.4477153 9.44771525,17 10,17 L18,17 C18.5522847,17 19,17.4477153 19,18 C19,18.5522847 18.5522847,19 18,19 L10,19 Z M16,7 C15.4477153,7 15,6.55228475 15,6 C15,5.44771525 15.4477153,5 16,5 L18,5 C18.5522847,5 19,5.44771525 19,6 C19,6.55228475 18.5522847,7 18,7 L16,7 Z M16,10 C15.4477153,10 15,9.55228475 15,9 C15,8.44771525 15.4477153,8 16,8 L18,8 C18.5522847,8 19,8.44771525 19,9 C19,9.55228475 18.5522847,10 18,10 L16,10 Z M8,4 L8,19 C7.99670559,19.3414416 7.93445714,19.6797483 7.816,20 L19,20 C19.5522847,20 20,19.5522847 20,19 L20,4 L8,4 Z M4,10 L4,19 C4,19.5522847 4.44771525,20 5,20 C5.55228475,20 6,19.5522847 6,19 L6,10 L4,10 Z" id="Combined-Shape"></path>
        </g>
    </g>
</svg>