<?xml version="1.0" encoding="UTF-8"?>
<svg width="24px" height="24px" viewBox="0 0 24 24" version="1.1" xmlns="http://www.w3.org/2000/svg" xmlns:xlink="http://www.w3.org/1999/xlink">
    <!-- Generator: sketchtool 44.1 (41455) - http://www.bohemiancoding.com/sketch -->
    <title>phone</title>
    <desc>Created with sketchtool.</desc>
    <defs></defs>
    <g id="Symbols" stroke="none" stroke-width="1" fill="none" fill-rule="evenodd">
        <g id="phone" fill-rule="nonzero" fill="#000000">
            <path d="M21.972,17.964 C21.8366266,17.0063328 21.2628592,16.1663846 20.42,15.692 L17.168,13.879 C15.973712,13.2127956 14.480029,13.4385753 13.536,14.428 L12.357,15.665 C12.115,15.907 11.966,15.997 11.875,15.99 C11.609,15.99 10.993,15.325 10.543,14.844 C10.324,14.61 10.095,14.364 9.85,14.119 C9.605,13.874 9.36,13.644 9.125,13.426 C8.643,12.976 7.983,12.361 7.979,12.094 C7.979,12.023 8.062,11.854 8.287,11.629 L9.528,10.445 C10.5263669,9.49290303 10.7467137,7.98266119 10.062,6.785 L8.213,3.551 C7.73396699,2.71886126 6.89637497,2.15566557 5.945,2.026 C5.09682956,1.90282813 4.24003265,2.18497128 3.631,2.788 L3.631,2.788 C1.93040221,4.68846838 1.25914265,7.29668471 1.831,9.782 C2.44581038,12.8598392 3.98869152,15.6754838 6.252,17.85 C9.6,21.2 12.9,22.3 15.589,22.3 C17.6523592,22.3622614 19.6628983,21.6417111 21.217,20.283 C21.821642,19.6731412 22.1016992,18.8129392 21.972,17.964 Z M19.804,18.864 C18.779,19.888 13.715,22.479 7.667,16.433 C5.69606129,14.5525206 4.34681666,12.1146689 3.8,9.446 C3.34499831,7.5988794 3.80853508,5.64569553 5.045,4.2 L5.045,4.2 C5.1805282,4.06707244 5.364233,3.99488981 5.554,4 C5.5957929,4.00005199 5.63754144,4.00272389 5.679,4.008 C6.01367119,4.05402798 6.30863291,4.25128363 6.479,4.543 L8.325,7.776 C8.55511522,8.17638758 8.48113326,8.6822754 8.146,9 L6.889,10.2 C6.32708637,10.6867571 5.99634984,11.3878024 5.978,12.131 C5.998,13.245 6.853,14.044 7.76,14.89 C7.978,15.09 8.207,15.307 8.435,15.535 C8.663,15.763 8.876,15.992 9.08,16.21 C9.926,17.116 10.725,17.972 11.839,17.992 C12.5857327,17.9553278 13.2867871,17.6215438 13.786,17.065 L14.986,15.811 C15.3005727,15.4815218 15.7980645,15.4062813 16.196,15.628 L19.448,17.441 C19.7428099,17.6098996 19.9437291,17.9048269 19.993,18.241 C20.0328134,18.4685453 19.9610301,18.7013761 19.8,18.867 L19.804,18.864 Z" id="Shape"></path>
        </g>
    </g>
</svg>