<?xml version="1.0" encoding="UTF-8"?>
<svg width="24px" height="24px" viewBox="0 0 24 24" version="1.1" xmlns="http://www.w3.org/2000/svg" xmlns:xlink="http://www.w3.org/1999/xlink">
    <!-- Generator: sketchtool 49.1 (51147) - http://www.bohemiancoding.com/sketch -->
    <title>printer</title>
    <desc>Created with sketchtool.</desc>
    <defs></defs>
    <g id="Icons" stroke="none" stroke-width="1" fill="none" fill-rule="evenodd">
        <g id="printer" fill="#000000" fill-rule="nonzero">
            <path d="M4,18 L5,18 L5,22 L19,22 L19,18 L20,18 C21.6568542,18 23,16.6568542 23,15 L23,10 C23,8.34314575 21.6568542,7 20,7 L4,7 C2.34314575,7 1,8.34314575 1,10 L1,15 C1,16.6568542 2.34314575,18 4,18 Z M17,20 L7,20 L7,14 L17,14 L17,20 Z M3,10 C3,9.44771525 3.44771525,9 4,9 L20,9 C20.5522847,9 21,9.44771525 21,10 L21,15 C21,15.5522847 20.5522847,16 20,16 L19,16 L19,14 C19.5522847,14 20,13.5522847 20,13 C20,12.4477153 19.5522847,12 19,12 L5,12 C4.44771525,12 4,12.4477153 4,13 C4,13.5522847 4.44771525,14 5,14 L5,16 L4,16 C3.44771525,16 3,15.5522847 3,15 L3,10 Z M6,6 C5.44771525,6 5,5.55228475 5,5 L5,2 L19,2 L19,5 C19,5.55228475 18.5522847,6 18,6 C17.4477153,6 17,5.55228475 17,5 L17,4 L7,4 L7,5 C7,5.55228475 6.55228475,6 6,6 Z" id="Combined-Shape"></path>
        </g>
    </g>
</svg>