<?xml version="1.0" encoding="UTF-8"?>
<svg width="24px" height="24px" viewBox="0 0 24 24" version="1.1" xmlns="http://www.w3.org/2000/svg" xmlns:xlink="http://www.w3.org/1999/xlink">
    <!-- Generator: sketchtool 49.1 (51147) - http://www.bohemiancoding.com/sketch -->
    <title>profile</title>
    <desc>Created with sketchtool.</desc>
    <defs></defs>
    <g id="Icons" stroke="none" stroke-width="1" fill="none" fill-rule="evenodd">
        <g id="profile" fill="#000000" fill-rule="nonzero">
            <path d="M12,14 C15.3137085,14 18,11.3137085 18,8 C18,4.6862915 15.3137085,2 12,2 C8.6862915,2 6,4.6862915 6,8 C6.00385738,11.3121094 8.6878906,13.9961426 12,14 L12,14 Z M12,4 C14.209139,4 16,5.790861 16,8 C16,10.209139 14.209139,12 12,12 C9.790861,12 8,10.209139 8,8 C8,5.790861 9.790861,4 12,4 Z M3.86,22 C3.06557526,22.0063644 2.34379467,21.538682 2.025,20.811 C1.69880834,20.0984361 1.82817859,19.2600854 2.354,18.679 C3.855,17.001 6.757,15.001 12.065,15.001 C17.432,15.001 20.286,17.018 21.732,18.711 C22.2393483,19.2980413 22.3537543,20.1286597 22.024,20.831 C21.7001747,21.5466532 20.9854937,22.0046917 20.2,22 L3.86,22 Z M12.067,17 L12.066,17 C7.5,17 5.075,18.637 3.846,20.011 L20.2,20 L20.21,20 C19.041,18.637 16.675,17 12.067,17 Z" id="Combined-Shape"></path>
        </g>
    </g>
</svg>