<?xml version="1.0" encoding="UTF-8"?>
<svg width="24px" height="24px" viewBox="0 0 24 24" version="1.1" xmlns="http://www.w3.org/2000/svg" xmlns:xlink="http://www.w3.org/1999/xlink">
    <!-- Generator: sketchtool 49.1 (51147) - http://www.bohemiancoding.com/sketch -->
    <title>refresh</title>
    <desc>Created with sketchtool.</desc>
    <defs></defs>
    <g id="Icons" stroke="none" stroke-width="1" fill="none" fill-rule="evenodd">
        <g id="refresh" fill="#000000" fill-rule="nonzero">
            <path d="M11.9999045,5.98771202 C8.6877951,5.9915694 6.00376188,8.67560262 5.9999045,11.987712 C5.99799316,12.8137642 6.1682811,13.6311463 6.4999045,14.387712 C6.6560083,14.7171979 6.62041965,15.1055304 6.40702784,15.401154 C6.19363602,15.6967775 5.83626405,15.8528351 5.47438452,15.8084218 C5.112505,15.7640084 4.8034765,15.5261637 4.6679045,15.187712 C3.58849657,12.7144778 3.82868915,9.86373707 5.30671223,7.60598222 C6.78473532,5.34822738 9.30138469,3.98775287 11.9999045,3.98771202 L13.5859045,3.98771202 L11.2929045,1.69471202 C10.9139323,1.30233313 10.9193521,0.678627244 11.3050859,0.292893445 C11.6908197,-0.0928403531 12.3145256,-0.0982601888 12.7069045,0.280712021 L17.4139045,4.98771202 L12.7069045,9.69471202 C12.45583,9.95466861 12.0840266,10.0589246 11.7343972,9.96740918 C11.3847677,9.87589374 11.1117228,9.60284878 11.0202073,9.25321934 C10.9286919,8.90358991 11.0329479,8.53178649 11.2929045,8.28071202 L13.5859045,5.98771202 L11.9999045,5.98771202 Z M19.9999045,11.987712 C19.9949446,16.4039339 16.4161264,19.9827521 11.9999045,19.987712 L10.4139045,19.987712 L12.7059045,22.279712 C13.0848767,22.6720909 13.0794569,23.2957968 12.6937231,23.6815306 C12.3079893,24.0672644 11.6842834,24.0726842 11.2919045,23.693712 L7.2919045,19.693712 L6.5859045,18.987712 L7.2929045,18.280712 L11.2929045,14.280712 C11.6852834,13.9017398 12.3089893,13.9071596 12.6947231,14.2928934 C13.0804569,14.6786272 13.0858767,15.3023331 12.7069045,15.694712 L10.4139045,17.987712 L11.9999045,17.987712 C14.021498,17.9856267 15.9063665,16.966488 17.0150698,15.2760378 C18.123773,13.5855876 18.3074936,11.4507293 17.5039045,9.59571202 C17.3609982,9.26809947 17.4037266,8.88913341 17.6159943,8.6015667 C17.828262,8.31399998 18.1778204,8.16152084 18.5329943,8.20156669 C18.8881683,8.24161254 19.1949983,8.46809946 19.3379045,8.79571202 C19.776554,9.80260484 20.0019527,10.8894214 19.9999045,11.987712 Z" id="Combined-Shape"></path>
        </g>
    </g>
</svg>