<?xml version="1.0" encoding="UTF-8"?>
<svg width="24px" height="24px" viewBox="0 0 24 24" version="1.1" xmlns="http://www.w3.org/2000/svg" xmlns:xlink="http://www.w3.org/1999/xlink">
    <!-- Generator: sketchtool 44.1 (41455) - http://www.bohemiancoding.com/sketch -->
    <title>scissors</title>
    <desc>Created with sketchtool.</desc>
    <defs></defs>
    <g id="Symbols" stroke="none" stroke-width="1" fill="none" fill-rule="evenodd">
        <g id="scissors" fill-rule="nonzero" fill="#000000">
            <path d="M15.385,13.1 L21.447,16.107 C21.7672886,16.2656259 21.9786216,16.5830743 22.0013918,16.9397653 C22.024162,17.2964563 21.8549102,17.6382002 21.5573918,17.8362653 C21.2598734,18.0343304 20.8792886,18.0586259 20.559,17.9 L14.5,14.9 C14.0029438,14.655614 13.798114,14.0545563 14.0425,13.5575 C14.286886,13.0604438 14.8879437,12.855614 15.385,13.1 Z M8.38,12.005 L3.333,9.553 C1.70943517,8.73031203 0.83881266,6.92148812 1.2086232,5.1393494 C1.57843373,3.35721067 3.09687857,2.0441407 4.91372955,1.93537135 C6.73058053,1.826602 8.39483741,2.94913329 8.974627,4.67442234 C9.55441658,6.39971139 8.90581663,8.29948653 7.392,9.31 L10.681,10.894 C15.823,8.41 20.494,6.133 20.563,6.1 C21.0600563,5.85809928 21.6590993,6.06494373 21.901,6.562 C22.1429007,7.05905627 21.9360563,7.65809928 21.439,7.9 C21.351,7.945 13.868,11.592 7.4,14.7 C8.89076926,15.7118803 9.52103463,17.595548 8.93941644,19.3008383 C8.35779825,21.0061286 6.70786693,22.1120966 4.90947676,22.0021532 C3.11108659,21.8922099 1.6081639,20.5934945 1.23860411,18.8300545 C0.869044308,17.0666146 1.72407194,15.2737493 3.327,14.451 L8.38,12.005 Z M5.141,4 L5.141,4 C4.0324612,3.99667722 3.13051016,4.89146992 3.125,6 C3.12503528,7.10247893 4.01723421,7.99701255 5.11970928,7.999929 C6.22218435,8.00284545 7.1191035,7.11304471 7.12497167,6.0105814 C7.13083983,4.90811808 6.24344365,4.00881983 5.141,4 Z M5.141,20 C6.2495388,20.0033228 7.15148984,19.1085301 7.157,18 C7.15696472,16.8975211 6.26476579,16.0029875 5.16229072,16.000071 C4.05981565,15.9971545 3.1628965,16.8869553 3.15702833,17.9894186 C3.15116017,19.0918819 4.03855635,19.9911802 5.141,20 Z" id="Combined-Shape"></path>
        </g>
    </g>
</svg>