<?xml version="1.0" encoding="UTF-8"?>
<svg width="24px" height="24px" viewBox="0 0 24 24" version="1.1" xmlns="http://www.w3.org/2000/svg" xmlns:xlink="http://www.w3.org/1999/xlink">
    <!-- Generator: sketchtool 49.1 (51147) - http://www.bohemiancoding.com/sketch -->
    <title>search</title>
    <desc>Created with sketchtool.</desc>
    <defs></defs>
    <g id="Icons" stroke="none" stroke-width="1" fill="none" fill-rule="evenodd">
        <g id="search" fill="#000000" fill-rule="nonzero">
            <path d="M9.5,18 C10.9171686,18.0021752 12.3121832,17.6483497 13.557,16.971 L19.293,22.707 C19.7779099,23.2239019 20.45136,23.5225718 21.16,23.535 C21.7871746,23.5353217 22.3891263,23.2880723 22.835,22.847 C23.3034465,22.365717 23.554747,21.7138297 23.5305737,21.0426434 C23.5064004,20.371457 23.2088555,19.7393368 22.707,19.293 L16.971,13.557 C18.7973393,10.1945364 18.151801,6.02623117 15.3939321,3.37371611 C12.6360632,0.721201051 8.4457869,0.238425344 5.15697218,2.19428183 C1.86815746,4.15013831 0.291626423,8.06243151 1.30546365,11.7521213 C2.31930088,15.4418111 5.67355566,17.999244 9.5,18 L9.5,18 Z M21.293,20.707 C21.4277694,20.8242966 21.5140397,20.9875685 21.535,21.165 C21.5338355,21.2655803 21.4928401,21.3615958 21.421,21.432 C21.238,21.614 20.978,21.564 20.707,21.292 L15.207,15.792 C15.4116667,15.606 15.607,15.4106667 15.793,15.206 L21.293,20.707 Z M9.5,3 C13.0898509,3 16,5.91014913 16,9.5 C16,13.0898509 13.0898509,16 9.5,16 C5.91014913,16 3,13.0898509 3,9.5 C3.00385804,5.91174839 5.91174839,3.00385804 9.5,3 L9.5,3 Z" id="Shape"></path>
        </g>
    </g>
</svg>