<?xml version="1.0" encoding="UTF-8"?>
<svg width="24px" height="24px" viewBox="0 0 24 24" version="1.1" xmlns="http://www.w3.org/2000/svg" xmlns:xlink="http://www.w3.org/1999/xlink">
    <!-- Generator: sketchtool 49.1 (51147) - http://www.bohemiancoding.com/sketch -->
    <title>search-cross</title>
    <desc>Created with sketchtool.</desc>
    <defs></defs>
    <g id="Icons" stroke="none" stroke-width="1" fill="none" fill-rule="evenodd">
        <g id="search-cross" fill="#000000" fill-rule="nonzero">
            <path d="M16.971,13.557 L22.707,19.293 C23.2085984,19.7394901 23.5059572,20.3715632 23.5301272,21.0426595 C23.5542972,21.7137557 23.3031791,22.3655826 22.835,22.847 C22.3890653,23.2879802 21.7871533,23.5352133 21.16,23.535 C20.4513349,23.5226856 19.7778424,23.2239969 19.293,22.707 L13.557,16.971 C9.84551907,18.9862098 5.21736326,17.9707908 2.69045209,14.5868758 C0.163540931,11.2029607 0.504365139,6.47699623 3.49068068,3.49068068 C6.47699623,0.504365139 11.2029607,0.163540931 14.5868758,2.69045209 C17.9707908,5.21736326 18.9862098,9.84551907 16.971,13.557 Z M12.707,6.293 C13.0973819,6.68349985 13.0973819,7.31650015 12.707,7.707 L10.914,9.5 L12.707,11.293 C13.0859722,11.6853789 13.0805524,12.3090848 12.6948186,12.6948186 C12.3090848,13.0805524 11.6853789,13.0859722 11.293,12.707 L9.5,10.914 L7.707,12.707 C7.45592553,12.9669566 7.08412211,13.0712126 6.73449268,12.9796972 C6.38486324,12.8881817 6.11181828,12.6151368 6.02030284,12.2655073 C5.9287874,11.9158779 6.03304342,11.5440745 6.293,11.293 L8.086,9.5 L6.293,7.707 C5.91402779,7.31462111 5.91944763,6.69091522 6.30518142,6.30518142 C6.69091522,5.91944763 7.31462111,5.91402779 7.707,6.293 L9.5,8.086 L11.293,6.293 C11.6834999,5.90261806 12.3165001,5.90261806 12.707,6.293 Z M3,9.5 C3.00385804,13.0882516 5.91174839,15.996142 9.5,16 C13.0898509,16 16,13.0898509 16,9.5 C16,5.91014913 13.0898509,3 9.5,3 C5.91014913,3 3,5.91014913 3,9.5 Z M21.421,21.433 C21.4932826,21.3625716 21.5340347,21.2659204 21.534,21.165 C21.5137701,20.9875665 21.4277831,20.8241555 21.293,20.707 L15.793,15.207 C15.607,15.4116667 15.4116667,15.607 15.207,15.793 L20.707,21.293 C20.98,21.565 21.239,21.614 21.421,21.433 Z" id="Combined-Shape"></path>
        </g>
    </g>
</svg>