<?xml version="1.0" encoding="UTF-8"?>
<svg width="24px" height="24px" viewBox="0 0 24 24" version="1.1" xmlns="http://www.w3.org/2000/svg" xmlns:xlink="http://www.w3.org/1999/xlink">
    <!-- Generator: sketchtool 44.1 (41455) - http://www.bohemiancoding.com/sketch -->
    <title>shop</title>
    <desc>Created with sketchtool.</desc>
    <defs></defs>
    <g id="Symbols" stroke="none" stroke-width="1" fill="none" fill-rule="evenodd">
        <g id="shop" fill-rule="nonzero" fill="#000000">
            <path d="M3,22 L21,22 L21,12.618 C21.6408252,11.8961081 21.9963733,10.9652832 22,10 L22,4 C22,3.44771525 21.5522847,3 21,3 L3,3 C2.44771525,3 2,3.44771525 2,4 L2,10 C2.0036267,10.9652832 2.35917479,11.8961081 3,12.618 L3,22 Z M9,20 L5,20 L5,13.858 C6.45612187,14.2621636 8.01466616,13.7887558 9,12.643 L9,12.643 L9,20 Z M10,10 L14,10 C14,11.1045695 13.1045695,12 12,12 C10.8954305,12 10,11.1045695 10,10 Z M19,20 L11,20 L11,13.862 C12.4568416,14.2608889 14.0132261,13.7865807 15,12.643 C15.9853338,13.7887558 17.5438781,14.2621636 19,13.858 L19,20 Z M18,12 C16.8954305,12 16,11.1045695 16,10 L20,10 C20,11.1045695 19.1045695,12 18,12 Z M4,5 L20,5 L20,8 L4,8 L4,5 Z M8,10 C8,11.1045695 7.1045695,12 6,12 C4.8954305,12 4,11.1045695 4,10 L8,10 Z M7.5,17.5 C6.94771525,17.5 6.5,17.0522847 6.5,16.5 C6.5,15.9477153 6.94771525,15.5 7.5,15.5 C8.05228475,15.5 8.5,15.9477153 8.5,16.5 C8.5,17.0522847 8.05228475,17.5 7.5,17.5 Z" id="Combined-Shape"></path>
        </g>
    </g>
</svg>