<?xml version="1.0" encoding="UTF-8"?>
<svg width="24px" height="24px" viewBox="0 0 24 24" version="1.1" xmlns="http://www.w3.org/2000/svg" xmlns:xlink="http://www.w3.org/1999/xlink">
    <!-- Generator: sketchtool 44.1 (41455) - http://www.bohemiancoding.com/sketch -->
    <title>shop-cash-register</title>
    <desc>Created with sketchtool.</desc>
    <defs></defs>
    <g id="Symbols" stroke="none" stroke-width="1" fill="none" fill-rule="evenodd">
        <g id="shop-cash-register" fill-rule="nonzero" fill="#000000">
            <path d="M22,11 C22,8.790861 20.209139,7 18,7 L11,7 L11,5 C11,3.8954305 10.1045695,3 9,3 L5,3 C3.8954305,3 3,3.8954305 3,5 L3,7 C3.001006,7.37522758 3.1085059,7.7424611 3.31,8.059 C2.47819952,8.81078105 2.00246962,9.87881283 2,11 L2,15 L1,15 L1,22 L23,22 L23,15 L22,15 L22,11 Z M5,7 L5,5 L9,5 L9,7 L5,7 Z M4,11 C4,9.8954305 4.8954305,9 6,9 L18,9 C19.1045695,9 20,9.8954305 20,11 L20,15 L4,15 L4,11 Z M21,20 L3,20 L3,17 L21,17 L21,20 Z M12,20 C12.8284271,20 13.5,19.3284271 13.5,18.5 C13.5,17.6715729 12.8284271,17 12,17 C11.1715729,17 10.5,17.6715729 10.5,18.5 C10.5,19.3284271 11.1715729,20 12,20 Z M17,11 C17.5522847,11 18,11.4477153 18,12 C18,12.5522847 17.5522847,13 17,13 L7,13 C6.44771525,13 6,12.5522847 6,12 C6,11.4477153 6.44771525,11 7,11 L17,11 Z" id="Combined-Shape"></path>
        </g>
    </g>
</svg>