<?xml version="1.0" encoding="UTF-8"?>
<svg width="24px" height="24px" viewBox="0 0 24 24" version="1.1" xmlns="http://www.w3.org/2000/svg" xmlns:xlink="http://www.w3.org/1999/xlink">
    <!-- Generator: sketchtool 49.1 (51147) - http://www.bohemiancoding.com/sketch -->
    <title>social-share-ios</title>
    <desc>Created with sketchtool.</desc>
    <defs></defs>
    <g id="Icons" stroke="none" stroke-width="1" fill="none" fill-rule="evenodd">
        <g id="social-share-ios" fill="#222221" fill-rule="nonzero">
            <path d="M13,4.13504161 L13,11 C13,11.5522847 12.5522847,12 12,12 C11.4477153,12 11,11.5522847 11,11 L11,4.13504161 L9.6401844,5.26822128 C9.2159075,5.62178536 8.5853428,5.5644613 8.23177872,5.1401844 C7.87821464,4.7159075 7.9355387,4.0853428 8.3598156,3.73177872 L12,0.698291721 L15.6401844,3.73177872 C16.0644613,4.0853428 16.1217854,4.7159075 15.7682213,5.1401844 C15.4146572,5.5644613 14.7840925,5.62178536 14.3598156,5.26822128 L13,4.13504161 Z M16,8.5 C15.4477153,8.5 15,8.05228475 15,7.5 C15,6.94771525 15.4477153,6.5 16,6.5 L18,6.5 C19.6568542,6.5 21,7.84314575 21,9.5 L21,19 C21,20.6568542 19.6568542,22 18,22 L6,22 C4.34314575,22 3,20.6568542 3,19 L3,9.5 C3,7.84314575 4.34314575,6.5 6,6.5 L8,6.5 C8.55228475,6.5 9,6.94771525 9,7.5 C9,8.05228475 8.55228475,8.5 8,8.5 L6,8.5 C5.44771525,8.5 5,8.94771525 5,9.5 L5,19 C5,19.5522847 5.44771525,20 6,20 L18,20 C18.5522847,20 19,19.5522847 19,19 L19,9.5 C19,8.94771525 18.5522847,8.5 18,8.5 L16,8.5 Z" id="Combined-Shape"></path>
        </g>
    </g>
</svg>