<?xml version="1.0" encoding="UTF-8"?>
<svg width="24px" height="24px" viewBox="0 0 24 24" version="1.1" xmlns="http://www.w3.org/2000/svg" xmlns:xlink="http://www.w3.org/1999/xlink">
    <!-- Generator: sketchtool 44.1 (41455) - http://www.bohemiancoding.com/sketch -->
    <title>social-share</title>
    <desc>Created with sketchtool.</desc>
    <defs></defs>
    <g id="Symbols" stroke="none" stroke-width="1" fill="none" fill-rule="evenodd">
        <g id="social-share" fill-rule="nonzero" fill="#000000">
            <path d="M19.5,8 C21.4329966,8 23,6.43299662 23,4.5 C23,2.56700338 21.4329966,1 19.5,1 C17.5670034,1 16,2.56700338 16,4.5 C16.0029823,4.70138548 16.0233918,4.90213483 16.061,5.1 L7.044,9.609 C6.06252348,8.5593829 4.53920666,8.21633699 3.2025503,8.74391825 C1.86589393,9.2714995 0.987535694,10.5624919 0.987535694,11.9995 C0.987535694,13.4365081 1.86589393,14.7275005 3.2025503,15.2550818 C4.53920666,15.782663 6.06252348,15.4396171 7.044,14.39 L16.061,18.9 C15.7578693,20.6161923 16.7602223,22.2947954 18.4148662,22.8419314 C20.0695101,23.3890675 21.874972,22.638916 22.6547054,21.0803205 C23.4344388,19.5217249 22.9521299,17.6270487 21.52208,16.6309757 C20.09203,15.6349027 18.1476441,15.8393127 16.956,17.111 L7.939,12.6 C8.01943333,12.2040435 8.01943333,11.7959565 7.939,11.4 L16.955,6.89 C17.6126714,7.59695492 18.5344349,7.99898144 19.5,8 Z" id="Shape"></path>
        </g>
    </g>
</svg>