<?xml version="1.0" encoding="UTF-8"?>
<svg width="24px" height="24px" viewBox="0 0 24 24" version="1.1" xmlns="http://www.w3.org/2000/svg" xmlns:xlink="http://www.w3.org/1999/xlink">
    <!-- Generator: sketchtool 49.1 (51147) - http://www.bohemiancoding.com/sketch -->
    <title>social-twitter</title>
    <desc>Created with sketchtool.</desc>
    <defs></defs>
    <g id="Icons" stroke="none" stroke-width="1" fill="none" fill-rule="evenodd">
        <g id="social-twitter" fill="#000000">
            <path d="M23,5.1026 C22.238,5.4336 21.421,5.6596 20.565,5.7626 C20.56,5.7466 20.552,5.7316 20.545,5.7166 C21.452,5.1866 22.151,4.3426 22.496,3.3336 C22.233,3.4956 20.968,4.2086 19.732,4.4386 C18.927,3.5546 17.769,2.9996 16.479,2.9996 C13.753,2.9996 12.074,5.2366 12.074,7.4046 C12.074,7.5736 12.154,8.2726 12.168,8.3126 C8.506,8.2326 5.26,6.4706 3.169,3.7676 C1.671,6.4946 3.239,8.8586 4.314,9.7016 C3.689,9.6916 3.097,9.5566 2.556,9.3216 C2.669,11.4176 4.186,13.1406 6.185,13.5696 C5.384,13.7936 4.423,13.6226 4.054,13.5266 C4.644,15.2806 6.261,16.5636 8.19,16.6576 C5.236,18.8286 2.052,18.6066 2,18.6056 C3.872,19.7276 6.063,20.3886 8.403,20.3726 C16.982,20.3176 21.388,12.7046 20.864,7.2396 C21.804,6.8006 22.563,6.0416 23,5.1026" id="Fill-1"></path>
        </g>
    </g>
</svg>