<?xml version="1.0" encoding="UTF-8"?>
<svg width="24px" height="24px" viewBox="0 0 24 24" version="1.1" xmlns="http://www.w3.org/2000/svg" xmlns:xlink="http://www.w3.org/1999/xlink">
    <!-- Generator: sketchtool 49.1 (51147) - http://www.bohemiancoding.com/sketch -->
    <title>sound-off</title>
    <desc>Created with sketchtool.</desc>
    <defs></defs>
    <g id="Icons" stroke="none" stroke-width="1" fill="none" fill-rule="evenodd">
        <g id="sound-off" fill="#000000" fill-rule="nonzero">
            <path d="M6,17.4998943 L7.015,17.4998943 C7.025,17.4998943 7.034,17.4938943 7.045,17.4938943 C8.19703884,20.3275947 11.0058946,22.1313148 14.062,21.9998943 C14.332676,22.0000244 14.5918431,21.8904228 14.7802967,21.6961272 C14.9687502,21.5018316 15.070391,21.2394403 15.062,20.9688943 L15,18.9688943 C14.9681618,18.4237646 14.5160567,17.9984347 13.97,17.9998943 C13.7047434,18.0077325 13.4534796,18.1206837 13.2715442,18.3138729 C13.0896089,18.507062 12.991923,18.7646448 13,19.0298943 L13.028,19.9298943 C8.528,19.2658943 8.014,14.2468943 8.014,12.0028943 C8.014,9.75889431 8.527,4.73889431 13.028,4.07589431 L13,4.97589431 C12.9828792,5.52817906 13.4167153,5.98977348 13.969,6.00689431 C14.5212847,6.02401514 14.9828792,5.59017906 15,5.03789431 L15.062,3.03789431 C15.070391,2.76734837 14.9687502,2.50495698 14.7802967,2.31066138 C14.5918431,2.11636578 14.332676,2.00676422 14.062,2.00689431 C11.007281,1.87393242 8.19842984,3.67459089 7.044,6.50589431 C7.034,6.50589431 7.025,6.49989431 7.014,6.49989431 L6,6.49989431 C3.757,6.49989431 2,8.91589431 2,11.9998943 C2,15.0838943 3.757,17.4998943 6,17.4998943 Z M6,8.49989431 L6.388,8.49989431 C6.13258262,9.6488448 6.00745974,10.82292 6.015,11.9998943 C6.00745974,13.1768686 6.13258262,14.3509438 6.388,15.4998943 L6,15.4998943 C5.054,15.4998943 4,14.0628943 4,11.9998943 C4,9.93689431 5.054,8.49989431 6,8.49989431 Z M19.707,8.29289431 C20.0973819,8.68339416 20.0973819,9.31639446 19.707,9.70689431 L17.414,11.9998943 L19.707,14.2928943 C20.0859722,14.6852732 20.0805524,15.3089791 19.6948186,15.6947129 C19.3090848,16.0804467 18.6853789,16.0858665 18.293,15.7068943 L16,13.4138943 L13.707,15.7068943 C13.4559255,15.9668509 13.0841221,16.0711069 12.7344927,15.9795915 C12.3848632,15.888076 12.1118183,15.6150311 12.0203028,15.2654016 C11.9287874,14.9157722 12.0330434,14.5439688 12.293,14.2928943 L14.586,11.9998943 L12.293,9.70689431 C11.9140278,9.31451542 11.9194476,8.69080953 12.3051814,8.30507574 C12.6909152,7.91934194 13.3146211,7.9139221 13.707,8.29289431 L16,10.5858943 L18.293,8.29289431 C18.6834999,7.90251237 19.3165001,7.90251237 19.707,8.29289431 Z" id="Combined-Shape"></path>
        </g>
    </g>
</svg>