<?xml version="1.0" encoding="UTF-8"?>
<svg width="24px" height="24px" viewBox="0 0 24 24" version="1.1" xmlns="http://www.w3.org/2000/svg" xmlns:xlink="http://www.w3.org/1999/xlink">
    <!-- Generator: sketchtool 44.1 (41455) - http://www.bohemiancoding.com/sketch -->
    <title>speech-bubble</title>
    <desc>Created with sketchtool.</desc>
    <defs></defs>
    <g id="Symbols" stroke="none" stroke-width="1" fill="none" fill-rule="evenodd">
        <g id="speech-bubble" fill-rule="nonzero" fill="#000000">
            <path d="M3.02,20.8 C2.94428469,21.1697143 3.08315536,21.5505644 3.37907891,21.7847667 C3.67500246,22.0189691 4.07756973,22.0666285 4.42,21.908 L9.4,19.615 C10.4136466,19.8699127 11.4547922,19.9992163 12.5,20 C18.29,20 23,16.187 23,11.5 C23,6.813 18.29,3 12.5,3 C6.71,3 2,6.813 2,11.5 C2.01376932,13.3136754 2.6963777,15.0584751 3.917,16.4 L3.02,20.8 Z M12.5,5 C17.187,5 21,7.916 21,11.5 C21,15.084 17.187,18 12.5,18 C11.5116417,17.9995926 10.5280548,17.862974 9.577,17.594 C9.34790431,17.5292963 9.10324058,17.5484439 8.887,17.648 L5.374,19.266 L5.98,16.291 C6.04609588,15.9652704 5.94603523,15.6279873 5.713,15.391 C4.64550181,14.3746579 4.02871782,12.9736617 4,11.5 C4,7.916 7.813,5 12.5,5 Z" id="Shape"></path>
        </g>
    </g>
</svg>