<?xml version="1.0" encoding="UTF-8"?>
<svg width="24px" height="24px" viewBox="0 0 24 24" version="1.1" xmlns="http://www.w3.org/2000/svg" xmlns:xlink="http://www.w3.org/1999/xlink">
    <!-- Generator: sketchtool 49.1 (51147) - http://www.bohemiancoding.com/sketch -->
    <title>speech-bubble-2</title>
    <desc>Created with sketchtool.</desc>
    <defs></defs>
    <g id="Icons" stroke="none" stroke-width="1" fill="none" fill-rule="evenodd">
        <g id="speech-bubble-2" fill="#000000" fill-rule="nonzero">
            <path d="M12.5,3 C18.29,3 23,6.813 23,11.5 C23,16.187 18.29,20 12.5,20 C11.4547966,19.9991455 10.4136596,19.869843 9.4,19.615 L4.418,21.913 C4.07556973,22.0716285 3.67300246,22.0239691 3.37707891,21.7897667 C3.08115536,21.5555644 2.94228469,21.1747143 3.018,20.805 L3.918,16.4 C2.69693282,15.0586746 2.0139492,13.3138259 2,11.5 C2,6.813 6.71,3 12.5,3 Z M8.5,13 C7.67157288,13 7,12.3284271 7,11.5 C7,10.6715729 7.67157288,10 8.5,10 C9.32842712,10 10,10.6715729 10,11.5 C10,12.3284271 9.32842712,13 8.5,13 Z M16.5,13 C15.6715729,13 15,12.3284271 15,11.5 C15,10.6715729 15.6715729,10 16.5,10 C17.3284271,10 18,10.6715729 18,11.5 C18,12.3284271 17.3284271,13 16.5,13 Z M12.5,13 C11.6715729,13 11,12.3284271 11,11.5 C11,10.6715729 11.6715729,10 12.5,10 C13.3284271,10 14,10.6715729 14,11.5 C14,12.3284271 13.3284271,13 12.5,13 Z M12.5,18 C17.187,18 21,15.084 21,11.5 C21,7.916 17.187,5 12.5,5 C7.813,5 4,7.916 4,11.5 C4.02867758,12.9734666 4.64505622,14.3743599 5.712,15.391 C5.94503523,15.6279873 6.04509588,15.9652704 5.979,16.291 L5.374,19.266 L8.887,17.648 C9.1029502,17.5486871 9.34721442,17.529543 9.576,17.594 C10.5273955,17.8629777 11.5113129,17.9995955 12.5,18 Z" id="Combined-Shape"></path>
        </g>
    </g>
</svg>