<?xml version="1.0" encoding="UTF-8"?>
<svg width="24px" height="24px" viewBox="0 0 24 24" version="1.1" xmlns="http://www.w3.org/2000/svg" xmlns:xlink="http://www.w3.org/1999/xlink">
    <!-- Generator: sketchtool 44.1 (41455) - http://www.bohemiancoding.com/sketch -->
    <title>star-plus</title>
    <desc>Created with sketchtool.</desc>
    <defs></defs>
    <g id="Symbols" stroke="none" stroke-width="1" fill="none" fill-rule="evenodd">
        <g id="star-plus" fill-rule="nonzero" fill="#000000">
            <path d="M6.308,14.56 L2.066,10.426 C1.79320727,10.1602207 1.69507142,9.76255925 1.81289562,9.40038251 C1.93071982,9.03820578 2.24404515,8.7744019 2.621,8.72 L8.482,7.869 L11.106,2.558 C11.2934924,2.24082189 11.6345501,2.04624051 12.003,2.04624051 C12.3714499,2.04624051 12.7125076,2.24082189 12.9,2.558 L15.517,7.868 L21.378,8.72 C21.7364772,8.76568904 22.0424152,9.00123179 22.1782442,9.33611074 C22.3140731,9.67098969 22.2586585,10.0530992 22.0332959,10.3355972 C21.8079333,10.6180952 21.4476881,10.7570262 21.091,10.699 L14.71,9.772 C14.3842753,9.72469934 14.1026845,9.52014401 13.957,9.225 L12,5.259 L10.043,9.225 C9.89731553,9.52014401 9.61572473,9.72469934 9.29,9.772 L4.914,10.408 L8.083,13.5 C8.31879068,13.7296297 8.42649,14.0605807 8.371,14.385 L7.608,18.83 L8.569,18.368 L9.118,18.104 C9.44228788,17.9274493 9.83747445,17.9439602 10.1459054,18.1469457 C10.4543363,18.3499313 10.6258168,18.7063573 10.591937,19.0740323 C10.5580573,19.4417074 10.3243309,19.7607952 9.984,19.904 L9.435,20.168 L6.727,21.468 C6.38981065,21.6301335 5.99031985,21.5904767 5.69158649,21.3652161 C5.39285314,21.1399556 5.24485499,20.7667772 5.308,20.398 L6.308,14.56 Z M18.956,17.044 L22,17.044 C22.5522847,17.044 23,17.4917153 23,18.044 C23,18.5962847 22.5522847,19.044 22,19.044 L18.956,19.044 L18.956,22 C18.956,22.5522847 18.5082847,23 17.956,23 C17.4037153,23 16.956,22.5522847 16.956,22 L16.956,19.044 L14,19.044 C13.4477153,19.044 13,18.5962847 13,18.044 C13,17.4917153 13.4477153,17.044 14,17.044 L16.956,17.044 L16.956,14 C16.956,13.4477153 17.4037153,13 17.956,13 C18.5082847,13 18.956,13.4477153 18.956,14 L18.956,17.044 Z" id="Combined-Shape"></path>
        </g>
    </g>
</svg>