<?xml version="1.0" encoding="UTF-8"?>
<svg width="24px" height="24px" viewBox="0 0 24 24" version="1.1" xmlns="http://www.w3.org/2000/svg" xmlns:xlink="http://www.w3.org/1999/xlink">
    <!-- Generator: sketchtool 44.1 (41455) - http://www.bohemiancoding.com/sketch -->
    <title>tag-cross</title>
    <desc>Created with sketchtool.</desc>
    <defs></defs>
    <g id="Symbols" stroke="none" stroke-width="1" fill="none" fill-rule="evenodd">
        <g id="tag-cross" fill-rule="nonzero" fill="#000000">
            <path d="M12.293,19.807 C11.9026181,19.4165001 11.9026181,18.7834999 12.293,18.393 L14.586,16.1 L12.293,13.807 C11.9140278,13.4146211 11.9194476,12.7909152 12.3051814,12.4051814 C12.6909152,12.0194476 13.3146211,12.0140278 13.707,12.393 L16,14.686 L18.293,12.393 C18.6853789,12.0140278 19.3090848,12.0194476 19.6948186,12.4051814 C20.0805524,12.7909152 20.0859722,13.4146211 19.707,13.807 L17.414,16.1 L19.707,18.393 C20.0859722,18.7853789 20.0805524,19.4090848 19.6948186,19.7948186 C19.3090848,20.1805524 18.6853789,20.1859722 18.293,19.807 L16,17.514 L13.707,19.807 C13.3165001,20.1973819 12.6834999,20.1973819 12.293,19.807 Z M17.5,8.5 C16.3954305,8.5 15.5,7.6045695 15.5,6.5 C15.5,5.3954305 16.3954305,4.5 17.5,4.5 C18.6045695,4.5 19.5,5.3954305 19.5,6.5 C19.5,7.6045695 18.6045695,8.5 17.5,8.5 Z M22,1 C22.5522847,1 23,1.44771525 23,2 L23,8.343 C23.0007065,9.05766472 22.8472144,9.76406944 22.55,10.414 C22.4072859,10.747354 22.095294,10.9773294 21.7346394,11.0150186 C21.3739849,11.0527077 21.0211871,10.8922041 20.8126367,10.595558 C20.6040863,10.2989119 20.572466,9.9126117 20.73,9.586 C20.908289,9.19588712 21.000381,8.77192295 21,8.343 L21,3 L15.657,3 C14.8608185,2.99764718 14.0967582,3.31378522 13.535,3.878 L2.707,14.707 C2.51922296,14.8945683 2.41371334,15.1490908 2.41371334,15.4145 C2.41371334,15.6799092 2.51922296,15.9344317 2.707,16.122 L7.879,21.293 C8.27448103,21.6711625 8.89751897,21.6711625 9.293,21.293 C9.68537889,20.9140278 10.3090848,20.9194476 10.6948186,21.3051814 C11.0805524,21.6909152 11.0859722,22.3146211 10.707,22.707 C10.1443763,23.269719 9.38123752,23.5858593 8.5855,23.5858593 C7.78976248,23.5858593 7.02662374,23.269719 6.464,22.707 L1.293,17.536 C0.730280954,16.9733763 0.414140672,16.2102375 0.414140672,15.4145 C0.414140672,14.6187625 0.730280954,13.8556237 1.293,13.293 L12.121,2.464 C13.0568645,1.52337314 14.3301214,0.996210212 15.657,1 L22,1 Z" id="Combined-Shape"></path>
        </g>
    </g>
</svg>