<?xml version="1.0" encoding="UTF-8"?>
<svg width="24px" height="24px" viewBox="0 0 24 24" version="1.1" xmlns="http://www.w3.org/2000/svg" xmlns:xlink="http://www.w3.org/1999/xlink">
    <!-- Generator: sketchtool 49.1 (51147) - http://www.bohemiancoding.com/sketch -->
    <title>transaction</title>
    <desc>Created with sketchtool.</desc>
    <defs></defs>
    <g id="Icons" stroke="none" stroke-width="1" fill="none" fill-rule="evenodd">
        <g id="transaction" fill="#000000" fill-rule="nonzero">
            <path d="M18.707,3.293 L23.414,8 L18.706,12.707 C18.4549255,12.9669566 18.0831221,13.0712126 17.7334927,12.9796972 C17.3838632,12.8881817 17.1108183,12.6151368 17.0193028,12.2655073 C16.9277874,11.9158779 17.0320434,11.5440745 17.292,11.293 L19.585,9 L14.5,9 C12.6688355,8.99248102 10.8917857,9.62052748 9.472,10.777 C9.194226,11.0017201 8.81766552,11.0611793 8.48416524,10.93298 C8.15066495,10.8047807 7.9108915,10.5083994 7.85516523,10.15548 C7.79943895,9.80256061 7.93622599,9.44672005 8.214,9.222 C9.82586517,7.92444241 11.7998879,7.15767903 13.865,7.027 C13.9092812,7.01471926 13.9544017,7.00569517 14,7 L19.586,7 L17.293,4.707 C16.9140278,4.31462111 16.9194476,3.69091522 17.3051814,3.30518142 C17.6909152,2.91944763 18.3146211,2.91402779 18.707,3.293 Z M6,22 C5.73480519,21.9999434 5.48049273,21.8945494 5.293,21.707 L0.586,17 L5.293,12.293 C5.68537889,11.9140278 6.30908478,11.9194476 6.69481858,12.3051814 C7.08055237,12.6909152 7.08597221,13.3146211 6.707,13.707 L4.414,16 L9.5,16 C11.3311645,16.007519 13.1082143,15.3794725 14.528,14.223 C14.805774,13.9982799 15.1823345,13.9388207 15.5158348,14.06702 C15.849335,14.1952193 16.0891085,14.4916006 16.1448348,14.84452 C16.200561,15.1974394 16.063774,15.5532799 15.786,15.778 C14.005536,17.2141353 11.7874731,17.9981849 9.5,18 L4.414,18 L6.707,20.293 C6.99290792,20.5789943 7.07842191,21.0090366 6.92367798,21.3826546 C6.76893405,21.7562725 6.4043959,21.9999137 6,22 Z" id="Combined-Shape"></path>
        </g>
    </g>
</svg>