<?xml version="1.0" encoding="UTF-8"?>
<svg width="24px" height="24px" viewBox="0 0 24 24" version="1.1" xmlns="http://www.w3.org/2000/svg" xmlns:xlink="http://www.w3.org/1999/xlink">
    <!-- Generator: sketchtool 49.1 (51147) - http://www.bohemiancoding.com/sketch -->
    <title>truck-tick</title>
    <desc>Created with sketchtool.</desc>
    <defs></defs>
    <g id="Icons" stroke="none" stroke-width="1" fill="none" fill-rule="evenodd">
        <g id="truck-tick" fill="#000000" fill-rule="nonzero">
            <path d="M10.707,1.707 L4,8.414 L0.293,4.707 C-0.0859722095,4.31462111 -0.0805523739,3.69091522 0.305181425,3.30518142 C0.690915223,2.91944763 1.31462111,2.91402779 1.707,3.293 L4,5.586 L9.293,0.293 C9.68537889,-0.0859722095 10.3090848,-0.0805523739 10.6948186,0.305181425 C11.0805524,0.690915223 11.0859722,1.31462111 10.707,1.707 Z M18.1,8 C20.309139,8 22.1,9.790861 22.1,12 L22.1,19 L20.1,19 C20.1,20.6568542 18.7568542,22 17.1,22 C15.4431458,22 14.1,20.6568542 14.1,19 L10.1,19 C10.1,20.0717968 9.52820325,21.0621779 8.60000001,21.5980762 C7.67179678,22.1339746 6.52820322,22.1339746 5.59999999,21.5980762 C4.67179675,21.0621779 4.09999998,20.0717968 4.1,19 L2.1,19 L2.1,11 C2.1,10.4477153 2.54771525,10 3.1,10 C3.65228475,10 4.1,10.4477153 4.1,11 L4.1,17 L20.1,17 L20.1,14 L18.1,14 L18.1,10 L16.1,10 L16.1,14 C16.1,14.5522847 15.6522847,15 15.1,15 C14.5477153,15 14.1,14.5522847 14.1,14 L14.1,7 C14.1,6.44771525 13.6522847,6 13.1,6 L12,6 C11.4477153,6 11,5.55228475 11,5 C11,4.44771525 11.4477153,4 12,4 L13.1,4 C14.7568542,4 16.1,5.34314575 16.1,7 L16.1,8 L18.1,8 Z" id="Combined-Shape"></path>
        </g>
    </g>
</svg>