<?xml version="1.0" encoding="UTF-8"?>
<svg width="24px" height="24px" viewBox="0 0 24 24" version="1.1" xmlns="http://www.w3.org/2000/svg" xmlns:xlink="http://www.w3.org/1999/xlink">
    <!-- Generator: sketchtool 44.1 (41455) - http://www.bohemiancoding.com/sketch -->
    <title>truck-cross</title>
    <desc>Created with sketchtool.</desc>
    <defs></defs>
    <g id="Symbols" stroke="none" stroke-width="1" fill="none" fill-rule="evenodd">
        <g id="truck-cross" fill-rule="nonzero" fill="#000000">
            <path d="M18,8 C20.209139,8 22,9.790861 22,12 L22,19 L20,19 C20,20.6568542 18.6568542,22 17,22 C15.3431458,22 14,20.6568542 14,19 L10,19 C9.99999998,20.6568542 8.65685423,22 7,22 C5.34314577,22 4.00000002,20.6568542 4,19 L2,19 L2,11 C2,10.4477153 2.44771525,10 3,10 C3.55228475,10 4,10.4477153 4,11 L4,17 L20,17 L20,14 L18,14 L18,10 L16,10 L16,14 C16,14.5522847 15.5522847,15 15,15 C14.4477153,15 14,14.5522847 14,14 L14,7 C14,6.44771525 13.5522847,6 13,6 L10.9,6 C10.3477153,6 9.9,5.55228475 9.9,5 C9.9,4.44771525 10.3477153,4 10.9,4 L13,4 C14.6568542,4 16,5.34314575 16,7 L16,8 L18,8 Z M6.293,7.707 L4,5.414 L1.707,7.707 C1.45592553,7.96695658 1.08412211,8.0712126 0.734492676,7.97969716 C0.384863244,7.88818172 0.111818284,7.61513676 0.0203028434,7.26550732 C-0.0712125972,6.91587789 0.0330434155,6.54407447 0.293,6.293 L2.586,4 L0.293,1.707 C-0.0859722095,1.31462111 -0.0805523739,0.690915223 0.305181425,0.305181425 C0.690915223,-0.0805523739 1.31462111,-0.0859722095 1.707,0.293 L4,2.586 L6.293,0.293 C6.68537889,-0.0859722095 7.30908478,-0.0805523739 7.69481858,0.305181425 C8.08055237,0.690915223 8.08597221,1.31462111 7.707,1.707 L5.414,4 L7.707,6.293 C8.08597221,6.68537889 8.08055237,7.30908478 7.69481858,7.69481858 C7.30908478,8.08055237 6.68537889,8.08597221 6.293,7.707 Z" id="Combined-Shape"></path>
        </g>
    </g>
</svg>