<?xml version="1.0" encoding="UTF-8"?>
<svg width="24px" height="24px" viewBox="0 0 24 24" version="1.1" xmlns="http://www.w3.org/2000/svg" xmlns:xlink="http://www.w3.org/1999/xlink">
    <!-- Generator: sketchtool 44.1 (41455) - http://www.bohemiancoding.com/sketch -->
    <title>truck-delivery</title>
    <desc>Created with sketchtool.</desc>
    <defs></defs>
    <g id="Symbols" stroke="none" stroke-width="1" fill="none" fill-rule="evenodd">
        <g id="truck-delivery" fill-rule="nonzero" fill="#000000">
            <path d="M19.41,9 L19.41,9 C20.4538534,8.97765171 21.4524949,9.42557178 22.13,10.22 C22.8000841,11.047385 23.0695585,12.1289437 22.866,13.174 L21.839,19 L19.824,19 C19.4849306,20.6969215 18.0243737,21.9385398 16.295,22 C15.5337333,22.0268852 14.8033339,21.6978626 14.3190414,21.1098911 C13.8347488,20.5219196 13.6517602,19.7420129 13.824,19 L9.824,19 C9.48493065,20.6969215 8.02437369,21.9385398 6.295,22 C5.53373335,22.0268852 4.80333389,21.6978626 4.31904136,21.1098911 C3.83474884,20.5219196 3.65176022,19.7420129 3.824,19 L1.78,19 L2.819,13.8 C2.88920268,13.4495225 3.14105019,13.1631205 3.47967399,13.0486791 C3.81829779,12.9342376 4.19225288,13.009143 4.460674,13.2451791 C4.72909511,13.4812152 4.85120269,13.8425225 4.781,14.193 L4.22,17 L20.161,17 L20.69,14 L18.7,14 L19.207,11 L17.249,11 L16.687,14.174 C16.6026977,14.6511098 16.1884997,14.9991541 15.704,15 C15.6453025,14.999978 15.5867283,14.9946227 15.529,14.984 C14.9853812,14.8880129 14.6223704,14.3696818 14.718,13.826 L15.218,11 L15.78,7.821 C15.8815293,7.35796336 15.7715673,6.87376412 15.48,6.5 C15.1784293,6.16443843 14.7427643,5.98107773 14.292,6 L12,6 C11.4477153,6 11,5.55228475 11,5 C11,4.44771525 11.4477153,4 12,4 L14.292,4 C15.3351587,3.97825639 16.3329414,4.42612059 17.01,5.22 C17.6800841,6.04738497 17.9495585,7.12894375 17.746,8.174 L17.6,9 L19.41,9 Z M9,6 L2,6 C1.44771525,6 1,5.55228475 1,5 C1,4.44771525 1.44771525,4 2,4 L9,4 C9.55228475,4 10,4.44771525 10,5 C10,5.55228475 9.55228475,6 9,6 Z M8,8 C8,8.55228475 7.55228475,9 7,9 L3,9 C2.44771525,9 2,8.55228475 2,8 C2,7.44771525 2.44771525,7 3,7 L7,7 C7.55228475,7 8,7.44771525 8,8 Z M4,10 L5,10 C5.55228475,10 6,10.4477153 6,11 C6,11.5522847 5.55228475,12 5,12 L4,12 C3.44771525,12 3,11.5522847 3,11 C3,10.4477153 3.44771525,10 4,10 Z" id="Combined-Shape"></path>
        </g>
    </g>
</svg>