<?xml version="1.0" encoding="UTF-8"?>
<svg width="24px" height="24px" viewBox="0 0 24 24" version="1.1" xmlns="http://www.w3.org/2000/svg" xmlns:xlink="http://www.w3.org/1999/xlink">
    <!-- Generator: sketchtool 44.1 (41455) - http://www.bohemiancoding.com/sketch -->
    <title>upload</title>
    <desc>Created with sketchtool.</desc>
    <defs></defs>
    <g id="Symbols" stroke="none" stroke-width="1" fill="none" fill-rule="evenodd">
        <g id="upload" fill-rule="nonzero" fill="#000000">
            <path d="M12,23 C11.4477153,23 11,22.5522847 11,22 L11,17.414 L9.707,18.707 C9.31462111,19.0859722 8.69091522,19.0805524 8.30518142,18.6948186 C7.91944763,18.3090848 7.91402779,17.6853789 8.293,17.293 L12,13.586 L15.707,17.293 C16.0859722,17.6853789 16.0805524,18.3090848 15.6948186,18.6948186 C15.3090848,19.0805524 14.6853789,19.0859722 14.293,18.707 L13,17.414 L13,22 C13,22.5522847 12.5522847,23 12,23 Z M19.845,10.013 L19.845,10.013 C22.2573715,10.1967587 24.0927053,12.2550442 23.9998974,14.6726235 C23.9070894,17.0902029 21.9193595,19.0017256 19.5,19 L19,19 C18.4477153,19 18,18.5522847 18,18 C18,17.4477153 18.4477153,17 19,17 L19.504,17 C20.8847119,17 22.004,15.8807119 22.004,14.5 C22.004,13.1192881 20.8847119,12 19.504,12 C19.48,12 19.457,12.008 19.433,12.008 L18.7,12.718 C18.3033452,13.0956333 17.6767224,13.0839483 17.2944223,12.6917894 C16.9121222,12.2996306 16.916392,11.6729134 17.304,11.286 L17.909,10.7 C17.5741941,8.32470831 15.7293259,6.445555 13.360601,6.06707347 C10.9918762,5.68859194 8.65330074,6.89930282 7.595,9.052 L7.855,9.482 C8.05479352,9.7879673 8.07178579,10.1785503 7.89931899,10.5007127 C7.72685218,10.8228752 7.39239233,11.0253114 7.02698581,11.0287039 C6.66157928,11.0320963 6.32341853,10.8359048 6.145,10.517 L5.856,10.04 C5.73810145,10.0205442 5.61927639,10.0071931 5.5,10 C3.62308042,9.97123379 2.05766738,11.4282638 1.95192219,13.302423 C1.84617699,15.1765822 3.2377571,16.8004539 5.106,16.983 C5.65325414,17.0437632 6.04842473,17.5354913 5.99,18.083 C5.96365279,18.3470741 5.83228083,18.5894797 5.62541726,18.7557228 C5.41855368,18.9219659 5.15355704,18.9980965 4.89,18.967 C1.91909031,18.6353353 -0.242932372,15.9914504 0.0218293257,13.0138327 C0.286591023,10.036215 2.88118072,7.81527528 5.864,8.013 C7.33747512,5.2036398 10.420412,3.62661413 13.5607662,4.07584583 C16.7011204,4.52507753 19.218268,6.90320247 19.845,10.013 Z" id="Combined-Shape"></path>
        </g>
    </g>
</svg>