<?xml version="1.0" encoding="UTF-8"?>
<svg width="24px" height="24px" viewBox="0 0 24 24" version="1.1" xmlns="http://www.w3.org/2000/svg" xmlns:xlink="http://www.w3.org/1999/xlink">
    <!-- Generator: sketchtool 44.1 (41455) - http://www.bohemiancoding.com/sketch -->
    <title>vehicle-motorbike</title>
    <desc>Created with sketchtool.</desc>
    <defs></defs>
    <g id="Symbols" stroke="none" stroke-width="1" fill="none" fill-rule="evenodd">
        <g id="vehicle-motorbike" fill-rule="nonzero" fill="#000000">
            <path d="M5,12 C2.91941412,11.9922102 1.18027135,13.5807249 1.00005698,15.6535059 C0.819842621,17.7262869 2.25874082,19.5911109 4.30945223,19.9425096 C6.36016363,20.2939083 8.3378353,19.014529 8.858,17 L11,17 C11.1259011,16.9986575 11.2504161,16.9735509 11.367,16.926 C11.4093809,16.9050309 11.4501581,16.8809657 11.489,16.854 C11.5455856,16.8275631 11.5995,16.7957503 11.65,16.759 L17.75,11.534 L18.025,12.544 C16.3046927,13.5511865 15.5977334,15.6777101 16.3725949,17.5144114 C17.1474564,19.3511127 19.1639561,20.3286724 21.0858429,19.7993021 C23.0077298,19.2699317 24.2392796,17.3977194 23.9643953,15.4233029 C23.6895109,13.4488863 21.9933978,11.9842723 20,12 C19.982,12 19.965,12.005 19.947,12.005 L17.764,4 L15,4 C14.4477153,4 14,4.44771525 14,5 C14,5.55228475 14.4477153,6 15,6 L16.236,6 L17.036,8.918 C16.0770868,7.69350357 14.6029691,6.98495807 13.0477689,7.00102743 C11.4925687,7.01709679 10.0334065,7.75595088 9.1,9 L2,9 C1.44771525,9 1,9.44771525 1,10 C1,10.5522847 1.44771525,11 2,11 L5.182,11 C7.5777327,10.8474758 9.66703983,12.612466 9.917,15 L8.858,15 C8.40340667,13.2393149 6.81841162,12.0068148 5,12 Z M5,17 L6.722,17 C6.26939432,17.783936 5.34667813,18.1661376 4.4723111,17.9318517 C3.59794407,17.6975657 2.98994919,16.9052114 2.98994919,16 C2.98994919,15.0947886 3.59794407,14.3024343 4.4723111,14.0681483 C5.34667813,13.8338624 6.26939432,14.216064 6.722,15 L5,15 C4.44771525,15 4,15.4477153 4,16 C4,16.5522847 4.44771525,17 5,17 Z M19.035,16.263 C19.1802509,16.7959548 19.7300452,17.1102509 20.263,16.965 C20.7959548,16.8197491 21.1102509,16.2699548 20.965,15.737 L20.512,14.075 C21.3830439,14.3087935 21.9887217,15.0981396 21.9890937,16.0000136 C21.9894656,16.9018876 21.384439,17.691733 20.5135882,17.9262449 C19.6427374,18.1607567 18.7228946,17.7815442 18.2703264,17.0014424 C17.8177582,16.2213406 17.9451489,15.2345861 18.581,14.595 L19.035,16.263 Z M10.5,10.5 C11.0353928,9.56991671 12.026827,8.99666295 13.1,8.99666295 C14.173173,8.99666295 15.1646072,9.56991671 15.7,10.5 C15.721,10.536 15.763,10.605 15.763,10.605 L11.756,14.037 C11.4841738,12.9296273 10.9439491,11.9061881 10.183,11.057 L10.5,10.5 Z M20.552,9.316 L20.052,7.816 C19.9391041,7.47659769 20.0158529,7.10274775 20.253336,6.83527584 C20.490819,6.56780394 20.852957,6.44734542 21.203336,6.51927584 C21.553715,6.59120626 21.8391041,6.84459768 21.952,7.184 L22.452,8.684 C22.626522,9.20867051 22.3426705,9.77547802 21.818,9.95 C21.2933295,10.124522 20.726522,9.84067051 20.552,9.316 Z" id="Combined-Shape"></path>
        </g>
    </g>
</svg>