<?xml version="1.0" encoding="UTF-8"?>
<svg width="24px" height="24px" viewBox="0 0 24 24" version="1.1" xmlns="http://www.w3.org/2000/svg" xmlns:xlink="http://www.w3.org/1999/xlink">
    <!-- Generator: sketchtool 44.1 (41455) - http://www.bohemiancoding.com/sketch -->
    <title>video-backward</title>
    <desc>Created with sketchtool.</desc>
    <defs></defs>
    <g id="Symbols" stroke="none" stroke-width="1" fill="none" fill-rule="evenodd">
        <g id="video-backward" fill-rule="nonzero" fill="#000000">
            <path d="M2.41706162,14.547164 L2.41706162,14.547164 C1.52915684,13.9956403 0.992325427,13.0217302 1.00008295,11.9765063 C1.00784047,10.9312824 1.55906843,9.96544775 2.45506162,9.42716396 L11.8640616,3.18316396 C12.1615868,2.97304749 12.5498261,2.94132056 12.8775174,3.10034431 C13.2052086,3.25936806 13.4205179,3.58398825 13.4395585,3.94772935 C13.458599,4.31147046 13.2783589,4.6567962 12.9690616,4.84916396 L3.52206162,11.117164 C3.20096715,11.2948608 3.00094446,11.632184 2.99906162,11.999164 C2.99609065,12.3509426 3.18095638,12.6776023 3.48406162,12.856164 L12.9690616,19.149164 C13.2735883,19.3437901 13.4494042,19.6875863 13.4289345,20.0484143 C13.4084648,20.4092422 13.194895,20.7309487 12.8703108,20.8898855 C12.5457266,21.0488223 12.1606409,21.0202552 11.8630616,20.815164 L2.41706162,14.547164 Z M8.52406162,13.714164 L8.52406162,13.714164 C7.92163742,13.3527207 7.55302955,12.7016995 7.55302955,11.999164 C7.55302955,11.2966285 7.92163742,10.6456072 8.52406162,10.284164 L18.9700616,4.01616396 C19.5879257,3.64544137 20.3574423,3.63573198 20.9844633,3.9907472 C21.6114844,4.34576243 21.9990686,5.0106147 21.9990616,5.73116396 L21.9990616,18.267164 C21.9990686,18.9877132 21.6114844,19.6525655 20.9844633,20.0075807 C20.3574423,20.3625959 19.5879257,20.3528865 18.9700616,19.982164 L8.52406162,13.714164 Z" id="Combined-Shape"></path>
        </g>
    </g>
</svg>