<?xml version="1.0" encoding="UTF-8"?>
<svg width="24px" height="24px" viewBox="0 0 24 24" version="1.1" xmlns="http://www.w3.org/2000/svg" xmlns:xlink="http://www.w3.org/1999/xlink">
    <!-- Generator: sketchtool 49.1 (51147) - http://www.bohemiancoding.com/sketch -->
    <title>view-bullet-list</title>
    <desc>Created with sketchtool.</desc>
    <defs></defs>
    <g id="Icons" stroke="none" stroke-width="1" fill="none" fill-rule="evenodd">
        <g id="view-bullet-list" fill="#000000" fill-rule="nonzero">
            <path d="M20,11 C20.5522847,11 21,11.4477153 21,12 C21,12.5522847 20.5522847,13 20,13 L9,13 C8.44771525,13 8,12.5522847 8,12 C8,11.4477153 8.44771525,11 9,11 L20,11 Z M20,6 C20.5522847,6 21,6.44771525 21,7 C21,7.55228475 20.5522847,8 20,8 L9,8 C8.44771525,8 8,7.55228475 8,7 C8,6.44771525 8.44771525,6 9,6 L20,6 Z M20,16 C20.5522847,16 21,16.4477153 21,17 C21,17.5522847 20.5522847,18 20,18 L9,18 C8.44771525,18 8,17.5522847 8,17 C8,16.4477153 8.44771525,16 9,16 L20,16 Z M5,8.5 C4.17157288,8.5 3.5,7.82842712 3.5,7 C3.5,6.17157288 4.17157288,5.5 5,5.5 C5.82842712,5.5 6.5,6.17157288 6.5,7 C6.5,7.82842712 5.82842712,8.5 5,8.5 Z M5,13.5 C4.17157288,13.5 3.5,12.8284271 3.5,12 C3.5,11.1715729 4.17157288,10.5 5,10.5 C5.82842712,10.5 6.5,11.1715729 6.5,12 C6.5,12.8284271 5.82842712,13.5 5,13.5 Z M5,18.5 C4.17157288,18.5 3.5,17.8284271 3.5,17 C3.5,16.1715729 4.17157288,15.5 5,15.5 C5.82842712,15.5 6.5,16.1715729 6.5,17 C6.5,17.8284271 5.82842712,18.5 5,18.5 Z" id="Combined-Shape"></path>
        </g>
    </g>
</svg>