<?xml version="1.0" encoding="UTF-8"?>
<svg width="24px" height="24px" viewBox="0 0 24 24" version="1.1" xmlns="http://www.w3.org/2000/svg" xmlns:xlink="http://www.w3.org/1999/xlink">
    <!-- Generator: sketchtool 44.1 (41455) - http://www.bohemiancoding.com/sketch -->
    <title>view-gallery</title>
    <desc>Created with sketchtool.</desc>
    <defs></defs>
    <g id="Symbols" stroke="none" stroke-width="1" fill="none" fill-rule="evenodd">
        <g id="view-gallery" fill-rule="nonzero" fill="#000000">
            <path d="M3,3.99980749 C3,3.44762906 3.44371665,3 3.99980749,3 L7.00019251,3 C7.55237094,3 8,3.44371665 8,3.99980749 L8,7.00019251 C8,7.55237094 7.55628335,8 7.00019251,8 L3.99980749,8 C3.44762906,8 3,7.55628335 3,7.00019251 L3,3.99980749 Z M10,3.99980749 C10,3.44762906 10.4437166,3 10.9998075,3 L14.0001925,3 C14.5523709,3 15,3.44371665 15,3.99980749 L15,7.00019251 C15,7.55237094 14.5562834,8 14.0001925,8 L10.9998075,8 C10.4476291,8 10,7.55628335 10,7.00019251 L10,3.99980749 Z M3,10.9998075 C3,10.4476291 3.44371665,10 3.99980749,10 L7.00019251,10 C7.55237094,10 8,10.4437166 8,10.9998075 L8,14.0001925 C8,14.5523709 7.55628335,15 7.00019251,15 L3.99980749,15 C3.44762906,15 3,14.5562834 3,14.0001925 L3,10.9998075 Z M10,10.9998075 C10,10.4476291 10.4437166,10 10.9998075,10 L14.0001925,10 C14.5523709,10 15,10.4437166 15,10.9998075 L15,14.0001925 C15,14.5523709 14.5562834,15 14.0001925,15 L10.9998075,15 C10.4476291,15 10,14.5562834 10,14.0001925 L10,10.9998075 Z M17,3.99980749 C17,3.44762906 17.4437166,3 17.9998075,3 L21.0001925,3 C21.5523709,3 22,3.44371665 22,3.99980749 L22,7.00019251 C22,7.55237094 21.5562834,8 21.0001925,8 L17.9998075,8 C17.4476291,8 17,7.55628335 17,7.00019251 L17,3.99980749 Z M17,10.9998075 C17,10.4476291 17.4437166,10 17.9998075,10 L21.0001925,10 C21.5523709,10 22,10.4437166 22,10.9998075 L22,14.0001925 C22,14.5523709 21.5562834,15 21.0001925,15 L17.9998075,15 C17.4476291,15 17,14.5562834 17,14.0001925 L17,10.9998075 Z M3,17.9998075 C3,17.4476291 3.44371665,17 3.99980749,17 L7.00019251,17 C7.55237094,17 8,17.4437166 8,17.9998075 L8,21.0001925 C8,21.5523709 7.55628335,22 7.00019251,22 L3.99980749,22 C3.44762906,22 3,21.5562834 3,21.0001925 L3,17.9998075 Z M10,17.9998075 C10,17.4476291 10.4437166,17 10.9998075,17 L14.0001925,17 C14.5523709,17 15,17.4437166 15,17.9998075 L15,21.0001925 C15,21.5523709 14.5562834,22 14.0001925,22 L10.9998075,22 C10.4476291,22 10,21.5562834 10,21.0001925 L10,17.9998075 Z M17,17.9998075 C17,17.4476291 17.4437166,17 17.9998075,17 L21.0001925,17 C21.5523709,17 22,17.4437166 22,17.9998075 L22,21.0001925 C22,21.5523709 21.5562834,22 21.0001925,22 L17.9998075,22 C17.4476291,22 17,21.5562834 17,21.0001925 L17,17.9998075 Z" id="Combined-Shape"></path>
        </g>
    </g>
</svg>