<?xml version="1.0" encoding="UTF-8"?>
<svg width="24px" height="24px" viewBox="0 0 24 24" version="1.1" xmlns="http://www.w3.org/2000/svg" xmlns:xlink="http://www.w3.org/1999/xlink">
    <!-- Generator: sketchtool 44.1 (41455) - http://www.bohemiancoding.com/sketch -->
    <title>view-range</title>
    <desc>Created with sketchtool.</desc>
    <defs></defs>
    <g id="Symbols" stroke="none" stroke-width="1" fill="none" fill-rule="evenodd">
        <g id="view-range" fill-rule="nonzero" fill="#000000">
            <path d="M21,5 L21,5 C21.5522847,5 22,5.44771525 22,6 C22,6.55228475 21.5522847,7 21,7 L18.789,7 C18.3901324,7.90826155 17.4919851,8.49477415 16.5,8.49477415 C15.5080149,8.49477415 14.6098676,7.90826155 14.211,7 L4.671,7 C4.11871525,7 3.671,6.55228475 3.671,6 C3.671,5.44771525 4.11871525,5 4.671,5 L14.211,5 C14.6098676,4.09173845 15.5080149,3.50522585 16.5,3.50522585 C17.4919851,3.50522585 18.3901324,4.09173845 18.789,5 L21,5 Z M21,11 C21.5522847,11 22,11.4477153 22,12 C22,12.5522847 21.5522847,13 21,13 L9.789,13 C9.39013238,13.9082615 8.49198509,14.4947742 7.5,14.4947742 C6.50801491,14.4947742 5.60986762,13.9082615 5.211,13 L4.671,13 C4.11871525,13 3.671,12.5522847 3.671,12 C3.671,11.4477153 4.11871525,11 4.671,11 L5.211,11 C5.60986762,10.0917385 6.50801491,9.50522585 7.5,9.50522585 C8.49198509,9.50522585 9.39013238,10.0917385 9.789,11 L21,11 Z M21,17 C21.5522847,17 22,17.4477153 22,18 C22,18.5522847 21.5522847,19 21,19 L15.789,19 C15.3901324,19.9082615 14.4919851,20.4947742 13.5,20.4947742 C12.5080149,20.4947742 11.6098676,19.9082615 11.211,19 L4.671,19 C4.11871525,19 3.671,18.5522847 3.671,18 C3.671,17.4477153 4.11871525,17 4.671,17 L11.211,17 C11.6098676,16.0917385 12.5080149,15.5052258 13.5,15.5052258 C14.4919851,15.5052258 15.3901324,16.0917385 15.789,17 L21,17 Z" id="Combined-Shape"></path>
        </g>
    </g>
</svg>