<?xml version="1.0" encoding="UTF-8"?>
<svg width="24px" height="24px" viewBox="0 0 24 24" version="1.1" xmlns="http://www.w3.org/2000/svg" xmlns:xlink="http://www.w3.org/1999/xlink">
    <!-- Generator: sketchtool 49.1 (51147) - http://www.bohemiancoding.com/sketch -->
    <title>view-full-screen</title>
    <desc>Created with sketchtool.</desc>
    <defs></defs>
    <g id="Icons" stroke="none" stroke-width="1" fill="none" fill-rule="evenodd">
        <g id="view-full-screen" fill="#000000" fill-rule="nonzero">
            <path d="M22,2 L22,9 C22,9.55228475 21.5522847,10 21,10 C20.4477153,10 20,9.55228475 20,9 L20,5.414 L15.707,9.707 C15.4559255,9.96695658 15.0841221,10.0712126 14.7344927,9.97969716 C14.3848632,9.88818172 14.1118183,9.61513676 14.0203028,9.26550732 C13.9287874,8.91587789 14.0330434,8.54407447 14.293,8.293 L18.586,4 L15,4 C14.4477153,4 14,3.55228475 14,3 C14,2.44771525 14.4477153,2 15,2 L22,2 Z M2,9 L2,2 L9,2 C9.55228475,2 10,2.44771525 10,3 C10,3.55228475 9.55228475,4 9,4 L5.414,4 L9.707,8.293 C10.0859722,8.68537889 10.0805524,9.30908478 9.69481858,9.69481858 C9.30908478,10.0805524 8.68537889,10.0859722 8.293,9.707 L4,5.414 L4,9 C4,9.55228475 3.55228475,10 3,10 C2.44771525,10 2,9.55228475 2,9 Z M2,22 L2,16 C2,15.4477153 2.44771525,15 3,15 C3.55228475,15 4,15.4477153 4,16 L4,18.586 L8.293,14.293 C8.68537889,13.9140278 9.30908478,13.9194476 9.69481858,14.3051814 C10.0805524,14.6909152 10.0859722,15.3146211 9.707,15.707 L5.414,20 L8,20 C8.55228475,20 9,20.4477153 9,21 C9,21.5522847 8.55228475,22 8,22 L2,22 Z M22,15 L22,22 L15,22 C14.4477153,22 14,21.5522847 14,21 C14,20.4477153 14.4477153,20 15,20 L18.586,20 L14.293,15.707 C13.9140278,15.3146211 13.9194476,14.6909152 14.3051814,14.3051814 C14.6909152,13.9194476 15.3146211,13.9140278 15.707,14.293 L20,18.586 L20,15 C20,14.4477153 20.4477153,14 21,14 C21.5522847,14 22,14.4477153 22,15 Z" id="Combined-Shape"></path>
        </g>
    </g>
</svg>