<?xml version="1.0" encoding="UTF-8"?>
<svg width="24px" height="24px" viewBox="0 0 24 24" version="1.1" xmlns="http://www.w3.org/2000/svg" xmlns:xlink="http://www.w3.org/1999/xlink">
    <!-- Generator: sketchtool 49.1 (51147) - http://www.bohemiancoding.com/sketch -->
    <title>wrench</title>
    <desc>Created with sketchtool.</desc>
    <defs></defs>
    <g id="Icons" stroke="none" stroke-width="1" fill="none" fill-rule="evenodd">
        <g id="wrench" fill="#000000" fill-rule="nonzero">
            <path d="M4.121,22.122 C4.94937021,22.1241245 5.74413341,21.7946236 6.328,21.207 L14.709,12.826 C15.1714631,12.9396668 15.6457768,12.9980749 16.122,13 C16.3730346,12.9999117 16.6238312,12.98455 16.873,12.954 C19.2113834,12.6344259 21.1535614,10.9904748 21.855,8.737 C22.1181548,7.89674927 22.1865499,7.00761263 22.055,6.137 C21.9412872,5.39946217 21.4211852,4.78919357 20.711,4.56 C19.9908107,4.31978186 19.1967049,4.50804305 18.661,5.046 L16.411,7.3 C16.3470768,7.39766193 16.238222,7.45651187 16.1215,7.45651187 C16.004778,7.45651187 15.8959232,7.39766193 15.832,7.3 L15.826,7.294 C15.6663206,7.13363759 15.6663206,6.87436241 15.826,6.714 L18.076,4.464 C18.6135701,3.92849122 18.8018028,3.13489299 18.562,2.415 C18.3336921,1.70117557 17.7208472,1.17820431 16.98,1.065 C16.1093874,0.933450072 15.2202507,1.0018452 14.38,1.265 C12.1272021,1.9681886 10.4848356,3.91150618 10.167,6.25 C10.0793756,6.97278503 10.122393,7.70543568 10.294,8.413 L1.913,16.793 C1.02048114,17.6859939 0.753669395,19.028649 1.23694821,20.1950407 C1.72022703,21.3614324 2.85845181,22.1219294 4.121,22.122 L4.121,22.122 Z M12.1,6.492 C12.3386955,4.92684038 13.4549944,3.63784576 14.97,3.178 C15.3383441,3.06229047 15.7219161,3.00229414 16.108,3 C16.2932209,2.99966332 16.4781628,3.01437841 16.661,3.044 L14.411,5.3 C13.4745431,6.24647449 13.4776698,7.77137364 14.418,8.714 L14.418,8.714 C15.3716696,9.62422488 16.8723304,9.62422488 17.826,8.714 L20.079,6.447 C20.1640802,7.01920507 20.1179161,7.60326595 19.944,8.155 C19.4803034,9.65779415 18.1887194,10.7564008 16.631,10.973 C15.4021464,11.1302706 14.1697738,10.7092622 13.294,9.833 C12.4098012,8.9581131 11.9705892,7.72912868 12.1,6.492 L12.1,6.492 Z M3.328,18.207 L11.166,10.369 C11.583534,10.9976302 12.12075,11.5379044 12.747,11.959 L4.914,19.793 C4.47063362,20.2167493 3.77236638,20.2167493 3.329,19.793 C2.891604,19.3549653 2.89115672,18.6455859 3.328,18.207 L3.328,18.207 Z" id="Shape"></path>
        </g>
    </g>
</svg>