<?xml version="1.0" encoding="UTF-8"?>
<svg width="24px" height="24px" viewBox="0 0 24 24" version="1.1" xmlns="http://www.w3.org/2000/svg" xmlns:xlink="http://www.w3.org/1999/xlink">
    <!-- Generator: sketchtool 44.1 (41455) - http://www.bohemiancoding.com/sketch -->
    <title>zoom-out</title>
    <desc>Created with sketchtool.</desc>
    <defs></defs>
    <g id="Symbols" stroke="none" stroke-width="1" fill="none" fill-rule="evenodd">
        <g id="zoom-out" fill-rule="nonzero" fill="#000000">
            <path d="M9.5,18 C10.9171686,18.0021752 12.3121832,17.6483497 13.557,16.971 L19.293,22.707 C19.7778424,23.2239969 20.4513349,23.5226856 21.16,23.535 C21.7871533,23.5352133 22.3890653,23.2879802 22.835,22.847 C23.3031791,22.3655826 23.5542972,21.7137557 23.5301272,21.0426595 C23.5059572,20.3715632 23.2085984,19.7394901 22.707,19.293 L16.971,13.557 C18.7973393,10.1945364 18.151801,6.02623117 15.3939321,3.37371611 C12.6360632,0.721201051 8.4457869,0.238425344 5.15697218,2.19428183 C1.86815746,4.15013831 0.291626423,8.06243151 1.30546365,11.7521213 C2.31930088,15.4418111 5.67355566,17.999244 9.5,18 Z M21.293,20.707 C21.4277831,20.8241555 21.5137701,20.9875665 21.534,21.165 C21.5337654,21.2655734 21.4930345,21.3618139 21.421,21.432 C21.239,21.613 20.98,21.564 20.707,21.292 L15.207,15.792 C15.4116667,15.606 15.607,15.4106667 15.793,15.206 L21.293,20.707 Z M9.5,3 C13.0898509,3 16,5.91014913 16,9.5 C16,13.0898509 13.0898509,16 9.5,16 C5.91014913,16 3,13.0898509 3,9.5 C3.00385804,5.91174839 5.91174839,3.00385804 9.5,3 L9.5,3 Z M5.965,10.5 L13.036,10.5 C13.5882847,10.5 14.036,10.0522847 14.036,9.5 C14.036,8.94771525 13.5882847,8.5 13.036,8.5 L5.965,8.5 C5.41271525,8.5 4.965,8.94771525 4.965,9.5 C4.965,10.0522847 5.41271525,10.5 5.965,10.5 Z" id="Combined-Shape"></path>
        </g>
    </g>
</svg>