<?xml version="1.0" encoding="UTF-8"?>
<svg width="16px" height="16px" viewBox="0 0 16 16" version="1.1" xmlns="http://www.w3.org/2000/svg" xmlns:xlink="http://www.w3.org/1999/xlink">
    <!-- Generator: sketchtool 49.1 (51147) - http://www.bohemiancoding.com/sketch -->
    <title>alert-16</title>
    <desc>Created with sketchtool.</desc>
    <defs></defs>
    <g id="Icons" stroke="none" stroke-width="1" fill="none" fill-rule="evenodd">
        <g id="alert-16" fill="#000000" fill-rule="nonzero">
            <path d="M2,13 L14,13 C14.4970563,13 14.9,12.5970563 14.9,12.1 C14.9,11.6029437 14.4970563,11.2 14,11.2 L13,11.2 L13,6.89 C12.9721998,4.53623197 11.3064066,2.52062227 9,2.05 L9,1 C9,0.44771525 8.55228475,3.38176876e-17 8,0 C7.44771525,-3.38176876e-17 7,0.44771525 7,1 L7,2.05 C4.69359339,2.52062227 3.02780025,4.53623197 3,6.89 L3,11.2 L2,11.2 C1.50294373,11.2 1.1,11.6029437 1.1,12.1 C1.1,12.5970563 1.50294373,13 2,13 L2,13 Z M4.8,6.89 C4.81790178,5.35944176 5.93018625,4.06177655 7.44,3.81 C7.76912087,4.06695126 8.23087913,4.06695126 8.56,3.81 C10.0698138,4.06177655 11.1820982,5.35944176 11.2,6.89 L11.2,11.2 L4.8,11.2 L4.8,6.89 Z" id="Shape"></path>
            <path d="M9,16 C9.55228475,16 10,15.5522847 10,15 C10,14.4477153 9.55228475,14 9,14 L7,14 C6.44771525,14 6,14.4477153 6,15 C6,15.5522847 6.44771525,16 7,16 L9,16 Z" id="Shape"></path>
        </g>
    </g>
</svg>