<?xml version="1.0" encoding="UTF-8"?>
<svg width="16px" height="16px" viewBox="0 0 16 16" version="1.1" xmlns="http://www.w3.org/2000/svg" xmlns:xlink="http://www.w3.org/1999/xlink">
    <!-- Generator: sketchtool 44.1 (41455) - http://www.bohemiancoding.com/sketch -->
    <title>apple-16</title>
    <desc>Created with sketchtool.</desc>
    <defs></defs>
    <g id="Symbols" stroke="none" stroke-width="1" fill="none" fill-rule="evenodd">
        <g id="apple-16" fill="#000000">
            <g id="Group-2" transform="translate(1.000000, 0.000000)">
                <path d="M13.6666667,11.6826923 C13.4178033,12.4839744 13.0253649,13.2852564 12.4893515,14.0865385 C11.6661881,15.3429487 10.8462152,15.9711538 10.0294329,15.9711538 C9.7167584,15.9711538 9.27008056,15.8685897 8.68939938,15.6634615 C8.14062375,15.4583333 7.6588498,15.3557692 7.24407753,15.3557692 C6.8548297,15.3557692 6.40177076,15.4615385 5.88490069,15.6730769 C5.36803063,15.8910256 4.94687724,16 4.62144054,16 C3.65151153,16 2.69115418,15.1698718 1.74036851,13.5096154 C0.802345059,11.8365385 0.333333333,10.224359 0.333333333,8.67307692 C0.333333333,7.21153846 0.693866156,6.01282051 1.4149318,5.07692308 C2.12961634,4.15384615 3.03573423,3.69230769 4.13328547,3.69230769 C4.59272553,3.69230769 5.15745394,3.78846154 5.82747069,3.98076923 C6.49110633,4.17307692 6.93140305,4.26923077 7.14836085,4.26923077 C7.43551089,4.26923077 7.89176039,4.16025641 8.51710936,3.94230769 C9.16798277,3.72435897 9.71994895,3.61538462 10.1730079,3.61538462 C10.9323602,3.61538462 11.6119486,3.82371795 12.2117732,4.24038462 C12.543591,4.47115385 12.8754088,4.79166667 13.2072266,5.20192308 C12.7031188,5.63141026 12.3393954,6.00961538 12.1160565,6.33653846 C11.7012842,6.93910256 11.4938981,7.6025641 11.4938981,8.32692308 C11.4938981,9.12179487 11.7140464,9.83653846 12.1543431,10.4711538 C12.5946399,11.1057692 13.0987477,11.5096154 13.6666667,11.6826923 L13.6666667,11.6826923 Z M10.0677196,0.403846154 C10.0677196,0.794871795 9.97519343,1.23076923 9.79014118,1.71153846 C9.59870782,2.19230769 9.30198612,2.63461538 8.89997607,3.03846154 C8.55539603,3.38461538 8.21081598,3.61538462 7.86623594,3.73076923 C7.6301348,3.80128205 7.29831698,3.85576923 6.87078248,3.89423077 C6.88992582,2.93910256 7.13878918,2.11538462 7.61737258,1.42307692 C8.08957486,0.737179487 8.88721385,0.262820513 10.0102895,0 C10.0166707,0.0192307692 10.024647,0.0544871795 10.0342187,0.105769231 C10.0437904,0.157051282 10.0517668,0.192307692 10.0581479,0.211538462 C10.0581479,0.237179487 10.0597432,0.269230769 10.0629337,0.307692308 C10.0661243,0.346153846 10.0677196,0.378205128 10.0677196,0.403846154 L10.0677196,0.403846154 Z" id="Shape"></path>
            </g>
        </g>
    </g>
</svg>