<?xml version="1.0" encoding="UTF-8"?>
<svg width="16px" height="16px" viewBox="0 0 16 16" version="1.1" xmlns="http://www.w3.org/2000/svg" xmlns:xlink="http://www.w3.org/1999/xlink">
    <!-- Generator: sketchtool 44.1 (41455) - http://www.bohemiancoding.com/sketch -->
    <title>bag-16</title>
    <desc>Created with sketchtool.</desc>
    <defs></defs>
    <g id="Symbols" stroke="none" stroke-width="1" fill="none" fill-rule="evenodd">
        <g id="bag-16" fill-rule="nonzero" fill="#000000">
            <path d="M13.08,1 L2.92,1 C2.40813003,1.0026453 1.91827655,1.20852536 1.55820522,1.57234743 C1.19813389,1.9361695 0.997340953,2.4281301 1,2.94 L1,5 C1.00072782,5.23596391 1.09409665,5.46220376 1.26,5.63 L2,6.41 L2,13.1 C2.00264523,13.6065657 2.20641813,14.0913321 2.56648949,14.4476527 C2.92656085,14.8039733 3.41343441,15.0026591 3.92,15 L12.08,15 C12.5865656,15.0026591 13.0734392,14.8039733 13.4335105,14.4476527 C13.7935819,14.0913321 13.9973548,13.6065657 14,13.1 L14,6.41 L14.74,5.65 C14.9108362,5.4773006 15.004606,5.24287627 15,5 L15,2.94 C15.002659,2.4281301 14.8018661,1.9361695 14.4417948,1.57234743 C14.0817235,1.20852536 13.59187,1.0026453 13.08,1 L13.08,1 Z M2.8,2.94 C2.79724334,2.90549851 2.80835883,2.8713221 2.83088366,2.84504314 C2.85340849,2.81876417 2.8854828,2.80255247 2.92,2.8 L13.08,2.8 C13.1145172,2.80255247 13.1465915,2.81876417 13.1691163,2.84504314 C13.1916412,2.8713221 13.2027567,2.90549851 13.2,2.94 L13.2,4.65 L11.69,6.2 L9,6.2 L9,5.5 C9,4.94771525 8.55228475,4.5 8,4.5 C7.44771525,4.5 7,4.94771525 7,5.5 L7,6.2 L4.31,6.2 L2.8,4.65 L2.8,2.94 Z M12.08,13.2 L3.92,13.2 C3.89080032,13.2027762 3.86170116,13.1937757 3.83916819,13.1749982 C3.81663521,13.1562207 3.80253481,13.1292216 3.8,13.1 L3.8,8 L3.93,8 L7,8 L7,8.5 C7,9.05228475 7.44771525,9.5 8,9.5 C8.55228475,9.5 9,9.05228475 9,8.5 L9,8 L12.07,8 L12.2,8 L12.2,13.1 C12.1974652,13.1292216 12.1833648,13.1562207 12.1608318,13.1749982 C12.1382988,13.1937757 12.1091997,13.2027762 12.08,13.2 L12.08,13.2 Z" id="Shape"></path>
        </g>
    </g>
</svg>