<?xml version="1.0" encoding="UTF-8"?>
<svg width="16px" height="16px" viewBox="0 0 16 16" version="1.1" xmlns="http://www.w3.org/2000/svg" xmlns:xlink="http://www.w3.org/1999/xlink">
    <!-- Generator: sketchtool 44.1 (41455) - http://www.bohemiancoding.com/sketch -->
    <title>bank-account-16</title>
    <desc>Created with sketchtool.</desc>
    <defs></defs>
    <g id="Symbols" stroke="none" stroke-width="1" fill="none" fill-rule="evenodd">
        <g id="bank-account-16" fill-rule="nonzero" fill="#000000">
            <path d="M14,13 L13,13 L13,8 L14,8 C14.4218892,8.00082624 14.798913,7.73678864 14.9423708,7.34003803 C15.0858287,6.94328743 14.9648561,6.49918338 14.64,6.23 L8.64,1.23 C8.26921894,0.921166545 7.73078106,0.921166545 7.36,1.23 L1.36,6.23 C1.03514387,6.49918338 0.914171347,6.94328743 1.05762919,7.34003803 C1.20108704,7.73678864 1.57811078,8.00082624 2,8 L3,8 L3,13 L2,13 C1.44771525,13 1,13.4477153 1,14 C1,14.5522847 1.44771525,15 2,15 L14,15 C14.5522847,15 15,14.5522847 15,14 C15,13.4477153 14.5522847,13 14,13 Z M8,3.3 L11.24,6 L4.76,6 L8,3.3 Z M5,13 L5,8 L7,8 L7,13 L5,13 Z M9,13 L9,8 L11,8 L11,13 L9,13 Z" id="Shape"></path>
        </g>
    </g>
</svg>