<?xml version="1.0" encoding="UTF-8"?>
<svg width="16px" height="16px" viewBox="0 0 16 16" version="1.1" xmlns="http://www.w3.org/2000/svg" xmlns:xlink="http://www.w3.org/1999/xlink">
    <!-- Generator: sketchtool 44.1 (41455) - http://www.bohemiancoding.com/sketch -->
    <title>bank-account-plus-16</title>
    <desc>Created with sketchtool.</desc>
    <defs></defs>
    <g id="Symbols" stroke="none" stroke-width="1" fill="none" fill-rule="evenodd">
        <g id="bank-account-plus-16" fill-rule="nonzero" fill="#000000">
            <path d="M14,13.2 L12.86,13.2 C12.8677783,13.1335602 12.8677783,13.0664398 12.86,13 L12.86,9 C12.86,8.50294373 12.4570563,8.1 11.96,8.1 C11.4629437,8.1 11.06,8.50294373 11.06,9 L11.06,13 C11.0522217,13.0664398 11.0522217,13.1335602 11.06,13.2 L8.86,13.2 C8.86777832,13.1335602 8.86777832,13.0664398 8.86,13 L8.86,7.1 C8.86047612,6.61815474 8.48136938,6.22141512 8,6.2 L4.41,6.2 L7.57,3.6 C7.83736998,3.40247779 7.9740915,3.07366055 7.92559044,2.74479982 C7.87708938,2.41593909 7.65126431,2.14059098 7.33825614,2.02866414 C7.02524797,1.9167373 6.67603116,1.9864594 6.43,2.21 L1.33,6.41 C1.04087663,6.65209772 0.933338671,7.04877085 1.06059498,7.40374897 C1.18785128,7.75872709 1.5229152,7.99673162 1.9,8 L3.1,8 L3.1,13 C3.09222168,13.0664398 3.09222168,13.1335602 3.1,13.2 L2,13.2 C1.50294373,13.2 1.1,13.6029437 1.1,14.1 C1.1,14.5970563 1.50294373,15 2,15 L14,15 C14.4970563,15 14.9,14.5970563 14.9,14.1 C14.9,13.6029437 14.4970563,13.2 14,13.2 Z M4.9,13 L4.9,8 L7.1,8 L7.1,13 C7.09222168,13.0664398 7.09222168,13.1335602 7.1,13.2 L4.86,13.2 C4.88121957,13.135156 4.89464732,13.0680173 4.9,13 L4.9,13 Z" id="Shape"></path>
            <path d="M14,3 L13,3 L13,2 C13,1.44771525 12.5522847,1 12,1 C11.4477153,1 11,1.44771525 11,2 L11,3 L10,3 C9.44771525,3 9,3.44771525 9,4 C9,4.55228475 9.44771525,5 10,5 L11,5 L11,6 C11,6.55228475 11.4477153,7 12,7 C12.5522847,7 13,6.55228475 13,6 L13,5 L14,5 C14.5522847,5 15,4.55228475 15,4 C15,3.44771525 14.5522847,3 14,3 Z" id="Shape"></path>
        </g>
    </g>
</svg>