<?xml version="1.0" encoding="UTF-8"?>
<svg width="16px" height="16px" viewBox="0 0 16 16" version="1.1" xmlns="http://www.w3.org/2000/svg" xmlns:xlink="http://www.w3.org/1999/xlink">
    <!-- Generator: sketchtool 49.1 (51147) - http://www.bohemiancoding.com/sketch -->
    <title>bank-account-number-16</title>
    <desc>Created with sketchtool.</desc>
    <defs></defs>
    <g id="Icons" stroke="none" stroke-width="1" fill="none" fill-rule="evenodd">
        <g id="bank-account-number-16" fill="#000000" fill-rule="nonzero">
            <path d="M14.1,13.2 L13,13.2 C13.0077783,13.1335602 13.0077783,13.0664398 13,13 L13,9 C13,8.50294373 12.5970563,8.1 12.1,8.1 C11.6029437,8.1 11.2,8.50294373 11.2,9 L11.2,13 C11.1922217,13.0664398 11.1922217,13.1335602 11.2,13.2 L9,13.2 C9.00777832,13.1335602 9.00777832,13.0664398 9,13 L9,7.1 C9,6.60294373 8.59705627,6.2 8.1,6.2 L4.25,6.2 L7.45,3.2 C7.77306954,2.85119453 7.76910958,2.31126872 7.44095861,1.96723948 C7.11280764,1.62321024 6.57367103,1.59376062 6.21,1.9 L1.38,6.45 C1.11486666,6.7039113 1.0305227,7.09340592 1.16686236,7.43425506 C1.30320201,7.77510419 1.63289565,7.99898378 2,8 L3.2,8 L3.2,13 C3.19222168,13.0664398 3.19222168,13.1335602 3.2,13.2 L2.1,13.2 C1.60294373,13.2 1.2,13.6029437 1.2,14.1 C1.2,14.5970563 1.60294373,15 2.1,15 L14.1,15 C14.5970563,15 15,14.5970563 15,14.1 C15,13.6029437 14.5970563,13.2 14.1,13.2 Z M5,13.2 C5.00777832,13.1335602 5.00777832,13.0664398 5,13 L5,8 L7.2,8 L7.2,13 C7.19222168,13.0664398 7.19222168,13.1335602 7.2,13.2 L5,13.2 L5,13.2 Z" id="Shape"></path>
            <path d="M15,4 L14.6,4 L14.6,3 L15,3 C15.4418278,3 15.8,2.6418278 15.8,2.2 C15.8,1.7581722 15.4418278,1.4 15,1.4 L14.6,1.4 L14.6,1 C14.6,0.5581722 14.2418278,0.2 13.8,0.2 C13.3581722,0.2 13,0.5581722 13,1 L13,1.4 L12,1.4 L12,1 C12,0.5581722 11.6418278,0.2 11.2,0.2 C10.7581722,0.2 10.4,0.5581722 10.4,1 L10.4,1.4 L10,1.4 C9.5581722,1.4 9.2,1.7581722 9.2,2.2 C9.2,2.6418278 9.5581722,3 10,3 L10.4,3 L10.4,4 L10,4 C9.5581722,4 9.2,4.3581722 9.2,4.8 C9.2,5.2418278 9.5581722,5.6 10,5.6 L10.4,5.6 L10.4,6 C10.4,6.4418278 10.7581722,6.8 11.2,6.8 C11.6418278,6.8 12,6.4418278 12,6 L12,5.6 L13,5.6 L13,6 C13,6.4418278 13.3581722,6.8 13.8,6.8 C14.2418278,6.8 14.6,6.4418278 14.6,6 L14.6,5.6 L15,5.6 C15.4418278,5.6 15.8,5.2418278 15.8,4.8 C15.8,4.3581722 15.4418278,4 15,4 Z M12,4 L12,3 L13,3 L13,4 L12,4 Z" id="Shape"></path>
        </g>
    </g>
</svg>