<?xml version="1.0" encoding="UTF-8"?>
<svg width="16px" height="16px" viewBox="0 0 16 16" version="1.1" xmlns="http://www.w3.org/2000/svg" xmlns:xlink="http://www.w3.org/1999/xlink">
    <!-- Generator: sketchtool 49.1 (51147) - http://www.bohemiancoding.com/sketch -->
    <title>basic-minus-framed-16</title>
    <desc>Created with sketchtool.</desc>
    <defs></defs>
    <g id="Icons" stroke="none" stroke-width="1" fill="none" fill-rule="evenodd">
        <g id="basic-minus-framed-16" fill="#000000" fill-rule="nonzero">
            <path d="M8,2.8 C10.8718807,2.8 13.2,5.1281193 13.2,8 C13.2,10.8718807 10.8718807,13.2 8,13.2 C5.1281193,13.2 2.8,10.8718807 2.8,8 C2.8055026,5.13040164 5.13040164,2.8055026 8,2.8 L8,2.8 Z M8,1 C4.13400675,1 1,4.13400675 1,8 C1,11.8659932 4.13400675,15 8,15 C11.8659932,15 15,11.8659932 15,8 C15,6.14348457 14.2625021,4.36300718 12.9497475,3.05025253 C11.6369928,1.73749788 9.85651543,1 8,1 L8,1 Z" id="Shape"></path>
            <path d="M10,9 L6,9 C5.44771525,9 5,8.55228475 5,8 C5,7.44771525 5.44771525,7 6,7 L10,7 C10.5522847,7 11,7.44771525 11,8 C11,8.55228475 10.5522847,9 10,9 Z" id="Shape"></path>
        </g>
    </g>
</svg>