<?xml version="1.0" encoding="UTF-8"?>
<svg width="16px" height="16px" viewBox="0 0 16 16" version="1.1" xmlns="http://www.w3.org/2000/svg" xmlns:xlink="http://www.w3.org/1999/xlink">
    <!-- Generator: sketchtool 49.1 (51147) - http://www.bohemiancoding.com/sketch -->
    <title>basic-cross-16</title>
    <desc>Created with sketchtool.</desc>
    <defs></defs>
    <g id="Icons" stroke="none" stroke-width="1" fill="none" fill-rule="evenodd">
        <g id="basic-cross-16" fill="#000000" fill-rule="nonzero">
            <path d="M3.29,12.71 C3.68003745,13.0977236 4.30996255,13.0977236 4.7,12.71 L8,9.41 L11.29,12.7 C11.6867603,13.0397768 12.2781942,13.0169323 12.6475632,12.6475632 C13.0169323,12.2781942 13.0397768,11.6867603 12.7,11.29 L9.41,8 L12.7,4.71 C13.0397768,4.31323972 13.0169323,3.72180583 12.6475632,3.35243678 C12.2781942,2.98306773 11.6867603,2.9602232 11.29,3.3 L8,6.59 L4.71,3.29 C4.45634143,3.03634143 4.08662601,2.93727648 3.74012196,3.03012196 C3.39361791,3.12296744 3.12296744,3.39361791 3.03012196,3.74012196 C2.93727648,4.08662601 3.03634143,4.45634143 3.29,4.71 L6.59,8 L3.29,11.29 C3.10068735,11.4777666 2.99420168,11.7333625 2.99420168,12 C2.99420168,12.2666375 3.10068735,12.5222334 3.29,12.71 Z" id="Shape"></path>
        </g>
    </g>
</svg>