<?xml version="1.0" encoding="UTF-8"?>
<svg width="16px" height="16px" viewBox="0 0 16 16" version="1.1" xmlns="http://www.w3.org/2000/svg" xmlns:xlink="http://www.w3.org/1999/xlink">
    <!-- Generator: sketchtool 49.1 (51147) - http://www.bohemiancoding.com/sketch -->
    <title>bedroom-16</title>
    <desc>Created with sketchtool.</desc>
    <defs></defs>
    <g id="Icons" stroke="none" stroke-width="1" fill="none" fill-rule="evenodd">
        <g id="bedroom-16" fill="#000000" fill-rule="nonzero">
            <path d="M2.8,4.0000001 L6.09240404,4.0000001 C7.14518397,4.0000001 7.9999999,4.84479823 7.9999999,5.89895666 L7.9999999,7.0000001 L12.1019314,7.0000001 C13.7008176,7.0000001 15.0000004,8.3013428 15.0000004,9.89736821 L15.0000004,14 C15.0000004,14.4970563 14.5970567,14.9 14.1000004,14.9 C13.6029441,14.9 13.2000004,14.4970563 13.2000004,14 L13.2000004,12.9999994 L2.8,12.9999994 L2.8,14 C2.8,14.4970563 2.39705627,14.9 1.9,14.9 C1.40294373,14.9 1,14.4970563 1,14 L1,3 C1,2.50294373 1.40294373,2.1 1.9,2.1 C2.39705627,2.1 2.8,2.50294373 2.8,3 L2.8,4.0000001 Z M2.8,5.8000001 L2.8,7.0000001 L6.1999999,7.0000001 L6.1999999,5.89895666 C6.1999999,5.84369159 6.15579031,5.8000001 6.09240404,5.8000001 L2.8,5.8000001 Z M2.8,11.1999994 L13.2000004,11.1999994 L13.2000004,9.89736821 C13.2000004,9.2947866 12.7060351,8.8000001 12.1019314,8.8000001 L2.8,8.8000001 L2.8,11.1999994 Z" id="Combined-Shape"></path>
        </g>
    </g>
</svg>