<?xml version="1.0" encoding="UTF-8"?>
<svg width="16px" height="16px" viewBox="0 0 16 16" version="1.1" xmlns="http://www.w3.org/2000/svg" xmlns:xlink="http://www.w3.org/1999/xlink">
    <!-- Generator: sketchtool 44.1 (41455) - http://www.bohemiancoding.com/sketch -->
    <title>binoculars-plus-16</title>
    <desc>Created with sketchtool.</desc>
    <defs></defs>
    <g id="Symbols" stroke="none" stroke-width="1" fill="none" fill-rule="evenodd">
        <g id="binoculars-plus-16" fill-rule="nonzero" fill="#000000">
            <path d="M7.5,13.9 C7.5,13.3477153 7.05228475,12.9 6.5,12.9 L4.5,12.9 C3.94771525,12.9 3.5,13.3477153 3.5,13.9 C3.5,14.4522847 3.94771525,14.9 4.5,14.9 L6.5,14.9 C7.05228475,14.9 7.5,14.4522847 7.5,13.9 Z" id="Shape"></path>
            <path d="M12,15 C12.5522847,15 13,14.5522847 13,14 L13,13 L14,13 C14.5522847,13 15,12.5522847 15,12 C15,11.4477153 14.5522847,11 14,11 L13,11 L13,10 C13,9.44771525 12.5522847,9 12,9 C11.4477153,9 11,9.44771525 11,10 L11,11 L10,11 C9.44771525,11 9,11.4477153 9,12 C9,12.5522847 9.44771525,13 10,13 L11,13 L11,14 C11,14.5522847 11.4477153,15 12,15 Z" id="Shape"></path>
            <path d="M15,2.4 C15,2.02869691 14.8525004,1.67260144 14.5899495,1.41005051 C14.3273986,1.14749958 13.9713031,1 13.6,1 L10.4,1 C9.62680135,1 9,1.62680135 9,2.4 L9,6 C9.06434506,6.29920022 8.98814022,6.61139167 8.79317805,6.84729591 C8.59821587,7.08320014 8.30596448,7.21684072 8,7.21 C7.69403552,7.21684072 7.40178413,7.08320014 7.20682195,6.84729591 C7.01185978,6.61139167 6.93565494,6.29920022 7,6 L7,2.4 C7,1.62680135 6.37319865,1 5.6,1 L2.4,1 C1.62680135,1 1,1.62680135 1,2.4 L1,4.87 C1.00035877,5.73268687 1.16319711,6.5875882 1.48,7.39 L2.57,10.17 C3.00324647,11.2765554 4.07165838,12.0033932 5.26,12 L7,12 C7.49705627,12 7.9,11.5970563 7.9,11.1 C7.9,10.6029437 7.49705627,10.2 7,10.2 L5.26,10.2 C4.81502104,10.1926927 4.41917413,9.91559989 4.26,9.5 L3.15,6.73 C3.06195083,6.49222521 2.99175618,6.24821524 2.94,6 L5.2,6 C5.11060104,7.05683959 5.62386994,8.07397388 6.52710968,8.6299056 C7.43034942,9.18583731 8.56965058,9.18583731 9.47289032,8.6299056 C10.3761301,8.07397388 10.889399,7.05683959 10.8,6 L13.06,6 C13.0082438,6.24821524 12.9380492,6.49222521 12.85,6.73 C12.7321023,7.0301031 12.7832635,7.37030745 12.9842116,7.62246136 C13.1851597,7.87461528 13.5053659,8.00041057 13.8242116,7.95246137 C14.1430574,7.90451217 14.4121024,7.69010311 14.53,7.39 C14.8433849,6.58692769 15.0028267,5.73204827 15,4.87 L15,2.4 L15,2.4 Z M2.8,4.2 L2.8,2.8 L5.2,2.8 L5.2,4.2 L2.8,4.2 Z M10.8,2.8 L13.2,2.8 L13.2,4.2 L10.8,4.2 L10.8,2.8 L10.8,2.8 Z" id="Shape"></path>
        </g>
    </g>
</svg>