<?xml version="1.0" encoding="UTF-8"?>
<svg width="16px" height="16px" viewBox="0 0 16 16" version="1.1" xmlns="http://www.w3.org/2000/svg" xmlns:xlink="http://www.w3.org/1999/xlink">
    <!-- Generator: sketchtool 49.1 (51147) - http://www.bohemiancoding.com/sketch -->
    <title>bookmark-plus-16</title>
    <desc>Created with sketchtool.</desc>
    <defs></defs>
    <g id="Icons" stroke="none" stroke-width="1" fill="none" fill-rule="evenodd">
        <g id="bookmark-plus-16" fill="#000000" fill-rule="nonzero">
            <path d="M15,2 L14,2 L14,1 C14,0.44771525 13.5522847,0 13,0 C12.4477153,0 12,0.44771525 12,1 L12,2 L11,2 C10.4477153,2 10,2.44771525 10,3 C10,3.55228475 10.4477153,4 11,4 L12,4 L12,5 C12,5.55228475 12.4477153,6 13,6 C13.5522847,6 14,5.55228475 14,5 L14,4 L15,4 C15.5522847,4 16,3.55228475 16,3 C16,2.44771525 15.5522847,2 15,2 Z" id="Shape"></path>
            <path d="M9,12.1 L14,14.54 L14,8 C14,7.50294373 13.5970563,7.1 13.1,7.1 C12.6029437,7.1 12.2,7.50294373 12.2,8 L12.2,11.66 L9,10.1 L5.8,11.66 L5.8,2.9 C5.80198589,2.86669624 5.80198589,2.83330376 5.8,2.8 L8,2.8 C8.49705627,2.8 8.9,2.39705627 8.9,1.9 C8.9,1.40294373 8.49705627,1 8,1 L3.4,1 C2.0745166,1 1,2.0745166 1,3.4 L1,7 L4,7 L4,14.54 L9,12.1 Z M2.8,5.2 L2.8,3.4 C2.8,3.06862915 3.06862915,2.8 3.4,2.8 C3.73137085,2.8 4,3.06862915 4,3.4 L4,5.2 L2.8,5.2 Z" id="Shape"></path>
        </g>
    </g>
</svg>