<?xml version="1.0" encoding="UTF-8"?>
<svg width="16px" height="16px" viewBox="0 0 16 16" version="1.1" xmlns="http://www.w3.org/2000/svg" xmlns:xlink="http://www.w3.org/1999/xlink">
    <!-- Generator: sketchtool 49.1 (51147) - http://www.bohemiancoding.com/sketch -->
    <title>bookmark-16</title>
    <desc>Created with sketchtool.</desc>
    <defs></defs>
    <g id="Icons" stroke="none" stroke-width="1" fill="none" fill-rule="evenodd">
        <g id="bookmark-16" fill="#000000" fill-rule="nonzero">
            <path d="M9,12.1 L14,14.54 L14,3.9 C14.0346365,3.1190088 13.7388381,2.35952703 13.1851005,1.80769229 C12.6313628,1.25585754 11.8708673,0.962675252 11.09,1 L3.4,1 C2.0745166,1 1,2.0745166 1,3.4 L1,7 L4,7 L4,14.54 L9,12.1 Z M12.2,3.9 L12.2,11.66 L9,10.1 L5.8,11.66 L5.8,2.9 L5.75,2.9 L5.75,2.8 L11.12,2.8 C11.4170922,2.77453939 11.7100476,2.88298649 11.9189504,3.09575783 C12.1278531,3.30852918 12.2309071,3.60342494 12.2,3.9 Z M2.8,5.2 L2.8,3.4 C2.8,3.06862915 3.06862915,2.8 3.4,2.8 C3.73137085,2.8 4,3.06862915 4,3.4 L4,5.2 L2.8,5.2 Z" id="Shape"></path>
        </g>
    </g>
</svg>