<?xml version="1.0" encoding="UTF-8"?>
<svg width="16px" height="16px" viewBox="0 0 16 16" version="1.1" xmlns="http://www.w3.org/2000/svg" xmlns:xlink="http://www.w3.org/1999/xlink">
    <!-- Generator: sketchtool 44.1 (41455) - http://www.bohemiancoding.com/sketch -->
    <title>bookmark-minus-16</title>
    <desc>Created with sketchtool.</desc>
    <defs></defs>
    <g id="Symbols" stroke="none" stroke-width="1" fill="none" fill-rule="evenodd">
        <g id="bookmark-minus-16" fill-rule="nonzero" fill="#000000">
            <path d="M15,5 L11,5 C10.4477153,5 10,5.44771525 10,6 C10,6.55228475 10.4477153,7 11,7 L15,7 C15.5522847,7 16,6.55228475 16,6 C16,5.44771525 15.5522847,5 15,5 Z" id="Shape"></path>
            <path d="M1,7 L4,7 L4,14.54 L9,12.1 L14,14.54 L14,9 C14,8.50294373 13.5970563,8.1 13.1,8.1 C12.6029437,8.1 12.2,8.50294373 12.2,9 L12.2,11.66 L9,10.1 L5.8,11.66 L5.8,2.9 C5.80198589,2.86669624 5.80198589,2.83330376 5.8,2.8 L11.11,2.8 C11.5278508,2.75818102 11.9273146,2.98188079 12.11,3.36 C12.2524341,3.68637184 12.5739068,3.89807336 12.93,3.9 C13.0542693,3.89876017 13.1769015,3.87150856 13.29,3.82 C13.7409659,3.61935289 13.9461833,3.09292564 13.75,2.64 C13.2813735,1.6014799 12.2283562,0.952251227 11.09,1 L3.4,1 C2.0745166,1 1,2.0745166 1,3.4 L1,7 L1,7 Z M4,5.2 L2.8,5.2 L2.8,3.4 C2.8,3.06862915 3.06862915,2.8 3.4,2.8 C3.73137085,2.8 4,3.06862915 4,3.4 L4,5.2 Z" id="Shape"></path>
        </g>
    </g>
</svg>