<?xml version="1.0" encoding="UTF-8"?>
<svg width="16px" height="16px" viewBox="0 0 16 16" version="1.1" xmlns="http://www.w3.org/2000/svg" xmlns:xlink="http://www.w3.org/1999/xlink">
    <!-- Generator: sketchtool 49.1 (51147) - http://www.bohemiancoding.com/sketch -->
    <title>box-cross-16</title>
    <desc>Created with sketchtool.</desc>
    <defs></defs>
    <g id="Icons" stroke="none" stroke-width="1" fill="none" fill-rule="evenodd">
        <g id="box-cross-16" fill="#000000" fill-rule="nonzero">
            <path d="M14.64,10.36 C14.2888499,10.0103855 13.7211501,10.0103855 13.37,10.36 L12,11.73 L10.64,10.37 C10.2834323,10.0578032 9.74585209,10.0756172 9.41073465,10.4107346 C9.0756172,10.7458521 9.0578032,11.2834323 9.37,11.64 L10.73,13 L9.36,14.36 C9.10736765,14.581195 8.99888046,14.9246331 9.07860433,15.2508147 C9.1583282,15.5769963 9.41300366,15.8316718 9.73918528,15.9113957 C10.0653669,15.9911195 10.408805,15.8826323 10.63,15.63 L12,14.27 L13.36,15.63 C13.7165677,15.9421968 14.2541479,15.9243828 14.5892654,15.5892654 C14.9243828,15.2541479 14.9421968,14.7165677 14.63,14.36 L13.27,13 L14.63,11.64 C14.8023261,11.4722725 14.9003613,11.2425566 14.9022399,11.0020878 C14.9041186,10.761619 14.8096844,10.5303994 14.64,10.36 L14.64,10.36 Z" id="Shape"></path>
            <path d="M1.9,7 L2,7 L2,12.1 C2,13.149341 2.85065898,14 3.9,14 L5.9,14 C6.39705627,14 6.8,13.5970563 6.8,13.1 C6.8,12.6029437 6.39705627,12.2 5.9,12.2 L3.9,12.2 C3.84477153,12.2 3.8,12.1552285 3.8,12.1 L3.8,7 L12.2,7 L12.2,7.5 C12.2,7.99705627 12.6029437,8.4 13.1,8.4 C13.5970563,8.4 14,7.99705627 14,7.5 L14,7 L14.1,7 C14.3386948,7 14.5676134,6.90517884 14.7363961,6.7363961 C14.9051788,6.56761336 15,6.33869484 15,6.1 L15,4 C15.0161582,3.47861698 14.8216701,2.97269421 14.4604224,2.59639453 C14.0991747,2.22009486 13.6016081,2.00512734 13.08,2 L2.92,2 C2.39839186,2.00512734 1.90082533,2.22009486 1.53957764,2.59639453 C1.17832995,2.97269421 0.98384181,3.47861698 1,4 L1,6.1 C1,6.33869484 1.09482116,6.56761336 1.2636039,6.7363961 C1.43238664,6.90517884 1.66130516,7 1.9,7 L1.9,7 Z M2.8,4 C2.7844646,3.95746674 2.78897457,3.91019175 2.81227178,3.87136307 C2.83556899,3.83253439 2.87515988,3.80630795 2.92,3.8 L13.08,3.8 C13.1248401,3.80630795 13.164431,3.83253439 13.1877282,3.87136307 C13.2110254,3.91019175 13.2155354,3.95746674 13.2,4 L13.2,5.2 L2.8,5.2 L2.8,4 Z" id="Shape"></path>
        </g>
    </g>
</svg>