<?xml version="1.0" encoding="UTF-8"?>
<svg width="16px" height="16px" viewBox="0 0 16 16" version="1.1" xmlns="http://www.w3.org/2000/svg" xmlns:xlink="http://www.w3.org/1999/xlink">
    <!-- Generator: sketchtool 44.1 (41455) - http://www.bohemiancoding.com/sketch -->
    <title>box-16</title>
    <desc>Created with sketchtool.</desc>
    <defs></defs>
    <g id="Symbols" stroke="none" stroke-width="1" fill="none" fill-rule="evenodd">
        <g id="box-16" fill-rule="nonzero" fill="#000000">
            <path d="M13.08,2 L2.92,2 C1.84679216,2.04296235 0.999140416,2.92593292 1,4 L1,6.1 C1,6.33869484 1.09482116,6.56761336 1.2636039,6.7363961 C1.43238664,6.90517884 1.66130516,7 1.9,7 L2,7 L2,12.07 C1.99998574,13.1320165 2.85799775,13.9944973 3.92,14 L12.08,14 C13.1420022,13.9944973 14.0000143,13.1320165 14,12.07 L14,7 L14.1,7 C14.5970563,7 15,6.59705627 15,6.1 L15,4 C15.0008596,2.92593292 14.1532078,2.04296235 13.08,2 L13.08,2 Z M2.8,4 C2.7844646,3.95746674 2.78897457,3.91019175 2.81227178,3.87136307 C2.83556899,3.83253439 2.87515988,3.80630795 2.92,3.8 L13.08,3.8 C13.1248401,3.80630795 13.164431,3.83253439 13.1877282,3.87136307 C13.2110254,3.91019175 13.2155354,3.95746674 13.2,4 L13.2,5.2 L2.8,5.2 L2.8,4 Z M12.2,12.1 C12.2028033,12.13352 12.1914092,12.1666777 12.1685939,12.1913943 C12.1457785,12.216111 12.1136368,12.230117 12.08,12.23 L3.92,12.23 C3.88636316,12.230117 3.85422147,12.216111 3.83140613,12.1913943 C3.8085908,12.1666777 3.79719671,12.13352 3.8,12.1 L3.8,7 L12.2,7 L12.2,12.07 L12.2,12.1 Z" id="Shape"></path>
            <path d="M7,10 L9,10 C9.55228475,10 10,9.55228475 10,9 C10,8.44771525 9.55228475,8 9,8 L7,8 C6.44771525,8 6,8.44771525 6,9 C6,9.55228475 6.44771525,10 7,10 Z" id="Shape"></path>
        </g>
    </g>
</svg>