<?xml version="1.0" encoding="UTF-8"?>
<svg width="16px" height="15.90625px" viewBox="0 0 16 15.90625" version="1.1" xmlns="http://www.w3.org/2000/svg" xmlns:xlink="http://www.w3.org/1999/xlink">
    <!-- Generator: sketchtool 49.1 (51147) - http://www.bohemiancoding.com/sketch -->
    <title>briefcase-16</title>
    <desc>Created with sketchtool.</desc>
    <defs></defs>
    <g id="Icons" stroke="none" stroke-width="1" fill="none" fill-rule="evenodd">
        <g id="briefcase-16" fill="#000000" fill-rule="nonzero">
            <path d="M2.9,14 L13.1,14 C14.149341,14 15,13.149341 15,12.1 L15,4.9 C15,3.85065898 14.149341,3 13.1,3 L11.87,3 C11.4098818,1.23955966 9.81957658,0.0114840582 8,0.0114840582 C6.18042342,0.0114840582 4.59011817,1.23955966 4.13,3 L2.9,3 C1.85065898,3 1,3.85065898 1,4.9 L1,12.1 C1,13.149341 1.85065898,14 2.9,14 L2.9,14 Z M13.1,12.2 L2.9,12.2 C2.84477153,12.2 2.8,12.1552285 2.8,12.1 L2.8,8 L13.2,8 L13.2,12.1 C13.2,12.1552285 13.1552285,12.2 13.1,12.2 L13.1,12.2 Z M8,1.75 C8.85255761,1.74393125 9.63186239,2.23099674 10,3 L6,3 C6.36813761,2.23099674 7.14744239,1.74393125 8,1.75 Z M2.9,4.75 L13.1,4.75 C13.1552285,4.75 13.2,4.79477153 13.2,4.85 L13.2,6.2 L2.8,6.2 L2.8,4.9 C2.8,4.84477153 2.84477153,4.8 2.9,4.8 L2.9,4.75 Z" id="Shape"></path>
            <path d="M9,9 L7,9 C6.44771525,9 6,9.44771525 6,10 C6,10.5522847 6.44771525,11 7,11 L9,11 C9.55228475,11 10,10.5522847 10,10 C10,9.44771525 9.55228475,9 9,9 Z" id="Shape"></path>
        </g>
    </g>
</svg>