<?xml version="1.0" encoding="UTF-8"?>
<svg width="16px" height="16px" viewBox="0 0 16 16" version="1.1" xmlns="http://www.w3.org/2000/svg" xmlns:xlink="http://www.w3.org/1999/xlink">
    <!-- Generator: sketchtool 49.1 (51147) - http://www.bohemiancoding.com/sketch -->
    <title>calendar-16</title>
    <desc>Created with sketchtool.</desc>
    <defs></defs>
    <g id="Icons" stroke="none" stroke-width="1" fill="none" fill-rule="evenodd">
        <g id="calendar-16" fill="#000000" fill-rule="nonzero">
            <path d="M3.9,15 L12.1,15 C13.7016258,15 15,13.7016258 15,12.1 L15,5.9 C15,4.29837423 13.7016258,3 12.1,3 L11.8,3 L11.8,2 C11.8,1.50294373 11.3970563,1.1 10.9,1.1 C10.4029437,1.1 10,1.50294373 10,2 L10,3 L6,3 L6,2 C6,1.50294373 5.59705627,1.1 5.1,1.1 C4.60294373,1.1 4.2,1.50294373 4.2,2 L4.2,3 L3.9,3 C2.29837423,3 1,4.29837423 1,5.9 L1,12.1 C1,13.7016258 2.29837423,15 3.9,15 Z M12.1,13.2 L3.9,13.2 C3.29248678,13.2 2.8,12.7075132 2.8,12.1 L2.8,9 L13.2,9 L13.2,12.1 C13.2,12.7075132 12.7075132,13.2 12.1,13.2 L12.1,13.2 Z M3.9,4.8 L4.2,4.8 L4.2,5 C4.2,5.49705627 4.60294373,5.9 5.1,5.9 C5.59705627,5.9 6,5.49705627 6,5 L6,4.8 L10,4.8 L10,5 C10,5.49705627 10.4029437,5.9 10.9,5.9 C11.3970563,5.9 11.8,5.49705627 11.8,5 L11.8,4.8 L12.1,4.8 C12.3917381,4.8 12.6715274,4.91589252 12.8778175,5.12218254 C13.0841075,5.32847256 13.2,5.60826186 13.2,5.9 L13.2,7.2 L2.8,7.2 L2.8,5.9 C2.8,5.60826186 2.91589252,5.32847256 3.12218254,5.12218254 C3.32847256,4.91589252 3.60826186,4.8 3.9,4.8 L3.9,4.8 Z" id="Shape"></path>
            <rect id="Rectangle-path" x="4" y="10" width="2" height="2"></rect>
            <rect id="Rectangle-path" x="7" y="10" width="2" height="2"></rect>
            <rect id="Rectangle-path" x="10" y="10" width="2" height="2"></rect>
        </g>
    </g>
</svg>