<?xml version="1.0" encoding="UTF-8"?>
<svg width="16px" height="16px" viewBox="0 0 16 16" version="1.1" xmlns="http://www.w3.org/2000/svg" xmlns:xlink="http://www.w3.org/1999/xlink">
    <!-- Generator: sketchtool 49.1 (51147) - http://www.bohemiancoding.com/sketch -->
    <title>camera-plus-16</title>
    <desc>Created with sketchtool.</desc>
    <defs></defs>
    <g id="Icons" stroke="none" stroke-width="1" fill="none" fill-rule="evenodd">
        <g id="camera-plus-16" fill="#000000" fill-rule="nonzero">
            <path d="M15,12.1 L13.9,12.1 L13.9,11 C13.9,10.5029437 13.4970563,10.1 13,10.1 C12.5029437,10.1 12.1,10.5029437 12.1,11 L12.1,12.1 L11,12.1 C10.5029437,12.1 10.1,12.5029437 10.1,13 C10.1,13.4970563 10.5029437,13.9 11,13.9 L12.1,13.9 L12.1,15 C12.1,15.4970563 12.5029437,15.9 13,15.9 C13.4970563,15.9 13.9,15.4970563 13.9,15 L13.9,13.9 L15,13.9 C15.4970563,13.9 15.9,13.4970563 15.9,13 C15.9,12.5029437 15.4970563,12.1 15,12.1 L15,12.1 Z" id="Shape"></path>
            <path d="M12.5,2.5 C11.6715729,2.5 11,3.17157288 11,4 L10.1,4 L10.1,2.9 C10.1,1.85065898 9.24934102,1 8.2,1 L6,1 C4.95065898,1 4.1,1.85065898 4.1,2.9 L4.1,4 L2.9,4 C1.85065898,4 1,4.85065898 1,5.9 L1,12.1 C1,13.149341 1.85065898,14 2.9,14 L7,14 C7.49705627,14 7.9,13.5970563 7.9,13.1 C7.9,12.6029437 7.49705627,12.2 7,12.2 L2.9,12.2 C2.84477153,12.2 2.8,12.1552285 2.8,12.1 L2.8,5.9 C2.8,5.84477153 2.84477153,5.8 2.9,5.8 L13.1,5.8 C13.1552285,5.8 13.2,5.84477153 13.2,5.9 L13.2,8 C13.2,8.49705627 13.6029437,8.9 14.1,8.9 C14.5970563,8.9 15,8.49705627 15,8 L15,5.9 C15.0046986,5.19769817 14.6195837,4.55070524 14,4.22 C14.0755744,3.78372253 13.9504727,3.33662098 13.6594532,3.0029187 C13.3684338,2.66921642 12.9425022,2.48446645 12.5,2.5 L12.5,2.5 Z M5.9,2.9 C5.9,2.84477153 5.94477153,2.8 6,2.8 L8.2,2.8 C8.25522847,2.8 8.3,2.84477153 8.3,2.9 L8.3,4 L5.9,4 L5.9,2.9 Z" id="Shape"></path>
            <path d="M4.4,9 C4.4,10.4359403 5.56405965,11.6 7,11.6 C8.43594035,11.6 9.6,10.4359403 9.6,9 C9.6,7.56405965 8.43594035,6.4 7,6.4 C5.56405965,6.4 4.4,7.56405965 4.4,9 Z M8,9 C8,9.55228475 7.55228475,10 7,10 C6.44771525,10 6,9.55228475 6,9 C6,8.44771525 6.44771525,8 7,8 C7.55228475,8 8,8.44771525 8,9 Z" id="Shape"></path>
        </g>
    </g>
</svg>