<?xml version="1.0" encoding="UTF-8"?>
<svg width="16px" height="16px" viewBox="0 0 16 16" version="1.1" xmlns="http://www.w3.org/2000/svg" xmlns:xlink="http://www.w3.org/1999/xlink">
    <!-- Generator: sketchtool 49.1 (51147) - http://www.bohemiancoding.com/sketch -->
    <title>camera-cross-16</title>
    <desc>Created with sketchtool.</desc>
    <defs></defs>
    <g id="Icons" stroke="none" stroke-width="1" fill="none" fill-rule="evenodd">
        <g id="camera-cross-16" fill="#000000" fill-rule="nonzero">
            <path d="M15.74,10.37 C15.3888499,10.0203855 14.8211501,10.0203855 14.47,10.37 L13.06,11.74 L11.69,10.33 C11.3420606,9.97377634 10.7712237,9.96706061 10.415,10.315 C10.0587763,10.6629394 10.0520606,11.2337763 10.4,11.59 L11.78,13 L10.37,14.37 C10.0137763,14.7179394 10.0070606,15.2887763 10.355,15.645 C10.7029394,16.0012237 11.2737763,16.0079394 11.63,15.66 L13,14.27 L14.37,15.68 C14.7179394,16.0362237 15.2887763,16.0429394 15.645,15.695 C16.0012237,15.3470606 16.0079394,14.7762237 15.66,14.42 L14.32,13 L15.73,11.63 C16.0758211,11.2827696 16.0802663,10.7226756 15.74,10.37 L15.74,10.37 Z" id="Shape"></path>
            <path d="M2.9,14 L7,14 C7.49705627,14 7.9,13.5970563 7.9,13.1 C7.9,12.6029437 7.49705627,12.2 7,12.2 L2.9,12.2 C2.84477153,12.2 2.8,12.1552285 2.8,12.1 L2.8,5.9 C2.8,5.84477153 2.84477153,5.8 2.9,5.8 L13.1,5.8 C13.1552285,5.8 13.2,5.84477153 13.2,5.9 L13.2,8 C13.2,8.49705627 13.6029437,8.9 14.1,8.9 C14.5970563,8.9 15,8.49705627 15,8 L15,5.9 C15.0046986,5.19769817 14.6195837,4.55070524 14,4.22 C14.0392992,3.68410161 13.7897148,3.16794519 13.3452628,2.86596187 C12.9008108,2.56397855 12.329014,2.52204679 11.8452628,2.75596187 C11.3615116,2.98987695 11.0392992,3.46410161 11,4 L10.1,4 L10.1,2.9 C10.1,1.85065898 9.24934102,1 8.2,1 L6,1 C4.95065898,1 4.1,1.85065898 4.1,2.9 L4.1,4 L2.9,4 C1.85065898,4 1,4.85065898 1,5.9 L1,12.1 C1,13.149341 1.85065898,14 2.9,14 L2.9,14 Z M5.9,2.9 C5.9,2.87347835 5.91053568,2.84804296 5.92928932,2.82928932 C5.94804296,2.81053568 5.97347835,2.8 6,2.8 L8.2,2.8 C8.25522847,2.8 8.3,2.84477153 8.3,2.9 L8.3,4 L5.9,4 L5.9,2.9 L5.9,2.9 Z" id="Shape"></path>
            <path d="M7,6.4 C5.94839816,6.4 5.00034382,7.03346966 4.59791322,8.00502308 C4.19548262,8.97657649 4.41792758,10.0948828 5.16152237,10.8384776 C5.90511716,11.5820724 7.02342351,11.8045174 7.99497692,11.4020868 C8.96653034,10.9996562 9.6,10.0516018 9.6,9 C9.6,7.56405965 8.43594035,6.4 7,6.4 Z M7,10 C6.44771525,10 6,9.55228475 6,9 C6,8.44771525 6.44771525,8 7,8 C7.55228475,8 8,8.44771525 8,9 C8,9.55228475 7.55228475,10 7,10 Z" id="Shape"></path>
        </g>
    </g>
</svg>