<?xml version="1.0" encoding="UTF-8"?>
<svg width="16px" height="16px" viewBox="0 0 16 16" version="1.1" xmlns="http://www.w3.org/2000/svg" xmlns:xlink="http://www.w3.org/1999/xlink">
    <!-- Generator: sketchtool 49.1 (51147) - http://www.bohemiancoding.com/sketch -->
    <title>cart-cross-16</title>
    <desc>Created with sketchtool.</desc>
    <defs></defs>
    <g id="Icons" stroke="none" stroke-width="1" fill="none" fill-rule="evenodd">
        <g id="cart-cross-16" fill="#000000" fill-rule="nonzero">
            <path d="M15.25,2 C14.7723414,1.86526663 14.275765,2.14263362 14.14,2.62 L13.14,6.02 C12.7069137,7.2479409 11.5884907,8.10343635 10.29,8.2 L5.09,8.2 L3.88,2.8 C3.6048803,1.42251154 2.51322144,0.354670696 1.13,0.11 C0.897768844,0.0757753689 0.661489062,0.135752907 0.473697458,0.27659661 C0.285905853,0.417440313 0.162169078,0.627475193 0.13,0.86 C0.0747418372,1.33621978 0.398428491,1.77363418 0.87,1.86 C1.52207305,2.0079992 2.01762095,2.53922654 2.12,3.2 L3.8,10.7 C4.07095241,12.0370954 5.24572819,12.9986557 6.61,13 L13,13 C13.4970563,13 13.9,12.5970563 13.9,12.1 C13.9,11.6029437 13.4970563,11.2 13,11.2 L6.61,11.2 C6.11245768,11.1752159 5.69784128,10.8103535 5.61,10.32 L5.49,10 L10.29,10 C12.3612545,9.91633868 14.1739068,8.58257487 14.87,6.63 L15.87,3.14 C15.9440069,2.90658869 15.9197149,2.65309912 15.8027263,2.43799096 C15.6857376,2.22288281 15.4861528,2.06472795 15.25,2 L15.25,2 Z" id="Shape"></path>
            <path d="M5,16 C5.49705627,16 5.9,15.5970563 5.9,15.1 C5.9,14.6029437 5.49705627,14.2 5,14.2 L4,14.2 C3.50294373,14.2 3.1,14.6029437 3.1,15.1 C3.1,15.5970563 3.50294373,16 4,16 L5,16 Z" id="Shape"></path>
            <path d="M13,16 C13.4970563,16 13.9,15.5970563 13.9,15.1 C13.9,14.6029437 13.4970563,14.2 13,14.2 L12,14.2 C11.5029437,14.2 11.1,14.6029437 11.1,15.1 C11.1,15.5970563 11.5029437,16 12,16 L13,16 Z" id="Shape"></path>
            <path d="M10.57,1.43 C10.257738,1.11849336 9.75226199,1.11849336 9.44,1.43 L8.5,2.37 L7.57,1.43 C7.25519769,1.1151977 6.74480231,1.11519771 6.43000001,1.43000001 C6.11519771,1.74480231 6.1151977,2.25519769 6.43,2.57 L7.37,3.5 L6.44,4.43 C6.12519771,4.74204089 6.12295914,5.25019768 6.43500002,5.56499998 C6.7470409,5.87980228 7.25519769,5.88204087 7.57,5.57 L8.5,4.63 L9.43,5.57 C9.628222,5.78876804 9.93081499,5.88059057 10.2171854,5.80887322 C10.5035559,5.73715587 10.7271559,5.5135559 10.7988732,5.22718544 C10.8705906,4.94081499 10.778768,4.638222 10.56,4.44 L9.63,3.5 L10.56,2.57 C10.714013,2.42097767 10.8017956,2.21639277 10.8036754,2.00209364 C10.8055552,1.78779452 10.721375,1.58170118 10.57,1.43 L10.57,1.43 Z" id="Shape"></path>
        </g>
    </g>
</svg>