<?xml version="1.0" encoding="UTF-8"?>
<svg width="16px" height="16px" viewBox="0 0 16 16" version="1.1" xmlns="http://www.w3.org/2000/svg" xmlns:xlink="http://www.w3.org/1999/xlink">
    <!-- Generator: sketchtool 44.1 (41455) - http://www.bohemiancoding.com/sketch -->
    <title>cart-delivery-16</title>
    <desc>Created with sketchtool.</desc>
    <defs></defs>
    <g id="Symbols" stroke="none" stroke-width="1" fill="none" fill-rule="evenodd">
        <g id="cart-delivery-16" fill-rule="nonzero" fill="#000000">
            <path d="M15,2 L6.7,2 C6.27413185,0.873415647 5.20421562,0.120511632 4,0.1 C3.50294373,0.1 3.1,0.502943725 3.1,1 C3.1,1.49705627 3.50294373,1.9 4,1.9 C4.59262952,1.93451245 5.06548755,2.40737048 5.1,3 L5.1,10.52 C5.09398492,10.5798492 5.09398492,10.6401508 5.1,10.7 C5.42216548,12.0426973 6.6192162,12.9920823 8,13 L12,13 C12.4970563,13 12.9,12.5970563 12.9,12.1 C12.9,11.6029437 12.4970563,11.2 12,11.2 L8,11.2 C7.50434672,11.2017113 7.06236719,10.8883076 6.9,10.42 L6.9,10 L10.29,10 C12.2954595,10.0057907 14.1002866,8.78406152 14.84,6.92 L14.84,6.82 L15.84,3.13 C15.9101983,2.86504806 15.8558321,2.58254723 15.6923118,2.36257349 C15.5287915,2.14259976 15.2739415,2.0091312 15,2 L15,2 Z M13.15,6.3 C12.6708544,7.45526825 11.5406751,8.20608666 10.29,8.2 L6.9,8.2 L6.9,3.8 L13.83,3.8 L13.15,6.3 Z" id="Shape"></path>
            <path d="M5,16 L6,16 C6.49705627,16 6.9,15.5970563 6.9,15.1 C6.9,14.6029437 6.49705627,14.2 6,14.2 L5,14.2 C4.50294373,14.2 4.1,14.6029437 4.1,15.1 C4.1,15.5970563 4.50294373,16 5,16 Z" id="Shape"></path>
            <path d="M12,16 C12.4970563,16 12.9,15.5970563 12.9,15.1 C12.9,14.6029437 12.4970563,14.2 12,14.2 L11,14.2 C10.5029437,14.2 10.1,14.6029437 10.1,15.1 C10.1,15.5970563 10.5029437,16 11,16 L12,16 Z" id="Shape"></path>
            <path d="M1,4.8 L3,4.8 C3.49705627,4.79999999 3.89999998,4.39705627 3.89999998,3.9 C3.89999998,3.40294373 3.49705627,3.00000001 3,3 L1,3 C0.502943733,3.00000001 0.100000019,3.40294373 0.100000019,3.9 C0.100000019,4.39705627 0.502943733,4.79999999 1,4.8 L1,4.8 Z" id="Shape"></path>
            <path d="M3,6.2 L2,6.2 C1.50294373,6.2 1.1,6.60294373 1.1,7.1 C1.1,7.59705627 1.50294373,8 2,8 L3,8 C3.49705627,8 3.9,7.59705627 3.9,7.1 C3.9,6.60294373 3.49705627,6.2 3,6.2 Z" id="Shape"></path>
        </g>
    </g>
</svg>