<?xml version="1.0" encoding="UTF-8"?>
<svg width="16px" height="16px" viewBox="0 0 16 16" version="1.1" xmlns="http://www.w3.org/2000/svg" xmlns:xlink="http://www.w3.org/1999/xlink">
    <!-- Generator: sketchtool 44.1 (41455) - http://www.bohemiancoding.com/sketch -->
    <title>clock-16</title>
    <desc>Created with sketchtool.</desc>
    <defs></defs>
    <g id="Symbols" stroke="none" stroke-width="1" fill="none" fill-rule="evenodd">
        <g id="clock-16" fill-rule="nonzero" fill="#000000">
            <path d="M8,1 C4.13400675,1 1,4.13400675 1,8 C1,11.8659932 4.13400675,15 8,15 C11.8659932,15 15,11.8659932 15,8 C15,6.14348457 14.2625021,4.36300718 12.9497475,3.05025253 C11.6369928,1.73749788 9.85651543,1 8,1 L8,1 Z M8.9,13.11 L8.9,12.5 C8.89999999,12.0029437 8.49705626,11.6 8,11.6 C7.50294374,11.6 7.10000001,12.0029437 7.1,12.5 L7.1,13.11 C4.95122373,12.7311429 3.26885709,11.0487763 2.89,8.9 L3.5,8.9 C3.82153904,8.90000001 4.11865336,8.72846098 4.27942289,8.45000001 C4.44019241,8.17153903 4.44019241,7.82846097 4.27942289,7.54999999 C4.11865336,7.27153902 3.82153904,7.09999999 3.5,7.1 L2.89,7.1 C3.26885709,4.95122373 4.95122373,3.26885709 7.1,2.89 L7.1,3.5 C7.1,3.99705627 7.50294373,4.4 8,4.4 C8.49705627,4.4 8.9,3.99705627 8.9,3.5 L8.9,2.89 C11.0487763,3.26885709 12.7311429,4.95122373 13.11,7.1 L12.5,7.1 C12.0029437,7.1 11.6,7.50294373 11.6,8 C11.6,8.49705627 12.0029437,8.9 12.5,8.9 L13.11,8.9 C12.7311429,11.0487763 11.0487763,12.7311429 8.9,13.11 Z" id="Shape"></path>
            <path d="M10,7.1 L8.9,7.1 L8.9,6 C8.9,5.50294373 8.49705627,5.1 8,5.1 C7.50294373,5.1 7.1,5.50294373 7.1,6 L7.1,8 C7.1,8.49705627 7.50294373,8.9 8,8.9 L10,8.9 C10.4970563,8.9 10.9,8.49705627 10.9,8 C10.9,7.50294373 10.4970563,7.1 10,7.1 L10,7.1 Z" id="Shape"></path>
        </g>
    </g>
</svg>