<?xml version="1.0" encoding="UTF-8"?>
<svg width="16px" height="16px" viewBox="0 0 16 16" version="1.1" xmlns="http://www.w3.org/2000/svg" xmlns:xlink="http://www.w3.org/1999/xlink">
    <!-- Generator: sketchtool 49.1 (51147) - http://www.bohemiancoding.com/sketch -->
    <title>cloud-16</title>
    <desc>Created with sketchtool.</desc>
    <defs></defs>
    <g id="Icons" stroke="none" stroke-width="1" fill="none" fill-rule="evenodd">
        <g id="cloud-16" fill="#000000" fill-rule="nonzero">
            <path d="M12.06,5.07 C11.5227919,5.07110191 10.991635,5.18346202 10.5,5.4 C9.67588582,3.34060514 7.67815721,1.99293107 5.46,2 C2.42243391,2.00000005 -0.039999918,4.46243391 -0.039999918,7.5 C-0.039999918,10.5375661 2.42243391,13 5.46,13 L12.05,13 C14.0378635,12.7378529 15.524501,11.0444509 15.5270294,9.03937835 C15.5295579,7.03430576 14.047196,5.33715978 12.06,5.07 Z M12.06,11.2 L5.46,11.2 C3.41654646,11.2 1.76000008,9.54345354 1.76000008,7.5 C1.76000008,5.45654646 3.41654646,3.80000004 5.46,3.8 C7.2988862,3.80167163 8.84771772,5.17459707 9.07,7 C9.1194536,7.33210792 9.34966823,7.60907135 9.66714055,7.71839957 C9.98461286,7.82772778 10.3365461,7.75123911 10.58,7.52 C10.9737804,7.13713522 11.5007784,6.922034 12.05,6.92 C13.0954665,7.09314109 13.8629708,7.99606627 13.8654467,9.05576998 C13.8679227,10.1154737 13.104646,11.0219755 12.06,11.2 Z" id="Shape"></path>
        </g>
    </g>
</svg>