<?xml version="1.0" encoding="UTF-8"?>
<svg width="16px" height="16px" viewBox="0 0 16 16" version="1.1" xmlns="http://www.w3.org/2000/svg" xmlns:xlink="http://www.w3.org/1999/xlink">
    <!-- Generator: sketchtool 44.1 (41455) - http://www.bohemiancoding.com/sketch -->
    <title>code-16</title>
    <desc>Created with sketchtool.</desc>
    <defs></defs>
    <g id="Symbols" stroke="none" stroke-width="1" fill="none" fill-rule="evenodd">
        <g id="code-16" fill-rule="nonzero" fill="#000000">
            <path d="M4,11.9 C4.36626411,11.9029538 4.6977827,11.6836473 4.83834613,11.3454166 C4.97890956,11.0071858 4.90047486,10.6175092 4.64,10.36 L2.27,8 L4.64,5.64 C4.86864998,5.41135002 4.95794796,5.07808542 4.87425626,4.76574374 C4.79056456,4.45340206 4.54659794,4.20943544 4.23425626,4.12574374 C3.92191458,4.04205204 3.58864998,4.13135002 3.36,4.36 L0.36,7.36 C0.0103855335,7.7111501 0.0103855335,8.2788499 0.36,8.63 L3.36,11.63 C3.52860761,11.8020164 3.75913151,11.8992687 4,11.9 Z" id="Shape"></path>
            <path d="M11.36,11.64 C11.7111501,11.9896145 12.2788499,11.9896145 12.63,11.64 L15.63,8.64 C15.9796145,8.2888499 15.9796145,7.7211501 15.63,7.37 L12.63,4.37 C12.2734323,4.0578032 11.7358521,4.0756172 11.4007346,4.41073465 C11.0656172,4.74585209 11.0478032,5.28343225 11.36,5.64 L13.73,8 L11.37,10.36 C11.1976739,10.5277275 11.0996387,10.7574434 11.0977601,10.9979122 C11.0958814,11.238381 11.1903156,11.4696006 11.36,11.64 L11.36,11.64 Z" id="Shape"></path>
            <path d="M6.82,13.88 L7,13.9 C7.42699023,13.8991381 7.79460265,13.5983643 7.88,13.18 L9.88,3.18 C9.97181562,2.85427743 9.87315131,2.50458197 9.62462736,2.27488402 C9.37610342,2.04518607 9.01973401,1.97431715 8.7022372,2.09145416 C8.3847404,2.20859117 8.15979055,2.49393153 8.12,2.83 L6.12,12.83 C6.02777831,13.3123634 6.3392716,13.7796033 6.82,13.88 L6.82,13.88 Z" id="Shape"></path>
        </g>
    </g>
</svg>