<?xml version="1.0" encoding="UTF-8"?>
<svg width="16px" height="16px" viewBox="0 0 16 16" version="1.1" xmlns="http://www.w3.org/2000/svg" xmlns:xlink="http://www.w3.org/1999/xlink">
    <!-- Generator: sketchtool 49.1 (51147) - http://www.bohemiancoding.com/sketch -->
    <title>copy-16</title>
    <desc>Created with sketchtool.</desc>
    <defs></defs>
    <g id="Icons" stroke="none" stroke-width="1" fill="none" fill-rule="evenodd">
        <g id="copy-16" fill="#000000" fill-rule="nonzero">
            <path d="M5.9,15 L12.1,15 C13.149341,15 14,14.149341 14,13.1 L14,4.9 C14,3.85065898 13.149341,3 12.1,3 L5.9,3 C4.85065898,3 4,3.85065898 4,4.9 L4,13.1 C4,13.6039113 4.200178,14.0871838 4.55649712,14.4435029 C4.91281623,14.799822 5.39608867,15 5.9,15 L5.9,15 Z M5.8,4.9 C5.8,4.84477153 5.84477153,4.8 5.9,4.8 L12.1,4.8 C12.1552285,4.8 12.2,4.84477153 12.2,4.9 L12.2,13.1 C12.2,13.1552285 12.1552285,13.2 12.1,13.2 L5.9,13.2 C5.84477153,13.2 5.8,13.1552285 5.8,13.1 L5.8,4.9 L5.8,4.9 Z" id="Shape"></path>
            <path d="M1.9,11 C2.39705627,11 2.8,10.5970563 2.8,10.1 L2.8,1.9 C2.8,1.84477153 2.84477153,1.8 2.9,1.8 L9.1,1.8 C9.59705627,1.8 10,1.39705627 10,0.9 C10,0.402943725 9.59705627,3.04359188e-17 9.1,0 L2.9,0 C1.85065898,-6.42536064e-17 1,0.850658975 1,1.9 L1,10.1 C1,10.3386948 1.09482116,10.5676134 1.2636039,10.7363961 C1.43238664,10.9051788 1.66130516,11 1.9,11 L1.9,11 Z" id="Shape"></path>
        </g>
    </g>
</svg>