<?xml version="1.0" encoding="UTF-8"?>
<svg width="16px" height="16px" viewBox="0 0 16 16" version="1.1" xmlns="http://www.w3.org/2000/svg" xmlns:xlink="http://www.w3.org/1999/xlink">
    <!-- Generator: sketchtool 49.1 (51147) - http://www.bohemiancoding.com/sketch -->
    <title>credit-card-plus-16</title>
    <desc>Created with sketchtool.</desc>
    <defs></defs>
    <g id="Icons" stroke="none" stroke-width="1" fill="none" fill-rule="evenodd">
        <g id="credit-card-plus-16" fill="#000000" fill-rule="nonzero">
            <path d="M11,3.9 L12.1,3.9 L12.1,5 C12.1,5.49705627 12.5029437,5.9 13,5.9 C13.4970563,5.9 13.9,5.49705627 13.9,5 L13.9,3.9 L15,3.9 C15.4970563,3.9 15.9,3.49705627 15.9,3 C15.9,2.50294373 15.4970563,2.1 15,2.1 L13.9,2.1 L13.9,1 C13.9,0.502943725 13.4970563,0.1 13,0.1 C12.5029437,0.1 12.1,0.502943725 12.1,1 L12.1,2.1 L11,2.1 C10.5029437,2.10000001 10.1,2.50294373 10.1,3 C10.1,3.49705627 10.5029437,3.89999999 11,3.9 L11,3.9 Z" id="Shape"></path>
            <path d="M2.9,13 L13.1,13 C14.149341,13 15,12.149341 15,11.1 L15,6 L2.8,6 L2.8,4.9 C2.8,4.84477153 2.84477153,4.8 2.9,4.8 L7.9,4.8 C8.39705627,4.8 8.8,4.39705627 8.8,3.9 C8.8,3.40294373 8.39705627,3 7.9,3 L2.9,3 C1.85065898,3 1,3.85065898 1,4.9 L1,11.1 C1,11.6039113 1.200178,12.0871838 1.55649712,12.4435029 C1.91281623,12.799822 2.39608867,13 2.9,13 L2.9,13 Z M13.2,8 L13.2,11.1 C13.2,11.1552285 13.1552285,11.2 13.1,11.2 L2.9,11.2 C2.84477153,11.2 2.8,11.1552285 2.8,11.1 L2.8,8 L13.2,8 Z" id="Shape"></path>
        </g>
    </g>
</svg>