<?xml version="1.0" encoding="UTF-8"?>
<svg width="16px" height="16px" viewBox="0 0 16 16" version="1.1" xmlns="http://www.w3.org/2000/svg" xmlns:xlink="http://www.w3.org/1999/xlink">
    <!-- Generator: sketchtool 44.1 (41455) - http://www.bohemiancoding.com/sketch -->
    <title>credit-card-16</title>
    <desc>Created with sketchtool.</desc>
    <defs></defs>
    <g id="Symbols" stroke="none" stroke-width="1" fill="none" fill-rule="evenodd">
        <g id="credit-card-16" fill-rule="nonzero" fill="#000000">
            <path d="M2.9,13 L13.1,13 C14.149341,13 15,12.149341 15,11.1 L15,4.9 C15,3.85065898 14.149341,3 13.1,3 L2.9,3 C1.85065898,3 1,3.85065898 1,4.9 L1,11.1 C1,12.149341 1.85065898,13 2.9,13 L2.9,13 Z M13.1,11.2 L2.9,11.2 C2.84477153,11.2 2.8,11.1552285 2.8,11.1 L2.8,8 L13.2,8 L13.2,11.1 C13.2,11.1552285 13.1552285,11.2 13.1,11.2 L13.1,11.2 Z M2.9,4.8 L13.1,4.8 C13.1552285,4.8 13.2,4.84477153 13.2,4.9 L13.2,6 L2.8,6 L2.8,4.9 C2.8,4.84477153 2.84477153,4.8 2.9,4.8 L2.9,4.8 Z" id="Shape"></path>
        </g>
    </g>
</svg>