<?xml version="1.0" encoding="UTF-8"?>
<svg width="16px" height="16px" viewBox="0 0 16 16" version="1.1" xmlns="http://www.w3.org/2000/svg" xmlns:xlink="http://www.w3.org/1999/xlink">
    <!-- Generator: sketchtool 44.1 (41455) - http://www.bohemiancoding.com/sketch -->
    <title>device-mobile-16</title>
    <desc>Created with sketchtool.</desc>
    <defs></defs>
    <g id="Symbols" stroke="none" stroke-width="1" fill="none" fill-rule="evenodd">
        <g id="device-mobile-16" fill-rule="nonzero" fill="#000000">
            <path d="M4.9,1 C3.85065898,1 3,1.85065898 3,2.9 L3,13.1 C3,14.149341 3.85065898,15 4.9,15 L11.1,15 C12.149341,15 13,14.149341 13,13.1 L13,2.9 C13,1.85065898 12.149341,1 11.1,1 L4.9,1 L4.9,1 Z M11.1,13.2 L4.9,13.2 C4.84477153,13.2 4.8,13.1552285 4.8,13.1 L4.8,9.8 L11.2,9.8 L11.2,13.1 C11.2,13.1552285 11.1552285,13.2 11.1,13.2 L11.1,13.2 Z M11.2,2.9 L11.2,8 L4.8,8 L4.8,2.9 C4.8,2.84477153 4.84477153,2.8 4.9,2.8 L11.1,2.8 C11.1552285,2.8 11.2,2.84477153 11.2,2.9 L11.2,2.9 Z" id="Shape"></path>
            <circle id="Oval" cx="8" cy="11.5" r="1"></circle>
        </g>
    </g>
</svg>