<?xml version="1.0" encoding="UTF-8"?>
<svg width="16px" height="16px" viewBox="0 0 16 16" version="1.1" xmlns="http://www.w3.org/2000/svg" xmlns:xlink="http://www.w3.org/1999/xlink">
    <!-- Generator: sketchtool 49.1 (51147) - http://www.bohemiancoding.com/sketch -->
    <title>dimension-height-16</title>
    <desc>Created with sketchtool.</desc>
    <defs></defs>
    <g id="Icons" stroke="none" stroke-width="1" fill="none" fill-rule="evenodd">
        <g id="dimension-height-16" fill="#000000" fill-rule="nonzero">
            <path d="M11.64,10.36 C11.2888499,10.0103855 10.7211501,10.0103855 10.37,10.36 L8.9,11.83 L8.9,4.17 L10.36,5.63 C10.7165677,5.9421968 11.2541479,5.9243828 11.5892654,5.58926535 C11.9243828,5.25414791 11.9421968,4.71656775 11.63,4.36 L8,0.73 L4.36,4.36 C4.00653777,4.71346224 4.00653777,5.28653775 4.36000001,5.63999999 C4.71346225,5.99346223 5.28653776,5.99346223 5.64,5.64 L7.1,4.17 L7.1,11.82 L5.64,10.36 C5.28343225,10.0478032 4.74585209,10.0656172 4.41073465,10.4007346 C4.0756172,10.7358521 4.0578032,11.2734323 4.37,11.63 L8,15.27 L11.64,11.63 C11.9896145,11.2788499 11.9896145,10.7111501 11.64,10.36 L11.64,10.36 Z" id="Shape"></path>
        </g>
    </g>
</svg>