<?xml version="1.0" encoding="UTF-8"?>
<svg width="16px" height="16px" viewBox="0 0 16 16" version="1.1" xmlns="http://www.w3.org/2000/svg" xmlns:xlink="http://www.w3.org/1999/xlink">
    <!-- Generator: sketchtool 49.1 (51147) - http://www.bohemiancoding.com/sketch -->
    <title>dimension-ruler-16</title>
    <desc>Created with sketchtool.</desc>
    <defs></defs>
    <g id="Icons" stroke="none" stroke-width="1" fill="none" fill-rule="evenodd">
        <g id="dimension-ruler-16" fill="#000000" fill-rule="nonzero">
            <path d="M14.1,4 L1.9,4 C0.850658975,4 1.28507213e-16,4.85065898 0,5.9 L0,10.1 C-9.56837679e-16,10.6039113 0.200177997,11.0871838 0.556497116,11.4435029 C0.912816235,11.799822 1.39608867,12 1.9,12 L14.1,12 C14.6039113,12 15.0871838,11.799822 15.4435029,11.4435029 C15.799822,11.0871838 16,10.6039113 16,10.1 L16,5.9 C16,4.85065898 15.149341,4 14.1,4 L14.1,4 Z M14.2,10.1 C14.2,10.1552285 14.1552285,10.2 14.1,10.2 L1.9,10.2 C1.84477153,10.2 1.8,10.1552285 1.8,10.1 L1.8,5.9 C1.8,5.84477153 1.84477153,5.8 1.9,5.8 L5.1,5.8 L5.1,8 C5.1,8.49705627 5.50294373,8.9 6,8.9 C6.49705627,8.9 6.9,8.49705627 6.9,8 L6.9,5.8 L8.1,5.8 L8.1,7 C8.1,7.49705627 8.50294373,7.9 9,7.9 C9.49705627,7.9 9.9,7.49705627 9.9,7 L9.9,5.8 L11.1,5.8 L11.1,8 C11.1,8.49705627 11.5029437,8.9 12,8.9 C12.4970563,8.9 12.9,8.49705627 12.9,8 L12.9,5.8 L14.1,5.8 C14.1552285,5.8 14.2,5.84477153 14.2,5.9 L14.2,10.1 L14.2,10.1 Z" id="Shape"></path>
        </g>
    </g>
</svg>