<?xml version="1.0" encoding="UTF-8"?>
<svg width="16px" height="16px" viewBox="0 0 16 16" version="1.1" xmlns="http://www.w3.org/2000/svg" xmlns:xlink="http://www.w3.org/1999/xlink">
    <!-- Generator: sketchtool 49.1 (51147) - http://www.bohemiancoding.com/sketch -->
    <title>download-16</title>
    <desc>Created with sketchtool.</desc>
    <defs></defs>
    <g id="Icons" stroke="none" stroke-width="1" fill="none" fill-rule="evenodd">
        <g id="download-16" fill="#000000" fill-rule="nonzero">
            <path d="M7,8.1 C6.50294373,8.1 6.1,8.50294373 6.1,9 L6.1,11.83 L5.64,11.37 C5.28343225,11.0578032 4.74585209,11.0756172 4.41073465,11.4107346 C4.0756172,11.7458521 4.0578032,12.2834323 4.37,12.64 L7,15.27 L9.64,12.63 C9.9521968,12.2734323 9.9343828,11.7358521 9.59926535,11.4007346 C9.26414791,11.0656172 8.72656775,11.0478032 8.37,11.36 L7.91,11.82 L7.91,9 C7.91001484,8.7595624 7.8138222,8.52911527 7.64287045,8.36004211 C7.47191869,8.19096894 7.24042276,8.09732847 7,8.1 L7,8.1 Z" id="Shape"></path>
            <path d="M12.06,5.07 C11.5227919,5.07110191 10.991635,5.18346202 10.5,5.4 C9.67588582,3.34060514 7.67815721,1.99293107 5.46,2 C3.32046357,2.01820301 1.38490713,3.27336197 0.495493732,5.21935562 C-0.393919665,7.16534926 -0.0763608233,9.45029109 1.31,11.08 C1.51900037,11.3247269 1.84268494,11.4393636 2.15912486,11.3807274 C2.47556478,11.3220912 2.73668531,11.0990905 2.84412486,10.7957274 C2.95156441,10.4923643 2.88900037,10.1547269 2.68,9.91 C1.75049265,8.81453719 1.53700478,7.28089683 2.13198705,5.97321997 C2.72696933,4.66554311 4.023454,3.8189279 5.46,3.8 C7.2988862,3.80167163 8.84771772,5.17459707 9.07,7 C9.1194536,7.33210792 9.34966823,7.60907135 9.66714055,7.71839957 C9.98461286,7.82772778 10.3365461,7.75123911 10.58,7.52 C10.9737804,7.13713522 11.5007784,6.922034 12.05,6.92 C13.1886856,6.99743289 14.0727757,7.94368468 14.0727757,9.085 C14.0727757,10.2263153 13.1886856,11.1725671 12.05,11.25 C11.5529437,11.25 11.15,11.6529437 11.15,12.15 C11.15,12.6470563 11.5529437,13.05 12.05,13.05 C14.1444052,12.9042857 15.7697445,11.1641247 15.7723754,9.06465837 C15.7750063,6.96519201 14.1540334,5.220963 12.06,5.07 Z" id="Shape"></path>
        </g>
    </g>
</svg>