<?xml version="1.0" encoding="UTF-8"?>
<svg width="16px" height="16px" viewBox="0 0 16 16" version="1.1" xmlns="http://www.w3.org/2000/svg" xmlns:xlink="http://www.w3.org/1999/xlink">
    <!-- Generator: sketchtool 49.1 (51147) - http://www.bohemiancoding.com/sketch -->
    <title>edit-16</title>
    <desc>Created with sketchtool.</desc>
    <defs></defs>
    <g id="Icons" stroke="none" stroke-width="1" fill="none" fill-rule="evenodd">
        <g id="edit-16" fill="#000000" fill-rule="nonzero">
            <path d="M14.33,4 C14.3202628,3.38863909 14.0685382,2.80607653 13.63,2.38 C13.2031506,1.93534606 12.6162978,1.67972303 12,1.67 L12,1.67 C11.3851571,1.67709426 10.7985145,1.92902667 10.37,2.37 L2.37,10.37 L2.37,10.37 C2.33569286,10.413753 2.30556115,10.4606246 2.28,10.51 C2.24450393,10.5600498 2.21433985,10.6136748 2.19,10.67 L2.19,10.67 L1.19,13.67 C1.08101195,13.9939555 1.164936,14.3516893 1.40662333,14.5933767 C1.64831066,14.835064 2.00604454,14.918988 2.33,14.81 L5.33,13.81 L5.33,13.81 C5.386293,13.7855953 5.43991148,13.7554349 5.49,13.72 C5.53934634,13.6943886 5.58621335,13.6642598 5.63,13.63 L5.63,13.63 L13.63,5.63 C14.0719076,5.20212899 14.3240157,4.61507731 14.33,4 Z M11.64,3.66 C11.7284282,3.54944631 11.8588305,3.4806229 12,3.47 L12,3.47 C12.2806068,3.49734245 12.5026575,3.7193932 12.53,4 C12.5271613,4.14158675 12.4655792,4.27561832 12.36,4.37 L5,11.73 L4.27,11 L11.64,3.66 Z" id="Shape"></path>
        </g>
    </g>
</svg>