<?xml version="1.0" encoding="UTF-8"?>
<svg width="16px" height="16px" viewBox="0 0 16 16" version="1.1" xmlns="http://www.w3.org/2000/svg" xmlns:xlink="http://www.w3.org/1999/xlink">
    <!-- Generator: sketchtool 49.1 (51147) - http://www.bohemiancoding.com/sketch -->
    <title>edit-crop-16</title>
    <desc>Created with sketchtool.</desc>
    <defs></defs>
    <g id="Icons" stroke="none" stroke-width="1" fill="none" fill-rule="evenodd">
        <g id="edit-crop-16" fill="#000000" fill-rule="nonzero">
            <path d="M10.46,13.36 C10.1145446,13.7167412 10.1145446,14.2832588 10.46,14.64 C10.5470204,14.7218183 10.6488368,14.786302 10.76,14.83 C10.8667418,14.8782524 10.9828785,14.9021629 11.1,14.9 C11.5057946,14.8967274 11.859207,14.6222924 11.9628779,14.2299503 C12.0665487,13.8376082 11.8948322,13.4244153 11.5436216,13.2211148 C11.192411,13.0178144 10.7485877,13.0746981 10.46,13.36 L10.46,13.36 Z" id="Shape"></path>
            <path d="M14.9,11.1 C14.9,10.6029437 14.4970563,10.2 14,10.2 L12,10.2 L12,5.9 C12,5.39608867 11.799822,4.91281623 11.4435029,4.55649712 C11.0871838,4.200178 10.6039113,4 10.1,4 L5.8,4 L5.8,2 C5.8,1.50294373 5.39705627,1.1 4.9,1.1 C4.40294373,1.1 4,1.50294373 4,2 L4,4 L2,4 C1.50294373,4 1.1,4.40294373 1.1,4.9 C1.1,5.39705627 1.50294373,5.8 2,5.8 L10.1,5.8 C10.1552285,5.8 10.2,5.84477153 10.2,5.9 L10.2,10.2 L5.9,10.2 C5.84477153,10.2 5.8,10.1552285 5.8,10.1 L5.8,8.1 C5.8,7.77846097 5.62846097,7.48134665 5.35,7.32057714 C5.07153903,7.15980762 4.72846097,7.15980762 4.45,7.32057714 C4.17153903,7.48134665 4,7.77846097 4,8.1 L4,10.1 C4,10.6039113 4.200178,11.0871838 4.55649712,11.4435029 C4.91281623,11.799822 5.39608867,12 5.9,12 L14,12 C14.4970563,12 14.9,11.5970563 14.9,11.1 L14.9,11.1 Z" id="Shape"></path>
        </g>
    </g>
</svg>