<?xml version="1.0" encoding="UTF-8"?>
<svg width="16px" height="16px" viewBox="0 0 16 16" version="1.1" xmlns="http://www.w3.org/2000/svg" xmlns:xlink="http://www.w3.org/1999/xlink">
    <!-- Generator: sketchtool 49.1 (51147) - http://www.bohemiancoding.com/sketch -->
    <title>emo-smile-16</title>
    <desc>Created with sketchtool.</desc>
    <defs></defs>
    <g id="Icons" stroke="none" stroke-width="1" fill="none" fill-rule="evenodd">
        <g id="emo-smile-16" fill="#000000" fill-rule="nonzero">
            <path d="M8,15 C11.8659932,15 15,11.8659932 15,8 C15,4.13400675 11.8659932,1 8,1 C4.13400675,1 1,4.13400675 1,8 C1,11.8659932 4.13400675,15 8,15 L8,15 Z M8,2.8 C10.8718807,2.8 13.2,5.1281193 13.2,8 C13.2,10.8718807 10.8718807,13.2 8,13.2 C5.1281193,13.2 2.8,10.8718807 2.8,8 C2.8055026,5.13040164 5.13040164,2.8055026 8,2.8 Z M6,8 C6.55228475,8 7,7.55228475 7,7 C7,6.44771525 6.55228475,6 6,6 C5.44771525,6 5,6.44771525 5,7 C5,7.55228475 5.44771525,8 6,8 Z M10,8 C10.5522847,8 11,7.55228475 11,7 C11,6.44771525 10.5522847,6 10,6 C9.44771525,6 9,6.44771525 9,7 C9,7.55228475 9.44771525,8 10,8 Z M5.36,9.37 C5.01038553,9.7211501 5.01038553,10.2888499 5.36,10.64 C6.07671225,11.303577 7.02351785,11.6622155 8,11.64 C8.97377968,11.6638515 9.91806757,11.3048067 10.63,10.64 C10.9834622,10.2892992 10.9857008,9.71846226 10.635,9.36500003 C10.2842992,9.0115378 9.71346224,9.00929921 9.36,9.36 C8.56397958,10.0041162 7.42602042,10.0041162 6.63,9.36 C6.27610323,9.01313515 5.70839079,9.01760533 5.36,9.37 Z" id="Combined-Shape"></path>
        </g>
    </g>
</svg>