<?xml version="1.0" encoding="UTF-8"?>
<svg width="16px" height="16px" viewBox="0 0 16 16" version="1.1" xmlns="http://www.w3.org/2000/svg" xmlns:xlink="http://www.w3.org/1999/xlink">
    <!-- Generator: sketchtool 44.1 (41455) - http://www.bohemiancoding.com/sketch -->
    <title>eye-16</title>
    <desc>Created with sketchtool.</desc>
    <defs></defs>
    <g id="Symbols" stroke="none" stroke-width="1" fill="none" fill-rule="evenodd">
        <g id="eye-16" fill-rule="nonzero" fill="#000000">
            <path d="M1.19,9.6 C1.07148047,9.84649338 1.07148047,10.1335066 1.19,10.38 C1.27,10.57 3.36,14.9 8,14.9 C12.64,14.9 14.74,10.55 14.82,10.36 C14.9231155,10.1275908 14.9231155,9.86240921 14.82,9.63 C14.74,9.45 12.76,5.1 8,5.1 C3.48,5.1 1.29,9.42 1.19,9.6 Z M4.53,8.27 L4.53,8.6 C4.51825441,9.7063313 5.03030241,10.7530733 5.9109054,11.4228832 C6.79150839,12.0926931 7.93696319,12.3066914 9,12 C9.32501645,11.9222656 9.58020184,11.6708441 9.66275676,11.3470185 C9.74531169,11.0231929 9.64164221,10.6802862 9.39351076,10.4564355 C9.1453793,10.2325849 8.79364453,10.1646508 8.48,10.28 C7.78197093,10.4851222 7.03078904,10.2233159 6.61146588,9.62876751 C6.19214271,9.03421912 6.19764242,8.2387403 6.62514616,7.65004662 C7.05264991,7.06135294 7.80737993,6.80995804 8.50250609,7.02471213 C9.19763226,7.23946623 9.67904479,7.87275823 9.7,8.6 C9.7,9.09705627 10.1029437,9.5 10.6,9.5 C11.0970563,9.5 11.5,9.09705627 11.5,8.6 C11.5085795,8.46013144 11.5085795,8.31986856 11.5,8.18 C12.0993374,8.69746278 12.6065348,9.31286229 13,10 C12.0103607,11.8556883 10.1021927,13.0387525 8,13.1 C5.90633832,13.0107211 4.01095343,11.8355825 3,10 C3.42363903,9.3523659 3.93900807,8.76962835 4.53,8.27 L4.53,8.27 Z" id="Shape"></path>
            <path d="M5.26,2 C4.80288556,2.18906659 4.58404163,2.71161231 4.77,3.17 L5.17,4.17 C5.29147029,4.46831678 5.56286358,4.67916921 5.88194864,4.72313123 C6.20103369,4.76709325 6.5193339,4.63748598 6.71694865,4.38313123 C6.9145634,4.12877647 6.96147031,3.78831677 6.84,3.49 L6.44,2.49 C6.34924782,2.26792967 6.17359198,2.09128139 5.95203647,1.99927953 C5.73048096,1.90727767 5.48136347,1.90753702 5.26,2 Z" id="Shape"></path>
            <path d="M2,6.61 C2.35476741,6.60967674 2.67624559,6.40097224 2.82093119,6.07704926 C2.96561679,5.75312628 2.90651185,5.37442799 2.67,5.11 L2,4.33 C1.78853845,4.07466823 1.45382635,3.9562656 1.12884787,4.02183455 C0.803869392,4.0874035 0.541252552,4.32632558 0.445337409,4.6436749 C0.349422266,4.96102421 0.435741617,5.30540821 0.67,5.54 L1.37,6.32 C1.53282618,6.49694728 1.75969113,6.60137718 2,6.61 L2,6.61 Z" id="Shape"></path>
            <path d="M9.56,2.45 L9.16,3.45 C8.98824277,3.90547177 9.20976015,4.41496174 9.66,4.6 C9.76764026,4.64542338 9.88317071,4.66920906 10,4.67 C10.3645491,4.66865961 10.692283,4.44753794 10.83,4.11 L11.23,3.11 C11.3749959,2.80642583 11.3385737,2.44732886 11.1355766,2.17905057 C10.9325795,1.91077227 10.5969041,1.77811014 10.265347,1.83512749 C9.93378994,1.89214484 9.66171504,2.12932083 9.56,2.45 L9.56,2.45 Z" id="Shape"></path>
            <path d="M15.27,4.26 C14.8998484,3.92897355 14.3315288,3.96029825 14,4.33 L13.3,5.11 C12.9905244,5.48232527 13.0310503,6.03276213 13.391718,6.35574819 C13.7523858,6.67873425 14.3039422,6.6585203 14.64,6.31 L15.34,5.53 C15.6710264,5.15984837 15.6397017,4.59152882 15.27,4.26 L15.27,4.26 Z" id="Shape"></path>
        </g>
    </g>
</svg>