<?xml version="1.0" encoding="UTF-8"?>
<svg width="27px" height="16px" viewBox="0 0 27 16" version="1.1" xmlns="http://www.w3.org/2000/svg" xmlns:xlink="http://www.w3.org/1999/xlink">
    <!-- Generator: sketchtool 49.1 (51147) - http://www.bohemiancoding.com/sketch -->
    <title>feedback-3000-16</title>
    <desc>Created with sketchtool.</desc>
    <defs></defs>
    <g id="Icons" stroke="none" stroke-width="1" fill="none" fill-rule="evenodd">
        <g id="feedback-3000-16" fill-rule="nonzero">
            <g transform="translate(0.000000, 1.000000)" id="Art">
                <g>
                    <path d="M10.11,13.41 C9.8064929,13.4079698 9.50798952,13.3324861 9.24,13.19 L7,12 L4.8,13.15 C4.16398243,13.4819116 3.39451047,13.4229159 2.81652471,12.9979264 C2.23853896,12.5729369 1.95281061,11.8560499 2.08,11.15 L2.47,8.77 L0.67,7 C0.163112022,6.50582403 -0.0232019979,5.76880172 0.187951694,5.0931099 C0.399105386,4.41741809 0.971924279,3.91762481 1.67,3.8 L4.13,3.44 L5.32,1.15 C5.63372854,0.508240469 6.28566052,0.10127949 7,0.10127949 C7.71433948,0.10127949 8.36627146,0.508240469 8.68,1.15 L9.78,3.37 L12.29,3.77 C12.9880757,3.88762481 13.5608946,4.38741809 13.7720483,5.0631099 C13.983202,5.73880172 13.796888,6.47582403 13.29,6.97 L11.56,8.7 L12,11.21 C12.0956341,11.7629859 11.9392261,12.3297818 11.5735277,12.7554625 C11.2078294,13.1811431 10.6710829,13.4211937 10.11,13.41 Z M6.11,1.55 L6.92,1.95 L5.83,4.17 C5.55151427,4.71359832 5.02510659,5.08693709 4.42,5.17 L2,5.55 L2,5.68 L3.7,7.41 C4.14155212,7.84116048 4.34337356,8.46157454 4.24,9.07 L3.82,11.52 L4.35,12.4 L3.93,11.6 L6.13,10.45 C6.67777394,10.1619515 7.33222606,10.1619515 7.88,10.45 L10.08,11.6 L11.08,11.37 L10.19,11.52 L9.76,9.07 C9.65662644,8.46157454 9.85844788,7.84116048 10.3,7.41 L12.08,5.68 L12.08,5.55 L9.58,5.19 C8.97489341,5.10693709 8.44848573,4.73359832 8.17,4.19 L7.07,1.94 L6.11,1.55 Z" id="Shape" fill="#E95219"></path>
                    <polygon id="Shape" fill="#E95219" points="7 4.12 7.93 5.99 10 6.29 8.5 7.76 8.85 9.82 7 8.85 5.15 9.82 5.5 7.76 4 6.29 6.07 5.99"></polygon>
                    <polygon id="Shape" fill="#279BE9" points="18 7 18.93 8.88 21 9.18 19.5 10.64 19.85 12.71 18 11.73 16.15 12.71 16.5 10.64 15 9.18 17.07 8.88"></polygon>
                    <polygon id="Shape" fill="#279BE9" points="24 7 24.93 8.88 27 9.18 25.5 10.64 25.85 12.71 24 11.73 22.15 12.71 22.5 10.64 21 9.18 23.07 8.88"></polygon>
                    <polygon id="Shape" fill="#279BE9" points="18 1 18.93 2.88 21 3.18 19.5 4.64 19.85 6.71 18 5.73 16.15 6.71 16.5 4.64 15 3.18 17.07 2.88"></polygon>
                    <polygon id="Shape" fill="#279BE9" points="24 1 24.93 2.88 27 3.18 25.5 4.64 25.85 6.71 24 5.73 22.15 6.71 22.5 4.64 21 3.18 23.07 2.88"></polygon>
                </g>
            </g>
        </g>
    </g>
</svg>