<?xml version="1.0" encoding="UTF-8"?>
<svg width="28px" height="16px" viewBox="0 0 28 16" version="1.1" xmlns="http://www.w3.org/2000/svg" xmlns:xlink="http://www.w3.org/1999/xlink">
    <!-- Generator: sketchtool 49.1 (51147) - http://www.bohemiancoding.com/sketch -->
    <title>feedback-5000-16</title>
    <desc>Created with sketchtool.</desc>
    <defs></defs>
    <g id="Icons" stroke="none" stroke-width="1" fill="none" fill-rule="evenodd">
        <g id="feedback-5000-16" fill-rule="nonzero">
            <g transform="translate(0.000000, 1.000000)" id="Art">
                <g>
                    <path d="M10.11,13.41 C9.80644205,13.4083685 9.50784473,13.3328611 9.24,13.19 L7,12 L4.8,13.15 C4.16398243,13.4819116 3.39451047,13.4229159 2.81652471,12.9979264 C2.23853896,12.5729369 1.95281061,11.8560499 2.08,11.15 L2.47,8.77 L0.67,7 C0.163112022,6.50582403 -0.0232019979,5.76880172 0.187951694,5.0931099 C0.399105386,4.41741809 0.971924279,3.91762481 1.67,3.8 L4.13,3.44 L5.32,1.15 C5.63905862,0.514757186 6.28913304,0.113800924 7,0.113800924 C7.71086696,0.113800924 8.36094138,0.514757186 8.68,1.15 L9.78,3.37 L12.29,3.77 C12.9880757,3.88762481 13.5608946,4.38741809 13.7720483,5.0631099 C13.983202,5.73880172 13.796888,6.47582403 13.29,6.97 L11.56,8.7 L12,11.21 C12.0956341,11.7629859 11.9392261,12.3297818 11.5735277,12.7554625 C11.2078294,13.1811431 10.6710829,13.4211937 10.11,13.41 Z M1.92,5.68 L3.7,7.41 C4.14306666,7.84021809 4.34515269,8.4614455 4.24,9.07 L3.82,11.52 L4.35,12.4 L3.93,11.6 L6.13,10.45 C6.67734248,10.1602093 7.33265752,10.1602093 7.88,10.45 L10.08,11.6 L10.19,11.52 L9.76,9.07 C9.65484731,8.4614455 9.85693334,7.84021809 10.3,7.41 L12.08,5.68 L12.08,5.55 L9.58,5.19 C8.97489341,5.10693709 8.44848573,4.73359832 8.17,4.19 L7.07,1.94 L6.13,1.54 L6.94,1.94 L5.83,4.17 C5.55151427,4.71359832 5.02510659,5.08693709 4.42,5.17 L2,5.55 L1.3,6.32 L1.92,5.68 Z" id="Shape" fill="#E95219"></path>
                    <polygon id="Shape" fill="#E95219" points="7 4.12 7.93 5.99 10 6.29 8.5 7.76 8.85 9.82 7 8.85 5.15 9.82 5.5 7.76 4 6.29 6.07 5.99"></polygon>
                    <path d="M24.11,13.41 C23.8064421,13.4083685 23.5078447,13.3328611 23.24,13.19 L21,12 L18.8,13.15 C18.1639824,13.4819116 17.3945105,13.4229159 16.8165247,12.9979264 C16.238539,12.5729369 15.9528106,11.8560499 16.08,11.15 L16.5,8.7 L14.67,7 C14.163112,6.50582403 13.976798,5.76880172 14.1879517,5.0931099 C14.3991054,4.41741809 14.9719243,3.91762481 15.67,3.8 L18.13,3.44 L19.29,1.17 C19.6090586,0.534757186 20.259133,0.133800924 20.97,0.133800924 C21.680867,0.133800924 22.3309414,0.534757186 22.65,1.17 L23.75,3.39 L26.26,3.79 C26.9580757,3.90762481 27.5308946,4.40741809 27.7420483,5.0831099 C27.953202,5.75880172 27.766888,6.49582403 27.26,6.99 L25.56,8.7 L26,11.21 C26.0956341,11.7629859 25.9392261,12.3297818 25.5735277,12.7554625 C25.2078294,13.1811431 24.6710829,13.4211937 24.11,13.41 L24.11,13.41 Z M15.92,5.68 L17.7,7.41 C18.1430667,7.84021809 18.3451527,8.4614455 18.24,9.07 L17.82,11.52 L18.35,12.4 L17.93,11.6 L20.13,10.45 C20.6773425,10.1602093 21.3326575,10.1602093 21.88,10.45 L24.08,11.6 L24.19,11.52 L23.77,9.07 C23.6648473,8.4614455 23.8669333,7.84021809 24.31,7.41 L26.09,5.68 L26.09,5.55 L23.63,5.19 C23.0248934,5.10693709 22.4984857,4.73359832 22.22,4.19 L21.12,1.97 L20.18,1.57 L20.99,1.97 L19.89,4.19 C19.6115143,4.73359832 19.0851066,5.10693709 18.48,5.19 L16,5.55 L15.33,6.32 L15.92,5.68 Z" id="Shape" fill="#279BE9"></path>
                    <polygon id="Shape" fill="#279BE9" points="21 4.12 21.93 5.99 24 6.29 22.5 7.76 22.85 9.82 21 8.85 19.15 9.82 19.5 7.76 18 6.29 20.07 5.99"></polygon>
                </g>
            </g>
        </g>
    </g>
</svg>