<?xml version="1.0" encoding="UTF-8"?>
<svg width="12px" height="16px" viewBox="0 0 12 16" version="1.1" xmlns="http://www.w3.org/2000/svg" xmlns:xlink="http://www.w3.org/1999/xlink">
    <!-- Generator: sketchtool 44.1 (41455) - http://www.bohemiancoding.com/sketch -->
    <title>feedback-50-16</title>
    <desc>Created with sketchtool.</desc>
    <defs></defs>
    <g id="Symbols" stroke="none" stroke-width="1" fill="none" fill-rule="evenodd">
        <g id="feedback-50-16" fill-rule="nonzero" fill="#E95219">
            <g transform="translate(0.000000, 2.000000)" id="Art">
                <g>
                    <polygon id="Shape" points="3 6 3.93 7.88 6 8.18 4.5 9.64 4.85 11.71 3 10.73 1.15 11.71 1.5 9.64 0 8.18 2.07 7.88"></polygon>
                    <polygon id="Shape" points="9 6 9.93 7.88 12 8.18 10.5 9.64 10.85 11.71 9 10.73 7.15 11.71 7.5 9.64 6 8.18 8.07 7.88"></polygon>
                    <polygon id="Shape" points="6 0 6.93 1.88 9 2.18 7.5 3.64 7.85 5.71 6 4.73 4.15 5.71 4.5 3.64 3 2.18 5.07 1.88"></polygon>
                </g>
            </g>
        </g>
    </g>
</svg>