<svg xmlns="http://www.w3.org/2000/svg" xmlns:xlink="http://www.w3.org/1999/xlink" width="14" height="16" viewBox="0 0 14 16"><g><g><g><use xlink:href="#path0"/></g></g></g><defs><path d="M7.522.33l1.71 3.46a.59.59 0 0 0 .44.32l3.81.55a.59.59 0 0 1 .33 1l-2.76 2.7a.59.59 0 0 0-.17.52l.65 3.8a.59.59 0 0 1-.86.62l-3.41-1.79a.59.59 0 0 0-.55 0l-3.41 1.79a.59.59 0 0 1-.86-.62l.65-3.8a.59.59 0 0 0-.17-.52L.172 5.67a.59.59 0 0 1 .33-1l3.81-.55a.59.59 0 0 0 .44-.32L6.462.33a.59.59 0 0 1 1.06 0z"/></defs></svg>