<?xml version="1.0" encoding="UTF-8"?>
<svg width="16px" height="16px" viewBox="0 0 16 16" version="1.1" xmlns="http://www.w3.org/2000/svg" xmlns:xlink="http://www.w3.org/1999/xlink">
    <!-- Generator: sketchtool 44.1 (41455) - http://www.bohemiancoding.com/sketch -->
    <title>heart-tick-16</title>
    <desc>Created with sketchtool.</desc>
    <defs></defs>
    <g id="Symbols" stroke="none" stroke-width="1" fill="none" fill-rule="evenodd">
        <g id="heart-tick-16" fill-rule="nonzero" fill="#000000">
            <path d="M14.29,8.36 L12,10.65 L11.21,9.86 C10.8132397,9.5202232 10.2218058,9.54306773 9.85243678,9.91243678 C9.48306773,10.2818058 9.4602232,10.8732397 9.8,11.27 L12,13.48 L15.71,9.77 C16.0993607,9.37787783 16.0971222,8.74436076 15.705,8.35500001 C15.3128778,7.96563927 14.6793608,7.96787784 14.29,8.36 Z" id="Shape"></path>
            <path d="M7.1,13.89 C7.39474411,14.0186156 7.73571451,13.9802172 7.99447096,13.7892691 C8.2532274,13.5983211 8.39045863,13.2838328 8.35447096,12.9642691 C8.31848329,12.6447055 8.11474411,12.3686156 7.82,12.24 C7.77,12.24 2.82,10.01 2.82,6.04 C2.76535183,5.44728579 2.94885613,4.85719351 3.33,4.4 C3.72834865,4.0043187 4.26855852,3.78463335 4.83,3.79 C5.96,3.79 6.75,4.86 7.21,5.79 C7.36372204,6.09039107 7.67256103,6.27955495 8.01,6.28 L8,6.28 C8.33525432,6.28149203 8.64354976,6.09651476 8.8,5.8 C9.27,4.9 10.06,3.8 11.18,3.8 C11.7414415,3.79463335 12.2816513,4.0143187 12.68,4.41 C12.9093004,4.65157731 13.0653441,4.95326172 13.13,5.28 C13.2685277,5.73058089 13.7312606,5.99793028 14.1908038,5.89289183 C14.6503471,5.78785338 14.9509811,5.34602009 14.88,4.88 C14.7565905,4.22568182 14.4516476,3.61926129 14,3.13 C13.2507381,2.38862421 12.2338864,1.98116237 11.18,2 C9.9156113,2.02269448 8.73642139,2.6419546 8,3.67 C7.26357861,2.6419546 6.0843887,2.02269448 4.82,2 C3.76466327,1.98381091 2.74760644,2.39496154 2,3.14 C1.30454501,3.92532801 0.945421105,4.95242238 1,6 C1,10.14 4.84,12.9 7.1,13.89 Z" id="Shape"></path>
        </g>
    </g>
</svg>