<?xml version="1.0" encoding="UTF-8"?>
<svg width="16px" height="16px" viewBox="0 0 16 16" version="1.1" xmlns="http://www.w3.org/2000/svg" xmlns:xlink="http://www.w3.org/1999/xlink">
    <!-- Generator: sketchtool 44.1 (41455) - http://www.bohemiancoding.com/sketch -->
    <title>heart-minus-16</title>
    <desc>Created with sketchtool.</desc>
    <defs></defs>
    <g id="Symbols" stroke="none" stroke-width="1" fill="none" fill-rule="evenodd">
        <g id="heart-minus-16" fill-rule="nonzero" fill="#000000">
            <path d="M14,9 L10,9 C9.50294373,9 9.1,9.40294373 9.1,9.9 C9.1,10.3970563 9.50294373,10.8 10,10.8 L14,10.8 C14.4970563,10.8 14.9,10.3970563 14.9,9.9 C14.9,9.40294373 14.4970563,9 14,9 L14,9 Z" id="Shape"></path>
            <path d="M14,3.07 C13.2637972,2.33123792 12.2629556,1.91722071 11.22,1.92 C9.93783277,1.93466504 8.74041614,2.56312283 8,3.61 C7.26786572,2.57438354 6.08798056,1.94733765 4.82,1.92 C3.7632087,1.90645433 2.7459448,2.32129599 2,3.07 C1.28689366,3.87284723 0.926534916,4.92869836 1,6 C1,11.08 6.94,14.11 8,14.11 C8.50350643,14.0597563 8.98732537,13.8881893 9.41,13.61 C9.85458921,13.3835632 10.0314367,12.8395892 9.80499998,12.395 C9.57856324,11.9504108 9.03458922,11.7735633 8.59,12 C8.39798016,12.0998261 8.20106518,12.1899397 8,12.27 C7.08,11.89 2.8,9.61 2.8,6 C2.75086938,5.40452594 2.94167715,4.8141019 3.33,4.36 C3.72834865,3.9643187 4.26855852,3.74463335 4.83,3.75 C5.96,3.75 6.75,4.82 7.21,5.75 C7.36372204,6.05039107 7.67256103,6.23955495 8.01,6.24 L8,6.24 C8.33525432,6.24149203 8.64354976,6.05651476 8.8,5.76 C9.27,4.86 10.06,3.76 11.18,3.76 C11.7414415,3.75463335 12.2816513,3.9743187 12.68,4.37 C13.0621811,4.8231257 13.2491704,5.40926521 13.2,6 C13.2009098,6.29518959 13.1741258,6.58981365 13.12,6.88 C13.0592648,7.19618005 13.1718233,7.52074429 13.4152757,7.7314325 C13.6587281,7.94212072 13.9960882,8.00692435 14.3002757,7.90143251 C14.6044632,7.79594066 14.8292649,7.53618006 14.89,7.22 C14.9649893,6.81770272 15.0018194,6.40922266 15,6 C15.0734651,4.92869836 14.7131063,3.87284723 14,3.07 L14,3.07 Z" id="Shape"></path>
        </g>
    </g>
</svg>