<?xml version="1.0" encoding="UTF-8"?>
<svg width="16px" height="16px" viewBox="0 0 16 16" version="1.1" xmlns="http://www.w3.org/2000/svg" xmlns:xlink="http://www.w3.org/1999/xlink">
    <!-- Generator: sketchtool 44.1 (41455) - http://www.bohemiancoding.com/sketch -->
    <title>heart-16</title>
    <desc>Created with sketchtool.</desc>
    <defs></defs>
    <g id="Symbols" stroke="none" stroke-width="1" fill="none" fill-rule="evenodd">
        <g id="heart-16" fill-rule="nonzero" fill="#000000">
            <path d="M14,3.07 C13.2637972,2.33123792 12.2629556,1.91722071 11.22,1.92 C9.93783277,1.93466504 8.74041614,2.56312283 8,3.61 C7.26786572,2.57438354 6.08798056,1.94733765 4.82,1.92 C3.7632087,1.90645433 2.7459448,2.32129599 2,3.07 C1.28689366,3.87284723 0.926534916,4.92869836 1,6 C1,11.08 6.94,14.11 8,14.11 C9.06,14.11 15,11.11 15,6 C15.0734651,4.92869836 14.7131063,3.87284723 14,3.07 L14,3.07 Z M8,12.25 C7.08,11.89 2.8,9.61 2.8,6 C2.75086938,5.40452594 2.94167715,4.8141019 3.33,4.36 C3.72834865,3.9643187 4.26855852,3.74463335 4.83,3.75 C5.96,3.75 6.75,4.82 7.21,5.75 C7.36372204,6.05039107 7.67256103,6.23955495 8.01,6.24 L8,6.24 C8.33525432,6.24149203 8.64354976,6.05651476 8.8,5.76 C9.27,4.86 10.06,3.76 11.18,3.76 C11.7414415,3.75463335 12.2816513,3.9743187 12.68,4.37 C13.0621811,4.8231257 13.2491704,5.40926521 13.2,6 C13.2,9.61 8.92,11.89 8,12.25 Z" id="Shape"></path>
        </g>
    </g>
</svg>