<?xml version="1.0" encoding="UTF-8"?>
<svg width="16px" height="16px" viewBox="0 0 16 16" version="1.1" xmlns="http://www.w3.org/2000/svg" xmlns:xlink="http://www.w3.org/1999/xlink">
    <!-- Generator: sketchtool 44.1 (41455) - http://www.bohemiancoding.com/sketch -->
    <title>house-view-inside-16</title>
    <desc>Created with sketchtool.</desc>
    <defs></defs>
    <g id="Symbols" stroke="none" stroke-width="1" fill="none" fill-rule="evenodd">
        <g id="house-view-inside-16" fill-rule="nonzero" fill="#000000">
            <path d="M10,13.2 C9.50294373,13.2 9.1,13.6029437 9.1,14.1 C9.1,14.5970563 9.50294373,15 10,15 L14.09,15 C14.3253347,14.9961764 14.5504665,14.9032649 14.72,14.74 C14.898183,14.5706626 14.9993491,14.3358127 15,14.09 L15,8.65 C14.9899107,8.27392342 14.8360158,7.9160282 14.57,7.65 L9.4,2.44 C8.62354683,1.68422609 7.38645317,1.68422609 6.61,2.44 L1.42,7.62 C1.15226613,7.88399964 1.00106604,8.24399987 1,8.62 L1,14 C1,14.5522847 1.44771525,15 2,15 L5,15 C6.03434431,15 7.02632457,14.5891083 7.75771645,13.8577164 C8.48910832,13.1263246 8.9,12.1343443 8.9,11.1 L8.9,10.1 L9.34,10.57 C9.68598464,10.8979101 10.2276388,10.8991752 10.5751514,10.5728848 C10.9226639,10.2465944 10.9554875,9.70593417 10.65,9.34 L8.65,7.22 C8.47089018,7.06370225 8.23721839,6.98461334 8,7 L8,7 C7.76057498,6.99808475 7.53025558,7.09165201 7.36,7.26 L5.36,9.26 C5.0478032,9.61656775 5.0656172,10.1541479 5.40073465,10.4892654 C5.73585209,10.8243828 6.27343225,10.8421968 6.63,10.53 L7.1,10 L7.1,11.1 C7.1,12.259798 6.15979797,13.2 5,13.2 L2.8,13.2 L2.8,8.79 L7.87,3.71 C7.93974188,3.64269112 8.05025812,3.64269112 8.12,3.71 L13.2,8.79 L13.2,13.2 L10,13.2 Z" id="Shape"></path>
        </g>
    </g>
</svg>