<?xml version="1.0" encoding="UTF-8"?>
<svg width="16px" height="16px" viewBox="0 0 16 16" version="1.1" xmlns="http://www.w3.org/2000/svg" xmlns:xlink="http://www.w3.org/1999/xlink">
    <!-- Generator: sketchtool 44.1 (41455) - http://www.bohemiancoding.com/sketch -->
    <title>house-16</title>
    <desc>Created with sketchtool.</desc>
    <defs></defs>
    <g id="Symbols" stroke="none" stroke-width="1" fill="none" fill-rule="evenodd">
        <g id="house-16" fill-rule="nonzero" fill="#000000">
            <path d="M2,15 L14.09,15 C14.3251308,14.9951951 14.549919,14.9024254 14.72,14.74 C14.9007128,14.5682736 15.0021022,14.3292842 15,14.08 L15,8.65 C14.9879133,8.27436546 14.8343209,7.91717384 14.57,7.65 L9.4,2.44 C8.62354683,1.68422609 7.38645317,1.68422609 6.61,2.44 L1.41,7.63 C1.14686407,7.89625968 0.999512166,8.25565457 1,8.63 L1,14 C1,14.5522847 1.44771525,15 2,15 Z M6.87,13.2 L6.87,10 C6.85823774,9.69863015 6.97420853,9.40629153 7.189367,9.19494118 C7.40452546,8.98359082 7.69888822,8.87285844 8,8.89 C8.29784016,8.88463264 8.58533838,8.99920494 8.7978496,9.20795491 C9.01036083,9.41670488 9.13004836,9.70211148 9.13,10 L9.13,13.2 L6.87,13.2 Z M2.8,8.79 L7.87,3.71 C7.93974188,3.64269112 8.05025812,3.64269112 8.12,3.71 L13.2,8.79 L13.2,13.2 L10.94,13.2 L10.94,10 C10.9427563,9.22215902 10.6329185,8.47581764 10.0800851,7.92862536 C9.52725167,7.38143309 8.7777718,7.07926621 8,7.09 C7.22149841,7.07364307 6.46976537,7.37431582 5.91727773,7.92303222 C5.36479009,8.47174861 5.05897559,9.22140464 5.07,10 L5.07,13.16 L2.8,13.16 L2.8,8.79 Z" id="Shape"></path>
        </g>
    </g>
</svg>