<?xml version="1.0" encoding="UTF-8"?>
<svg width="16px" height="16px" viewBox="0 0 16 16" version="1.1" xmlns="http://www.w3.org/2000/svg" xmlns:xlink="http://www.w3.org/1999/xlink">
    <!-- Generator: sketchtool 49.1 (51147) - http://www.bohemiancoding.com/sketch -->
    <title>link-external-16</title>
    <desc>Created with sketchtool.</desc>
    <defs></defs>
    <g id="Icons" stroke="none" stroke-width="1" fill="none" fill-rule="evenodd">
        <g id="link-external-16" fill="#000000" fill-rule="nonzero">
            <path d="M15.1,1 L10.1,1 C9.60294373,1 9.2,1.40294373 9.2,1.9 C9.2,2.39705627 9.60294373,2.8 10.1,2.8 L11.93,2.8 L8.36,6.36 C8.00653776,6.71346224 8.00653776,7.28653776 8.36,7.64 C8.71346224,7.99346224 9.28653776,7.99346224 9.64,7.64 L13.3,4 L13.3,6 C13.3,6.49705627 13.7029437,6.9 14.2,6.9 C14.6970563,6.9 15.1,6.49705627 15.1,6 L15.1,1 L15.1,1 Z" id="Shape"></path>
            <path d="M2.9,15 L11.1,15 C12.149341,15 13,14.149341 13,13.1 L13,10.59 C13,10.0929437 12.5970563,9.69 12.1,9.69 C11.6029437,9.69 11.2,10.0929437 11.2,10.59 L11.2,13.1 C11.2,13.1552285 11.1552285,13.2 11.1,13.2 L2.9,13.2 C2.84477153,13.2 2.8,13.1552285 2.8,13.1 L2.8,4.9 C2.8,4.84477153 2.84477153,4.8 2.9,4.8 L5.33,4.8 C5.82705627,4.79999999 6.22999998,4.39705627 6.22999998,3.9 C6.22999998,3.40294373 5.82705627,3.00000001 5.33,3 L2.9,3 C1.85065898,3 1,3.85065898 1,4.9 L1,13.1 C1,14.149341 1.85065898,15 2.9,15 L2.9,15 Z" id="Shape"></path>
        </g>
    </g>
</svg>