<?xml version="1.0" encoding="UTF-8"?>
<svg width="16px" height="16px" viewBox="0 0 16 16" version="1.1" xmlns="http://www.w3.org/2000/svg" xmlns:xlink="http://www.w3.org/1999/xlink">
    <!-- Generator: sketchtool 49.1 (51147) - http://www.bohemiancoding.com/sketch -->
    <title>lock-open-16</title>
    <desc>Created with sketchtool.</desc>
    <defs></defs>
    <g id="Icons" stroke="none" stroke-width="1" fill="none" fill-rule="evenodd">
        <g id="lock-open-16" fill="#000000" fill-rule="nonzero">
            <path d="M8,1.8 C8.31907767,1.79730722 8.62586942,1.92287054 8.85149944,2.14850056 C9.07712946,2.37413058 9.20269278,2.68092233 9.2,3 C9.2,3.32153903 9.37153903,3.61865335 9.65,3.77942286 C9.92846097,3.94019238 10.271539,3.94019238 10.55,3.77942286 C10.828461,3.61865335 11,3.32153903 11,3 C11,1.34314575 9.65685425,1.01453063e-16 8,0 C6.34314575,-1.01453063e-16 5,1.34314575 5,3 L5,5 L3.9,5 C3.39260423,4.99997189 2.90627597,5.20289298 2.54937631,5.56354948 C2.19247666,5.92420597 1.99465899,6.41263234 2,6.92 L2,13.08 C1.99465899,13.5873677 2.19247666,14.075794 2.54937631,14.4364505 C2.90627597,14.797107 3.39260423,15.0000281 3.9,15 L12.1,15 C13.149341,15 14,14.149341 14,13.1 L14,6.92 C14.005341,6.41263234 13.8075233,5.92420597 13.4506237,5.56354948 C13.093724,5.20289298 12.6073958,4.99997189 12.1,5 L6.8,5 L6.8,3 C6.79730722,2.68092233 6.92287054,2.37413058 7.14850056,2.14850056 C7.37413058,1.92287054 7.68092233,1.79730722 8,1.8 L8,1.8 Z M12.2,6.92 L12.2,13.08 C12.2,13.1352285 12.1552285,13.18 12.1,13.18 L3.9,13.18 C3.84477153,13.18 3.8,13.1352285 3.8,13.08 L3.8,6.92 C3.8,6.86477153 3.84477153,6.82 3.9,6.82 L12.1,6.82 C12.1552285,6.82 12.2,6.86477153 12.2,6.92 L12.2,6.92 Z" id="Shape"></path>
            <path d="M7,10.61 L7,11 C7,11.5522847 7.44771525,12 8,12 C8.55228475,12 9,11.5522847 9,11 L9,10.61 C9.46355484,10.1953839 9.62317479,9.53771716 9.40125854,8.95673288 C9.17934229,8.37574859 8.62192408,7.99196601 8,7.99196601 C7.37807592,7.99196601 6.82065771,8.37574859 6.59874146,8.95673288 C6.37682521,9.53771716 6.53644516,10.1953839 7,10.61 L7,10.61 Z" id="Shape"></path>
        </g>
    </g>
</svg>