<?xml version="1.0" encoding="UTF-8"?>
<svg width="16px" height="16px" viewBox="0 0 16 16" version="1.1" xmlns="http://www.w3.org/2000/svg" xmlns:xlink="http://www.w3.org/1999/xlink">
    <!-- Generator: sketchtool 49.1 (51147) - http://www.bohemiancoding.com/sketch -->
    <title>map-location-16</title>
    <desc>Created with sketchtool.</desc>
    <defs></defs>
    <g id="Icons" stroke="none" stroke-width="1" fill="none" fill-rule="evenodd">
        <g id="map-location-16" fill="#000000" fill-rule="nonzero">
            <path d="M8.9,14 L8.9,13.92 C11.476039,13.5167967 13.4967967,11.496039 13.9,8.92 L14,8.92 C14.4970563,8.92 14.9,8.51705627 14.9,8.02 C14.9,7.52294373 14.4970563,7.12 14,7.12 L13.92,7.12 C13.5167967,4.54396105 11.496039,2.52320326 8.92,2.12 L8.92,2 C8.92,1.49742088 8.51257912,1.09 8.01,1.09 C7.50742088,1.09 7.1,1.49742088 7.1,2 L7.1,2.08 C4.52396105,2.48320326 2.50320326,4.50396105 2.1,7.08 L2,7.08 C1.49742088,7.08 1.09,7.48742088 1.09,7.99 C1.09,8.49257912 1.49742088,8.9 2,8.9 L2.08,8.9 C2.48320326,11.476039 4.50396105,13.4967967 7.08,13.9 L7.08,14 C7.08000001,14.5025791 7.48742089,14.91 7.99,14.91 C8.49257911,14.91 8.89999999,14.5025791 8.9,14 Z M3.9,8.9 L5,8.9 C5.49705627,8.9 5.9,8.49705627 5.9,8 C5.9,7.50294373 5.49705627,7.1 5,7.1 L3.9,7.1 C4.25393712,5.50197986 5.50197986,4.25393712 7.1,3.9 L7.1,5 C7.10000001,5.49705626 7.50294374,5.89999997 8,5.89999997 C8.49705626,5.89999997 8.89999999,5.49705626 8.9,5 L8.9,3.9 C10.4980201,4.25393712 11.7460629,5.50197986 12.1,7.1 L11,7.1 C10.5029437,7.1 10.1,7.50294373 10.1,8 C10.1,8.49705627 10.5029437,8.9 11,8.9 L12.1,8.9 C11.7460629,10.4980201 10.4980201,11.7460629 8.9,12.1 L8.9,11 C8.89999999,10.5029437 8.49705626,10.1 8,10.1 C7.50294374,10.1 7.10000001,10.5029437 7.1,11 L7.1,12.1 C5.50197986,11.7460629 4.25393712,10.4980201 3.9,8.9 L3.9,8.9 Z" id="Shape"></path>
            <circle id="Oval" cx="8" cy="8" r="1"></circle>
        </g>
    </g>
</svg>