<?xml version="1.0" encoding="UTF-8"?>
<svg width="16px" height="16px" viewBox="0 0 16 16" version="1.1" xmlns="http://www.w3.org/2000/svg" xmlns:xlink="http://www.w3.org/1999/xlink">
    <!-- Generator: sketchtool 49.1 (51147) - http://www.bohemiancoding.com/sketch -->
    <title>map-street-view-16</title>
    <desc>Created with sketchtool.</desc>
    <defs></defs>
    <g id="Icons" stroke="none" stroke-width="1" fill="none" fill-rule="evenodd">
        <g id="map-street-view-16" fill="#000000" fill-rule="nonzero">
            <path d="M13.38,8.17 C12.9271265,7.96289322 12.3921068,8.16212651 12.185,8.615 C11.9778932,9.06787349 12.1771265,9.60289322 12.63,9.81 C13.3186879,9.99748039 13.8694404,10.5145134 14.1,11.19 C14.1,11.82 12.94,12.65 11,13.1 L11,9.17 C10.9838508,8.10205478 10.4011269,7.12323089 9.47,6.6 C10.6592367,5.93152349 11.2476995,4.54482616 10.9021976,3.22506362 C10.5566957,1.90530109 9.36423777,0.984832701 8,0.984832701 C6.63576223,0.984832701 5.44330429,1.90530109 5.09780239,3.22506362 C4.7523005,4.54482616 5.34076333,5.93152349 6.53,6.6 C5.59887314,7.12323089 5.01614919,8.10205478 5,9.17 L5,13.1 C3.06,12.65 1.9,11.83 1.9,11.19 C2.1324948,10.51208 2.687497,9.99457792 3.38,9.81 C3.67295779,9.67602541 3.87218735,9.39593666 3.90264084,9.07524047 C3.93309433,8.75454429 3.79014514,8.44196205 3.52764084,8.25524047 C3.26513654,8.06851888 2.92295778,8.0360254 2.63,8.17 C1,8.92 0.1,10 0.1,11.19 C0.1,13.49 3.5,15.19 8,15.19 C12.5,15.19 15.9,13.45 15.9,11.19 C15.9,10 15,8.92 13.38,8.17 Z M8,2.8 C8.6627417,2.8 9.2,3.3372583 9.2,4 C9.2,4.6627417 8.6627417,5.2 8,5.2 C7.3372583,5.2 6.8,4.6627417 6.8,4 C6.8,3.3372583 7.3372583,2.8 8,2.8 L8,2.8 Z M6.8,13.38 L6.8,9.17 C6.80000002,8.50725831 7.33725831,7.97000004 8,7.97000004 C8.66274169,7.97000004 9.19999998,8.50725831 9.2,9.17 L9.2,13.38 C8.82,13.38 8.42,13.43 8,13.43 C7.58,13.43 7.18,13.41 6.8,13.38 Z" id="Shape"></path>
        </g>
    </g>
</svg>