<?xml version="1.0" encoding="UTF-8"?>
<svg width="16px" height="16px" viewBox="0 0 16 16" version="1.1" xmlns="http://www.w3.org/2000/svg" xmlns:xlink="http://www.w3.org/1999/xlink">
    <!-- Generator: sketchtool 44.1 (41455) - http://www.bohemiancoding.com/sketch -->
    <title>map-school-boys-16</title>
    <desc>Created with sketchtool.</desc>
    <defs></defs>
    <g id="Symbols" stroke="none" stroke-width="1" fill="none" fill-rule="evenodd">
        <g id="map-school-boys-16" fill-rule="nonzero" fill="#000000">
            <path d="M12.84,4.21 C12.9240444,3.98592216 12.9153813,3.73759807 12.8159258,3.51992185 C12.7164702,3.30224563 12.5344133,3.13314462 12.31,3.05 L4.21,0.05 C3.93310187,-0.0515981514 3.62399479,-0.0110724913 3.38264483,0.158470873 C3.14129486,0.328014237 2.99833543,0.605055959 3,0.9 L3,4 C2.99999999,4.32153904 3.17153902,4.61865336 3.44999999,4.77942288 C3.72846097,4.9401924 4.07153903,4.9401924 4.35000001,4.77942288 C4.62846098,4.61865336 4.80000001,4.32153904 4.8,4 L4.8,2.19 L6.12,2.68 C5.43935726,3.25000457 5.04613603,4.09220512 5.04613603,4.98 C5.04613603,5.86779488 5.43935726,6.70999543 6.12,7.28 C4.83280999,7.94773798 4.01790875,9.27003055 4,10.72 L4,13.6 C3.99466642,14.2346734 4.24305916,14.8451864 4.68997514,15.295858 C5.13689111,15.7465296 5.7453042,16.0000224 6.38,16 L9.62,16 C10.2546958,16.0000224 10.8631089,15.7465296 11.3100249,15.295858 C11.7569408,14.8451864 12.0053336,14.2346734 12,13.6 L12,10.72 C11.9919388,9.28080503 11.1978343,7.96113382 9.93,7.28 C10.7563796,6.59966544 11.1408021,5.51943837 10.93,4.47 L11.67,4.74 C11.8952822,4.82718627 12.1461561,4.82014974 12.3661972,4.72047301 C12.5862383,4.62079628 12.7569726,4.43684791 12.84,4.21 L12.84,4.21 Z M9.2,5 C9.2,5.48535469 8.90762939,5.92291824 8.45922012,6.10865544 C8.01081085,6.29439264 7.49466946,6.19172573 7.15147186,5.84852814 C6.80827427,5.50533054 6.70560736,4.98918915 6.89134456,4.54077988 C7.07708176,4.09237061 7.51464531,3.8 8,3.8 C8.6627417,3.8 9.2,4.3372583 9.2,5 Z M8,8.57 C8.58251588,8.56719669 9.14279459,8.79346309 9.56,9.2 L6.44,9.2 C6.85720541,8.79346309 7.41748412,8.56719669 8,8.57 L8,8.57 Z M9.62,14.18 L6.38,14.18 C6.05967485,14.18 5.8,13.9203252 5.8,13.6 L5.8,11 L10.2,11 L10.2,13.6 C10.2,13.9203252 9.94032515,14.18 9.62,14.18 L9.62,14.18 Z" id="Shape"></path>
        </g>
    </g>
</svg>