<?xml version="1.0" encoding="UTF-8"?>
<svg width="16px" height="16px" viewBox="0 0 16 16" version="1.1" xmlns="http://www.w3.org/2000/svg" xmlns:xlink="http://www.w3.org/1999/xlink">
    <!-- Generator: sketchtool 44.1 (41455) - http://www.bohemiancoding.com/sketch -->
    <title>map-school-girls-16</title>
    <desc>Created with sketchtool.</desc>
    <defs></defs>
    <g id="Symbols" stroke="none" stroke-width="1" fill="none" fill-rule="evenodd">
        <g id="map-school-girls-16" fill-rule="nonzero" fill="#000000">
            <path d="M12.84,4.21 C12.9240444,3.98592216 12.9153813,3.73759807 12.8159258,3.51992185 C12.7164702,3.30224563 12.5344133,3.13314462 12.31,3.05 L4.21,0.05 C3.93310187,-0.0515981514 3.62399479,-0.0110724913 3.38264483,0.158470873 C3.14129486,0.328014237 2.99833543,0.605055959 3,0.9 L3,4 C2.99999999,4.32153904 3.17153902,4.61865336 3.44999999,4.77942288 C3.72846097,4.9401924 4.07153903,4.9401924 4.35000001,4.77942288 C4.62846098,4.61865336 4.80000001,4.32153904 4.8,4 L4.8,2.19 L6.12,2.68 C5.18109246,3.42489618 4.77562831,4.65714205 5.08876761,5.81401779 C5.40190691,6.97089353 6.37355612,7.83038691 7.56,8 C7.09361628,8.10934813 6.68615379,8.39171248 6.42,8.79 L3.83,12.63 C3.51781769,13.0978054 3.42644044,13.6789647 3.58,14.22 C3.72515114,14.7380303 4.09089336,15.1659487 4.58,15.39 C5.65748572,15.8631424 6.82326677,16.1017526 8,16.09 C9.18073202,16.0991073 10.3499096,15.8570909 11.43,15.38 C11.9191066,15.1559487 12.2848489,14.7280303 12.43,14.21 C12.5849501,13.6690495 12.4934797,13.087298 12.18,12.62 L9.58,8.74 C9.30734534,8.36256173 8.90496016,8.09905285 8.45,8 C9.24877983,7.87776725 9.96447105,7.43846135 10.4350467,6.78153774 C10.9056223,6.12461414 11.0912842,5.30563108 10.95,4.51 L11.69,4.78 C11.9180214,4.85904484 12.1682353,4.84320129 12.3844653,4.73602643 C12.6006953,4.62885156 12.7648231,4.43932574 12.84,4.21 L12.84,4.21 Z M7.92,9.74 L8.08,9.74 L9.08,11.2 L6.95,11.2 L7.92,9.74 Z M5.33,13.74 C5.30449494,13.7004196 5.30449494,13.6495804 5.33,13.61 L5.78,13 C5.85303789,13.0093094 5.92696211,13.0093094 6,13 L10,13 C10.0763288,13.0101788 10.1536712,13.0101788 10.23,13 L10.68,13.67 L10.68,13.79 C8.96171857,14.4855836 7.03768866,14.4711984 5.33,13.75 L5.33,13.74 Z M8,6.2 C7.51464531,6.2 7.07708176,5.90762939 6.89134456,5.45922012 C6.70560736,5.01081085 6.80827427,4.49466946 7.15147186,4.15147186 C7.49466946,3.80827427 8.01081085,3.70560736 8.45922012,3.89134456 C8.90762939,4.07708176 9.2,4.51464531 9.2,5 C9.2,5.6627417 8.6627417,6.2 8,6.2 Z" id="Shape"></path>
        </g>
    </g>
</svg>