<?xml version="1.0" encoding="UTF-8"?>
<svg width="16px" height="16px" viewBox="0 0 16 16" version="1.1" xmlns="http://www.w3.org/2000/svg" xmlns:xlink="http://www.w3.org/1999/xlink">
    <!-- Generator: sketchtool 49.1 (51147) - http://www.bohemiancoding.com/sketch -->
    <title>money-transfer-out-16</title>
    <desc>Created with sketchtool.</desc>
    <defs></defs>
    <g id="Icons" stroke="none" stroke-width="1" fill="none" fill-rule="evenodd">
        <g id="money-transfer-out-16" fill="#000000" fill-rule="nonzero">
            <path d="M1.8,7.1 L1.8,3.9 C1.8,3.84477153 1.84477153,3.8 1.9,3.8 L14.1,3.8 C14.1552285,3.8 14.2,3.84477153 14.2,3.9 L14.2,7.1 C14.2,7.59705626 14.6029437,7.99999996 15.1,7.99999996 C15.5970563,7.99999996 16,7.59705626 16,7.1 L16,3.9 C16,2.85065898 15.149341,2 14.1,2 L1.9,2 C0.850658975,2 1.28507213e-16,2.85065898 0,3.9 L0,7.1 C6.08718376e-17,7.59705627 0.402943725,8 0.9,8 C1.39705627,8 1.8,7.59705627 1.8,7.1 Z" id="Shape"></path>
            <path d="M3.9,5 C3.40294373,5 3,5.40294373 3,5.9 L3,14 L13,14 L13,5.9 C13,5.40294373 12.5970563,5 12.1,5 C11.6029437,5 11.2,5.40294373 11.2,5.9 L11.2,12.2 L4.8,12.2 L4.8,5.9 C4.8,5.40294373 4.39705627,5 3.9,5 Z" id="Shape"></path>
            <path d="M9.1,5.1 C8.60294373,5.1 8.2,5.50294373 8.2,6 C8.2,6.22 7.8,6.22 7.8,6 C7.79999999,5.50294374 7.39705626,5.10000003 6.9,5.10000003 C6.40294374,5.10000003 6.00000001,5.50294374 6,6 C6,7.1045695 6.8954305,8 8,8 C9.1045695,8 10,7.1045695 10,6 C10,5.76130516 9.90517884,5.53238664 9.7363961,5.3636039 C9.56761336,5.19482116 9.33869484,5.1 9.1,5.1 Z" id="Shape"></path>
            <path d="M7,9.2 C6.50294373,9.2 6.1,9.60294373 6.1,10.1 C6.1,10.5970563 6.50294373,11 7,11 L9,11 C9.49705627,11 9.9,10.5970563 9.9,10.1 C9.9,9.60294373 9.49705627,9.2 9,9.2 L7,9.2 L7,9.2 Z" id="Shape"></path>
        </g>
    </g>
</svg>