<?xml version="1.0" encoding="UTF-8"?>
<svg width="16px" height="16px" viewBox="0 0 16 16" version="1.1" xmlns="http://www.w3.org/2000/svg" xmlns:xlink="http://www.w3.org/1999/xlink">
    <!-- Generator: sketchtool 49.1 (51147) - http://www.bohemiancoding.com/sketch -->
    <title>music-note-16</title>
    <desc>Created with sketchtool.</desc>
    <defs></defs>
    <g id="Icons" stroke="none" stroke-width="1" fill="none" fill-rule="evenodd">
        <g id="music-note-16" fill="#000000" fill-rule="nonzero">
            <path d="M4,14 C5.65685425,14 7,12.6568542 7,11 C7,11 7,11 7,10.93 C7,10.86 7,10.93 7,10.93 L7,3.8 L13.2,3.8 L13.2,8.25 C11.9841516,7.71936028 10.5641449,8.05027673 9.70813224,9.06374017 C8.85211957,10.0772036 8.76337118,11.5325553 9.48989548,12.642523 C10.2164198,13.7524906 11.5856951,14.2534995 12.8570122,13.8745289 C14.1283293,13.4955584 14.999799,12.3265993 15,11 C15,11 15,11 15,10.93 C15,10.86 15,10.93 15,10.93 L15,2 L5.2,2 L5.2,8.25 C4.08168948,7.76243394 2.77949666,8.00063946 1.90620671,8.85252193 C1.03291675,9.7044044 0.762472016,11.0002854 1.22213823,12.1303501 C1.68180444,13.2604147 2.78002504,13.999576 4,14 L4,14 Z M12,12.2 C11.3372583,12.2 10.8,11.6627417 10.8,11 C10.8,10.3372583 11.3372583,9.8 12,9.8 C12.6627417,9.8 13.2,10.3372583 13.2,11 C13.2,11.6627417 12.6627417,12.2 12,12.2 L12,12.2 Z M4,9.8 C4.6627417,9.8 5.2,10.3372583 5.2,11 C5.2,11.6627417 4.6627417,12.2 4,12.2 C3.3372583,12.2 2.8,11.6627417 2.8,11 C2.8,10.3372583 3.3372583,9.8 4,9.8 Z" id="Shape"></path>
        </g>
    </g>
</svg>