<?xml version="1.0" encoding="UTF-8"?>
<svg width="16px" height="16px" viewBox="0 0 16 16" version="1.1" xmlns="http://www.w3.org/2000/svg" xmlns:xlink="http://www.w3.org/1999/xlink">
    <!-- Generator: sketchtool 44.1 (41455) - http://www.bohemiancoding.com/sketch -->
    <title>music-headphones-16</title>
    <desc>Created with sketchtool.</desc>
    <defs></defs>
    <g id="Symbols" stroke="none" stroke-width="1" fill="none" fill-rule="evenodd">
        <g id="music-headphones-16" fill-rule="nonzero" fill="#000000">
            <path d="M4.1,14 L5,14 L5,7 L4.1,7 L3.8,7 C3.79999997,5.4994845 4.60051544,4.11295099 5.89999997,3.36269323 C7.19948451,2.61243547 8.80051549,2.61243547 10.1,3.36269323 C11.3994846,4.11295099 12.2,5.4994845 12.2,7 L11.9,7 L11,7 L11,14 L11.9,14 C13.42471,14.0254841 14.7894263,13.0581038 15.2702752,11.6109775 C15.7511241,10.1638513 15.2367551,8.57209132 14,7.68 C14.3075329,5.12947378 12.9571816,2.66616411 10.6415926,1.55359594 C8.32600355,0.44102778 5.55904704,0.926099734 3.76,2.76 C2.45251265,4.04500553 1.80423201,5.8572446 2,7.68 C0.763244939,8.57209132 0.248875864,10.1638513 0.72972477,11.6109775 C1.21057368,13.0581038 2.57529001,14.0254841 4.1,14 L4.1,14 Z M12.8,11.94 L12.8,9.06 C13.2955913,9.37096583 13.5964514,9.91492695 13.5964514,10.5 C13.5964514,11.085073 13.2955913,11.6290342 12.8,11.94 L12.8,11.94 Z M3.2,11.94 C2.70440871,11.6290342 2.40354856,11.085073 2.40354856,10.5 C2.40354856,9.91492695 2.70440871,9.37096583 3.2,9.06 L3.2,11.94 Z" id="Shape"></path>
        </g>
    </g>
</svg>