<?xml version="1.0" encoding="UTF-8"?>
<svg width="16px" height="16px" viewBox="0 0 16 16" version="1.1" xmlns="http://www.w3.org/2000/svg" xmlns:xlink="http://www.w3.org/1999/xlink">
    <!-- Generator: sketchtool 49.1 (51147) - http://www.bohemiancoding.com/sketch -->
    <title>newspaper-16</title>
    <desc>Created with sketchtool.</desc>
    <defs></defs>
    <g id="Icons" stroke="none" stroke-width="1" fill="none" fill-rule="evenodd">
        <g id="newspaper-16" fill="#000000" fill-rule="nonzero">
            <path d="M7.5,12 L11.5,12 C12.0522847,12 12.5,11.5522847 12.5,11 C12.5,10.4477153 12.0522847,10 11.5,10 L7.5,10 C6.94771525,10 6.5,10.4477153 6.5,11 C6.5,11.5522847 6.94771525,12 7.5,12 Z" id="Shape"></path>
            <path d="M7.5,6 L11.5,6 C12.0522847,6 12.5,5.55228475 12.5,5 C12.5,4.44771525 12.0522847,4 11.5,4 L7.5,4 C6.94771525,4 6.5,4.44771525 6.5,5 C6.5,5.55228475 6.94771525,6 7.5,6 Z" id="Shape"></path>
            <path d="M7.5,9 L11.5,9 C12.0522847,9 12.5,8.55228475 12.5,8 C12.5,7.44771525 12.0522847,7 11.5,7 L7.5,7 C6.94771525,7 6.5,7.44771525 6.5,8 C6.5,8.55228475 6.94771525,9 7.5,9 Z" id="Shape"></path>
            <path d="M3.4,15 L12.6,15 C13.7837919,15.0165394 14.8027976,14.167368 15,13 L15,13 L15,2.9 C15,1.85065898 14.149341,1 13.1,1 L5.9,1 C4.85065898,1 4,1.85065898 4,2.9 L4,5 L1,5 L1,12.6 C1,13.9254834 2.0745166,15 3.4,15 Z M5.8,2.9 C5.8,2.84477153 5.84477153,2.8 5.9,2.8 L13.1,2.8 C13.1552285,2.8 13.2,2.84477153 13.2,2.9 L13.2,12.6 C13.2,12.9313708 12.9313708,13.2 12.6,13.2 L5.71,13.2 L5.71,13 L5.71,13 L5.71,2.9 L5.8,2.9 Z M2.8,6.8 L4,6.8 L4,12.6 C4,12.9313708 3.73137085,13.2 3.4,13.2 C3.06862915,13.2 2.8,12.9313708 2.8,12.6 L2.8,6.8 L2.8,6.8 Z" id="Shape"></path>
        </g>
    </g>
</svg>