<?xml version="1.0" encoding="UTF-8"?>
<svg width="16px" height="16px" viewBox="0 0 16 16" version="1.1" xmlns="http://www.w3.org/2000/svg" xmlns:xlink="http://www.w3.org/1999/xlink">
    <!-- Generator: sketchtool 44.1 (41455) - http://www.bohemiancoding.com/sketch -->
    <title>printer-16</title>
    <desc>Created with sketchtool.</desc>
    <defs></defs>
    <g id="Symbols" stroke="none" stroke-width="1" fill="none" fill-rule="evenodd">
        <g id="printer-16" fill-rule="nonzero" fill="#000000">
            <path d="M13.1,4 L2.9,4 C1.85065898,4 1,4.85065898 1,5.9 L1,10.1 C1,10.6039113 1.200178,11.0871838 1.55649712,11.4435029 C1.91281623,11.799822 2.39608867,12 2.9,12 L4,12 L4,15 L12,15 L12,12 L13.1,12 C13.6039113,12 14.0871838,11.799822 14.4435029,11.4435029 C14.799822,11.0871838 15,10.6039113 15,10.1 L15,5.9 C15,4.85065898 14.149341,4 13.1,4 L13.1,4 Z M5.8,13.2 L5.8,8.8 L10.2,8.8 L10.2,13.2 L5.8,13.2 L5.8,13.2 Z M13.2,10.1 C13.2,10.1552285 13.1552285,10.2 13.1,10.2 L12,10.2 L12,8.8 C12.4970563,8.8 12.9,8.39705627 12.9,7.9 C12.9,7.40294373 12.4970563,7 12,7 L4,7 C3.50294373,7 3.1,7.40294373 3.1,7.9 C3.1,8.39705627 3.50294373,8.8 4,8.8 L4,10.2 L2.9,10.2 C2.84477153,10.2 2.8,10.1552285 2.8,10.1 L2.8,5.9 C2.8,5.84477153 2.84477153,5.8 2.9,5.8 L13.1,5.8 C13.1552285,5.8 13.2,5.84477153 13.2,5.9 L13.2,10.1 L13.2,10.1 Z" id="Shape"></path>
            <path d="M5,2.8 L11,2.8 C11.4970563,2.8 11.9,2.39705627 11.9,1.9 C11.9,1.40294373 11.4970563,1 11,1 L5,1 C4.50294373,1 4.1,1.40294373 4.1,1.9 C4.1,2.39705627 4.50294373,2.8 5,2.8 L5,2.8 Z" id="Shape"></path>
        </g>
    </g>
</svg>