<?xml version="1.0" encoding="UTF-8"?>
<svg width="16px" height="16px" viewBox="0 0 16 16" version="1.1" xmlns="http://www.w3.org/2000/svg" xmlns:xlink="http://www.w3.org/1999/xlink">
    <!-- Generator: sketchtool 49.1 (51147) - http://www.bohemiancoding.com/sketch -->
    <title>profile-16</title>
    <desc>Created with sketchtool.</desc>
    <defs></defs>
    <g id="Icons" stroke="none" stroke-width="1" fill="none" fill-rule="evenodd">
        <g id="profile-16" fill="#000000" fill-rule="nonzero">
            <path d="M8,9 C10.209139,9 12,7.209139 12,5 C12,2.790861 10.209139,1 8,1 C5.790861,1 4,2.790861 4,5 C4,7.209139 5.790861,9 8,9 L8,9 Z M8,2.8 C9.21502645,2.8 10.2,3.78497355 10.2,5 C10.2,6.21502645 9.21502645,7.2 8,7.2 C6.78497355,7.2 5.8,6.21502645 5.8,5 C5.8,3.78497355 6.78497355,2.8 8,2.8 Z" id="Shape"></path>
            <path d="M2.23,15 L13.76,15 C14.2850178,14.9961527 14.7637497,14.6988756 15,14.23 C15.2374702,13.7675925 15.1949506,13.2109726 14.89,12.79 C14.14,11.79 12.24,10 7.89,10 C3.54,10 1.77,11.75 1.02,12.8 C0.743544709,13.2381876 0.735820875,13.7943036 1,14.24 C1.23733803,14.7018277 1.71078676,14.9943651 2.23,15 Z M7.95,11.8 C9.69829727,11.6646992 11.4370764,12.1614932 12.85,13.2 L3.14,13.2 C4.5203887,12.1652396 6.22991592,11.6676641 7.95,11.8 Z" id="Shape"></path>
        </g>
    </g>
</svg>