<?xml version="1.0" encoding="UTF-8"?>
<svg width="16px" height="16px" viewBox="0 0 16 16" version="1.1" xmlns="http://www.w3.org/2000/svg" xmlns:xlink="http://www.w3.org/1999/xlink">
    <!-- Generator: sketchtool 44.1 (41455) - http://www.bohemiancoding.com/sketch -->
    <title>refresh-16</title>
    <desc>Created with sketchtool.</desc>
    <defs></defs>
    <g id="Symbols" stroke="none" stroke-width="1" fill="none" fill-rule="evenodd">
        <g id="refresh-16" fill-rule="nonzero" fill="#000000">
            <path d="M2,7.9 C1.99774336,8.71215135 2.16461824,9.51587526 2.49,10.26 C2.61861561,10.5547441 2.89470545,10.7584833 3.21426915,10.794471 C3.53383284,10.8304586 3.84832106,10.6932274 4.03926915,10.434471 C4.23021723,10.1757145 4.26861561,9.83474411 4.14,9.54 C3.58663646,8.27208543 3.70998548,6.81061105 4.46803228,5.65338003 C5.22607908,4.49614901 6.5165919,3.79922792 7.9,3.8 L8.9,3.8 L8.34,4.36 C7.98653776,4.71898509 7.99101491,5.29653776 8.35,5.65 C8.70898509,6.00346224 9.28653776,5.99898509 9.64,5.64 L12.27,3 L9.64,0.36 C9.28653776,0.00653776011 8.71346224,0.00653776011 8.36,0.36 C8.00653776,0.71346224 8.00653776,1.28653776 8.36,1.64 L8.73,2 L7.9,2 C4.64380295,2.00550499 2.00550499,4.64380295 2,7.9 L2,7.9 Z" id="Shape"></path>
            <path d="M14,8.1 C14.0005815,7.29124637 13.8337482,6.49112745 13.51,5.75 C13.3111775,5.29436508 12.7806349,5.08617749 12.325,5.285 C11.8693651,5.48382251 11.6611775,6.01436508 11.86,6.47 C12.4034373,7.73706791 12.2753805,9.19220373 11.5189975,10.3448832 C10.7626145,11.4975626 9.47867751,12.1942151 8.1,12.2 L7.1,12.2 L7.66,11.64 C7.9721968,11.2834323 7.9543828,10.7458521 7.61926535,10.4107346 C7.28414791,10.0756172 6.74656775,10.0578032 6.39,10.37 L3.73,13 L4.46,13.73 L4.46,13.73 L6.36,15.63 C6.71656775,15.9421968 7.25414791,15.9243828 7.58926535,15.5892654 C7.9243828,15.2541479 7.9421968,14.7165677 7.63,14.36 L7.27,14 L8.1,14 C11.3561971,13.994495 13.994495,11.3561971 14,8.1 L14,8.1 Z" id="Shape"></path>
        </g>
    </g>
</svg>