<?xml version="1.0" encoding="UTF-8"?>
<svg width="16px" height="16px" viewBox="0 0 16 16" version="1.1" xmlns="http://www.w3.org/2000/svg" xmlns:xlink="http://www.w3.org/1999/xlink">
    <!-- Generator: sketchtool 49.1 (51147) - http://www.bohemiancoding.com/sketch -->
    <title>return-16</title>
    <desc>Created with sketchtool.</desc>
    <defs></defs>
    <g id="Icons" stroke="none" stroke-width="1" fill="none" fill-rule="evenodd">
        <g id="return-16" fill="#000000" fill-rule="nonzero">
            <path d="M9.69,12.2 L2.57,12.2 C2.07294373,12.2 1.67,12.6029437 1.67,13.1 C1.67,13.5970563 2.07294373,14 2.57,14 L9.69,14 C12.4514237,14 14.69,11.7614237 14.69,9 C14.69,6.23857625 12.4514237,4 9.69,4 L7.94,4 L9.3,2.64 C9.65346223,2.28101491 9.64898507,1.70346225 9.28999999,1.35000001 C8.9310149,0.996537779 8.35346224,1.00101493 8,1.36 L4.39,5 L8,8.64 C8.22864998,8.87222264 8.56382057,8.9648219 8.87925627,8.88291653 C9.19469196,8.80101116 9.44247056,8.55704453 9.52925627,8.24291652 C9.61604198,7.92878851 9.52864999,7.59222263 9.3,7.36 L7.74,5.8 L9.74,5.8 C11.5073112,5.81380712 12.9288071,7.2576888 12.915,9.025 C12.9011929,10.7923112 11.4573112,12.2138071 9.69,12.2 Z" id="Shape"></path>
        </g>
    </g>
</svg>