<?xml version="1.0" encoding="UTF-8"?>
<svg width="16px" height="16px" viewBox="0 0 16 16" version="1.1" xmlns="http://www.w3.org/2000/svg" xmlns:xlink="http://www.w3.org/1999/xlink">
    <!-- Generator: sketchtool 44.1 (41455) - http://www.bohemiancoding.com/sketch -->
    <title>shopping-bag-16</title>
    <desc>Created with sketchtool.</desc>
    <defs></defs>
    <g id="Symbols" stroke="none" stroke-width="1" fill="none" fill-rule="evenodd">
        <g id="shopping-bag-16" fill-rule="nonzero" fill="#000000">
            <path d="M4.93,15 L11.13,15 C12.7198977,14.9835519 14.0000851,13.6899828 14,12.1 L14,4 L11,4 L11,3.9 C10.9460478,2.28232454 9.61857466,0.99910055 8,1 C6.38142534,0.99910055 5.05395225,2.28232454 5,3.9 L5,4 L2,4 L2,12.1 C1.99995856,12.874354 2.30960811,13.6165634 2.85996936,14.1612896 C3.41033062,14.7060157 4.15568745,15.0080106 4.93,15 L4.93,15 Z M6.8,3.9 C6.8129763,3.59490019 6.94676905,3.30748943 7.17187796,3.10113959 C7.39698687,2.89478976 7.69492526,2.78644697 8,2.8 C8.30507474,2.78644697 8.60301313,2.89478976 8.82812204,3.10113959 C9.05323095,3.30748943 9.1870237,3.59490019 9.2,3.9 L9.2,4 L6.8,4 L6.8,3.9 Z M3.8,5.8 L5,5.8 L5,7.9 C5,8.39705627 5.40294373,8.8 5.9,8.8 C6.39705627,8.8 6.8,8.39705627 6.8,7.9 L6.8,5.8 L9.2,5.8 L9.2,7.9 C9.2,8.39705627 9.60294373,8.8 10.1,8.8 C10.5970563,8.8 11,8.39705627 11,7.9 L11,5.8 L12.23,5.8 L12.23,12.1 C12.23,12.7075132 11.7375132,13.2 11.13,13.2 L4.93,13.2 C4.32248678,13.2 3.83,12.7075132 3.83,12.1 L3.83,5.8 L3.8,5.8 Z" id="Shape"></path>
        </g>
    </g>
</svg>