<?xml version="1.0" encoding="UTF-8"?>
<svg width="16px" height="16px" viewBox="0 0 16 16" version="1.1" xmlns="http://www.w3.org/2000/svg" xmlns:xlink="http://www.w3.org/1999/xlink">
    <!-- Generator: sketchtool 44.1 (41455) - http://www.bohemiancoding.com/sketch -->
    <title>shopping-bag-multi-16</title>
    <desc>Created with sketchtool.</desc>
    <defs></defs>
    <g id="Symbols" stroke="none" stroke-width="1" fill="none" fill-rule="evenodd">
        <g id="shopping-bag-multi-16" fill-rule="nonzero" fill="#000000">
            <path d="M5.9,13 L11.1,13 C12.7016258,13 14,11.7016258 14,10.1 L14,3 L11,3 L11,2.5 C11,1.11928813 9.88071187,8.45442189e-17 8.5,0 C7.11928813,-8.45442189e-17 6,1.11928813 6,2.5 L6,3 L3,3 L3,10.1 C3,11.7016258 4.29837423,13 5.9,13 L5.9,13 Z M7.8,2.5 C7.8,2.11340068 8.11340068,1.8 8.5,1.8 C8.88659932,1.8 9.2,2.11340068 9.2,2.5 L9.2,3 L7.8,3 L7.8,2.5 Z M4.8,4.8 L6,4.8 L6,7.1 C6,7.59705627 6.40294373,8 6.9,8 C7.39705627,8 7.8,7.59705627 7.8,7.1 L7.8,4.8 L9.2,4.8 L9.2,7.1 C9.2,7.59705627 9.60294373,8 10.1,8 C10.5970563,8 11,7.59705627 11,7.1 L11,4.8 L12.2,4.8 L12.2,10.1 C12.2,10.7075132 11.7075132,11.2 11.1,11.2 L5.9,11.2 C5.29248678,11.2 4.8,10.7075132 4.8,10.1 L4.8,4.8 L4.8,4.8 Z" id="Shape"></path>
            <path d="M2.9,16 L9,16 C9.49705627,16 9.9,15.5970563 9.9,15.1 C9.9,14.6029437 9.49705627,14.2 9,14.2 L2.9,14.2 C2.29248678,14.2 1.8,13.7075132 1.8,13.1 L1.8,6 C1.8,5.50294373 1.39705627,5.1 0.9,5.1 C0.402943725,5.1 0,5.50294373 0,6 L0,13.1 C4.4408921e-16,14.7016258 1.29837423,16 2.9,16 Z" id="Shape"></path>
        </g>
    </g>
</svg>