<?xml version="1.0" encoding="UTF-8"?>
<svg width="16px" height="16px" viewBox="0 0 16 16" version="1.1" xmlns="http://www.w3.org/2000/svg" xmlns:xlink="http://www.w3.org/1999/xlink">
    <!-- Generator: sketchtool 49.1 (51147) - http://www.bohemiancoding.com/sketch -->
    <title>shop-wallet-16</title>
    <desc>Created with sketchtool.</desc>
    <defs></defs>
    <g id="Icons" stroke="none" stroke-width="1" fill="none" fill-rule="evenodd">
        <g id="shop-wallet-16" fill="#000000" fill-rule="nonzero">
            <path d="M3.4,3.8 L12,3.8 C12.4970563,3.8 12.9,3.39705627 12.9,2.9 C12.9,2.40294373 12.4970563,2 12,2 L3.4,2 C2.05387568,2.04339631 0.988439196,3.15322597 1,4.5 L1,11.6 C1,12.9254834 2.0745166,14 3.4,14 L12.1,14 C13.149341,14 14,13.149341 14,12.1 L14,6.9 C14,5.85065898 13.149341,5 12.1,5 L3.4,5 C3.25285316,5.0197782 3.10415709,4.9769292 2.9900992,4.88188096 C2.87604131,4.78683272 2.80708071,4.64830116 2.8,4.5 C2.79640553,4.14930805 3.0528841,3.85008306 3.4,3.8 L3.4,3.8 Z M3.4,6.8 L12.1,6.8 C12.1552285,6.8 12.2,6.84477153 12.2,6.9 L12.2,12.1 C12.2,12.1552285 12.1552285,12.2 12.1,12.2 L3.4,12.2 C3.06862915,12.2 2.8,11.9313708 2.8,11.6 L2.8,6.73 C2.99660089,6.77656644 3.19795956,6.80005828 3.4,6.8 L3.4,6.8 Z" id="Shape"></path>
            <path d="M9.5,10.9 C10.2731986,10.9 10.9,10.2731986 10.9,9.5 C10.9,8.72680135 10.2731986,8.1 9.5,8.1 C8.72680135,8.1 8.1,8.72680135 8.1,9.5 C8.1,9.87130309 8.24749958,10.2273986 8.51005051,10.4899495 C8.77260144,10.7525004 9.12869691,10.9 9.5,10.9 Z M9.5,9.1 C9.7209139,9.1 9.9,9.2790861 9.9,9.5 C9.9,9.7209139 9.7209139,9.9 9.5,9.9 C9.2790861,9.9 9.1,9.7209139 9.1,9.5 C9.1,9.2790861 9.2790861,9.1 9.5,9.1 Z" id="Shape"></path>
        </g>
    </g>
</svg>