<?xml version="1.0" encoding="UTF-8"?>
<svg width="16px" height="16px" viewBox="0 0 16 16" version="1.1" xmlns="http://www.w3.org/2000/svg" xmlns:xlink="http://www.w3.org/1999/xlink">
    <!-- Generator: sketchtool 44.1 (41455) - http://www.bohemiancoding.com/sketch -->
    <title>social-twitter-1-16</title>
    <desc>Created with sketchtool.</desc>
    <defs></defs>
    <g id="Symbols" stroke="none" stroke-width="1" fill="none" fill-rule="evenodd">
        <g id="social-twitter-1-16" fill="#000000">
            <g id="Group-2" transform="translate(1.000000, 2.000000)">
                <path d="M14.3333333,1.40173333 C13.8253333,1.6224 13.2806667,1.77306667 12.71,1.84173333 C12.7066667,1.83106667 12.7013333,1.82106667 12.6966667,1.81106667 C13.3013333,1.45773333 13.7673333,0.895066667 13.9973333,0.2224 C13.822,0.3304 12.9786667,0.805733333 12.1546667,0.959066667 C11.618,0.369733333 10.846,-0.000266666667 9.986,-0.000266666667 C8.16866667,-0.000266666667 7.04933333,1.49106667 7.04933333,2.9364 C7.04933333,3.04906667 7.10266667,3.51506667 7.112,3.54173333 C4.67066667,3.4884 2.50666667,2.31373333 1.11266667,0.511733333 C0.114,2.32973333 1.15933333,3.90573333 1.876,4.46773333 C1.45933333,4.46106667 1.06466667,4.37106667 0.704,4.2144 C0.779333333,5.61173333 1.79066667,6.7604 3.12333333,7.0464 C2.58933333,7.19573333 1.94866667,7.08173333 1.70266667,7.01773333 C2.096,8.18706667 3.174,9.0424 4.46,9.10506667 C2.49066667,10.5524 0.368,10.4044 0.333333333,10.4037333 C1.58133333,11.1517333 3.042,11.5924 4.602,11.5817333 C10.3213333,11.5450667 13.2586667,6.46973333 12.9093333,2.8264 C13.536,2.53373333 14.042,2.02773333 14.3333333,1.40173333" id="Fill-1"></path>
            </g>
        </g>
    </g>
</svg>