<?xml version="1.0" encoding="UTF-8"?>
<svg width="16px" height="16px" viewBox="0 0 16 16" version="1.1" xmlns="http://www.w3.org/2000/svg" xmlns:xlink="http://www.w3.org/1999/xlink">
    <!-- Generator: sketchtool 49.1 (51147) - http://www.bohemiancoding.com/sketch -->
    <title>social-linkedin-1-16</title>
    <desc>Created with sketchtool.</desc>
    <defs></defs>
    <g id="Icons" stroke="none" stroke-width="1" fill="none" fill-rule="evenodd">
        <g id="social-linkedin-1-16" fill="#000000">
            <path d="M13.6796667,1.33326667 L2.31766667,1.33326667 C1.775,1.33326667 1.333,1.76393333 1.333,2.29393333 L1.333,13.7046 C1.333,14.2352667 1.775,14.6659333 2.31766667,14.6659333 L13.6796667,14.6659333 C14.2236667,14.6659333 14.6663333,14.2352667 14.6663333,13.7046 L14.6663333,2.29393333 C14.6663333,1.76393333 14.2236667,1.33326667 13.6796667,1.33326667 L13.6796667,1.33326667 Z M3.31033333,12.6946 L5.28766667,12.6946 L5.28766667,6.33193333 L3.31033333,6.33193333 L3.31033333,12.6946 Z M4.29966667,5.46193333 C3.66566667,5.46193333 3.153,4.9486 3.153,4.31526667 C3.153,3.6826 3.66566667,3.16926667 4.29966667,3.16926667 C4.93166667,3.16926667 5.445,3.6826 5.445,4.31526667 C5.445,4.9486 4.93166667,5.46193333 4.29966667,5.46193333 L4.29966667,5.46193333 Z M12.6943333,12.6946 L10.719,12.6946 L10.719,9.59993333 C10.719,8.8626 10.705,7.91326667 9.69166667,7.91326667 C8.66233333,7.91326667 8.50366667,8.71726667 8.50366667,9.5466 L8.50366667,12.6946 L6.52833333,12.6946 L6.52833333,6.33193333 L8.425,6.33193333 L8.425,7.20126667 L8.45166667,7.20126667 C8.71566667,6.70126667 9.36033333,6.17393333 10.323,6.17393333 C12.3256667,6.17393333 12.6943333,7.49126667 12.6943333,9.2046 L12.6943333,12.6946 Z" id="Fill-1"></path>
        </g>
    </g>
</svg>