<?xml version="1.0" encoding="UTF-8"?>
<svg width="16px" height="16px" viewBox="0 0 16 16" version="1.1" xmlns="http://www.w3.org/2000/svg" xmlns:xlink="http://www.w3.org/1999/xlink">
    <!-- Generator: sketchtool 49.1 (51147) - http://www.bohemiancoding.com/sketch -->
    <title>sort-16</title>
    <desc>Created with sketchtool.</desc>
    <defs></defs>
    <g id="Icons" stroke="none" stroke-width="1" fill="none" fill-rule="evenodd">
        <g id="sort-16" fill="#222221" fill-rule="nonzero">
            <path d="M11.0355339,11.6213203 L11.0355339,6.98528137 C11.0355339,6.43299662 11.4832492,5.98528137 12.0355339,5.98528137 C12.5878187,5.98528137 13.0355339,6.43299662 13.0355339,6.98528137 L13.0355339,11.5502525 L14.2928932,10.2928932 C14.6834175,9.90236893 15.3165825,9.90236893 15.7071068,10.2928932 C16.0976311,10.6834175 16.0976311,11.3165825 15.7071068,11.7071068 L12,15.4142136 L8.29289322,11.7071068 C7.90236893,11.3165825 7.90236893,10.6834175 8.29289322,10.2928932 C8.68341751,9.90236893 9.31658249,9.90236893 9.70710678,10.2928932 L11.0355339,11.6213203 Z M2,4 C1.44771525,4 1,3.55228475 1,3 C1,2.44771525 1.44771525,2 2,2 L11,2 C11.5522847,2 12,2.44771525 12,3 C12,3.55228475 11.5522847,4 11,4 L2,4 Z M2,8 C1.44771525,8 1,7.55228475 1,7 C1,6.44771525 1.44771525,6 2,6 L7,6 C7.55228475,6 8,6.44771525 8,7 C8,7.55228475 7.55228475,8 7,8 L2,8 Z M4,10 C4.55228475,10 5,10.4477153 5,11 C5,11.5522847 4.55228475,12 4,12 L2,12 C1.44771525,12 1,11.5522847 1,11 C1,10.4477153 1.44771525,10 2,10 L4,10 Z" id="Combined-Shape"></path>
        </g>
    </g>
</svg>