<?xml version="1.0" encoding="UTF-8"?>
<svg width="16px" height="16px" viewBox="0 0 16 16" version="1.1" xmlns="http://www.w3.org/2000/svg" xmlns:xlink="http://www.w3.org/1999/xlink">
    <!-- Generator: sketchtool 44.1 (41455) - http://www.bohemiancoding.com/sketch -->
    <title>sound-on-16</title>
    <desc>Created with sketchtool.</desc>
    <defs></defs>
    <g id="Symbols" stroke="none" stroke-width="1" fill="none" fill-rule="evenodd">
        <g id="sound-on-16" fill-rule="nonzero" fill="#000000">
            <path d="M3.9,12 L4.9,12 C5.91188039,13.8976457 7.9102507,15.0594889 10.06,15 C10.5570563,15 10.96,14.5970563 10.96,14.1 L10.96,1.9 C10.9604761,1.41815474 10.5813694,1.02141512 10.1,1 C7.9502507,0.940511133 5.95188039,2.10235434 4.94,4 L3.94,4 C2.27,4 1,5.76 1,8 C1,10.24 2.27,12 3.9,12 Z M9.2,2.88 L9.2,13.12 C6.71,12.66 5.8,10.26 5.8,8 C5.8,5.74 6.71,3.34 9.2,2.88 Z M3.9,5.8 L4.25,5.8 C4.0800106,6.52087546 3.99609152,7.25936342 4,8 C3.99609152,8.74063658 4.0800106,9.47912454 4.25,10.2 L3.9,10.2 C3.45,10.2 2.8,9.34 2.8,8 C2.8,6.66 3.45,5.8 3.9,5.8 Z" id="Shape"></path>
            <path d="M13.36,3.36 L12.36,4.36 C12.0478032,4.71656775 12.0656172,5.25414791 12.4007346,5.58926535 C12.7358521,5.9243828 13.2734323,5.9421968 13.63,5.63 L14.63,4.63 C14.9421968,4.27343225 14.9243828,3.73585209 14.5892654,3.40073465 C14.2541479,3.0656172 13.7165677,3.0478032 13.36,3.36 L13.36,3.36 Z" id="Shape"></path>
            <path d="M14,12.9 C14.3662641,12.9029538 14.6977827,12.6836473 14.8383461,12.3454166 C14.9789096,12.0071858 14.9004749,11.6175092 14.64,11.36 L13.64,10.36 C13.2834323,10.0478032 12.7458521,10.0656172 12.4107346,10.4007346 C12.0756172,10.7358521 12.0578032,11.2734323 12.37,11.63 L13.37,12.63 C13.5361674,12.7995728 13.7626077,12.8966187 14,12.9 L14,12.9 Z" id="Shape"></path>
            <path d="M15,7.1 L13,7.1 C12.5029437,7.1 12.1,7.50294373 12.1,8 C12.1,8.49705627 12.5029437,8.9 13,8.9 L15,8.9 C15.4970563,8.9 15.9,8.49705627 15.9,8 C15.9,7.50294373 15.4970563,7.1 15,7.1 L15,7.1 Z" id="Shape"></path>
        </g>
    </g>
</svg>