<?xml version="1.0" encoding="UTF-8"?>
<svg width="16px" height="16px" viewBox="0 0 16 16" version="1.1" xmlns="http://www.w3.org/2000/svg" xmlns:xlink="http://www.w3.org/1999/xlink">
    <!-- Generator: sketchtool 44.1 (41455) - http://www.bohemiancoding.com/sketch -->
    <title>speech-bubble-2-16</title>
    <desc>Created with sketchtool.</desc>
    <defs></defs>
    <g id="Symbols" stroke="none" stroke-width="1" fill="none" fill-rule="evenodd">
        <g id="speech-bubble-2-16" fill-rule="nonzero" fill="#000000">
            <circle id="Oval" cx="5" cy="7" r="1"></circle>
            <circle id="Oval" cx="11" cy="7" r="1"></circle>
            <circle id="Oval" cx="8" cy="7" r="1"></circle>
            <path d="M2.13,13.76 C2.05214867,14.1013689 2.17934523,14.4569041 2.45607011,14.6714196 C2.732795,14.885935 3.10881402,14.9204893 3.42,14.76 L7,12.91 C7.33116686,12.9605236 7.66513377,12.9905806 8,13 C11.86,13 15,10.31 15,7 C15,3.69 11.86,1 8,1 C4.14,1 1,3.67 1,7 C1.02209364,8.56739462 1.70479829,10.0526404 2.88,11.09 L2.13,13.76 Z M2.8,7 C2.8,4.68 5.13,2.8 8,2.8 C10.87,2.8 13.2,4.66 13.2,7 C13.2,9.34 10.87,11.2 8,11.2 C7.64812701,11.1987806 7.29694784,11.1686795 6.95,11.11 C6.75527754,11.0758614 6.5547311,11.1075266 6.38,11.2 L4.38,12.2 L4.77,11 C4.88896296,10.6325345 4.7601951,10.2301349 4.45,10 C3.45995661,9.31410115 2.8490852,8.20342586 2.8,7 L2.8,7 Z" id="Shape"></path>
        </g>
    </g>
</svg>