<?xml version="1.0" encoding="UTF-8"?>
<svg width="16px" height="16px" viewBox="0 0 16 16" version="1.1" xmlns="http://www.w3.org/2000/svg" xmlns:xlink="http://www.w3.org/1999/xlink">
    <!-- Generator: sketchtool 49.1 (51147) - http://www.bohemiancoding.com/sketch -->
    <title>star-plus-16</title>
    <desc>Created with sketchtool.</desc>
    <defs></defs>
    <g id="Icons" stroke="none" stroke-width="1" fill="none" fill-rule="evenodd">
        <g id="star-plus-16" fill="#000000" fill-rule="nonzero">
            <path d="M3.92,9.88 L3.26,13.71 C3.18214867,14.0513689 3.30934523,14.4069041 3.58607011,14.6214196 C3.862795,14.835935 4.23881402,14.8704893 4.55,14.71 L6.4,13.78 C6.6875988,13.6353074 6.87615849,13.3481739 6.89465045,13.0267597 C6.91314241,12.7053456 6.75875729,12.3984813 6.48965045,12.2217597 C6.22054361,12.0450381 5.8775988,12.0253074 5.59,12.17 L5.33,12.3 L5.77,9.72 C5.82095319,9.42674611 5.72362242,9.12726682 5.51,8.92 L3.7,7.16 L6.2,6.8 C6.49561096,6.75654162 6.75038256,6.56920957 6.88,6.3 L8,4 L9.12,6.3 C9.25895058,6.58303232 9.53588235,6.77271161 9.85,6.8 L14.16,7.18 C14.4901339,7.22839699 14.8199506,7.09017894 15.0169442,6.82087577 C15.2139377,6.5515726 15.2457757,6.19538503 15.099667,5.8954135 C14.9535583,5.59544197 14.6534837,5.40092079 14.32,5.39 L10.52,5.06 L8.81,1.6 C8.63988335,1.31785127 8.33446559,1.14536069 8.005,1.14536069 C7.67553441,1.14536069 7.37011665,1.31785127 7.2,1.6 L5.48,5.08 L1.64,5.64 C1.29865244,5.68747308 1.01438738,5.92570537 0.907962403,6.25349429 C0.801537429,6.58128321 0.891642339,6.94106419 1.14,7.18 L3.92,9.88 Z" id="Shape"></path>
            <path d="M12.9,11.1 L12.9,9 C12.9,8.50294373 12.4970563,8.1 12,8.1 C11.5029437,8.1 11.1,8.50294373 11.1,9 L11.1,11.1 L9,11.1 C8.50294373,11.1 8.1,11.5029437 8.1,12 C8.1,12.4970563 8.50294373,12.9 9,12.9 L11.1,12.9 L11.1,15 C11.1,15.4970563 11.5029437,15.9 12,15.9 C12.4970563,15.9 12.9,15.4970563 12.9,15 L12.9,12.9 L15,12.9 C15.4970563,12.9 15.9,12.4970563 15.9,12 C15.9,11.5029437 15.4970563,11.1 15,11.1 L12.9,11.1 L12.9,11.1 Z" id="Shape"></path>
        </g>
    </g>
</svg>