<?xml version="1.0" encoding="UTF-8"?>
<svg width="16px" height="16px" viewBox="0 0 16 16" version="1.1" xmlns="http://www.w3.org/2000/svg" xmlns:xlink="http://www.w3.org/1999/xlink">
    <!-- Generator: sketchtool 44.1 (41455) - http://www.bohemiancoding.com/sketch -->
    <title>star-16</title>
    <desc>Created with sketchtool.</desc>
    <defs></defs>
    <g id="Symbols" stroke="none" stroke-width="1" fill="none" fill-rule="evenodd">
        <g id="star-16" fill-rule="nonzero" fill="#000000">
            <path d="M3.92,9.88 L3.26,13.71 C3.20035844,14.0490449 3.33934437,14.3924098 3.61802809,14.5945086 C3.8967118,14.7966075 4.26626579,14.8220312 4.57,14.66 L8,12.85 L11.43,14.66 C11.7337342,14.8220312 12.1032882,14.7966075 12.3819719,14.5945086 C12.6606556,14.3924098 12.7996416,14.0490449 12.74,13.71 L12.08,9.88 L14.86,7.17 C15.1083577,6.93106419 15.1984626,6.57128321 15.0920376,6.24349429 C14.9856126,5.91570537 14.7013476,5.67747308 14.36,5.63 L10.52,5.07 L8.81,1.6 C8.63988335,1.31785127 8.33446559,1.14536069 8.005,1.14536069 C7.67553441,1.14536069 7.37011665,1.31785127 7.2,1.6 L5.48,5.08 L1.64,5.64 C1.29865244,5.68747308 1.01438738,5.92570537 0.907962403,6.25349429 C0.801537429,6.58128321 0.891642339,6.94106419 1.14,7.18 L3.92,9.88 Z M6.2,6.79 C6.49353053,6.74861949 6.74786077,6.56535211 6.88,6.3 L8,4 L9.12,6.3 C9.25213923,6.56535211 9.50646947,6.74861949 9.8,6.79 L12.3,7.15 L10.49,8.92 C10.2763776,9.12726682 10.1790468,9.42674611 10.23,9.72 L10.66,12.21 L8.42,11 C8.15717157,10.8613199 7.84282843,10.8613199 7.58,11 L5.34,12.22 L5.77,9.72 C5.82095319,9.42674611 5.72362242,9.12726682 5.51,8.92 L3.7,7.16 L6.2,6.79 Z" id="Shape"></path>
        </g>
    </g>
</svg>