<?xml version="1.0" encoding="UTF-8"?>
<svg width="16px" height="16px" viewBox="0 0 16 16" version="1.1" xmlns="http://www.w3.org/2000/svg" xmlns:xlink="http://www.w3.org/1999/xlink">
    <!-- Generator: sketchtool 44.1 (41455) - http://www.bohemiancoding.com/sketch -->
    <title>tag-cross-16</title>
    <desc>Created with sketchtool.</desc>
    <defs></defs>
    <g id="Symbols" stroke="none" stroke-width="1" fill="none" fill-rule="evenodd">
        <g id="tag-cross-16" fill-rule="nonzero" fill="#000000">
            <path d="M5,15.9 C5.36626411,15.9029538 5.6977827,15.6836473 5.83834613,15.3454166 C5.97890956,15.0071858 5.90047486,14.6175092 5.64,14.36 L2.05,10.78 C2.02797919,10.7592183 2.01549834,10.7302786 2.01549834,10.7 C2.01549834,10.6697214 2.02797919,10.6407817 2.05,10.62 L9.13,3.12 C9.34269979,2.90996391 9.63112354,2.79459441 9.93,2.8 L13.2,2.8 L13.2,5.5 C13.2,5.99705627 13.6029437,6.4 14.1,6.4 C14.5970563,6.4 15,5.99705627 15,5.5 L15,1.9 C15,1.40294373 14.5970563,1 14.1,1 L9.93,1 C9.15116917,1.00027243 8.40518156,1.31380346 7.86,1.87 L0.78,9.36 C0.422764141,9.71644014 0.222004098,10.2003545 0.222004098,10.705 C0.222004098,11.2096455 0.422764141,11.6935599 0.78,12.05 L4.37,15.64 C4.53779624,15.8059033 4.76403609,15.8992722 5,15.9 L5,15.9 Z" id="Shape"></path>
            <circle id="Oval" cx="11" cy="5" r="1"></circle>
            <path d="M7.36,13.64 C7.7111501,13.9896145 8.2788499,13.9896145 8.63,13.64 L10,12.27 L11.36,13.63 C11.581195,13.8826323 11.9246331,13.9911195 12.2508147,13.9113957 C12.5769963,13.8316718 12.8316718,13.5769963 12.9113957,13.2508147 C12.9911195,12.9246331 12.8826323,12.581195 12.63,12.36 L11.27,11 L12.63,9.64 C12.9421968,9.28343225 12.9243828,8.74585209 12.5892654,8.41073465 C12.2541479,8.0756172 11.7165677,8.0578032 11.36,8.37 L10,9.73 L8.64,8.36 C8.28653776,8.00653777 7.71346225,8.00653777 7.36000001,8.36000001 C7.00653777,8.71346225 7.00653777,9.28653776 7.36,9.64 L8.73,11 L7.36,12.36 C7.1890016,12.5290671 7.09277168,12.7595335 7.09277168,13 C7.09277168,13.2404665 7.1890016,13.4709329 7.36,13.64 L7.36,13.64 Z" id="Shape"></path>
        </g>
    </g>
</svg>