<?xml version="1.0" encoding="UTF-8"?>
<svg width="16px" height="16px" viewBox="0 0 16 16" version="1.1" xmlns="http://www.w3.org/2000/svg" xmlns:xlink="http://www.w3.org/1999/xlink">
    <!-- Generator: sketchtool 44.1 (41455) - http://www.bohemiancoding.com/sketch -->
    <title>tag-16</title>
    <desc>Created with sketchtool.</desc>
    <defs></defs>
    <g id="Symbols" stroke="none" stroke-width="1" fill="none" fill-rule="evenodd">
        <g id="tag-16" fill-rule="nonzero" fill="#000000">
            <path d="M5.69,15.8 C6.18299699,15.7913594 6.65309862,15.5904 7,15.24 L14.12,8.12 C14.6768297,7.58264079 14.9939874,6.84380754 15,6.07 L15,1.9 C15,1.40294373 14.5970563,1 14.1,1 L9.93,1 C9.1605563,0.998109307 8.42235025,1.30419474 7.88,1.85 L0.76,9 C0.402764141,9.35644014 0.202004098,9.84035455 0.202004098,10.345 C0.202004098,10.8496455 0.402764141,11.3335599 0.76,11.69 L4.35,15.28 C4.71075292,15.6230439 5.19228156,15.8099057 5.69,15.8 L5.69,15.8 Z M2,10.24 L9.15,3.12 C9.35779618,2.91490159 9.63803321,2.79993255 9.93,2.8 L13.2,2.8 L13.2,6.07 C13.2000674,6.36196679 13.0850984,6.64220382 12.88,6.85 L5.76,14 C5.71935601,14.0335296 5.66064399,14.0335296 5.62,14 L2,10.39 C1.96062318,10.3477527 1.96062318,10.2822473 2,10.24 L2,10.24 Z" id="Shape"></path>
            <circle id="Oval" cx="11" cy="5" r="1"></circle>
        </g>
    </g>
</svg>