<?xml version="1.0" encoding="UTF-8"?>
<svg width="16px" height="16px" viewBox="0 0 16 16" version="1.1" xmlns="http://www.w3.org/2000/svg" xmlns:xlink="http://www.w3.org/1999/xlink">
    <!-- Generator: sketchtool 44.1 (41455) - http://www.bohemiancoding.com/sketch -->
    <title>thumbs-up-16</title>
    <desc>Created with sketchtool.</desc>
    <defs></defs>
    <g id="Symbols" stroke="none" stroke-width="1" fill="none" fill-rule="evenodd">
        <g id="thumbs-up-16" fill-rule="nonzero" fill="#000000">
            <path d="M6,14 L6.06,14 C6.54262038,14.0010124 7.01842612,14.1139735 7.45,14.33 L7.76,14.49 C8.4379388,14.8249344 9.18383747,14.9994337 9.94,15 L11.65,15 C13.4766049,15.0032034 15.0733509,13.7686061 15.53,12 L15.82,8.17 C15.8635227,7.34140789 15.5686958,6.53066326 15.0030905,5.92358026 C14.4374852,5.31649725 13.6495965,4.96512705 12.82,4.95 L11.9,4.95 L11.9,3.9 C11.9,2.29837423 10.6016258,1 9,1 L8.39,1 L6.39,5.94 C6.37782806,5.97020472 6.35171096,5.9925908 6.32,6 L1,6 L1,15 L6,15 L6,14 Z M6.32,7.8 C7.09883671,7.80592885 7.80155617,7.33347904 8.09,6.61 L9.55,2.95 C9.90543874,3.15471765 10.1174504,3.54019334 10.1,3.95 L10.1,6.8 L12.84,6.8 C13.5019794,6.85750784 14.0077253,7.41557228 14,8.08 L13.74,11.67 C13.4342833,12.5802523 12.5802163,13.1926023 11.62,13.19 L9.94,13.19 C9.45737962,13.1889876 8.98157388,13.0760265 8.55,12.86 L8.24,12.7 C7.55986579,12.3601082 6.81033179,12.1821366 6.05,12.18 L6,12.18 L6,7.8 L6.32,7.8 Z M2.8,7.8 L4.2,7.8 L4.2,12.71 C4.13697625,12.8305255 4.10274714,12.964019 4.1,13.1 C4.09801411,13.1333038 4.09801411,13.1666962 4.1,13.2 L2.8,13.2 L2.8,7.8 Z" id="Shape"></path>
        </g>
    </g>
</svg>