<?xml version="1.0" encoding="UTF-8"?>
<svg width="16px" height="16px" viewBox="0 0 16 16" version="1.1" xmlns="http://www.w3.org/2000/svg" xmlns:xlink="http://www.w3.org/1999/xlink">
    <!-- Generator: sketchtool 49.1 (51147) - http://www.bohemiancoding.com/sketch -->
    <title>transaction-16</title>
    <desc>Created with sketchtool.</desc>
    <defs></defs>
    <g id="Icons" stroke="none" stroke-width="1" fill="none" fill-rule="evenodd">
        <g id="transaction-16" fill="#000000" fill-rule="nonzero">
            <path d="M11.36,1.36 C11.0103855,1.7111501 11.0103855,2.2788499 11.36,2.63 L12.73,4 L9,4 C7.86531212,4.00202144 6.76505615,4.3899322 5.88,5.1 C5.54339305,5.422338 5.50854615,5.94832316 5.79968758,6.31224994 C6.090829,6.67617672 6.61163457,6.75763991 7,6.5 C7.56663718,6.04416399 8.27277565,5.79701552 9,5.8 L12.93,5.8 L11.36,7.36 C11.1073677,7.58119502 10.9988805,7.92463311 11.0786043,8.25081472 C11.1583282,8.57699634 11.4130037,8.8316718 11.7391853,8.91139567 C12.0653669,8.99111954 12.408805,8.88263235 12.63,8.63 L16.27,5 L12.64,1.36 C12.4709329,1.1890016 12.2404665,1.09277168 12,1.09277168 C11.7595335,1.09277168 11.5290671,1.1890016 11.36,1.36 Z" id="Shape"></path>
            <path d="M4,14.9 C4.36626411,14.9029538 4.6977827,14.6836473 4.83834613,14.3454166 C4.97890956,14.0071858 4.90047486,13.6175092 4.64,13.36 L3.27,12 L7,12 C8.13468788,11.9979786 9.23494385,11.6100678 10.12,10.9 C10.403904,10.7116593 10.5571213,10.3791524 10.5158376,10.040967 C10.4745538,9.70278162 10.2458468,9.41689791 9.92497213,9.30238523 C9.60409744,9.18787255 9.24606741,9.26436353 9,9.5 C8.43336282,9.95583601 7.72722435,10.2029845 7,10.2 L3.07,10.2 L4.64,8.64 C4.86864998,8.41135002 4.95794796,8.07808542 4.87425626,7.76574374 C4.79056456,7.45340206 4.54659794,7.20943544 4.23425626,7.12574374 C3.92191458,7.04205204 3.58864998,7.13135002 3.36,7.36 L-0.27,11 L3.37,14.64 C3.53779624,14.8059033 3.76403609,14.8992722 4,14.9 L4,14.9 Z" id="Shape"></path>
        </g>
    </g>
</svg>