<?xml version="1.0" encoding="UTF-8"?>
<svg width="16px" height="16px" viewBox="0 0 16 16" version="1.1" xmlns="http://www.w3.org/2000/svg" xmlns:xlink="http://www.w3.org/1999/xlink">
    <!-- Generator: sketchtool 44.1 (41455) - http://www.bohemiancoding.com/sketch -->
    <title>truck-cross-16</title>
    <desc>Created with sketchtool.</desc>
    <defs></defs>
    <g id="Symbols" stroke="none" stroke-width="1" fill="none" fill-rule="evenodd">
        <g id="truck-cross-16" fill-rule="nonzero" fill="#000000">
            <path d="M1.64,6.64 L3.5,4.77 L5.36,6.64 C5.58864998,6.86864998 5.92191458,6.95794797 6.23425626,6.87425627 C6.54659795,6.79056457 6.79056457,6.54659795 6.87425627,6.23425626 C6.95794797,5.92191458 6.86864998,5.58864998 6.64,5.36 L4.77,3.5 L6.64,1.64 C6.99346224,1.28653776 6.99346224,0.71346224 6.64,0.36 C6.28653776,0.00653776011 5.71346224,0.00653776011 5.36,0.36 L3.5,2.23 L1.64,0.36 C1.28653776,0.0065377691 0.713462246,0.00653777337 0.36000001,0.36000001 C0.00653777337,0.713462246 0.0065377691,1.28653776 0.36,1.64 L2.23,3.5 L0.36,5.36 C0.00653776011,5.71346224 0.00653776011,6.28653776 0.36,6.64 C0.71346224,6.99346224 1.28653776,6.99346224 1.64,6.64 L1.64,6.64 Z" id="Shape"></path>
            <path d="M12.1,5 L11,5 L11,4.9 C10.9460478,3.28232454 9.61857466,1.99910055 8,2 C7.50294373,2 7.1,2.40294373 7.1,2.9 C7.1,3.39705627 7.50294373,3.8 8,3.8 C8.62557548,3.79782438 9.14787218,4.27659635 9.2,4.9 L9.2,9 C9.2,9.49705627 9.60294373,9.9 10.1,9.9 C10.5970563,9.9 11,9.49705627 11,9 L11,6.8 L12,6.8 L12,9 L13.2,9 L13.2,11.2 L2.8,11.2 L2.8,9 C2.8,8.50294373 2.39705627,8.1 1.9,8.1 C1.40294373,8.1 1,8.50294373 1,9 L1,13 L3,13 C3,14.1045695 3.8954305,15 5,15 C6.1045695,15 7,14.1045695 7,13 L9,13 C9,14.1045695 9.8954305,15 11,15 C12.1045695,15 13,14.1045695 13,13 L15,13 L15,7.9 C15,6.29837423 13.7016258,5 12.1,5 L12.1,5 Z" id="Shape"></path>
        </g>
    </g>
</svg>