<?xml version="1.0" encoding="UTF-8"?>
<svg width="16px" height="16px" viewBox="0 0 16 16" version="1.1" xmlns="http://www.w3.org/2000/svg" xmlns:xlink="http://www.w3.org/1999/xlink">
    <!-- Generator: sketchtool 44.1 (41455) - http://www.bohemiancoding.com/sketch -->
    <title>truck-delivery-16</title>
    <desc>Created with sketchtool.</desc>
    <defs></defs>
    <g id="Symbols" stroke="none" stroke-width="1" fill="none" fill-rule="evenodd">
        <g id="truck-delivery-16" fill-rule="nonzero" fill="#000000">
            <path d="M13.39,5 L12.46,5 C12.5832819,4.26759429 12.3785178,3.51801164 11.9,2.95 C11.3816077,2.34087383 10.6198221,1.99294291 9.82,2 C9.32294373,2 8.92,2.40294373 8.92,2.9 C8.92,3.39705627 9.32294373,3.8 9.82,3.8 C10.0894225,3.78988391 10.3494607,3.89975919 10.53,4.1 C10.6793307,4.27716492 10.7383906,4.51340474 10.69,4.74 L10.51,5.74 L10.51,5.74 L10,8.84 C9.93898626,9.31434581 10.2596207,9.7535711 10.73,9.84 L10.85,9.84 C11.2869743,9.84210455 11.6623198,9.5300195 11.74,9.1 L12.15,6.8 L13.25,6.8 L12.9,9 L13.9,9 L13.51,11.2 L3.17,11.2 L3.53,9.2 C3.59430781,8.88381995 3.48505063,8.55734973 3.24338458,8.3435675 C3.00171853,8.12978528 2.66435843,8.06116967 2.35838457,8.1635675 C2.05241071,8.26596533 1.8243078,8.52381995 1.76,8.84 L1,13 L3,13 C2.8841694,13.4952504 3.00615528,14.0161833 3.32982949,14.4085157 C3.6535037,14.800848 4.14176255,15.0196057 4.65,15 C5.80181086,14.9575767 6.77396573,14.1302108 7,13 L9,13 C8.8841694,13.4952504 9.00615528,14.0161833 9.32982949,14.4085157 C9.6535037,14.800848 10.1417626,15.0196057 10.65,15 C11.8018109,14.9575767 12.7739657,14.1302108 13,13 L15,13 L15.87,8.06 C16.0172631,7.29559917 15.8196561,6.50517102 15.33,5.9 C14.8439713,5.33349045 14.1364111,5.00524087 13.39,5 L13.39,5 Z" id="Shape"></path>
            <path d="M2,4 L6.5,4 C7.05228475,4 7.5,3.55228475 7.5,3 C7.5,2.44771525 7.05228475,2 6.5,2 L2,2 C1.44771525,2 1,2.44771525 1,3 C1,3.55228475 1.44771525,4 2,4 L2,4 Z" id="Shape"></path>
            <path d="M2,7 L4,7 C4.55228475,7 5,6.55228475 5,6 C5,5.44771525 4.55228475,5 4,5 L2,5 C1.44771525,5 1,5.44771525 1,6 C1,6.55228475 1.44771525,7 2,7 L2,7 Z" id="Shape"></path>
        </g>
    </g>
</svg>