<?xml version="1.0" encoding="UTF-8"?>
<svg width="16px" height="16px" viewBox="0 0 16 16" version="1.1" xmlns="http://www.w3.org/2000/svg" xmlns:xlink="http://www.w3.org/1999/xlink">
    <!-- Generator: sketchtool 49.1 (51147) - http://www.bohemiancoding.com/sketch -->
    <title>truck-tick-16</title>
    <desc>Created with sketchtool.</desc>
    <defs></defs>
    <g id="Icons" stroke="none" stroke-width="1" fill="none" fill-rule="evenodd">
        <g id="truck-tick-16" fill="#000000" fill-rule="nonzero">
            <path d="M7.71,1.71 C7.96365857,1.45634143 8.06272352,1.08662601 7.96987804,0.740121963 C7.87703256,0.393617914 7.60638209,0.122967443 7.25987804,0.0301219633 C6.91337399,-0.0627235168 6.54365857,0.0363414312 6.29,0.29 L3,3.59 L1.71,2.29 C1.31787783,1.89787783 0.682122172,1.89787783 0.29,2.29 C-0.102122172,2.68212217 -0.102122172,3.31787783 0.29,3.71 L3,6.41 L7.71,1.71 Z" id="Shape"></path>
            <path d="M12.2,5 L11.1,5 L11.1,4.9 C11.0965651,4.43435029 10.9762158,3.97702315 10.75,3.57 C10.4418126,3.00792432 9.9616899,2.55934253 9.38,2.29 C8.93454672,2.10424422 8.42186603,2.30292509 8.21791481,2.74034678 C8.01396359,3.17776847 8.19135275,3.69819971 8.62,3.92 C8.85566538,4.02686266 9.0516262,4.20532698 9.18,4.43 C9.25796738,4.57444375 9.29917981,4.7358591 9.3,4.9 L9.3,9 C9.3,9.49705627 9.70294373,9.9 10.2,9.9 C10.6970563,9.9 11.1,9.49705627 11.1,9 L11.1,6.8 L12.1,6.8 L12.1,9 L13.3,9 L13.3,11.2 L2.9,11.2 L2.9,8 C2.9,7.50294373 2.49705627,7.1 2,7.1 C1.50294373,7.1 1.1,7.50294373 1.1,8 L1.1,13 L3.1,13 C3.10000002,14.1045695 3.99543051,15 5.1,15 C6.20456949,15 7.09999998,14.1045695 7.1,13 L9.1,13 C9.1,14.1045695 9.9954305,15 11.1,15 C12.2045695,15 13.1,14.1045695 13.1,13 L15.1,13 L15.1,7.9 C15.1,6.29837423 13.8016258,5 12.2,5 L12.2,5 Z" id="Shape"></path>
        </g>
    </g>
</svg>