<?xml version="1.0" encoding="UTF-8"?>
<svg width="16px" height="16px" viewBox="0 0 16 16" version="1.1" xmlns="http://www.w3.org/2000/svg" xmlns:xlink="http://www.w3.org/1999/xlink">
    <!-- Generator: sketchtool 49.1 (51147) - http://www.bohemiancoding.com/sketch -->
    <title>video-forward-16</title>
    <desc>Created with sketchtool.</desc>
    <defs></defs>
    <g id="Icons" stroke="none" stroke-width="1" fill="none" fill-rule="evenodd">
        <g id="video-forward-16" fill="#000000" fill-rule="nonzero">
            <path d="M2.49,12.87 C2.18981447,13.0395726 1.82344942,13.0425531 1.52054476,12.8778868 C1.2176401,12.7132205 1.02092198,12.4041344 1,12.06 L1,3.94 C1.02092198,3.59586559 1.2176401,3.28677949 1.52054476,3.1221132 C1.82344942,2.95744691 2.18981447,2.96042739 2.49,3.13 L8.55,7.19 C8.84285056,7.35202933 9.02460692,7.66031365 9.02460692,7.995 C9.02460692,8.32968635 8.84285056,8.63797067 8.55,8.8 L2.49,12.87 Z M12.93,8.08 L8.21,4.91 C7.89105353,4.72144463 7.70250337,4.37199371 7.72002173,4.00189497 C7.7375401,3.63179622 7.95825533,3.30171759 8.29358614,3.14413198 C8.62891695,2.98654638 9.02389468,3.0272858 9.32,3.25 L14.1,6.44 C14.6745629,6.78121322 15.0248182,7.40177412 15.02,8.07 C15.0166045,8.76750173 14.6332602,9.40768675 14.02,9.74 L9.55,12.74 C9.25389468,12.9627142 8.85891695,13.0034536 8.52358614,12.845868 C8.18825533,12.6882824 7.9675401,12.3582038 7.95002173,11.988105 C7.93250337,11.6180063 8.12105353,11.2685554 8.44,11.08 L12.93,8.08 Z" id="Combined-Shape"></path>
        </g>
    </g>
</svg>