<?xml version="1.0" encoding="UTF-8"?>
<svg width="16px" height="16px" viewBox="0 0 16 16" version="1.1" xmlns="http://www.w3.org/2000/svg" xmlns:xlink="http://www.w3.org/1999/xlink">
    <!-- Generator: sketchtool 44.1 (41455) - http://www.bohemiancoding.com/sketch -->
    <title>view-selection-16</title>
    <desc>Created with sketchtool.</desc>
    <defs></defs>
    <g id="Symbols" stroke="none" stroke-width="1" fill="none" fill-rule="evenodd">
        <g id="view-selection-16" fill-rule="nonzero" fill="#000000">
            <path d="M5.55,1 L2.45,1 C1.67680135,1 1.05,1.62680135 1.05,2.4 L1.05,5.5 C1.02219173,5.88830356 1.15732115,6.27065174 1.4229463,6.55525012 C1.68857145,6.83984849 2.06070324,7.00099447 2.45,7 L5.55,7 C5.92130309,7 6.27739856,6.85250042 6.53994949,6.58994949 C6.80250042,6.32739856 6.95,5.97130309 6.95,5.6 L6.95,2.45 C6.96357618,2.07011169 6.82209198,1.70103406 6.5580552,1.4275674 C6.29401842,1.15410073 5.93013074,0.99975749 5.55,1 L5.55,1 Z M5.15,5.1 L2.85,5.1 L2.85,2.85 L5.15,2.85 L5.15,5.15 L5.15,5.1 Z" id="Shape"></path>
            <path d="M5.55,9 L2.45,9 C1.67680135,9 1.05,9.62680135 1.05,10.4 L1.05,13.5 C1.02219173,13.8883036 1.15732115,14.2706517 1.4229463,14.5552501 C1.68857145,14.8398485 2.06070324,15.0009945 2.45,15 L5.55,15 C5.92130309,15 6.27739856,14.8525004 6.53994949,14.5899495 C6.80250042,14.3273986 6.95,13.9713031 6.95,13.6 L6.95,10.5 C6.97780827,10.1116964 6.84267885,9.72934826 6.5770537,9.44474988 C6.31142855,9.16015151 5.93929676,8.99900553 5.55,9 Z M5.15,13.1 L2.85,13.1 L2.85,10.8 L5.15,10.8 L5.15,13.1 L5.15,13.1 Z" id="Shape"></path>
            <path d="M13.55,9 L10.45,9 C9.67680135,9 9.05,9.62680135 9.05,10.4 L9.05,13.5 C9.05,14.2731986 9.67680135,14.9 10.45,14.9 L13.55,14.9 C14.3231986,14.9 14.95,14.2731986 14.95,13.5 L14.95,10.4 C14.95,9.62680135 14.3231986,9 13.55,9 L13.55,9 Z M13.15,13.1 L10.85,13.1 L10.85,10.8 L13.15,10.8 L13.15,13.1 L13.15,13.1 Z" id="Shape"></path>
            <path d="M14.29,1.29 L11,4.59 L9.71,3.29 C9.31787783,2.89787784 8.68212218,2.89787784 8.29000001,3.29000001 C7.89787784,3.68212218 7.89787784,4.31787783 8.29,4.71 L11,7.41 L15.71,2.7 C16.0993607,2.30787783 16.0971222,1.67436076 15.705,1.28500001 C15.3128778,0.895639272 14.6793608,0.897877842 14.29,1.29 L14.29,1.29 Z" id="Shape"></path>
        </g>
    </g>
</svg>