<?xml version="1.0" encoding="UTF-8"?>
<svg width="16px" height="16px" viewBox="0 0 16 16" version="1.1" xmlns="http://www.w3.org/2000/svg" xmlns:xlink="http://www.w3.org/1999/xlink">
    <!-- Generator: sketchtool 49.1 (51147) - http://www.bohemiancoding.com/sketch -->
    <title>view-gallery-framed-16</title>
    <desc>Created with sketchtool.</desc>
    <defs></defs>
    <g id="Icons" stroke="none" stroke-width="1" fill="none" fill-rule="evenodd">
        <g id="view-gallery-framed-16" fill="#000000" fill-rule="nonzero">
            <path d="M13.1,1 L2.9,1 C1.85065898,1 1,1.85065898 1,2.9 L1,13.1 C1,14.149341 1.85065898,15 2.9,15 L13.1,15 C14.149341,15 15,14.149341 15,13.1 L15,2.9 C15,1.85065898 14.149341,1 13.1,1 L13.1,1 Z M13.2,13.1 C13.2,13.1552285 13.1552285,13.2 13.1,13.2 L2.9,13.2 C2.84477153,13.2 2.8,13.1552285 2.8,13.1 L2.8,2.9 C2.8,2.84477153 2.84477153,2.8 2.9,2.8 L13.1,2.8 C13.1552285,2.8 13.2,2.84477153 13.2,2.9 L13.2,13.1 L13.2,13.1 Z" id="Shape"></path>
            <rect id="Rectangle-path" x="4" y="4" width="3" height="3" rx="0.5"></rect>
            <rect id="Rectangle-path" x="9" y="4" width="3" height="3" rx="0.5"></rect>
            <rect id="Rectangle-path" x="4" y="9" width="3" height="3" rx="0.5"></rect>
            <rect id="Rectangle-path" x="9" y="9" width="3" height="3" rx="0.5"></rect>
        </g>
    </g>
</svg>