<?xml version="1.0" encoding="UTF-8"?>
<svg width="16px" height="16px" viewBox="0 0 16 16" version="1.1" xmlns="http://www.w3.org/2000/svg" xmlns:xlink="http://www.w3.org/1999/xlink">
    <!-- Generator: sketchtool 49.1 (51147) - http://www.bohemiancoding.com/sketch -->
    <title>view-reduce-16</title>
    <desc>Created with sketchtool.</desc>
    <defs></defs>
    <g id="Icons" stroke="none" stroke-width="1" fill="none" fill-rule="evenodd">
        <g id="view-reduce-16" fill="#000000" fill-rule="nonzero">
            <path d="M2.9,15 L11.1,15 C12.149341,15 13,14.149341 13,13.1 L13,10.59 C13,10.0929437 12.5970563,9.69 12.1,9.69 C11.6029437,9.69 11.2,10.0929437 11.2,10.59 L11.2,13.1 C11.2,13.1552285 11.1552285,13.2 11.1,13.2 L2.9,13.2 C2.84477153,13.2 2.8,13.1552285 2.8,13.1 L2.8,4.9 C2.8,4.84477153 2.84477153,4.8 2.9,4.8 L5.33,4.8 C5.82705627,4.79999999 6.22999998,4.39705627 6.22999998,3.9 C6.22999998,3.40294373 5.82705627,3.00000001 5.33,3 L2.9,3 C1.85065898,3 1,3.85065898 1,4.9 L1,13.1 C1,14.149341 1.85065898,15 2.9,15 L2.9,15 Z" id="Shape"></path>
            <path d="M14.36,0.35 L10.8,3.92 L10.8,2 C10.8,1.50294373 10.3970563,1.1 9.9,1.1 C9.40294373,1.1 9,1.50294373 9,2 L9,7 L14,7 C14.4970563,7 14.9,6.59705627 14.9,6.1 C14.9,5.60294373 14.4970563,5.2 14,5.2 L12.07,5.2 L15.63,1.64 C15.9862237,1.28929918 15.9907008,0.716223664 15.64,0.36 C15.2892992,0.00377633636 14.7162237,-0.000700816143 14.36,0.35 L14.36,0.35 Z" id="Shape"></path>
        </g>
    </g>
</svg>