<?xml version="1.0" encoding="UTF-8"?>
<svg width="16px" height="16px" viewBox="0 0 16 16" version="1.1" xmlns="http://www.w3.org/2000/svg" xmlns:xlink="http://www.w3.org/1999/xlink">
    <!-- Generator: sketchtool 44.1 (41455) - http://www.bohemiancoding.com/sketch -->
    <title>window-multi-16</title>
    <desc>Created with sketchtool.</desc>
    <defs></defs>
    <g id="Symbols" stroke="none" stroke-width="1" fill="none" fill-rule="evenodd">
        <g id="window-multi-16" fill-rule="nonzero" fill="#000000">
            <path d="M14.1,3 L4.9,3 C3.85065898,3 3,3.85065898 3,4.9 L3,14.1 C3,14.6039113 3.200178,15.0871838 3.55649712,15.4435029 C3.91281623,15.799822 4.39608867,16 4.9,16 L14.1,16 C15.149341,16 16,15.149341 16,14.1 L16,4.9 C16,3.85065898 15.149341,3 14.1,3 L14.1,3 Z M4.9,4.8 L14.1,4.8 C14.1552285,4.8 14.2,4.84477153 14.2,4.9 L14.2,9.2 L4.8,9.2 L4.8,4.9 C4.8,4.84477153 4.84477153,4.8 4.9,4.8 L4.9,4.8 Z M14.1,14.2 L4.9,14.2 C4.84477153,14.2 4.8,14.1552285 4.8,14.1 L4.8,11 L14.2,11 L14.2,14.1 C14.2,14.1552285 14.1552285,14.2 14.1,14.2 L14.1,14.2 Z" id="Shape"></path>
            <path d="M0.9,11 C1.39705627,11 1.8,10.5970563 1.8,10.1 L1.8,2.9 C1.8,2.29248678 2.29248678,1.8 2.9,1.8 L10.1,1.8 C10.5970563,1.8 11,1.39705627 11,0.9 C11,0.402943725 10.5970563,3.04359188e-17 10.1,0 L2.9,0 C1.29837423,-9.80712939e-17 1.96142588e-16,1.29837423 0,2.9 L0,10.1 C6.08718376e-17,10.5970563 0.402943725,11 0.9,11 L0.9,11 Z" id="Shape"></path>
            <circle id="Oval" cx="7" cy="7" r="1"></circle>
            <path d="M10,8 L12,8 C12.5522847,8 13,7.55228475 13,7 C13,6.44771525 12.5522847,6 12,6 L10,6 C9.44771525,6 9,6.44771525 9,7 C9,7.55228475 9.44771525,8 10,8 Z" id="Shape"></path>
        </g>
    </g>
</svg>