<?xml version="1.0" encoding="UTF-8"?>
<svg width="16px" height="16px" viewBox="0 0 16 16" version="1.1" xmlns="http://www.w3.org/2000/svg" xmlns:xlink="http://www.w3.org/1999/xlink">
    <!-- Generator: sketchtool 44.1 (41455) - http://www.bohemiancoding.com/sketch -->
    <title>wrench-16</title>
    <desc>Created with sketchtool.</desc>
    <defs></defs>
    <g id="Symbols" stroke="none" stroke-width="1" fill="none" fill-rule="evenodd">
        <g id="wrench-16" fill-rule="nonzero" fill="#000000">
            <path d="M2.41,15.9 C3.02542271,15.900845 3.61574086,15.6560789 4.05,15.22 L9.6,9.67 C10.0529372,9.81459659 10.5246079,9.89208536 11,9.9 C11.2578112,9.89941477 11.51521,9.87935772 11.77,9.84 C13.9262397,9.4932856 15.5958523,7.76666185 15.87,5.6 C15.971741,4.8267958 15.5695532,4.07470464 14.87,3.73 C14.1415571,3.36851251 13.2635468,3.51350504 12.69,4.09 L11.82,4.96 C11.6895981,5.09040194 11.4995331,5.1413297 11.3214007,5.09359928 C11.1432684,5.04586886 11.0041311,4.90673164 10.9564007,4.72859928 C10.9086703,4.55046691 10.9595981,4.36040194 11.09,4.23 L11.96,3.36 C12.536495,2.78645325 12.6814875,1.90844294 12.32,1.18 C11.9752954,0.480446806 11.2232042,0.078259021 10.45,0.18 L10.33,0.18 C8.20285159,0.470685277 6.51265469,2.11224342 6.16,4.23 C6.04865842,4.95883818 6.09988152,5.70328063 6.31,6.41 L0.78,11.95 C0.115061919,12.6095871 -0.0857967509,13.6053952 0.271470415,14.4711654 C0.628737582,15.3369355 1.47341254,15.9012956 2.41,15.9 Z M7.94,4.5 C8.16386907,3.16595124 9.22188578,2.12812569 10.56,1.93 L10.62,1.93 L10.51,1 L10.65,2.05 L9.78,2.92 C9.19587076,3.50412924 8.96774232,4.35551615 9.18154846,5.15345154 C9.39535461,5.95138692 10.0186131,6.57464539 10.8165485,6.78845154 C11.6144838,7.00225768 12.4658708,6.77412924 13.05,6.19 L14,5.33 L14.07,5.43 C13.8131876,7.12275276 12.2327528,8.28681241 10.54,8.03 C8.84724724,7.77318759 7.68318759,6.19275276 7.94,4.5 L7.94,4.5 Z M2.05,13.22 L7.19,8.08 C7.29652671,8.21578065 7.41001194,8.34595489 7.53,8.47 C7.65741527,8.58698302 7.79093552,8.69713723 7.93,8.8 L2.78,13.95 C2.57841606,14.1515839 2.25158394,14.1515839 2.05000001,13.95 C1.84841608,13.7484161 1.84841608,13.4215839 2.05,13.22 L2.05,13.22 Z" id="Shape"></path>
        </g>
    </g>
</svg>