<?xml version="1.0" encoding="UTF-8"?>
<svg width="16px" height="16px" viewBox="0 0 16 16" version="1.1" xmlns="http://www.w3.org/2000/svg" xmlns:xlink="http://www.w3.org/1999/xlink">
    <!-- Generator: sketchtool 49.1 (51147) - http://www.bohemiancoding.com/sketch -->
    <title>zoom-in-16</title>
    <desc>Created with sketchtool.</desc>
    <defs></defs>
    <g id="Icons" stroke="none" stroke-width="1" fill="none" fill-rule="evenodd">
        <g id="zoom-in-16" fill="#000000" fill-rule="nonzero">
            <path d="M11.83,10.55 C13.6924161,8.02315484 13.292378,4.48787118 10.9124275,2.44107471 C8.532477,0.394278229 4.97714118,0.527875426 2.7575083,2.7475083 C0.537875426,4.96714118 0.404278229,8.522477 2.45107471,10.9024275 C4.49787118,13.282378 8.03315484,13.6824161 10.56,11.82 L14.37,15.63 C14.7265677,15.9421968 15.2641479,15.9243828 15.5992654,15.5892654 C15.9343828,15.2541479 15.9521968,14.7165677 15.64,14.36 L11.83,10.55 Z M7,11.2 C4.68040405,11.2 2.8,9.31959595 2.8,7 C2.8,4.68040405 4.68040405,2.8 7,2.8 C9.31959595,2.8 11.2,4.68040405 11.2,7 C11.2,8.11390926 10.7575013,9.18219569 9.96984848,9.96984848 C9.18219569,10.7575013 8.11390926,11.2 7,11.2 Z" id="Shape"></path>
            <path d="M9.12,6.1 L7.9,6.1 L7.9,4.88 C7.9,4.38294373 7.49705627,3.98 7,3.98 C6.50294373,3.98 6.1,4.38294373 6.1,4.88 L6.1,6.1 L4.88,6.1 C4.38294374,6.10000001 3.98000003,6.50294374 3.98000003,7 C3.98000003,7.49705626 4.38294374,7.89999999 4.88,7.9 L6.1,7.9 L6.1,9.12 C6.09999999,9.44153904 6.27153902,9.73865336 6.54999999,9.89942289 C6.82846097,10.0601924 7.17153903,10.0601924 7.45000001,9.89942289 C7.72846098,9.73865336 7.90000001,9.44153904 7.9,9.12 L7.9,7.9 L9.12,7.9 C9.61705627,7.9 10.02,7.49705627 10.02,7 C10.02,6.50294373 9.61705627,6.1 9.12,6.1 L9.12,6.1 Z" id="Shape"></path>
        </g>
    </g>
</svg>