<?xml version="1.0" encoding="UTF-8"?>
<svg width="24px" height="24px" viewBox="0 0 24 24" version="1.1" xmlns="http://www.w3.org/2000/svg" xmlns:xlink="http://www.w3.org/1999/xlink">
    <!-- Generator: sketchtool 44.1 (41455) - http://www.bohemiancoding.com/sketch -->
    <title>android</title>
    <desc>Created with sketchtool.</desc>
    <defs></defs>
    <g id="Symbols" stroke="none" stroke-width="1" fill="none" fill-rule="evenodd">
        <g id="android" fill="#000000">
            <path d="M9.57830256,4.95432692 C9.68992661,4.84375 9.74573864,4.71153846 9.74573864,4.55769231 C9.74573864,4.40384615 9.68992661,4.27163462 9.57830256,4.16105769 C9.4666785,4.05048077 9.33321496,3.99519231 9.17791193,3.99519231 C9.0226089,3.99519231 8.89157197,4.05048077 8.78480114,4.16105769 C8.6780303,4.27163462 8.62464489,4.40384615 8.62464489,4.55769231 C8.62464489,4.71153846 8.6780303,4.84375 8.78480114,4.95432692 C8.89157197,5.06490385 9.0226089,5.12019231 9.17791193,5.12019231 C9.33321496,5.12019231 9.4666785,5.06490385 9.57830256,4.95432692 Z M15.7151989,4.95432692 C15.8219697,4.84375 15.8753551,4.71153846 15.8753551,4.55769231 C15.8753551,4.40384615 15.8219697,4.27163462 15.7151989,4.16105769 C15.608428,4.05048077 15.4773911,3.99519231 15.3220881,3.99519231 C15.166785,3.99519231 15.0333215,4.05048077 14.9216974,4.16105769 C14.8100734,4.27163462 14.7542614,4.40384615 14.7542614,4.55769231 C14.7542614,4.71153846 14.8100734,4.84375 14.9216974,4.95432692 C15.0333215,5.06490385 15.166785,5.12019231 15.3220881,5.12019231 C15.4773911,5.12019231 15.608428,5.06490385 15.7151989,4.95432692 Z M4.54794034,8.20673077 C4.83913352,8.49519231 4.98473011,8.84134615 4.98473011,9.24519231 L4.98473011,15.4471154 C4.98473011,15.8605769 4.84156013,16.2115385 4.55522017,16.5 C4.26888021,16.7884615 3.91702178,16.9326923 3.49964489,16.9326923 C3.08226799,16.9326923 2.72798295,16.7884615 2.43678977,16.5 C2.14559659,16.2115385 2,15.8605769 2,15.4471154 L2,9.24519231 C2,8.84134615 2.14559659,8.49519231 2.43678977,8.20673077 C2.72798295,7.91826923 3.08226799,7.77403846 3.49964489,7.77403846 C3.90731534,7.77403846 4.25674716,7.91826923 4.54794034,8.20673077 Z M18.9328835,17.6538462 C18.9328835,18.0961538 18.7775805,18.4711538 18.4669744,18.7788462 C18.1563684,19.0865385 17.7826705,19.2403846 17.3458807,19.2403846 L16.2539062,19.2403846 L16.2539062,22.5144231 C16.2539062,22.9278846 16.1083097,23.2788462 15.8171165,23.5673077 C15.5259233,23.8557692 15.1716383,24 14.7542614,24 C14.3368845,24 13.9825994,23.8557692 13.6914062,23.5673077 C13.4002131,23.2788462 13.2546165,22.9278846 13.2546165,22.5144231 L13.2546165,19.2403846 L11.2453835,19.2403846 L11.2453835,22.5144231 C11.2453835,22.9278846 11.0997869,23.2788462 10.8085938,23.5673077 C10.5174006,23.8557692 10.1631155,24 9.74573864,24 C9.33806818,24 8.98863636,23.8557692 8.69744318,23.5673077 C8.40625,23.2788462 8.26065341,22.9278846 8.26065341,22.5144231 L8.24609375,19.2403846 L7.16867898,19.2403846 C6.72218277,19.2403846 6.34363163,19.0865385 6.03302557,18.7788462 C5.72241951,18.4711538 5.56711648,18.0961538 5.56711648,17.6538462 L5.56711648,8.04807692 L18.9328835,8.04807692 L18.9328835,17.6538462 Z M15.5550426,2.20673077 C16.5936316,2.73557692 17.4235322,3.47355769 18.0447443,4.42067308 C18.6659564,5.36778846 18.9765625,6.40384615 18.9765625,7.52884615 L5.50887784,7.52884615 C5.50887784,6.40384615 5.8194839,5.36778846 6.44069602,4.42067308 C7.06190814,3.47355769 7.89666193,2.73557692 8.94495739,2.20673077 L7.91122159,0.317307692 C7.84327652,0.192307692 7.86754261,0.0961538462 7.98401989,0.0288461538 C8.1102036,-0.0288461538 8.20726799,0 8.27521307,0.115384615 L9.32350852,2.01923077 C10.2456203,1.61538462 11.2211174,1.41346154 12.25,1.41346154 C13.2788826,1.41346154 14.2543797,1.61538462 15.1764915,2.01923077 L16.2247869,0.115384615 C16.292732,0 16.3897964,-0.0288461538 16.5159801,0.0288461538 C16.6324574,0.0961538462 16.6567235,0.192307692 16.5887784,0.317307692 L15.5550426,2.20673077 Z M22.5,15.4471154 C22.5,15.8605769 22.3544034,16.2115385 22.0632102,16.5 C21.772017,16.7884615 21.417732,16.9326923 21.0003551,16.9326923 C20.5926847,16.9326923 20.2432528,16.7884615 19.9520597,16.5 C19.6608665,16.2115385 19.5152699,15.8605769 19.5152699,15.4471154 L19.5152699,9.24519231 C19.5152699,8.83173077 19.6608665,8.48317308 19.9520597,8.19951923 C20.2432528,7.91586538 20.5926847,7.77403846 21.0003551,7.77403846 C21.417732,7.77403846 21.772017,7.91586538 22.0632102,8.19951923 C22.3544034,8.48317308 22.5,8.83173077 22.5,9.24519231 L22.5,15.4471154 Z" id="Shape"></path>
        </g>
    </g>
</svg>