<?xml version="1.0" encoding="UTF-8"?>
<svg width="16px" height="16px" viewBox="0 0 16 16" version="1.1" xmlns="http://www.w3.org/2000/svg" xmlns:xlink="http://www.w3.org/1999/xlink">
    <!-- Generator: sketchtool 44.1 (41455) - http://www.bohemiancoding.com/sketch -->
    <title>android-16</title>
    <desc>Created with sketchtool.</desc>
    <defs></defs>
    <g id="Symbols" stroke="none" stroke-width="1" fill="none" fill-rule="evenodd">
        <g id="android-16" fill="#000000">
            <g id="Group-2" transform="translate(1.000000, 0.000000)">
                <path d="M5.38553504,3.30288462 C5.45995107,3.22916667 5.49715909,3.14102564 5.49715909,3.03846154 C5.49715909,2.93589744 5.45995107,2.84775641 5.38553504,2.77403846 C5.311119,2.70032051 5.22214331,2.66346154 5.11860795,2.66346154 C5.0150726,2.66346154 4.92771465,2.70032051 4.85653409,2.77403846 C4.78535354,2.84775641 4.74976326,2.93589744 4.74976326,3.03846154 C4.74976326,3.14102564 4.78535354,3.22916667 4.85653409,3.30288462 C4.92771465,3.37660256 5.0150726,3.41346154 5.11860795,3.41346154 C5.22214331,3.41346154 5.311119,3.37660256 5.38553504,3.30288462 Z M9.47679924,3.30288462 C9.5479798,3.22916667 9.58357008,3.14102564 9.58357008,3.03846154 C9.58357008,2.93589744 9.5479798,2.84775641 9.47679924,2.77403846 C9.40561869,2.70032051 9.31826073,2.66346154 9.21472538,2.66346154 C9.11119003,2.66346154 9.02221433,2.70032051 8.9477983,2.77403846 C8.87338226,2.84775641 8.83617424,2.93589744 8.83617424,3.03846154 C8.83617424,3.14102564 8.87338226,3.22916667 8.9477983,3.30288462 C9.02221433,3.37660256 9.11119003,3.41346154 9.21472538,3.41346154 C9.31826073,3.41346154 9.40561869,3.37660256 9.47679924,3.30288462 Z M2.03196023,5.47115385 C2.22608902,5.66346154 2.32315341,5.89423077 2.32315341,6.16346154 L2.32315341,10.2980769 C2.32315341,10.5737179 2.22770676,10.8076923 2.03681345,11 C1.84592014,11.1923077 1.61134785,11.2884615 1.33309659,11.2884615 C1.05484533,11.2884615 0.818655303,11.1923077 0.624526515,11 C0.430397727,10.8076923 0.333333333,10.5737179 0.333333333,10.2980769 L0.333333333,6.16346154 C0.333333333,5.89423077 0.430397727,5.66346154 0.624526515,5.47115385 C0.818655303,5.27884615 1.05484533,5.18269231 1.33309659,5.18269231 C1.60487689,5.18269231 1.83783144,5.27884615 2.03196023,5.47115385 Z M11.6219223,11.7692308 C11.6219223,12.0641026 11.518387,12.3141026 11.3113163,12.5192308 C11.1042456,12.724359 10.8551136,12.8269231 10.5639205,12.8269231 L9.8359375,12.8269231 L9.8359375,15.0096154 C9.8359375,15.2852564 9.73887311,15.5192308 9.54474432,15.7115385 C9.35061553,15.9038462 9.11442551,16 8.83617424,16 C8.55792298,16 8.32173295,15.9038462 8.12760417,15.7115385 C7.93347538,15.5192308 7.83641098,15.2852564 7.83641098,15.0096154 L7.83641098,12.8269231 L6.49692235,12.8269231 L6.49692235,15.0096154 C6.49692235,15.2852564 6.39985795,15.5192308 6.20572917,15.7115385 C6.01160038,15.9038462 5.77541035,16 5.49715909,16 C5.22537879,16 4.99242424,15.9038462 4.79829545,15.7115385 C4.60416667,15.5192308 4.50710227,15.2852564 4.50710227,15.0096154 L4.49739583,12.8269231 L3.77911932,12.8269231 C3.48145518,12.8269231 3.22908775,12.724359 3.02201705,12.5192308 C2.81494634,12.3141026 2.71141098,12.0641026 2.71141098,11.7692308 L2.71141098,5.36538462 L11.6219223,5.36538462 L11.6219223,11.7692308 Z M9.37002841,1.47115385 C10.0624211,1.82371795 10.6156881,2.31570513 11.0298295,2.94711538 C11.443971,3.57852564 11.6510417,4.26923077 11.6510417,5.01923077 L2.67258523,5.01923077 C2.67258523,4.26923077 2.87965593,3.57852564 3.29379735,2.94711538 C3.70793876,2.31570513 4.26444129,1.82371795 4.96330492,1.47115385 L4.27414773,0.211538462 C4.22885101,0.128205128 4.24502841,0.0641025641 4.32267992,0.0192307692 C4.4068024,-0.0192307692 4.47151199,0 4.51680871,0.0769230769 L5.21567235,1.34615385 C5.83041351,1.07692308 6.48074495,0.942307692 7.16666667,0.942307692 C7.85258838,0.942307692 8.50291982,1.07692308 9.11766098,1.34615385 L9.81652462,0.0769230769 C9.86182134,0 9.92653093,-0.0192307692 10.0106534,0.0192307692 C10.0883049,0.0641025641 10.1044823,0.128205128 10.0591856,0.211538462 L9.37002841,1.47115385 Z M14,10.2980769 C14,10.5737179 13.9029356,10.8076923 13.7088068,11 C13.514678,11.1923077 13.278488,11.2884615 13.0002367,11.2884615 C12.7284564,11.2884615 12.4955019,11.1923077 12.3013731,11 C12.1072443,10.8076923 12.0101799,10.5737179 12.0101799,10.2980769 L12.0101799,6.16346154 C12.0101799,5.88782051 12.1072443,5.65544872 12.3013731,5.46634615 C12.4955019,5.27724359 12.7284564,5.18269231 13.0002367,5.18269231 C13.278488,5.18269231 13.514678,5.27724359 13.7088068,5.46634615 C13.9029356,5.65544872 14,5.88782051 14,6.16346154 L14,10.2980769 Z" id="Shape"></path>
            </g>
        </g>
    </g>
</svg>