<?xml version="1.0" encoding="UTF-8"?>
<svg width="16px" height="16px" viewBox="0 0 16 16" version="1.1" xmlns="http://www.w3.org/2000/svg" xmlns:xlink="http://www.w3.org/1999/xlink">
    <!-- Generator: sketchtool 49.1 (51147) - http://www.bohemiancoding.com/sketch -->
    <title>android-16</title>
    <desc>Created with sketchtool.</desc>
    <defs></defs>
    <g id="Icons" stroke="none" stroke-width="1" fill="none" fill-rule="evenodd">
        <g id="android-16" fill="#000000">
            <path d="M6.38553504,3.30288462 C6.45995107,3.22916667 6.49715909,3.14102564 6.49715909,3.03846154 C6.49715909,2.93589744 6.45995107,2.84775641 6.38553504,2.77403846 C6.311119,2.70032051 6.22214331,2.66346154 6.11860795,2.66346154 C6.0150726,2.66346154 5.92771465,2.70032051 5.85653409,2.77403846 C5.78535354,2.84775641 5.74976326,2.93589744 5.74976326,3.03846154 C5.74976326,3.14102564 5.78535354,3.22916667 5.85653409,3.30288462 C5.92771465,3.37660256 6.0150726,3.41346154 6.11860795,3.41346154 C6.22214331,3.41346154 6.311119,3.37660256 6.38553504,3.30288462 Z M10.4767992,3.30288462 C10.5479798,3.22916667 10.5835701,3.14102564 10.5835701,3.03846154 C10.5835701,2.93589744 10.5479798,2.84775641 10.4767992,2.77403846 C10.4056187,2.70032051 10.3182607,2.66346154 10.2147254,2.66346154 C10.11119,2.66346154 10.0222143,2.70032051 9.9477983,2.77403846 C9.87338226,2.84775641 9.83617424,2.93589744 9.83617424,3.03846154 C9.83617424,3.14102564 9.87338226,3.22916667 9.9477983,3.30288462 C10.0222143,3.37660256 10.11119,3.41346154 10.2147254,3.41346154 C10.3182607,3.41346154 10.4056187,3.37660256 10.4767992,3.30288462 Z M3.03196023,5.47115385 C3.22608902,5.66346154 3.32315341,5.89423077 3.32315341,6.16346154 L3.32315341,10.2980769 C3.32315341,10.5737179 3.22770676,10.8076923 3.03681345,11 C2.84592014,11.1923077 2.61134785,11.2884615 2.33309659,11.2884615 C2.05484533,11.2884615 1.8186553,11.1923077 1.62452652,11 C1.43039773,10.8076923 1.33333333,10.5737179 1.33333333,10.2980769 L1.33333333,6.16346154 C1.33333333,5.89423077 1.43039773,5.66346154 1.62452652,5.47115385 C1.8186553,5.27884615 2.05484533,5.18269231 2.33309659,5.18269231 C2.60487689,5.18269231 2.83783144,5.27884615 3.03196023,5.47115385 Z M12.6219223,11.7692308 C12.6219223,12.0641026 12.518387,12.3141026 12.3113163,12.5192308 C12.1042456,12.724359 11.8551136,12.8269231 11.5639205,12.8269231 L10.8359375,12.8269231 L10.8359375,15.0096154 C10.8359375,15.2852564 10.7388731,15.5192308 10.5447443,15.7115385 C10.3506155,15.9038462 10.1144255,16 9.83617424,16 C9.55792298,16 9.32173295,15.9038462 9.12760417,15.7115385 C8.93347538,15.5192308 8.83641098,15.2852564 8.83641098,15.0096154 L8.83641098,12.8269231 L7.49692235,12.8269231 L7.49692235,15.0096154 C7.49692235,15.2852564 7.39985795,15.5192308 7.20572917,15.7115385 C7.01160038,15.9038462 6.77541035,16 6.49715909,16 C6.22537879,16 5.99242424,15.9038462 5.79829545,15.7115385 C5.60416667,15.5192308 5.50710227,15.2852564 5.50710227,15.0096154 L5.49739583,12.8269231 L4.77911932,12.8269231 C4.48145518,12.8269231 4.22908775,12.724359 4.02201705,12.5192308 C3.81494634,12.3141026 3.71141098,12.0641026 3.71141098,11.7692308 L3.71141098,5.36538462 L12.6219223,5.36538462 L12.6219223,11.7692308 Z M10.3700284,1.47115385 C11.0624211,1.82371795 11.6156881,2.31570513 12.0298295,2.94711538 C12.443971,3.57852564 12.6510417,4.26923077 12.6510417,5.01923077 L3.67258523,5.01923077 C3.67258523,4.26923077 3.87965593,3.57852564 4.29379735,2.94711538 C4.70793876,2.31570513 5.26444129,1.82371795 5.96330492,1.47115385 L5.27414773,0.211538462 C5.22885101,0.128205128 5.24502841,0.0641025641 5.32267992,0.0192307692 C5.4068024,-0.0192307692 5.47151199,0 5.51680871,0.0769230769 L6.21567235,1.34615385 C6.83041351,1.07692308 7.48074495,0.942307692 8.16666667,0.942307692 C8.85258838,0.942307692 9.50291982,1.07692308 10.117661,1.34615385 L10.8165246,0.0769230769 C10.8618213,0 10.9265309,-0.0192307692 11.0106534,0.0192307692 C11.0883049,0.0641025641 11.1044823,0.128205128 11.0591856,0.211538462 L10.3700284,1.47115385 Z M15,10.2980769 C15,10.5737179 14.9029356,10.8076923 14.7088068,11 C14.514678,11.1923077 14.278488,11.2884615 14.0002367,11.2884615 C13.7284564,11.2884615 13.4955019,11.1923077 13.3013731,11 C13.1072443,10.8076923 13.0101799,10.5737179 13.0101799,10.2980769 L13.0101799,6.16346154 C13.0101799,5.88782051 13.1072443,5.65544872 13.3013731,5.46634615 C13.4955019,5.27724359 13.7284564,5.18269231 14.0002367,5.18269231 C14.278488,5.18269231 14.514678,5.27724359 14.7088068,5.46634615 C14.9029356,5.65544872 15,5.88782051 15,6.16346154 L15,10.2980769 Z" id="Shape"></path>
        </g>
    </g>
</svg>