<?xml version="1.0" encoding="UTF-8"?>
<svg width="16px" height="16px" viewBox="0 0 16 16" version="1.1" xmlns="http://www.w3.org/2000/svg" xmlns:xlink="http://www.w3.org/1999/xlink">
    <!-- Generator: sketchtool 49.1 (51147) - http://www.bohemiancoding.com/sketch -->
    <title>apple-16</title>
    <desc>Created with sketchtool.</desc>
    <defs></defs>
    <g id="Icons" stroke="none" stroke-width="1" fill="none" fill-rule="evenodd">
        <g id="apple-16" fill="#000000">
            <path d="M14.6666667,11.6826923 C14.4178033,12.4839744 14.0253649,13.2852564 13.4893515,14.0865385 C12.6661881,15.3429487 11.8462152,15.9711538 11.0294329,15.9711538 C10.7167584,15.9711538 10.2700806,15.8685897 9.68939938,15.6634615 C9.14062375,15.4583333 8.6588498,15.3557692 8.24407753,15.3557692 C7.8548297,15.3557692 7.40177076,15.4615385 6.88490069,15.6730769 C6.36803063,15.8910256 5.94687724,16 5.62144054,16 C4.65151153,16 3.69115418,15.1698718 2.74036851,13.5096154 C1.80234506,11.8365385 1.33333333,10.224359 1.33333333,8.67307692 C1.33333333,7.21153846 1.69386616,6.01282051 2.4149318,5.07692308 C3.12961634,4.15384615 4.03573423,3.69230769 5.13328547,3.69230769 C5.59272553,3.69230769 6.15745394,3.78846154 6.82747069,3.98076923 C7.49110633,4.17307692 7.93140305,4.26923077 8.14836085,4.26923077 C8.43551089,4.26923077 8.89176039,4.16025641 9.51710936,3.94230769 C10.1679828,3.72435897 10.719949,3.61538462 11.1730079,3.61538462 C11.9323602,3.61538462 12.6119486,3.82371795 13.2117732,4.24038462 C13.543591,4.47115385 13.8754088,4.79166667 14.2072266,5.20192308 C13.7031188,5.63141026 13.3393954,6.00961538 13.1160565,6.33653846 C12.7012842,6.93910256 12.4938981,7.6025641 12.4938981,8.32692308 C12.4938981,9.12179487 12.7140464,9.83653846 13.1543431,10.4711538 C13.5946399,11.1057692 14.0987477,11.5096154 14.6666667,11.6826923 L14.6666667,11.6826923 Z M11.0677196,0.403846154 C11.0677196,0.794871795 10.9751934,1.23076923 10.7901412,1.71153846 C10.5987078,2.19230769 10.3019861,2.63461538 9.89997607,3.03846154 C9.55539603,3.38461538 9.21081598,3.61538462 8.86623594,3.73076923 C8.6301348,3.80128205 8.29831698,3.85576923 7.87078248,3.89423077 C7.88992582,2.93910256 8.13878918,2.11538462 8.61737258,1.42307692 C9.08957486,0.737179487 9.88721385,0.262820513 11.0102895,0 C11.0166707,0.0192307692 11.024647,0.0544871795 11.0342187,0.105769231 C11.0437904,0.157051282 11.0517668,0.192307692 11.0581479,0.211538462 C11.0581479,0.237179487 11.0597432,0.269230769 11.0629337,0.307692308 C11.0661243,0.346153846 11.0677196,0.378205128 11.0677196,0.403846154 L11.0677196,0.403846154 Z" id="Shape"></path>
        </g>
    </g>
</svg>