<?xml version="1.0" encoding="UTF-8"?>
<svg width="24px" height="24px" viewBox="0 0 24 24" version="1.1" xmlns="http://www.w3.org/2000/svg" xmlns:xlink="http://www.w3.org/1999/xlink">
    <!-- Generator: sketchtool 49.1 (51147) - http://www.bohemiancoding.com/sketch -->
    <title>bag</title>
    <desc>Created with sketchtool.</desc>
    <defs></defs>
    <g id="Icons" stroke="none" stroke-width="1" fill="none" fill-rule="evenodd">
        <g id="bag" fill="#000000" fill-rule="nonzero">
            <path d="M6,22 L18,22 C19.1045695,22 20,21.1045695 20,20 L20,8.414 L20.707,7.707 C20.8945494,7.51950727 20.9999434,7.26519481 21,7 L21,4 C21,2.8954305 20.1045695,2 19,2 L5,2 C3.8954305,2 3,2.8954305 3,4 L3,7 C3.00005664,7.26519481 3.10545063,7.51950727 3.293,7.707 L4,8.414 L4,20 C4,21.1045695 4.8954305,22 6,22 Z M18,20 L6,20 L6,10 L11,10 L11,11 C11,11.5522847 11.4477153,12 12,12 C12.5522847,12 13,11.5522847 13,11 L13,10 L18,10 L18,20 Z M5,4 L19,4 L19,6.586 L18.294,7.292 L18.294,7.292 L17.586,8 L13,8 L13,7 C13,6.44771525 12.5522847,6 12,6 C11.4477153,6 11,6.44771525 11,7 L11,8 L6.414,8 L5.708,7.294 L5.708,7.294 L5,6.586 L5,4 Z" id="Shape"></path>
        </g>
    </g>
</svg>