<?xml version="1.0" encoding="UTF-8"?>
<svg width="16px" height="16px" viewBox="0 0 16 16" version="1.1" xmlns="http://www.w3.org/2000/svg" xmlns:xlink="http://www.w3.org/1999/xlink">
    <!-- Generator: sketchtool 44.1 (41455) - http://www.bohemiancoding.com/sketch -->
    <title>basic-info-framed-16</title>
    <desc>Created with sketchtool.</desc>
    <defs></defs>
    <g id="Symbols" stroke="none" stroke-width="1" fill="none" fill-rule="evenodd">
        <g id="basic-info-framed-16" fill-rule="nonzero" fill="#000000">
            <path d="M8,15 C11.8659932,15 15,11.8659932 15,8 C15,4.13400675 11.8659932,1 8,1 C4.13400675,1 1,4.13400675 1,8 C1,11.8659932 4.13400675,15 8,15 L8,15 Z M8,2.8 C10.8718807,2.8 13.2,5.1281193 13.2,8 C13.2,10.8718807 10.8718807,13.2 8,13.2 C5.1281193,13.2 2.8,10.8718807 2.8,8 C2.8055026,5.13040164 5.13040164,2.8055026 8,2.8 L8,2.8 Z" id="Shape"></path>
            <path d="M8,7.1 C7.50294373,7.1 7.1,7.50294373 7.1,8 L7.1,11 C7.10000001,11.4970563 7.50294374,11.9 8,11.9 C8.49705626,11.9 8.89999999,11.4970563 8.9,11 L8.9,8 C8.9,7.50294373 8.49705627,7.1 8,7.1 L8,7.1 Z" id="Shape"></path>
            <circle id="Oval" cx="8" cy="5" r="1"></circle>
        </g>
    </g>
</svg>