<?xml version="1.0" encoding="UTF-8"?>
<svg width="16px" height="16px" viewBox="0 0 16 16" version="1.1" xmlns="http://www.w3.org/2000/svg" xmlns:xlink="http://www.w3.org/1999/xlink">
    <!-- Generator: sketchtool 44.1 (41455) - http://www.bohemiancoding.com/sketch -->
    <title>basic-warning-framed-16</title>
    <desc>Created with sketchtool.</desc>
    <defs></defs>
    <g id="Symbols" stroke="none" stroke-width="1" fill="none" fill-rule="evenodd">
        <g id="basic-warning-framed-16" fill-rule="nonzero" fill="#000000">
            <path d="M8,10.4 C8.23869484,10.4 8.46761336,10.3051788 8.6363961,10.1363961 C8.80517884,9.96761336 8.9,9.73869484 8.9,9.5 L8.9,7.5 C8.89999999,7.00294374 8.49705626,6.60000003 8,6.60000003 C7.50294374,6.60000003 7.10000001,7.00294374 7.1,7.5 L7.1,9.5 C7.1,9.73869484 7.19482116,9.96761336 7.3636039,10.1363961 C7.53238664,10.3051788 7.76130516,10.4 8,10.4 L8,10.4 Z" id="Shape"></path>
            <circle id="Oval" cx="8" cy="12" r="1"></circle>
            <path d="M1.12,16 L14.88,16 C15.2265932,15.9989511 15.5479286,15.8185078 15.7292369,15.5231178 C15.9105453,15.2277279 15.9259692,14.8595182 15.77,14.55 L8.89,0.79 C8.72083651,0.450585485 8.37423409,0.236066139 7.995,0.236066139 C7.61576591,0.236066139 7.26916349,0.450585485 7.1,0.79 L0.22,14.55 C0.0632203248,14.8611094 0.0796532159,15.2313893 0.2633761,15.5273872 C0.447098984,15.8233852 0.771628097,16.002433 1.12,16 L1.12,16 Z M8,3 L13.59,14.2 L2.41,14.2 L8,3 Z" id="Shape"></path>
        </g>
    </g>
</svg>