<?xml version="1.0" encoding="UTF-8"?>
<svg width="16px" height="16px" viewBox="0 0 16 16" version="1.1" xmlns="http://www.w3.org/2000/svg" xmlns:xlink="http://www.w3.org/1999/xlink">
    <!-- Generator: sketchtool 49.1 (51147) - http://www.bohemiancoding.com/sketch -->
    <title>basic-cross-framed-16</title>
    <desc>Created with sketchtool.</desc>
    <defs></defs>
    <g id="Icons" stroke="none" stroke-width="1" fill="none" fill-rule="evenodd">
        <g id="basic-cross-framed-16" fill="#000000" fill-rule="nonzero">
            <path d="M10.64,5.36 C10.2888499,5.01038553 9.7211501,5.01038553 9.37,5.36 L8,6.73 L6.64,5.36 C6.28653776,5.00653777 5.71346225,5.00653777 5.36000001,5.36000001 C5.00653777,5.71346225 5.00653777,6.28653776 5.36,6.64 L6.73,8 L5.36,9.36 C5.10736765,9.58119502 4.99888046,9.92463311 5.07860433,10.2508147 C5.1583282,10.5769963 5.41300366,10.8316718 5.73918528,10.9113957 C6.06536689,10.9911195 6.40880498,10.8826323 6.63,10.63 L8,9.27 L9.36,10.63 C9.71656775,10.9421968 10.2541479,10.9243828 10.5892654,10.5892654 C10.9243828,10.2541479 10.9421968,9.71656775 10.63,9.36 L9.27,8 L10.63,6.64 C10.8023261,6.47227255 10.9003613,6.2425566 10.9022399,6.00208781 C10.9041186,5.76161903 10.8096844,5.53039941 10.64,5.36 L10.64,5.36 Z" id="Shape"></path>
            <path d="M8,1 C4.13400675,1 1,4.13400675 1,8 C1,11.8659932 4.13400675,15 8,15 C11.8659932,15 15,11.8659932 15,8 C15,6.14348457 14.2625021,4.36300718 12.9497475,3.05025253 C11.6369928,1.73749788 9.85651543,1 8,1 L8,1 Z M8,13.2 C5.1281193,13.2 2.8,10.8718807 2.8,8 C2.8,5.1281193 5.1281193,2.8 8,2.8 C10.8718807,2.8 13.2,5.1281193 13.2,8 C13.1944974,10.8695984 10.8695984,13.1944974 8,13.2 Z" id="Shape"></path>
        </g>
    </g>
</svg>