<?xml version="1.0" encoding="UTF-8"?>
<svg width="24px" height="24px" viewBox="0 0 24 24" version="1.1" xmlns="http://www.w3.org/2000/svg" xmlns:xlink="http://www.w3.org/1999/xlink">
    <!-- Generator: sketchtool 49.1 (51147) - http://www.bohemiancoding.com/sketch -->
    <title>basic-warning-framed</title>
    <desc>Created with sketchtool.</desc>
    <defs></defs>
    <g id="Icons" stroke="none" stroke-width="1" fill="none" fill-rule="evenodd">
        <g id="basic-warning-framed" fill="#000000" fill-rule="nonzero">
            <path d="M22.387,19.042 C22.725174,19.6617372 22.7115523,20.4138577 22.3511595,21.0209432 C21.9907666,21.6280287 21.3369999,22.0001307 20.631,22 L3.369,22 C2.66300013,22.0001307 2.00923342,21.6280287 1.64884054,21.0209432 C1.28844766,20.4138577 1.27482605,19.6617372 1.613,19.042 L10.244,3.219 C10.594401,2.57626466 11.2679552,2.17632126 12,2.17632126 C12.7320448,2.17632126 13.405599,2.57626466 13.756,3.219 L22.387,19.042 Z M11,10 C11,9.44771525 11.4477153,9 12,9 C12.5522847,9 13,9.44771525 13,10 L13,15 C13,15.5522847 12.5522847,16 12,16 C11.4477153,16 11,15.5522847 11,15 L11,10 Z M12,19.25 C11.3096441,19.25 10.75,18.6903559 10.75,18 C10.75,17.3096441 11.3096441,16.75 12,16.75 C12.6903559,16.75 13.25,17.3096441 13.25,18 C13.25,18.6903559 12.6903559,19.25 12,19.25 Z M3.369,20 L20.631,20 L12,4.178 L11.991,4.178 L3.369,20 Z" id="Combined-Shape"></path>
        </g>
    </g>
</svg>