<?xml version="1.0" encoding="UTF-8"?>
<svg width="16px" height="16px" viewBox="0 0 16 16" version="1.1" xmlns="http://www.w3.org/2000/svg" xmlns:xlink="http://www.w3.org/1999/xlink">
    <!-- Generator: sketchtool 49.1 (51147) - http://www.bohemiancoding.com/sketch -->
    <title>basic-tick-framed-16</title>
    <desc>Created with sketchtool.</desc>
    <defs></defs>
    <g id="Icons" stroke="none" stroke-width="1" fill="none" fill-rule="evenodd">
        <g id="basic-tick-framed-16" fill="#000000" fill-rule="nonzero">
            <path d="M8,15 C11.8659932,15 15,11.8659932 15,8 C15,4.13400675 11.8659932,1 8,1 C4.13400675,1 1,4.13400675 1,8 C1,11.8659932 4.13400675,15 8,15 L8,15 Z M8,2.8 C10.8718807,2.8 13.2,5.1281193 13.2,8 C13.2,10.8718807 10.8718807,13.2 8,13.2 C5.1281193,13.2 2.8,10.8718807 2.8,8 C2.8055026,5.13040164 5.13040164,2.8055026 8,2.8 L8,2.8 Z" id="Shape"></path>
            <path d="M7,11.27 L11.14,7.13 C11.3668636,6.90135002 11.454511,6.56903841 11.3699261,6.25824374 C11.2853413,5.94744907 11.0413746,5.70538844 10.7299261,5.62324374 C10.4184776,5.54109905 10.0868636,5.63135002 9.86,5.86 L7,8.73 L5.64,7.36 C5.28653776,7.00653777 4.71346225,7.00653777 4.36000001,7.36000001 C4.00653777,7.71346225 4.00653777,8.28653776 4.36,8.64 L7,11.27 Z" id="Shape"></path>
        </g>
    </g>
</svg>