<?xml version="1.0" encoding="UTF-8"?>
<svg width="16px" height="16px" viewBox="0 0 16 16" version="1.1" xmlns="http://www.w3.org/2000/svg" xmlns:xlink="http://www.w3.org/1999/xlink">
    <!-- Generator: sketchtool 44.1 (41455) - http://www.bohemiancoding.com/sketch -->
    <title>basic-question-framed-16</title>
    <desc>Created with sketchtool.</desc>
    <defs></defs>
    <g id="Symbols" stroke="none" stroke-width="1" fill="none" fill-rule="evenodd">
        <g id="basic-question-framed-16" fill-rule="nonzero" fill="#000000">
            <path d="M8,15 C11.8659932,15 15,11.8659932 15,8 C15,4.13400675 11.8659932,1 8,1 C4.13400675,1 1,4.13400675 1,8 C1,11.8659932 4.13400675,15 8,15 L8,15 Z M8,2.8 C10.8718807,2.8 13.2,5.1281193 13.2,8 C13.2,10.8718807 10.8718807,13.2 8,13.2 C5.1281193,13.2 2.8,10.8718807 2.8,8 C2.8055026,5.13040164 5.13040164,2.8055026 8,2.8 L8,2.8 Z" id="Shape"></path>
            <circle id="Oval" cx="8" cy="11" r="1"></circle>
            <path d="M6.5,7.1 C6.9418278,7.1 7.3,6.7418278 7.3,6.3 C7.3,5.91340068 7.61340068,5.6 8,5.6 C8.38659932,5.6 8.7,5.91340068 8.7,6.3 C8.59486249,6.64601587 8.39787389,6.9570505 8.13,7.2 C7.81932666,7.55046577 7.54149342,7.92872066 7.3,8.33 C7.14542835,8.57910876 7.13949509,8.89281129 7.28453647,9.14758682 C7.42957784,9.40236235 7.70235819,9.55739578 7.99546989,9.55164251 C8.28858159,9.54588923 8.5550681,9.38027092 8.69,9.12 C8.88616521,8.80069989 9.11038472,8.49950951 9.36,8.22 C9.89846653,7.71713844 10.2330602,7.03371316 10.3,6.3 C10.3,5.02974509 9.27025491,4.00000005 8,4.00000005 C6.72974509,4.00000005 5.70000003,5.02974509 5.7,6.3 C5.7,6.51217319 5.78428547,6.71565632 5.93431458,6.86568542 C6.08434368,7.01571453 6.28782681,7.1 6.5,7.1 L6.5,7.1 Z" id="Shape"></path>
        </g>
    </g>
</svg>