<?xml version="1.0" encoding="UTF-8"?>
<svg width="24px" height="24px" viewBox="0 0 24 24" version="1.1" xmlns="http://www.w3.org/2000/svg" xmlns:xlink="http://www.w3.org/1999/xlink">
    <!-- Generator: sketchtool 49.1 (51147) - http://www.bohemiancoding.com/sketch -->
    <title>basic-question-framed</title>
    <desc>Created with sketchtool.</desc>
    <defs></defs>
    <g id="Icons" stroke="none" stroke-width="1" fill="none" fill-rule="evenodd">
        <g id="basic-question-framed" fill="#000000" fill-rule="nonzero">
            <path d="M12,2 C6.4771525,2 2,6.4771525 2,12 C2,17.5228475 6.4771525,22 12,22 C17.5228475,22 22,17.5228475 22,12 C22,9.3478351 20.9464316,6.80429597 19.0710678,4.92893219 C17.195704,3.0535684 14.6521649,2 12,2 L12,2 Z M12,20 C7.581722,20 4,16.418278 4,12 C4,7.581722 7.581722,4 12,4 C16.418278,4 20,7.581722 20,12 C19.9950401,16.4162219 16.4162219,19.9950401 12,20 Z M12,6 C10.3431458,6 9,7.34314575 9,9 C9,9.55228475 9.44771525,10 10,10 C10.5522847,10 11,9.55228475 11,9 C11,8.44771525 11.4477153,8 12,8 C12.5522847,8 13,8.44771525 13,9 C13,9.39 12.743,9.7 12.288,10.224 C11.5137131,10.9464184 11.0516495,11.9422945 11,13 C11,13.5522847 11.4477153,14 12,14 C12.5522847,14 13,13.5522847 13,13 C13,12.476 13.287,12.121 13.795,11.539 C14.5076349,10.8786807 14.9390729,9.96961746 15,9 C15,7.34314575 13.6568542,6 12,6 Z M12,17.75 C12.6903559,17.75 13.25,17.1903559 13.25,16.5 C13.25,15.8096441 12.6903559,15.25 12,15.25 C11.3096441,15.25 10.75,15.8096441 10.75,16.5 C10.75,17.1903559 11.3096441,17.75 12,17.75 Z" id="Combined-Shape"></path>
        </g>
    </g>
</svg>