<?xml version="1.0" encoding="UTF-8"?>
<svg width="24px" height="24px" viewBox="0 0 24 24" version="1.1" xmlns="http://www.w3.org/2000/svg" xmlns:xlink="http://www.w3.org/1999/xlink">
    <!-- Generator: sketchtool 44.1 (41455) - http://www.bohemiancoding.com/sketch -->
    <title>basic-tick-framed</title>
    <desc>Created with sketchtool.</desc>
    <defs></defs>
    <g id="Symbols" stroke="none" stroke-width="1" fill="none" fill-rule="evenodd">
        <g id="basic-tick-framed" fill-rule="nonzero" fill="#000000">
            <path d="M12,2 C6.4771525,2 2,6.4771525 2,12 C2,17.5228475 6.4771525,22 12,22 C17.5228475,22 22,17.5228475 22,12 C22,9.3478351 20.9464316,6.80429597 19.0710678,4.92893219 C17.195704,3.0535684 14.6521649,2 12,2 L12,2 Z M12,20 C7.581722,20 4,16.418278 4,12 C4,7.581722 7.581722,4 12,4 C16.418278,4 20,7.581722 20,12 C19.9950401,16.4162219 16.4162219,19.9950401 12,20 L12,20 Z M15.293,9.293 L10.5,14.086 L8.207,11.793 C7.81462111,11.4140278 7.19091522,11.4194476 6.80518142,11.8051814 C6.41944763,12.1909152 6.41402779,12.8146211 6.793,13.207 L10.5,16.914 L16.707,10.707 C17.0859722,10.3146211 17.0805524,9.69091522 16.6948186,9.30518142 C16.3090848,8.91944763 15.6853789,8.91402779 15.293,9.293 Z" id="Combined-Shape"></path>
        </g>
    </g>
</svg>