<?xml version="1.0" encoding="UTF-8"?>
<svg width="16px" height="16px" viewBox="0 0 16 16" version="1.1" xmlns="http://www.w3.org/2000/svg" xmlns:xlink="http://www.w3.org/1999/xlink">
    <!-- Generator: sketchtool 49.1 (51147) - http://www.bohemiancoding.com/sketch -->
    <title>bathroom-16</title>
    <desc>Created with sketchtool.</desc>
    <defs></defs>
    <g id="Icons" stroke="none" stroke-width="1" fill="none" fill-rule="evenodd">
        <g id="bathroom-16" fill="#000000" fill-rule="nonzero">
            <path d="M5.9,15 L10.1,15 C12.8039133,14.9944986 14.9944986,12.8039133 15,10.1 L15,8 L2.8,8 L2.8,3.5 C2.83639711,3.12952166 3.12952166,2.83639711 3.5,2.8 C3.87047834,2.83639711 4.16360289,3.12952166 4.2,3.5 C4.2,3.99705627 4.60294373,4.4 5.1,4.4 C5.59705627,4.4 6,3.99705627 6,3.5 C5.96329494,2.13478085 4.86521915,1.03670506 3.5,1 C2.13478085,1.03670506 1.03670506,2.13478085 1,3.5 L1,10.1 C1.00550137,12.8039133 3.19608674,14.9944986 5.9,15 L5.9,15 Z M13.2,10.1 C13.2,11.8120827 11.8120827,13.2 10.1,13.2 L5.9,13.2 C4.18791728,13.2 2.8,11.8120827 2.8,10.1 L2.8,9.8 L13.2,9.8 L13.2,10.1 L13.2,10.1 Z" id="Shape"></path>
            <path d="M5.38,5.08 C5.13653864,4.97998198 4.86346136,4.97998198 4.62,5.08 C4.49881511,5.13064187 4.38720094,5.20166906 4.29,5.29 C4.20166906,5.38720094 4.13064187,5.49881511 4.08,5.62 C3.97425251,5.86229794 3.97425251,6.13770206 4.08,6.38 C4.13081564,6.50109406 4.20182494,6.61268012 4.29,6.71 C4.38731988,6.79817506 4.49890594,6.86918436 4.62,6.92 C4.86203988,7.02697679 5.13796012,7.02697679 5.38,6.92 C5.50109406,6.86918436 5.61268012,6.79817506 5.71,6.71 C5.79817506,6.61268012 5.86918436,6.50109406 5.92,6.38 C6.02697679,6.13796012 6.02697679,5.86203988 5.92,5.62 C5.86918436,5.49890594 5.79817506,5.38731988 5.71,5.29 C5.61268012,5.20182494 5.50109406,5.13081564 5.38,5.08 Z" id="Shape"></path>
        </g>
    </g>
</svg>