<?xml version="1.0" encoding="UTF-8"?>
<svg width="24px" height="24px" viewBox="0 0 24 24" version="1.1" xmlns="http://www.w3.org/2000/svg" xmlns:xlink="http://www.w3.org/1999/xlink">
    <!-- Generator: sketchtool 44.1 (41455) - http://www.bohemiancoding.com/sketch -->
    <title>bedroom</title>
    <desc>Created with sketchtool.</desc>
    <defs></defs>
    <g id="Symbols" stroke="none" stroke-width="1" fill="none" fill-rule="evenodd">
        <g id="bedroom" fill-rule="nonzero" fill="#000000">
            <path d="M21,21 C21.5522847,21 22,20.5522847 22,20 L22,14 C22,11.790861 20.209139,10 18,10 L11,10 C11,8.34314575 9.65685425,7 8,7 L4,7 L4,4 C4,3.44771525 3.55228475,3 3,3 C2.44771525,3 2,3.44771525 2,4 L2,20 C2,20.5522847 2.44771525,21 3,21 C3.55228475,21 4,20.5522847 4,20 L4,18 L20,18 L20,20 C20,20.5522847 20.4477153,21 21,21 Z M8,9 C8.55228475,9 9,9.44771525 9,10 L4,10 L4,9 L8,9 Z M4,16 L4,12 L18,12 C19.1045695,12 20,12.8954305 20,14 L20,16 L4,16 Z" id="Shape"></path>
        </g>
    </g>
</svg>