<?xml version="1.0" encoding="UTF-8"?>
<svg width="16px" height="16px" viewBox="0 0 16 16" version="1.1" xmlns="http://www.w3.org/2000/svg" xmlns:xlink="http://www.w3.org/1999/xlink">
    <!-- Generator: sketchtool 49.1 (51147) - http://www.bohemiancoding.com/sketch -->
    <title>bin-16</title>
    <desc>Created with sketchtool.</desc>
    <defs></defs>
    <g id="Icons" stroke="none" stroke-width="1" fill="none" fill-rule="evenodd">
        <g id="bin-16" fill="#000000" fill-rule="nonzero">
            <path d="M13,4 L11,4 L11,3.9 C10.9460478,2.28232454 9.61857466,0.99910055 8,1 C6.38142534,0.99910055 5.05395225,2.28232454 5,3.9 L5,4 L3,4 C2.50294373,4 2.1,4.40294373 2.1,4.9 C2.1,5.39705627 2.50294373,5.8 3,5.8 L3,5.8 C2.99212953,5.86643438 2.99212953,5.93356562 3,6 L3.44,13.26 C3.53803272,14.2510887 4.37408639,15.0048366 5.37,15 L10.64,15 C11.651356,14.9922081 12.4870434,14.2087512 12.56,13.2 L13,6 C13.004972,5.94678255 13.004972,5.89321745 13,5.84 L13,5.84 C13.508102,5.84 13.92,5.42810197 13.92,4.92 C13.92,4.41189803 13.508102,4 13,4 L13,4 Z M6.8,3.9 C6.8129763,3.59490019 6.94676905,3.30748943 7.17187796,3.10113959 C7.39698687,2.89478976 7.69492526,2.78644697 8,2.8 C8.30507474,2.78644697 8.60301313,2.89478976 8.82812204,3.10113959 C9.05323095,3.30748943 9.1870237,3.59490019 9.2,3.9 L9.2,4 L6.8,4 L6.8,3.9 Z M11.2,5.84 L10.75,13.08 C10.7452258,13.1441928 10.6941928,13.1952258 10.63,13.2 L5.37,13.2 C5.30744245,13.2002176 5.25521278,13.1523404 5.25,13.09 L4.8,5.85 L4.8,5.85 L11.23,5.85 C11.23,5.85 11.21,5.83 11.21,5.84 L11.2,5.84 Z" id="Shape"></path>
            <path d="M8,7.1 C7.50294373,7.1 7.1,7.50294373 7.1,8 L7.1,11 C7.10000001,11.4970563 7.50294374,11.9 8,11.9 C8.49705626,11.9 8.89999999,11.4970563 8.9,11 L8.9,8 C8.9,7.50294373 8.49705627,7.1 8,7.1 L8,7.1 Z" id="Shape"></path>
        </g>
    </g>
</svg>