<?xml version="1.0" encoding="UTF-8"?>
<svg width="16px" height="16px" viewBox="0 0 16 16" version="1.1" xmlns="http://www.w3.org/2000/svg" xmlns:xlink="http://www.w3.org/1999/xlink">
    <!-- Generator: sketchtool 49.1 (51147) - http://www.bohemiancoding.com/sketch -->
    <title>binoculars-tick-16</title>
    <desc>Created with sketchtool.</desc>
    <defs></defs>
    <g id="Icons" stroke="none" stroke-width="1" fill="none" fill-rule="evenodd">
        <g id="binoculars-tick-16" fill="#000000" fill-rule="nonzero">
            <path d="M4.5,12.9 C3.94771525,12.9 3.5,13.3477153 3.5,13.9 C3.5,14.4522847 3.94771525,14.9 4.5,14.9 L6.5,14.9 C7.05228475,14.9 7.5,14.4522847 7.5,13.9 C7.5,13.3477153 7.05228475,12.9 6.5,12.9 L4.5,12.9 Z" id="Shape"></path>
            <path d="M2.56,10.16 C2.99133436,11.2739091 4.0655095,12.0059396 5.26,12 L6,12 C6.49705627,12 6.9,11.5970563 6.9,11.1 C6.9,10.6029437 6.49705627,10.2 6,10.2 L5.26,10.2 C4.81502104,10.1926927 4.41917413,9.91559989 4.26,9.5 L3.15,6.73 C3.06195083,6.49222521 2.99175618,6.24821524 2.94,6 L5.2,6 C5.11060104,7.05683959 5.62386994,8.07397388 6.52710968,8.6299056 C7.43034942,9.18583731 8.56965058,9.18583731 9.47289032,8.6299056 C10.3761301,8.07397388 10.889399,7.05683959 10.8,6 L13.11,6 C13.1059933,6.42530136 13.4034653,6.79399905 13.82,6.88 C14.3055646,6.97172074 14.774266,6.65478933 14.87,6.17 C14.954175,5.7417274 14.9977018,5.30646028 15,4.87 L15,2.4 C15,2.02869691 14.8525004,1.67260144 14.5899495,1.41005051 C14.3273986,1.14749958 13.9713031,1 13.6,1 L10.4,1 C9.62680135,1 9,1.62680135 9,2.4 L9,6 C9.06434506,6.29920022 8.98814022,6.61139167 8.79317805,6.84729591 C8.59821587,7.08320014 8.30596448,7.21684072 8,7.21 C7.69403552,7.21684072 7.40178413,7.08320014 7.20682195,6.84729591 C7.01185978,6.61139167 6.93565494,6.29920022 7,6 L7,2.4 C7,1.62680135 6.37319865,1 5.6,1 L2.4,1 C1.62680135,1 1,1.62680135 1,2.4 L1,4.87 C1.00035877,5.73268687 1.16319711,6.5875882 1.48,7.39 L2.56,10.16 Z M13.2,2.8 L13.2,4.2 L10.8,4.2 L10.8,2.8 L13.2,2.8 L13.2,2.8 Z M5.2,2.8 L5.2,4.2 L2.8,4.2 L2.8,2.8 L5.2,2.8 L5.2,2.8 Z" id="Shape"></path>
            <path d="M14.29,8.29 L11,11.59 L9.71,10.29 C9.31323972,9.9502232 8.72180583,9.97306773 8.35243678,10.3424368 C7.98306773,10.7118058 7.9602232,11.3032397 8.3,11.7 L11,14.41 L15.71,9.7 C15.9618722,9.44634143 16.0592866,9.07757901 15.9655479,8.73262196 C15.8718093,8.38766492 15.6011588,8.11892044 15.2555479,8.02762196 C14.909937,7.93632349 14.5418722,8.03634143 14.29,8.29 L14.29,8.29 Z" id="Shape"></path>
        </g>
    </g>
</svg>