<?xml version="1.0" encoding="UTF-8"?>
<svg width="24px" height="24px" viewBox="0 0 24 24" version="1.1" xmlns="http://www.w3.org/2000/svg" xmlns:xlink="http://www.w3.org/1999/xlink">
    <!-- Generator: sketchtool 49.1 (51147) - http://www.bohemiancoding.com/sketch -->
    <title>binoculars</title>
    <desc>Created with sketchtool.</desc>
    <defs></defs>
    <g id="Icons" stroke="none" stroke-width="1" fill="none" fill-rule="evenodd">
        <g id="binoculars" fill="#000000" fill-rule="nonzero">
            <path d="M11,21 C11,21.5522847 10.5522847,22 10,22 L6,22 C5.44771525,22 5,21.5522847 5,21 C5,20.4477153 5.44771525,20 6,20 L10,20 C10.5522847,20 11,20.4477153 11,21 Z M18,20 C18.5522847,20 19,20.4477153 19,21 C19,21.5522847 18.5522847,22 18,22 L14,22 C13.4477153,22 13,21.5522847 13,21 C13,20.4477153 13.4477153,20 14,20 L18,20 Z M3.14,15.581 L1.514,10.7 C1.1737944,9.68083035 1.00023142,8.61345175 1,7.539 L1,4 C1,2.8954305 1.8954305,2 3,2 L8,2 C9.1045695,2 10,2.8954305 10,4 L10,9 C10.0410662,10.0871051 10.9128949,10.9589338 12,11 C13.0980491,10.9844149 13.9844149,10.0980491 14,9 L14,4 C14,2.8954305 14.8954305,2 16,2 L21,2 C22.1045695,2 23,2.8954305 23,4 L23,7.539 C22.9996208,8.61335933 22.8264079,9.68066177 22.487,10.7 L20.86,15.581 C20.1811051,17.6237803 18.2696372,19.0016653 16.117,19 L14,19 C13.4477153,19 13,18.5522847 13,18 C13,17.4477153 12.5522847,17 12,17 C11.4477153,17 11,17.4477153 11,18 C11,18.5522847 10.5522847,19 10,19 L7.883,19 C5.73036282,19.0016653 3.81889494,17.6237803 3.14,15.581 Z M21,4 L16,4 L16,6 L21,6 L21,4 Z M12,13 C9.8030167,12.9709256 8.0290744,11.1969833 8,9 L8,8 L3.037,8 C3.06945798,8.70318974 3.19522564,9.3989472 3.411,10.069 L5.036,14.948 C5.4442158,16.1736283 6.59117777,17.0003111 7.883,17 L9.171,17 C9.59430578,15.8005226 10.7280197,14.9983782 12,14.9983782 C13.2719803,14.9983782 14.4056942,15.8005226 14.829,17 L16.117,17 C17.4088222,17.0003111 18.5557842,16.1736283 18.964,14.948 L20.59,10.069 C20.8050911,9.3988152 20.930514,8.70310492 20.963,8 L16,8 L16,9 C16,11.209139 14.209139,13 12,13 Z M8,4 L3,4 L3,6 L8,6 L8,4 Z" id="Combined-Shape"></path>
        </g>
    </g>
</svg>