<?xml version="1.0" encoding="UTF-8"?>
<svg width="16px" height="16px" viewBox="0 0 16 16" version="1.1" xmlns="http://www.w3.org/2000/svg" xmlns:xlink="http://www.w3.org/1999/xlink">
    <!-- Generator: sketchtool 49.1 (51147) - http://www.bohemiancoding.com/sketch -->
    <title>binoculars-16</title>
    <desc>Created with sketchtool.</desc>
    <defs></defs>
    <g id="Icons" stroke="none" stroke-width="1" fill="none" fill-rule="evenodd">
        <g id="binoculars-16" fill="#000000" fill-rule="nonzero">
            <path d="M7,13.9 C7,13.3477153 6.55228475,12.9 6,12.9 L5,12.9 C4.44771525,12.9 4,13.3477153 4,13.9 C4,14.4522847 4.44771525,14.9 5,14.9 L6,14.9 C6.55228475,14.9 7,14.4522847 7,13.9 Z" id="Shape"></path>
            <path d="M11,14.9 C11.5522847,14.9 12,14.4522847 12,13.9 C12,13.3477153 11.5522847,12.9 11,12.9 L10,12.9 C9.44771525,12.9 9,13.3477153 9,13.9 C9,14.4522847 9.44771525,14.9 10,14.9 L11,14.9 Z" id="Shape"></path>
            <path d="M2.56,10.16 C2.99133436,11.2739091 4.0655095,12.0059396 5.26,12 L10.73,12 C11.9244905,12.0059396 12.9986656,11.2739091 13.43,10.16 L14.52,7.39 C14.8368029,6.5875882 14.9996412,5.73268687 15,4.87 L15,2.4 C15,1.62680135 14.3731986,1 13.6,1 L10.4,1 C9.62680135,1 9,1.62680135 9,2.4 L9,5 C9.06434506,5.29920022 8.98814022,5.61139167 8.79317805,5.84729591 C8.59821587,6.08320014 8.30596448,6.21684072 8,6.21 C7.69403552,6.21684072 7.40178413,6.08320014 7.20682195,5.84729591 C7.01185978,5.61139167 6.93565494,5.29920022 7,5 L7,2.4 C7,1.62680135 6.37319865,1 5.6,1 L2.4,1 C1.62680135,1 1,1.62680135 1,2.4 L1,4.87 C1.00011977,5.73270947 1.16296655,6.58765504 1.48,7.39 L2.56,10.16 Z M13.2,2.8 L13.2,4.2 L10.8,4.2 L10.8,2.8 L13.2,2.8 L13.2,2.8 Z M8,8 C9.23521479,8.00639546 10.3231353,7.18841014 10.66,6 L13.07,6 C13.0184259,6.24826032 12.9482274,6.49228379 12.86,6.73 L11.76,9.5 C11.5963997,9.91212232 11.2032265,10.1873436 10.76,10.2 L9,10.2 C9,9.64771525 8.55228475,9.2 8,9.2 C7.44771525,9.2 7,9.64771525 7,10.2 L5.26,10.2 C4.81677355,10.1873436 4.42360034,9.91212232 4.26,9.5 L3.15,6.73 C3.0615908,6.49234362 2.99138827,6.24830624 2.94,6 L5.35,6 C5.67989233,7.18890331 6.76620779,8.00876403 8,8 L8,8 Z M5.2,2.8 L5.2,4.2 L2.8,4.2 L2.8,2.8 L5.2,2.8 Z" id="Shape"></path>
        </g>
    </g>
</svg>