<?xml version="1.0" encoding="UTF-8"?>
<svg width="24px" height="24px" viewBox="0 0 24 24" version="1.1" xmlns="http://www.w3.org/2000/svg" xmlns:xlink="http://www.w3.org/1999/xlink">
    <!-- Generator: sketchtool 49.1 (51147) - http://www.bohemiancoding.com/sketch -->
    <title>binoculars-minus</title>
    <desc>Created with sketchtool.</desc>
    <defs></defs>
    <g id="Icons" stroke="none" stroke-width="1" fill="none" fill-rule="evenodd">
        <g id="binoculars-minus" fill="#000000" fill-rule="nonzero">
            <path d="M11,21 C11,21.5522847 10.5522847,22 10,22 L6,22 C5.44771525,22 5,21.5522847 5,21 C5,20.4477153 5.44771525,20 6,20 L10,20 C10.5522847,20 11,20.4477153 11,21 Z M19,21 C19,21.5522847 18.5522847,22 18,22 L14,22 C13.4477153,22 13,21.5522847 13,21 C13,20.4477153 13.4477153,20 14,20 L18,20 C18.5522847,20 19,20.4477153 19,21 Z M23,13 C23.5522847,13 24,13.4477153 24,14 C24,14.5522847 23.5522847,15 23,15 L18,15 C17.4477153,15 17,14.5522847 17,14 C17,13.4477153 17.4477153,13 18,13 L23,13 Z M3.14,15.581 L1.513,10.7 C1.17313408,9.68077448 0.999908987,8.61339727 1,7.539 L1,4 C1,2.8954305 1.8954305,2 3,2 L8,2 C9.1045695,2 10,2.8954305 10,4 L10,10 C10.0410662,11.0871051 10.9128949,11.9589338 12,12 C13.0980491,11.9844149 13.9844149,11.0980491 14,10 L14,4 C14,2.8954305 14.8954305,2 16,2 L21,2 C22.1045695,2 23,2.8954305 23,4 L23,7.539 C23.0016276,8.46365973 22.8750904,9.38408321 22.624,10.274 C22.4729501,10.8052979 21.9197979,11.1135498 21.3885,10.9625 C20.8572021,10.8114501 20.5489501,10.2582979 20.7,9.727 C20.8521337,9.16284784 20.9420031,8.58372638 20.968,8 L16,8 L16,10 C16,12.209139 14.209139,14 12,14 C9.8030167,13.9709256 8.0290744,12.1969833 8,10 L8,8 L3.037,8 C3.06963432,8.70316981 3.1953978,9.39890413 3.411,10.069 L5.037,14.948 C5.44509951,16.173279 6.59154584,16.9998805 7.883,17 L9.172,17 C9.59572238,15.8012541 10.7290708,14.9997939 12.0005,14.9997939 C13.2719292,14.9997939 14.4052776,15.8012541 14.829,17 L18,17 C18.5522847,17 19,17.4477153 19,18 C19,18.5522847 18.5522847,19 18,19 L14,19 C13.4477153,19 13,18.5522847 13,18 C13,17.4477153 12.5522847,17 12,17 C11.4477153,17 11,17.4477153 11,18 C11,18.5522847 10.5522847,19 10,19 L7.883,19 C5.73036282,19.0016653 3.81889494,17.6237803 3.14,15.581 Z M21,4 L16,4 L16,6 L21,6 L21,4 Z M8,4 L3,4 L3,6 L8,6 L8,4 Z" id="Combined-Shape"></path>
        </g>
    </g>
</svg>