<?xml version="1.0" encoding="UTF-8"?>
<svg width="24px" height="24px" viewBox="0 0 24 24" version="1.1" xmlns="http://www.w3.org/2000/svg" xmlns:xlink="http://www.w3.org/1999/xlink">
    <!-- Generator: sketchtool 49.1 (51147) - http://www.bohemiancoding.com/sketch -->
    <title>bookmark-minus</title>
    <desc>Created with sketchtool.</desc>
    <defs></defs>
    <g id="Icons" stroke="none" stroke-width="1" fill="none" fill-rule="evenodd">
        <g id="bookmark-minus" fill="#000000" fill-rule="nonzero">
            <path d="M17.888,5.325 C18.0048258,5.66279463 18.2929887,5.9126039 18.6439403,5.98032706 C18.994892,6.04805022 19.3553145,5.92339852 19.5894403,5.65332705 C19.8235661,5.38325558 19.8958259,5.00879462 19.779,4.671 C19.2291765,3.05736347 17.7046175,1.97980401 16,2 L5,2 C3.36892521,2.06064333 2.06064333,3.36892521 2,5 L2,10 L6,10 L6,22.241 L13,18.157 L20,22.241 L20,13 C20,12.4477153 19.5522847,12 19,12 C18.4477153,12 18,12.4477153 18,13 L18,18.759 L13,15.843 L8,18.759 L8,5 C7.99473547,4.65668854 7.92485043,4.31744077 7.794,4 L16,4 C16.8496209,3.9869987 17.6113458,4.52157786 17.888,5.325 L17.888,5.325 Z M6,5 L6,8 L4,8 L4,5 C4.05849097,4.47384161 4.47384161,4.05849097 5,4 C5.52530388,4.06026476 5.93973524,4.47469612 6,5 Z M22,8 C22.5522847,8 23,8.44771525 23,9 C23,9.55228475 22.5522847,10 22,10 L16,10 C15.4477153,10 15,9.55228475 15,9 C15,8.44771525 15.4477153,8 16,8 L22,8 Z" id="Combined-Shape"></path>
        </g>
    </g>
</svg>