<?xml version="1.0" encoding="UTF-8"?>
<svg width="24px" height="24px" viewBox="0 0 24 24" version="1.1" xmlns="http://www.w3.org/2000/svg" xmlns:xlink="http://www.w3.org/1999/xlink">
    <!-- Generator: sketchtool 49.1 (51147) - http://www.bohemiancoding.com/sketch -->
    <title>box-cross</title>
    <desc>Created with sketchtool.</desc>
    <defs></defs>
    <g id="Icons" stroke="none" stroke-width="1" fill="none" fill-rule="evenodd">
        <g id="box-cross" fill="#000000" fill-rule="nonzero">
            <path d="M21.707,16.293 C22.0973819,16.6834999 22.0973819,17.3165001 21.707,17.707 L19.414,20 L21.707,22.293 C22.0859722,22.6853789 22.0805524,23.3090848 21.6948186,23.6948186 C21.3090848,24.0805524 20.6853789,24.0859722 20.293,23.707 L18,21.414 L15.707,23.707 C15.4559255,23.9669566 15.0841221,24.0712126 14.7344927,23.9796972 C14.3848632,23.8881817 14.1118183,23.6151368 14.0203028,23.2655073 C13.9287874,22.9158779 14.0330434,22.5440745 14.293,22.293 L16.586,20 L14.293,17.707 C13.9140278,17.3146211 13.9194476,16.6909152 14.3051814,16.3051814 C14.6909152,15.9194476 15.3146211,15.9140278 15.707,16.293 L18,18.586 L20.293,16.293 C20.6834999,15.9026181 21.3165001,15.9026181 21.707,16.293 Z M11,19 C11.5522847,19 12,19.4477153 12,20 C12,20.5522847 11.5522847,21 11,21 L5,21 C3.8954305,21 3,20.1045695 3,19 L3,9 C2.44771525,9 2,8.55228475 2,8 L2,5 C2,3.8954305 2.8954305,3 4,3 L20,3 C21.1045695,3 22,3.8954305 22,5 L22,8 C22,8.55228475 21.5522847,9 21,9 L21,13 C21,13.5522847 20.5522847,14 20,14 C19.4477153,14 19,13.5522847 19,13 L19,9 L5,9 L5,19 L11,19 Z M4,5 L4,7 L20,7 L20,5 L4,5 Z M16,12 C16,12.5522847 15.5522847,13 15,13 L9,13 C8.44771525,13 8,12.5522847 8,12 C8,11.4477153 8.44771525,11 9,11 L15,11 C15.5522847,11 16,11.4477153 16,12 Z" id="Combined-Shape"></path>
        </g>
    </g>
</svg>