<?xml version="1.0" encoding="UTF-8"?>
<svg width="16px" height="16px" viewBox="0 0 16 16" version="1.1" xmlns="http://www.w3.org/2000/svg" xmlns:xlink="http://www.w3.org/1999/xlink">
    <!-- Generator: sketchtool 49.1 (51147) - http://www.bohemiancoding.com/sketch -->
    <title>box-tick-16</title>
    <desc>Created with sketchtool.</desc>
    <defs></defs>
    <g id="Icons" stroke="none" stroke-width="1" fill="none" fill-rule="evenodd">
        <g id="box-tick-16" fill="#000000" fill-rule="nonzero">
            <path d="M14.36,10.36 L11.5,13.23 L10.14,11.87 C9.78343225,11.5578032 9.24585209,11.5756172 8.91073465,11.9107346 C8.5756172,12.2458521 8.5578032,12.7834323 8.87,13.14 L11.51,15.78 L15.65,11.64 C16.0034622,11.2837763 16.0012236,10.7084623 15.645,10.355 C15.2887763,10.0015378 14.7134622,10.0037764 14.36,10.36 L14.36,10.36 Z" id="Shape"></path>
            <path d="M3.9,14 L4.9,14 C5.39705627,14 5.8,13.5970563 5.8,13.1 C5.8,12.6029437 5.39705627,12.2 4.9,12.2 L3.9,12.2 C3.84477153,12.2 3.8,12.1552285 3.8,12.1 L3.8,7 L12.2,7 L12.2,8.1 C12.2,8.59705627 12.6029437,9 13.1,9 C13.5970563,9 14,8.59705627 14,8.1 L14,7 L14.1,7 C14.3386948,7 14.5676134,6.90517884 14.7363961,6.7363961 C14.9051788,6.56761336 15,6.33869484 15,6.1 L15,4 C15.0161582,3.47861698 14.8216701,2.97269421 14.4604224,2.59639453 C14.0991747,2.22009486 13.6016081,2.00512734 13.08,2 L2.92,2 C2.39839186,2.00512734 1.90082533,2.22009486 1.53957764,2.59639453 C1.17832995,2.97269421 0.98384181,3.47861698 1,4 L1,6.1 C1,6.33869484 1.09482116,6.56761336 1.2636039,6.7363961 C1.43238664,6.90517884 1.66130516,7 1.9,7 L2,7 L2,12.1 C2,13.149341 2.85065898,14 3.9,14 L3.9,14 Z M2.8,4 C2.7844646,3.95746674 2.78897457,3.91019175 2.81227178,3.87136307 C2.83556899,3.83253439 2.87515988,3.80630795 2.92,3.8 L13.08,3.8 C13.1248401,3.80630795 13.164431,3.83253439 13.1877282,3.87136307 C13.2110254,3.91019175 13.2155354,3.95746674 13.2,4 L13.2,5.2 L2.8,5.2 L2.8,4 Z" id="Shape"></path>
        </g>
    </g>
</svg>