<?xml version="1.0" encoding="UTF-8"?>
<svg width="24px" height="24px" viewBox="0 0 24 24" version="1.1" xmlns="http://www.w3.org/2000/svg" xmlns:xlink="http://www.w3.org/1999/xlink">
    <!-- Generator: sketchtool 49.1 (51147) - http://www.bohemiancoding.com/sketch -->
    <title>calculator</title>
    <desc>Created with sketchtool.</desc>
    <defs></defs>
    <g id="Icons" stroke="none" stroke-width="1" fill="none" fill-rule="evenodd">
        <g id="calculator" fill="#000000" fill-rule="nonzero">
            <path d="M4,19 C4,20.6568542 5.34314575,22 7,22 L18,22 C19.6568542,22 21,20.6568542 21,19 L21,1 L4,1 L4,19 Z M6,3 L19,3 L19,19 C19,19.5522847 18.5522847,20 18,20 L7,20 C6.44771525,20 6,19.5522847 6,19 L6,3 Z M8.5,11 C9.32842712,11 10,10.3284271 10,9.5 C10,8.67157288 9.32842712,8 8.5,8 C7.67157288,8 7,8.67157288 7,9.5 C7,10.3284271 7.67157288,11 8.5,11 Z M12.5,11 C13.3284271,11 14,10.3284271 14,9.5 C14,8.67157288 13.3284271,8 12.5,8 C11.6715729,8 11,8.67157288 11,9.5 C11,10.3284271 11.6715729,11 12.5,11 Z M16.5,11 C17.3284271,11 18,10.3284271 18,9.5 C18,8.67157288 17.3284271,8 16.5,8 C15.6715729,8 15,8.67157288 15,9.5 C15,10.3284271 15.6715729,11 16.5,11 Z M8.5,15 C9.32842712,15 10,14.3284271 10,13.5 C10,12.6715729 9.32842712,12 8.5,12 C7.67157288,12 7,12.6715729 7,13.5 C7,14.3284271 7.67157288,15 8.5,15 Z M12.5,15 C13.3284271,15 14,14.3284271 14,13.5 C14,12.6715729 13.3284271,12 12.5,12 C11.6715729,12 11,12.6715729 11,13.5 C11,14.3284271 11.6715729,15 12.5,15 Z M16.5,15 C17.3284271,15 18,14.3284271 18,13.5 C18,12.6715729 17.3284271,12 16.5,12 C15.6715729,12 15,12.6715729 15,13.5 C15,14.3284271 15.6715729,15 16.5,15 Z M8.5,19 C9.32842712,19 10,18.3284271 10,17.5 C10,16.6715729 9.32842712,16 8.5,16 C7.67157288,16 7,16.6715729 7,17.5 C7,18.3284271 7.67157288,19 8.5,19 Z M12.5,19 C13.3284271,19 14,18.3284271 14,17.5 C14,16.6715729 13.3284271,16 12.5,16 C11.6715729,16 11,16.6715729 11,17.5 C11,18.3284271 11.6715729,19 12.5,19 Z M16.5,19 C17.3284271,19 18,18.3284271 18,17.5 C18,16.6715729 17.3284271,16 16.5,16 C15.6715729,16 15,16.6715729 15,17.5 C15,18.3284271 15.6715729,19 16.5,19 Z M7,4 L7,7 L18,7 L18,4 L7,4 Z" id="Combined-Shape"></path>
        </g>
    </g>
</svg>