<?xml version="1.0" encoding="UTF-8"?>
<svg width="24px" height="24px" viewBox="0 0 24 24" version="1.1" xmlns="http://www.w3.org/2000/svg" xmlns:xlink="http://www.w3.org/1999/xlink">
    <!-- Generator: sketchtool 49.1 (51147) - http://www.bohemiancoding.com/sketch -->
    <title>calendar</title>
    <desc>Created with sketchtool.</desc>
    <defs></defs>
    <g id="Icons" stroke="none" stroke-width="1" fill="none" fill-rule="evenodd">
        <g id="calendar" fill="#000000" fill-rule="nonzero">
            <path d="M4,22 L19,22 C20.6568542,22 22,20.6568542 22,19 L22,7 C22,5.34314575 20.6568542,4 19,4 L18,4 L18,3 C18,2.44771525 17.5522847,2 17,2 C16.4477153,2 16,2.44771525 16,3 L16,4 L7,4 L7,3 C7,2.44771525 6.55228475,2 6,2 C5.44771525,2 5,2.44771525 5,3 L5,4 L4,4 C2.34314575,4 1,5.34314575 1,7 L1,19 C1,20.6568542 2.34314575,22 4,22 Z M19,20 L4,20 C3.44771525,20 3,19.5522847 3,19 L3,11 L20,11 L20,19 C20,19.5522847 19.5522847,20 19,20 Z M4,6 L5,6 L5,7 C5,7.55228475 5.44771525,8 6,8 C6.55228475,8 7,7.55228475 7,7 L7,6 L16,6 L16,7 C16,7.55228475 16.4477153,8 17,8 C17.5522847,8 18,7.55228475 18,7 L18,6 L19,6 C19.5522847,6 20,6.44771525 20,7 L20,9 L3,9 L3,7 C3,6.44771525 3.44771525,6 4,6 Z M4,12 L7,12 L7,15 L4,15 L4,12 Z M8,12 L11,12 L11,15 L8,15 L8,12 Z M12,12 L15,12 L15,15 L12,15 L12,12 Z M4,16 L7,16 L7,19 L4,19 L4,16 Z M8,16 L11,16 L11,19 L8,19 L8,16 Z M12,16 L15,16 L15,19 L12,19 L12,16 Z M16,12 L19,12 L19,15 L16,15 L16,12 Z M16,16 L19,16 L19,19 L16,19 L16,16 Z" id="Combined-Shape"></path>
        </g>
    </g>
</svg>