<?xml version="1.0" encoding="UTF-8"?>
<svg width="16px" height="16px" viewBox="0 0 16 16" version="1.1" xmlns="http://www.w3.org/2000/svg" xmlns:xlink="http://www.w3.org/1999/xlink">
    <!-- Generator: sketchtool 49.1 (51147) - http://www.bohemiancoding.com/sketch -->
    <title>camera-16</title>
    <desc>Created with sketchtool.</desc>
    <defs></defs>
    <g id="Icons" stroke="none" stroke-width="1" fill="none" fill-rule="evenodd">
        <g id="camera-16" fill="#000000" fill-rule="nonzero">
            <path d="M2.9,14 L13.1,14 C14.149341,14 15,13.149341 15,12.1 L15,5.9 C15.0046986,5.19769817 14.6195837,4.55070524 14,4.22 C14.0392992,3.68410162 13.7897148,3.16794521 13.3452628,2.86596189 C12.9008108,2.56397858 12.329014,2.52204682 11.8452628,2.75596189 C11.3615116,2.98987697 11.0392992,3.46410162 11,4 L10.1,4 L10.1,2.9 C10.1,1.85065898 9.24934102,1 8.2,1 L6,1 C4.95065898,1 4.1,1.85065898 4.1,2.9 L4.1,4 L2.9,4 C1.85065898,4 1,4.85065898 1,5.9 L1,12.1 C1,13.149341 1.85065898,14 2.9,14 L2.9,14 Z M5.9,2.9 C5.9,2.87347835 5.91053568,2.84804296 5.92928932,2.82928932 C5.94804296,2.81053568 5.97347835,2.8 6,2.8 L8.2,2.8 C8.25522847,2.8 8.3,2.84477153 8.3,2.9 L8.3,4 L5.9,4 L5.9,2.9 L5.9,2.9 Z M2.8,5.9 C2.8,5.84477153 2.84477153,5.8 2.9,5.8 L13.1,5.8 C13.1552285,5.8 13.2,5.84477153 13.2,5.9 L13.2,12.1 C13.2,12.1552285 13.1552285,12.2 13.1,12.2 L2.9,12.2 C2.84477153,12.2 2.8,12.1552285 2.8,12.1 L2.8,5.9 Z" id="Shape"></path>
            <path d="M7,11.6 C8.43594035,11.6 9.6,10.4359403 9.6,9 C9.6,7.56405965 8.43594035,6.4 7,6.4 C5.56405965,6.4 4.4,7.56405965 4.4,9 C4.4,10.4359403 5.56405965,11.6 7,11.6 L7,11.6 Z M7,8 C7.55228475,8 8,8.44771525 8,9 C8,9.55228475 7.55228475,10 7,10 C6.44771525,10 6,9.55228475 6,9 C6,8.44771525 6.44771525,8 7,8 Z" id="Shape"></path>
        </g>
    </g>
</svg>