<?xml version="1.0" encoding="UTF-8"?>
<svg width="16px" height="16px" viewBox="0 0 16 16" version="1.1" xmlns="http://www.w3.org/2000/svg" xmlns:xlink="http://www.w3.org/1999/xlink">
    <!-- Generator: sketchtool 44.1 (41455) - http://www.bohemiancoding.com/sketch -->
    <title>camera-minus-16</title>
    <desc>Created with sketchtool.</desc>
    <defs></defs>
    <g id="Symbols" stroke="none" stroke-width="1" fill="none" fill-rule="evenodd">
        <g id="camera-minus-16" fill-rule="nonzero" fill="#000000">
            <path d="M15,9.1 L12,9.1 C11.5029437,9.1 11.1,9.50294373 11.1,10 C11.1,10.4970563 11.5029437,10.9 12,10.9 L15,10.9 C15.4970563,10.9 15.9,10.4970563 15.9,10 C15.9,9.50294373 15.4970563,9.1 15,9.1 L15,9.1 Z" id="Shape"></path>
            <path d="M14,12.2 L2.9,12.2 C2.84477153,12.2 2.8,12.1552285 2.8,12.1 L2.8,5.9 C2.8,5.84477153 2.84477153,5.8 2.9,5.8 L13.1,5.8 C13.1552285,5.8 13.2,5.84477153 13.2,5.9 L13.2,7 C13.2,7.49705627 13.6029437,7.9 14.1,7.9 C14.5970563,7.9 15,7.49705627 15,7 L15,5.9 C15.0046986,5.19769817 14.6195837,4.55070524 14,4.22 C14.0392992,3.68410161 13.7897148,3.16794519 13.3452628,2.86596187 C12.9008108,2.56397855 12.329014,2.52204679 11.8452628,2.75596187 C11.3615116,2.98987695 11.0392992,3.46410161 11,4 L10.1,4 L10.1,2.9 C10.1,1.85065898 9.24934102,1 8.2,1 L6,1 C4.95065898,1 4.1,1.85065898 4.1,2.9 L4.1,4 L2.9,4 C1.85065898,4 1,4.85065898 1,5.9 L1,12.1 C1,13.149341 1.85065898,14 2.9,14 L14,14 C14.4970563,14 14.9,13.5970563 14.9,13.1 C14.9,12.6029437 14.4970563,12.2 14,12.2 L14,12.2 Z M5.9,2.9 C5.9,2.84477153 5.94477153,2.8 6,2.8 L8.2,2.8 C8.25522847,2.8 8.3,2.84477153 8.3,2.9 L8.3,4 L5.9,4 L5.9,2.9 Z" id="Shape"></path>
            <path d="M4.4,9 C4.4,10.4359403 5.56405965,11.6 7,11.6 C8.43594035,11.6 9.6,10.4359403 9.6,9 C9.6,7.56405965 8.43594035,6.4 7,6.4 C5.56405965,6.4 4.4,7.56405965 4.4,9 Z M8,9 C8,9.55228475 7.55228475,10 7,10 C6.44771525,10 6,9.55228475 6,9 C6,8.44771525 6.44771525,8 7,8 C7.55228475,8 8,8.44771525 8,9 Z" id="Shape"></path>
        </g>
    </g>
</svg>