<?xml version="1.0" encoding="UTF-8"?>
<svg width="24px" height="24px" viewBox="0 0 24 24" version="1.1" xmlns="http://www.w3.org/2000/svg" xmlns:xlink="http://www.w3.org/1999/xlink">
    <!-- Generator: sketchtool 49.1 (51147) - http://www.bohemiancoding.com/sketch -->
    <title>camera-cross</title>
    <desc>Created with sketchtool.</desc>
    <defs></defs>
    <g id="Icons" stroke="none" stroke-width="1" fill="none" fill-rule="evenodd">
        <g id="camera-cross" fill="#000000" fill-rule="nonzero">
            <path d="M21.636,15.363 C21.8051525,15.5318316 21.9002084,15.7610091 21.9002084,16 C21.9002084,16.2389909 21.8051525,16.4681684 21.636,16.637 L19.273,19 L21.636,21.364 C21.9748026,21.7173622 21.9690301,22.2767228 21.6230072,22.6230178 C21.2769843,22.9693127 20.7176283,22.9755248 20.364,22.637 L18,20.273 L15.636,22.636 C15.4102879,22.8714119 15.0748817,22.966296 14.759296,22.8840137 C14.4437103,22.8017314 14.1973317,22.5551591 14.1152974,22.2395088 C14.0332631,21.9238585 14.1284108,21.5885271 14.364,21.363 L16.727,19 L14.364,16.636 C14.1284108,16.4104729 14.0332631,16.0751415 14.1152974,15.7594912 C14.1973317,15.4438409 14.4437103,15.1972686 14.759296,15.1149863 C15.0748817,15.032704 15.4102879,15.1275881 15.636,15.363 L18,17.727 L20.364,15.363 C20.7153811,15.0120559 21.2846189,15.0120559 21.636,15.363 Z M16,5 C17.1045695,5 18,5.8954305 18,7 C18,7.061 17.987,7.119 17.982,7.179 C19.1851748,7.59578629 19.9941692,8.72669468 20,10 L20,13 C20,13.5522847 19.5522847,14 19,14 C18.4477153,14 18,13.5522847 18,13 L18,10 C18,9.44771525 17.5522847,9 17,9 L5,9 C4.44771525,9 4,9.44771525 4,10 L4,17 C4,17.5522847 4.44771525,18 5,18 L11,18 C11.5522847,18 12,18.4477153 12,19 C12,19.5522847 11.5522847,20 11,20 L5,20 C3.34314575,20 2,18.6568542 2,17 L2,10 C2,8.34314575 3.34314575,7 5,7 L6,7 L6,6 C6,4.8954305 6.8954305,4 8,4 L11,4 C12.1045695,4 13,4.8954305 13,6 L13,7 L14,7 C14,5.8954305 14.8954305,5 16,5 Z M8,6 L8,7 L11,7 L11,6 L8,6 Z M6,13.5 C6,11.5670034 7.56700338,10 9.5,10 C11.4329966,10 13,11.5670034 13,13.5 C13,15.4329966 11.4329966,17 9.5,17 C7.56700338,17 6,15.4329966 6,13.5 Z M11.2,13.5 C11.2,12.5611159 10.4388841,11.8 9.5,11.8 C8.56111593,11.8 7.8,12.5611159 7.8,13.5 C7.8,14.4388841 8.56111593,15.2 9.5,15.2 C10.4388841,15.2 11.2,14.4388841 11.2,13.5 Z" id="Combined-Shape"></path>
        </g>
    </g>
</svg>