<?xml version="1.0" encoding="UTF-8"?>
<svg width="16px" height="16px" viewBox="0 0 16 16" version="1.1" xmlns="http://www.w3.org/2000/svg" xmlns:xlink="http://www.w3.org/1999/xlink">
    <!-- Generator: sketchtool 44.1 (41455) - http://www.bohemiancoding.com/sketch -->
    <title>cart-tick-16</title>
    <desc>Created with sketchtool.</desc>
    <defs></defs>
    <g id="Symbols" stroke="none" stroke-width="1" fill="none" fill-rule="evenodd">
        <g id="cart-tick-16" fill-rule="nonzero" fill="#000000">
            <path d="M15.25,2.13 L15.25,2.13 C15.7273664,2.26576503 16.0047334,2.76234142 15.87,3.24 L14.87,6.73 C14.1739068,8.68257487 12.3612545,10.0163387 10.29,10.1 L5.49,10.1 L5.61,10.43 C5.7019561,10.9164038 6.11555121,11.2762315 6.61,11.3 L13,11.3 C13.4970563,11.3 13.9,11.7029437 13.9,12.2 C13.9,12.6970563 13.4970563,13.1 13,13.1 L6.61,13.1 C5.24572819,13.0986557 4.07095241,12.1370954 3.8,10.8 C3.8,10.8 2.54,5.07 2.12,3.2 C2.01762095,2.53922654 1.52207305,2.0079992 0.87,1.86 C0.398428491,1.77363418 0.0747418372,1.33621978 0.13,0.86 C0.202139812,0.378596056 0.647653067,0.0444611148 1.13,0.11 C2.50935264,0.358382689 3.59625914,1.42545513 3.87,2.8 C4.09,3.94 4.69,6.46 5.09,8.3 L10.29,8.3 C11.5800407,8.2058849 12.6952356,7.36459755 13.14,6.15 L14.14,2.75 C14.275765,2.27263362 14.7723414,1.99526663 15.25,2.13 Z M5,16.1 L4,16.1 C3.50294373,16.1 3.1,15.6970563 3.1,15.2 C3.1,14.7029437 3.50294373,14.3 4,14.3 L5,14.3 C5.49705627,14.3 5.9,14.7029437 5.9,15.2 C5.9,15.6970563 5.49705627,16.1 5,16.1 Z M12,16.1 L12,16.1 C11.5029437,16.1 11.1,15.6970563 11.1,15.2 C11.1,14.7029437 11.5029437,14.3 12,14.3 L13,14.3 C13.4970563,14.3 13.9,14.7029437 13.9,15.2 C13.9,15.6970563 13.4970563,16.1 13,16.1 L12,16.1 Z M8.5,5.77 L6.36,3.64 C6.13135002,3.41135002 6.04205204,3.07808542 6.12574374,2.76574374 C6.20943544,2.45340206 6.45340206,2.20943544 6.76574374,2.12574374 C7.07808542,2.04205204 7.41135002,2.13135002 7.64,2.36 L8.5,3.23 L11.36,0.36 C11.7107008,0.00653776011 12.2815378,0.00429918386 12.635,0.355 C12.9884622,0.705700816 12.9907008,1.27653776 12.64,1.63 L8.5,5.77 Z" id="Combined-Shape"></path>
        </g>
    </g>
</svg>