<?xml version="1.0" encoding="UTF-8"?>
<svg width="16px" height="16px" viewBox="0 0 16 16" version="1.1" xmlns="http://www.w3.org/2000/svg" xmlns:xlink="http://www.w3.org/1999/xlink">
    <!-- Generator: sketchtool 49.1 (51147) - http://www.bohemiancoding.com/sketch -->
    <title>cart-16</title>
    <desc>Created with sketchtool.</desc>
    <defs></defs>
    <g id="Icons" stroke="none" stroke-width="1" fill="none" fill-rule="evenodd">
        <g id="cart-16" fill="#000000" fill-rule="nonzero">
            <path d="M15,2 L3.59,2 C3.12460449,1.0086774 2.20776206,0.304274071 1.13,0.11 C0.647653067,0.0444611148 0.202139812,0.378596056 0.13,0.86 C0.0747418372,1.33621978 0.398428491,1.77363418 0.87,1.86 C1.52207305,2.0079992 2.01762095,2.53922654 2.12,3.2 L3.8,10.7 C4.07095241,12.0370954 5.24572819,12.9986557 6.61,13 L13,13 C13.4970563,13 13.9,12.5970563 13.9,12.1 C13.9,11.6029437 13.4970563,11.2 13,11.2 L6.61,11.2 C6.09492891,11.1945957 5.65536043,10.8261954 5.56,10.32 L5.49,10 L10.29,10 C12.3612545,9.91633868 14.1739068,8.58257487 14.87,6.63 L15.87,3.14 C15.9450795,2.86865169 15.8888522,2.57780377 15.7180472,2.35399028 C15.5472422,2.1301768 15.2815425,1.99918944 15,2 L15,2 Z M13.17,6.05 C12.7230085,7.27564767 11.592149,8.11986569 10.29,8.2 L5.09,8.2 L4.09,3.8 L13.8,3.8 L13.17,6.05 Z" id="Shape"></path>
            <path d="M5,16 C5.49705627,16 5.9,15.5970563 5.9,15.1 C5.9,14.6029437 5.49705627,14.2 5,14.2 L4,14.2 C3.50294373,14.2 3.1,14.6029437 3.1,15.1 C3.1,15.5970563 3.50294373,16 4,16 L5,16 Z" id="Shape"></path>
            <path d="M13,16 C13.4970563,16 13.9,15.5970563 13.9,15.1 C13.9,14.6029437 13.4970563,14.2 13,14.2 L12,14.2 C11.5029437,14.2 11.1,14.6029437 11.1,15.1 C11.1,15.5970563 11.5029437,16 12,16 L13,16 Z" id="Shape"></path>
        </g>
    </g>
</svg>