<?xml version="1.0" encoding="UTF-8"?>
<svg width="16px" height="16px" viewBox="0 0 16 16" version="1.1" xmlns="http://www.w3.org/2000/svg" xmlns:xlink="http://www.w3.org/1999/xlink">
    <!-- Generator: sketchtool 49.1 (51147) - http://www.bohemiancoding.com/sketch -->
    <title>cart-question-16</title>
    <desc>Created with sketchtool.</desc>
    <defs></defs>
    <g id="Icons" stroke="none" stroke-width="1" fill="none" fill-rule="evenodd">
        <g id="cart-question-16" fill="#000000" fill-rule="nonzero">
            <path d="M15.25,2 C14.7723414,1.86526663 14.275765,2.14263362 14.14,2.62 L13.14,6.02 C12.7069137,7.2479409 11.5884907,8.10343635 10.29,8.2 L5.09,8.2 L3.88,2.8 C3.6048803,1.42251154 2.51322144,0.354670696 1.13,0.11 C0.647653067,0.0444611148 0.202139812,0.378596056 0.13,0.86 C0.0747418372,1.33621978 0.398428491,1.77363418 0.87,1.86 C1.52207305,2.0079992 2.01762095,2.53922654 2.12,3.2 L3.8,10.7 C4.07095241,12.0370954 5.24572819,12.9986557 6.61,13 L13,13 C13.4970563,13 13.9,12.5970563 13.9,12.1 C13.9,11.6029437 13.4970563,11.2 13,11.2 L6.61,11.2 C6.11245768,11.1752159 5.69784128,10.8103535 5.61,10.32 L5.49,10 L10.29,10 C12.3612545,9.91633868 14.1739068,8.58257487 14.87,6.63 L15.87,3.14 C15.9440069,2.90658869 15.9197149,2.65309912 15.8027263,2.43799096 C15.6857376,2.22288281 15.4861528,2.06472795 15.25,2 L15.25,2 Z" id="Shape"></path>
            <path d="M5,16 C5.49705627,16 5.9,15.5970563 5.9,15.1 C5.9,14.6029437 5.49705627,14.2 5,14.2 L4,14.2 C3.50294373,14.2 3.1,14.6029437 3.1,15.1 C3.1,15.5970563 3.50294373,16 4,16 L5,16 Z" id="Shape"></path>
            <path d="M13,16 C13.4970563,16 13.9,15.5970563 13.9,15.1 C13.9,14.6029437 13.4970563,14.2 13,14.2 L12,14.2 C11.5029437,14.2 11.1,14.6029437 11.1,15.1 C11.1,15.5970563 11.5029437,16 12,16 L13,16 Z" id="Shape"></path>
            <circle id="Oval" cx="8.5" cy="6.5" r="1"></circle>
            <path d="M10.8,2.5 C10.8,1.22974509 9.77025491,0.200000048 8.5,0.200000048 C7.22974509,0.200000048 6.20000003,1.22974509 6.2,2.5 C6.2,2.9418278 6.5581722,3.3 7,3.3 C7.4418278,3.3 7.8,2.9418278 7.8,2.5 C7.8,2.11340068 8.11340068,1.8 8.5,1.8 C8.88659932,1.8 9.2,2.11340068 9.2,2.5 C9.2,2.88659932 8.88659932,3.2 8.5,3.2 C8.05817221,3.20000001 7.70000002,3.55817221 7.70000002,4 C7.70000002,4.44182779 8.05817221,4.79999999 8.5,4.8 C9.77025492,4.8 10.8,3.77025492 10.8,2.5 L10.8,2.5 Z" id="Shape"></path>
        </g>
    </g>
</svg>