<?xml version="1.0" encoding="UTF-8"?>
<svg width="24px" height="24px" viewBox="0 0 24 24" version="1.1" xmlns="http://www.w3.org/2000/svg" xmlns:xlink="http://www.w3.org/1999/xlink">
    <!-- Generator: sketchtool 49.1 (51147) - http://www.bohemiancoding.com/sketch -->
    <title>cart-tick</title>
    <desc>Created with sketchtool.</desc>
    <defs></defs>
    <g id="Icons" stroke="none" stroke-width="1" fill="none" fill-rule="evenodd">
        <g id="cart-tick" fill="#000000" fill-rule="nonzero">
            <path d="M23.363,4.068 C23.6102156,4.16423081 23.8090632,4.35474925 23.9157778,4.59762349 C24.0224924,4.84049773 24.028328,5.11582226 23.932,5.363 L21.932,10.486 C21.9156529,10.5280203 21.8962683,10.5687947 21.874,10.608 C20.3678873,13.3180422 17.511436,14.9990732 14.411,15 L7.744,15 C7.88223637,15.5829185 8.40092874,15.9958901 9,16 L20,16 C20.5522847,16 21,16.4477153 21,17 C21,17.5522847 20.5522847,18 20,18 L9,18 C7.35804283,17.992523 5.96754899,16.7872584 5.727,15.163 L4.507,5.12 C4.39990878,3.84240483 3.27763401,2.89337311 2,3 C1.44771525,3 1,2.55228475 1,2 C1,1.44771525 1.44771525,1 2,1 C4.26901516,0.908032258 6.22513412,2.58115496 6.486,4.837 L7.479,13 L14.411,13 C16.761833,12.9994828 18.9315239,11.7372977 20.094,9.694 L22.068,4.636 C22.2687934,4.12158307 22.8485478,3.86729693 23.363,4.068 Z M7,23 C5.8954305,23 5,22.1045695 5,21 C5,19.8954305 5.8954305,19 7,19 C8.1045695,19 9,19.8954305 9,21 C9,22.1045695 8.1045695,23 7,23 Z M19,23 C17.8954305,23 17,22.1045695 17,21 C17,19.8954305 17.8954305,19 19,19 C20.1045695,19 21,19.8954305 21,21 C21,22.1045695 20.1045695,23 19,23 Z M13,10.414 L9.293,6.707 C8.91402779,6.31462111 8.91944763,5.69091522 9.30518142,5.30518142 C9.69091522,4.91944763 10.3146211,4.91402779 10.707,5.293 L13,7.586 L18.293,2.293 C18.6853789,1.91402779 19.3090848,1.91944763 19.6948186,2.30518142 C20.0805524,2.69091522 20.0859722,3.31462111 19.707,3.707 L13,10.414 Z" id="Combined-Shape"></path>
        </g>
    </g>
</svg>