<?xml version="1.0" encoding="UTF-8"?>
<svg width="24px" height="24px" viewBox="0 0 24 24" version="1.1" xmlns="http://www.w3.org/2000/svg" xmlns:xlink="http://www.w3.org/1999/xlink">
    <!-- Generator: sketchtool 49.1 (51147) - http://www.bohemiancoding.com/sketch -->
    <title>cart-delivery</title>
    <desc>Created with sketchtool.</desc>
    <defs></defs>
    <g id="Icons" stroke="none" stroke-width="1" fill="none" fill-rule="evenodd">
        <g id="cart-delivery" fill="#000000" fill-rule="nonzero">
            <path d="M23,4 L8.781,4 C8.19958664,2.14478233 6.44225552,0.91329591 4.5,1 C3.94771525,1 3.5,1.44771525 3.5,2 C3.5,2.55228475 3.94771525,3 4.5,3 C5.76256312,2.89782985 6.8744059,3.82555147 7,5.086 L7,15.021 C6.99990769,15.0685124 7.00324973,15.1159694 7.01,15.163 C7.10757237,16.7468609 8.41320118,17.9856799 10,18 L19,18 C19.5522847,18 20,17.5522847 20,17 C20,16.4477153 19.5522847,16 19,16 L10,16 C9.353,16 9.107,15.482 9.015,15 L14.415,15 C17.515436,14.9990732 20.3718873,13.3180422 21.878,10.608 C21.9002683,10.5687947 21.9196529,10.5280203 21.936,10.486 L23.936,5.363 C24.0561468,5.05460231 24.0159185,4.70673519 23.8285561,4.43389873 C23.6411937,4.16106227 23.330972,3.99860517 23,4 L23,4 Z M20.094,9.694 C18.9315239,11.7372977 16.761833,12.9994828 14.411,13 L9,13 L9,6 L21.536,6 L20.094,9.694 Z M7,23 C5.8954305,23 5,22.1045695 5,21 C5,19.8954305 5.8954305,19 7,19 C8.1045695,19 9,19.8954305 9,21 C9,22.1045695 8.1045695,23 7,23 Z M17,23 C15.8954305,23 15,22.1045695 15,21 C15,19.8954305 15.8954305,19 17,19 C18.1045695,19 19,19.8954305 19,21 C19,22.1045695 18.1045695,23 17,23 Z M5,8 L1,8 C0.44771525,8 -6.76353751e-17,7.55228475 0,7 C6.76353751e-17,6.44771525 0.44771525,6 1,6 L5,6 C5.55228475,6 6,6.44771525 6,7 C6,7.55228475 5.55228475,8 5,8 Z M6,10 C6,10.5522847 5.55228475,11 5,11 L2.5,11 C1.94771525,11 1.5,10.5522847 1.5,10 C1.5,9.44771525 1.94771525,9 2.5,9 L5,9 C5.55228475,9 6,9.44771525 6,10 Z M4,14 C3.44771525,14 3,13.5522847 3,13 C3,12.4477153 3.44771525,12 4,12 L5,12 C5.55228475,12 6,12.4477153 6,13 C6,13.5522847 5.55228475,14 5,14 L4,14 Z" id="Combined-Shape"></path>
        </g>
    </g>
</svg>