<?xml version="1.0" encoding="UTF-8"?>
<svg width="24px" height="24px" viewBox="0 0 24 24" version="1.1" xmlns="http://www.w3.org/2000/svg" xmlns:xlink="http://www.w3.org/1999/xlink">
    <!-- Generator: sketchtool 49.1 (51147) - http://www.bohemiancoding.com/sketch -->
    <title>cart-cross</title>
    <desc>Created with sketchtool.</desc>
    <defs></defs>
    <g id="Icons" stroke="none" stroke-width="1" fill="none" fill-rule="evenodd">
        <g id="cart-cross" fill="#000000" fill-rule="nonzero">
            <path d="M23.364,4.068 C23.8784169,4.26879335 24.1327031,4.84854784 23.932,5.363 L21.932,10.486 C21.9154386,10.5279275 21.8960611,10.5686871 21.874,10.608 C20.3675707,13.3177333 17.5113196,14.9986464 14.411,15 L7.744,15 C7.88223637,15.5829185 8.40092874,15.9958901 9,16 L20,16 C20.5522847,16 21,16.4477153 21,17 C21,17.5522847 20.5522847,18 20,18 L9,18 C7.35723767,17.9937215 5.96591001,16.787309 5.727,15.162 L4.507,5.12 C4.3993783,3.84267854 3.27745222,2.89394168 2,3 C1.44771525,3 1,2.55228475 1,2 C1,1.44771525 1.44771525,1 2,1 C4.26939254,0.907495097 6.22610947,2.58075627 6.487,4.837 L7.479,13 L14.411,13 C16.7617766,12.9992739 18.9313701,11.7371454 20.094,9.694 L22.064,4.636 C22.1603804,4.38774208 22.3518042,4.18818271 22.595838,4.08155871 C22.8398718,3.97493471 23.1163554,3.97005454 23.364,4.068 Z M7,23 C5.8954305,23 5,22.1045695 5,21 C5,19.8954305 5.8954305,19 7,19 C8.1045695,19 9,19.8954305 9,21 C9,22.1045695 8.1045695,23 7,23 Z M19,23 C17.8954305,23 17,22.1045695 17,21 C17,19.8954305 17.8954305,19 19,19 C20.1045695,19 21,19.8954305 21,21 C21,22.1045695 20.1045695,23 19,23 Z M16.707,3.293 C17.0973819,3.68349985 17.0973819,4.31650015 16.707,4.707 L14.914,6.5 L16.707,8.293 C17.0859722,8.68537889 17.0805524,9.30908478 16.6948186,9.69481858 C16.3090848,10.0805524 15.6853789,10.0859722 15.293,9.707 L13.5,7.914 L11.707,9.707 C11.4559255,9.96695658 11.0841221,10.0712126 10.7344927,9.97969716 C10.3848632,9.88818172 10.1118183,9.61513676 10.0203028,9.26550732 C9.9287874,8.91587789 10.0330434,8.54407447 10.293,8.293 L12.086,6.5 L10.293,4.707 C9.91402779,4.31462111 9.91944763,3.69091522 10.3051814,3.30518142 C10.6909152,2.91944763 11.3146211,2.91402779 11.707,3.293 L13.5,5.086 L15.293,3.293 C15.6834999,2.90261806 16.3165001,2.90261806 16.707,3.293 Z" id="Combined-Shape"></path>
        </g>
    </g>
</svg>