<?xml version="1.0" encoding="UTF-8"?>
<svg width="24px" height="24px" viewBox="0 0 24 24" version="1.1" xmlns="http://www.w3.org/2000/svg" xmlns:xlink="http://www.w3.org/1999/xlink">
    <!-- Generator: sketchtool 44.1 (41455) - http://www.bohemiancoding.com/sketch -->
    <title>cloud</title>
    <desc>Created with sketchtool.</desc>
    <defs></defs>
    <g id="Symbols" stroke="none" stroke-width="1" fill="none" fill-rule="evenodd">
        <g id="cloud" fill-rule="nonzero" fill="#000000">
            <path d="M19.845,10.013 C19.218268,6.90320247 16.7011204,4.52507753 13.5607662,4.07584583 C10.420412,3.62661413 7.33747512,5.2036398 5.864,8.013 C3.85707052,7.8748589 1.93483668,8.8434266 0.851667763,10.5385944 C-0.231501156,12.2337623 -0.302773359,14.3850471 0.665821508,16.14819 C1.63441638,17.9113329 3.48832809,19.0050046 5.5,19 L19.5,19 C21.9193595,19.0017256 23.9070894,17.0902029 23.9998974,14.6726235 C24.0927053,12.2550442 22.2573715,10.1967587 19.845,10.013 L19.845,10.013 Z M19.5,17 L5.5,17 C3.56700338,17 2,15.4329966 2,13.5 C2,11.5670034 3.56700338,10 5.5,10 C5.61927639,10.0071931 5.73810145,10.0205442 5.856,10.04 L6.145,10.517 C6.32341853,10.8359048 6.66157928,11.0320963 7.02698581,11.0287039 C7.39239233,11.0253114 7.72685218,10.8228752 7.89931899,10.5007127 C8.07178579,10.1785503 8.05479352,9.7879673 7.855,9.482 L7.595,9.052 C8.65330074,6.89930282 10.9918762,5.68859194 13.360601,6.06707347 C15.7293259,6.445555 17.5741941,8.32470831 17.909,10.7 L17.304,11.286 C16.916392,11.6729134 16.9121222,12.2996306 17.2944223,12.6917894 C17.6767224,13.0839483 18.3033452,13.0956333 18.7,12.718 L19.433,12.008 C19.457,12.008 19.48,12 19.504,12 C20.8847119,12 22.004,13.1192881 22.004,14.5 C22.004,15.8807119 20.8847119,17 19.504,17 L19.5,17 Z" id="Shape"></path>
        </g>
    </g>
</svg>