<?xml version="1.0" encoding="UTF-8"?>
<svg width="24px" height="24px" viewBox="0 0 24 24" version="1.1" xmlns="http://www.w3.org/2000/svg" xmlns:xlink="http://www.w3.org/1999/xlink">
    <!-- Generator: sketchtool 49.1 (51147) - http://www.bohemiancoding.com/sketch -->
    <title>code</title>
    <desc>Created with sketchtool.</desc>
    <defs></defs>
    <g id="Icons" stroke="none" stroke-width="1" fill="none" fill-rule="evenodd">
        <g id="code" fill="#000000" fill-rule="nonzero">
            <path d="M16.293,17.707 C15.9026181,17.3165001 15.9026181,16.6834999 16.293,16.293 L20.586,12 L16.293,7.707 C15.9140278,7.31462111 15.9194476,6.69091522 16.3051814,6.30518142 C16.6909152,5.91944763 17.3146211,5.91402779 17.707,6.293 L22.707,11.293 C23.0973819,11.6834999 23.0973819,12.3165001 22.707,12.707 L17.707,17.707 C17.3165001,18.0973819 16.6834999,18.0973819 16.293,17.707 Z M6.293,17.707 L1.293,12.707 C0.902618062,12.3165001 0.902618062,11.6834999 1.293,11.293 L6.293,6.293 C6.68537889,5.91402779 7.30908478,5.91944763 7.69481858,6.30518142 C8.08055237,6.69091522 8.08597221,7.31462111 7.707,7.707 L3.414,12 L7.707,16.293 C8.08597221,16.6853789 8.08055237,17.3090848 7.69481858,17.6948186 C7.30908478,18.0805524 6.68537889,18.0859722 6.293,17.707 Z M9.757,20.97 C9.22129287,20.8357826 8.89580988,20.292714 9.03,19.757 L13.03,3.757 C13.1116193,3.40498737 13.3767967,3.12438913 13.7236391,3.02302375 C14.0704816,2.92165837 14.44503,3.01529548 14.7033661,3.26795548 C14.9617021,3.52061548 15.063636,3.89299154 14.97,4.242 L10.97,20.242 C10.9057654,20.499441 10.7418511,20.7208001 10.5143459,20.8573407 C10.2868406,20.9938814 10.0143975,21.0344087 9.757,20.97 Z" id="Combined-Shape"></path>
        </g>
    </g>
</svg>