<?xml version="1.0" encoding="UTF-8"?>
<svg width="24px" height="24px" viewBox="0 0 24 24" version="1.1" xmlns="http://www.w3.org/2000/svg" xmlns:xlink="http://www.w3.org/1999/xlink">
    <!-- Generator: sketchtool 49.1 (51147) - http://www.bohemiancoding.com/sketch -->
    <title>credit-card-plus</title>
    <desc>Created with sketchtool.</desc>
    <defs></defs>
    <g id="Icons" stroke="none" stroke-width="1" fill="none" fill-rule="evenodd">
        <g id="credit-card-plus" fill="#000000" fill-rule="nonzero">
            <path d="M23,3 C23.5522847,3 24,3.44771525 24,4 C24,4.55228475 23.5522847,5 23,5 L21,5 L21,7 C21,7.55228475 20.5522847,8 20,8 C19.4477153,8 19,7.55228475 19,7 L19,5 L17,5 C16.4477153,5 16,4.55228475 16,4 C16,3.44771525 16.4477153,3 17,3 L19,3 L19,1 C19,0.44771525 19.4477153,-3.38176876e-17 20,0 C20.5522847,3.38176876e-17 21,0.44771525 21,1 L21,3 L23,3 Z M5,19 C3.34314575,19 2,17.6568542 2,16 L2,8 C2,6.34314575 3.34314575,5 5,5 L14,5 C14.5522847,5 15,5.44771525 15,6 C15,6.55228475 14.5522847,7 14,7 L5,7 C4.44771525,7 4,7.44771525 4,8 L4,9 L22,9 L22,16 C22,17.6568542 20.6568542,19 19,19 L5,19 Z M20,12 L4,12 L4,16 C4,16.5522847 4.44771525,17 5,17 L19,17 C19.5522847,17 20,16.5522847 20,16 L20,12 Z" id="Combined-Shape"></path>
        </g>
    </g>
</svg>