<?xml version="1.0" encoding="UTF-8"?>
<svg width="16px" height="16px" viewBox="0 0 16 16" version="1.1" xmlns="http://www.w3.org/2000/svg" xmlns:xlink="http://www.w3.org/1999/xlink">
    <!-- Generator: sketchtool 49.1 (51147) - http://www.bohemiancoding.com/sketch -->
    <title>device-video-camera-16</title>
    <desc>Created with sketchtool.</desc>
    <defs></defs>
    <g id="Icons" stroke="none" stroke-width="1" fill="none" fill-rule="evenodd">
        <g id="device-video-camera-16" fill="#000000" fill-rule="nonzero">
            <path d="M14.1,9.1 C14.5970563,9.1 15,9.50294373 15,10 L15,12 C15,12.4970563 14.5970563,12.9 14.1,12.9 C13.6029437,12.9 13.2,12.4970563 13.2,12 L13.2,10 C13.2,9.50294373 13.6029437,9.1 14.1,9.1 Z M1,4.45 C1.00156326,3.02612303 1.87771676,1.74947678 3.20577201,1.23596208 C4.53382725,0.722447387 6.04093048,1.0775677 7,2.13 C7.82697357,1.15610226 9.12445749,0.718968352 10.3721683,0.993886429 C11.619879,1.26880451 12.6134982,2.21075545 12.9545902,3.44202241 C13.2956822,4.67328937 12.9283917,5.99224663 12,6.87 L12,15 L4.9,15 C3.28232454,14.9460478 1.99910055,13.6185747 2,12 L2,6.87 C1.360685,6.22669812 1.00128518,5.35695056 1,4.45 Z M4.9,13.2 L10.2,13.2 L10.2,7.83 C9.98604688,7.87391543 9.76839759,7.89735458 9.55,7.9 C9.41401899,7.89725286 9.28052547,7.86302375 9.16,7.8 L4.84,7.8 C4.71947453,7.86302375 4.58598101,7.89725286 4.45,7.9 C4.23160241,7.89735458 4.01395312,7.87391543 3.8,7.83 L3.8,12 C3.7878902,12.6293748 4.27194912,13.1574391 4.9,13.2 Z M4.45,2.8 C3.65426941,2.81213487 2.98058547,3.39052407 2.84816255,4.17525243 C2.71573964,4.95998079 3.16231607,5.72741393 3.91,6 L10.09,6 C10.8852595,5.72455063 11.3457605,4.89470639 11.1587041,4.07414569 C10.9716477,3.253585 10.1969882,2.70531004 9.36091945,2.80174103 C8.52485066,2.89817202 7.89534531,3.60840135 7.9,4.45 C7.9,4.94705627 7.49705627,5.35 7,5.35 C6.50294373,5.35 6.1,4.94705627 6.1,4.45 C6.1,3.53873016 5.36126984,2.8 4.45,2.8 Z" id="Combined-Shape"></path>
        </g>
    </g>
</svg>