<?xml version="1.0" encoding="UTF-8"?>
<svg width="24px" height="24px" viewBox="0 0 24 24" version="1.1" xmlns="http://www.w3.org/2000/svg" xmlns:xlink="http://www.w3.org/1999/xlink">
    <!-- Generator: sketchtool 49.1 (51147) - http://www.bohemiancoding.com/sketch -->
    <title>device-mobile</title>
    <desc>Created with sketchtool.</desc>
    <defs></defs>
    <g id="Icons" stroke="none" stroke-width="1" fill="none" fill-rule="evenodd">
        <g id="device-mobile" fill="#000000" fill-rule="nonzero">
            <path d="M17,1 L9,1 C7.34314575,1 6,2.34314575 6,4 L6,15.952 C6,15.969 5.99,15.983 5.99,16 C5.99,16.017 5.999,16.031 6,16.048 L6,20 C6,21.6568542 7.34314575,23 9,23 L17,23 C18.6568542,23 20,21.6568542 20,20 L20,16.024 L20,16 L20,15.976 L20,4 C20,2.34314575 18.6568542,1 17,1 L17,1 Z M9,3 L17,3 C17.5522847,3 18,3.44771525 18,4 L18,15 L8.01,15 L8.01,4 C8.00997258,3.45159704 8.45162446,3.00548403 9,3 L9,3 Z M17,21 L9,21 C8.44771525,21 8,20.5522847 8,20 L8,17 L18,17 L18,20 C18,20.5522847 17.5522847,21 17,21 Z M13,20 C13.5522847,20 14,19.5522847 14,19 C14,18.4477153 13.5522847,18 13,18 C12.4477153,18 12,18.4477153 12,19 C12,19.5522847 12.4477153,20 13,20 Z" id="Combined-Shape"></path>
        </g>
    </g>
</svg>