<?xml version="1.0" encoding="UTF-8"?>
<svg width="16px" height="16px" viewBox="0 0 16 16" version="1.1" xmlns="http://www.w3.org/2000/svg" xmlns:xlink="http://www.w3.org/1999/xlink">
    <!-- Generator: sketchtool 49.1 (51147) - http://www.bohemiancoding.com/sketch -->
    <title>device-desktop-16</title>
    <desc>Created with sketchtool.</desc>
    <defs></defs>
    <g id="Icons" stroke="none" stroke-width="1" fill="none" fill-rule="evenodd">
        <g id="device-desktop-16" fill="#000000" fill-rule="nonzero">
            <path d="M13.1,2 L2.9,2 C1.85065898,2 1,2.85065898 1,3.9 L1,10.1 C1,10.6039113 1.200178,11.0871838 1.55649712,11.4435029 C1.91281623,11.799822 2.39608867,12 2.9,12 L6,12 L6,13 L4,13 C3.44771525,13 3,13.4477153 3,14 C3,14.5522847 3.44771525,15 4,15 L12,15 C12.5522847,15 13,14.5522847 13,14 C13,13.4477153 12.5522847,13 12,13 L10,13 L10,12 L13.1,12 C13.6039113,12 14.0871838,11.799822 14.4435029,11.4435029 C14.799822,11.0871838 15,10.6039113 15,10.1 L15,3.9 C15,2.85065898 14.149341,2 13.1,2 L13.1,2 Z M8.2,13 L7.8,13 L7.8,12 L8.2,12 L8.2,13 Z M13.2,10.1 C13.2,10.1552285 13.1552285,10.2 13.1,10.2 L2.9,10.2 C2.84477153,10.2 2.8,10.1552285 2.8,10.1 L2.8,3.9 C2.8,3.84477153 2.84477153,3.8 2.9,3.8 L13.1,3.8 C13.1552285,3.8 13.2,3.84477153 13.2,3.9 L13.2,10.1 Z" id="Shape"></path>
        </g>
    </g>
</svg>