<?xml version="1.0" encoding="UTF-8"?>
<svg width="16px" height="16px" viewBox="0 0 16 16" version="1.1" xmlns="http://www.w3.org/2000/svg" xmlns:xlink="http://www.w3.org/1999/xlink">
    <!-- Generator: sketchtool 44.1 (41455) - http://www.bohemiancoding.com/sketch -->
    <title>dimension-width-16</title>
    <desc>Created with sketchtool.</desc>
    <defs></defs>
    <g id="Symbols" stroke="none" stroke-width="1" fill="none" fill-rule="evenodd">
        <g id="dimension-width-16" fill-rule="nonzero" fill="#000000">
            <path d="M5,10.9 C5.36626411,10.9029538 5.6977827,10.6836473 5.83834613,10.3454166 C5.97890956,10.0071858 5.90047486,9.61750917 5.64,9.36 L4.17,7.9 L11.82,7.9 L10.36,9.36 C10.1073677,9.58119502 9.99888046,9.92463311 10.0786043,10.2508147 C10.1583282,10.5769963 10.4130037,10.8316718 10.7391853,10.9113957 C11.0653669,10.9911195 11.408805,10.8826323 11.63,10.63 L15.27,7 L11.64,3.36 C11.2834323,3.0478032 10.7458521,3.0656172 10.4107346,3.40073465 C10.0756172,3.73585209 10.0578032,4.27343225 10.37,4.63 L11.83,6.1 L4.17,6.1 L5.64,4.64 C5.99346223,4.28653776 5.99346223,3.71346225 5.63999999,3.36000001 C5.28653775,3.00653777 4.71346224,3.00653777 4.36,3.36 L0.73,7 L4.37,10.64 C4.53779624,10.8059033 4.76403609,10.8992722 5,10.9 Z" id="Shape"></path>
        </g>
    </g>
</svg>