<?xml version="1.0" encoding="UTF-8"?>
<svg width="16px" height="16px" viewBox="0 0 16 16" version="1.1" xmlns="http://www.w3.org/2000/svg" xmlns:xlink="http://www.w3.org/1999/xlink">
    <!-- Generator: sketchtool 44.1 (41455) - http://www.bohemiancoding.com/sketch -->
    <title>dimension-weight-16</title>
    <desc>Created with sketchtool.</desc>
    <defs></defs>
    <g id="Symbols" stroke="none" stroke-width="1" fill="none" fill-rule="evenodd">
        <g id="dimension-weight-16" fill-rule="nonzero" fill="#000000">
            <path d="M13.33,7.24 C13.0455302,6.03325451 12.0323198,5.13618277 10.8,5 C10.9284305,4.68205139 10.9962633,4.34288736 11,4 C11,2.34314575 9.65685425,1 8,1 C6.34314575,1 5,2.34314575 5,4 C5.00373674,4.34288736 5.07156955,4.68205139 5.2,5 C3.96768024,5.13618277 2.95446976,6.03325451 2.67,7.24 L0.75,15 L15.25,15 L13.33,7.24 Z M8,2.8 C8.6627417,2.8 9.2,3.3372583 9.2,4 C9.2,4.55228475 8.75228475,5 8.2,5 L7.75,5 C7.19771525,5 6.75,4.55228475 6.75,4 C6.74971592,3.67288468 6.88298442,3.35983093 7.11896135,3.13329308 C7.35493828,2.90675522 7.67316864,2.78637007 8,2.8 L8,2.8 Z M3.05,13.2 L4.42,7.67 C4.540576,7.16001826 4.99595809,6.79985243 5.52,6.8 L10.52,6.8 C11.0440419,6.79985243 11.499424,7.16001826 11.62,7.67 L12.99,13.2 L3.05,13.2 L3.05,13.2 Z" id="Shape"></path>
        </g>
    </g>
</svg>