<?xml version="1.0" encoding="UTF-8"?>
<svg width="24px" height="24px" viewBox="0 0 24 24" version="1.1" xmlns="http://www.w3.org/2000/svg" xmlns:xlink="http://www.w3.org/1999/xlink">
    <!-- Generator: sketchtool 49.1 (51147) - http://www.bohemiancoding.com/sketch -->
    <title>dimension-ruler</title>
    <desc>Created with sketchtool.</desc>
    <defs></defs>
    <g id="Icons" stroke="none" stroke-width="1" fill="none" fill-rule="evenodd">
        <g id="dimension-ruler" fill="#000000" fill-rule="nonzero">
            <path d="M22,7 L2,7 C0.8954305,7 1.3527075e-16,7.8954305 0,9 L0,15 C1.3527075e-16,16.1045695 0.8954305,17 2,17 L22,17 C23.1045695,17 24,16.1045695 24,15 L24,9 C24,7.8954305 23.1045695,7 22,7 Z M2,15 L2,9 L7,9 L7,12 C7,12.5522847 7.44771525,13 8,13 C8.55228475,13 9,12.5522847 9,12 L9,9 L10,9 L10,11 C10,11.5522847 10.4477153,12 11,12 C11.5522847,12 12,11.5522847 12,11 L12,9 L13,9 L13,12 C13,12.5522847 13.4477153,13 14,13 C14.5522847,13 15,12.5522847 15,12 L15,9 L16,9 L16,11 C16,11.5522847 16.4477153,12 17,12 C17.5522847,12 18,11.5522847 18,11 L18,9 L19,9 L19,12 C19,12.5522847 19.4477153,13 20,13 C20.5522847,13 21,12.5522847 21,12 L21,9 L22,9 L22,15 L2,15 Z M4,13 C4.55228475,13 5,12.5522847 5,12 C5,11.4477153 4.55228475,11 4,11 C3.44771525,11 3,11.4477153 3,12 C3,12.5522847 3.44771525,13 4,13 Z" id="Combined-Shape"></path>
        </g>
    </g>
</svg>