<?xml version="1.0" encoding="UTF-8"?>
<svg width="16px" height="16px" viewBox="0 0 16 16" version="1.1" xmlns="http://www.w3.org/2000/svg" xmlns:xlink="http://www.w3.org/1999/xlink">
    <!-- Generator: sketchtool 44.1 (41455) - http://www.bohemiancoding.com/sketch -->
    <title>docs-clipboard-16</title>
    <desc>Created with sketchtool.</desc>
    <defs></defs>
    <g id="Symbols" stroke="none" stroke-width="1" fill="none" fill-rule="evenodd">
        <g id="docs-clipboard-16" fill-rule="nonzero" fill="#000000">
            <path d="M11.86,2 L11,2 L11,1 L5,1 L5,2 L4.14,2 C3.575087,1.9973416 3.03225599,2.21920611 2.63092678,2.61678458 C2.22959757,3.01436305 2.00264595,3.55508694 2,4.12 L2,12.89 C2.01099631,14.0624574 2.96750422,15.0055563 4.14,15 L11.85,15 C12.4166392,15.0053269 12.9620444,14.7846431 13.3655418,14.3867759 C13.7690392,13.9889087 13.9973646,13.4466582 14,12.88 L14,4.12 C13.9973541,3.55508694 13.7704024,3.01436305 13.3690732,2.61678458 C12.967744,2.21920611 12.424913,1.9973416 11.86,2 L11.86,2 Z M12.2,12.88 C12.1973877,12.967535 12.1600886,13.0504419 12.0963172,13.110462 C12.0325459,13.1704821 11.9475325,13.2026927 11.86,13.2 L4.14,13.2 C4.05246746,13.2026927 3.96745414,13.1704821 3.90368279,13.110462 C3.83991145,13.0504419 3.80261235,12.967535 3.8,12.88 L3.8,4.12 C3.80261235,4.03246503 3.83991145,3.94955806 3.90368279,3.88953797 C3.96745414,3.82951788 4.05246746,3.79730727 4.14,3.8 L5,3.8 L5,6 L11,6 L11,3.8 L11.86,3.8 C11.9475325,3.79730727 12.0325459,3.82951788 12.0963172,3.88953797 C12.1600886,3.94955806 12.1973877,4.03246503 12.2,4.12 L12.2,12.89 L12.2,12.88 Z" id="Shape"></path>
            <path d="M10,7 L6,7 C5.44771525,7 5,7.44771525 5,8 C5,8.55228475 5.44771525,9 6,9 L10,9 C10.5522847,9 11,8.55228475 11,8 C11,7.44771525 10.5522847,7 10,7 Z" id="Shape"></path>
            <path d="M10,10 L6,10 C5.44771525,10 5,10.4477153 5,11 C5,11.5522847 5.44771525,12 6,12 L10,12 C10.5522847,12 11,11.5522847 11,11 C11,10.4477153 10.5522847,10 10,10 Z" id="Shape"></path>
        </g>
    </g>
</svg>