<?xml version="1.0" encoding="UTF-8"?>
<svg width="16px" height="16px" viewBox="0 0 16 16" version="1.1" xmlns="http://www.w3.org/2000/svg" xmlns:xlink="http://www.w3.org/1999/xlink">
    <!-- Generator: sketchtool 49.1 (51147) - http://www.bohemiancoding.com/sketch -->
    <title>docs-folder-16</title>
    <desc>Created with sketchtool.</desc>
    <defs></defs>
    <g id="Icons" stroke="none" stroke-width="1" fill="none" fill-rule="evenodd">
        <g id="docs-folder-16" fill="#000000" fill-rule="nonzero">
            <path d="M12.77,5 L9,5 L9,3.9 C9,2.85065898 8.14934102,2 7.1,2 L2.9,2 C1.85065898,2 1,2.85065898 1,3.9 L1,12 C1.06984595,13.1650354 2.06425997,14.0568865 3.23,14 L12.78,14 C13.9419294,14.051243 14.9301446,13.1609591 15,12 L15,7 C14.9301541,5.83496462 13.93574,4.94311348 12.77,5 Z M2.9,3.8 L7.1,3.8 C7.15522847,3.8 7.2,3.84477153 7.2,3.9 L7.2,5 L3.2,5 C3.06689138,4.98905262 2.93310862,4.98905262 2.8,5 L2.8,3.9 C2.8,3.84477153 2.84477153,3.8 2.9,3.8 L2.9,3.8 Z M13.2,12 C13.1196592,12.1589397 12.9459019,12.2478388 12.77,12.22 L3.23,12.22 C3.05409812,12.2478388 2.88034075,12.1589397 2.8,12 L2.8,7 C2.88632597,6.84879212 3.05873994,6.76859958 3.23,6.8 L12.78,6.8 C12.9479306,6.7731049 13.1150307,6.85267639 13.2,7 L13.2,12 Z" id="Shape"></path>
        </g>
    </g>
</svg>