<?xml version="1.0" encoding="UTF-8"?>
<svg width="16px" height="16px" viewBox="0 0 16 16" version="1.1" xmlns="http://www.w3.org/2000/svg" xmlns:xlink="http://www.w3.org/1999/xlink">
    <!-- Generator: sketchtool 44.1 (41455) - http://www.bohemiancoding.com/sketch -->
    <title>docs-pages-multi-16</title>
    <desc>Created with sketchtool.</desc>
    <defs></defs>
    <g id="Symbols" stroke="none" stroke-width="1" fill="none" fill-rule="evenodd">
        <g id="docs-pages-multi-16" fill-rule="nonzero" fill="#000000">
            <path d="M8.69,1 L4.9,1 C3.85065898,1 3,1.85065898 3,2.9 L3,11.1 C3,11.6039113 3.200178,12.0871838 3.55649712,12.4435029 C3.91281623,12.799822 4.39608867,13 4.9,13 L11.1,13 C12.149341,13 13,12.149341 13,11.1 L13,5.31 C12.9924237,4.81677593 12.7912995,4.34628893 12.44,4 L10,1.56 C9.65371107,1.20870047 9.18322407,1.00757626 8.69,1 L8.69,1 Z M8.8,2.92 L11.08,5.2 L8.8,5.2 L8.8,2.92 Z M11.1,11.2 L4.9,11.2 C4.84477153,11.2 4.8,11.1552285 4.8,11.1 L4.8,2.9 C4.8,2.84477153 4.84477153,2.8 4.9,2.8 L7,2.8 L7,7 L11.2,7 L11.2,11.1 C11.2,11.1552285 11.1552285,11.2 11.1,11.2 L11.1,11.2 Z" id="Shape"></path>
            <path d="M8.1,16 C8.59705627,16 9,15.5970563 9,15.1 C9,14.6029437 8.59705627,14.2 8.1,14.2 L1.9,14.2 C1.84477153,14.2 1.8,14.1552285 1.8,14.1 L1.8,5.9 C1.8,5.40294373 1.39705627,5 0.9,5 C0.402943725,5 6.08718376e-17,5.40294373 0,5.9 L0,14.1 C1.28507213e-16,15.149341 0.850658975,16 1.9,16 L8.1,16 L8.1,16 Z" id="Shape"></path>
        </g>
    </g>
</svg>