<?xml version="1.0" encoding="UTF-8"?>
<svg width="24px" height="24px" viewBox="0 0 24 24" version="1.1" xmlns="http://www.w3.org/2000/svg" xmlns:xlink="http://www.w3.org/1999/xlink">
    <!-- Generator: sketchtool 49.1 (51147) - http://www.bohemiancoding.com/sketch -->
    <title>docs-pages-multi</title>
    <desc>Created with sketchtool.</desc>
    <defs></defs>
    <g id="Icons" stroke="none" stroke-width="1" fill="none" fill-rule="evenodd">
        <g id="docs-pages-multi" fill="#000000" fill-rule="nonzero">
            <path d="M21.509,7 C21.6846303,7.17439535 21.8263643,7.37987567 21.927,7.606 L21.927,7.614 C22.0391996,7.86588918 22.0980995,8.13825862 22.1,8.414 L22.1,18 C22.1,19.1045695 21.2045695,20 20.1,20 L8.1,20 C6.9954305,20 6.1,19.1045695 6.1,18 L6.1,3 C6.1,1.8954305 6.9954305,1 8.1,1 L14.681,1 C14.75433,1.00297657 14.8274406,1.00998718 14.9,1.021 C14.9329252,1.01218052 14.9663084,1.00517003 15,1 C15.2600409,1.00134164 15.5093318,1.10392755 15.695,1.286 C15.8403576,1.36887401 15.9747408,1.46966142 16.095,1.586 L21.509,7 Z M8.1,18 L20.095,18 L20.095,9 L14,9 L14,3 L8.1,3 L8.1,18 Z M18.681,7 L16,4.319 L16,7 L18.681,7 Z M16.095,23 L5.1,23 C3.9954305,23 3.1,22.1045695 3.1,21 L3.1,7 C3.1,6.44771525 3.54771525,6 4.1,6 C4.65228475,6 5.1,6.44771525 5.1,7 L5.1,21 L16.095,21 C16.6472847,21 17.095,21.4477153 17.095,22 C17.095,22.5522847 16.6472847,23 16.095,23 Z" id="Combined-Shape"></path>
        </g>
    </g>
</svg>