<?xml version="1.0" encoding="UTF-8"?>
<svg width="16px" height="16px" viewBox="0 0 16 16" version="1.1" xmlns="http://www.w3.org/2000/svg" xmlns:xlink="http://www.w3.org/1999/xlink">
    <!-- Generator: sketchtool 49.1 (51147) - http://www.bohemiancoding.com/sketch -->
    <title>docs-page-16</title>
    <desc>Created with sketchtool.</desc>
    <defs></defs>
    <g id="Icons" stroke="none" stroke-width="1" fill="none" fill-rule="evenodd">
        <g id="docs-page-16" fill="#000000" fill-rule="nonzero">
            <path d="M10,2.56 C9.65371107,2.20870047 9.18322407,2.00757626 8.69,2 L4.9,2 C3.85065898,2 3,2.85065898 3,3.9 L3,12.1 C3,12.6039113 3.200178,13.0871838 3.55649712,13.4435029 C3.91281623,13.799822 4.39608867,14 4.9,14 L11.1,14 C12.149341,14 13,13.149341 13,12.1 L13,6.31 C12.9913594,5.81700301 12.7904,5.34690138 12.44,5 L10,2.56 Z M11.08,6.2 L8.8,6.2 L8.8,3.91 L11.08,6.2 Z M11.08,12.2 L4.9,12.2 C4.84477153,12.2 4.8,12.1552285 4.8,12.1 L4.8,3.9 C4.8,3.84477153 4.84477153,3.8 4.9,3.8 L7,3.8 L7,8 L11.2,8 L11.2,12.1 C11.2,12.1552285 11.1552285,12.2 11.1,12.2 L11.08,12.2 Z" id="Shape"></path>
        </g>
    </g>
</svg>