<?xml version="1.0" encoding="UTF-8"?>
<svg width="24px" height="24px" viewBox="0 0 24 24" version="1.1" xmlns="http://www.w3.org/2000/svg" xmlns:xlink="http://www.w3.org/1999/xlink">
    <!-- Generator: sketchtool 49.1 (51147) - http://www.bohemiancoding.com/sketch -->
    <title>docs-folder</title>
    <desc>Created with sketchtool.</desc>
    <defs></defs>
    <g id="Icons" stroke="none" stroke-width="1" fill="none" fill-rule="evenodd">
        <g id="docs-folder" fill="#000000" fill-rule="nonzero">
            <path d="M19.941,6 L13,6 C13,4.34314575 11.6568542,3 10,3 L5,3 C3.34314575,3 2,4.34314575 2,6 L2,17 C2.0180903,18.1200855 2.93886189,19.0144727 4.059,19 L19.941,19 C21.0611381,19.0144727 21.9819097,18.1200855 22,17 L22,8 C21.9819097,6.87991448 21.0611381,5.9855273 19.941,6 L19.941,6 Z M5,5 L10,5 C10.5522847,5 11,5.44771525 11,6 L4.059,6 C4.039,6 4.02,6.005 4,6.006 L4,6 C4,5.44771525 4.44771525,5 5,5 Z M19.941,17 L4,17 L4,8 L20,8 L19.941,17 Z" id="Shape"></path>
        </g>
    </g>
</svg>