<?xml version="1.0" encoding="UTF-8"?>
<svg width="24px" height="24px" viewBox="0 0 24 24" version="1.1" xmlns="http://www.w3.org/2000/svg" xmlns:xlink="http://www.w3.org/1999/xlink">
    <!-- Generator: sketchtool 49.1 (51147) - http://www.bohemiancoding.com/sketch -->
    <title>docs-pages-1-multi</title>
    <desc>Created with sketchtool.</desc>
    <defs></defs>
    <g id="Icons" stroke="none" stroke-width="1" fill="none" fill-rule="evenodd">
        <g id="docs-pages-1-multi" fill="#000000" fill-rule="nonzero">
            <path d="M16.095,21 L16.1,21 C16.6522847,21 17.1,21.4477153 17.1,22 C17.1,22.5522847 16.6522847,23 16.1,23 L5.1,23 C3.9954305,23 3.1,22.1045695 3.1,21 L3.1,7 C3.1,6.44771525 3.54771525,6 4.1,6 C4.65228475,6 5.1,6.44771525 5.1,7 L5.1,21 L16.095,21 Z M21.918,7.6 L21.927,7.614 C22.0391996,7.86588918 22.0980995,8.13825862 22.1,8.414 L22.1,18 C22.1,19.1045695 21.2045695,20 20.1,20 L8.1,20 C6.9954305,20 6.1,19.1045695 6.1,18 L6.1,3 C6.1,1.8954305 6.9954305,1 8.1,1 L14.681,1 C14.75433,1.00297657 14.8274406,1.00998718 14.9,1.021 C14.9329252,1.01218052 14.9663084,1.00517003 15,1 C15.2600409,1.00134164 15.5093318,1.10392755 15.695,1.286 C15.8403576,1.36887401 15.9747408,1.46966142 16.095,1.586 L21.509,7 C21.6808024,7.17336788 21.81942,7.37671883 21.918,7.6 Z M18.681,7 L16,4.319 L16,7 L18.681,7 Z M8.1,18 L20.095,18 L20.095,9 L14,9 L14,3 L8.1,3 L8.1,18 Z M18,10 C18.5522847,10 19,10.4477153 19,11 C19,11.5522847 18.5522847,12 18,12 L10,12 C9.44771525,12 9,11.5522847 9,11 C9,10.4477153 9.44771525,10 10,10 L18,10 Z M10,9 C9.44771525,9 9,8.55228475 9,8 C9,7.44771525 9.44771525,7 10,7 L12,7 C12.5522847,7 13,7.44771525 13,8 C13,8.55228475 12.5522847,9 12,9 L10,9 Z M18,13 C18.5522847,13 19,13.4477153 19,14 C19,14.5522847 18.5522847,15 18,15 L10,15 C9.44771525,15 9,14.5522847 9,14 C9,13.4477153 9.44771525,13 10,13 L18,13 Z" id="Combined-Shape"></path>
        </g>
    </g>
</svg>