<?xml version="1.0" encoding="UTF-8"?>
<svg width="16px" height="16px" viewBox="0 0 16 16" version="1.1" xmlns="http://www.w3.org/2000/svg" xmlns:xlink="http://www.w3.org/1999/xlink">
    <!-- Generator: sketchtool 44.1 (41455) - http://www.bohemiancoding.com/sketch -->
    <title>edit-rotate-16</title>
    <desc>Created with sketchtool.</desc>
    <defs></defs>
    <g id="Symbols" stroke="none" stroke-width="1" fill="none" fill-rule="evenodd">
        <g id="edit-rotate-16" fill-rule="nonzero" fill="#000000">
            <path d="M14.36,7.36 L13,8.73 L13,8 C13,4.6862915 10.3137085,2 7,2 C3.6862915,2 1,4.6862915 1,8 C1,11.3137085 3.6862915,14 7,14 C7.49705627,14 7.9,13.5970563 7.9,13.1 C7.9,12.6029437 7.49705627,12.2 7,12.2 C4.68040405,12.2 2.8,10.3195959 2.8,8 C2.8,5.68040405 4.68040405,3.8 7,3.8 C9.31959595,3.8 11.2,5.68040405 11.2,8 L11.2,8.93 L9.64,7.36 C9.28653776,7.00653777 8.71346225,7.00653777 8.36000001,7.36000001 C8.00653777,7.71346225 8.00653777,8.28653776 8.36,8.64 L12,12.27 L15.64,8.63 C15.9907008,8.27653776 15.9884622,7.70570082 15.635,7.355 C15.2815378,7.00429918 14.7107008,7.00653776 14.36,7.36 Z" id="Shape"></path>
        </g>
    </g>
</svg>