<?xml version="1.0" encoding="UTF-8"?>
<svg width="16px" height="16px" viewBox="0 0 16 16" version="1.1" xmlns="http://www.w3.org/2000/svg" xmlns:xlink="http://www.w3.org/1999/xlink">
    <!-- Generator: sketchtool 44.1 (41455) - http://www.bohemiancoding.com/sketch -->
    <title>emo-sad-16</title>
    <desc>Created with sketchtool.</desc>
    <defs></defs>
    <g id="Symbols" stroke="none" stroke-width="1" fill="none" fill-rule="evenodd">
        <g id="emo-sad-16" fill-rule="nonzero" fill="#000000">
            <path d="M8,15 C11.8659932,15 15,11.8659932 15,8 C15,4.13400675 11.8659932,1 8,1 C4.13400675,1 1,4.13400675 1,8 C1,11.8659932 4.13400675,15 8,15 L8,15 Z M8,2.8 C10.8718807,2.8 13.2,5.1281193 13.2,8 C13.2,10.8718807 10.8718807,13.2 8,13.2 C5.1281193,13.2 2.8,10.8718807 2.8,8 C2.8055026,5.13040164 5.13040164,2.8055026 8,2.8 L8,2.8 Z M6,8 C6.55228475,8 7,7.55228475 7,7 C7,6.44771525 6.55228475,6 6,6 C5.44771525,6 5,6.44771525 5,7 C5,7.55228475 5.44771525,8 6,8 Z M10,8 C10.5522847,8 11,7.55228475 11,7 C11,6.44771525 10.5522847,6 10,6 C9.44771525,6 9,6.44771525 9,7 C9,7.55228475 9.44771525,8 10,8 Z M5.79,9.94 C5.56933936,10.209623 5.52411911,10.5823839 5.67391112,10.8969471 C5.82370314,11.2115103 6.14159532,11.4113605 6.49,11.41 C6.75997825,11.4085125 7.01433311,11.2831782 7.18,11.07 C7.69296885,10.8444533 8.27703115,10.8444533 8.79,11.07 C9.10693956,11.4387229 9.65943546,11.4890549 10.0377855,11.1836723 C10.4161356,10.8782898 10.4835333,10.3276151 10.19,9.94 C9.60914622,9.36775838 8.8142224,9.06648588 8,9.11 C7.1789625,9.06074154 6.37562837,9.36244621 5.79,9.94 Z" id="Combined-Shape"></path>
        </g>
    </g>
</svg>