<?xml version="1.0" encoding="UTF-8"?>
<svg width="24px" height="24px" viewBox="0 0 24 24" version="1.1" xmlns="http://www.w3.org/2000/svg" xmlns:xlink="http://www.w3.org/1999/xlink">
    <!-- Generator: sketchtool 49.1 (51147) - http://www.bohemiancoding.com/sketch -->
    <title>emo-sad</title>
    <desc>Created with sketchtool.</desc>
    <defs></defs>
    <g id="Icons" stroke="none" stroke-width="1" fill="none" fill-rule="evenodd">
        <g id="emo-sad" fill="#000000" fill-rule="nonzero">
            <path d="M12,22 C9.3478351,22 6.80429597,20.9464316 4.92893219,19.0710678 C3.0535684,17.195704 2,14.6521649 2,12 C2,6.4771525 6.4771525,2 12,2 C17.5228475,2 22,6.4771525 22,12 C22,17.5228475 17.5228475,22 12,22 Z M11.984,15.8 C11.3218551,15.7680452 10.6705902,15.9773169 10.151,16.389 C9.92842354,16.6212226 9.5988651,16.7170621 9.28646617,16.6404165 C8.97406723,16.563771 8.72628863,16.3262847 8.63646616,16.0174165 C8.54664369,15.7085483 8.62842353,15.3752226 8.851,15.143 C9.72368873,14.3952558 10.8378308,13.9891766 11.987,14 C13.1494331,13.9578817 14.2830186,14.3675208 15.15,15.143 C15.4940734,15.5019851 15.4819851,16.0719266 15.123,16.416 C14.7640149,16.7600734 14.1940734,16.7479851 13.85,16.389 C13.3163594,15.979837 12.6558374,15.7713443 11.984,15.8 Z M14.5,12 C13.6715729,12 13,11.3284271 13,10.5 C13,9.67157288 13.6715729,9 14.5,9 C15.3284271,9 16,9.67157288 16,10.5 C16,11.3284271 15.3284271,12 14.5,12 Z M9.5,12 C8.67157288,12 8,11.3284271 8,10.5 C8,9.67157288 8.67157288,9 9.5,9 C10.3284271,9 11,9.67157288 11,10.5 C11,11.3284271 10.3284271,12 9.5,12 Z M12,4 C7.58377808,4.00495988 4.00495988,7.58377808 4,12 C4,16.418278 7.581722,20 12,20 C16.418278,20 20,16.418278 20,12 C20,7.581722 16.418278,4 12,4 Z" id="Combined-Shape"></path>
        </g>
    </g>
</svg>