<?xml version="1.0" encoding="UTF-8"?>
<svg width="24px" height="24px" viewBox="0 0 24 24" version="1.1" xmlns="http://www.w3.org/2000/svg" xmlns:xlink="http://www.w3.org/1999/xlink">
    <!-- Generator: sketchtool 44.1 (41455) - http://www.bohemiancoding.com/sketch -->
    <title>emo-neutral</title>
    <desc>Created with sketchtool.</desc>
    <defs></defs>
    <g id="Symbols" stroke="none" stroke-width="1" fill="none" fill-rule="evenodd">
        <g id="emo-neutral" fill-rule="nonzero" fill="#000000">
            <path d="M12,22 C17.5228475,22 22,17.5228475 22,12 C22,6.4771525 17.5228475,2 12,2 C6.4771525,2 2,6.4771525 2,12 C2,14.6521649 3.0535684,17.195704 4.92893219,19.0710678 C6.80429597,20.9464316 9.3478351,22 12,22 L12,22 Z M12,4 C16.418278,4 20,7.581722 20,12 C20,16.418278 16.418278,20 12,20 C7.581722,20 4,16.418278 4,12 C4.00495988,7.58377808 7.58377808,4.00495988 12,4 L12,4 Z M8.1,15 C8.1,15.4970563 8.50294373,15.9 9,15.9 L12,15.9 C12.4970563,15.9 12.9,15.4970563 12.9,15 C12.9,14.5029437 12.4970563,14.1 12,14.1 L9,14.1 C8.50294373,14.1 8.1,14.5029437 8.1,15 L8.1,15 Z M9.5,12 C10.3284271,12 11,11.3284271 11,10.5 C11,9.67157288 10.3284271,9 9.5,9 C8.67157288,9 8,9.67157288 8,10.5 C8,11.3284271 8.67157288,12 9.5,12 Z M14.5,12 C15.3284271,12 16,11.3284271 16,10.5 C16,9.67157288 15.3284271,9 14.5,9 C13.6715729,9 13,9.67157288 13,10.5 C13,11.3284271 13.6715729,12 14.5,12 Z" id="Combined-Shape"></path>
        </g>
    </g>
</svg>