<?xml version="1.0" encoding="UTF-8"?>
<svg width="24px" height="24px" viewBox="0 0 24 24" version="1.1" xmlns="http://www.w3.org/2000/svg" xmlns:xlink="http://www.w3.org/1999/xlink">
    <!-- Generator: sketchtool 44.1 (41455) - http://www.bohemiancoding.com/sketch -->
    <title>emo-smile</title>
    <desc>Created with sketchtool.</desc>
    <defs></defs>
    <g id="Symbols" stroke="none" stroke-width="1" fill="none" fill-rule="evenodd">
        <g id="emo-smile" fill-rule="nonzero" fill="#000000">
            <path d="M2,12 C2,17.5228475 6.4771525,22 12,22 C17.5228475,22 22,17.5228475 22,12 C22,6.4771525 17.5228475,2 12,2 C6.4771525,2 2,6.4771525 2,12 L2,12 Z M12,4 C16.418278,4 20,7.581722 20,12 C20,16.418278 16.418278,20 12,20 C7.581722,20 4,16.418278 4,12 C4.00495988,7.58377808 7.58377808,4.00495988 12,4 L12,4 Z M9.5,12 C10.3284271,12 11,11.3284271 11,10.5 C11,9.67157288 10.3284271,9 9.5,9 C8.67157288,9 8,9.67157288 8,10.5 C8,11.3284271 8.67157288,12 9.5,12 Z M14.5,12 C15.3284271,12 16,11.3284271 16,10.5 C16,9.67157288 15.3284271,9 14.5,9 C13.6715729,9 13,9.67157288 13,10.5 C13,11.3284271 13.6715729,12 14.5,12 Z M8.359,14.367 C8.19121007,14.53685 8.09778445,14.7664101 8.09928482,15.0051573 C8.1007852,15.2439045 8.1970886,15.4722723 8.367,15.64 C9.35237299,16.5554207 10.6553265,17.0514253 12,17.023 C13.3446735,17.0514253 14.647627,16.5554207 15.633,15.64 C15.8618286,15.4138509 15.9526258,15.0828019 15.8711893,14.7715559 C15.7897527,14.46031 15.5484545,14.2161527 15.2381893,14.1310559 C14.9279241,14.0459591 14.5958286,14.1328509 14.367,14.359 C12.9935889,15.4953824 11.0064111,15.4953824 9.633,14.359 C9.46310851,14.1909033 9.23333326,14.0972835 8.99434087,14.0987843 C8.75534849,14.100285 8.52676707,14.196783 8.359,14.367 Z" id="Combined-Shape"></path>
        </g>
    </g>
</svg>