<?xml version="1.0" encoding="UTF-8"?>
<svg width="24px" height="24px" viewBox="0 0 24 24" version="1.1" xmlns="http://www.w3.org/2000/svg" xmlns:xlink="http://www.w3.org/1999/xlink">
    <!-- Generator: sketchtool 49.1 (51147) - http://www.bohemiancoding.com/sketch -->
    <title>eye</title>
    <desc>Created with sketchtool.</desc>
    <defs></defs>
    <g id="Icons" stroke="none" stroke-width="1" fill="none" fill-rule="evenodd">
        <g id="eye" fill="#000000" fill-rule="nonzero">
            <path d="M3.11705885,13.5471503 C2.96061407,13.8409558 2.96061407,14.1933449 3.11705885,14.4871503 C3.23805885,14.7171503 6.13005885,20.0171503 12.0000589,20.0171503 C17.9470589,20.0171503 20.7710589,14.7041503 20.8880589,14.4771503 C21.0378459,14.1884208 21.0378459,13.8448798 20.8880589,13.5561503 C20.7700589,13.3301503 17.9410589,8.01715033 12.0000589,8.01715033 C6.13005885,8.01715033 3.23805885,13.3171503 3.11705885,13.5471503 Z M7.63605885,11.4671503 C7.54917656,11.8105052 7.50352132,12.1629906 7.50005885,12.5171503 C7.50005885,15.0024317 9.51477748,17.0171503 12.0000589,17.0171503 C12.5523436,17.0171503 13.0000589,16.5694351 13.0000589,16.0171503 C13.0000589,15.4648656 12.5523436,15.0171503 12.0000589,15.0171503 C10.8945903,15.0168354 9.92057405,14.2905206 9.60487997,13.2310877 C9.28918589,12.1716547 9.70677481,11.0306638 10.6317624,10.4253054 C11.55675,9.81994701 12.7695001,9.89396221 13.6140056,10.6073143 C14.4585112,11.3206664 14.7342463,12.5039716 14.2920589,13.5171503 C14.1359551,13.8466362 14.1715437,14.2349687 14.3849355,14.5305923 C14.5983273,14.8262158 14.9556993,14.9822734 15.3175788,14.9378601 C15.6794584,14.8934468 15.9884868,14.655602 16.1240589,14.3171503 C16.5296581,13.4074543 16.6094696,12.3857966 16.3500589,11.4241503 C17.3306933,12.1281187 18.1728269,13.0072059 18.8340589,14.0171503 C17.3613339,16.4022973 14.8008354,17.9009794 12.0000589,18.0171503 C8.21205885,18.0171503 5.93905885,15.1741503 5.17205885,14.0171503 C5.83902698,13.0304704 6.67283223,12.1675632 7.63605885,11.4671503 Z M21.5400589,6.17515033 C21.7634308,6.31831663 21.9207537,6.54438145 21.9773946,6.80357914 C22.0340355,7.06277682 21.9853511,7.33385913 21.8420589,7.55715033 L20.8420589,9.11715033 C20.5432728,9.58189795 19.9243065,9.71643638 19.4595589,9.41765033 C18.9948112,9.11886428 18.8602728,8.49989795 19.1590589,8.03515033 L20.1590589,6.47515033 C20.4578103,6.0113033 21.0757882,5.87705756 21.5400589,6.17515033 Z M15.0000589,7.01715033 C14.6920934,7.01737324 14.4012028,6.87568455 14.2115223,6.6330654 C14.0218418,6.39044625 13.9545311,6.07396192 14.0290589,5.77515033 L14.5290589,3.77515033 C14.6106782,3.4231377 14.8758556,3.14253945 15.222698,3.04117408 C15.5695404,2.9398087 15.9440888,3.03344581 16.2024249,3.28610581 C16.460761,3.53876581 16.5626948,3.91114187 16.4690589,4.26015033 L15.9690589,6.26015033 C15.8576905,6.70472002 15.4583654,7.01667991 15.0000589,7.01715033 Z M2.40005885,6.21715033 C2.84188665,5.88577948 3.468688,5.97532253 3.80005885,6.41715033 L4.80005885,7.75815033 C5.01441821,8.0439628 5.06001528,8.42242377 4.91967409,8.75097065 C4.77933291,9.07951753 4.47437463,9.30823624 4.11967409,9.35097065 C3.76497356,9.39370506 3.41441821,9.2439628 3.20005885,8.95815033 L2.20005885,7.61715033 C1.868688,7.17532253 1.95823105,6.54852118 2.40005885,6.21715033 Z M9.00005885,7.01715033 C8.54108838,7.01702353 8.14112969,6.70447849 8.03005885,6.25915033 L7.53005885,4.25915033 C7.43642288,3.91014187 7.53835672,3.53776581 7.79669279,3.28510581 C8.05502887,3.03244581 8.4295773,2.9388087 8.77641972,3.04017408 C9.12326213,3.14153945 9.38843955,3.4221377 9.47005885,3.77415033 L9.97005885,5.77415033 C10.0449064,6.07293271 9.97788808,6.38953677 9.78839336,6.6323635 C9.59889864,6.87519024 9.30807358,7.01714223 9.00005885,7.01715033 Z" id="Combined-Shape"></path>
        </g>
    </g>
</svg>