<?xml version="1.0" encoding="UTF-8"?>
<svg width="36px" height="24px" viewBox="0 0 36 24" version="1.1" xmlns="http://www.w3.org/2000/svg" xmlns:xlink="http://www.w3.org/1999/xlink">
    <!-- Generator: sketchtool 49.1 (51147) - http://www.bohemiancoding.com/sketch -->
    <title>feedback-5000</title>
    <desc>Created with sketchtool.</desc>
    <defs></defs>
    <g id="Icons" stroke="none" stroke-width="1" fill="none" fill-rule="evenodd">
        <g id="feedback-5000" fill-rule="nonzero">
            <path d="M15.281,7.32 C16.2562756,7.46224536 17.0660958,8.1460981 17.3696682,9.08377607 C17.6732407,10.0214541 17.4178613,11.0501643 16.711,11.737 L14.954,13.451 C14.8151141,13.586535 14.7519012,13.7817841 14.785,13.973 L15.2,16.391 C15.3657808,17.3615375 14.9667046,18.3421068 14.1703083,18.9210534 C13.373912,19.5000001 12.3180555,19.5771055 11.446,19.12 L9.274,17.978 C9.10206135,17.8880172 8.89693865,17.8880172 8.725,17.978 L6.553,19.12 C5.68116334,19.5790707 4.62420881,19.502811 3.82730336,18.9233399 C3.0303979,18.3438688 2.63203628,17.361893 2.8,16.391 L3.211,13.972 C3.24348958,13.780641 3.17994677,13.5855272 3.041,13.45 L1.284,11.736 C0.57832765,11.0480992 0.324385164,10.0192247 0.628946501,9.08198228 C0.933507838,8.14473986 1.74375217,7.46167785 2.719,7.32 L5.147,6.966 C5.33920055,6.93811847 5.50530299,6.81728268 5.591,6.643 L6.677,4.443 C7.11386425,3.55964635 8.01402344,3.00059686 8.9995,3.00059686 C9.98497656,3.00059686 10.8851357,3.55964635 11.322,4.443 L12.408,6.643 C12.4939696,6.81705312 12.6599339,6.93778843 12.852,6.966 L15.281,7.32 Z M9,7.037 L10.391,9.855 L13.5,10.307 L11.25,12.5 L11.781,15.597 L9,14.135 L6.219,15.597 L6.75,12.5 L4.5,10.307 L7.609,9.855 L9,7.037 Z M15.32,10.3 C15.477762,10.1431247 15.5336673,9.91074231 15.4645185,9.69927795 C15.3953697,9.48781359 15.2129682,9.33335755 14.993,9.3 L12.564,8.946 C11.7202156,8.82384776 10.9907931,8.29380073 10.614,7.529 L9.529,5.329 C9.42924823,5.127793 9.22407666,5.00050857 8.9995,5.00050857 C8.77492334,5.00050857 8.56975177,5.127793 8.47,5.329 L7.385,7.529 C7.00820688,8.29380073 6.27878436,8.82384776 5.435,8.946 L3.007,9.3 C2.78747569,9.33404391 2.60568193,9.48850962 2.53663712,9.69965584 C2.4675923,9.91080205 2.52300161,10.1428332 2.68,10.3 L4.438,12.019 C5.04816451,12.6139825 5.32672322,13.4709711 5.183,14.311 L4.767,16.729 C4.72903616,16.9503355 4.8200147,17.1740315 5.00168576,17.3060402 C5.18335682,17.4380488 5.42421618,17.455478 5.623,17.351 L7.791,16.208 C8.54556059,15.8135543 9.44543941,15.8135543 10.2,16.208 L12.379,17.346 C12.5771903,17.4527945 12.8192769,17.435252 13,17.301 C13.1846025,17.1713559 13.276155,16.9456047 13.234,16.724 L12.819,14.306 C12.6746674,13.4661142 12.9528962,12.6089902 13.563,12.014 L15.32,10.3 Z" id="Combined-Shape" fill="#E95219"></path>
            <path d="M33.281,7.32 C34.2562756,7.46224536 35.0660958,8.1460981 35.3696682,9.08377607 C35.6732407,10.0214541 35.4178613,11.0501643 34.711,11.737 L32.954,13.451 C32.8151141,13.586535 32.7519012,13.7817841 32.785,13.973 L33.2,16.391 C33.3644156,17.360106 32.9658504,18.3387333 32.1711474,18.9172194 C31.3764444,19.4957055 30.3226918,19.5742603 29.451,19.12 L27.279,17.978 C27.1070614,17.8880172 26.9019386,17.8880172 26.73,17.978 L24.558,19.12 C23.685809,19.5819423 22.6267341,19.5071478 21.8281233,18.9272093 C21.0295125,18.3472708 20.6306448,17.3633305 20.8,16.391 L21.21,13.972 C21.2424896,13.780641 21.1789468,13.5855272 21.04,13.45 L19.283,11.736 C18.5773276,11.0480992 18.3233852,10.0192247 18.6279465,9.08198228 C18.9325078,8.14473986 19.7427522,7.46167785 20.718,7.32 L23.147,6.966 C23.3392005,6.93811847 23.505303,6.81728268 23.591,6.643 L24.677,4.443 C25.1138643,3.55964635 26.0140234,3.00059686 26.9995,3.00059686 C27.9849766,3.00059686 28.8851357,3.55964635 29.322,4.443 L30.408,6.643 C30.4939696,6.81705312 30.6599339,6.93778843 30.852,6.966 L33.281,7.32 Z M27,7.037 L28.391,9.855 L31.5,10.307 L29.25,12.5 L29.781,15.597 L27,14.135 L24.219,15.597 L24.75,12.5 L22.5,10.307 L25.609,9.855 L27,7.037 Z M33.32,10.3 C33.477762,10.1431247 33.5336673,9.91074231 33.4645185,9.69927795 C33.3953697,9.48781359 33.2129682,9.33335755 32.993,9.3 L30.564,8.946 C29.7202156,8.82384776 28.9907931,8.29380073 28.614,7.529 L27.529,5.329 C27.4292482,5.127793 27.2240767,5.00050857 26.9995,5.00050857 C26.7749233,5.00050857 26.5697518,5.127793 26.47,5.329 L25.385,7.529 C25.0082069,8.29380073 24.2787844,8.82384776 23.435,8.946 L21.007,9.3 C20.7874757,9.33404391 20.6056819,9.48850962 20.5366371,9.69965584 C20.4675923,9.91080205 20.5230016,10.1428332 20.68,10.3 L22.433,12.019 C23.0431645,12.6139825 23.3217232,13.4709711 23.178,14.311 L22.762,16.729 C22.7240362,16.9503355 22.8150147,17.1740315 22.9966858,17.3060402 C23.1783568,17.4380488 23.4192162,17.455478 23.618,17.351 L25.791,16.208 C26.5455606,15.8135543 27.4454394,15.8135543 28.2,16.208 L30.379,17.346 C30.5771903,17.4527945 30.8192769,17.435252 31,17.301 C31.1846025,17.1713559 31.276155,16.9456047 31.234,16.724 L30.819,14.306 C30.6746674,13.4661142 30.9528962,12.6089902 31.563,12.014 L33.32,10.3 Z" id="Combined-Shape" fill="#279BE9"></path>
        </g>
    </g>
</svg>