<?xml version="1.0" encoding="UTF-8"?>
<svg width="31px" height="16px" viewBox="0 0 31 16" version="1.1" xmlns="http://www.w3.org/2000/svg" xmlns:xlink="http://www.w3.org/1999/xlink">
    <!-- Generator: sketchtool 44.1 (41455) - http://www.bohemiancoding.com/sketch -->
    <title>feedback-4000-16</title>
    <desc>Created with sketchtool.</desc>
    <defs></defs>
    <g id="Symbols" stroke="none" stroke-width="1" fill="none" fill-rule="evenodd">
        <g id="feedback-4000-16" fill-rule="nonzero">
            <g id="Art">
                <g>
                    <path d="M10.11,14.41 C9.8064929,14.4079698 9.50798952,14.3324861 9.24,14.19 L7,13 L4.8,14.15 C4.16398243,14.4819116 3.39451047,14.4229159 2.81652471,13.9979264 C2.23853896,13.5729369 1.95281061,12.8560499 2.08,12.15 L2.47,9.77 L0.67,8 C0.163112022,7.50582403 -0.0232019979,6.76880172 0.187951694,6.0931099 C0.399105386,5.41741809 0.971924279,4.91762481 1.67,4.8 L4.13,4.44 L5.32,2.15 C5.63372854,1.50824047 6.28566052,1.10127949 7,1.10127949 C7.71433948,1.10127949 8.36627146,1.50824047 8.68,2.15 L9.78,4.37 L12.29,4.77 C12.9880757,4.88762481 13.5608946,5.38741809 13.7720483,6.0631099 C13.983202,6.73880172 13.796888,7.47582403 13.29,7.97 L11.56,9.7 L12,12.21 C12.0956341,12.7629859 11.9392261,13.3297818 11.5735277,13.7554625 C11.2078294,14.1811431 10.6710829,14.4211937 10.11,14.41 Z M6.11,2.55 L6.92,2.95 L5.83,5.17 C5.55151427,5.71359832 5.02510659,6.08693709 4.42,6.17 L2,6.55 L2,6.68 L3.7,8.41 C4.14155212,8.84116048 4.34337356,9.46157454 4.24,10.07 L3.82,12.52 L4.35,13.4 L3.93,12.6 L6.13,11.45 C6.67777394,11.1619515 7.33222606,11.1619515 7.88,11.45 L10.08,12.6 L11.08,12.37 L10.19,12.52 L9.76,10.07 C9.65662644,9.46157454 9.85844788,8.84116048 10.3,8.41 L12.08,6.68 L12.08,6.55 L9.58,6.19 C8.97489341,6.10693709 8.44848573,5.73359832 8.17,5.19 L7.07,2.94 L6.11,2.55 Z" id="Shape" fill="#E95219"></path>
                    <polygon id="Shape" fill="#E95219" points="7 5.12 7.93 6.99 10 7.29 8.5 8.76 8.85 10.82 7 9.85 5.15 10.82 5.5 8.76 4 7.29 6.07 6.99"></polygon>
                    <polygon id="Shape" fill="#279BE9" points="20 10 20.93 11.88 23 12.18 21.5 13.64 21.85 15.71 20 14.73 18.15 15.71 18.5 13.64 17 12.18 19.07 11.88"></polygon>
                    <polygon id="Shape" fill="#279BE9" points="26 10 26.93 11.88 29 12.18 27.5 13.64 27.85 15.71 26 14.73 24.15 15.71 24.5 13.64 23 12.18 25.07 11.88"></polygon>
                    <polygon id="Shape" fill="#279BE9" points="18 4 18.93 5.88 21 6.18 19.5 7.64 19.85 9.71 18 8.73 16.15 9.71 16.5 7.64 15 6.18 17.07 5.88"></polygon>
                    <polygon id="Shape" fill="#279BE9" points="28 4 28.93 5.88 31 6.18 29.5 7.64 29.85 9.71 28 8.73 26.15 9.71 26.5 7.64 25 6.18 27.07 5.88"></polygon>
                    <polygon id="Shape" fill="#279BE9" points="23 0 23.93 1.88 26 2.18 24.5 3.64 24.85 5.71 23 4.73 21.15 5.71 21.5 3.64 20 2.18 22.07 1.88"></polygon>
                </g>
            </g>
        </g>
    </g>
</svg>