<?xml version="1.0" encoding="UTF-8"?>
<svg width="18px" height="24px" viewBox="0 0 18 24" version="1.1" xmlns="http://www.w3.org/2000/svg" xmlns:xlink="http://www.w3.org/1999/xlink">
    <!-- Generator: sketchtool 44.1 (41455) - http://www.bohemiancoding.com/sketch -->
    <title>feedback-500</title>
    <desc>Created with sketchtool.</desc>
    <defs></defs>
    <g id="Symbols" stroke="none" stroke-width="1" fill="none" fill-rule="evenodd">
        <g id="feedback-500" fill-rule="nonzero" fill="#E95219">
            <path d="M15.2,16.391 C15.3657808,17.3615375 14.9667046,18.3421068 14.1703083,18.9210534 C13.373912,19.5000001 12.3180555,19.5771055 11.446,19.12 L9.274,17.978 C9.10206135,17.8880172 8.89693865,17.8880172 8.725,17.978 L6.553,19.12 C5.68116334,19.5790707 4.62420881,19.502811 3.82730336,18.9233399 C3.0303979,18.3438688 2.63203628,17.361893 2.8,16.391 L3.211,13.972 C3.24348958,13.780641 3.17994677,13.5855272 3.041,13.45 L1.284,11.736 C0.57832765,11.0480992 0.324385164,10.0192247 0.628946501,9.08198228 C0.933507838,8.14473986 1.74375217,7.46167785 2.719,7.32 L5.147,6.966 C5.33920055,6.93811847 5.50530299,6.81728268 5.591,6.643 L6.677,4.443 C7.11386425,3.55964635 8.01402344,3.00059686 8.9995,3.00059686 C9.98497656,3.00059686 10.8851357,3.55964635 11.322,4.443 L12.408,6.643 C12.4939696,6.81705312 12.6599339,6.93778843 12.852,6.966 L15.281,7.32 C16.2562756,7.46224536 17.0660958,8.1460981 17.3696682,9.08377607 C17.6732407,10.0214541 17.4178613,11.0501643 16.711,11.737 L14.954,13.451 C14.8151141,13.586535 14.7519012,13.7817841 14.785,13.973 L15.2,16.391 Z M9,7.037 L10.391,9.855 L13.5,10.307 L11.25,12.5 L11.781,15.597 L9,14.135 L6.219,15.597 L6.75,12.5 L4.5,10.307 L7.609,9.855 L9,7.037 Z M12.814,14.311 L12.818,14.311 C12.6721875,13.4693153 12.9509342,12.6098775 13.563,12.014 L15.32,10.3 C15.477762,10.1431247 15.5336673,9.91074231 15.4645185,9.69927795 C15.3953697,9.48781359 15.2129682,9.33335755 14.993,9.3 L12.564,8.946 C11.7202156,8.82384776 10.9907931,8.29380073 10.614,7.529 L9.529,5.329 C9.42924823,5.127793 9.22407666,5.00050857 8.9995,5.00050857 C8.77492334,5.00050857 8.56975177,5.127793 8.47,5.329 L7.385,7.529 C7.00820688,8.29380073 6.27878436,8.82384776 5.435,8.946 L3.007,9.3 C2.78747569,9.33404391 2.60568193,9.48850962 2.53663712,9.69965584 C2.4675923,9.91080205 2.52300161,10.1428332 2.68,10.3 L4.436,12.019 C5.04616451,12.6139825 5.32472322,13.4709711 5.181,14.311 L4.765,16.729 C4.72332093,16.9507839 4.81522791,17.1764449 5,17.306 C5.18125628,17.4408475 5.42424598,17.4583989 5.623,17.351 L7.791,16.208 C8.54556059,15.8135543 9.44543941,15.8135543 10.2,16.208 L12.374,17.351 C12.5722972,17.4572939 12.8140989,17.439772 12.995,17.306 C13.1796025,17.1763559 13.271155,16.9506047 13.229,16.729 L12.814,14.311 Z" id="Combined-Shape"></path>
        </g>
    </g>
</svg>