<?xml version="1.0" encoding="UTF-8"?>
<svg width="14px" height="16px" viewBox="0 0 14 16" version="1.1" xmlns="http://www.w3.org/2000/svg" xmlns:xlink="http://www.w3.org/1999/xlink">
    <!-- Generator: sketchtool 44.1 (41455) - http://www.bohemiancoding.com/sketch -->
    <title>feedback-10000-16</title>
    <desc>Created with sketchtool.</desc>
    <defs></defs>
    <g id="Symbols" stroke="none" stroke-width="1" fill="none" fill-rule="evenodd">
        <g id="feedback-10000-16" fill-rule="nonzero" fill="#E95219">
            <g id="Art">
                <g>
                    <path d="M7.53,1.33 L9.24,4.79 C9.3257984,4.96195975 9.48997068,5.08135776 9.68,5.11 L13.49,5.66 C13.7100427,5.69311928 13.8927342,5.84722327 13.9624674,6.05853577 C14.0322005,6.26984828 13.9771119,6.50241971 13.82,6.66 L11.06,9.36 C10.9215389,9.49499899 10.8580236,9.68928107 10.89,9.88 L11.54,13.68 C11.5781581,13.9021602 11.4863979,14.1266475 11.3035479,14.2584696 C11.1206979,14.3902917 10.878717,14.4064085 10.68,14.3 L7.27,12.51 C7.09787921,12.4193218 6.89212079,12.4193218 6.72,12.51 L3.31,14.3 C3.11128303,14.4064085 2.86930215,14.3902917 2.68645213,14.2584696 C2.50360211,14.1266475 2.41184188,13.9021602 2.45,13.68 L3.1,9.88 C3.13197638,9.68928107 3.06846108,9.49499899 2.93,9.36 L0.18,6.67 C0.0228881437,6.51241971 -0.0322004808,6.27984828 0.0375326454,6.06853577 C0.107265772,5.85722327 0.289957285,5.70311928 0.51,5.67 L4.32,5.12 C4.51002932,5.09135776 4.6742016,4.97195975 4.76,4.8 L6.47,1.33 C6.56900635,1.12757959 6.77466407,0.999229628 7,0.999229628 C7.22533593,0.999229628 7.43099365,1.12757959 7.53,1.33 L7.53,1.33 Z" id="Shape"></path>
                </g>
            </g>
        </g>
    </g>
</svg>