<?xml version="1.0" encoding="UTF-8"?>
<svg width="45px" height="24px" viewBox="0 0 45 24" version="1.1" xmlns="http://www.w3.org/2000/svg" xmlns:xlink="http://www.w3.org/1999/xlink">
    <!-- Generator: sketchtool 44.1 (41455) - http://www.bohemiancoding.com/sketch -->
    <title>feedback-4000</title>
    <desc>Created with sketchtool.</desc>
    <defs></defs>
    <g id="Symbols" stroke="none" stroke-width="1" fill="none" fill-rule="evenodd">
        <g id="feedback-4000" fill-rule="nonzero">
            <path d="M16.467,11.736 L14.713,13.451 C14.574221,13.5862163 14.5106788,13.7809544 14.543,13.972 L14.958,16.391 C15.1248821,17.3626853 14.7253984,18.3448163 13.9276431,18.9241335 C13.1298878,19.5034508 12.0723428,19.5793909 11.2,19.12 L9.022,17.979 C8.85027543,17.8881506 8.64472457,17.8881506 8.473,17.979 L6.3,19.12 C5.42796815,19.5806806 4.36979123,19.5050265 3.5721663,18.9249743 C2.77454137,18.344922 2.37647256,17.3615588 2.546,16.39 L2.961,13.972 C2.99348958,13.780641 2.92994677,13.5855272 2.791,13.45 L1.033,11.736 C0.327243297,11.0478248 0.0735100893,10.0185834 0.378533254,9.08122617 C0.683556418,8.14386898 1.49440673,7.46105114 2.47,7.32 L4.894,6.967 C5.08640384,6.93961898 5.25271661,6.81863019 5.338,6.644 L6.425,4.444 C6.86132846,3.55999222 7.76167431,3.00033928 8.7475,3.00033928 C9.73332569,3.00033928 10.6336715,3.55999222 11.07,4.444 L12.156,6.644 C12.2418336,6.81816769 12.4078668,6.93895309 12.6,6.967 L15.031,7.32 C16.0064205,7.46136458 16.8169678,8.14430453 17.12176,9.0816043 C17.4265522,10.0189041 17.1727144,11.047962 16.467,11.736 Z M8.75,7.037 L10.141,9.855 L13.25,10.307 L11,12.5 L11.531,15.597 L8.75,14.135 L5.969,15.597 L6.5,12.5 L4.25,10.307 L7.359,9.855 L8.75,7.037 Z M13.313,12.018 L15.07,10.3 C15.226962,10.1429711 15.2824789,9.91111914 15.2136631,9.70002783 C15.1448473,9.48893652 14.9633517,9.33435062 14.744,9.3 L12.315,8.946 C11.4713502,8.82351692 10.7420662,8.2935706 10.365,7.529 L9.28,5.329 C9.18024823,5.127793 8.97507666,5.00050857 8.7505,5.00050857 C8.52592334,5.00050857 8.32075177,5.127793 8.221,5.329 L7.135,7.529 C6.75834365,8.29391594 6.02885169,8.82401342 5.185,8.946 L2.758,9.3 C2.53785903,9.33304808 2.35515741,9.48738317 2.28577876,9.69890343 C2.21640012,9.9104237 2.27219908,10.142987 2.43,10.3 L4.188,12.019 C4.79842323,12.614207 5.07667896,13.4717882 4.932,14.312 L4.517,16.729 C4.47931062,16.9500488 4.57018721,17.1733552 4.75151894,17.3052714 C4.93285066,17.4371876 5.17328839,17.4549075 5.372,17.351 L7.546,16.208 C8.30029271,15.8139027 9.19970729,15.8139027 9.954,16.208 L12.128,17.349 C12.3266097,17.4532956 12.5671831,17.4359362 12.7487617,17.3042069 C12.9303402,17.1724776 13.0215058,16.9491712 12.984,16.728 L12.569,14.31 C12.4244895,13.4701014 12.7027447,12.612896 13.313,12.018 Z" id="Combined-Shape" fill="#E95219"></path>
            <path d="M27.25,14.511 L28.641,17.328 L31.75,17.78 L29.5,19.973 L30.031,23.07 L27.25,21.608 L24.469,23.07 L25,19.973 L22.75,17.78 L25.859,17.328 L27.25,14.511 Z M37.25,14.511 L38.641,17.328 L41.75,17.78 L39.5,19.973 L40.031,23.07 L37.25,21.608 L34.469,23.07 L35,19.973 L32.75,17.78 L35.859,17.328 L37.25,14.511 Z M24.25,5.489 L25.641,8.307 L28.75,8.759 L26.5,10.952 L27.031,14.049 L24.25,12.587 L21.469,14.049 L22,10.952 L19.75,8.759 L22.859,8.307 L24.25,5.489 Z M40.25,5.489 L41.641,8.307 L44.75,8.759 L42.5,10.952 L43.031,14.049 L40.25,12.587 L37.469,14.049 L38,10.952 L35.75,8.759 L38.859,8.307 L40.25,5.489 Z M32.25,5.91645679e-31 L33.641,2.818 L36.75,3.269 L34.5,5.463 L35.031,8.56 L32.25,7.097 L29.469,8.56 L30,5.463 L27.75,3.269 L30.859,2.818 L32.25,5.91645679e-31 Z" id="Combined-Shape" fill="#279BE9"></path>
        </g>
    </g>
</svg>