<?xml version="1.0" encoding="UTF-8"?>
<svg width="16px" height="16px" viewBox="0 0 16 16" version="1.1" xmlns="http://www.w3.org/2000/svg" xmlns:xlink="http://www.w3.org/1999/xlink">
    <!-- Generator: sketchtool 49.1 (51147) - http://www.bohemiancoding.com/sketch -->
    <title>feedback-200-16</title>
    <desc>Created with sketchtool.</desc>
    <defs></defs>
    <g id="Icons" stroke="none" stroke-width="1" fill="none" fill-rule="evenodd">
        <g id="feedback-200-16" fill="#E95219" fill-rule="nonzero">
            <g id="Art">
                <g>
                    <polygon id="Shape" points="5 10 5.93 11.88 8 12.18 6.5 13.64 6.85 15.71 5 14.73 3.15 15.71 3.5 13.64 2 12.18 4.07 11.88"></polygon>
                    <polygon id="Shape" points="11 10 11.93 11.88 14 12.18 12.5 13.64 12.85 15.71 11 14.73 9.15 15.71 9.5 13.64 8 12.18 10.07 11.88"></polygon>
                    <polygon id="Shape" points="3 4 3.93 5.88 6 6.18 4.5 7.64 4.85 9.71 3 8.73 1.15 9.71 1.5 7.64 0 6.18 2.07 5.88"></polygon>
                    <polygon id="Shape" points="13 4 13.93 5.88 16 6.18 14.5 7.64 14.85 9.71 13 8.73 11.15 9.71 11.5 7.64 10 6.18 12.07 5.88"></polygon>
                    <polygon id="Shape" points="8 0 8.93 1.88 11 2.18 9.5 3.64 9.85 5.71 8 4.73 6.15 5.71 6.5 3.64 5 2.18 7.07 1.88"></polygon>
                </g>
            </g>
        </g>
    </g>
</svg>