<?xml version="1.0" encoding="UTF-8"?>
<svg width="40px" height="24px" viewBox="0 0 40 24" version="1.1" xmlns="http://www.w3.org/2000/svg" xmlns:xlink="http://www.w3.org/1999/xlink">
    <!-- Generator: sketchtool 49.1 (51147) - http://www.bohemiancoding.com/sketch -->
    <title>feedback-1500</title>
    <desc>Created with sketchtool.</desc>
    <defs></defs>
    <g id="Icons" stroke="none" stroke-width="1" fill="none" fill-rule="evenodd">
        <g id="feedback-1500" fill-rule="nonzero">
            <path d="M15.281,7.32 C16.2561627,7.46233282 17.0659549,8.14595002 17.369881,9.08340931 C17.6738071,10.0208686 17.4191554,11.0495806 16.713,11.737 L14.955,13.451 C14.816221,13.5862163 14.7526788,13.7809544 14.785,13.972 L15.2,16.391 C15.3659646,17.3614151 14.9671774,18.3419845 14.1710279,18.921118 C13.3748784,19.5002516 12.3191575,19.5777176 11.447,19.121 L9.275,17.979 C9.10327543,17.8881506 8.89772457,17.8881506 8.726,17.979 L6.553,19.12 C5.68121327,19.5799205 4.62374894,19.5040421 3.82655872,18.9243639 C3.0293685,18.3446858 2.6312124,17.3621075 2.8,16.391 L3.211,13.972 C3.24348958,13.780641 3.17994677,13.5855272 3.041,13.45 L1.283,11.736 C0.577243297,11.0478248 0.323510089,10.0185834 0.628533254,9.08122617 C0.933556418,8.14386898 1.74440673,7.46105114 2.72,7.32 L5.146,6.966 C5.33840384,6.93861898 5.50471661,6.81763019 5.59,6.643 L6.677,4.443 C7.11332846,3.55899222 8.01367431,2.99933928 8.9995,2.99933928 C9.98532569,2.99933928 10.8856715,3.55899222 11.322,4.443 L12.408,6.643 C12.4938336,6.81716769 12.6598668,6.93795309 12.852,6.966 L15.281,7.32 Z M9,7.037 L10.391,9.855 L13.5,10.307 L11.25,12.5 L11.781,15.597 L9,14.135 L6.219,15.597 L6.75,12.5 L4.5,10.307 L7.609,9.855 L9,7.037 Z M15.32,10.3 C15.476962,10.1429711 15.5324789,9.91111914 15.4636631,9.70002783 C15.3948473,9.48893652 15.2133517,9.33435062 14.994,9.3 L12.565,8.946 C11.7213502,8.82351692 10.9920662,8.2935706 10.615,7.529 L9.53,5.329 C9.43024823,5.127793 9.22507666,5.00050857 9.0005,5.00050857 C8.77592334,5.00050857 8.57075177,5.127793 8.471,5.329 L7.385,7.529 C7.00834365,8.29391594 6.27885169,8.82401342 5.435,8.946 L3.008,9.3 C2.78785903,9.33304808 2.60515741,9.48738317 2.53577876,9.69890343 C2.46640012,9.9104237 2.52219908,10.142987 2.68,10.3 L4.438,12.019 C5.04842323,12.614207 5.32667896,13.4717882 5.182,14.312 L4.767,16.729 C4.72931062,16.9500488 4.82018721,17.1733552 5.00151894,17.3052714 C5.18285066,17.4371876 5.42328839,17.4549075 5.622,17.351 L7.792,16.208 C8.54629271,15.8139027 9.44570729,15.8139027 10.2,16.208 L12.377,17.345 C12.5756097,17.4492956 12.8161831,17.4319362 12.9977617,17.3002069 C13.1793402,17.1684776 13.2705058,16.9451712 13.233,16.724 L12.818,14.306 C12.6734895,13.4661014 12.9517447,12.608896 13.562,12.014 L15.32,10.3 Z" id="Combined-Shape" fill="#E95219"></path>
            <path d="M25,7 L26.391,9.818 L29.5,10.269 L27.25,12.463 L27.781,15.56 L25,14.097 L22.219,15.56 L22.75,12.463 L20.5,10.269 L23.609,9.818 L25,7 Z M35,7 L36.391,9.818 L39.5,10.269 L37.25,12.463 L37.781,15.56 L35,14.097 L32.219,15.56 L32.75,12.463 L30.5,10.269 L33.609,9.818 L35,7 Z" id="Combined-Shape" fill="#279BE9"></path>
        </g>
    </g>
</svg>