<?xml version="1.0" encoding="UTF-8"?>
<svg width="20px" height="24px" viewBox="0 0 20 24" version="1.1" xmlns="http://www.w3.org/2000/svg" xmlns:xlink="http://www.w3.org/1999/xlink">
    <!-- Generator: sketchtool 44.1 (41455) - http://www.bohemiancoding.com/sketch -->
    <title>feedback-50</title>
    <desc>Created with sketchtool.</desc>
    <defs></defs>
    <g id="Symbols" stroke="none" stroke-width="1" fill="none" fill-rule="evenodd">
        <g id="feedback-50" fill-rule="nonzero" fill="#E95219">
            <path d="M5,11 L6.391,13.818 L9.5,14.269 L7.25,16.463 L7.781,19.56 L5,18.097 L2.219,19.56 L2.75,16.463 L0.5,14.269 L3.609,13.818 L5,11 Z M15,11 L16.391,13.818 L19.5,14.269 L17.25,16.463 L17.781,19.56 L15,18.097 L12.219,19.56 L12.75,16.463 L10.5,14.269 L13.609,13.818 L15,11 Z M10,2 L11.391,4.818 L14.5,5.269 L12.25,7.463 L12.781,10.56 L10,9.097 L7.219,10.56 L7.75,7.463 L5.5,5.269 L8.609,4.818 L10,2 Z" id="Combined-Shape"></path>
        </g>
    </g>
</svg>