<?xml version="1.0" encoding="UTF-8"?>
<svg width="26px" height="16px" viewBox="0 0 26 16" version="1.1" xmlns="http://www.w3.org/2000/svg" xmlns:xlink="http://www.w3.org/1999/xlink">
    <!-- Generator: sketchtool 44.1 (41455) - http://www.bohemiancoding.com/sketch -->
    <title>feedback-40000-16</title>
    <desc>Created with sketchtool.</desc>
    <defs></defs>
    <g id="Symbols" stroke="none" stroke-width="1" fill="none" fill-rule="evenodd">
        <g id="feedback-40000-16" fill-rule="nonzero" fill="#E95219">
            <g id="Art">
                <g>
                    <path d="M7.53,1.33 L9.24,4.79 C9.3257984,4.96195975 9.48997068,5.08135776 9.68,5.11 L13.49,5.66 C13.7100427,5.69311928 13.8927342,5.84722327 13.9624674,6.05853577 C14.0322005,6.26984828 13.9771119,6.50241971 13.82,6.66 L11.06,9.36 C10.9215389,9.49499899 10.8580236,9.68928107 10.89,9.88 L11.54,13.68 C11.5781581,13.9021602 11.4863979,14.1266475 11.3035479,14.2584696 C11.1206979,14.3902917 10.878717,14.4064085 10.68,14.3 L7.27,12.51 C7.09787921,12.4193218 6.89212079,12.4193218 6.72,12.51 L3.31,14.3 C3.11128303,14.4064085 2.86930215,14.3902917 2.68645213,14.2584696 C2.50360211,14.1266475 2.41184188,13.9021602 2.45,13.68 L3.1,9.88 C3.13197638,9.68928107 3.06846108,9.49499899 2.93,9.36 L0.18,6.67 C0.0228881437,6.51241971 -0.0322004808,6.27984828 0.0375326454,6.06853577 C0.107265772,5.85722327 0.289957285,5.70311928 0.51,5.67 L4.32,5.12 C4.51002932,5.09135776 4.6742016,4.97195975 4.76,4.8 L6.47,1.33 C6.56900635,1.12757959 6.77466407,0.999229628 7,0.999229628 C7.22533593,0.999229628 7.43099365,1.12757959 7.53,1.33 L7.53,1.33 Z" id="Shape"></path>
                    <path d="M12.08,5 C11.7056433,5.00077865 11.3622037,4.79239958 11.19,4.46 L10.11,2.37 C9.85594902,1.87846657 10.0484666,1.27405098 10.54,1.02 C11.0315334,0.765949015 11.635949,0.958466573 11.89,1.45 L13,3.54 C13.1634885,3.85512002 13.1476526,4.23329526 12.9583917,4.5336441 C12.7691308,4.83399294 12.43482,5.01148532 12.08,5 L12.08,5 Z" id="Shape"></path>
                    <path d="M14.5,14.63 C14.0109963,14.6379763 13.5879673,14.2910925 13.5,13.81 L12.89,10.4 C12.8090531,9.88461674 12.9844582,9.36213349 13.36,9 L15.9,6.31 C16.1465133,6.05098245 16.5124851,5.94315362 16.8600575,6.02713158 C17.2076299,6.11110955 17.4839984,6.37413606 17.5850575,6.71713158 C17.6861167,7.0601271 17.5965133,7.43098245 17.35,7.69 L14.92,10.25 L15.49,13.45 C15.53653,13.7112525 15.4773125,13.9802868 15.3253883,14.1978573 C15.173464,14.4154279 14.941292,14.5636921 14.68,14.61 L14.5,14.63 Z" id="Shape"></path>
                    <path d="M16.08,5 C15.7056433,5.00077865 15.3622037,4.79239958 15.19,4.46 L14.11,2.37 C13.855949,1.87846657 14.0484666,1.274051 14.54,1.02000002 C15.0315334,0.765949038 15.635949,0.958466585 15.89,1.45 L17,3.54 C17.1634885,3.85512002 17.1476526,4.23329526 16.9583917,4.5336441 C16.7691308,4.83399294 16.43482,5.01148532 16.08,5 L16.08,5 Z" id="Shape"></path>
                    <path d="M18.5,14.63 C18.0109963,14.6379763 17.5879673,14.2910925 17.5,13.81 L16.89,10.4 C16.8090531,9.88461674 16.9844582,9.36213349 17.36,9 L19.9,6.31 C20.1465133,6.05098243 20.5124851,5.94315359 20.8600575,6.02713155 C21.20763,6.11110951 21.4839984,6.37413604 21.5850576,6.71713157 C21.6861167,7.0601271 21.5965133,7.43098245 21.35,7.69 L18.92,10.25 L19.49,13.45 C19.53653,13.7112525 19.4773125,13.9802868 19.3253883,14.1978573 C19.173464,14.4154279 18.941292,14.5636921 18.68,14.61 L18.5,14.63 Z" id="Shape"></path>
                    <path d="M20.08,5 C19.7056433,5.00077865 19.3622037,4.79239958 19.19,4.46 L18.11,2.37 C17.855949,1.87846657 18.0484666,1.27405098 18.54,1.02 C19.0315334,0.765949015 19.635949,0.958466573 19.89,1.45 L21,3.54 C21.1634885,3.85512002 21.1476526,4.23329526 20.9583917,4.5336441 C20.7691308,4.83399294 20.43482,5.01148532 20.08,5 L20.08,5 Z" id="Shape"></path>
                    <path d="M22.5,14.63 C22.0109963,14.6379763 21.5879673,14.2910925 21.5,13.81 L20.89,10.4 C20.8090531,9.88461674 20.9844582,9.36213349 21.36,9 L23.9,6.31 C24.1465133,6.05098245 24.5124851,5.94315362 24.8600575,6.02713158 C25.2076299,6.11110955 25.4839984,6.37413606 25.5850575,6.71713158 C25.6861167,7.0601271 25.5965133,7.43098245 25.35,7.69 L22.92,10.25 L23.49,13.45 C23.53653,13.7112525 23.4773125,13.9802868 23.3253883,14.1978573 C23.173464,14.4154279 22.941292,14.5636921 22.68,14.61 L22.5,14.63 Z" id="Shape"></path>
                </g>
            </g>
        </g>
    </g>
</svg>