<?xml version="1.0" encoding="UTF-8"?>
<svg width="26px" height="24px" viewBox="0 0 26 24" version="1.1" xmlns="http://www.w3.org/2000/svg" xmlns:xlink="http://www.w3.org/1999/xlink">
    <!-- Generator: sketchtool 44.1 (41455) - http://www.bohemiancoding.com/sketch -->
    <title>feedback-200</title>
    <desc>Created with sketchtool.</desc>
    <defs></defs>
    <g id="Symbols" stroke="none" stroke-width="1" fill="none" fill-rule="evenodd">
        <g id="feedback-200" fill-rule="nonzero" fill="#E95219">
            <path d="M8,14.511 L9.391,17.328 L12.5,17.78 L10.25,19.973 L10.781,23.07 L8,21.608 L5.219,23.07 L5.75,19.973 L3.5,17.78 L6.609,17.328 L8,14.511 Z M18,14.511 L19.391,17.328 L22.5,17.78 L20.25,19.973 L20.781,23.07 L18,21.608 L15.219,23.07 L15.75,19.973 L13.5,17.78 L16.609,17.328 L18,14.511 Z M5,5.489 L6.391,8.307 L9.5,8.759 L7.25,10.952 L7.781,14.049 L5,12.587 L2.219,14.049 L2.75,10.952 L0.5,8.759 L3.609,8.307 L5,5.489 Z M21,5.489 L22.391,8.307 L25.5,8.759 L23.25,10.952 L23.781,14.049 L21,12.587 L18.219,14.049 L18.75,10.952 L16.5,8.759 L19.609,8.307 L21,5.489 Z M13,5.91645679e-31 L14.391,2.818 L17.5,3.269 L15.25,5.463 L15.781,8.56 L13,7.097 L10.219,8.56 L10.75,5.463 L8.5,3.269 L11.609,2.818 L13,5.91645679e-31 Z" id="Combined-Shape"></path>
        </g>
    </g>
</svg>