<?xml version="1.0" encoding="UTF-8"?>
<svg width="38px" height="24px" viewBox="0 0 38 24" version="1.1" xmlns="http://www.w3.org/2000/svg" xmlns:xlink="http://www.w3.org/1999/xlink">
    <!-- Generator: sketchtool 49.1 (51147) - http://www.bohemiancoding.com/sketch -->
    <title>feedback-2000</title>
    <desc>Created with sketchtool.</desc>
    <defs></defs>
    <g id="Icons" stroke="none" stroke-width="1" fill="none" fill-rule="evenodd">
        <g id="feedback-2000" fill-rule="nonzero">
            <path d="M23.5,12 L24.891,14.818 L28,15.269 L25.75,17.463 L26.281,20.56 L23.5,19.097 L20.719,20.56 L21.25,17.463 L19,15.269 L22.109,14.818 L23.5,12 Z M33.5,12 L34.891,14.818 L38,15.269 L35.75,17.463 L36.281,20.56 L33.5,19.097 L30.719,20.56 L31.25,17.463 L29,15.269 L32.109,14.818 L33.5,12 Z M28.5,3 L29.891,5.818 L33,6.269 L30.75,8.463 L31.281,11.56 L28.5,10.097 L25.719,11.56 L26.25,8.463 L24,6.269 L27.109,5.818 L28.5,3 Z" id="Combined-Shape" fill="#279BE9"></path>
            <path d="M15.281,7.32 C16.2562756,7.46224536 17.0660958,8.1460981 17.3696682,9.08377607 C17.6732407,10.0214541 17.4178613,11.0501643 16.711,11.737 L14.954,13.451 C14.8151141,13.586535 14.7519012,13.7817841 14.785,13.973 L15.2,16.391 C15.3657808,17.3615375 14.9667046,18.3421068 14.1703083,18.9210534 C13.373912,19.5000001 12.3180555,19.5771055 11.446,19.12 L9.274,17.978 C9.10206135,17.8880172 8.89693865,17.8880172 8.725,17.978 L6.553,19.12 C5.68116334,19.5790707 4.62420881,19.502811 3.82730336,18.9233399 C3.0303979,18.3438688 2.63203628,17.361893 2.8,16.391 L3.211,13.972 C3.24348958,13.780641 3.17994677,13.5855272 3.041,13.45 L1.284,11.736 C0.57832765,11.0480992 0.324385164,10.0192247 0.628946501,9.08198228 C0.933507838,8.14473986 1.74375217,7.46167785 2.719,7.32 L5.147,6.966 C5.33920055,6.93811847 5.50530299,6.81728268 5.591,6.643 L6.677,4.443 C7.11386425,3.55964635 8.01402344,3.00059686 8.9995,3.00059686 C9.98497656,3.00059686 10.8851357,3.55964635 11.322,4.443 L12.408,6.643 C12.4939696,6.81705312 12.6599339,6.93778843 12.852,6.966 L15.281,7.32 Z M9,7.037 L10.391,9.855 L13.5,10.307 L11.25,12.5 L11.781,15.597 L9,14.135 L6.219,15.597 L6.75,12.5 L4.5,10.307 L7.609,9.855 L9,7.037 Z M15.32,10.3 C15.477762,10.1431247 15.5336673,9.91074231 15.4645185,9.69927795 C15.3953697,9.48781359 15.2129682,9.33335755 14.993,9.3 L12.564,8.946 C11.7202156,8.82384776 10.9907931,8.29380073 10.614,7.529 L9.529,5.329 C9.42924823,5.127793 9.22407666,5.00050857 8.9995,5.00050857 C8.77492334,5.00050857 8.56975177,5.127793 8.47,5.329 L7.385,7.529 C7.00820688,8.29380073 6.27878436,8.82384776 5.435,8.946 L3.007,9.3 C2.78747569,9.33404391 2.60568193,9.48850962 2.53663712,9.69965584 C2.4675923,9.91080205 2.52300161,10.1428332 2.68,10.3 L4.438,12.019 C5.04816451,12.6139825 5.32672322,13.4709711 5.183,14.311 L4.767,16.729 C4.72903616,16.9503355 4.8200147,17.1740315 5.00168576,17.3060402 C5.18335682,17.4380488 5.42421618,17.455478 5.623,17.351 L7.791,16.208 C8.54556059,15.8135543 9.44543941,15.8135543 10.2,16.208 L12.379,17.346 C12.5777116,17.4499075 12.8181493,17.4321876 12.9994811,17.3002714 C13.1808128,17.1683552 13.2716894,16.9450488 13.234,16.724 L12.819,14.306 C12.6746674,13.4661142 12.9528962,12.6089902 13.563,12.014 L15.32,10.3 Z" id="Combined-Shape" fill="#E95219"></path>
        </g>
    </g>
</svg>