<?xml version="1.0" encoding="UTF-8"?>
<svg width="24px" height="24px" viewBox="0 0 24 24" version="1.1" xmlns="http://www.w3.org/2000/svg" xmlns:xlink="http://www.w3.org/1999/xlink">
    <!-- Generator: sketchtool 44.1 (41455) - http://www.bohemiancoding.com/sketch -->
    <title>feedback-admin</title>
    <desc>Created with sketchtool.</desc>
    <defs></defs>
    <g id="Symbols" stroke="none" stroke-width="1" fill="none" fill-rule="evenodd">
        <g id="feedback-admin" fill-rule="nonzero">
            <path d="M10.19,1.8 C5.13,1.8 0.94,5.48 0.14,10.31 C2.91,9.15 5.81,8.31 8.53,7.87 C10.37,7.57 12.04,8.16 13.14,9.32 C13.62,9.82 13.99,10.42 14.22,11.1 C14.3,11.33 14.36,11.57 14.41,11.81 C14.81,13.95 13.99,15.79 11.93,17.07 C9.55,18.55 8.09,20.09 7.06,21.68 C8.05,22 9.1,22.17 10.19,22.17 C15.81,22.17 20.37,17.61 20.37,11.99 C20.37,6.36 15.81,1.8 10.19,1.8 Z" id="Shape" fill="#FFDA00"></path>
            <path d="M23.126,5.706 C23.111,5.709 23.096,5.712 23.082,5.716 C23.082,5.716 22.851,5.774 22.447,5.875 C22.043,5.976 21.466,6.126 20.777,6.325 C20.432,6.421 20.06,6.535 19.667,6.658 C19.274,6.778 18.862,6.919 18.436,7.062 C18.012,7.212 17.573,7.366 17.132,7.538 C16.688,7.703 16.245,7.89 15.8,8.074 C15.358,8.265 14.916,8.457 14.487,8.661 C14.055,8.858 13.64,9.072 13.235,9.273 C13.205,9.289 13.175,9.304 13.145,9.32 C13.62,9.818 13.99,10.421 14.223,11.105 C14.236,11.097 14.25,11.089 14.263,11.081 C14.633,10.868 15.013,10.642 15.41,10.431 C15.803,10.214 16.21,10.006 16.618,9.8 C17.029,9.6 17.439,9.396 17.852,9.214 C18.262,9.024 18.671,8.852 19.068,8.684 C19.468,8.522 19.853,8.363 20.224,8.225 C20.594,8.084 20.945,7.953 21.273,7.839 C21.925,7.606 22.476,7.427 22.863,7.304 C23.25,7.182 23.471,7.112 23.471,7.112 L23.485,7.107 C23.854,6.99 24.074,6.611 23.98,6.239 C23.884,5.865 23.509,5.634 23.126,5.706" id="Shape" fill="#F9AF2C"></path>
            <path d="M23.126,5.706 C23.111,5.709 23.096,5.712 23.082,5.716 C23.082,5.716 22.851,5.774 22.447,5.875 C22.043,5.976 21.466,6.126 20.777,6.325 C20.432,6.421 20.06,6.535 19.667,6.658 C19.274,6.778 18.862,6.919 18.436,7.062 C18.012,7.212 17.573,7.366 17.132,7.538 C16.688,7.703 16.245,7.89 15.8,8.074 C15.358,8.265 14.916,8.457 14.487,8.661 C14.055,8.858 13.64,9.072 13.235,9.273 C13.205,9.289 12.772,9.509 12.743,9.524 C13.218,10.022 13.588,10.625 13.821,11.309 C13.834,11.301 14.25,11.088 14.264,11.08 C14.634,10.867 15.014,10.641 15.411,10.43 C15.804,10.213 16.211,10.005 16.619,9.799 C17.03,9.599 17.44,9.395 17.853,9.213 C18.263,9.023 18.672,8.851 19.069,8.683 C19.469,8.521 19.854,8.362 20.225,8.224 C20.595,8.083 20.946,7.952 21.274,7.838 C21.926,7.605 22.477,7.426 22.864,7.303 C23.251,7.181 23.472,7.111 23.472,7.111 L23.486,7.106 C23.855,6.989 24.075,6.61 23.981,6.238 C23.884,5.865 23.509,5.634 23.126,5.706" id="Shape" fill="#F9AF2C"></path>
            <path d="M11.93,17.07 C13.99,15.79 14.81,13.95 14.41,11.81 C14.36,11.57 14.3,11.33 14.22,11.1 C13.99,10.42 13.62,9.82 13.14,9.32 C12.04,8.16 10.37,7.57 8.53,7.87 C5.81,8.31 2.91,9.15 0.14,10.31 C0.05,10.86 0,11.42 0,11.99 C0,16.52 2.96,20.36 7.06,21.68 C8.09,20.09 9.55,18.55 11.93,17.07 Z" id="Shape" fill="#148FE2"></path>
            <path d="M12.399,12.152 C12.679,13.645 11.696,15.083 10.202,15.363 C8.709,15.643 7.271,14.66 6.991,13.166 C6.711,11.673 7.694,10.235 9.188,9.955 C10.681,9.675 12.119,10.658 12.399,12.152" id="Shape" fill="#FFFFFF"></path>
            <path d="M11.687,12.095 C11.652,11.907 11.58,11.734 11.481,11.583 C11.532,11.887 11.387,12.201 11.098,12.346 C10.742,12.525 10.309,12.382 10.13,12.027 C9.951,11.671 10.094,11.238 10.449,11.059 C10.52,11.023 10.594,11.004 10.669,10.993 C10.469,10.938 10.254,10.925 10.036,10.966 C9.268,11.11 8.762,11.849 8.906,12.617 C9.05,13.385 9.789,13.891 10.557,13.747 C11.325,13.602 11.831,12.863 11.687,12.095" id="Shape" fill="#333333"></path>
            <path d="M11.769,3.461 C11.682,3.469 11.611,3.522 11.601,3.606 C11.591,3.696 11.647,3.779 11.745,3.786 C13.461,3.91 14.742,5.808 13.535,7.323 C13.529,7.301 13.523,7.278 13.515,7.255 C13.458,7.068 13.382,6.884 13.289,6.706 C13.183,6.501 13.05,6.306 12.896,6.126 C12.753,5.954 12.567,5.783 12.325,5.602 C11.897,5.296 11.378,5.076 10.824,4.967 C10.59,4.917 10.333,4.89 10.013,4.88 C9.719,4.873 9.44,4.903 9.229,4.93 C8.955,4.973 8.722,5.025 8.517,5.09 C8.319,5.148 8.12,5.225 7.906,5.323 C7.74,5.402 7.577,5.491 7.422,5.588 C7.276,5.683 7.162,5.765 7.074,5.837 C7.005,5.889 6.955,5.934 6.916,5.97 C6.899,5.986 6.884,6 6.868,6.013 L6.8,6.074 C6.725,6.142 6.716,6.256 6.779,6.334 C6.811,6.373 6.856,6.398 6.907,6.403 C6.957,6.408 7.007,6.394 7.046,6.362 L7.116,6.305 C7.131,6.295 7.148,6.28 7.168,6.265 C7.208,6.231 7.258,6.19 7.318,6.151 C7.397,6.093 7.502,6.026 7.637,5.948 C7.781,5.868 7.932,5.796 8.085,5.732 C8.282,5.654 8.465,5.595 8.645,5.552 C8.829,5.505 9.04,5.469 9.29,5.443 C9.482,5.429 9.734,5.416 9.987,5.437 C10.271,5.461 10.494,5.497 10.692,5.551 C11.148,5.666 11.583,5.876 11.916,6.143 C12.107,6.303 12.242,6.441 12.343,6.578 C12.455,6.723 12.548,6.878 12.621,7.038 C12.685,7.178 12.736,7.323 12.771,7.467 C12.805,7.596 12.822,7.714 12.835,7.816 C12.845,7.877 12.847,7.933 12.849,7.978 C12.85,8.004 12.851,8.027 12.853,8.045 L12.86,8.156 C12.86,8.162 12.861,8.168 12.861,8.174 C12.861,8.178 12.862,8.182 12.863,8.185 C12.865,8.203 12.869,8.222 12.876,8.247 C12.877,8.251 12.878,8.256 12.88,8.259 C12.887,8.28 12.896,8.301 12.911,8.329 C12.931,8.365 12.951,8.393 12.975,8.417 C13.102,8.547 13.296,8.574 13.451,8.496 C13.487,8.478 13.526,8.45 13.552,8.424 C15.992,6.067 13.778,3.344 11.769,3.461" id="Shape" fill="#148FE2"></path>
        </g>
    </g>
</svg>