<?xml version="1.0" encoding="UTF-8"?>
<svg width="31px" height="24px" viewBox="0 0 31 24" version="1.1" xmlns="http://www.w3.org/2000/svg" xmlns:xlink="http://www.w3.org/1999/xlink">
    <!-- Generator: sketchtool 49.1 (51147) - http://www.bohemiancoding.com/sketch -->
    <title>feedback-30000</title>
    <desc>Created with sketchtool.</desc>
    <defs></defs>
    <g id="Icons" stroke="none" stroke-width="1" fill="none" fill-rule="evenodd">
        <g id="feedback-30000" fill="#E95219" fill-rule="nonzero">
            <path d="M11.1,2.682 L13.243,7.023 C13.4211831,7.38398987 13.7656046,7.63417229 14.164,7.692 L18.955,8.392 C19.4156941,8.45889798 19.7984592,8.78154076 19.9423564,9.22426864 C20.0862535,9.66699652 19.9663264,10.1530263 19.633,10.478 L16.166,13.857 C15.8775034,14.1380208 15.7458555,14.5430626 15.814,14.94 L16.632,19.712 C16.7110835,20.1716226 16.5218785,20.6362138 16.1441892,20.9098155 C15.7664999,21.1834173 15.2660801,21.2183967 14.854,21 L10.569,18.747 C10.2127707,18.5597663 9.78722934,18.5597663 9.431,18.747 L5.146,21 C4.73395864,21.2168605 4.23452177,21.1809339 3.85776145,20.9073316 C3.48100113,20.6337293 3.29228871,20.1699238 3.371,19.711 L4.189,14.939 C4.25714452,14.5420626 4.12549657,14.1370208 3.837,13.856 L0.371,10.475 C0.037673596,10.1500263 -0.0822535475,9.66399652 0.0616436262,9.22126864 C0.2055408,8.77854076 0.58830592,8.45589798 1.049,8.389 L5.84,7.689 C6.23839536,7.63117229 6.58281689,7.38098987 6.761,7.02 L8.9,2.682 C9.10464688,2.26086566 9.53177518,1.99353625 10,1.99353625 C10.4682248,1.99353625 10.8953531,2.26086566 11.1,2.682 Z M17.134,2.674 L18.551,5.724 C18.8417779,6.35029091 18.5697909,7.09372208 17.9435,7.3845 C17.3172091,7.67527792 16.5737779,7.40329091 16.283,6.777 L14.866,3.727 C14.5752221,3.10070909 14.8472091,2.35727792 15.4735,2.0665 C16.0997909,1.77572208 16.8432221,2.04770909 17.134,2.674 Z M25.139,11.37 L21.674,14.753 L22.5,19.5 C22.6133556,20.1798525 22.1554608,20.8233199 21.476,20.939 C21.4056067,20.9507747 21.334371,20.9567946 21.263,20.957 C20.6549895,20.9555874 20.1360348,20.5172183 20.033,19.918 L19.215,15.147 C19.077392,14.3449075 19.3437098,13.5265041 19.927,12.959 L23.393,9.579 C23.8906545,9.11723036 24.6657804,9.13665406 25.1396821,9.6227697 C25.6135838,10.1088853 25.6132811,10.8842545 25.139,11.37 Z M22.418,7.25 C22.0283834,7.25036591 21.6740285,7.02440608 21.51,6.671 L20.093,3.621 C19.9381165,3.29628192 19.9695968,2.91339397 20.1754373,2.61833392 C20.3812777,2.32327387 20.7297481,2.16152524 21.0879742,2.19476387 C21.4462002,2.22800251 21.7589615,2.45110467 21.907,2.779 L23.324,5.829 C23.556479,6.32992364 23.3388981,6.92446587 22.838,7.157 C22.7065087,7.21840923 22.5631242,7.25015865 22.418,7.25 Z M28.393,9.579 L28.395,9.582 C28.8926545,9.12023036 29.6677804,9.13965406 30.1416821,9.6257697 C30.6155838,10.1118853 30.6152811,10.8872545 30.141,11.373 L26.674,14.753 L27.5,19.5 C27.6133556,20.1798525 27.1554608,20.8233199 26.476,20.939 C26.4056067,20.9507747 26.334371,20.9567946 26.263,20.957 C25.6549895,20.9555874 25.1360348,20.5172183 25.033,19.918 L24.215,15.147 C24.077392,14.3449075 24.3437098,13.5265041 24.927,12.959 L28.393,9.579 Z" id="Combined-Shape"></path>
        </g>
    </g>
</svg>