<?xml version="1.0" encoding="UTF-8"?>
<svg width="24px" height="24px" viewBox="0 0 24 24" version="1.1" xmlns="http://www.w3.org/2000/svg" xmlns:xlink="http://www.w3.org/1999/xlink">
    <!-- Generator: sketchtool 44.1 (41455) - http://www.bohemiancoding.com/sketch -->
    <title>graph-bar</title>
    <desc>Created with sketchtool.</desc>
    <defs></defs>
    <g id="Symbols" stroke="none" stroke-width="1" fill="none" fill-rule="evenodd">
        <g id="graph-bar" fill-rule="nonzero" fill="#000000">
            <path d="M4,10 L8,10 L8,19 L4,19 L4,10 Z M10,7 L14,7 L14,19 L10,19 L10,7 Z M16,4 L20,4 L20,19 L16,19 L16,4 Z M2,22 L2,22 C1.44771525,22 1,21.5522847 1,21 C1,20.4477153 1.44771525,20 2,20 L22,20 C22.5522847,20 23,20.4477153 23,21 C23,21.5522847 22.5522847,22 22,22 L2,22 Z" id="Combined-Shape"></path>
        </g>
    </g>
</svg>