<?xml version="1.0" encoding="UTF-8"?>
<svg width="24px" height="24px" viewBox="0 0 24 24" version="1.1" xmlns="http://www.w3.org/2000/svg" xmlns:xlink="http://www.w3.org/1999/xlink">
    <!-- Generator: sketchtool 44.1 (41455) - http://www.bohemiancoding.com/sketch -->
    <title>heart-plus</title>
    <desc>Created with sketchtool.</desc>
    <defs></defs>
    <g id="Symbols" stroke="none" stroke-width="1" fill="none" fill-rule="evenodd">
        <g id="heart-plus" fill-rule="nonzero" fill="#000000">
            <path d="M23,17 C23,17.5522847 22.5522847,18 22,18 L19,18 L19,21 C19,21.5522847 18.5522847,22 18,22 C17.4477153,22 17,21.5522847 17,21 L17,18 L14,18 C13.4477153,18 13,17.5522847 13,17 C13,16.4477153 13.4477153,16 14,16 L17,16 L17,13 C17,12.4477153 17.4477153,12 18,12 C18.5522847,12 19,12.4477153 19,13 L19,16 L22,16 C22.5522847,16 23,16.4477153 23,17 Z M12,21.938 C10.527,21.938 1.018,17.093 1.018,9.146 C0.927945191,7.52427997 1.49287947,5.93432145 2.586,4.733 C3.70230172,3.61406651 5.21945809,2.98761846 6.8,2.993 C8.94430844,3.07486519 10.9025407,4.23318198 12.007,6.073 C13.1090345,4.2374972 15.0608403,3.07986924 17.2,2.993 C18.778218,2.98997291 20.2924477,3.61661278 21.407,4.734 C22.4996702,5.93519112 23.0645558,7.52465241 22.975,9.146 C22.9753911,10.2200422 22.8066581,11.2874474 22.475,12.309 C22.3781522,12.6648425 22.0933144,12.9384992 21.7338808,13.021027 C21.3744471,13.1035549 20.998765,12.9815571 20.7563937,12.703601 C20.5140225,12.4256449 20.4443066,12.0368516 20.575,11.692 C20.8430524,10.8698857 20.9800615,10.0107099 20.981,9.146 C21.0655184,8.04846736 20.7051538,6.9630492 19.981,6.134 C19.2416618,5.39734041 18.23867,4.98656739 17.195,4.993 C15.133,4.993 13.714,6.88 12.886,8.463 C12.7136415,8.79295987 12.3722646,8.99986661 12,9 C11.6283788,8.99836293 11.2883154,8.79078179 11.117,8.461 C10.3,6.879 8.879,4.993 6.8,4.993 C5.75792227,4.98770268 4.75671104,5.39797615 4.018,6.133 C3.29384623,6.9620492 2.93348164,8.04746736 3.018,9.145 C3.018,15.703 10.766,19.516 11.998,19.916 C12.11,19.879 12.305,19.807 12.59,19.679 C13.0905228,19.4684169 13.6676309,19.6957547 13.8900596,20.191127 C14.1124883,20.6864994 13.8989416,21.2688515 13.409,21.503 C12.9769813,21.749722 12.4959145,21.8982415 12,21.938 Z" id="Combined-Shape"></path>
        </g>
    </g>
</svg>