<?xml version="1.0" encoding="UTF-8"?>
<svg width="16px" height="16px" viewBox="0 0 16 16" version="1.1" xmlns="http://www.w3.org/2000/svg" xmlns:xlink="http://www.w3.org/1999/xlink">
    <!-- Generator: sketchtool 49.1 (51147) - http://www.bohemiancoding.com/sketch -->
    <title>heart-plus-16</title>
    <desc>Created with sketchtool.</desc>
    <defs></defs>
    <g id="Icons" stroke="none" stroke-width="1" fill="none" fill-rule="evenodd">
        <g id="heart-plus-16" fill="#000000" fill-rule="nonzero">
            <path d="M15.9,13 C15.9,12.5029437 15.4970563,12.1 15,12.1 L13.9,12.1 L13.9,11 C13.9,10.5029437 13.4970563,10.1 13,10.1 C12.5029437,10.1 12.1,10.5029437 12.1,11 L12.1,12.1 L11,12.1 C10.5029437,12.1 10.1,12.5029437 10.1,13 C10.1,13.4970563 10.5029437,13.9 11,13.9 L12.1,13.9 L12.1,15 C12.1,15.4970563 12.5029437,15.9 13,15.9 C13.4970563,15.9 13.9,15.4970563 13.9,15 L13.9,13.9 L15,13.9 C15.4970563,13.9 15.9,13.4970563 15.9,13 L15.9,13 Z" id="Shape"></path>
            <path d="M7.1,13.82 C7.39474411,13.9486156 7.73571451,13.9102172 7.99447096,13.7192691 C8.2532274,13.5283211 8.39045863,13.2138328 8.35447096,12.8942691 C8.31848329,12.5747055 8.11474411,12.2986156 7.82,12.17 C7.77,12.17 2.82,9.94 2.82,5.97 C2.77086938,5.37452594 2.96167715,4.7841019 3.35,4.33 C3.74834865,3.9343187 4.28855852,3.71463335 4.85,3.72 C5.98,3.72 6.77,4.79 7.23,5.72 C7.38372204,6.02039107 7.69256103,6.20955495 8.03,6.21 L8,6.21 C8.33525432,6.21149203 8.64354976,6.02651476 8.8,5.73 C9.27,4.83 10.06,3.73 11.18,3.73 C11.7414415,3.72463335 12.2816513,3.9443187 12.68,4.34 C13.0698827,4.80068699 13.2573716,5.39920926 13.2,6 C13.1986046,6.58475423 13.0901496,7.16431088 12.88,7.71 C12.7464511,8.01419424 12.7913413,8.36722096 12.9967707,8.6283114 C13.2022,8.88940183 13.5347556,9.01608966 13.8618314,8.95785833 C14.1889071,8.89962701 14.4573043,8.66594785 14.56,8.35 C14.8491602,7.60017031 14.9982956,6.8036512 15,6 C15.0653065,4.93885138 14.7054818,3.89535954 14,3.1 C13.2637972,2.36123792 12.2629556,1.94722071 11.22,1.95 C9.94324876,1.95771999 8.74688979,2.57447647 8,3.61 C7.26786572,2.57438354 6.08798056,1.94733765 4.82,1.92 C3.7632087,1.90645433 2.7459448,2.32129599 2,3.07 C1.28689366,3.87284723 0.926534916,4.92869836 1,6 C1,10.08 4.84,12.84 7.1,13.82 Z" id="Shape"></path>
        </g>
    </g>
</svg>