<?xml version="1.0" encoding="UTF-8"?>
<svg width="24px" height="24px" viewBox="0 0 24 24" version="1.1" xmlns="http://www.w3.org/2000/svg" xmlns:xlink="http://www.w3.org/1999/xlink">
    <!-- Generator: sketchtool 44.1 (41455) - http://www.bohemiancoding.com/sketch -->
    <title>heart-minus</title>
    <desc>Created with sketchtool.</desc>
    <defs></defs>
    <g id="Symbols" stroke="none" stroke-width="1" fill="none" fill-rule="evenodd">
        <g id="heart-minus" fill-rule="nonzero" fill="#000000">
            <path d="M22,15 C22.5522847,15 23,15.4477153 23,16 C23,16.5522847 22.5522847,17 22,17 L14,17 C13.4477153,17 13,16.5522847 13,16 C13,15.4477153 13.4477153,15 14,15 L22,15 Z M12,21.944 C10.526,21.944 1.018,17.1 1.018,9.152 C0.928374775,7.53046226 1.49367259,5.9408549 2.587,4.74 C3.7031204,3.62140741 5.21982624,2.99499674 6.8,3 C8.94456214,3.08189444 10.9030833,4.24015964 12.008,6.08 C13.1099741,4.24491863 15.0612538,3.08737984 17.2,3 C18.7802832,2.99444015 20.2971948,3.6209358 21.413,4.74 C22.506148,5.94273342 23.0700706,7.53432838 22.978,9.157 C22.9774411,10.0842766 22.8502664,11.0071344 22.6,11.9 C22.535123,12.2768464 22.261021,12.5837021 21.8938548,12.6905256 C21.5266886,12.797349 21.1307496,12.6854352 20.8738318,12.4022119 C20.6169139,12.1189885 20.5440039,11.7140484 20.686,11.359 C20.8854797,10.6406538 20.9864033,9.89852881 20.986,9.153 C21.0705184,8.05546736 20.7101538,6.9700492 19.986,6.141 C19.2467873,5.40415142 18.2437131,4.99334467 17.2,5 C15.139,5 13.719,6.888 12.886,8.471 C12.7133702,8.80057242 12.3720471,9.00706131 12,9.007 C11.6280189,9.00573409 11.2874821,8.79809908 11.116,8.468 C10.294,6.886 8.878,5 6.8,5 C5.75787922,4.99448107 4.7565862,5.40478805 4.018,6.14 C3.29384623,6.9690492 2.93348164,8.05446736 3.018,9.152 C3.018,15.712 10.77,19.523 11.999,19.923 C12.4040704,19.7776266 12.7983822,19.6038621 13.179,19.403 C13.6677846,19.1719472 14.2517022,19.371217 14.4972642,19.8528757 C14.7428263,20.3345343 14.5611021,20.9241482 14.087,21.184 C13.4472711,21.5704225 12.7384099,21.8285608 12,21.944 Z" id="Combined-Shape"></path>
        </g>
    </g>
</svg>