<?xml version="1.0" encoding="UTF-8"?>
<svg width="16px" height="16px" viewBox="0 0 16 16" version="1.1" xmlns="http://www.w3.org/2000/svg" xmlns:xlink="http://www.w3.org/1999/xlink">
    <!-- Generator: sketchtool 44.1 (41455) - http://www.bohemiancoding.com/sketch -->
    <title>heart-lock-16</title>
    <desc>Created with sketchtool.</desc>
    <defs></defs>
    <g id="Symbols" stroke="none" stroke-width="1" fill="none" fill-rule="evenodd">
        <g id="heart-lock-16" fill-rule="nonzero" fill="#000000">
            <path d="M13.5,9 C12.1192881,9 11,10.1192881 11,11.5 L11,16 L16,16 L16,11.5 C16,10.1192881 14.8807119,9 13.5,9 L13.5,9 Z M12.6,12 L12.6,11.5 C12.6,11.0029437 13.0029437,10.6 13.5,10.6 C13.9970563,10.6 14.4,11.0029437 14.4,11.5 L14.4,12 L12.6,12 Z" id="Shape"></path>
            <path d="M1,6 C1,11.08 6.94,14.11 8,14.11 C8.46701732,14.0985853 8.8476605,13.731749 8.87631441,13.2654718 C8.90496831,12.7991946 8.57210565,12.3885117 8.11,12.32 C7.49,12.1 2.8,9.78 2.8,6 C2.75086938,5.40452594 2.94167715,4.8141019 3.33,4.36 C3.72834865,3.9643187 4.26855852,3.74463335 4.83,3.75 C5.96,3.75 6.75,4.82 7.21,5.75 C7.36372204,6.05039107 7.67256103,6.23955495 8.01,6.24 L8,6.24 C8.33525432,6.24149203 8.64354976,6.05651476 8.8,5.76 C9.27,4.86 10.06,3.76 11.18,3.76 C11.7414415,3.75463335 12.2816513,3.9743187 12.68,4.37 C13.0621811,4.8231257 13.2491704,5.40926521 13.2,6 C13.2,6.49705626 13.6029437,6.89999996 14.1,6.89999996 C14.5970563,6.89999996 15,6.49705626 15,6 C15.0653065,4.93885138 14.7054818,3.89535954 14,3.1 C13.2637972,2.36123792 12.2629556,1.94722071 11.22,1.95 C9.94324876,1.95771999 8.74688979,2.57447647 8,3.61 C7.26786572,2.57438354 6.08798056,1.94733765 4.82,1.92 C3.7632087,1.90645433 2.7459448,2.32129599 2,3.07 C1.28689366,3.87284723 0.926534916,4.92869836 1,6 L1,6 Z" id="Shape"></path>
        </g>
    </g>
</svg>