<?xml version="1.0" encoding="UTF-8"?>
<svg width="16px" height="16px" viewBox="0 0 16 16" version="1.1" xmlns="http://www.w3.org/2000/svg" xmlns:xlink="http://www.w3.org/1999/xlink">
    <!-- Generator: sketchtool 49.1 (51147) - http://www.bohemiancoding.com/sketch -->
    <title>house-blueprint-16</title>
    <desc>Created with sketchtool.</desc>
    <defs></defs>
    <g id="Icons" stroke="none" stroke-width="1" fill="none" fill-rule="evenodd">
        <g id="house-blueprint-16" fill="#000000" fill-rule="nonzero">
            <path d="M1.9,15 L14.1,15 C14.5970563,15 15,14.5970563 15,14.1 L15,1.9 C15,1.40294373 14.5970563,1 14.1,1 L1.9,1 C1.40294373,1 1,1.40294373 1,1.9 L1,14.1 C1,14.5970563 1.40294373,15 1.9,15 L1.9,15 Z M12,7.22 L13.2,6.07 L13.2,8 L12,8 L12,7.22 Z M13.15,3.52 L12,4.68 L12,2.8 L13.2,2.8 L13.2,3.53 L13.15,3.52 Z M2.8,2.8 L10.25,2.8 L10.25,8.92 C10.25,9.41705627 10.6529437,9.82 11.15,9.82 L13.2,9.82 L13.2,13.2 L7.86,13.2 C7.86777832,13.1335602 7.86777832,13.0664398 7.86,13 L7.86,9.8 L8,9.8 C8.49705627,9.8 8.9,9.39705627 8.9,8.9 C8.9,8.40294373 8.49705627,8 8,8 L6,8 C5.50294373,8 5.1,8.40294373 5.1,8.9 C5.1,9.39705627 5.50294373,9.8 6,9.8 L6.1,9.8 L6.1,13 C6.09222168,13.0664398 6.09222168,13.1335602 6.1,13.2 L2.8,13.2 L2.8,2.8 Z" id="Shape"></path>
        </g>
    </g>
</svg>