<?xml version="1.0" encoding="UTF-8"?>
<svg width="16px" height="16px" viewBox="0 0 16 16" version="1.1" xmlns="http://www.w3.org/2000/svg" xmlns:xlink="http://www.w3.org/1999/xlink">
    <!-- Generator: sketchtool 49.1 (51147) - http://www.bohemiancoding.com/sketch -->
    <title>house-land-area-16</title>
    <desc>Created with sketchtool.</desc>
    <defs></defs>
    <g id="Icons" stroke="none" stroke-width="1" fill="none" fill-rule="evenodd">
        <g id="house-land-area-16" fill="#000000" fill-rule="nonzero">
            <path d="M7.64,1.26 C7.28256371,0.925955604 6.72743629,0.925955604 6.37,1.26 L0.27,7.36 C-0.0796144665,7.7111501 -0.0796144665,8.2788499 0.27,8.63 L5.37,13.73 C5.72743629,14.0640444 6.28256371,14.0640444 6.64,13.73 L8,12.37 L10.36,14.73 C10.7111501,15.0796145 11.2788499,15.0796145 11.63,14.73 L15.73,10.63 C16.0796145,10.2788499 16.0796145,9.7111501 15.73,9.36 L7.64,1.26 Z M10.1,11.93 L8.9,10.73 L8.9,5.07 L10.1,6.27 L10.1,11.92 L10.1,11.93 Z M4.1,6.08 L4.1,9.93 L2.17,8 L4.1,6.08 Z M6,11.83 L5.9,11.73 L5.9,4.27 L7,3.17 L7.1,3.27 L7.1,10.73 L6,11.83 Z M11.9,11.93 L11.9,8.07 L13.83,10 L11.9,11.93 Z" id="Shape"></path>
        </g>
    </g>
</svg>