<?xml version="1.0" encoding="UTF-8"?>
<svg width="24px" height="24px" viewBox="0 0 24 24" version="1.1" xmlns="http://www.w3.org/2000/svg" xmlns:xlink="http://www.w3.org/1999/xlink">
    <!-- Generator: sketchtool 49.1 (51147) - http://www.bohemiancoding.com/sketch -->
    <title>image-none</title>
    <desc>Created with sketchtool.</desc>
    <defs></defs>
    <g id="Icons" stroke="none" stroke-width="1" fill="none" fill-rule="evenodd">
        <g id="image-none" fill="#000000" fill-rule="nonzero">
            <path d="M4,2 C2.8954305,2 2,2.8954305 2,4 L2,20 C2,21.1045695 2.8954305,22 4,22 L20,22 C21.1045695,22 22,21.1045695 22,20 L22,4 C22,2.8954305 21.1045695,2 20,2 L4,2 Z M4,4 L6.5,4 C7.88071187,4 9,5.11928813 9,6.5 C9,7.88071187 7.88071187,9 6.5,9 C5.11928813,9 4,7.88071187 4,6.5 L4,4 Z M4,17.414 L6.707,14.707 C7.08597221,14.3146211 7.08055237,13.6909152 6.69481858,13.3051814 C6.30908478,12.9194476 5.68537889,12.9140278 5.293,13.293 L4,14.586 L4,10.238 C5.78438275,11.4227086 8.15650653,11.1855513 9.67102893,9.67102893 C11.1855513,8.15650653 11.4227086,5.78438275 10.238,4 L18.586,4 L4,18.586 L4,17.414 Z M5.414,20 L20,5.414 L20,13.587 L16.5,10.087 L10.293,16.294 C10.0330434,16.5450745 9.9287874,16.9168779 10.0203028,17.2665073 C10.1118183,17.6161368 10.3848632,17.8891817 10.7344927,17.9806972 C11.0841221,18.0722126 11.4559255,17.9679566 11.707,17.708 L16.5,12.914 L20,16.414 L20,20 L5.414,20 Z" id="Shape"></path>
        </g>
    </g>
</svg>