<?xml version="1.0" encoding="UTF-8"?>
<svg width="16px" height="16px" viewBox="0 0 16 16" version="1.1" xmlns="http://www.w3.org/2000/svg" xmlns:xlink="http://www.w3.org/1999/xlink">
    <!-- Generator: sketchtool 49.1 (51147) - http://www.bohemiancoding.com/sketch -->
    <title>key-16</title>
    <desc>Created with sketchtool.</desc>
    <defs></defs>
    <g id="Icons" stroke="none" stroke-width="1" fill="none" fill-rule="evenodd">
        <g id="key-16" fill="#000000" fill-rule="nonzero">
            <circle id="Oval" cx="5" cy="5" r="1"></circle>
            <path d="M6,11 C6.49767389,11.0123216 6.99491869,10.9619251 7.48,10.85 L11.63,15 L15,15 L15,11.63 L10.85,7.48 C10.9619251,6.99491869 11.0123216,6.49767389 11,6 C11,3.23857625 8.76142375,1 6,1 C3.23857625,1 1,3.23857625 1,6 C1,8.76142375 3.23857625,11 6,11 Z M6,2.8 C7.7673112,2.8 9.2,4.2326888 9.2,6 C9.22761167,6.45573095 9.15948292,6.91219362 9,7.34 L8.74,7.91 L13.21,12.38 L13.21,13.2 L12.37,13.2 L7.91,8.73 L7.34,9 C6.91219362,9.15948292 6.45573095,9.22761167 6,9.2 C4.23268884,9.19999995 2.8000001,7.76731116 2.8000001,6 C2.8000001,4.23268884 4.23268884,2.80000005 6,2.8 L6,2.8 Z" id="Shape"></path>
        </g>
    </g>
</svg>