<?xml version="1.0" encoding="UTF-8"?>
<svg width="16px" height="16px" viewBox="0 0 16 16" version="1.1" xmlns="http://www.w3.org/2000/svg" xmlns:xlink="http://www.w3.org/1999/xlink">
    <!-- Generator: sketchtool 44.1 (41455) - http://www.bohemiancoding.com/sketch -->
    <title>lightbulb-16</title>
    <desc>Created with sketchtool.</desc>
    <defs></defs>
    <g id="Symbols" stroke="none" stroke-width="1" fill="none" fill-rule="evenodd">
        <g id="lightbulb-16" fill-rule="nonzero" fill="#000000">
            <path d="M5,11.91 L5,13.08 C4.99954547,13.6033845 5.21277508,14.1042705 5.59033817,14.4667311 C5.96790126,14.8291916 6.47706983,15.0218079 7,15 L9,15 C9.52293017,15.0218079 10.0320987,14.8291916 10.4096618,14.4667311 C10.7872249,14.1042705 11.0004545,13.6033845 11,13.08 L11,11.83 C10.9804998,10.8377454 11.3056301,9.86942235 11.92,9.09 C12.7640392,8.06845789 13.1603241,6.74963657 13.0191546,5.43205486 C12.8779851,4.11447316 12.2112981,2.90954169 11.17,2.09 C9.96701131,1.10456572 8.37400397,0.734958449 6.86,1.09 C5.18162138,1.47549859 3.82512269,2.70720586 3.27994025,4.34071131 C2.73475781,5.97421676 3.07958302,7.77374088 4.19,9.09 C4.77767225,9.90819817 5.06388762,10.9046517 5,11.91 L5,11.91 Z M9,13.2 L7,13.2 C6.93372583,13.2 6.88,13.1462742 6.88,13.08 L6.88,12 L9.18,12 L9.18,13.08 C9.18644589,13.1256846 9.16612933,13.1710192 9.12774096,13.1966114 C9.08935258,13.2222037 9.03969119,13.223521 9,13.2 Z M4.88,5.2 C5.16846791,4.0540364 6.07040978,3.16365789 7.22,2.89 C7.47574278,2.83050082 7.73742729,2.80030645 8,2.8 C8.72668182,2.80022637 9.43178463,3.04701235 10,3.5 C10.7662437,4.10199269 11.2095808,5.02561156 11.2,6 C11.208619,6.72987281 10.9569013,7.4389369 10.49,8 C10.0083057,8.59028947 9.64806577,9.26998739 9.43,10 L8.84,10 L9.76,7.25 C9.90083261,6.83026359 9.67473641,6.37583261 9.255,6.235 C8.83526359,6.09416739 8.38083261,6.32026359 8.24,6.74 L8,7.47 L7.76,6.75 C7.61916739,6.33026359 7.16473641,6.10416739 6.745,6.245 C6.32526359,6.38583261 6.09916739,6.84026359 6.24,7.26 L7.16,10 L6.57,10 C6.37476679,9.27278809 6.03462961,8.59251372 5.57,8 C4.88560241,7.2250399 4.63414023,6.15914053 4.9,5.16 L4.88,5.2 Z" id="Shape"></path>
        </g>
    </g>
</svg>