<?xml version="1.0" encoding="UTF-8"?>
<svg width="24px" height="24px" viewBox="0 0 24 24" version="1.1" xmlns="http://www.w3.org/2000/svg" xmlns:xlink="http://www.w3.org/1999/xlink">
    <!-- Generator: sketchtool 44.1 (41455) - http://www.bohemiancoding.com/sketch -->
    <title>lightbulb</title>
    <desc>Created with sketchtool.</desc>
    <defs></defs>
    <g id="Symbols" stroke="none" stroke-width="1" fill="none" fill-rule="evenodd">
        <g id="lightbulb" fill-rule="nonzero" fill="#000000">
            <path d="M8,18 L8,20 C7.90466501,20.8211918 8.18994577,21.6409137 8.77451602,22.225484 C9.35908627,22.8100542 10.1788082,23.095335 11,23 L13,23 C13.8166272,23.0761565 14.6247448,22.7846412 15.204693,22.204693 C15.7846412,21.6247448 16.0761565,20.8166272 16,20 L16,18 C16,16.461 17.124,15 18.211,13.595 L18.422,13.321 C19.4568976,11.7397509 20.0055215,9.88979656 20,8 C20.048333,5.86381757 19.2210084,3.80078295 17.7101127,2.28988728 C16.199217,0.778991606 14.1361824,-0.0483329931 12,8.65982633e-14 C9.86381757,-0.0483329931 7.80078295,0.778991606 6.28988728,2.28988728 C4.77899161,3.80078295 3.95166701,5.86381757 4,8 C3.94815852,9.94944863 4.53689258,11.8621318 5.676,13.445 C6.371,14.313 8,16.349 8,18 Z M14,20 C14,20.757 13.757,21 13,21 L11,21 C10.226,21 10,20.869 10,20 L10,18 L14,18 L14,20 Z M12,2 C13.6021997,1.96353445 15.1496021,2.5839585 16.2828218,3.71717818 C17.4160415,4.85039785 18.0364656,6.39780029 18,8 C18.00147,9.44840896 17.5983216,10.8684333 16.836,12.1 L16.628,12.371 C15.7026258,13.4613756 14.9465028,14.684724 14.385,16 L13.03,16 L14.97,8.243 C15.0713059,7.89156284 14.9726686,7.51285524 14.7127955,7.25548988 C14.4529224,6.99812453 14.0732762,6.90316402 13.7228378,7.00787283 C13.3723995,7.11258164 13.1070815,7.40025349 13.031,7.758 L12,11.878 L10.97,7.757 C10.8939185,7.39925349 10.6286005,7.11158164 10.2781622,7.00687283 C9.92772382,6.90216402 9.54807759,6.99712453 9.28820449,7.25448988 C9.02833139,7.51185524 8.92969412,7.89056284 9.031,8.242 L10.97,16 L9.594,16 C9.00712251,14.6185888 8.21188039,13.3353419 7.236,12.195 C6.38279823,10.9663513 5.94927787,9.49497762 6,8 C5.96353445,6.39780029 6.5839585,4.85039785 7.71717818,3.71717818 C8.85039785,2.5839585 10.3978003,1.96353445 12,2 L12,2 Z" id="Shape"></path>
        </g>
    </g>
</svg>