<?xml version="1.0" encoding="UTF-8"?>
<svg width="16px" height="16px" viewBox="0 0 16 16" version="1.1" xmlns="http://www.w3.org/2000/svg" xmlns:xlink="http://www.w3.org/1999/xlink">
    <!-- Generator: sketchtool 49.1 (51147) - http://www.bohemiancoding.com/sketch -->
    <title>link-16</title>
    <desc>Created with sketchtool.</desc>
    <defs></defs>
    <g id="Icons" stroke="none" stroke-width="1" fill="none" fill-rule="evenodd">
        <g id="link-16" fill="#000000" fill-rule="nonzero">
            <path d="M14.17,1.83 C12.4371191,0.102135494 9.63288089,0.102135494 7.9,1.83 L5.9,3.83 C4.17213549,5.56288089 4.17213549,8.36711911 5.9,10.1 C6.09632146,10.4145965 6.46550346,10.5765746 6.82993696,10.5080086 C7.19437047,10.4394426 7.47944261,10.1543705 7.54800861,9.78993696 C7.61657461,9.42550346 7.4545965,9.05632146 7.14,8.86 C6.11136286,7.82942023 6.11136286,6.16057977 7.14,5.13 L9.14,3.13 C10.1835333,2.13316901 11.8264667,2.13316901 12.87,3.13 C13.7774961,4.03542183 13.8999999,5.46322496 13.16,6.51 C12.9166311,6.76902042 12.8484902,7.14700613 12.986089,7.47470503 C13.1236877,7.80240392 13.4412523,8.01843426 13.7965856,8.02606331 C14.151919,8.03369237 14.4784631,7.83149112 14.63,7.51 C15.8805521,5.7573382 15.686287,3.3585868 14.17,1.83 L14.17,1.83 Z" id="Shape"></path>
            <path d="M2.59,8.26 C2.18115007,7.97908039 1.62207941,8.08194939 1.34,8.49 C0.0711189877,10.3794862 0.436497708,12.9224754 2.18603182,14.3782733 C3.93556592,15.8340712 6.50260826,15.7311673 8.13,14.14 L10.13,12.14 C11.8578645,10.4071191 11.8578645,7.60288089 10.13,5.87 C9.77343225,5.5578032 9.23585209,5.5756172 8.90073465,5.91073465 C8.5656172,6.24585209 8.5478032,6.78343225 8.86,7.14 C9.88863714,8.17057977 9.88863714,9.83942023 8.86,10.87 L6.86,12.87 C5.81646667,13.866831 4.17353333,13.866831 3.13,12.87 C2.23255661,11.9740958 2.10219734,10.5653747 2.82,9.52 C2.95810273,9.32289827 3.01151017,9.07869527 2.96829269,8.84193864 C2.92507521,8.605182 2.78883354,8.39559749 2.59,8.26 L2.59,8.26 Z" id="Shape"></path>
        </g>
    </g>
</svg>