<?xml version="1.0" encoding="UTF-8"?>
<svg width="16px" height="16px" viewBox="0 0 16 16" version="1.1" xmlns="http://www.w3.org/2000/svg" xmlns:xlink="http://www.w3.org/1999/xlink">
    <!-- Generator: sketchtool 44.1 (41455) - http://www.bohemiancoding.com/sketch -->
    <title>lock-16</title>
    <desc>Created with sketchtool.</desc>
    <defs></defs>
    <g id="Symbols" stroke="none" stroke-width="1" fill="none" fill-rule="evenodd">
        <g id="lock-16" fill-rule="nonzero" fill="#000000">
            <path d="M8,1 C6.34314575,1 5,2.34314575 5,4 L5,5 L3.9,5 C3.39260423,4.99997189 2.90627597,5.20289298 2.54937631,5.56354948 C2.19247666,5.92420597 1.99465899,6.41263234 2,6.92 L2,13.08 C1.99465899,13.5873677 2.19247666,14.075794 2.54937631,14.4364505 C2.90627597,14.797107 3.39260423,15.0000281 3.9,15 L12.1,15 C13.149341,15 14,14.149341 14,13.1 L14,6.92 C14.005341,6.41263234 13.8075233,5.92420597 13.4506237,5.56354948 C13.093724,5.20289298 12.6073958,4.99997189 12.1,5 L11,5 L11,4 C11,2.34314575 9.65685425,1 8,1 L8,1 Z M6.8,4 C6.80000002,3.33725831 7.33725831,2.80000004 8,2.80000004 C8.66274169,2.80000004 9.19999998,3.33725831 9.2,4 L9.2,5 L6.8,5 L6.8,4 Z M12.2,6.94 L12.2,13.1 C12.2,13.1552285 12.1552285,13.2 12.1,13.2 L3.9,13.2 C3.84477153,13.2 3.8,13.1552285 3.8,13.1 L3.8,6.92 C3.8,6.86477153 3.84477153,6.82 3.9,6.82 L12.1,6.82 C12.1552285,6.82 12.2,6.86477153 12.2,6.92 L12.2,6.94 Z" id="Shape"></path>
            <path d="M7,10.61 L7,11 C7,11.5522847 7.44771525,12 8,12 C8.55228475,12 9,11.5522847 9,11 L9,10.61 C9.46355484,10.1953839 9.62317479,9.53771716 9.40125854,8.95673288 C9.17934229,8.37574859 8.62192408,7.99196601 8,7.99196601 C7.37807592,7.99196601 6.82065771,8.37574859 6.59874146,8.95673288 C6.37682521,9.53771716 6.53644516,10.1953839 7,10.61 L7,10.61 Z" id="Shape"></path>
        </g>
    </g>
</svg>