<?xml version="1.0" encoding="UTF-8"?>
<svg width="24px" height="24px" viewBox="0 0 24 24" version="1.1" xmlns="http://www.w3.org/2000/svg" xmlns:xlink="http://www.w3.org/1999/xlink">
    <!-- Generator: sketchtool 44.1 (41455) - http://www.bohemiancoding.com/sketch -->
    <title>lock</title>
    <desc>Created with sketchtool.</desc>
    <defs></defs>
    <g id="Symbols" stroke="none" stroke-width="1" fill="none" fill-rule="evenodd">
        <g id="lock" fill-rule="nonzero" fill="#000000">
            <path d="M21,11 C21,9.34314575 19.6568542,8 18,8 L17,8 L17,7 C17,4.23857625 14.7614237,2 12,2 C9.23857625,2 7,4.23857625 7,7 L7,8 L6,8 C4.34314575,8 3,9.34314575 3,11 L3,19 C3,20.6568542 4.34314575,22 6,22 L18,22 C19.6568542,22 21,20.6568542 21,19 L21,11 Z M9,7 C9,5.34314575 10.3431458,4 12,4 C13.6568542,4 15,5.34314575 15,7 L15,8 L9,8 L9,7 Z M19,19 C19,19.5522847 18.5522847,20 18,20 L6,20 C5.44771525,20 5,19.5522847 5,19 L5,11 C5,10.4477153 5.44771525,10 6,10 L18,10 C18.5522847,10 19,10.4477153 19,11 L19,19 Z M12,12 C11.095452,11.9969402 10.3021594,12.6031443 10.0675129,13.4767331 C9.83286641,14.350322 10.2156556,15.2724223 11,15.723 L11,18 C11,18.5522847 11.4477153,19 12,19 C12.5522847,19 13,18.5522847 13,18 L13,15.723 C13.7843444,15.2724223 14.1671336,14.350322 13.9324871,13.4767331 C13.6978406,12.6031443 12.904548,11.9969402 12,12 Z" id="Combined-Shape"></path>
        </g>
    </g>
</svg>