<?xml version="1.0" encoding="UTF-8"?>
<svg width="24px" height="24px" viewBox="0 0 24 24" version="1.1" xmlns="http://www.w3.org/2000/svg" xmlns:xlink="http://www.w3.org/1999/xlink">
    <!-- Generator: sketchtool 49.1 (51147) - http://www.bohemiancoding.com/sketch -->
    <title>logout</title>
    <desc>Created with sketchtool.</desc>
    <defs></defs>
    <g id="Icons" stroke="none" stroke-width="1" fill="none" fill-rule="evenodd">
        <g id="logout" fill="#000000" fill-rule="nonzero">
            <path d="M19.8649584,13 L13,13 C12.4477153,13 12,12.5522847 12,12 C12,11.4477153 12.4477153,11 13,11 L19.8649584,11 L18.7317787,9.6401844 C18.3782146,9.2159075 18.4355387,8.5853428 18.8598156,8.23177872 C19.2840925,7.87821464 19.9146572,7.9355387 20.2682213,8.3598156 L23.3017083,12 L20.2682213,15.6401844 C19.9146572,16.0644613 19.2840925,16.1217854 18.8598156,15.7682213 C18.4355387,15.4146572 18.3782146,14.7840925 18.7317787,14.3598156 L19.8649584,13 Z M15.5,16 C15.5,15.4477153 15.9477153,15 16.5,15 C17.0522847,15 17.5,15.4477153 17.5,16 L17.5,18 C17.5,19.6568542 16.1568542,21 14.5,21 L5,21 C3.34314575,21 2,19.6568542 2,18 L2,6 C2,4.34314575 3.34314575,3 5,3 L14.5,3 C16.1568542,3 17.5,4.34314575 17.5,6 L17.5,8 C17.5,8.55228475 17.0522847,9 16.5,9 C15.9477153,9 15.5,8.55228475 15.5,8 L15.5,6 C15.5,5.44771525 15.0522847,5 14.5,5 L5,5 C4.44771525,5 4,5.44771525 4,6 L4,18 C4,18.5522847 4.44771525,19 5,19 L14.5,19 C15.0522847,19 15.5,18.5522847 15.5,18 L15.5,16 Z" id="Combined-Shape"></path>
        </g>
    </g>
</svg>