<?xml version="1.0" encoding="UTF-8"?>
<svg width="24px" height="24px" viewBox="0 0 24 24" version="1.1" xmlns="http://www.w3.org/2000/svg" xmlns:xlink="http://www.w3.org/1999/xlink">
    <!-- Generator: sketchtool 49.1 (51147) - http://www.bohemiancoding.com/sketch -->
    <title>mail-open</title>
    <desc>Created with sketchtool.</desc>
    <defs></defs>
    <g id="Icons" stroke="none" stroke-width="1" fill="none" fill-rule="evenodd">
        <g id="mail-open" fill="#000000" fill-rule="nonzero">
            <path d="M15.07,3.12 C13.2661754,1.71001167 10.7338246,1.71001167 8.93,3.12 L2.58,8.06 C2.21272257,8.34094661 1.99809969,8.77759314 2,9.24 L2,20 C2.0032948,21.1032019 2.89679813,21.9967052 4,22 L20,22 C21.1032019,21.9967052 21.9967052,21.1032019 22,20 L22,9.253 C21.9999444,8.79066241 21.7866859,8.35418351 21.422,8.07 L15.07,3.12 Z M14,8 L5.91,8 L10.16,4.7 C11.2426214,3.85929669 12.7573786,3.85929669 13.84,4.7 L19.38,9.01 L13.84,13.37 C12.7573786,14.2107033 11.2426214,14.2107033 10.16,13.37 L5.88,10 L14,10 C14.5522847,10 15,9.55228475 15,9 C15,8.44771525 14.5522847,8 14,8 Z M20,20 L4,20 L4,11.06 L8.93,14.95 C10.7409998,16.3536707 13.2735745,16.3495527 15.08,14.94 L20,11.06 L20,20 Z" id="Shape"></path>
        </g>
    </g>
</svg>