<?xml version="1.0" encoding="UTF-8"?>
<svg width="24px" height="24px" viewBox="0 0 24 24" version="1.1" xmlns="http://www.w3.org/2000/svg" xmlns:xlink="http://www.w3.org/1999/xlink">
    <!-- Generator: sketchtool 49.1 (51147) - http://www.bohemiancoding.com/sketch -->
    <title>map-school-girls</title>
    <desc>Created with sketchtool.</desc>
    <defs></defs>
    <g id="Icons" stroke="none" stroke-width="1" fill="none" fill-rule="evenodd">
        <g id="map-school-girls" fill="#000000" fill-rule="nonzero">
            <path d="M19,7 C19.4949333,6.99981863 19.9152788,6.63761493 19.9885996,6.14814272 C20.0619203,5.65867052 19.7661563,5.18919682 19.293,5.044 L6.293,1.044 C5.98979191,0.951082086 5.660483,1.00749111 5.40548654,1.19602678 C5.15049009,1.38456244 5.00003566,1.68287402 5,2 L5,6 C5,6.55228475 5.44771525,7 6,7 C6.55228475,7 7,6.55228475 7,6 L7,3.354 L9.05,3.985 C8.911039,4.08870535 8.77752777,4.19951967 8.65,4.317 C8.62217547,4.33755766 8.59547064,4.35958914 8.57,4.383 C7.37347974,5.50404573 6.8078608,7.143706 7.05871229,8.76403862 C7.30956379,10.3843712 8.34450842,11.7762406 9.824,12.483 C9.36946007,12.7773967 8.97955522,13.1611774 8.678,13.611 L5.358,18.59 C4.85658411,19.3429094 4.72088847,20.281592 4.98855186,21.1456792 C5.25621525,22.0097665 5.89877495,22.7073733 6.738,23.045 C8.41289308,23.6912765 10.1948102,24.0152923 11.99,24 C13.7963508,24.0130561 15.5888668,23.6842755 17.273,23.031 C18.1125388,22.6949089 18.7556775,21.9980444 19.0234772,21.1342932 C19.291277,20.2705421 19.1551608,19.3320753 18.653,18.58 C17.746,17.215 16.46,15.291 15.328,13.599 C15.0264637,13.1503241 14.6369192,12.7675839 14.183,12.474 C15.8996409,11.6433293 16.9928716,9.9070446 17,8 C16.9944696,7.43186157 16.8909511,6.86893726 16.694,6.336 L18.706,6.955 C18.8011885,6.98465983 18.9002978,6.99982961 19,7 Z M14.636,16.165 C15.483,17.433 16.336,18.707 16.987,19.69 C17.1541028,19.9415805 17.1992047,20.2549727 17.1098264,20.5434647 C17.0204482,20.8319567 16.8060672,21.064958 16.526,21.178 C13.6099947,22.267906 10.3989287,22.2707461 7.481,21.186 C7.20057232,21.0727812 6.98595633,20.8394132 6.89656921,20.5505048 C6.80718209,20.2615963 6.85250862,19.9478031 7.02,19.696 L9.369,16.173 C10.0175377,16.9601222 10.9845084,17.415419 12.0043908,17.4138699 C13.0242732,17.4123208 13.9898564,16.9540887 14.636,16.165 L14.636,16.165 Z M10.617,14.392 C10.9851284,14.0279223 11.4822449,13.8241153 12,13.825 L12,13.825 C12.5154596,13.8228714 13.0109662,14.0240924 13.379,14.385 C13.1956238,14.9946509 12.6350948,15.4126462 11.9984649,15.4144868 C11.361835,15.4163274 10.7988984,15.0015803 10.612,14.393 L10.617,14.392 Z M12,11 C10.3431458,11 9,9.65685425 9,8 C9.00272627,7.33073804 9.23141801,6.68201462 9.649,6.159 L14.978,7.776 C14.984,7.851 15.001,7.923 15.001,8 C15.001,8.79582276 14.6847923,9.55903609 14.1219668,10.121674 C13.5591414,10.6843119 12.7958227,11.0002653 12,11 Z" id="Shape"></path>
        </g>
    </g>
</svg>