<?xml version="1.0" encoding="UTF-8"?>
<svg width="24px" height="24px" viewBox="0 0 24 24" version="1.1" xmlns="http://www.w3.org/2000/svg" xmlns:xlink="http://www.w3.org/1999/xlink">
    <!-- Generator: sketchtool 49.1 (51147) - http://www.bohemiancoding.com/sketch -->
    <title>map-street-view</title>
    <desc>Created with sketchtool.</desc>
    <defs></defs>
    <g id="Icons" stroke="none" stroke-width="1" fill="none" fill-rule="evenodd">
        <g id="map-street-view" fill="#000000" fill-rule="nonzero">
            <path d="M20.531,13.668 C20.2273242,13.478292 19.8455083,13.4650036 19.5293784,13.6331405 C19.2132486,13.8012774 19.0108325,14.1252956 18.9983784,14.4831405 C18.9859243,14.8409854 19.1653242,15.178292 19.469,15.368 C20.041,15.722 21,16.455 21,17.34 C21,18.45 19.448,19.64 17,20.366 L17,13.4 C16.9850424,11.2767129 15.6130666,9.40122278 13.594,8.744 C15.3325849,7.98888478 16.3024701,6.11718921 15.9168479,4.26134111 C15.5312258,2.40549302 13.8959885,1.07510947 12.0005,1.07510947 C10.1050115,1.07510947 8.46977421,2.40549302 8.08415208,4.26134111 C7.69852994,6.11718921 8.66841506,7.98888478 10.407,8.744 C8.3875382,9.40087422 7.01509985,11.276446 7,13.4 L7,20.366 C4.552,19.642 3,18.45 3,17.34 C3,16.455 3.959,15.722 4.531,15.364 C5.00044204,15.0707368 5.1432632,14.452442 4.85,13.983 C4.5567368,13.513558 3.93844204,13.3707368 3.469,13.664 C1.429,14.947 1,16.371 1,17.34 C1,20.593 5.729,23.047 12,23.047 C18.271,23.047 23,20.594 23,17.34 C23,16.371 22.571,14.947 20.531,13.668 Z M12,3.08 C13.1045695,3.08 14,3.9754305 14,5.08 C14,6.1845695 13.1045695,7.08 12,7.08 C10.8954305,7.08 10,6.1845695 10,5.08 C10,3.9754305 10.8954305,3.08 12,3.08 Z M9,20.811 L9,13.4 C9,11.7431458 10.3431458,10.4 12,10.4 C13.6568542,10.4 15,11.7431458 15,13.4 L15,20.811 C13.0123155,21.1248848 10.9876845,21.1248848 9,20.811 Z" id="Shape"></path>
        </g>
    </g>
</svg>