<?xml version="1.0" encoding="UTF-8"?>
<svg width="24px" height="24px" viewBox="0 0 24 24" version="1.1" xmlns="http://www.w3.org/2000/svg" xmlns:xlink="http://www.w3.org/1999/xlink">
    <!-- Generator: sketchtool 49.1 (51147) - http://www.bohemiancoding.com/sketch -->
    <title>map-direction</title>
    <desc>Created with sketchtool.</desc>
    <defs></defs>
    <g id="Icons" stroke="none" stroke-width="1" fill="none" fill-rule="evenodd">
        <g id="map-direction" fill="#000000" fill-rule="nonzero">
            <path d="M9,15 L9,23 L14,23 L14,15 L17.232,15 C17.9731463,15.0000584 18.6880813,14.7257684 19.239,14.23 L22.839,10.987 C23.2603685,10.607718 23.5009724,10.067427 23.5009724,9.5005 C23.5009724,8.93357297 23.2603685,8.393282 22.839,8.014 L19.239,4.77 C18.6880813,4.27423156 17.9731463,3.99994159 17.232,4 L14,4 L14,3.5 C14,2.11928813 12.8807119,1 11.5,1 C10.1192881,1 9,2.11928813 9,3.5 L9,4 L3,4 C1.8954305,4 1,4.8954305 1,6 L1,13 C1,14.1045695 1.8954305,15 3,15 L9,15 Z M12,21 L11,21 L11,15 L12,15 L12,21 Z M11,3.5 C11,3.22385763 11.2238576,3 11.5,3 C11.7761424,3 12,3.22385763 12,3.5 L12,4 L11,4 L11,3.5 Z M3,6 L17.232,6 C17.4789606,5.99979749 17.7172613,6.09098582 17.901,6.256 L21.5,9.5 L17.9,12.743 C17.71641,12.9083772 17.4780929,12.999928 17.231,13 L3,13 L3,6 Z" id="Shape"></path>
        </g>
    </g>
</svg>