<?xml version="1.0" encoding="UTF-8"?>
<svg width="16px" height="16px" viewBox="0 0 16 16" version="1.1" xmlns="http://www.w3.org/2000/svg" xmlns:xlink="http://www.w3.org/1999/xlink">
    <!-- Generator: sketchtool 49.1 (51147) - http://www.bohemiancoding.com/sketch -->
    <title>map-16</title>
    <desc>Created with sketchtool.</desc>
    <defs></defs>
    <g id="Icons" stroke="none" stroke-width="1" fill="none" fill-rule="evenodd">
        <g id="map-16" fill="#000000" fill-rule="nonzero">
            <path d="M1.89,13.11 C2.44444032,13.4603216 3.14085902,13.4981705 3.73,13.21 L6,12.1 L10,14.1 L13.94,12.18 C14.5860163,11.8589766 14.9960521,11.201372 15,10.48 L15,4.48 C15.0003024,3.82525394 14.663469,3.21648325 14.1085882,2.86892057 C13.5537074,2.52135788 12.8589691,2.48397925 12.27,2.77 L10,3.9 L6,1.9 L2.07,3.82 C1.42009646,4.13822196 1.00583529,4.7963939 1,5.52 L1,11.52 C1.00473044,12.16746 1.34056648,12.7674367 1.89,13.11 L1.89,13.11 Z M2.8,5.52 C2.80064919,5.48083866 2.82410076,5.44566131 2.86,5.43 L6,3.9 L9.1,5.46 L9.1,7 C9.1,7.49705627 9.50294373,7.9 10,7.9 C10.4970563,7.9 10.9,7.49705627 10.9,7 L10.9,5.46 L13.06,4.41 L12.66,3.6 L13.2,4.5 L13.2,10.5 C13.1993508,10.5391613 13.1758992,10.5743387 13.14,10.59 L10.9,11.66 L10.9,9 C10.9,8.50294373 10.4970563,8.1 10,8.1 C9.50294373,8.1 9.1,8.50294373 9.1,9 L9.1,11.64 L6.9,10.54 L6.9,5.9 C6.89999999,5.40294374 6.49705626,5.00000003 6,5.00000003 C5.50294374,5.00000003 5.10000001,5.40294374 5.1,5.9 L5.1,10.54 L2.94,11.59 L3.34,12.4 L2.8,11.5 L2.8,5.5 L2.8,5.52 Z" id="Shape"></path>
        </g>
    </g>
</svg>