<?xml version="1.0" encoding="UTF-8"?>
<svg width="24px" height="24px" viewBox="0 0 24 24" version="1.1" xmlns="http://www.w3.org/2000/svg" xmlns:xlink="http://www.w3.org/1999/xlink">
    <!-- Generator: sketchtool 44.1 (41455) - http://www.bohemiancoding.com/sketch -->
    <title>map-school-boys</title>
    <desc>Created with sketchtool.</desc>
    <defs></defs>
    <g id="Symbols" stroke="none" stroke-width="1" fill="none" fill-rule="evenodd">
        <g id="map-school-boys" fill-rule="nonzero" fill="#000000">
            <path d="M18,7 C18.495123,7.0003139 18.9159321,6.6382605 18.9895258,6.14863731 C19.0631195,5.65901413 18.7673378,5.18925229 18.294,5.044 L5.294,1.044 C4.99066152,0.9506949 4.66104146,1.0069171 4.4057837,1.19550012 C4.15052594,1.38408313 3.99993825,1.68263574 4,2 L4,6 C4,6.55228475 4.44771525,7 5,7 C5.55228475,7 6,6.55228475 6,6 L6,3.354 L8.05,3.985 C7.932,4.072 7.822,4.167 7.713,4.263 C7.66089861,4.29821524 7.61233767,4.3384036 7.568,4.383 C6.42535435,5.45323588 5.85532874,7.00028743 6.03040113,8.55604885 C6.20547352,10.1118103 7.10507324,11.4934825 8.457,12.283 C6.36071085,13.241519 5.01170856,15.3299946 5,17.635 L5,21 C5,22.6568542 6.34314575,24 8,24 L14,24 C15.6568542,24 17,22.6568542 17,21 L17,17.635 C16.9892484,15.3295015 15.640553,13.2401164 13.544,12.281 C15.6173304,11.0916332 16.5267123,8.57750941 15.694,6.337 L17.706,6.956 C17.8012605,6.98523255 17.9003552,7.00006304 18,7 Z M14.187,15.291 C14.7102982,15.9606332 14.9962779,16.7851554 15,17.635 L15,21 C15,21.5522847 14.5522847,22 14,22 L8,22 C7.44771525,22 7,21.5522847 7,21 L7,17.635 C7.00394343,16.7854985 7.28991114,15.9613627 7.813,15.292 C8.34978883,16.5780918 9.60688084,17.4156017 11.0005,17.4156017 C12.3941192,17.4156017 13.6512112,16.5780918 14.188,15.292 L14.187,15.291 Z M9.547,13.991 C10.4800832,13.621493 11.5189168,13.621493 12.452,13.991 C12.4313391,14.7783523 11.7871233,15.405885 10.9995,15.405885 C10.2118767,15.405885 9.56766086,14.7783523 9.547,13.991 L9.547,13.991 Z M11,11 C9.34314575,11 8,9.65685425 8,8 C8.00272627,7.33073804 8.23141801,6.68201462 8.649,6.159 L13.978,7.776 C13.984,7.851 14.001,7.923 14.001,8 C14.001,8.79582276 13.6847923,9.55903609 13.1219668,10.121674 C12.5591414,10.6843119 11.7958227,11.0002653 11,11 Z" id="Shape"></path>
        </g>
    </g>
</svg>