<?xml version="1.0" encoding="UTF-8"?>
<svg width="16px" height="16px" viewBox="0 0 16 16" version="1.1" xmlns="http://www.w3.org/2000/svg" xmlns:xlink="http://www.w3.org/1999/xlink">
    <!-- Generator: sketchtool 44.1 (41455) - http://www.bohemiancoding.com/sketch -->
    <title>map-planner-16</title>
    <desc>Created with sketchtool.</desc>
    <defs></defs>
    <g id="Symbols" stroke="none" stroke-width="1" fill="none" fill-rule="evenodd">
        <g id="map-planner-16" fill-rule="nonzero" fill="#000000">
            <path d="M2.82,5.73 L3.49,6.36 L4.17,5.73 C4.48,5.46 6,4 6,2.5 C6,1.11928813 4.88071187,0 3.5,0 C2.11928813,-2.22044605e-16 1,1.11928813 1,2.5 C1,4 2.51,5.44 2.82,5.73 Z M3.5,1.73 C3.91421356,1.73 4.25,2.06578644 4.25,2.48 C4.25,2.89421356 3.91421356,3.23 3.5,3.23 C3.08578644,3.23 2.75,2.89421356 2.75,2.48 C2.7608407,2.07361741 3.09347286,1.74985543 3.5,1.75 L3.5,1.73 Z" id="Shape"></path>
            <path d="M12.5,3 C10.5670034,3 9,4.56700338 9,6.5 C9,8.69 11.53,11.13 11.82,11.4 L12.49,12 L13.17,11.37 C13.46,11.14 16,8.75 16,6.5 C16,4.56700338 14.4329966,3 12.5,3 Z M12.5,8 C11.6715729,8 11,7.32842712 11,6.5 C11,5.67157288 11.6715729,5 12.5,5 C13.3284271,5 14,5.67157288 14,6.5 C14,7.32842712 13.3284271,8 12.5,8 L12.5,8 Z" id="Shape"></path>
            <path d="M7.48,10.810009 C8.1204461,10.1721279 8.31247619,9.21073008 7.96621731,8.37576404 C7.61995843,7.54079801 6.80391202,6.99744763 5.9,7.00000902 L2.9,7.00000902 C2.40294373,7.00000902 2,7.40295274 2,7.90000902 C2,8.39706529 2.40294373,8.80000902 2.9,8.80000902 L5.9,8.80000902 C6.07766343,8.79497189 6.24011769,8.89975934 6.30879171,9.06369087 C6.37746573,9.22762239 6.3382058,9.41691174 6.21,9.54000902 L4.76,11.000009 C4.12669987,11.6388195 3.9392106,12.5955745 4.28456142,13.4261651 C4.62991224,14.2567556 5.44047473,14.7985312 6.34,14.800009 L12.9,14.800009 C13.3970563,14.800009 13.8,14.3970653 13.8,13.900009 C13.8,13.4029527 13.3970563,13.000009 12.9,13.000009 L6.34,13.000009 C6.16233657,13.0050461 5.99988231,12.9002587 5.93120829,12.7363272 C5.86253427,12.5723956 5.9017942,12.3831063 6.03,12.260009 L7.48,10.810009 Z" id="Shape"></path>
        </g>
    </g>
</svg>