<?xml version="1.0" encoding="UTF-8"?>
<svg width="16px" height="16px" viewBox="0 0 16 16" version="1.1" xmlns="http://www.w3.org/2000/svg" xmlns:xlink="http://www.w3.org/1999/xlink">
    <!-- Generator: sketchtool 44.1 (41455) - http://www.bohemiancoding.com/sketch -->
    <title>menu-hamburger-16</title>
    <desc>Created with sketchtool.</desc>
    <defs></defs>
    <g id="Symbols" stroke="none" stroke-width="1" fill="none" fill-rule="evenodd">
        <g id="menu-hamburger-16" fill-rule="nonzero" fill="#000000">
            <path d="M13,7 L3,7 C2.44771525,7 2,7.44771525 2,8 C2,8.55228475 2.44771525,9 3,9 L13,9 C13.5522847,9 14,8.55228475 14,8 C14,7.44771525 13.5522847,7 13,7 Z" id="Shape"></path>
            <path d="M13,11 L3,11 C2.44771525,11 2,11.4477153 2,12 C2,12.5522847 2.44771525,13 3,13 L13,13 C13.5522847,13 14,12.5522847 14,12 C14,11.4477153 13.5522847,11 13,11 Z" id="Shape"></path>
            <path d="M13,3 L3,3 C2.44771525,3 2,3.44771525 2,4 C2,4.55228475 2.44771525,5 3,5 L13,5 C13.5522847,5 14,4.55228475 14,4 C14,3.44771525 13.5522847,3 13,3 Z" id="Shape"></path>
        </g>
    </g>
</svg>