<?xml version="1.0" encoding="UTF-8"?>
<svg width="24px" height="24px" viewBox="0 0 24 24" version="1.1" xmlns="http://www.w3.org/2000/svg" xmlns:xlink="http://www.w3.org/1999/xlink">
    <!-- Generator: sketchtool 49.1 (51147) - http://www.bohemiancoding.com/sketch -->
    <title>music-note</title>
    <desc>Created with sketchtool.</desc>
    <defs></defs>
    <g id="Icons" stroke="none" stroke-width="1" fill="none" fill-rule="evenodd">
        <g id="music-note" fill="#000000" fill-rule="nonzero">
            <path d="M16.5,12 C14.5670034,12 13,13.5670034 13,15.5 C13,17.4329966 14.5670034,19 16.5,19 C18.4329966,19 20,17.4329966 20,15.5 L20,3 L7,3 L7,12.351 C6.53274221,12.1227305 6.02002807,12.0027554 5.5,12 C3.56700338,12 2,13.5670034 2,15.5 C2,17.4329966 3.56700338,19 5.5,19 C7.43299662,19 9,17.4329966 9,15.5 L9,5 L18,5 L18,12.351 C17.5327422,12.1227305 17.0200281,12.0027554 16.5,12 L16.5,12 Z M16.5,17 C15.6715729,17 15,16.3284271 15,15.5 C15,14.6715729 15.6715729,14 16.5,14 C17.3284271,14 18,14.6715729 18,15.5 C18,16.3284271 17.3284271,17 16.5,17 Z M5.5,17 C4.67157288,17 4,16.3284271 4,15.5 C4,14.6715729 4.67157288,14 5.5,14 C6.32842712,14 7,14.6715729 7,15.5 C7,16.3284271 6.32842712,17 5.5,17 Z" id="Shape"></path>
        </g>
    </g>
</svg>