<?xml version="1.0" encoding="UTF-8"?>
<svg width="16px" height="16px" viewBox="0 0 16 16" version="1.1" xmlns="http://www.w3.org/2000/svg" xmlns:xlink="http://www.w3.org/1999/xlink">
    <!-- Generator: sketchtool 49.1 (51147) - http://www.bohemiancoding.com/sketch -->
    <title>phone-16</title>
    <desc>Created with sketchtool.</desc>
    <defs></defs>
    <g id="Icons" stroke="none" stroke-width="1" fill="none" fill-rule="evenodd">
        <g id="phone-16" fill="#000000" fill-rule="nonzero">
            <path d="M11.5,15.41 C12.4013333,15.41 13.2653333,15.05 13.9,14.41 C14.13,14.18 14.63,13.61 15.02,13.11 C15.3621315,12.6728679 15.4959866,12.1079769 15.3863826,11.5638028 C15.2767786,11.0196287 14.9346786,10.5506014 14.45,10.28 L11.85,8.83 C11.0931763,8.40878403 10.1472709,8.55272616 9.55,9.18 L8.63,10.18 L8.5,10.3 C8.25207808,10.1067213 8.02426087,9.88895486 7.82,9.65 L7.37,9.14 L6.89,8.68 L6.23,8.05 C6.26305843,7.98908125 6.30713855,7.9348288 6.36,7.89 L7.36,6.97 C7.99390269,6.36715031 8.13426391,5.40939135 7.7,4.65 L6.18,2.06 C5.90411329,1.58009555 5.4326541,1.24437007 4.88891056,1.14061689 C4.34516702,1.0368637 3.78321252,1.1754007 3.35,1.52 C2.86,1.91 2.35,2.39 2.1,2.61 C1.46522542,3.24408613 1.10593114,4.10279946 1.1,5 C1.09469056,7.75560088 2.18425941,10.4004481 4.12901276,12.3527029 C6.07376611,14.3049578 8.7143991,15.4047008 11.47,15.41 L11.47,15.41 L11.5,15.41 Z M2.9,5.07 L2.9,5.07 C2.87899832,4.62138114 3.04990534,4.18502279 3.37,3.87 C3.53,3.71 4.01,3.28 4.47,2.87 L3.91,2.22 L4.62,3 L6.1,5.54 C6.12666667,5.57555556 6.12666667,5.62444444 6.1,5.66 L5.1,6.6 C4.69731558,6.95745038 4.4557713,7.46216977 4.43,8 C4.54327872,8.8089783 4.98913027,9.53394017 5.66,10 L6.1,10.41 L6.51,10.84 C6.97605983,11.5108697 7.7010217,11.9567213 8.51,12.07 C9.06554196,12.049318 9.58886303,11.8038985 9.96,11.39 L10.89,10.39 C10.9255556,10.3633333 10.9744444,10.3633333 11.01,10.39 L13.61,11.84 L13.61,11.99 C13.25,12.46 12.8,12.99 12.61,13.12 C12.3031348,13.4214144 11.8901359,13.5902053 11.46,13.59 C6.75477701,13.5737232 2.93831499,9.77509514 2.9,5.07 L2.9,5.07 Z" id="Shape"></path>
        </g>
    </g>
</svg>