<?xml version="1.0" encoding="UTF-8"?>
<svg width="16px" height="16px" viewBox="0 0 16 16" version="1.1" xmlns="http://www.w3.org/2000/svg" xmlns:xlink="http://www.w3.org/1999/xlink">
    <!-- Generator: sketchtool 44.1 (41455) - http://www.bohemiancoding.com/sketch -->
    <title>quote-16</title>
    <desc>Created with sketchtool.</desc>
    <defs></defs>
    <g id="Symbols" stroke="none" stroke-width="1" fill="none" fill-rule="evenodd">
        <g id="quote-16" fill-rule="nonzero" fill="#222221">
            <path d="M10.2447732,11.7803484 C10.705914,12.2353073 11.3313672,12.5 12,12.5 C13.3807119,12.5 14.5,11.3807119 14.5,10 C14.5,8.61928813 13.3807119,7.5 12,7.5 C11.4532113,7.5 10.9474221,7.67553947 10.5359128,7.97333795 C10.5233142,6.82825908 10.8645462,5.53219966 11.6810325,4.57963223 C12.0045125,4.20223897 11.9608071,3.63406898 11.5834138,3.31058905 C11.2060206,2.98710911 10.6378506,3.03081449 10.3143707,3.40820775 C8.16292557,5.91822703 8.29184014,10.1962653 10.2447732,11.7803484 L10.2447732,11.7803484 Z M5,12.5 C6.38071187,12.5 7.5,11.3807119 7.5,10 C7.5,8.61928813 6.38071187,7.5 5,7.5 C4.45321133,7.5 3.94742211,7.67553947 3.53591278,7.97333795 C3.52331422,6.82825908 3.86454617,5.53219966 4.68103255,4.57963223 C5.00451249,4.20223897 4.9608071,3.63406898 4.58341384,3.31058905 C4.20602059,2.98710911 3.6378506,3.03081449 3.31437067,3.40820775 C1.16292557,5.91822703 1.29184014,10.1962653 3.24477316,11.7803484 C3.70591396,12.2353073 4.33136723,12.5 5,12.5 Z" id="Combined-Shape"></path>
        </g>
    </g>
</svg>