<?xml version="1.0" encoding="UTF-8"?>
<svg width="24px" height="24px" viewBox="0 0 24 24" version="1.1" xmlns="http://www.w3.org/2000/svg" xmlns:xlink="http://www.w3.org/1999/xlink">
    <!-- Generator: sketchtool 44.1 (41455) - http://www.bohemiancoding.com/sketch -->
    <title>quote</title>
    <desc>Created with sketchtool.</desc>
    <defs></defs>
    <g id="Symbols" stroke="none" stroke-width="1" fill="none" fill-rule="evenodd">
        <g id="quote" fill-rule="nonzero" fill="#222221">
            <path d="M6.48584158,16.9142341 C6.99377005,17.2917073 7.61644863,17.5049813 8.27401124,17.5049813 C9.93086549,17.5049813 11.2740112,16.1618355 11.2740112,14.5049813 C11.2740112,12.848127 9.93086549,11.5049813 8.27401124,11.5049813 C7.38556094,11.5049813 6.58731425,11.8911889 6.03799656,12.5048787 C5.84349393,10.9600297 6.28444782,9.10558239 7.53139601,7.6508095 C7.89081816,7.23148366 7.84225662,6.60018368 7.42293078,6.24076153 C7.00360494,5.88133938 6.37230495,5.92990091 6.0128828,6.34922676 C3.06550083,9.78783905 3.46686005,15.1063979 6.48584158,16.9142341 Z" id="Combined-Shape"></path>
            <path d="M15.4858416,16.9142341 C15.9937701,17.2917073 16.6164486,17.5049813 17.2740112,17.5049813 C18.9308655,17.5049813 20.2740112,16.1618355 20.2740112,14.5049813 C20.2740112,12.848127 18.9308655,11.5049813 17.2740112,11.5049813 C16.3855609,11.5049813 15.5873142,11.8911889 15.0379966,12.5048787 C14.8434939,10.9600297 15.2844478,9.10558239 16.531396,7.6508095 C16.8908182,7.23148366 16.8422566,6.60018368 16.4229308,6.24076153 C16.0036049,5.88133938 15.372305,5.92990091 15.0128828,6.34922676 C12.0655008,9.78783905 12.46686,15.1063979 15.4858416,16.9142341 Z" id="Combined-Shape"></path>
        </g>
    </g>
</svg>