<?xml version="1.0" encoding="UTF-8"?>
<svg width="16px" height="16px" viewBox="0 0 16 16" version="1.1" xmlns="http://www.w3.org/2000/svg" xmlns:xlink="http://www.w3.org/1999/xlink">
    <!-- Generator: sketchtool 49.1 (51147) - http://www.bohemiancoding.com/sketch -->
    <title>school-zone-16</title>
    <desc>Created with sketchtool.</desc>
    <defs></defs>
    <g id="Icons" stroke="none" stroke-width="1" fill="none" fill-rule="evenodd">
        <g id="school-zone-16" fill="#000000" fill-rule="nonzero">
            <path d="M14.1,6 L12,6 L12,2.22 L8,1.06 L4,2.22 L4,6 L1.9,6 C0.850658975,6 1.28507213e-16,6.85065898 0,7.9 L0,15 L16,15 L16,7.9 C16,6.85065898 15.149341,6 14.1,6 L14.1,6 Z M1.8,13.2 L1.8,7.9 C1.8,7.84477153 1.84477153,7.8 1.9,7.8 L4,7.8 L4,13.2 L1.8,13.2 Z M8.9,13.2 L8.9,9.63 C8.90000001,9.30846096 8.72846098,9.01134664 8.45000001,8.85057711 C8.17153903,8.68980759 7.82846097,8.68980759 7.54999999,8.85057711 C7.27153902,9.01134664 7.09999999,9.30846096 7.1,9.63 L7.1,13.2 L5.8,13.2 L5.8,3.58 L8,2.94 L10.2,3.58 L10.2,13.2 L8.9,13.2 Z M14.2,13.2 L12,13.2 L12,7.79 L14.1,7.79 C14.1552285,7.79 14.2,7.83477153 14.2,7.89 L14.2,13.19 L14.2,13.2 Z" id="Shape"></path>
            <circle id="Oval" cx="8" cy="6" r="1"></circle>
        </g>
    </g>
</svg>