<?xml version="1.0" encoding="UTF-8"?>
<svg width="24px" height="24px" viewBox="0 0 24 24" version="1.1" xmlns="http://www.w3.org/2000/svg" xmlns:xlink="http://www.w3.org/1999/xlink">
    <!-- Generator: sketchtool 49.1 (51147) - http://www.bohemiancoding.com/sketch -->
    <title>school-zone</title>
    <desc>Created with sketchtool.</desc>
    <defs></defs>
    <g id="Icons" stroke="none" stroke-width="1" fill="none" fill-rule="evenodd">
        <g id="school-zone" fill="#000000" fill-rule="nonzero">
            <path d="M20,8.97 L18,8.97 L18,3.281 L12,1 L6,3.281 L6,8.97 L4,8.97 C2.34314575,8.97 1,10.3131458 1,11.97 L1,22.97 L23,22.97 L23,11.97 C23,10.3131458 21.6568542,8.97 20,8.97 Z M3,20.97 L3,11.97 C3,11.4177153 3.44771525,10.97 4,10.97 L6,10.97 L6,20.97 L3,20.97 Z M13,20.97 L11,20.97 L11,15.97 C11,15.4177153 11.4477153,14.97 12,14.97 C12.5522847,14.97 13,15.4177153 13,15.97 L13,20.97 Z M15,20.97 L15,15.97 C15,14.3131458 13.6568542,12.97 12,12.97 C10.3431458,12.97 9,14.3131458 9,15.97 L9,20.97 L8,20.97 L8,4.659 L12,3.138 L16,4.659 L16,20.97 L15,20.97 Z M21,20.97 L18,20.97 L18,10.97 L20,10.97 C20.5522847,10.97 21,11.4177153 21,11.97 L21,20.97 Z" id="Shape"></path>
            <circle id="Oval" cx="12" cy="9" r="1.95"></circle>
        </g>
    </g>
</svg>