<?xml version="1.0" encoding="UTF-8"?>
<svg width="16px" height="16px" viewBox="0 0 16 16" version="1.1" xmlns="http://www.w3.org/2000/svg" xmlns:xlink="http://www.w3.org/1999/xlink">
    <!-- Generator: sketchtool 49.1 (51147) - http://www.bohemiancoding.com/sketch -->
    <title>scissors-16</title>
    <desc>Created with sketchtool.</desc>
    <defs></defs>
    <g id="Icons" stroke="none" stroke-width="1" fill="none" fill-rule="evenodd">
        <g id="scissors-16" fill="#000000" fill-rule="nonzero">
            <path d="M14.84,4.67 C14.6548541,4.2089699 14.1311557,3.98516717 13.67,4.17 L6.63,7 L6.24,6.82 C6.66415093,6.30808421 6.89743087,5.6647971 6.9,5 C6.90268761,3.47715168 5.72702741,2.21163452 4.20810251,2.1023579 C2.68917761,1.99308129 1.34447126,3.07727473 1.12914172,4.58482487 C0.913812175,6.09237501 1.90122017,7.50967386 3.39,7.83 L3.94,8.05 L3.77,8.12 C2.42326609,8.21215488 1.31671579,9.21836592 1.09734538,10.5503049 C0.877974974,11.8822438 1.60338531,13.1901789 2.84943137,13.7093647 C4.09547743,14.2285506 5.53498059,13.8226628 6.32626814,12.7290227 C7.11755569,11.6353825 7.05285651,10.1411509 6.17,9.12 L6.45,9 L6.5,9 C6.77716506,8.99910838 7.04152822,8.88322316 7.23,8.68 L14.34,5.84 C14.8010301,5.65485409 15.0248328,5.13115571 14.84,4.67 Z M4,3.9 C4.60751322,3.9 5.1,4.39248678 5.1,5 C5.07657897,5.47415883 4.74895949,5.87862732 4.29,6 L3.87,5.87 C3.68714286,5.81666667 3.49285714,5.81666667 3.31,5.87 C3.04462303,5.660215 2.89287206,5.33820685 2.9,5 C2.9,4.39248678 3.39248678,3.9 4,3.9 L4,3.9 Z M5.1,11 C5.1,11.6075132 4.60751322,12.1 4,12.1 C3.39248678,12.1 2.9,11.6075132 2.9,11 C2.90466767,10.627252 3.10123297,10.2832627 3.42,10.09 L3.5,10.09 C3.61474189,10.0813712 3.7267647,10.0508196 3.83,10 L4.11,9.89 C4.68039179,9.94240436 5.11291223,10.4273515 5.1,11 Z" id="Shape"></path>
            <path d="M14.33,10.16 L11.33,8.96 C10.8725835,8.79018485 10.3631589,9.01578239 10.1814821,9.46861856 C9.99980529,9.92145473 10.2120517,10.436585 10.66,10.63 L13.66,11.83 C14.1174165,11.9998152 14.6268411,11.7742176 14.8085179,11.3213814 C14.9901947,10.8685453 14.7779483,10.353415 14.33,10.16 Z" id="Shape"></path>
        </g>
    </g>
</svg>