<?xml version="1.0" encoding="UTF-8"?>
<svg width="24px" height="24px" viewBox="0 0 24 24" version="1.1" xmlns="http://www.w3.org/2000/svg" xmlns:xlink="http://www.w3.org/1999/xlink">
    <!-- Generator: sketchtool 44.1 (41455) - http://www.bohemiancoding.com/sketch -->
    <title>search-fill</title>
    <desc>Created with sketchtool.</desc>
    <defs></defs>
    <g id="Symbols" stroke="none" stroke-width="1" fill="none" fill-rule="evenodd">
        <g id="search-fill" fill-rule="nonzero" fill="#000000">
            <path d="M16.749,13.921 C19.0005,10.2368704 18.1413758,5.45107614 14.7490364,2.78010319 C11.356697,0.109130253 6.50292115,0.396848248 3.4498847,3.4498847 C0.396848248,6.50292115 0.109130253,11.356697 2.78010319,14.7490364 C5.45107614,18.1413758 10.2368704,19.0005 13.921,16.749 L20.586,23.414 C21.3707578,24.1719444 22.6181696,24.1611047 23.3896372,23.3896372 C24.1611047,22.6181696 24.1719444,21.3707578 23.414,20.586 L16.749,13.921 Z M3,9.5 C3,5.91014913 5.91014913,3 9.5,3 C13.0898509,3 16,5.91014913 16,9.5 C16,13.0898509 13.0898509,16 9.5,16 C5.91174839,15.996142 3.00385804,13.0882516 3,9.5 L3,9.5 Z" id="Shape"></path>
        </g>
    </g>
</svg>