<?xml version="1.0" encoding="UTF-8"?>
<svg width="16px" height="16px" viewBox="0 0 16 16" version="1.1" xmlns="http://www.w3.org/2000/svg" xmlns:xlink="http://www.w3.org/1999/xlink">
    <!-- Generator: sketchtool 49.1 (51147) - http://www.bohemiancoding.com/sketch -->
    <title>search-cross-16</title>
    <desc>Created with sketchtool.</desc>
    <defs></defs>
    <g id="Icons" stroke="none" stroke-width="1" fill="none" fill-rule="evenodd">
        <g id="search-cross-16" fill="#000000" fill-rule="nonzero">
            <path d="M7,13 C8.2777259,12.997943 9.52143097,12.5880458 10.55,11.83 L14.36,15.64 C14.7165677,15.9521968 15.2541479,15.9343828 15.5892654,15.5992654 C15.9243828,15.2641479 15.9421968,14.7265677 15.63,14.37 L11.82,10.56 C13.4688216,8.32308741 13.3658505,5.24668347 11.5711423,3.12503011 C9.77643408,1.00337675 6.7596871,0.391738104 4.28034971,1.64683836 C1.80101232,2.90193862 0.507959204,5.69530179 1.15533389,8.397763 C1.80270857,11.1002242 4.22108471,13.0045144 7,13 L7,13 Z M7,2.8 C9.31959595,2.8 11.2,4.68040405 11.2,7 C11.2,9.31959595 9.31959595,11.2 7,11.2 C4.68040405,11.2 2.8,9.31959595 2.8,7 C2.8,4.68040405 4.68040405,2.8 7,2.8 L7,2.8 Z" id="Shape"></path>
            <path d="M4.93,9.07 C5.24226199,9.38150664 5.74773801,9.38150664 6.06,9.07 L7,8.13 L7.93,9.07 C8.24480231,9.38480231 8.75519769,9.38480231 9.07,9.07 C9.38480231,8.75519769 9.38480231,8.24480231 9.07,7.93 L8.13,7 L9.06,6.07 C9.37480231,5.75795912 9.37704088,5.24980231 9.065,4.935 C8.75295912,4.62019769 8.24480231,4.61795912 7.93,4.93 L7,5.87 L6.07,4.93 C5.75519769,4.61519769 5.24480231,4.61519769 4.93,4.93 C4.61519769,5.24480231 4.61519769,5.75519769 4.93,6.07 L5.87,7 L4.94,7.93 C4.78598703,8.07902233 4.69820442,8.28360723 4.6963246,8.49790636 C4.69444478,8.71220548 4.77862496,8.91829882 4.93,9.07 Z" id="Shape"></path>
        </g>
    </g>
</svg>