<?xml version="1.0" encoding="UTF-8"?>
<svg width="16px" height="16px" viewBox="0 0 16 16" version="1.1" xmlns="http://www.w3.org/2000/svg" xmlns:xlink="http://www.w3.org/1999/xlink">
    <!-- Generator: sketchtool 44.1 (41455) - http://www.bohemiancoding.com/sketch -->
    <title>search-tick-16</title>
    <desc>Created with sketchtool.</desc>
    <defs></defs>
    <g id="Symbols" stroke="none" stroke-width="1" fill="none" fill-rule="evenodd">
        <g id="search-tick-16" fill-rule="nonzero" fill="#000000">
            <path d="M7,13 C8.2777259,12.997943 9.52143097,12.5880458 10.55,11.83 L14.36,15.64 C14.7165677,15.9521968 15.2541479,15.9343828 15.5892654,15.5992654 C15.9243828,15.2641479 15.9421968,14.7265677 15.63,14.37 L11.82,10.56 C13.4688216,8.32308741 13.3658505,5.24668347 11.5711423,3.12503011 C9.77643408,1.00337675 6.7596871,0.391738104 4.28034971,1.64683836 C1.80101232,2.90193862 0.507959204,5.69530179 1.15533389,8.397763 C1.80270857,11.1002242 4.22108471,13.0045144 7,13 L7,13 Z M7,2.8 C9.31959595,2.8 11.2,4.68040405 11.2,7 C11.2,9.31959595 9.31959595,11.2 7,11.2 C4.68040405,11.2 2.8,9.31959595 2.8,7 C2.8,4.68040405 4.68040405,2.8 7,2.8 L7,2.8 Z" id="Shape"></path>
            <path d="M6.5,9.77 L9.64,6.64 C9.86864998,6.41135002 9.95794796,6.07808542 9.87425626,5.76574374 C9.79056456,5.45340206 9.54659794,5.20943544 9.23425626,5.12574374 C8.92191458,5.04205204 8.58864998,5.13135002 8.36,5.36 L6.5,7.23 L5.64,6.36 C5.28653776,6.00653778 4.71346225,6.00653779 4.36000002,6.36000002 C4.00653779,6.71346225 4.00653778,7.28653776 4.36,7.64 L6.5,9.77 Z" id="Shape"></path>
        </g>
    </g>
</svg>