<?xml version="1.0" encoding="UTF-8"?>
<svg width="24px" height="24px" viewBox="0 0 24 24" version="1.1" xmlns="http://www.w3.org/2000/svg" xmlns:xlink="http://www.w3.org/1999/xlink">
    <!-- Generator: sketchtool 49.1 (51147) - http://www.bohemiancoding.com/sketch -->
    <title>search-tick</title>
    <desc>Created with sketchtool.</desc>
    <defs></defs>
    <g id="Icons" stroke="none" stroke-width="1" fill="none" fill-rule="evenodd">
        <g id="search-tick" fill="#000000" fill-rule="nonzero">
            <path d="M9.5,18 C5.67355566,17.999244 2.31930088,15.4418111 1.30546365,11.7521213 C0.291626423,8.06243151 1.86815746,4.15013831 5.15697218,2.19428183 C8.4457869,0.238425344 12.6360632,0.721201051 15.3939321,3.37371611 C18.151801,6.02623117 18.7973393,10.1945364 16.971,13.557 L22.707,19.293 C23.2085984,19.7394901 23.5059572,20.3715632 23.5301272,21.0426595 C23.5542972,21.7137557 23.3031791,22.3655826 22.835,22.847 C22.3890653,23.2879802 21.7871533,23.5352133 21.16,23.535 C20.4513349,23.5226856 19.7778424,23.2239969 19.293,22.707 L13.557,16.971 C12.3121674,17.6483096 10.9171633,18.0021324 9.5,18 Z M21.293,20.707 L15.793,15.206 C15.607,15.4106667 15.4116667,15.606 15.207,15.792 L20.707,21.292 C20.98,21.564 21.239,21.613 21.421,21.432 C21.4930345,21.3618139 21.5337654,21.2655734 21.534,21.165 C21.5137701,20.9875665 21.4277831,20.8241555 21.293,20.707 Z M13.707,8.083 L8,13.791 L4.793,10.583 C4.41402779,10.1906211 4.41944763,9.56691522 4.80518142,9.18118142 C5.19091522,8.79544763 5.81462111,8.79002779 6.207,9.169 L8,10.962 L12.293,6.669 C12.5440745,6.40904342 12.9158779,6.3047874 13.2655073,6.39630284 C13.6151368,6.48781828 13.8881817,6.76086324 13.9796972,7.11049268 C14.0712126,7.46012211 13.9669566,7.83192553 13.707,8.083 Z M9.5,3 C5.91174839,3.00385804 3.00385804,5.91174839 3,9.5 C3,13.0898509 5.91014913,16 9.5,16 C13.0898509,16 16,13.0898509 16,9.5 C16,5.91014913 13.0898509,3 9.5,3 Z" id="Combined-Shape"></path>
        </g>
    </g>
</svg>