<?xml version="1.0" encoding="UTF-8"?>
<svg width="24px" height="24px" viewBox="0 0 24 24" version="1.1" xmlns="http://www.w3.org/2000/svg" xmlns:xlink="http://www.w3.org/1999/xlink">
    <!-- Generator: sketchtool 44.1 (41455) - http://www.bohemiancoding.com/sketch -->
    <title>settings</title>
    <desc>Created with sketchtool.</desc>
    <defs></defs>
    <g id="Symbols" stroke="none" stroke-width="1" fill="none" fill-rule="evenodd">
        <g id="settings" fill-rule="nonzero" fill="#000000">
            <path d="M12,8 C9.790861,8 8,9.790861 8,12 C8,14.209139 9.790861,16 12,16 C14.209139,16 16,14.209139 16,12 C16,10.939134 15.5785726,9.92171839 14.8284271,9.17157288 C14.0782816,8.42142736 13.060866,8 12,8 Z M21.864,9.936 C22.5315951,10.1029946 22.9999245,10.7028354 23,11.391 L23,12.609 C23.0000394,13.2968736 22.532198,13.8966174 21.865,14.064 L19.545,14.644 C19.4474515,14.9234685 19.334273,15.1972335 19.206,15.464 L20.436,17.514 C20.7898067,18.1042138 20.696637,18.8594654 20.21,19.346 L19.348,20.208 C18.8613056,20.6951411 18.1054443,20.7883351 17.515,20.434 L15.466,19.205 C15.1991062,19.3329877 14.9253572,19.4461596 14.646,19.544 L14.066,21.863 C13.8993035,22.531354 13.2988285,23.0002689 12.61,23 L11.391,23 C10.7024627,23.0003834 10.102085,22.5319569 9.935,21.864 L9.355,19.545 C9.07577029,19.4468257 8.80203932,19.3336613 8.535,19.206 L6.485,20.435 C5.89478621,20.7888067 5.13953459,20.695637 4.653,20.209 L3.791,19.347 C3.30418654,18.8600596 3.21140786,18.1042226 3.566,17.514 L4.795,15.465 C4.66658713,15.198296 4.55340536,14.924523 4.456,14.645 L2.136,14.065 C1.46840486,13.8980054 1.00007551,13.2981646 1,12.61 L1,11.391 C1.00018685,10.7010044 1.47105739,10.1001389 2.141,9.935 L4.461,9.355 C4.55840536,9.07547704 4.67158713,8.80170401 4.8,8.535 L3.565,6.485 C3.21119328,5.89478621 3.30436297,5.13953459 3.791,4.653 L4.652,3.791 C5.13768808,3.30180233 5.89503231,3.20842547 6.485,3.565 L8.535,4.795 C8.80199557,4.66724044 9.07573191,4.55407383 9.355,4.456 L9.935,2.137 C10.1016965,1.46864596 10.7021715,0.999731082 11.391,1 L12.609,1 C13.2978285,0.999731082 13.8983035,1.46864596 14.065,2.137 L14.645,4.456 C14.9244009,4.55372577 15.1981562,4.6669002 15.465,4.795 L17.515,3.566 C18.1046585,3.20958214 18.8616387,3.30296507 19.347,3.792 L20.209,4.653 C20.6957892,5.13888288 20.789765,5.89357406 20.437,6.484 L19.206,8.536 C19.333704,8.80289026 19.4465432,9.07664199 19.544,9.356 L21.864,9.936 Z M12,14 C10.8954305,14 10,13.1045695 10,12 C10,10.8954305 10.8954305,10 12,10 C13.1045695,10 14,10.8954305 14,12 C14,13.1045695 13.1045695,14 12,14 Z M21,12.219 L21,11.781 L18.785,11.223 C18.2778532,11.0968174 17.8744629,10.7131789 17.723,10.213 C17.6151422,9.86782071 17.4762415,9.53312005 17.308,9.213 C17.0613371,8.75225995 17.0753935,8.19570116 17.345,7.748 L18.517,5.792 L18.206,5.482 L16.248,6.656 C15.8004707,6.92649083 15.2432749,6.94018301 14.783,6.692 C14.4628703,6.52431524 14.1281596,6.38607972 13.783,6.279 C13.2836164,6.12684253 12.9003925,5.72426774 12.773,5.218 L12.219,3 L11.781,3 L11.223,5.216 C11.0957355,5.722552 10.7125305,6.12548632 10.213,6.278 C9.86770177,6.38511267 9.5329642,6.52369402 9.213,6.692 C8.75163285,6.93793339 8.19500654,6.92350515 7.747,6.654 L5.791,5.481 L5.481,5.791 L6.655,7.751 C6.92401136,8.19887446 6.93805981,8.75511692 6.692,9.216 C6.52400707,9.53611087 6.38543777,9.8708193 6.278,10.216 C6.12642594,10.7168808 5.72272236,11.1012157 5.215,11.228 L3,11.782 L3,12.219 L5.215,12.777 C5.7221468,12.9031826 6.12553706,13.2868211 6.277,13.787 C6.38485776,14.1321793 6.52375853,14.4668799 6.692,14.787 C6.93778604,15.247494 6.92412254,15.8031431 6.656,16.251 L5.481,18.209 L5.791,18.519 L7.752,17.344 C8.19952934,17.0735092 8.7567251,17.059817 9.217,17.308 C9.53726631,17.4753922 9.87195004,17.6136166 10.217,17.721 C10.7163836,17.8731575 11.0996075,18.2757323 11.227,18.782 L11.781,21 L12.219,21 L12.777,18.784 C12.903957,18.277065 13.2872148,17.8736956 13.787,17.721 C14.1324671,17.6143554 14.4672472,17.4757565 14.787,17.307 C15.2475476,17.0595282 15.8045318,17.0735954 16.252,17.344 L18.209,18.518 L18.519,18.208 L17.345,16.251 C17.0759886,15.8031255 17.0619402,15.2468831 17.308,14.786 C17.475943,14.4658658 17.6145104,14.131162 17.722,13.786 C17.8732751,13.2847335 18.277032,12.8999679 18.785,12.773 L21,12.219 Z" id="Combined-Shape"></path>
        </g>
    </g>
</svg>