<?xml version="1.0" encoding="UTF-8"?>
<svg width="24px" height="24px" viewBox="0 0 24 24" version="1.1" xmlns="http://www.w3.org/2000/svg" xmlns:xlink="http://www.w3.org/1999/xlink">
    <!-- Generator: sketchtool 49.1 (51147) - http://www.bohemiancoding.com/sketch -->
    <title>shield</title>
    <desc>Created with sketchtool.</desc>
    <defs></defs>
    <g id="Icons" stroke="none" stroke-width="1" fill="none" fill-rule="evenodd">
        <g id="shield" fill="#000000" fill-rule="nonzero">
            <path d="M11.741,21.966 C11.8255041,21.9884639 11.9125611,21.9998922 12,22 C12.078831,21.9999225 12.1573763,21.9905239 12.234,21.972 C12.593,21.886 21,19.781 21,13 L21,6 C21.0004168,5.58313222 20.7421885,5.20973732 20.352,5.063 L12.352,2.063 C12.1260798,1.97982009 11.8779202,1.97982009 11.652,2.063 L3.652,5.063 C3.26023627,5.20842349 3.00020668,5.58211632 3,6 L3,13 C3,19.546 11.384,21.87 11.741,21.966 Z M5,10.846 L11,8.471 L11,10.32 L5,12.695 L5,10.846 Z M11,19.596 C9.82740877,19.1374421 8.72130062,18.5243576 7.711,17.773 L11,16.471 L11,19.596 Z M11,12.472 L11,14.32 L6.153,16.239 C5.79680061,15.7794731 5.51286135,15.2682476 5.311,14.723 L11,12.472 Z M19,13 C19,16.86 15.065,18.846 13,19.625 L13,4.443 L19,6.693 L19,13 Z M11,4.443 L11,6.32 L5,8.695 L5,6.695 L11,4.443 Z" id="Shape"></path>
        </g>
    </g>
</svg>