<?xml version="1.0" encoding="UTF-8"?>
<svg width="24px" height="24px" viewBox="0 0 24 24" version="1.1" xmlns="http://www.w3.org/2000/svg" xmlns:xlink="http://www.w3.org/1999/xlink">
    <!-- Generator: sketchtool 44.1 (41455) - http://www.bohemiancoding.com/sketch -->
    <title>shopping-bag</title>
    <desc>Created with sketchtool.</desc>
    <defs></defs>
    <g id="Symbols" stroke="none" stroke-width="1" fill="none" fill-rule="evenodd">
        <g id="shopping-bag" fill-rule="nonzero" fill="#000000">
            <path d="M7.063,22 L17,22 C19.209139,22 21,20.209139 21,18 L21,5 L16.9,5 C16.4268075,2.66967602 14.3778816,0.994987437 12,0.994987437 C9.62211839,0.994987437 7.57319247,2.66967602 7.1,5 L3.063,5 L3.063,18 C3.063,20.209139 4.853861,22 7.063,22 Z M12,3 C13.2667854,3.00525139 14.3937454,3.80564913 14.816,5 L9.184,5 C9.60625455,3.80564913 10.7332146,3.00525139 12,3 Z M5.063,7 L7,7 L7,11 C7,11.5522847 7.44771525,12 8,12 C8.55228475,12 9,11.5522847 9,11 L9,7 L15,7 L15,11 C15,11.5522847 15.4477153,12 16,12 C16.5522847,12 17,11.5522847 17,11 L17,7 L19,7 L19,18 C19,19.1045695 18.1045695,20 17,20 L7.063,20 C5.9584305,20 5.063,19.1045695 5.063,18 L5.063,7 Z" id="Shape"></path>
        </g>
    </g>
</svg>