<?xml version="1.0" encoding="UTF-8"?>
<svg width="24px" height="24px" viewBox="0 0 24 24" version="1.1" xmlns="http://www.w3.org/2000/svg" xmlns:xlink="http://www.w3.org/1999/xlink">
    <!-- Generator: sketchtool 49.1 (51147) - http://www.bohemiancoding.com/sketch -->
    <title>shopping-bag-multi</title>
    <desc>Created with sketchtool.</desc>
    <defs></defs>
    <g id="Icons" stroke="none" stroke-width="1" fill="none" fill-rule="evenodd">
        <g id="shopping-bag-multi" fill="#000000" fill-rule="nonzero">
            <path d="M10,19 L17,19 C19.209139,19 21,17.209139 21,15 L21,5.1 L17.96,5.1 C17.7664729,2.78085939 15.8277013,0.997135392 13.5005,0.997135392 C11.1732987,0.997135392 9.23452714,2.78085939 9.041,5.1 L6,5.1 L6,15 C6,17.209139 7.790861,19 10,19 Z M13.5,3 C14.7233637,3.00381422 15.7642668,3.89239003 15.96,5.1 L11.04,5.1 C11.2357332,3.89239003 12.2766363,3.00381422 13.5,3 L13.5,3 Z M8,7.1 L9,7.1 L9,10 C9,10.5522847 9.44771525,11 10,11 C10.5522847,11 11,10.5522847 11,10 L11,7.1 L16,7.1 L16,10 C16,10.5522847 16.4477153,11 17,11 C17.5522847,11 18,10.5522847 18,10 L18,7.1 L19,7.1 L19,15 C19,16.1045695 18.1045695,17 17,17 L10,17 C8.8954305,17 8,16.1045695 8,15 L8,7.1 Z M7,22 C4.790861,22 3,20.209139 3,18 L3,9.1 C3,8.54771525 3.44771525,8.1 4,8.1 C4.55228475,8.1 5,8.54771525 5,9.1 L5,18 C5,19.1045695 5.8954305,20 7,20 L15,20 C15.5522847,20 16,20.4477153 16,21 C16,21.5522847 15.5522847,22 15,22 L7,22 Z" id="Combined-Shape"></path>
        </g>
    </g>
</svg>