<?xml version="1.0" encoding="UTF-8"?>
<svg width="16px" height="16px" viewBox="0 0 16 16" version="1.1" xmlns="http://www.w3.org/2000/svg" xmlns:xlink="http://www.w3.org/1999/xlink">
    <!-- Generator: sketchtool 49.1 (51147) - http://www.bohemiancoding.com/sketch -->
    <title>shop-cash-register-16</title>
    <desc>Created with sketchtool.</desc>
    <defs></defs>
    <g id="Icons" stroke="none" stroke-width="1" fill="none" fill-rule="evenodd">
        <g id="shop-cash-register-16" fill="#000000" fill-rule="nonzero">
            <path d="M15,7.9 C15,6.86565569 14.5891083,5.87367543 13.8577164,5.14228355 C13.1263246,4.41089168 12.1343443,4 11.1,4 L9,4 L9,2.9 C9,1.85065898 8.14934102,1 7.1,1 L3.9,1 C2.85065898,1 2,1.85065898 2,2.9 L2,5.2 C1.9983917,5.22997844 1.9983917,5.26002156 2,5.29 C1.35316768,6.00504827 0.996556348,6.93580385 1,7.9 L1,10 L0,10 L0,15 L16,15 L16,10 L15,10 L15,7.9 Z M3.9,2.8 L7.1,2.8 C7.15522847,2.8 7.2,2.84477153 7.2,2.9 L7.2,4 L4.9,4 C4.52654316,4.00632372 4.15599402,4.06695903 3.8,4.18 L3.8,2.9 C3.8,2.84477153 3.84477153,2.8 3.9,2.8 L3.9,2.8 Z M2.8,7.9 C2.8,6.74020203 3.74020203,5.8 4.9,5.8 L11.1,5.8 C12.259798,5.8 13.2,6.74020203 13.2,7.9 L13.2,10 L2.8,10 L2.8,7.9 Z M1.8,11.8 L7.1,11.8 L7.1,13.2 L1.8,13.2 L1.8,11.8 L1.8,11.8 Z M14.2,13.2 L8.9,13.2 L8.9,11.8 L14.2,11.8 L14.2,13.2 Z" id="Shape"></path>
            <path d="M11,7 L5,7 C4.44771525,7 4,7.44771525 4,8 C4,8.55228475 4.44771525,9 5,9 L11,9 C11.5522847,9 12,8.55228475 12,8 C12,7.44771525 11.5522847,7 11,7 Z" id="Shape"></path>
        </g>
    </g>
</svg>