<?xml version="1.0" encoding="UTF-8"?>
<svg width="16px" height="16px" viewBox="0 0 16 16" version="1.1" xmlns="http://www.w3.org/2000/svg" xmlns:xlink="http://www.w3.org/1999/xlink">
    <!-- Generator: sketchtool 49.1 (51147) - http://www.bohemiancoding.com/sketch -->
    <title>shop-16</title>
    <desc>Created with sketchtool.</desc>
    <defs></defs>
    <g id="Icons" stroke="none" stroke-width="1" fill="none" fill-rule="evenodd">
        <g id="shop-16" fill="#000000" fill-rule="nonzero">
            <path d="M2,9.56 L2,15 L14,15 L14,9.56 C14.6302628,9.01868096 14.9950214,8.23080244 15,7.4 L15,2.9 C15,2.40294373 14.5970563,2 14.1,2 L1.9,2 C1.40294373,2 1,2.40294373 1,2.9 L1,7.4 C1.00497864,8.23080244 1.36973721,9.01868096 2,9.56 L2,9.56 Z M3.8,10.28 L3.93,10.28 C4.67523396,10.2732505 5.39009402,9.98373217 5.93,9.47 C6.27794479,9.79638851 6.70008999,10.0332017 7.16,10.16 L7.16,13.16 L3.8,13.16 L3.8,10.29 L3.8,10.28 Z M2.8,7 L5.07,7 L5.07,7.4 C5.06999999,8.02684318 4.56184318,8.53499998 3.935,8.53499998 C3.30815682,8.53499998 2.80000001,8.02684318 2.8,7.4 L2.8,7 Z M12.07,8.5 C11.4552811,8.50558636 10.9509522,8.01464667 10.94,7.4 L10.94,7 L13.2,7 L13.2,7.4 C13.1890478,8.01464667 12.6847189,8.50558636 12.07,8.5 Z M9.13,7.4 C9.12999998,8.02684318 8.62184318,8.53499997 7.995,8.53499997 C7.36815682,8.53499997 6.86000002,8.02684318 6.86,7.4 L6.86,7 L9.13,7 L9.13,7.4 Z M12.2,13.2 L9,13.2 L9,10.12 C9.37254275,9.97985732 9.71274944,9.76552711 10,9.49 C10.539906,10.0037322 11.254766,10.2932505 12,10.3 L12.2,10.3 L12.2,13.2 L12.2,13.2 Z M13.2,3.8 L13.2,5.2 L2.8,5.2 L2.8,3.8 L13.2,3.8 L13.2,3.8 Z" id="Shape"></path>
            <circle id="Oval" cx="5.5" cy="11.5" r="1"></circle>
        </g>
    </g>
</svg>