<?xml version="1.0" encoding="UTF-8"?>
<svg width="24px" height="24px" viewBox="0 0 24 24" version="1.1" xmlns="http://www.w3.org/2000/svg" xmlns:xlink="http://www.w3.org/1999/xlink">
    <!-- Generator: sketchtool 49.1 (51147) - http://www.bohemiancoding.com/sketch -->
    <title>shop-wallet</title>
    <desc>Created with sketchtool.</desc>
    <defs></defs>
    <g id="Icons" stroke="none" stroke-width="1" fill="none" fill-rule="evenodd">
        <g id="shop-wallet" fill="#000000" fill-rule="nonzero">
            <path d="M7,4 C6.3,4 4,4.072 4,5 C4,5.928 6.3,6 7,6 L19,6 C20.6568542,6 22,7.34314575 22,9 L22,18 C22,19.6568542 20.6568542,21 19,21 L7,21 C2.487,21 2,18.2 2,17 L2,4.7 C2.00274238,4.55635861 2.03687348,4.41505585 2.1,4.286 C2.389,3.224 3.488,2 7,2 L20,2 C20.5522847,2 21,2.44771525 21,3 C21,3.55228475 20.5522847,4 20,4 L7,4 Z M15.5,15.5 C14.3954305,15.5 13.5,14.6045695 13.5,13.5 C13.5,12.3954305 14.3954305,11.5 15.5,11.5 C16.6045695,11.5 17.5,12.3954305 17.5,13.5 C17.5,14.6045695 16.6045695,15.5 15.5,15.5 Z M7,8 C5.9818294,8.030872 4.96621367,7.88157649 4,7.559 L4,17 C4,17.547 4,19 7,19 L19,19 C19.5522847,19 20,18.5522847 20,18 L20,9 C20,8.44771525 19.5522847,8 19,8 L7,8 Z" id="Combined-Shape"></path>
        </g>
    </g>
</svg>