<?xml version="1.0" encoding="UTF-8"?>
<svg width="16px" height="16px" viewBox="0 0 16 16" version="1.1" xmlns="http://www.w3.org/2000/svg" xmlns:xlink="http://www.w3.org/1999/xlink">
    <!-- Generator: sketchtool 44.1 (41455) - http://www.bohemiancoding.com/sketch -->
    <title>social-share-ios-16</title>
    <desc>Created with sketchtool.</desc>
    <defs></defs>
    <g id="Symbols" stroke="none" stroke-width="1" fill="none" fill-rule="evenodd">
        <g id="social-share-ios-16" fill-rule="nonzero" fill="#000000">
            <path d="M8.9,3.12777652 L8.9,8 C8.9,8.49705627 8.49705627,8.9 8,8.9 C7.50294373,8.9 7.1,8.49705627 7.1,8 L7.1,3.12777673 L5.94873979,4.01336153 C5.55476107,4.3164221 4.98969908,4.24271837 4.68663851,3.84873965 C4.38357795,3.45476093 4.45728168,2.88969894 4.8512604,2.58663837 L7.99999995,0.164530935 L11.14874,2.58663832 C11.5427188,2.88969885 11.6164225,3.45476084 11.313362,3.84873959 C11.0103015,4.24271834 10.4452395,4.31642211 10.0512607,4.01336158 L8.9,3.12777652 Z M11.3999996,6.8000001 C10.9029433,6.8000001 10.4999996,6.39705637 10.4999996,5.9000001 C10.4999996,5.40294382 10.9029433,5.0000001 11.3999996,5.0000001 L12.1000004,5.0000001 C13.7016262,5.0000001 15.0000004,6.29837432 15.0000004,7.9000001 L15.0000004,12.1000004 C15.0000004,13.7016262 13.7016262,15.0000004 12.1000004,15.0000004 L3.89999998,15.0000004 C2.2983742,15.0000004 0.999999976,13.7016262 0.999999976,12.1000004 L0.999999976,7.9000001 C0.999999976,6.29837432 2.2983742,5.0000001 3.89999998,5.0000001 L4.69999981,5.0000001 C5.19705608,5.0000001 5.59999981,5.40294382 5.59999981,5.9000001 C5.59999981,6.39705637 5.19705608,6.8000001 4.69999981,6.8000001 L3.89999998,6.8000001 C3.29248675,6.8000001 2.79999998,7.29248687 2.79999998,7.9000001 L2.79999998,12.1000004 C2.79999998,12.7075136 3.29248675,13.2000004 3.89999998,13.2000004 L12.1000004,13.2000004 C12.7075136,13.2000004 13.2000004,12.7075136 13.2000004,12.1000004 L13.2000004,7.9000001 C13.2000004,7.29248687 12.7075136,6.8000001 12.1000004,6.8000001 L11.3999996,6.8000001 Z" id="Combined-Shape"></path>
        </g>
    </g>
</svg>