<?xml version="1.0" encoding="UTF-8"?>
<svg width="24px" height="24px" viewBox="0 0 24 24" version="1.1" xmlns="http://www.w3.org/2000/svg" xmlns:xlink="http://www.w3.org/1999/xlink">
    <!-- Generator: sketchtool 44.1 (41455) - http://www.bohemiancoding.com/sketch -->
    <title>social-linkedin</title>
    <desc>Created with sketchtool.</desc>
    <defs></defs>
    <g id="Symbols" stroke="none" stroke-width="1" fill="none" fill-rule="evenodd">
        <g id="social-linkedin" fill="#000000">
            <path d="M20.5195,1.9999 L3.4765,1.9999 C2.6625,1.9999 1.9995,2.6459 1.9995,3.4409 L1.9995,20.5569 C1.9995,21.3529 2.6625,21.9989 3.4765,21.9989 L20.5195,21.9989 C21.3355,21.9989 21.9995,21.3529 21.9995,20.5569 L21.9995,3.4409 C21.9995,2.6459 21.3355,1.9999 20.5195,1.9999 L20.5195,1.9999 Z M4.9655,19.0419 L7.9315,19.0419 L7.9315,9.4979 L4.9655,9.4979 L4.9655,19.0419 Z M6.4495,8.1929 C5.4985,8.1929 4.7295,7.4229 4.7295,6.4729 C4.7295,5.5239 5.4985,4.7539 6.4495,4.7539 C7.3975,4.7539 8.1675,5.5239 8.1675,6.4729 C8.1675,7.4229 7.3975,8.1929 6.4495,8.1929 L6.4495,8.1929 Z M19.0415,19.0419 L16.0785,19.0419 L16.0785,14.3999 C16.0785,13.2939 16.0575,11.8699 14.5375,11.8699 C12.9935,11.8699 12.7555,13.0759 12.7555,14.3199 L12.7555,19.0419 L9.7925,19.0419 L9.7925,9.4979 L12.6375,9.4979 L12.6375,10.8019 L12.6775,10.8019 C13.0735,10.0519 14.0405,9.2609 15.4845,9.2609 C18.4885,9.2609 19.0415,11.2369 19.0415,13.8069 L19.0415,19.0419 Z" id="Fill-1"></path>
        </g>
    </g>
</svg>