<?xml version="1.0" encoding="UTF-8"?>
<svg width="16px" height="16px" viewBox="0 0 16 16" version="1.1" xmlns="http://www.w3.org/2000/svg" xmlns:xlink="http://www.w3.org/1999/xlink">
    <!-- Generator: sketchtool 44.1 (41455) - http://www.bohemiancoding.com/sketch -->
    <title>social-linkedin-1-16</title>
    <desc>Created with sketchtool.</desc>
    <defs></defs>
    <g id="Symbols" stroke="none" stroke-width="1" fill="none" fill-rule="evenodd">
        <g id="social-linkedin-1-16" fill="#000000">
            <g id="Group-2" transform="translate(1.000000, 1.000000)">
                <path d="M12.6796667,0.333266667 L1.31766667,0.333266667 C0.775,0.333266667 0.333,0.763933333 0.333,1.29393333 L0.333,12.7046 C0.333,13.2352667 0.775,13.6659333 1.31766667,13.6659333 L12.6796667,13.6659333 C13.2236667,13.6659333 13.6663333,13.2352667 13.6663333,12.7046 L13.6663333,1.29393333 C13.6663333,0.763933333 13.2236667,0.333266667 12.6796667,0.333266667 L12.6796667,0.333266667 Z M2.31033333,11.6946 L4.28766667,11.6946 L4.28766667,5.33193333 L2.31033333,5.33193333 L2.31033333,11.6946 Z M3.29966667,4.46193333 C2.66566667,4.46193333 2.153,3.9486 2.153,3.31526667 C2.153,2.6826 2.66566667,2.16926667 3.29966667,2.16926667 C3.93166667,2.16926667 4.445,2.6826 4.445,3.31526667 C4.445,3.9486 3.93166667,4.46193333 3.29966667,4.46193333 L3.29966667,4.46193333 Z M11.6943333,11.6946 L9.719,11.6946 L9.719,8.59993333 C9.719,7.8626 9.705,6.91326667 8.69166667,6.91326667 C7.66233333,6.91326667 7.50366667,7.71726667 7.50366667,8.5466 L7.50366667,11.6946 L5.52833333,11.6946 L5.52833333,5.33193333 L7.425,5.33193333 L7.425,6.20126667 L7.45166667,6.20126667 C7.71566667,5.70126667 8.36033333,5.17393333 9.323,5.17393333 C11.3256667,5.17393333 11.6943333,6.49126667 11.6943333,8.2046 L11.6943333,11.6946 Z" id="Fill-1"></path>
            </g>
        </g>
    </g>
</svg>