<?xml version="1.0" encoding="UTF-8"?>
<svg width="16px" height="16px" viewBox="0 0 16 16" version="1.1" xmlns="http://www.w3.org/2000/svg" xmlns:xlink="http://www.w3.org/1999/xlink">
    <!-- Generator: sketchtool 49.1 (51147) - http://www.bohemiancoding.com/sketch -->
    <title>social-twitter-1-16</title>
    <desc>Created with sketchtool.</desc>
    <defs></defs>
    <g id="Icons" stroke="none" stroke-width="1" fill="none" fill-rule="evenodd">
        <g id="social-twitter-1-16" fill="#000000">
            <path d="M15.3333333,3.40173333 C14.8253333,3.6224 14.2806667,3.77306667 13.71,3.84173333 C13.7066667,3.83106667 13.7013333,3.82106667 13.6966667,3.81106667 C14.3013333,3.45773333 14.7673333,2.89506667 14.9973333,2.2224 C14.822,2.3304 13.9786667,2.80573333 13.1546667,2.95906667 C12.618,2.36973333 11.846,1.99973333 10.986,1.99973333 C9.16866667,1.99973333 8.04933333,3.49106667 8.04933333,4.9364 C8.04933333,5.04906667 8.10266667,5.51506667 8.112,5.54173333 C5.67066667,5.4884 3.50666667,4.31373333 2.11266667,2.51173333 C1.114,4.32973333 2.15933333,5.90573333 2.876,6.46773333 C2.45933333,6.46106667 2.06466667,6.37106667 1.704,6.2144 C1.77933333,7.61173333 2.79066667,8.7604 4.12333333,9.0464 C3.58933333,9.19573333 2.94866667,9.08173333 2.70266667,9.01773333 C3.096,10.1870667 4.174,11.0424 5.46,11.1050667 C3.49066667,12.5524 1.368,12.4044 1.33333333,12.4037333 C2.58133333,13.1517333 4.042,13.5924 5.602,13.5817333 C11.3213333,13.5450667 14.2586667,8.46973333 13.9093333,4.8264 C14.536,4.53373333 15.042,4.02773333 15.3333333,3.40173333" id="Fill-1"></path>
        </g>
    </g>
</svg>