<?xml version="1.0" encoding="UTF-8"?>
<svg width="16px" height="16px" viewBox="0 0 16 16" version="1.1" xmlns="http://www.w3.org/2000/svg" xmlns:xlink="http://www.w3.org/1999/xlink">
    <!-- Generator: sketchtool 49.1 (51147) - http://www.bohemiancoding.com/sketch -->
    <title>social-share-16</title>
    <desc>Created with sketchtool.</desc>
    <defs></defs>
    <g id="Icons" stroke="none" stroke-width="1" fill="none" fill-rule="evenodd">
        <g id="social-share-16" fill="#000000">
            <path d="M10.7365294,5.27205294 C11.1885968,5.7219446 11.8118268,6 12.5,6 C13.8807119,6 15,4.88071187 15,3.5 C15,2.11928813 13.8807119,1 12.5,1 C11.1192881,1 10,2.11928813 10,3.5 C10,3.54065619 10.0009705,3.5810857 10.0028896,3.62126665 L4.89950237,6.4281296 C4.50016076,6.15785496 4.01851488,6 3.5,6 C2.11928813,6 1,7.11928813 1,8.5 C1,8.52417906 1.00034325,8.54827795 1.00102515,8.57229207 L0.985928852,8.58059503 L1.00150622,8.58760485 C1.04765868,9.92774784 2.14861039,11 3.5,11 C4.10464229,11 4.65915016,10.785349 5.09147843,10.4280923 L10.0037785,12.6386274 C10.0757153,13.9548601 11.1658049,15 12.5,15 C13.8807119,15 15,13.8807119 15,12.5 C15,11.1192881 13.8807119,10 12.5,10 C11.7198858,10 11.0232272,10.3573157 10.5647575,10.9172138 L5.97541157,8.85200816 C5.99161856,8.73700028 6,8.61947894 6,8.5 C6,8.29854478 5.97617171,8.10265495 5.93117982,7.9149952 L10.7365294,5.27205294 Z" id="Combined-Shape"></path>
        </g>
    </g>
</svg>