<?xml version="1.0" encoding="UTF-8"?>
<svg width="24px" height="24px" viewBox="0 0 24 24" version="1.1" xmlns="http://www.w3.org/2000/svg" xmlns:xlink="http://www.w3.org/1999/xlink">
    <!-- Generator: sketchtool 49.1 (51147) - http://www.bohemiancoding.com/sketch -->
    <title>sound-on</title>
    <desc>Created with sketchtool.</desc>
    <defs></defs>
    <g id="Icons" stroke="none" stroke-width="1" fill="none" fill-rule="evenodd">
        <g id="sound-on" fill="#000000" fill-rule="nonzero">
            <path d="M7.065,7.01199614 C7.047,7.01199614 7.032,7.00199614 7.014,7.00199614 L6,7.00199614 C3.794,7.00199614 2,9.24499614 2,12.0019961 C2,14.7589961 3.794,17.0019961 6,17.0019961 L7.015,17.0019961 C7.033,17.0019961 7.048,16.9929961 7.066,16.9919961 C8.46579367,20.1027154 11.5896299,22.0752916 15,22.0019961 C15.5522847,22.0019961 16,21.5542809 16,21.0019961 L16,3.00199614 C16,2.44971139 15.5522847,2.00199614 15,2.00199614 C11.5892699,1.92829528 8.46493637,3.90093685 7.065,7.01199614 Z M6,15.0019961 C4.916,15.0019961 4,13.6279961 4,12.0019961 C4,10.3759961 4.916,9.00199614 6,9.00199614 L6.368,9.00199614 C5.89720693,10.9742904 5.89720693,13.0297019 6.368,15.0019961 L6,15.0019961 Z M14,19.9349961 C10.429,19.4449961 8.015,16.3209961 8.015,12.0019961 C8.015,7.68299614 10.429,4.55899614 14,4.06899614 L14,19.9349961 Z M22,11.0019961 C22.5522847,11.0019961 23,11.4497114 23,12.0019961 C23,12.5542809 22.5522847,13.0019961 22,13.0019961 L19,13.0019961 C18.4477153,13.0019961 18,12.5542809 18,12.0019961 C18,11.4497114 18.4477153,11.0019961 19,11.0019961 L22,11.0019961 Z M20.553,6.10699614 C20.8725741,5.94711977 21.2531657,5.96987866 21.5514097,6.16669975 C21.8496538,6.36352084 22.0202398,6.70450232 21.9989097,7.06119976 C21.9775797,7.41789721 21.7675741,7.73611979 21.448,7.89599614 L19.448,8.89599614 C18.9539813,9.14314356 18.3531474,8.94301484 18.106,8.44899614 C17.8588526,7.95497743 18.0589813,7.35414356 18.553,7.10699614 L20.553,6.10699614 Z M20.553,17.8969961 L18.553,16.8969961 C18.0589813,16.6498487 17.8588526,16.0490148 18.106,15.5549962 C18.3531475,15.0609775 18.9539813,14.8608487 19.448,15.1079961 L21.448,16.1079961 C21.7675741,16.2678725 21.9775797,16.5860951 21.9989098,16.9427925 C22.0202398,17.29949 21.8496538,17.6404714 21.5514097,17.8372925 C21.2531657,18.0341136 20.8725741,18.0568725 20.553,17.8969961 Z" id="Combined-Shape"></path>
        </g>
    </g>
</svg>