<?xml version="1.0" encoding="UTF-8"?>
<svg width="16px" height="16px" viewBox="0 0 16 16" version="1.1" xmlns="http://www.w3.org/2000/svg" xmlns:xlink="http://www.w3.org/1999/xlink">
    <!-- Generator: sketchtool 49.1 (51147) - http://www.bohemiancoding.com/sketch -->
    <title>sound-off-16</title>
    <desc>Created with sketchtool.</desc>
    <defs></defs>
    <g id="Icons" stroke="none" stroke-width="1" fill="none" fill-rule="evenodd">
        <g id="sound-off-16" fill="#000000" fill-rule="nonzero">
            <path d="M3.9,12 L5,12 C5.94847015,13.8807371 7.89418722,15.0481673 10,15 C10.4970563,15 10.9,14.5970563 10.9,14.1 L10.9,13.1 C10.9,12.6029437 10.4970563,12.2 10,12.2 C9.50294373,12.2 9.1,12.6029437 9.1,13.1 L9.1,13.1 C6.76,12.63 5.9,10.25 5.9,8 C5.9,5.75 6.76,3.37 9.1,2.89 L9.1,2.89 C9.1,3.38705627 9.50294373,3.79 10,3.79 C10.4970563,3.79 10.9,3.38705627 10.9,2.89 L10.9,1.89 C10.8945203,1.39685337 10.4931771,0.999969556 10,1 C7.89418722,0.951832688 5.94847015,2.11926293 5,4 L3.9,4 C2.27,4 1,5.76 1,8 C1,10.24 2.27,12 3.9,12 Z M3.9,5.8 L4.34,5.8 C4.17607268,6.52173247 4.09554546,7.2598986 4.1,8 C4.09554546,8.7401014 4.17607268,9.47826753 4.34,10.2 L3.9,10.2 C3.45,10.2 2.8,9.34 2.8,8 C2.8,6.66 3.45,5.8 3.9,5.8 Z" id="Shape"></path>
            <path d="M14.64,5.36 C14.2888499,5.01038553 13.7211501,5.01038553 13.37,5.36 L12,6.73 L10.64,5.36 C10.41135,5.13135002 10.0780854,5.04205204 9.76574374,5.12574374 C9.45340206,5.20943544 9.20943544,5.45340206 9.12574374,5.76574374 C9.04205204,6.07808542 9.13135002,6.41135002 9.36,6.64 L10.73,8 L9.36,9.36 C9.0478032,9.71656775 9.0656172,10.2541479 9.40073465,10.5892654 C9.73585209,10.9243828 10.2734323,10.9421968 10.63,10.63 L12,9.27 L13.36,10.63 C13.581195,10.8826323 13.9246331,10.9911195 14.2508147,10.9113957 C14.5769963,10.8316718 14.8316718,10.5769963 14.9113957,10.2508147 C14.9911195,9.92463311 14.8826323,9.58119502 14.63,9.36 L13.27,8 L14.63,6.64 C14.8023261,6.47227255 14.9003613,6.2425566 14.9022399,6.00208781 C14.9041186,5.76161903 14.8096844,5.53039941 14.64,5.36 L14.64,5.36 Z" id="Shape"></path>
        </g>
    </g>
</svg>