<?xml version="1.0" encoding="UTF-8"?>
<svg width="16px" height="16px" viewBox="0 0 16 16" version="1.1" xmlns="http://www.w3.org/2000/svg" xmlns:xlink="http://www.w3.org/1999/xlink">
    <!-- Generator: sketchtool 44.1 (41455) - http://www.bohemiancoding.com/sketch -->
    <title>speech-bubble-1-16</title>
    <desc>Created with sketchtool.</desc>
    <defs></defs>
    <g id="Symbols" stroke="none" stroke-width="1" fill="none" fill-rule="evenodd">
        <g id="speech-bubble-1-16" fill-rule="nonzero" fill="#000000">
            <path d="M11,6 L5,6 C4.44771525,6 4,6.44771525 4,7 C4,7.55228475 4.44771525,8 5,8 L11,8 C11.5522847,8 12,7.55228475 12,7 C12,6.44771525 11.5522847,6 11,6 Z" id="Shape"></path>
            <path d="M8,1 C4.14,1 1,3.67 1,7 C1.02333524,8.56711349 1.70582011,10.0518811 2.88,11.09 L2.13,13.79 C2.05214867,14.1313689 2.17934523,14.4869041 2.45607011,14.7014196 C2.732795,14.915935 3.10881402,14.9504893 3.42,14.79 L7,12.91 C7.33116991,12.9604984 7.66513526,12.9905553 8,13 C11.86,13 15,10.31 15,7 C15,3.69 11.86,1 8,1 Z M8,11.2 C7.64812901,11.1987357 7.29695351,11.1686349 6.95,11.11 C6.7552718,11.0766237 6.55497141,11.10825 6.38,11.2 L4.38,12.2 L4.77,11 C4.88896296,10.6325345 4.7601951,10.2301349 4.45,10 C3.45995661,9.31410115 2.8490852,8.20342586 2.8,7 C2.8,4.68 5.13,2.8 8,2.8 C10.87,2.8 13.2,4.66 13.2,7 C13.2,9.34 10.87,11.18 8,11.18 L8,11.2 Z" id="Shape"></path>
        </g>
    </g>
</svg>