<?xml version="1.0" encoding="UTF-8"?>
<svg width="24px" height="24px" viewBox="0 0 24 24" version="1.1" xmlns="http://www.w3.org/2000/svg" xmlns:xlink="http://www.w3.org/1999/xlink">
    <!-- Generator: sketchtool 44.1 (41455) - http://www.bohemiancoding.com/sketch -->
    <title>speech-bubble-1</title>
    <desc>Created with sketchtool.</desc>
    <defs></defs>
    <g id="Symbols" stroke="none" stroke-width="1" fill="none" fill-rule="evenodd">
        <g id="speech-bubble-1" fill-rule="nonzero" fill="#000000">
            <path d="M3.02,20.8 L3.917,16.4 C2.6963777,15.0584751 2.01376932,13.3136754 2,11.5 C2,6.813 6.71,3 12.5,3 C18.29,3 23,6.813 23,11.5 C23,16.187 18.29,20 12.5,20 C11.4547922,19.9992163 10.4136466,19.8699127 9.4,19.615 L4.42,21.908 C4.07756973,22.0666285 3.67500246,22.0189691 3.37907891,21.7847667 C3.08315536,21.5505644 2.94428469,21.1697143 3.02,20.8 Z M8,11 C7.44771525,11 7,10.5522847 7,10 C7,9.44771525 7.44771525,9 8,9 L17,9 C17.5522847,9 18,9.44771525 18,10 C18,10.5522847 17.5522847,11 17,11 L8,11 Z M8,14 C7.44771525,14 7,13.5522847 7,13 C7,12.4477153 7.44771525,12 8,12 L17,12 C17.5522847,12 18,12.4477153 18,13 C18,13.5522847 17.5522847,14 17,14 L8,14 Z M12.5,5 C7.813,5 4,7.916 4,11.5 C4.02871782,12.9736617 4.64550181,14.3746579 5.713,15.391 C5.94603523,15.6279873 6.04609588,15.9652704 5.98,16.291 L5.374,19.266 L8.887,17.648 C9.10324058,17.5484439 9.34790431,17.5292963 9.577,17.594 C10.5280548,17.862974 11.5116417,17.9995926 12.5,18 C17.187,18 21,15.084 21,11.5 C21,7.916 17.187,5 12.5,5 Z" id="Combined-Shape"></path>
        </g>
    </g>
</svg>