<?xml version="1.0" encoding="UTF-8"?>
<svg width="24px" height="24px" viewBox="0 0 24 24" version="1.1" xmlns="http://www.w3.org/2000/svg" xmlns:xlink="http://www.w3.org/1999/xlink">
    <!-- Generator: sketchtool 44.1 (41455) - http://www.bohemiancoding.com/sketch -->
    <title>star-fill-half</title>
    <desc>Created with sketchtool.</desc>
    <defs></defs>
    <g id="Symbols" stroke="none" stroke-width="1" fill="none" fill-rule="evenodd">
        <g id="star-fill-half" fill-rule="nonzero" fill="#000000">
            <path d="M22.187,9.4 C22.0693869,9.03761269 21.7560709,8.77354312 21.379,8.719 L15.518,7.867 L12.9,2.558 C12.7125076,2.24082189 12.3714499,2.04624051 12.003,2.04624051 C11.6345501,2.04624051 11.2934924,2.24082189 11.106,2.558 L8.482,7.869 L2.621,8.72 C2.24404515,8.7744019 1.93071982,9.03820578 1.81289562,9.40038251 C1.69507142,9.76255925 1.79320727,10.1602207 2.066,10.426 L6.308,14.56 L5.308,20.398 C5.24372134,20.7731497 5.39798224,21.1522626 5.70592913,21.3759538 C6.01387602,21.5996451 6.42210867,21.6291251 6.759,21.452 L12,18.7 L17.243,21.456 C17.5802398,21.6334929 17.9890467,21.6038742 18.2971796,21.3796232 C18.6053124,21.1553721 18.7591979,20.7754779 18.694,20.4 L17.694,14.562 L21.935,10.428 C22.2083246,10.1615187 22.306095,9.76267752 22.187,9.4 L22.187,9.4 Z M15.92,13.495 C15.6842093,13.7246297 15.57651,14.0555807 15.632,14.38 L16.38,18.739 L12.465,16.681 C12.3216055,16.6055613 12.1620277,16.5660958 12,16.566 L12,5.259 L13.957,9.225 C14.1026845,9.52014401 14.3842753,9.72469934 14.71,9.772 L19.086,10.408 L15.92,13.495 Z" id="Shape"></path>
        </g>
    </g>
</svg>