<?xml version="1.0" encoding="UTF-8"?>
<svg width="24px" height="24px" viewBox="0 0 24 24" version="1.1" xmlns="http://www.w3.org/2000/svg" xmlns:xlink="http://www.w3.org/1999/xlink">
    <!-- Generator: sketchtool 49.1 (51147) - http://www.bohemiancoding.com/sketch -->
    <title>star</title>
    <desc>Created with sketchtool.</desc>
    <defs></defs>
    <g id="Icons" stroke="none" stroke-width="1" fill="none" fill-rule="evenodd">
        <g id="star" fill="#000000" fill-rule="nonzero">
            <path d="M6.54418965,14.5137595 L5.54418965,20.3517595 C5.47991099,20.7269092 5.63417189,21.1060221 5.94211878,21.3297133 C6.25006567,21.5534046 6.65829832,21.5828846 6.99518965,21.4057595 L12.2361896,18.6537595 L17.4791896,21.4097595 C17.8164295,21.5872524 18.2252363,21.5576337 18.5333692,21.3333826 C18.8415021,21.1091316 18.9953876,20.7292374 18.9301896,20.3537595 L17.9301896,14.5157595 L22.1711896,10.3817595 C22.4439824,10.1159802 22.5421182,9.71831873 22.424294,9.356142 C22.3064698,8.99396527 21.9931445,8.73016139 21.6161896,8.67575949 L15.7551896,7.82375949 L13.1361896,2.51175949 C12.9486973,2.19458138 12.6076396,2 12.2391896,2 C11.8707397,2 11.529682,2.19458138 11.3421896,2.51175949 L8.71818965,7.82275949 L2.85718965,8.67375949 C2.4802348,8.72816139 2.16690947,8.99196527 2.04908527,9.354142 C1.93126107,9.71631873 2.02939692,10.1139802 2.30218965,10.3797595 L6.54418965,14.5137595 Z M9.52618965,9.72575949 C9.85191438,9.67845883 10.1335052,9.47390349 10.2791896,9.17875949 L12.2361896,5.21275949 L14.1931896,9.17875949 C14.3388741,9.47390349 14.6204649,9.67845883 14.9461896,9.72575949 L19.3221896,10.3617595 L16.1561896,13.4487595 C15.920399,13.6783891 15.8126996,14.0093402 15.8681896,14.3337595 L16.6161896,18.6927595 L12.7011896,16.6347595 C12.4097808,16.48149 12.0615985,16.48149 11.7701896,16.6347595 L7.85618965,18.6927595 L8.60418965,14.3337595 C8.65967965,14.0093402 8.55198033,13.6783891 8.31618965,13.4487595 L5.15018965,10.3617595 L9.52618965,9.72575949 Z" id="Shape"></path>
        </g>
    </g>
</svg>