<?xml version="1.0" encoding="UTF-8"?>
<svg width="24px" height="24px" viewBox="0 0 24 24" version="1.1" xmlns="http://www.w3.org/2000/svg" xmlns:xlink="http://www.w3.org/1999/xlink">
    <!-- Generator: sketchtool 49.1 (51147) - http://www.bohemiancoding.com/sketch -->
    <title>star-minus</title>
    <desc>Created with sketchtool.</desc>
    <defs></defs>
    <g id="Icons" stroke="none" stroke-width="1" fill="none" fill-rule="evenodd">
        <g id="star-minus" fill="#000000" fill-rule="nonzero">
            <path d="M6.308,14.56 L2.066,10.426 C1.79320727,10.1602207 1.69507142,9.76255925 1.81289562,9.40038251 C1.93071982,9.03820578 2.24404515,8.7744019 2.621,8.72 L8.482,7.869 L11.107,2.558 C11.2942251,2.24078068 11.6351505,2.04612073 12.0035,2.04612073 C12.3718495,2.04612073 12.7127749,2.24078068 12.9,2.558 L15.519,7.868 L21.38,8.72 C21.7611701,8.7753895 22.0766462,9.04477387 22.1910597,9.41256209 C22.3054733,9.78035031 22.1984839,10.1811575 21.916,10.443 L19.681,12.516 C19.4200779,12.7656117 19.044854,12.8551714 18.6993249,12.7503096 C18.3537959,12.6454477 18.0916354,12.3624533 18.0134508,12.0099289 C17.9352661,11.6574044 18.0532024,11.2901103 18.322,11.049 L19.022,10.398 L14.71,9.772 C14.3842753,9.72469934 14.1026845,9.52014401 13.957,9.225 L12,5.26 L10.043,9.225 C9.89731553,9.52014401 9.61572473,9.72469934 9.29,9.772 L4.913,10.408 L8.08,13.5 C8.31383697,13.728738 8.4210196,14.0573815 8.367,14.38 L7.62,18.739 L11.534,16.685 C11.8256759,16.5313796 12.1743241,16.5313796 12.466,16.685 L18.174,19.685 C18.6630481,19.9423647 18.8508647,20.5474518 18.5935,21.0365 C18.3361353,21.5255481 17.7310481,21.7133647 17.242,21.456 L12,18.7 L6.759,21.452 C6.42210867,21.6291251 6.01387602,21.5996451 5.70592913,21.3759538 C5.39798224,21.1522626 5.24372134,20.7731497 5.308,20.398 L6.308,14.56 Z M23,15 C23.5522847,15 24,15.4477153 24,16 C24,16.5522847 23.5522847,17 23,17 L18,17 C17.4477153,17 17,16.5522847 17,16 C17,15.4477153 17.4477153,15 18,15 L23,15 Z" id="Combined-Shape"></path>
        </g>
    </g>
</svg>