<?xml version="1.0" encoding="UTF-8"?>
<svg width="16px" height="16px" viewBox="0 0 16 16" version="1.1" xmlns="http://www.w3.org/2000/svg" xmlns:xlink="http://www.w3.org/1999/xlink">
    <!-- Generator: sketchtool 44.1 (41455) - http://www.bohemiancoding.com/sketch -->
    <title>stop-16</title>
    <desc>Created with sketchtool.</desc>
    <defs></defs>
    <g id="Symbols" stroke="none" stroke-width="1" fill="none" fill-rule="evenodd">
        <g id="stop-16" fill-rule="nonzero" fill="#000000">
            <path d="M8,1 C4.13400675,1 1,4.13400675 1,8 C1,11.8659932 4.13400675,15 8,15 C11.8659932,15 15,11.8659932 15,8 C15,6.14348457 14.2625021,4.36300718 12.9497475,3.05025253 C11.6369928,1.73749788 9.85651543,1 8,1 L8,1 Z M2.8,8 C2.79173666,6.05339963 3.87344897,4.26585143 5.60172731,3.37009741 C7.33000566,2.47434339 9.41421206,2.62101909 11,3.75 L3.75,11 C3.12869496,10.1233075 2.79657964,9.07452224 2.8,8 L2.8,8 Z M8,13.2 C6.92547776,13.2034204 5.87669253,12.871305 5,12.25 L12.25,5 C13.3789809,6.58578794 13.5256566,8.66999434 12.6299026,10.3982727 C11.7341486,12.126551 9.94660037,13.2082633 8,13.2 Z" id="Shape"></path>
        </g>
    </g>
</svg>