<?xml version="1.0" encoding="UTF-8"?>
<svg width="24px" height="24px" viewBox="0 0 24 24" version="1.1" xmlns="http://www.w3.org/2000/svg" xmlns:xlink="http://www.w3.org/1999/xlink">
    <!-- Generator: sketchtool 49.1 (51147) - http://www.bohemiancoding.com/sketch -->
    <title>stop</title>
    <desc>Created with sketchtool.</desc>
    <defs></defs>
    <g id="Icons" stroke="none" stroke-width="1" fill="none" fill-rule="evenodd">
        <g id="stop" fill="#000000" fill-rule="nonzero">
            <path d="M12,2 C6.4771525,2 2,6.4771525 2,12 C2,17.5228475 6.4771525,22 12,22 C17.5228475,22 22,17.5228475 22,12 C22,9.3478351 20.9464316,6.80429597 19.0710678,4.92893219 C17.195704,3.0535684 14.6521649,2 12,2 L12,2 Z M4,12 C4.00524492,8.94964386 5.74469161,6.16773424 8.48480847,4.82741352 C11.2249253,3.48709279 14.4887831,3.82164959 16.9,5.69 L5.69,16.9 C4.59849101,15.499478 4.00393704,13.7756233 4,12 Z M12,20 C10.2243767,19.996063 8.50052197,19.401509 7.1,18.31 L18.31,7.1 C20.1783504,9.51121688 20.5129072,12.7750747 19.1725865,15.5151915 C17.8322658,18.2553084 15.0503561,19.9947551 12,20 Z" id="Shape"></path>
        </g>
    </g>
</svg>