<?xml version="1.0" encoding="UTF-8"?>
<svg width="24px" height="24px" viewBox="0 0 24 24" version="1.1" xmlns="http://www.w3.org/2000/svg" xmlns:xlink="http://www.w3.org/1999/xlink">
    <!-- Generator: sketchtool 49.1 (51147) - http://www.bohemiancoding.com/sketch -->
    <title>tag-1</title>
    <desc>Created with sketchtool.</desc>
    <defs></defs>
    <g id="Icons" stroke="none" stroke-width="1" fill="none" fill-rule="evenodd">
        <g id="tag-1" fill="#000000" fill-rule="nonzero">
            <path d="M6.464,22.707 C7.02662374,23.269719 7.78976248,23.5858593 8.5855,23.5858593 C9.38123752,23.5858593 10.1443763,23.269719 10.707,22.707 L21.536,11.878 C22.4764745,10.9424429 23.003634,9.66955427 23,8.343 L23,2 C23,1.44771525 22.5522847,1 22,1 L15.657,1 C14.3304457,0.996365989 13.0575571,1.52352551 12.122,2.464 L1.293,13.293 C0.730280954,13.8556237 0.414140672,14.6187625 0.414140672,15.4145 C0.414140672,16.2102375 0.730280954,16.9733763 1.293,17.536 L6.464,22.707 Z M2.707,14.707 L13.536,3.878 C14.0999967,3.31775064 14.8620369,3.00229974 15.657,3 L21,3 L21,8.343 C20.9977003,9.13796307 20.6822494,9.90000334 20.122,10.464 L9.293,21.293 C9.10543174,21.480777 8.85090925,21.5862867 8.5855,21.5862867 C8.32009075,21.5862867 8.06556826,21.480777 7.878,21.293 L2.707,16.122 C2.51922296,15.9344317 2.41371334,15.6799092 2.41371334,15.4145 C2.41371334,15.1490908 2.51922296,14.8945683 2.707,14.707 Z M6.158,17.842 C6.54849985,18.2323819 7.18150015,18.2323819 7.572,17.842 L8.5,16.914 L8.63,17.044 C9.00144583,17.4207114 9.50796207,17.6334698 10.037,17.635 C10.3920523,17.6341931 10.7405488,17.5393055 11.047,17.36 C11.8376563,16.9103536 12.2197512,15.9794617 11.973,15.104 L10.956,11.37 L13.293,13.707 C13.6853789,14.0859722 14.3090848,14.0805524 14.6948186,13.6948186 C15.0805524,13.3090848 15.0859722,12.6853789 14.707,12.293 L13.914,11.5 L14.707,10.707 C15.0859722,10.3146211 15.0805524,9.69091522 14.6948186,9.30518142 C14.3090848,8.91944763 13.6853789,8.91402779 13.293,9.293 L12.5,10.086 L12.37,9.956 C11.7284884,9.31294421 10.7341925,9.18294525 9.94891838,9.63945631 C9.16364421,10.0959674 8.78461778,11.0243331 9.026,11.9 L10.045,15.634 L7.707,13.293 C7.31462111,12.9140278 6.69091522,12.9194476 6.30518142,13.3051814 C5.91944763,13.6909152 5.91402779,14.3146211 6.293,14.707 L7.086,15.5 L6.158,16.428 C5.76761806,16.8184999 5.76761806,17.4515001 6.158,17.842 Z M17.5,8.5 C18.6045695,8.5 19.5,7.6045695 19.5,6.5 C19.5,5.3954305 18.6045695,4.5 17.5,4.5 C16.3954305,4.5 15.5,5.3954305 15.5,6.5 C15.5,7.6045695 16.3954305,8.5 17.5,8.5 Z" id="Combined-Shape"></path>
        </g>
    </g>
</svg>