<?xml version="1.0" encoding="UTF-8"?>
<svg width="16px" height="16px" viewBox="0 0 16 16" version="1.1" xmlns="http://www.w3.org/2000/svg" xmlns:xlink="http://www.w3.org/1999/xlink">
    <!-- Generator: sketchtool 49.1 (51147) - http://www.bohemiancoding.com/sketch -->
    <title>tag-1-multi-16</title>
    <desc>Created with sketchtool.</desc>
    <defs></defs>
    <g id="Icons" stroke="none" stroke-width="1" fill="none" fill-rule="evenodd">
        <g id="tag-1-multi-16" fill="#000000" fill-rule="nonzero">
            <path d="M12,5.16 L12,1.9 C12,1.40294373 11.5970563,1 11.1,1 L7.84,1 C7.06653313,1.00251858 6.32566378,1.31181355 5.78,1.86 L0.35,7.36 C-0.381912321,8.10341851 -0.381912321,9.29658149 0.35,10.04 L3,12.63 C3.74118771,13.3673378 4.93881229,13.3673378 5.68,12.63 L11.19,7.22 C11.7208155,6.66684057 12.0118981,5.92655654 12,5.16 L12,5.16 Z M10.2,5.16 C10.1974124,5.453396 10.0787658,5.73383323 9.87,5.94 L4.37,11.36 C4.33111565,11.3981143 4.26888435,11.3981143 4.23,11.36 L1.63,8.76 C1.59188571,8.72111565 1.59188571,8.65888435 1.63,8.62 L7.05,3.12 C7.25898383,2.91052732 7.54414831,2.79501766 7.84,2.8 L10.2,2.8 L10.2,5.16 Z" id="Shape"></path>
            <path d="M14.1,2.41 C13.6029437,2.41 13.2,2.81294373 13.2,3.31 L13.2,6.57 C13.1974124,6.863396 13.0787658,7.14383323 12.87,7.35 L6.07,14.06 C5.81581322,14.2792522 5.70476997,14.621744 5.78195092,14.9484328 C5.85913187,15.2751216 6.11170855,15.5317074 6.43714143,15.6140232 C6.76257431,15.6963389 7.1067723,15.5907027 7.33,15.34 L14.13,8.62 C14.6794206,8.07842505 14.9921938,7.34143083 15,6.57 L15,3.31 C15,2.81294373 14.5970563,2.41 14.1,2.41 Z" id="Shape"></path>
            <circle id="Oval" cx="8" cy="5" r="1"></circle>
            <path d="M6,6.2 L4.2,6.2 L4.2,8.2 L3.95,8.2 C3.66418753,8.20893164 3.40485089,8.36966395 3.26967968,8.62165064 C3.13450847,8.87363732 3.14403841,9.17859559 3.29467968,9.42165064 C3.44532094,9.66470568 3.71418753,9.80893164 4,9.8 L4.05,9.8 L5.8,9.69 L5.8,7.8 L6,7.8 C6.4418278,7.8 6.8,7.4418278 6.8,7 C6.8,6.5581722 6.4418278,6.2 6,6.2 Z" id="Shape"></path>
        </g>
    </g>
</svg>