<?xml version="1.0" encoding="UTF-8"?>
<svg width="16px" height="16px" viewBox="0 0 16 16" version="1.1" xmlns="http://www.w3.org/2000/svg" xmlns:xlink="http://www.w3.org/1999/xlink">
    <!-- Generator: sketchtool 44.1 (41455) - http://www.bohemiancoding.com/sketch -->
    <title>tag-tick-16</title>
    <desc>Created with sketchtool.</desc>
    <defs></defs>
    <g id="Symbols" stroke="none" stroke-width="1" fill="none" fill-rule="evenodd">
        <g id="tag-tick-16" fill-rule="nonzero" fill="#000000">
            <circle id="Oval" cx="11" cy="5" r="1"></circle>
            <path d="M14.36,10.36 L11.5,13.23 L10.14,11.87 C9.78343225,11.5578032 9.24585209,11.5756172 8.91073465,11.9107346 C8.5756172,12.2458521 8.5578032,12.7834323 8.87,13.14 L10.87,15.14 C11.2211501,15.4896145 11.7888499,15.4896145 12.14,15.14 L15.64,11.64 C15.86865,11.41135 15.957948,11.0780854 15.8742563,10.7657437 C15.7905646,10.4534021 15.5465979,10.2094354 15.2342563,10.1257437 C14.9219146,10.042052 14.58865,10.13135 14.36,10.36 Z" id="Shape"></path>
            <path d="M4.34,15.24 C4.69644014,15.5972359 5.18035455,15.7979959 5.685,15.7979959 C6.18964545,15.7979959 6.67355986,15.5972359 7.03,15.24 C7.28040626,14.8790152 7.23359131,14.3899914 6.91924555,14.0830711 C6.60489978,13.7761508 6.11489672,13.7410374 5.76,14 C5.72111565,14.0381143 5.65888435,14.0381143 5.62,14 L2,10.39 C1.96647042,10.349356 1.96647042,10.290644 2,10.25 L9.15,3.12 C9.35779618,2.91490159 9.63803321,2.79993255 9.93,2.8 L13.2,2.8 L13.2,6.07 C13.2022735,6.36239714 13.0869711,6.64344682 12.88,6.85 L11.36,8.36 C11.0478032,8.71656775 11.0656172,9.25414791 11.4007346,9.58926535 C11.7358521,9.9243828 12.2734323,9.9421968 12.63,9.63 L14.14,8.12 C14.6894763,7.57930484 14.9992494,6.84089227 15,6.07 L15,1.9 C15,1.40294373 14.5970563,1 14.1,1 L9.93,1 C9.1605563,0.998109307 8.42235025,1.30419474 7.88,1.85 L0.76,9 C0.402764141,9.35644014 0.202004098,9.84035455 0.202004098,10.345 C0.202004098,10.8496455 0.402764141,11.3335599 0.76,11.69 L4.34,15.24 Z" id="Shape"></path>
        </g>
    </g>
</svg>