<?xml version="1.0" encoding="UTF-8"?>
<svg width="24px" height="24px" viewBox="0 0 24 24" version="1.1" xmlns="http://www.w3.org/2000/svg" xmlns:xlink="http://www.w3.org/1999/xlink">
    <!-- Generator: sketchtool 49.1 (51147) - http://www.bohemiancoding.com/sketch -->
    <title>tag-tick</title>
    <desc>Created with sketchtool.</desc>
    <defs></defs>
    <g id="Icons" stroke="none" stroke-width="1" fill="none" fill-rule="evenodd">
        <g id="tag-tick" fill="#000000" fill-rule="nonzero">
            <path d="M7.879,21.293 L2.707,16.121 C2.14428095,15.5583763 1.82814067,14.7952375 1.82814067,13.9995 C1.82814067,13.2037625 2.14428095,12.4406237 2.707,11.878 L12.121,2.464 C13.0568645,1.52337314 14.3301214,0.996210212 15.657,1 L22,1 C22.5522847,1 23,1.44771525 23,2 L23,8.343 C23.0032579,9.66967671 22.4757469,10.9425446 21.535,11.878 L18.207,15.207 C17.8146211,15.5859722 17.1909152,15.5805524 16.8051814,15.1948186 C16.4194476,14.8090848 16.4140278,14.1853789 16.793,13.793 L20.121,10.464 C20.6817993,9.90028785 20.9976504,9.13814887 21,8.343 L21,3 L15.657,3 C14.8608185,2.99764718 14.0967582,3.31378522 13.535,3.878 L4.121,13.293 C3.73061806,13.6834999 3.73061806,14.3165001 4.121,14.707 L9.293,19.879 C9.61275956,20.199345 10.1078209,20.2649703 10.5,20.039 C10.8099415,19.8472512 11.1996593,19.83931 11.5171547,20.0182737 C11.8346501,20.1972374 12.0296382,20.5347618 12.0260692,20.8992047 C12.0225002,21.2636475 11.8209394,21.5972885 11.5,21.77 C10.3241184,22.4486796 8.83900998,22.253044 7.879,21.293 Z M22.293,14.293 C22.6853789,13.9140278 23.3090848,13.9194476 23.6948186,14.3051814 C24.0805524,14.6909152 24.0859722,15.3146211 23.707,15.707 L17.707,21.707 C17.3165001,22.0973819 16.6834999,22.0973819 16.293,21.707 L13.293,18.707 C12.9140278,18.3146211 12.9194476,17.6909152 13.3051814,17.3051814 C13.6909152,16.9194476 14.3146211,16.9140278 14.707,17.293 L17,19.586 L22.293,14.293 Z M17.5,8.5 C16.3954305,8.5 15.5,7.6045695 15.5,6.5 C15.5,5.3954305 16.3954305,4.5 17.5,4.5 C18.6045695,4.5 19.5,5.3954305 19.5,6.5 C19.5,7.6045695 18.6045695,8.5 17.5,8.5 Z" id="Combined-Shape"></path>
        </g>
    </g>
</svg>