<?xml version="1.0" encoding="UTF-8"?>
<svg width="24px" height="24px" viewBox="0 0 24 24" version="1.1" xmlns="http://www.w3.org/2000/svg" xmlns:xlink="http://www.w3.org/1999/xlink">
    <!-- Generator: sketchtool 49.1 (51147) - http://www.bohemiancoding.com/sketch -->
    <title>tag-1-multi</title>
    <desc>Created with sketchtool.</desc>
    <defs></defs>
    <g id="Icons" stroke="none" stroke-width="1" fill="none" fill-rule="evenodd">
        <g id="tag-1-multi" fill="#000000" fill-rule="nonzero">
            <path d="M21,7.758 L21,2 C21,1.44771525 20.5522847,1 20,1 L14.243,1 C13.1813255,0.997193275 12.1626464,1.41921232 11.414,2.172 L1.293,12.293 C0.121854185,13.4644996 0.121854185,15.3635004 1.293,16.535 L5.464,20.707 C6.02662374,21.269719 6.78976248,21.5858593 7.5855,21.5858593 C8.38123752,21.5858593 9.14437626,21.269719 9.707,20.707 L19.828,10.586 C20.5758854,9.8344858 20.9970475,8.81823465 21,7.758 Z M19,7.758 C18.9985779,8.28812818 18.7879887,8.79627353 18.414,9.172 L8.293,19.293 C8.10543174,19.480777 7.85090925,19.5862867 7.5855,19.5862867 C7.32009075,19.5862867 7.06556826,19.480777 6.878,19.293 L2.707,15.12 C2.31728406,14.7296149 2.31728406,14.0973851 2.707,13.707 L12.828,3.586 C13.2025401,3.20962438 13.7120226,2.99863024 14.243,3 L19,3 L19,7.758 Z M23,3 C23.5522847,3 24,3.44771525 24,4 L24,9.172 C23.9970475,10.2322347 23.5758854,11.2484858 22.828,12 L12.09,22.738 C11.8389255,22.9979566 11.4671221,23.1022126 11.1174927,23.0106972 C10.7678632,22.9191817 10.4948183,22.6461368 10.4033028,22.2965073 C10.3117874,21.9468779 10.4160434,21.5750745 10.676,21.324 L21.414,10.586 C21.7879887,10.2102735 21.9985779,9.70212818 22,9.172 L22,4 C22,3.44771525 22.4477153,3 23,3 Z M12.293,8.293 L11.293,9.293 C11.24754,9.34746607 11.2082973,9.40683314 11.176,9.47 L10.889,9.327 C10.1390817,8.95290258 9.23545518,9.08601979 8.625273,9.66047963 C8.01509081,10.2349395 7.82776809,11.1289032 8.156,11.9 L9.005,13.882 L7.447,13.103 C7.20977273,12.9842627 6.9350867,12.964653 6.68339797,13.0484867 C6.43170923,13.1323205 6.22364556,13.3127269 6.105,13.55 C5.96690425,13.8362112 5.97584676,14.1715554 6.129,14.45 L5.157,15.422 C4.89704342,15.6730745 4.7927874,16.0448779 4.88430284,16.3945073 C4.97581828,16.7441368 5.24886324,17.0171817 5.59849268,17.1086972 C5.94812211,17.2002126 6.31992553,17.0959566 6.571,16.836 L7.571,15.836 C7.66480112,15.7419044 7.73891089,15.6300598 7.789,15.507 L8.11,15.668 C8.86013018,16.049092 9.76915326,15.9147635 10.377,15.333 C10.9917676,14.7603165 11.1781655,13.8619989 10.842,13.092 L9.993,11.11 L11.551,11.889 C11.7882273,12.0077373 12.0629133,12.027347 12.314602,11.9435133 C12.5662908,11.8596795 12.7743544,11.6792731 12.893,11.442 C13.030787,11.155628 13.0214719,10.8202815 12.868,10.542 L13.705,9.705 C14.0839722,9.31262111 14.0785524,8.68891522 13.6928186,8.30318142 C13.3070848,7.91744763 12.6833789,7.91202779 12.291,8.291 L12.293,8.293 Z M15.5,8 C16.3284271,8 17,7.32842712 17,6.5 C17,5.67157288 16.3284271,5 15.5,5 C14.6715729,5 14,5.67157288 14,6.5 C14,7.32842712 14.6715729,8 15.5,8 Z" id="Combined-Shape"></path>
        </g>
    </g>
</svg>