<?xml version="1.0" encoding="UTF-8"?>
<svg width="16px" height="16px" viewBox="0 0 16 16" version="1.1" xmlns="http://www.w3.org/2000/svg" xmlns:xlink="http://www.w3.org/1999/xlink">
    <!-- Generator: sketchtool 49.1 (51147) - http://www.bohemiancoding.com/sketch -->
    <title>tag-1-16</title>
    <desc>Created with sketchtool.</desc>
    <defs></defs>
    <g id="Icons" stroke="none" stroke-width="1" fill="none" fill-rule="evenodd">
        <g id="tag-1-16" fill="#000000" fill-rule="nonzero">
            <path d="M5.59,15.9 C6.09342204,15.8992449 6.57574021,15.6976791 6.93,15.34 L14.15,8.12 C14.6958053,7.57764975 15.0018907,6.8394437 15,6.07 L15,1.9 C15,1.40294373 14.5970563,1 14.1,1 L9.93,1 C9.1605563,0.998109307 8.42235025,1.30419474 7.88,1.85 L0.66,9.07 C0.302764141,9.42644014 0.102004098,9.91035455 0.102004098,10.415 C0.102004098,10.9196455 0.302764141,11.4035599 0.66,11.76 L4.25,15.35 C4.60590213,15.7040113 5.08801717,15.9018944 5.59,15.9 L5.59,15.9 Z M1.93,10.34 L9.15,3.12 C9.35779618,2.91490159 9.63803321,2.79993255 9.93,2.8 L13.2,2.8 L13.2,6.07 C13.2000674,6.36196679 13.0850984,6.64220382 12.88,6.85 L5.66,14.07 C5.61935601,14.1035296 5.56064399,14.1035296 5.52,14.07 L1.93,10.48 C1.89647042,10.439356 1.89647042,10.380644 1.93,10.34 L1.93,10.34 Z" id="Shape"></path>
            <circle id="Oval" cx="11" cy="5" r="1"></circle>
            <path d="M5.79,11.34 L5.92,11.47 C6.23338552,11.7851633 6.70563976,11.8807695 7.11693208,11.7123147 C7.52822441,11.5438599 7.79773153,11.1444471 7.8,10.7 L7.8,8.93 L8.43,9.57 C8.74480231,9.88480229 9.25519768,9.88480228 9.56999998,9.56999998 C9.88480228,9.25519768 9.88480229,8.74480231 9.57,8.43 L9.14,8 L9.58,7.54 C9.79077484,7.33542564 9.87249117,7.03179743 9.79286606,6.74906691 C9.71324096,6.46633639 9.48508141,6.2499782 9.19852426,6.18546693 C8.91196711,6.12095566 8.61310248,6.21866736 8.42,6.44 L8,6.89 C7.67649396,6.61227373 7.22075734,6.54866708 6.83357132,6.72720286 C6.4463853,6.90573863 6.19884196,7.29363549 6.2,7.72 L6.2,9.49 L5.57,8.86 C5.25519769,8.54519771 4.74480232,8.54519772 4.43000002,8.86000002 C4.11519772,9.17480232 4.11519771,9.68519769 4.43,10 L4.65,10.22 L4.43,10.44 C4.14360991,10.7560749 4.15555547,11.2412487 4.4571534,11.5428466 C4.75875132,11.8444445 5.24392511,11.8563901 5.56,11.57 L5.79,11.34 Z" id="Shape"></path>
        </g>
    </g>
</svg>