<?xml version="1.0" encoding="UTF-8"?>
<svg width="24px" height="24px" viewBox="0 0 24 24" version="1.1" xmlns="http://www.w3.org/2000/svg" xmlns:xlink="http://www.w3.org/1999/xlink">
    <!-- Generator: sketchtool 44.1 (41455) - http://www.bohemiancoding.com/sketch -->
    <title>tag</title>
    <desc>Created with sketchtool.</desc>
    <defs></defs>
    <g id="Symbols" stroke="none" stroke-width="1" fill="none" fill-rule="evenodd">
        <g id="tag" fill-rule="nonzero" fill="#000000">
            <path d="M6.464,22.707 C7.02662374,23.269719 7.78976248,23.5858593 8.5855,23.5858593 C9.38123752,23.5858593 10.1443763,23.269719 10.707,22.707 L21.536,11.878 C22.4764745,10.9424429 23.003634,9.66955427 23,8.343 L23,2 C23,1.44771525 22.5522847,1 22,1 L15.657,1 C14.3304457,0.996365989 13.0575571,1.52352551 12.122,2.464 L1.293,13.293 C0.730280954,13.8556237 0.414140672,14.6187625 0.414140672,15.4145 C0.414140672,16.2102375 0.730280954,16.9733763 1.293,17.536 L6.464,22.707 Z M2.707,14.707 L13.536,3.878 C14.0999967,3.31775064 14.8620369,3.00229974 15.657,3 L21,3 L21,8.343 C20.9977003,9.13796307 20.6822494,9.90000334 20.122,10.464 L9.293,21.293 C9.10543174,21.480777 8.85090925,21.5862867 8.5855,21.5862867 C8.32009075,21.5862867 8.06556826,21.480777 7.878,21.293 L2.707,16.122 C2.51922296,15.9344317 2.41371334,15.6799092 2.41371334,15.4145 C2.41371334,15.1490908 2.51922296,14.8945683 2.707,14.707 L2.707,14.707 Z M17.5,8.5 C18.6045695,8.5 19.5,7.6045695 19.5,6.5 C19.5,5.3954305 18.6045695,4.5 17.5,4.5 C16.3954305,4.5 15.5,5.3954305 15.5,6.5 C15.5,7.6045695 16.3954305,8.5 17.5,8.5 Z" id="Combined-Shape"></path>
        </g>
    </g>
</svg>