<?xml version="1.0" encoding="UTF-8"?>
<svg width="24px" height="24px" viewBox="0 0 24 24" version="1.1" xmlns="http://www.w3.org/2000/svg" xmlns:xlink="http://www.w3.org/1999/xlink">
    <!-- Generator: sketchtool 44.1 (41455) - http://www.bohemiancoding.com/sketch -->
    <title>thumbs-up</title>
    <desc>Created with sketchtool.</desc>
    <defs></defs>
    <g id="Symbols" stroke="none" stroke-width="1" fill="none" fill-rule="evenodd">
        <g id="thumbs-up" fill-rule="nonzero" fill="#000000">
            <path d="M8,20 C8.73551687,19.9239345 9.47881599,19.9942879 10.187,20.207 L10.919,20.573 C11.4743473,20.8516041 12.0866902,20.9977586 12.708,21 L17.662,21 C20.0781186,20.9998814 22.1485148,19.2720961 22.581,16.895 L22.808,13.24 C22.8741648,12.1392404 22.4829627,11.0599963 21.7268369,10.2572989 C20.9707111,9.45460149 19.9167462,8.99966738 18.814,9 L16,9 L16,6 C16,3.790861 14.209139,2 12,2 L11.246,2 L9.452,8.275 C9.32929279,8.70400431 8.93720816,8.99980177 8.491,9 L1,9 L1,22 L8,22 L8,20 Z M8.491,11 C9.82918501,10.9958195 11.004262,10.1095222 11.376,8.824 L12.717,4.133 C13.4898664,4.42980104 13.9999754,5.17210311 14,6 L14,11 L18.814,11 C19.3658942,10.9990056 19.893669,11.2261109 20.2723907,11.6275559 C20.6511125,12.0290009 20.8471146,12.5690992 20.814,13.12 L20.6,16.591 C20.3187202,17.9908402 19.0898196,18.9984718 17.662,19 L12.708,19 C12.3973746,18.9997329 12.0910336,18.9275117 11.813,18.789 L11.081,18.423 C10.5,18.133 9.942,18.024 8,18 L8,11 L8.491,11 Z M6,20 L3,20 L3,11 L6,11 L6,20 Z" id="Shape"></path>
        </g>
    </g>
</svg>