<?xml version="1.0" encoding="UTF-8"?>
<svg width="24px" height="24px" viewBox="0 0 24 24" version="1.1" xmlns="http://www.w3.org/2000/svg" xmlns:xlink="http://www.w3.org/1999/xlink">
    <!-- Generator: sketchtool 49.1 (51147) - http://www.bohemiancoding.com/sketch -->
    <title>thumbs-down</title>
    <desc>Created with sketchtool.</desc>
    <defs></defs>
    <g id="Icons" stroke="none" stroke-width="1" fill="none" fill-rule="evenodd">
        <g id="thumbs-down" fill="#000000" fill-rule="nonzero">
            <path d="M8,15 L8.491,15 C8.93785859,14.9998792 9.33056076,15.2962428 9.453,15.726 L11.246,22 L12,22 C14.209139,22 16,20.209139 16,18 L16,15 L18.814,15 C19.9165725,15.0000569 20.9702733,14.5450024 21.7261797,13.742337 C22.482086,12.9396716 22.8731543,11.860586 22.807,10.76 L22.6,7.225 L22.586,7.106 C22.1536054,4.72665015 20.0803188,2.99778849 17.662,3 L12.708,3 C12.0873826,3.00048012 11.4753381,3.14493357 10.92,3.422 L10.186,3.789 C9.955,3.9 9.578,4 7.292,4 L1,4 L1,17 L8,17 L8,15 Z M11.08,5.578 L11.814,5.211 C12.0917436,5.0726728 12.3977167,5.00045765 12.708,5 L17.662,5 C19.0898196,5.00152815 20.3187202,6.00915976 20.6,7.409 L20.808,10.881 C20.8411146,11.4319008 20.6451125,11.9719991 20.2663907,12.3734441 C19.887669,12.7748891 19.3598942,13.0019944 18.808,13.001 L16,13.001 L16,11.858 C16,11.3057153 15.5522847,10.858 15,10.858 C14.4477153,10.858 14,11.3057153 14,11.858 L14,18 C13.9998165,18.8281481 13.4892598,19.570523 12.716,19.867 L11.376,15.176 C11.004262,13.8904778 9.82918501,13.0041805 8.491,13 L8,13 L8,6 C9.943,5.976 10.5,5.867 11.08,5.578 L11.08,5.578 Z M6,15 L3,15 L3,6 L6,6 L6,15 Z" id="Shape"></path>
        </g>
    </g>
</svg>