<?xml version="1.0" encoding="UTF-8"?>
<svg width="16px" height="16px" viewBox="0 0 16 16" version="1.1" xmlns="http://www.w3.org/2000/svg" xmlns:xlink="http://www.w3.org/1999/xlink">
    <!-- Generator: sketchtool 49.1 (51147) - http://www.bohemiancoding.com/sketch -->
    <title>thumbs-down-16</title>
    <desc>Created with sketchtool.</desc>
    <defs></defs>
    <g id="Icons" stroke="none" stroke-width="1" fill="none" fill-rule="evenodd">
        <g id="thumbs-down-16" fill="#000000" fill-rule="nonzero">
            <path d="M6,10 L6.48,10 C6.51916134,10.0006492 6.55433869,10.0241008 6.57,10.06 L8.57,15 L9.16,15 C9.92912782,15 10.6667542,14.6944652 11.2106097,14.1506097 C11.7544652,13.6067542 12.06,12.8691278 12.06,12.1 L12.06,11 L13,11 C13.8295965,10.984873 14.6174852,10.6335027 15.1830905,10.0264197 C15.7486958,9.41933674 16.0435227,8.60859211 16,7.78 L15.72,4.21 L15.72,4.06 C15.2496354,2.27905853 13.651787,1.02856841 11.81,1 L10.1,1 C9.33204321,1.03555572 8.58262814,1.24771889 7.91,1.62 L7.6,1.77 C7.16855171,1.98637185 6.69266343,2.09935252 6.21,2.1 L6,2.1 L6,2 L1,2 L1,11 L6,11 L6,10 Z M6.21,3.9 C6.97037468,3.89822566 7.71999034,3.72023473 8.4,3.38 L8.71,3.22 C9.13705432,2.98005945 9.61153244,2.83669196 10.1,2.8 L11.81,2.8 C12.7896796,2.83306583 13.6407485,3.48341096 13.93,4.42 L14.2,7.92 C14.213956,8.24784846 14.0907626,8.5667019 13.86,8.8 C13.6404248,9.04577268 13.3294324,9.19042033 13,9.2 L12.06,9.2 L12.06,9 C12.06,8.50294373 11.6570563,8.1 11.16,8.1 C10.6629437,8.1 10.26,8.50294373 10.26,9 L10.26,12.1 C10.2774504,12.5098067 10.0654387,12.8952824 9.71,13.1 L8.24,9.39 C7.95289222,8.66993123 7.25519458,8.19819249 6.48,8.2 L6,8.2 L6,3.9 L6.21,3.9 Z M2.8,3.8 L4.2,3.8 L4.2,8.71 C4.13697625,8.83052547 4.10274714,8.96401899 4.1,9.1 C4.09801411,9.13330376 4.09801411,9.16669624 4.1,9.2 L2.8,9.2 L2.8,3.8 Z" id="Shape"></path>
        </g>
    </g>
</svg>