<?xml version="1.0" encoding="UTF-8"?>
<svg width="24px" height="24px" viewBox="0 0 24 24" version="1.1" xmlns="http://www.w3.org/2000/svg" xmlns:xlink="http://www.w3.org/1999/xlink">
    <!-- Generator: sketchtool 44.1 (41455) - http://www.bohemiancoding.com/sketch -->
    <title>timer</title>
    <desc>Created with sketchtool.</desc>
    <defs></defs>
    <g id="Symbols" stroke="none" stroke-width="1" fill="none" fill-rule="evenodd">
        <g id="timer" fill-rule="nonzero" fill="#000000">
            <path d="M5.732,21.324 C6.23214046,22.3517322 7.27603638,23.002856 8.419,23 L15.581,23 C16.7239636,23.002856 17.7678595,22.3517322 18.268,21.324 C18.784249,20.2892778 18.6634382,19.0504824 17.957,18.135 L13.26,12 L17.96,5.866 C18.6666153,4.950206 18.7874251,3.71103085 18.271,2.676 C17.7703883,1.64729062 16.725045,0.995991256 15.581,1 L8.419,1 C7.27603638,0.997144018 6.23214046,1.64826779 5.732,2.676 C5.21557488,3.71103085 5.33638475,4.950206 6.043,5.866 L6.043,5.866 L10.74,12 L6.04,18.134 C5.33436549,19.0503942 5.21472461,20.2895318 5.732,21.324 L5.732,21.324 Z M7.525,3.562 C7.68815515,3.21657774 8.03699375,2.99728546 8.419,3 L15.581,3 C15.9630062,2.99728546 16.3118449,3.21657774 16.475,3.562 C16.6549414,3.91415386 16.6139641,4.33875614 16.37,4.65 L13.8,8 L10.2,8 L7.631,4.65 L7.631,4.65 C7.38670942,4.33895961 7.34534065,3.91434434 7.525,3.562 L7.525,3.562 Z M12,13.645 L16.1,19 L7.9,19 L12,13.645 Z M12.01,18 C12.5622847,18 13.01,17.5522847 13.01,17 C13.01,16.4477153 12.5622847,16 12.01,16 L12,16 C11.6427344,16.0017863 11.3135604,16.1940359 11.1364746,16.5043301 C10.9593888,16.8146244 10.9612948,17.1958222 11.1414746,17.5043301 C11.3216544,17.812838 11.6527344,18.0017863 12.01,18 L12.01,18 Z" id="Combined-Shape"></path>
        </g>
    </g>
</svg>