<?xml version="1.0" encoding="UTF-8"?>
<svg width="16px" height="16px" viewBox="0 0 16 16" version="1.1" xmlns="http://www.w3.org/2000/svg" xmlns:xlink="http://www.w3.org/1999/xlink">
    <!-- Generator: sketchtool 49.1 (51147) - http://www.bohemiancoding.com/sketch -->
    <title>truck-cross-16</title>
    <desc>Created with sketchtool.</desc>
    <defs></defs>
    <g id="Icons" stroke="none" stroke-width="1" fill="none" fill-rule="evenodd">
        <g id="truck-cross-16" fill="#000000" fill-rule="nonzero">
            <path d="M1.64,6.64 L3.5,4.77 L5.36,6.64 C5.58864998,6.86864998 5.92191458,6.95794797 6.23425626,6.87425627 C6.54659795,6.79056457 6.79056457,6.54659795 6.87425627,6.23425626 C6.95794797,5.92191458 6.86864998,5.58864998 6.64,5.36 L4.77,3.5 L6.64,1.64 C6.99346224,1.28653776 6.99346224,0.71346224 6.64,0.36 C6.28653776,0.00653776011 5.71346224,0.00653776011 5.36,0.36 L3.5,2.23 L1.64,0.36 C1.28653776,0.0065377691 0.713462246,0.00653777337 0.36000001,0.36000001 C0.00653777337,0.713462246 0.0065377691,1.28653776 0.36,1.64 L2.23,3.5 L0.36,5.36 C0.00653776011,5.71346224 0.00653776011,6.28653776 0.36,6.64 C0.71346224,6.99346224 1.28653776,6.99346224 1.64,6.64 L1.64,6.64 Z" id="Shape"></path>
            <path d="M12.1,4.99999989 L11,4.99999989 L11,4.89999989 C10.9460478,3.28232449 9.61857466,1.99910055 8,2 C7.50294373,2 7.1,2.40294371 7.1,2.89999997 C7.1,3.39705622 7.50294373,3.79999993 8,3.79999993 C8.62557548,3.79782432 9.14787218,4.27659627 9.2,4.89999989 L9.2,8.99999975 C9.2,9.497056 9.60294373,9.89999971 10.1,9.89999971 C10.5970563,9.89999971 11,9.497056 11,8.99999975 L11,6.79999983 L12,6.79999983 L12,8.99999975 L13.2,8.99999975 L13.2,11.1999997 L2.8,11.1999997 L2.8,8.99999975 C2.8,8.50294349 2.39705627,8.09999978 1.9,8.09999978 C1.40294373,8.09999978 1,8.50294349 1,8.99999975 L1,12.9999996 L3,12.9999996 C3,14.1045691 3.8954305,14.9999995 5,14.9999995 C6.1045695,14.9999995 7,14.1045691 7,12.9999996 L9,12.9999996 C9,14.1045691 9.8954305,14.9999995 11,14.9999995 C12.1045695,14.9999995 13,14.1045691 13,12.9999996 L15,12.9999996 L15,7.89999979 C15,6.29837407 13.7016258,4.99999989 12.1,4.99999989 L12.1,4.99999989 Z" id="Shape"></path>
        </g>
    </g>
</svg>