<?xml version="1.0" encoding="UTF-8"?>
<svg width="24px" height="24px" viewBox="0 0 24 24" version="1.1" xmlns="http://www.w3.org/2000/svg" xmlns:xlink="http://www.w3.org/1999/xlink">
    <!-- Generator: sketchtool 49.1 (51147) - http://www.bohemiancoding.com/sketch -->
    <title>truck-timer</title>
    <desc>Created with sketchtool.</desc>
    <defs></defs>
    <g id="Icons" stroke="none" stroke-width="1" fill="none" fill-rule="evenodd">
        <g id="truck-timer" fill="#000000" fill-rule="nonzero">
            <path d="M9.891,12.454 C10.0615184,12.1187016 10.0294475,11.7160765 9.808,11.412 L6.236,6.5 L9.809,1.588 C10.0301537,1.28377796 10.0619042,0.881194557 9.89117429,0.546065803 C9.72044434,0.21093705 9.37611168,-5.23094446e-05 9,3.44169138e-14 L1,3.44169138e-14 C0.623888322,-5.23094446e-05 0.279555656,0.21093705 0.108825706,0.546065803 C-0.0619042448,0.881194557 -0.0301536726,1.28377796 0.191,1.588 L3.764,6.5 L0.191,11.412 C-0.0301536726,11.716222 -0.0619042448,12.1188054 0.108825706,12.4539342 C0.279555656,12.7890629 0.623888322,13.0000523 1,13 L9,13 C9.37603445,12.9999994 9.72028036,12.7890473 9.891,12.454 Z M2.964,2 L7.036,2 L5,4.8 L2.964,2 Z M18,8 C20.209139,8 22,9.790861 22,12 L22,19 L20,19 C20,20.6568542 18.6568542,22 17,22 C15.3431458,22 14,20.6568542 14,19 L10,19 C9.99999998,20.6568542 8.65685423,22 7,22 C5.34314577,22 4.00000002,20.6568542 4,19 L2,19 L2,16 C2,15.4477153 2.44771525,15 3,15 C3.55228475,15 4,15.4477153 4,16 L4,17 L20,17 L20,14 L18,14 L18,10 L16,10 L16,14 C16,14.5522847 15.5522847,15 15,15 C14.4477153,15 14,14.5522847 14,14 L14,7 C14,6.44771525 13.5522847,6 13,6 L12,6 C11.4477153,6 11,5.55228475 11,5 C11,4.44771525 11.4477153,4 12,4 L13,4 C14.6568542,4 16,5.34314575 16,7 L16,8 L18,8 Z" id="Combined-Shape"></path>
        </g>
    </g>
</svg>