<?xml version="1.0" encoding="UTF-8"?>
<svg width="16px" height="16px" viewBox="0 0 16 16" version="1.1" xmlns="http://www.w3.org/2000/svg" xmlns:xlink="http://www.w3.org/1999/xlink">
    <!-- Generator: sketchtool 49.1 (51147) - http://www.bohemiancoding.com/sketch -->
    <title>truck-timer-16</title>
    <desc>Created with sketchtool.</desc>
    <defs></defs>
    <g id="Icons" stroke="none" stroke-width="1" fill="none" fill-rule="evenodd">
        <g id="truck-timer-16" fill="#000000" fill-rule="nonzero">
            <path d="M6.9,9.58 C7.05073363,9.32744773 7.05073363,9.01255227 6.9,8.76 L4.45,5 L6.87,1.23 C7.0265622,0.984386033 7.03726138,0.673088964 6.89793206,0.417305298 C6.75860275,0.161521632 6.49126471,0.00167573178 6.2,0 L0.8,0 C0.508735286,0.00167573178 0.241397249,0.161521632 0.102067935,0.417305298 C-0.0372613787,0.673088964 -0.0265621951,0.984386033 0.13,1.23 L2.55,5 L0.13,8.77 C-0.0265621951,9.01561397 -0.0372613787,9.32691104 0.102067935,9.5826947 C0.241397249,9.83847837 0.508735286,9.99832427 0.8,10 L6.2,10 C6.49258092,9.99853927 6.76102598,9.83747223 6.9,9.58 Z M2.26,1.58 L4.73,1.58 L3.5,3.52 L2.26,1.58 Z" id="Shape"></path>
            <path d="M12.2,5 L11.1,5 L11.1,4.9 C11.0565578,3.62760205 10.2147304,2.52120041 9,2.14 C8.53979891,2.02404263 8.06863869,2.28536033 7.92332572,2.73715155 C7.77801276,3.18894276 8.00848912,3.67593305 8.45,3.85 C8.91047281,3.97658797 9.24479327,4.37458852 9.29,4.85 L9.29,9 C9.29,9.49705627 9.69294373,9.9 10.19,9.9 C10.6870563,9.9 11.09,9.49705627 11.09,9 L11.09,6.8 L12.09,6.8 L12.09,9 L13.29,9 L13.29,11.2 L2,11.2 C1.50294373,11.2 1.1,11.6029437 1.1,12.1 C1.1,12.5970563 1.50294373,13 2,13 L3,13 C3,14.1045695 3.8954305,15 5,15 C6.1045695,15 7,14.1045695 7,13 L9.1,13 C9.1,14.1045695 9.9954305,15 11.1,15 C12.2045695,15 13.1,14.1045695 13.1,13 L15.1,13 L15.1,7.9 C15.1,6.29837423 13.8016258,5 12.2,5 L12.2,5 Z" id="Shape"></path>
        </g>
    </g>
</svg>