<?xml version="1.0" encoding="UTF-8"?>
<svg width="24px" height="24px" viewBox="0 0 24 24" version="1.1" xmlns="http://www.w3.org/2000/svg" xmlns:xlink="http://www.w3.org/1999/xlink">
    <!-- Generator: sketchtool 49.1 (51147) - http://www.bohemiancoding.com/sketch -->
    <title>truck-free</title>
    <desc>Created with sketchtool.</desc>
    <defs></defs>
    <g id="Icons" stroke="none" stroke-width="1" fill="none" fill-rule="evenodd">
        <g id="truck-free" fill="#000000" fill-rule="nonzero">
            <path d="M18,8 L15,8 C14.4477153,8 14,8.44771525 14,9 L14,14 C14,14.5522847 14.4477153,15 15,15 C15.5522847,15 16,14.5522847 16,14 L16,10 L18,10 L18,14 L20,14 L20,17 L10,17 L10,7 L13,7 C14.6568542,7 16,5.65685425 16,4 C16,2.34314575 14.6568542,1 13,1 C11.3431458,1 10,2.34314575 10,4 L10,5 C10,4.44771525 9.55228475,4 9,4 C8.44771525,4 8,4.44771525 8,5 L8,3.5 C8,1.56700338 6.43299662,1.18361906e-16 4.5,0 C2.56700338,-1.18361906e-16 1,1.56700338 1,3.5 C1,5.43299662 2.56700338,7 4.5,7 L8,7 L8,17 L4,17 L4,9 C4,8.44771525 3.55228475,8 3,8 C2.44771525,8 2,8.44771525 2,9 L2,19 L4,19 C4.00000002,20.6568542 5.34314577,22 7,22 C8.65685423,22 9.99999998,20.6568542 10,19 L14,19 C14,20.6568542 15.3431458,22 17,22 C18.6568542,22 20,20.6568542 20,19 L22,19 L22,12 C22,9.790861 20.209139,8 18,8 Z M12,4 C12,3.44771525 12.4477153,3 13,3 C13.5522847,3 14,3.44771525 14,4 C14,4.55228475 13.5522847,5 13,5 L12,5 L12,4 Z M6,5 L4.5,5 C3.67157288,5 3,4.32842712 3,3.5 C3,2.67157288 3.67157288,2 4.5,2 C5.32842712,2 6,2.67157288 6,3.5 L6,5 Z" id="Shape"></path>
        </g>
    </g>
</svg>