<?xml version="1.0" encoding="UTF-8"?>
<svg width="16px" height="16px" viewBox="0 0 16 16" version="1.1" xmlns="http://www.w3.org/2000/svg" xmlns:xlink="http://www.w3.org/1999/xlink">
    <!-- Generator: sketchtool 49.1 (51147) - http://www.bohemiancoding.com/sketch -->
    <title>truck-16</title>
    <desc>Created with sketchtool.</desc>
    <defs></defs>
    <g id="Icons" stroke="none" stroke-width="1" fill="none" fill-rule="evenodd">
        <g id="truck-16" fill="#000000" fill-rule="nonzero">
            <path d="M12.1,4.99999989 L11,4.99999989 L11,4.89999989 C10.9460478,3.28232449 9.61857466,1.99910055 8,2 L1,2 L1,12.9999996 L3,12.9999996 C3,14.1045691 3.8954305,14.9999995 5,14.9999995 C6.1045695,14.9999995 7,14.1045691 7,12.9999996 L9,12.9999996 C9,14.1045691 9.8954305,14.9999995 11,14.9999995 C12.1045695,14.9999995 13,14.1045691 13,12.9999996 L15,12.9999996 L15,7.89999979 C15,6.29837407 13.7016258,4.99999989 12.1,4.99999989 L12.1,4.99999989 Z M2.8,11.2 L2.8,3.8 L8,3.8 C8.62937484,3.7878902 9.15743911,4.27194912 9.2,4.9 L9.2,9 C9.2,9.49705627 9.60294373,9.9 10.1,9.9 C10.5970563,9.9 11,9.49705627 11,9 L11,6.8 L12,6.8 L12,9 L13.2,9 L13.2,11.2 L2.8,11.2 Z" id="Shape"></path>
        </g>
    </g>
</svg>