<?xml version="1.0" encoding="UTF-8"?>
<svg width="16px" height="16px" viewBox="0 0 16 16" version="1.1" xmlns="http://www.w3.org/2000/svg" xmlns:xlink="http://www.w3.org/1999/xlink">
    <!-- Generator: sketchtool 44.1 (41455) - http://www.bohemiancoding.com/sketch -->
    <title>truck-free-16</title>
    <desc>Created with sketchtool.</desc>
    <defs></defs>
    <g id="Symbols" stroke="none" stroke-width="1" fill="none" fill-rule="evenodd">
        <g id="truck-free-16" fill-rule="nonzero" fill="#000000">
            <path d="M7,2.76 L7,5 L9.24,5 C10.2696051,4.86684375 11.0261381,3.96802842 10.9816437,2.93080252 C10.9371493,1.89357662 10.1064234,1.06285072 9.06919748,1.01835633 C8.03197158,0.973861944 7.13315625,1.73039487 7,2.76 L7,2.76 Z M9.4,3 C9.4,3.2209139 9.2209139,3.4 9,3.4 L8.6,3.4 L8.6,3 C8.6,2.7790861 8.7790861,2.6 9,2.6 C9.2209139,2.6 9.4,2.7790861 9.4,3 L9.4,3 Z" id="Shape"></path>
            <path d="M12.1,5 L10.1,5 C9.86130516,5 9.63238664,5.09482116 9.4636039,5.2636039 C9.29482116,5.43238664 9.2,5.66130516 9.2,5.9 L9.2,9 C9.2,9.49705627 9.60294373,9.9 10.1,9.9 C10.5970563,9.9 11,9.49705627 11,9 L11,6.8 L12,6.8 L12,9 L13.2,9 L13.2,11.2 L7,11.2 L7,3 C7,2.44771525 6.55228475,2 6,2 C5.44771525,2 5,2.44771525 5,3 L5,2.16 L5,2.16 C4.81120261,0.88819893 3.68852519,-0.0330203229 2.40433815,0.0301151211 C1.12015112,0.0932505651 0.0932505651,1.12015112 0.0301151211,2.40433815 C-0.0330203229,3.68852519 0.88819893,4.81120261 2.16,5 L5,5 L5,11.2 L2.8,11.2 L2.8,7 C2.8,6.50294373 2.39705627,6.1 1.9,6.1 C1.40294373,6.1 1,6.50294373 1,7 L1,13 L3,13 C3,14.1045695 3.8954305,15 5,15 C6.1045695,15 7,14.1045695 7,13 L9,13 C9,14.1045695 9.8954305,15 11,15 C12.1045695,15 13,14.1045695 13,13 L15,13 L15,7.9 C15,6.29837423 13.7016258,5 12.1,5 L12.1,5 Z M3.4,3.4 L2.5,3.4 C2.00294373,3.4 1.6,2.99705627 1.6,2.5 C1.6,2.00294373 2.00294373,1.6 2.5,1.6 C2.99705627,1.6 3.4,2.00294373 3.4,2.5 L3.4,3.4 Z" id="Shape"></path>
        </g>
    </g>
</svg>