<?xml version="1.0" encoding="UTF-8"?>
<svg width="16px" height="16px" viewBox="0 0 16 16" version="1.1" xmlns="http://www.w3.org/2000/svg" xmlns:xlink="http://www.w3.org/1999/xlink">
    <!-- Generator: sketchtool 49.1 (51147) - http://www.bohemiancoding.com/sketch -->
    <title>upload-16</title>
    <desc>Created with sketchtool.</desc>
    <defs></defs>
    <g id="Icons" stroke="none" stroke-width="1" fill="none" fill-rule="evenodd">
        <g id="upload-16" fill="#000000" fill-rule="nonzero">
            <path d="M6,15 C6.49705627,15 6.9,14.5970563 6.9,14.1 L6.9,12.17 L7.36,12.63 C7.71656775,12.9421968 8.25414791,12.9243828 8.58926535,12.5892654 C8.9243828,12.2541479 8.9421968,11.7165677 8.63,11.36 L6,8.73 L3.36,11.36 C3.0478032,11.7165677 3.0656172,12.2541479 3.40073465,12.5892654 C3.73585209,12.9243828 4.27343225,12.9421968 4.63,12.63 L5.09,12.17 L5.09,14.1 C5.08998516,14.3404376 5.1861778,14.5708847 5.35712955,14.7399579 C5.52808131,14.9090311 5.75957724,15.0026715 6,15 Z" id="Shape"></path>
            <path d="M12.06,5.07 C11.5227614,5.07081201 10.9915456,5.18318457 10.5,5.4 C9.67588582,3.34060514 7.67815721,1.99293107 5.46,2 C3.56804108,2.01717264 1.81721181,3.00387212 0.822657452,4.61342642 C-0.17189691,6.22298073 -0.271063265,8.23025376 0.56,9.93 C0.778152476,10.3773506 1.31764935,10.5631525 1.765,10.345 C2.21235065,10.1268475 2.39815248,9.58735065 2.18,9.14 C1.62156617,7.99853273 1.68619761,6.65066739 2.35128711,5.56786924 C3.01637661,4.48507109 4.18938136,3.81800434 5.46,3.8 C7.2988862,3.80167163 8.84771772,5.17459707 9.07,7 C9.1194536,7.33210792 9.34966823,7.60907135 9.66714055,7.71839957 C9.98461286,7.82772778 10.3365461,7.75123911 10.58,7.52 C10.9737804,7.13713522 11.5007784,6.922034 12.05,6.92 C13.1886856,6.99743289 14.0727757,7.94368468 14.0727757,9.085 C14.0727757,10.2263153 13.1886856,11.1725671 12.05,11.25 C11.5529437,11.25 11.15,11.6529437 11.15,12.15 C11.15,12.6470563 11.5529437,13.05 12.05,13.05 C14.1444052,12.9042857 15.7697445,11.1641247 15.7723754,9.06465837 C15.7750063,6.96519201 14.1540334,5.220963 12.06,5.07 Z" id="Shape"></path>
        </g>
    </g>
</svg>