<?xml version="1.0" encoding="UTF-8"?>
<svg width="16px" height="16px" viewBox="0 0 16 16" version="1.1" xmlns="http://www.w3.org/2000/svg" xmlns:xlink="http://www.w3.org/1999/xlink">
    <!-- Generator: sketchtool 49.1 (51147) - http://www.bohemiancoding.com/sketch -->
    <title>vehicle-car-16</title>
    <desc>Created with sketchtool.</desc>
    <defs></defs>
    <g id="Icons" stroke="none" stroke-width="1" fill="none" fill-rule="evenodd">
        <g id="vehicle-car-16" fill="#000000" fill-rule="nonzero">
            <path d="M13.1,7 L12.58,7 L12,6.18 C11.0601789,4.81930989 9.51369779,4.00497924 7.86,4 L6.16,4 C4.4534547,3.98824439 2.92739929,5.06049911 2.36,6.67 L2.22,7.09 C0.905455603,7.44394047 -0.00597472347,8.63865319 3.33056743e-16,10 L3.33056743e-16,13 L2.24,13 C2.58091495,13.620067 3.23239407,14.0053343 3.94,14.0053343 C4.64760593,14.0053343 5.29908505,13.620067 5.64,13 L10.36,13 C10.7009149,13.620067 11.3523941,14.0053343 12.06,14.0053343 C12.7676059,14.0053343 13.4190851,13.620067 13.76,13 L16,13 L16,10 C16.0008994,8.38142534 14.7176755,7.05395225 13.1,7 Z M14.2,11.2 L13.83,11.2 C13.5377421,10.4793048 12.8376994,10.0077743 12.06,10.0077743 C11.2823006,10.0077743 10.5822579,10.4793048 10.29,11.2 L5.71,11.2 C5.40132781,10.4916817 4.71226423,10.02452 3.94,10 C3.16773577,10.02452 2.47867219,10.4916817 2.17,11.2 L1.8,11.2 L1.8,10 C1.79782438,9.37442452 2.27659635,8.85212782 2.9,8.8 L3.55,8.8 L4.07,7.24 C4.39893588,6.37169584 5.23148117,5.79807612 6.16,5.8 L7.86,5.8 C8.92432083,5.79794065 9.92347353,6.31242972 10.54,7.18 L11.62,8.8 L13.1,8.8 C13.7234036,8.85212782 14.2021756,9.37442452 14.2,10 L14.2,11.2 L14.2,11.2 Z" id="Shape"></path>
            <path d="M9,7.2 L6,7.2 C5.50294373,7.2 5.1,7.60294373 5.1,8.1 C5.1,8.59705627 5.50294373,9 6,9 L9,9 C9.49705627,9 9.9,8.59705627 9.9,8.1 C9.9,7.60294373 9.49705627,7.2 9,7.2 Z" id="Shape"></path>
        </g>
    </g>
</svg>