<?xml version="1.0" encoding="UTF-8"?>
<svg width="24px" height="24px" viewBox="0 0 24 24" version="1.1" xmlns="http://www.w3.org/2000/svg" xmlns:xlink="http://www.w3.org/1999/xlink">
    <!-- Generator: sketchtool 44.1 (41455) - http://www.bohemiancoding.com/sketch -->
    <title>vehicle-boat</title>
    <desc>Created with sketchtool.</desc>
    <defs></defs>
    <g id="Symbols" stroke="none" stroke-width="1" fill="none" fill-rule="evenodd">
        <g id="vehicle-boat" fill-rule="nonzero" fill="#000000">
            <path d="M23.37,16.0712708 L21.16,15.1912708 C22.9843782,13.6562119 24.0262368,11.3854002 24,9.00127081 L24,7.89127081 L18.82,8.42127081 L16.27,5.36127081 C16.04135,5.0861763 15.6833076,4.95396179 15.3307437,5.01443123 C14.9781799,5.07490066 14.6846576,5.31886729 14.5607437,5.65443124 C14.4368299,5.98999519 14.50135,6.36617631 14.73,6.64127081 L16.42,8.67127081 L6.5,9.68127081 C5.1251032,9.85989394 3.940755,10.7377495 3.37,12.0012708 L2,12.0012708 L2,11.4812708 C2,10.9289861 1.55228475,10.4812708 1,10.4812708 C0.44771525,10.4812708 6.76353751e-17,10.9289861 0,11.4812708 L0,16.4112708 L1.93,17.4612708 C3.21367875,18.121633 4.72111206,18.1909822 6.06,17.6512708 L7.89,16.9212708 C8.60158442,16.6312534 9.39841558,16.6312534 10.11,16.9212708 L12.14,17.7312708 C13.3335283,18.2113746 14.6664717,18.2113746 15.86,17.7312708 L17.89,16.9212708 C18.6015844,16.6312534 19.3984156,16.6312534 20.11,16.9212708 L22.63,17.9312708 C23.1435687,18.1320096 23.7230723,17.8823773 23.93,17.3712708 C24.0300602,17.1247807 24.0271408,16.8484678 23.9218949,16.6041469 C23.8166489,16.3598259 23.6178601,16.1678876 23.37,16.0712708 L23.37,16.0712708 Z M3,15.7762708 L2,15.2212708 L2,14.0012708 L3,14.0012708 L3,15.7762708 Z M19.19,14.1412708 C18.9736613,14.2748499 18.816328,14.4858194 18.75,14.7312708 C18.1994616,14.7570666 17.6562931,14.8683993 17.14,15.0612708 L15.11,15.8812708 C14.3964785,16.1612284 13.6035215,16.1612284 12.89,15.8812708 L10.86,15.0612708 C9.66452658,14.5913221 8.33547342,14.5913221 7.14,15.0612708 L5.31,15.7912708 C5.21000566,15.8317623 5.10613173,15.8619192 5,15.8812708 L5,13.6512708 C4.99600595,12.6498737 5.73712017,11.801662 6.73,11.6712708 L21.9,10.1212708 C21.6290728,11.7935194 20.6385331,13.2628809 19.19,14.1412708 L19.19,14.1412708 Z" id="Shape"></path>
        </g>
    </g>
</svg>