<?xml version="1.0" encoding="UTF-8"?>
<svg width="24px" height="24px" viewBox="0 0 24 24" version="1.1" xmlns="http://www.w3.org/2000/svg" xmlns:xlink="http://www.w3.org/1999/xlink">
    <!-- Generator: sketchtool 44.1 (41455) - http://www.bohemiancoding.com/sketch -->
    <title>vehicle-car</title>
    <desc>Created with sketchtool.</desc>
    <defs></defs>
    <g id="Symbols" stroke="none" stroke-width="1" fill="none" fill-rule="evenodd">
        <g id="vehicle-car" fill-rule="nonzero" fill="#000000">
            <path d="M20,10 L18.5,10 L17.6,8.8 C16.2745197,7.04155755 14.2020421,6.00531877 12,6 L9.9,6 C7.32812268,5.9988893 5.0423825,7.63914933 4.22,10.076 C2.34940386,10.4506934 1.00235895,12.0922475 1,14 L1,17 L4.184,17 C4.60193031,18.1978743 5.7318123,19.000342 7.0005,19.000342 C8.2691877,19.000342 9.39906969,18.1978743 9.817,17 L15.184,17 C15.6019303,18.1978743 16.7318123,19.000342 18.0005,19.000342 C19.2691877,19.000342 20.3990697,18.1978743 20.817,17 L24,17 L24,14 C24,11.790861 22.209139,10 20,10 Z M22,15 L20.816,15 C20.3980697,13.8021257 19.2681877,12.999658 17.9995,12.999658 C16.7308123,12.999658 15.6009303,13.8021257 15.183,15 L9.816,15 C9.39806969,13.8021257 8.2681877,12.999658 6.9995,12.999658 C5.7308123,12.999658 4.60093031,13.8021257 4.183,15 L3,15 L3,14 C3,12.8954305 3.8954305,12 5,12 L5.781,12 L6.024,11.03 C6.46869752,9.2509271 8.06619199,8.00211176 9.9,8 L12,8 C13.5728978,8.00375469 15.0532576,8.74393458 16,10 L17.5,12 L20,12 C21.1045695,12 22,12.8954305 22,14 L22,15 Z M13,9 L9,9 C8.44771525,9 8,9.44771525 8,10 C8,10.5522847 8.44771525,11 9,11 L13,11 C13.5522847,11 14,10.5522847 14,10 C14,9.44771525 13.5522847,9 13,9 Z" id="Combined-Shape"></path>
        </g>
    </g>
</svg>