<?xml version="1.0" encoding="UTF-8"?>
<svg width="16px" height="16px" viewBox="0 0 16 16" version="1.1" xmlns="http://www.w3.org/2000/svg" xmlns:xlink="http://www.w3.org/1999/xlink">
    <!-- Generator: sketchtool 49.1 (51147) - http://www.bohemiancoding.com/sketch -->
    <title>vehicle-boat-16</title>
    <desc>Created with sketchtool.</desc>
    <defs></defs>
    <g id="Icons" stroke="none" stroke-width="1" fill="none" fill-rule="evenodd">
        <g id="vehicle-boat-16" fill="#000000" fill-rule="nonzero">
            <path d="M10.83,3.45 C10.5060877,3.04787521 9.92927559,2.95848707 9.49884528,3.24371197 C9.06841498,3.52893687 8.92592068,4.09497387 9.17,4.55 L10.44,6.45 L5.62,6.92 C4.13018525,7.05978385 2.99345667,8.31365622 3,9.81 L3,10.81 L1.9,10.37 L1.9,9.9 C1.9,9.40294373 1.49705627,9 1,9 C0.502943725,9 0.1,9.40294373 0.1,9.9 L0.1,12.1 C0.1,12.5970563 0.502943725,13 1,13 C1.41177216,12.9966484 1.7674775,12.7112569 1.86,12.31 L3.86,13.09 C5.26551855,13.6540671 6.83448145,13.6540671 8.24,13.09 L9.53,12.58 C10.4939025,12.2000131 11.5660975,12.2000131 12.53,12.58 L14.67,13.44 C15.1274165,13.6098152 15.6368411,13.3842176 15.8185179,12.9313814 C16.0001947,12.4785453 15.7879483,11.963415 15.34,11.77 L14,11.25 C15.2695284,10.161344 16.0000839,8.57238578 16,6.9 L16,5.9 L12.69,6.22 L10.83,3.45 Z M12.48,10.2 C12.3365654,10.3054236 12.2284752,10.4518683 12.17,10.62 C11.0416035,10.3864882 9.86940482,10.4908382 8.8,10.92 L7.51,11.43 C6.6405208,11.7712222 5.6801336,11.8029997 4.79,11.52 L4.79,9.81 C4.79280577,9.24332384 5.22566279,8.7715097 5.79,8.72 L14.08,7.91 C13.8480198,8.83948961 13.2820423,9.65107999 12.49,10.19 L12.48,10.2 Z" id="Shape"></path>
        </g>
    </g>
</svg>