<?xml version="1.0" encoding="UTF-8"?>
<svg width="16px" height="16px" viewBox="0 0 16 16" version="1.1" xmlns="http://www.w3.org/2000/svg" xmlns:xlink="http://www.w3.org/1999/xlink">
    <!-- Generator: sketchtool 44.1 (41455) - http://www.bohemiancoding.com/sketch -->
    <title>vehicle-motorbike-16</title>
    <desc>Created with sketchtool.</desc>
    <defs></defs>
    <g id="Symbols" stroke="none" stroke-width="1" fill="none" fill-rule="evenodd">
        <g id="vehicle-motorbike-16" fill-rule="nonzero" fill="#000000">
            <path d="M13.23,9 L11.73,2 L9,2 C8.50294373,2 8.1,2.40294373 8.1,2.9 C8.1,3.39705627 8.50294373,3.8 9,3.8 L10.27,3.8 L10.61,5.37 C9.05865615,4.85510775 7.35631129,5.08774924 6,6 L5.73,6.1 L1,6.1 C0.502943725,6.1 0.1,6.50294373 0.1,7 C0.1,7.49705627 0.502943725,7.9 1,7.9 L6.27,7.9 L6.95,7.45 C7.81532869,6.86324598 8.8990875,6.69792684 9.9,7 L5.12,9.88 C4.03841709,8.76593242 2.30359205,8.61320246 1.04399493,9.521158 C-0.215602192,10.4291135 -0.619151601,12.1232482 0.0958477662,13.5015602 C0.810847134,14.8798723 2.42822623,15.5256502 3.89591132,15.0188281 C5.3635964,14.512006 6.23785549,13.0058137 5.95,11.48 L11.24,8.32 L11.48,9.42 C10.2097982,10.1817148 9.68555958,11.7564082 10.2457256,13.1274794 C10.8058917,14.4985505 12.2828096,15.2556496 13.7230009,14.9100037 C15.1631922,14.5643578 16.1356202,13.2194156 16.0124983,11.7434539 C15.8893765,10.2674922 14.7075542,9.10225332 13.23,9 Z M3,13.2 C2.3372583,13.2 1.8,12.6627417 1.8,12 C1.8,11.3372583 2.3372583,10.8 3,10.8 C3.6627417,10.8 4.2,11.3372583 4.2,12 C4.2,12.6627417 3.6627417,13.2 3,13.2 Z M13,13.2 C12.3372583,13.2 11.8,12.6627417 11.8,12 C11.8,11.3372583 12.3372583,10.8 13,10.8 C13.6627417,10.8 14.2,11.3372583 14.2,12 C14.2,12.6627417 13.6627417,13.2 13,13.2 Z" id="Shape"></path>
            <path d="M13,5.18 L13.2,6.18 C13.2853973,6.5983643 13.6530098,6.8991381 14.08,6.9 L14.26,6.9 C14.5047658,6.86159009 14.7228715,6.72397549 14.862914,6.51958922 C15.0029564,6.31520294 15.0525477,6.06212472 15,5.82 L14.8,4.82 C14.7356922,4.49846097 14.5047303,4.23565446 14.1941154,4.13057714 C13.8835006,4.02549981 13.5404225,4.09411543 13.2941154,4.31057714 C13.0478084,4.52703885 12.9356922,4.85846097 13,5.18 L13,5.18 Z" id="Shape"></path>
        </g>
    </g>
</svg>