<?xml version="1.0" encoding="UTF-8"?>
<svg width="16px" height="16px" viewBox="0 0 16 16" version="1.1" xmlns="http://www.w3.org/2000/svg" xmlns:xlink="http://www.w3.org/1999/xlink">
    <!-- Generator: sketchtool 44.1 (41455) - http://www.bohemiancoding.com/sketch -->
    <title>video-pause-16</title>
    <desc>Created with sketchtool.</desc>
    <defs></defs>
    <g id="Symbols" stroke="none" stroke-width="1" fill="none" fill-rule="evenodd">
        <g id="video-pause-16" fill-rule="nonzero" fill="#000000">
            <path d="M5.5,13 C6.34665101,12.978168 7.01678012,12.2767662 7,11.43 L7,4.57 C7.01678012,3.7232338 6.34665101,3.021832 5.5,3 C4.65334899,3.021832 3.98321988,3.7232338 4,4.57 L4,11.43 C3.98321988,12.2767662 4.65334899,12.978168 5.5,13 Z" id="Shape"></path>
            <path d="M10.5,13 C11.346651,12.978168 12.0167801,12.2767662 12,11.43 L12,4.57 C12,3.74157288 11.3284271,3.07 10.5,3.07 C9.67157288,3.07 9,3.74157288 9,4.57 L9,11.43 C8.98321988,12.2767662 9.65334899,12.978168 10.5,13 Z" id="Shape"></path>
        </g>
    </g>
</svg>