<?xml version="1.0" encoding="UTF-8"?>
<svg width="24px" height="24px" viewBox="0 0 24 24" version="1.1" xmlns="http://www.w3.org/2000/svg" xmlns:xlink="http://www.w3.org/1999/xlink">
    <!-- Generator: sketchtool 49.1 (51147) - http://www.bohemiancoding.com/sketch -->
    <title>video-pause</title>
    <desc>Created with sketchtool.</desc>
    <defs></defs>
    <g id="Icons" stroke="none" stroke-width="1" fill="none" fill-rule="evenodd">
        <g id="video-pause" fill="#000000" fill-rule="nonzero">
            <path d="M8,20 C6.8954305,20 6,19.1045695 6,18 L6,6 C6,4.8954305 6.8954305,4 8,4 C9.1045695,4 10,4.8954305 10,6 L10,18 C10,19.1045695 9.1045695,20 8,20 Z M16,20 C14.8954305,20 14,19.1045695 14,18 L14,6 C14,4.8954305 14.8954305,4 16,4 C17.1045695,4 18,4.8954305 18,6 L18,18 C18,19.1045695 17.1045695,20 16,20 Z" id="Combined-Shape"></path>
        </g>
    </g>
</svg>