<?xml version="1.0" encoding="UTF-8"?>
<svg width="16px" height="16px" viewBox="0 0 16 16" version="1.1" xmlns="http://www.w3.org/2000/svg" xmlns:xlink="http://www.w3.org/1999/xlink">
    <!-- Generator: sketchtool 49.1 (51147) - http://www.bohemiancoding.com/sketch -->
    <title>video-backward-16</title>
    <desc>Created with sketchtool.</desc>
    <defs></defs>
    <g id="Icons" stroke="none" stroke-width="1" fill="none" fill-rule="evenodd">
        <g id="video-backward-16" fill="#000000" fill-rule="nonzero">
            <path d="M2,9.6 C1.43937325,9.26217531 1.09757813,8.65453954 1.1,8 C1.09098155,7.33582619 1.43311254,6.71618895 2,6.37 L6.65,3.17 C7.05473476,2.96432314 7.54928877,3.09229458 7.80346231,3.46847141 C8.05763585,3.84464825 7.99183794,4.35123585 7.65,4.65 L2.9,8 L3,8.12 L7.65,11.35 C7.99183794,11.6487642 8.05763585,12.1553518 7.80346231,12.5315286 C7.54928877,12.9077054 7.05473476,13.0356769 6.65,12.83 L2,9.6 Z M7.47,8.8 C7.18215053,8.63653292 7.00431267,8.33102689 7.00431267,8 C7.00431267,7.66897311 7.18215053,7.36346708 7.47,7.2 L13.53,3.14 C13.8272241,2.98031349 14.1849333,2.98127642 14.4812934,3.14256082 C14.7776535,3.30384522 14.9726997,3.60370154 15,3.94 L15,12.06 C14.9726997,12.3962985 14.7776535,12.6961548 14.4812934,12.8574392 C14.1849333,13.0187236 13.8272241,13.0196865 13.53,12.86 L7.47,8.8 Z" id="Combined-Shape"></path>
        </g>
    </g>
</svg>