<?xml version="1.0" encoding="UTF-8"?>
<svg width="24px" height="24px" viewBox="0 0 24 24" version="1.1" xmlns="http://www.w3.org/2000/svg" xmlns:xlink="http://www.w3.org/1999/xlink">
    <!-- Generator: sketchtool 44.1 (41455) - http://www.bohemiancoding.com/sketch -->
    <title>video-forward</title>
    <desc>Created with sketchtool.</desc>
    <defs></defs>
    <g id="Symbols" stroke="none" stroke-width="1" fill="none" fill-rule="evenodd">
        <g id="video-forward" fill-rule="nonzero" fill="#000000">
            <path d="M11.03,4.84261488 C10.7254734,4.64798873 10.5496574,4.30419251 10.5701271,3.94336456 C10.5905968,3.58253661 10.8041666,3.26083017 11.1287508,3.10189337 C11.453335,2.94295657 11.8384208,2.97152366 12.136,3.17661488 L21.581,9.44461488 C22.4689048,9.99613853 23.0057362,10.9700486 22.9979787,12.0152725 C22.9902212,13.0604965 22.4389932,14.0263311 21.543,14.5646149 L12.135,20.8086149 C11.8374749,21.0187313 11.4492356,21.0504583 11.1215443,20.8914345 C10.793853,20.7324108 10.5785437,20.4077906 10.5595032,20.0440495 C10.5404627,19.6803084 10.7207028,19.3349826 11.03,19.1426149 L20.477,12.8746149 C20.7980945,12.696918 20.9981172,12.3595948 21,11.9926149 C21.0031222,11.6402751 20.817801,11.313103 20.514,11.1346149 L11.03,4.84261488 Z M5.029,19.9756149 L5.029,19.9756149 C4.41113595,20.3463375 3.64161937,20.3560469 3.01459831,20.0010316 C2.38757724,19.6460164 1.99999307,18.9811641 2,18.2606149 L2,5.72461488 C1.99999307,5.00406562 2.38757724,4.33921335 3.01459831,3.98419812 C3.64161937,3.62918289 4.41113595,3.63889228 5.029,4.00961488 L15.475,10.2776149 C16.0774242,10.6390581 16.4460321,11.2900794 16.4460321,11.9926149 C16.4460321,12.6951504 16.0774242,13.3461716 15.475,13.7076149 L5.029,19.9756149 Z" id="Combined-Shape"></path>
        </g>
    </g>
</svg>