<?xml version="1.0" encoding="UTF-8"?>
<svg width="16px" height="16px" viewBox="0 0 16 16" version="1.1" xmlns="http://www.w3.org/2000/svg" xmlns:xlink="http://www.w3.org/1999/xlink">
    <!-- Generator: sketchtool 44.1 (41455) - http://www.bohemiancoding.com/sketch -->
    <title>view-full-screen-16</title>
    <desc>Created with sketchtool.</desc>
    <defs></defs>
    <g id="Symbols" stroke="none" stroke-width="1" fill="none" fill-rule="evenodd">
        <g id="view-full-screen-16" fill-rule="nonzero" fill="#000000">
            <path d="M15,1 L10.1,1 C9.60294373,1 9.2,1.40294373 9.2,1.9 C9.2,2.39705627 9.60294373,2.8 10.1,2.8 L11.93,2.8 L9.36,5.36 C9.10736765,5.58119502 8.99888046,5.92463311 9.07860433,6.25081472 C9.1583282,6.57699634 9.41300366,6.8316718 9.73918528,6.91139567 C10.0653669,6.99111954 10.408805,6.88263235 10.63,6.63 L13.2,4.07 L13.2,5.9 C13.2,6.39705627 13.6029437,6.8 14.1,6.8 C14.5970563,6.8 15,6.39705627 15,5.9 L15,1 L15,1 Z" id="Shape"></path>
            <path d="M1.9,6.8 C2.39705627,6.8 2.8,6.39705627 2.8,5.9 L2.8,4.07 L5.36,6.64 C5.71346224,6.99346223 6.28653775,6.99346223 6.63999999,6.63999999 C6.99346223,6.28653775 6.99346223,5.71346224 6.64,5.36 L4.07,2.8 L5.9,2.8 C6.39705627,2.8 6.8,2.39705627 6.8,1.9 C6.8,1.40294373 6.39705627,1 5.9,1 L1,1 L1,5.9 C1,6.39705627 1.40294373,6.8 1.9,6.8 L1.9,6.8 Z" id="Shape"></path>
            <path d="M6.8,14.1 C6.8,13.6029437 6.39705627,13.2 5.9,13.2 L4.07,13.2 L6.63,10.64 C6.85864998,10.4131364 6.94890095,10.0815224 6.86675626,9.77007387 C6.78461156,9.45862535 6.54255093,9.21465873 6.23175626,9.13007387 C5.92096159,9.045489 5.58864998,9.13313635 5.36,9.36 L2.8,11.93 L2.8,10.1 C2.8,9.60294373 2.39705627,9.2 1.9,9.2 C1.40294373,9.2 1,9.60294373 1,10.1 L1,15 L5.9,15 C6.39705627,15 6.8,14.5970563 6.8,14.1 L6.8,14.1 Z" id="Shape"></path>
            <path d="M9.2,14.1 C9.2,14.3386948 9.29482116,14.5676134 9.4636039,14.7363961 C9.63238664,14.9051788 9.86130516,15 10.1,15 L15,15 L15,10.1 C15,9.60294373 14.5970563,9.2 14.1,9.2 C13.6029437,9.2 13.2,9.60294373 13.2,10.1 L13.2,11.93 L10.64,9.36 C10.2834323,9.0478032 9.74585209,9.0656172 9.41073465,9.40073465 C9.0756172,9.73585209 9.0578032,10.2734323 9.37,10.63 L11.93,13.19 L10.1,13.19 C9.8595624,13.1899852 9.62911527,13.2861778 9.46004211,13.4571296 C9.29096894,13.6280813 9.19732847,13.8595772 9.2,14.1 L9.2,14.1 Z" id="Shape"></path>
        </g>
    </g>
</svg>