<?xml version="1.0" encoding="UTF-8"?>
<svg width="24px" height="24px" viewBox="0 0 24 24" version="1.1" xmlns="http://www.w3.org/2000/svg" xmlns:xlink="http://www.w3.org/1999/xlink">
    <!-- Generator: sketchtool 49.1 (51147) - http://www.bohemiancoding.com/sketch -->
    <title>view-sort</title>
    <desc>Created with sketchtool.</desc>
    <defs></defs>
    <g id="Icons" stroke="none" stroke-width="1" fill="none" fill-rule="evenodd">
        <g id="view-sort" fill="#222221" fill-rule="nonzero">
            <path d="M4,7 C3.44771525,7 3,6.55228475 3,6 C3,5.44771525 3.44771525,5 4,5 L20,5 C20.5522847,5 21,5.44771525 21,6 C21,6.55228475 20.5522847,7 20,7 L4,7 Z M17,17.5857864 L17,10 C17,9.44771525 17.4477153,9 18,9 C18.5522847,9 19,9.44771525 19,10 L19,17.5857864 L21.2928932,15.2928932 C21.6834175,14.9023689 22.3165825,14.9023689 22.7071068,15.2928932 C23.0976311,15.6834175 23.0976311,16.3165825 22.7071068,16.7071068 L18,21.4142136 L13.2928932,16.7071068 C12.9023689,16.3165825 12.9023689,15.6834175 13.2928932,15.2928932 C13.6834175,14.9023689 14.3165825,14.9023689 14.7071068,15.2928932 L17,17.5857864 Z M4,12 C3.44771525,12 3,11.5522847 3,11 C3,10.4477153 3.44771525,10 4,10 L12.5,10 C13.0522847,10 13.5,10.4477153 13.5,11 C13.5,11.5522847 13.0522847,12 12.5,12 L4,12 Z M9,15 C9.55228475,15 10,15.4477153 10,16 C10,16.5522847 9.55228475,17 9,17 L4,17 C3.44771525,17 3,16.5522847 3,16 C3,15.4477153 3.44771525,15 4,15 L9,15 Z" id="Combined-Shape"></path>
        </g>
    </g>
</svg>