<?xml version="1.0" encoding="UTF-8"?>
<svg width="24px" height="24px" viewBox="0 0 24 24" version="1.1" xmlns="http://www.w3.org/2000/svg" xmlns:xlink="http://www.w3.org/1999/xlink">
    <!-- Generator: sketchtool 49.1 (51147) - http://www.bohemiancoding.com/sketch -->
    <title>view-gallery-framed</title>
    <desc>Created with sketchtool.</desc>
    <defs></defs>
    <g id="Icons" stroke="none" stroke-width="1" fill="none" fill-rule="evenodd">
        <g id="view-gallery-framed" fill="#000000" fill-rule="nonzero">
            <path d="M19,2 L5,2 C3.34314575,2 2,3.34314575 2,5 L2,19 C2,20.6568542 3.34314575,22 5,22 L19,22 C20.6568542,22 22,20.6568542 22,19 L22,5 C22,3.34314575 20.6568542,2 19,2 L19,2 Z M20,19 C20,19.5522847 19.5522847,20 19,20 L5,20 C4.44771525,20 4,19.5522847 4,19 L4,5 C4,4.44771525 4.44771525,4 5,4 L19,4 C19.5522847,4 20,4.44771525 20,5 L20,19 Z M6,6.99980749 L6,10.0001925 C6,10.5562834 6.44762906,11 6.99980749,11 L10.0001925,11 C10.5562834,11 11,10.5523709 11,10.0001925 L11,6.99980749 C11,6.44371665 10.5523709,6 10.0001925,6 L6.99980749,6 C6.44371665,6 6,6.44762906 6,6.99980749 Z M13,6.99980749 L13,10.0001925 C13,10.5562834 13.4476291,11 13.9998075,11 L17.0001925,11 C17.5562834,11 18,10.5523709 18,10.0001925 L18,6.99980749 C18,6.44371665 17.5523709,6 17.0001925,6 L13.9998075,6 C13.4437166,6 13,6.44762906 13,6.99980749 Z M6,13.9998075 L6,17.0001925 C6,17.5562834 6.44762906,18 6.99980749,18 L10.0001925,18 C10.5562834,18 11,17.5523709 11,17.0001925 L11,13.9998075 C11,13.4437166 10.5523709,13 10.0001925,13 L6.99980749,13 C6.44371665,13 6,13.4476291 6,13.9998075 Z M13,13.9998075 L13,17.0001925 C13,17.5562834 13.4476291,18 13.9998075,18 L17.0001925,18 C17.5562834,18 18,17.5523709 18,17.0001925 L18,13.9998075 C18,13.4437166 17.5523709,13 17.0001925,13 L13.9998075,13 C13.4437166,13 13,13.4476291 13,13.9998075 Z" id="Combined-Shape"></path>
        </g>
    </g>
</svg>