<?xml version="1.0" encoding="UTF-8"?>
<svg width="24px" height="24px" viewBox="0 0 24 24" version="1.1" xmlns="http://www.w3.org/2000/svg" xmlns:xlink="http://www.w3.org/1999/xlink">
    <!-- Generator: sketchtool 44.1 (41455) - http://www.bohemiancoding.com/sketch -->
    <title>view-expand</title>
    <desc>Created with sketchtool.</desc>
    <defs></defs>
    <g id="Symbols" stroke="none" stroke-width="1" fill="none" fill-rule="evenodd">
        <g id="view-expand" fill-rule="nonzero" fill="#000000">
            <path d="M21,10 C20.4477153,10 20,9.55228475 20,9 L20,5.414 L14.707,10.707 C14.4559255,10.9669566 14.0841221,11.0712126 13.7344927,10.9796972 C13.3848632,10.8881817 13.1118183,10.6151368 13.0203028,10.2655073 C12.9287874,9.91587789 13.0330434,9.54407447 13.293,9.293 L18.586,4 L15,4 C14.4477153,4 14,3.55228475 14,3 C14,2.44771525 14.4477153,2 15,2 L22,2 L22,9 C22,9.55228475 21.5522847,10 21,10 Z M2,22 L2,16 C2,15.4477153 2.44771525,15 3,15 C3.55228475,15 4,15.4477153 4,16 L4,18.586 L9.293,13.293 C9.68537889,12.9140278 10.3090848,12.9194476 10.6948186,13.3051814 C11.0805524,13.6909152 11.0859722,14.3146211 10.707,14.707 L5.414,20 L8,20 C8.55228475,20 9,20.4477153 9,21 C9,21.5522847 8.55228475,22 8,22 L2,22 Z" id="Combined-Shape"></path>
        </g>
    </g>
</svg>