<?xml version="1.0" encoding="UTF-8"?>
<svg width="16px" height="16px" viewBox="0 0 16 16" version="1.1" xmlns="http://www.w3.org/2000/svg" xmlns:xlink="http://www.w3.org/1999/xlink">
    <!-- Generator: sketchtool 44.1 (41455) - http://www.bohemiancoding.com/sketch -->
    <title>view-range-16</title>
    <desc>Created with sketchtool.</desc>
    <defs></defs>
    <g id="Symbols" stroke="none" stroke-width="1" fill="none" fill-rule="evenodd">
        <g id="view-range-16" fill-rule="nonzero" fill="#000000">
            <path d="M12.88,4 L11.79,4 C11.3916747,3.09051404 10.4928886,2.50294566 9.5,2.50294566 C8.5071114,2.50294566 7.60832533,3.09051404 7.21,4 L3.13,4 C2.57771525,4 2.13,4.44771525 2.13,5 C2.13,5.55228475 2.57771525,6 3.13,6 L7.21,6 C7.60832533,6.90948596 8.5071114,7.49705434 9.5,7.49705434 C10.4928886,7.49705434 11.3916747,6.90948596 11.79,6 L12.88,6 C13.4322847,6 13.88,5.55228475 13.88,5 C13.88,4.44771525 13.4322847,4 12.88,4 Z" id="Shape"></path>
            <path d="M12.88,10 L8.79,10 C8.39167467,9.09051404 7.4928886,8.50294566 6.5,8.50294566 C5.5071114,8.50294566 4.60832533,9.09051404 4.21,10 L3.13,10 C2.57771525,10 2.13,10.4477153 2.13,11 C2.13,11.5522847 2.57771525,12 3.13,12 L4.21,12 C4.60832533,12.909486 5.5071114,13.4970543 6.5,13.4970543 C7.4928886,13.4970543 8.39167467,12.909486 8.79,12 L12.88,12 C13.4322847,12 13.88,11.5522847 13.88,11 C13.88,10.4477153 13.4322847,10 12.88,10 Z" id="Shape"></path>
        </g>
    </g>
</svg>