<?xml version="1.0" encoding="UTF-8"?>
<svg width="16px" height="16px" viewBox="0 0 16 16" version="1.1" xmlns="http://www.w3.org/2000/svg" xmlns:xlink="http://www.w3.org/1999/xlink">
    <!-- Generator: sketchtool 49.1 (51147) - http://www.bohemiancoding.com/sketch -->
    <title>view-bullet-list-framed-16</title>
    <desc>Created with sketchtool.</desc>
    <defs></defs>
    <g id="Icons" stroke="none" stroke-width="1" fill="none" fill-rule="evenodd">
        <g id="view-bullet-list-framed-16" fill="#000000" fill-rule="nonzero">
            <path d="M2.9,15 L13.1,15 C14.149341,15 15,14.149341 15,13.1 L15,2.9 C15,1.85065898 14.149341,1 13.1,1 L2.9,1 C1.85065898,1 1,1.85065898 1,2.9 L1,13.1 C1,14.149341 1.85065898,15 2.9,15 L2.9,15 Z M2.8,2.9 C2.8,2.84477153 2.84477153,2.8 2.9,2.8 L13.1,2.8 C13.1552285,2.8 13.2,2.84477153 13.2,2.9 L13.2,13.1 C13.2,13.1552285 13.1552285,13.2 13.1,13.2 L2.9,13.2 C2.84477153,13.2 2.8,13.1552285 2.8,13.1 L2.8,2.9 L2.8,2.9 Z" id="Shape"></path>
            <path d="M8,11 L11,11 C11.5522847,11 12,10.5522847 12,10 C12,9.44771525 11.5522847,9 11,9 L8,9 C7.44771525,9 7,9.44771525 7,10 C7,10.5522847 7.44771525,11 8,11 Z" id="Shape"></path>
            <path d="M8,7 L11,7 C11.5522847,7 12,6.55228475 12,6 C12,5.44771525 11.5522847,5 11,5 L8,5 C7.44771525,5 7,5.44771525 7,6 C7,6.55228475 7.44771525,7 8,7 Z" id="Shape"></path>
            <circle id="Oval" cx="5" cy="6" r="1"></circle>
            <circle id="Oval" cx="5" cy="10" r="1"></circle>
        </g>
    </g>
</svg>