<?xml version="1.0" encoding="UTF-8"?>
<svg width="16px" height="16px" viewBox="0 0 16 16" version="1.1" xmlns="http://www.w3.org/2000/svg" xmlns:xlink="http://www.w3.org/1999/xlink">
    <!-- Generator: sketchtool 44.1 (41455) - http://www.bohemiancoding.com/sketch -->
    <title>view-expand-16</title>
    <desc>Created with sketchtool.</desc>
    <defs></defs>
    <g id="Symbols" stroke="none" stroke-width="1" fill="none" fill-rule="evenodd">
        <g id="view-expand-16" fill-rule="nonzero" fill="#000000">
            <path d="M14.1,6.8 C14.5970563,6.8 15,6.39705627 15,5.9 L15,1 L10.1,1 C9.60294373,1 9.2,1.40294373 9.2,1.9 C9.2,2.39705627 9.60294373,2.8 10.1,2.8 L11.93,2.8 L8.36,6.36 C8.00653776,6.71346224 8.00653776,7.28653776 8.36,7.64 C8.71346224,7.99346224 9.28653776,7.99346224 9.64,7.64 L13.2,4.07 L13.2,5.9 C13.2,6.39705627 13.6029437,6.8 14.1,6.8 L14.1,6.8 Z" id="Shape"></path>
            <path d="M6.8,14.1 C6.8,13.6029437 6.39705627,13.2 5.9,13.2 L4.07,13.2 L6.63,10.64 C6.85864998,10.4131364 6.94890095,10.0815224 6.86675626,9.77007387 C6.78461156,9.45862535 6.54255093,9.21465873 6.23175626,9.13007387 C5.92096159,9.045489 5.58864998,9.13313635 5.36,9.36 L2.8,11.93 L2.8,10.1 C2.8,9.60294373 2.39705627,9.2 1.9,9.2 C1.40294373,9.2 1,9.60294373 1,10.1 L1,15 L5.9,15 C6.39705627,15 6.8,14.5970563 6.8,14.1 L6.8,14.1 Z" id="Shape"></path>
        </g>
    </g>
</svg>