<?xml version="1.0" encoding="UTF-8"?>
<svg width="24px" height="24px" viewBox="0 0 24 24" version="1.1" xmlns="http://www.w3.org/2000/svg" xmlns:xlink="http://www.w3.org/1999/xlink">
    <!-- Generator: sketchtool 44.1 (41455) - http://www.bohemiancoding.com/sketch -->
    <title>view-reduce</title>
    <desc>Created with sketchtool.</desc>
    <defs></defs>
    <g id="Symbols" stroke="none" stroke-width="1" fill="none" fill-rule="evenodd">
        <g id="view-reduce" fill-rule="nonzero" fill="#000000">
            <path d="M2,18.991 L2,6.992 C2,5.33514575 3.34314575,3.992 5,3.992 L8.333,3.992 C8.88528475,3.992 9.333,4.43971525 9.333,4.992 C9.333,5.54428475 8.88528475,5.992 8.333,5.992 L5,5.992 C4.44771525,5.992 4,6.43971525 4,6.992 L4,18.992 C4,19.5442847 4.44771525,19.992 5,19.992 L17,19.992 C17.5522847,19.992 18,19.5442847 18,18.992 L18,15.666 C18,15.1137153 18.4477153,14.666 19,14.666 C19.5522847,14.666 20,15.1137153 20,15.666 L20,18.991 C20,20.6478542 18.6568542,21.991 17,21.991 L5,21.991 C3.34314575,21.991 2,20.6478542 2,18.991 Z M22,9.991 C22,10.5432847 21.5522847,10.991 21,10.991 L13,10.991 L13,2.991 C13,2.43871525 13.4477153,1.991 14,1.991 C14.5522847,1.991 15,2.43871525 15,2.991 L15,7.577 L20.293,2.286 C20.6853789,1.90702779 21.3090848,1.91244763 21.6948186,2.29818142 C22.0805524,2.68391522 22.0859722,3.30762111 21.707,3.7 L16.414,8.991 L21,8.991 C21.5522847,8.991 22,9.43871525 22,9.991 Z" id="Combined-Shape"></path>
        </g>
    </g>
</svg>