<?xml version="1.0" encoding="UTF-8"?>
<svg width="24px" height="24px" viewBox="0 0 24 24" version="1.1" xmlns="http://www.w3.org/2000/svg" xmlns:xlink="http://www.w3.org/1999/xlink">
    <!-- Generator: sketchtool 44.1 (41455) - http://www.bohemiancoding.com/sketch -->
    <title>view-filter</title>
    <desc>Created with sketchtool.</desc>
    <defs></defs>
    <g id="Symbols" stroke="none" stroke-width="1" fill="none" fill-rule="evenodd">
        <g id="view-filter" fill-rule="nonzero" fill="#000000">
            <path d="M2,7.515 L9,12.515 L9,22.615 L15,19.615 L15,12.515 L22,7.515 L22,2 L2,2 L2,7.515 Z M4,4 L20,4 L20,6.485 L13,11.485 L13,18.385 L11,19.385 L11,13 C11.5522847,13 12,12.5522847 12,12 C12,11.4477153 11.5522847,11 11,11 L10.32,11 L6.12,8 L15,8 C15.5522847,8 16,7.55228475 16,7 C16,6.44771525 15.5522847,6 15,6 L4,6 L4,4 Z" id="Shape"></path>
        </g>
    </g>
</svg>