<?xml version="1.0" encoding="UTF-8"?>
<svg width="24px" height="24px" viewBox="0 0 24 24" version="1.1" xmlns="http://www.w3.org/2000/svg" xmlns:xlink="http://www.w3.org/1999/xlink">
    <!-- Generator: sketchtool 44.1 (41455) - http://www.bohemiancoding.com/sketch -->
    <title>window-multi</title>
    <desc>Created with sketchtool.</desc>
    <defs></defs>
    <g id="Symbols" stroke="none" stroke-width="1" fill="none" fill-rule="evenodd">
        <g id="window-multi" fill-rule="nonzero" fill="#000000">
            <path d="M21,4 L7,4 C5.34314575,4 4,5.34314575 4,7 L4,21 C4,22.6568542 5.34314575,24 7,24 L21,24 C22.6568542,24 24,22.6568542 24,21 L24,7 C24,5.34314575 22.6568542,4 21,4 Z M7,6 L21,6 C21.5522847,6 22,6.44771525 22,7 L22,10 L6,10 L6,7 C6,6.44771525 6.44771525,6 7,6 Z M21,22 L7,22 C6.44771525,22 6,21.5522847 6,21 L6,12 L22,12 L22,21 C22,21.5522847 21.5522847,22 21,22 Z M2,19 C1.44771525,19 1,18.5522847 1,18 L1,5 C1,2.790861 2.790861,1 5,1 L18,1 C18.5522847,1 19,1.44771525 19,2 C19,2.55228475 18.5522847,3 18,3 L5,3 C3.8954305,3 3,3.8954305 3,5 L3,18 C3,18.5522847 2.55228475,19 2,19 Z M8,9 C7.44771525,9 7,8.55228475 7,8 C7,7.44771525 7.44771525,7 8,7 C8.55228475,7 9,7.44771525 9,8 C9,8.55228475 8.55228475,9 8,9 Z M11,9 C10.4477153,9 10,8.55228475 10,8 C10,7.44771525 10.4477153,7 11,7 L19.5,7 C20.0522847,7 20.5,7.44771525 20.5,8 C20.5,8.55228475 20.0522847,9 19.5,9 L11,9 Z" id="Combined-Shape"></path>
        </g>
    </g>
</svg>